<svg width="24" height="24" viewBox="0 0 24 24" fill="none" xmlns="http://www.w3.org/2000/svg">
<path d="M7.19971 9.6V4H16.7997V9.6" stroke="#262626" stroke-width="1.5" stroke-linecap="round" stroke-linejoin="round"/>
<path d="M7.2 16.7996H5.6C5.17565 16.7996 4.76869 16.631 4.46863 16.331C4.16857 16.0309 4 15.624 4 15.1996V11.1996C4 10.7753 4.16857 10.3683 4.46863 10.0682C4.76869 9.76818 5.17565 9.59961 5.6 9.59961H18.4C18.8243 9.59961 19.2313 9.76818 19.5314 10.0682C19.8314 10.3683 20 10.7753 20 11.1996V15.1996C20 15.624 19.8314 16.0309 19.5314 16.331C19.2313 16.631 18.8243 16.7996 18.4 16.7996H16.8" stroke="#262626" stroke-width="1.5" stroke-linecap="round" stroke-linejoin="round"/>
<path d="M16.7997 13.5996H7.19971V19.9996H16.7997V13.5996Z" stroke="#262626" stroke-width="1.5" stroke-linecap="round" stroke-linejoin="round"/>
</svg>
