<svg width="32" height="32" viewBox="0 0 32 32" fill="none" xmlns="http://www.w3.org/2000/svg">
<path d="M9.59961 12.7997V5.33301H22.3996V12.7997" stroke="#0076BE" stroke-width="1.5" stroke-linecap="round" stroke-linejoin="round"/>
<path d="M9.60016 22.3998H7.46683C6.90103 22.3998 6.35841 22.175 5.95833 21.775C5.55826 21.3749 5.3335 20.8323 5.3335 20.2665V14.9331C5.3335 14.3673 5.55826 13.8247 5.95833 13.4246C6.35841 13.0246 6.90103 12.7998 7.46683 12.7998H24.5335C25.0993 12.7998 25.6419 13.0246 26.042 13.4246C26.4421 13.8247 26.6668 14.3673 26.6668 14.9331V20.2665C26.6668 20.8323 26.4421 21.3749 26.042 21.775C25.6419 22.175 25.0993 22.3998 24.5335 22.3998H22.4002" stroke="#0076BE" stroke-width="1.5" stroke-linecap="round" stroke-linejoin="round"/>
<path d="M22.3996 18.1328H9.59961V26.6661H22.3996V18.1328Z" stroke="#0076BE" stroke-width="1.5" stroke-linecap="round" stroke-linejoin="round"/>
</svg>
