<svg width="20" height="20" viewBox="0 0 20 20" fill="none" xmlns="http://www.w3.org/2000/svg">
<path d="M6 7.99967V3.33301H14V7.99967" stroke="#0076BE" stroke-width="1.4" stroke-linecap="round" stroke-linejoin="round"/>
<path d="M5.99967 14H4.66634C4.31272 14 3.97358 13.8595 3.72353 13.6095C3.47348 13.3594 3.33301 13.0203 3.33301 12.6667V9.33333C3.33301 8.97971 3.47348 8.64057 3.72353 8.39052C3.97358 8.14048 4.31272 8 4.66634 8H15.333C15.6866 8 16.0258 8.14048 16.2758 8.39052C16.5259 8.64057 16.6663 8.97971 16.6663 9.33333V12.6667C16.6663 13.0203 16.5259 13.3594 16.2758 13.6095C16.0258 13.8595 15.6866 14 15.333 14H13.9997" stroke="#0076BE" stroke-width="1.4" stroke-linecap="round" stroke-linejoin="round"/>
<path d="M14 11.334H6V16.6673H14V11.334Z" stroke="#0076BE" stroke-width="1.4" stroke-linecap="round" stroke-linejoin="round"/>
</svg>
