<svg width="12" height="12" viewBox="0 0 12 12" fill="none" xmlns="http://www.w3.org/2000/svg">
<path d="M3.59961 4.8V2H8.39961V4.8" stroke="#E62129" stroke-width="1.2" stroke-linecap="round" stroke-linejoin="round"/>
<path d="M3.6 8.3998H2.8C2.58783 8.3998 2.38434 8.31552 2.23431 8.16549C2.08429 8.01546 2 7.81198 2 7.5998V5.5998C2 5.38763 2.08429 5.18415 2.23431 5.03412C2.38434 4.88409 2.58783 4.7998 2.8 4.7998H9.2C9.41217 4.7998 9.61566 4.88409 9.76569 5.03412C9.91571 5.18415 10 5.38763 10 5.5998V7.5998C10 7.81198 9.91571 8.01546 9.76569 8.16549C9.61566 8.31552 9.41217 8.3998 9.2 8.3998H8.4" stroke="#E62129" stroke-width="1.2" stroke-linecap="round" stroke-linejoin="round"/>
<path d="M8.39961 6.7998H3.59961V9.9998H8.39961V6.7998Z" stroke="#E62129" stroke-width="1.2" stroke-linecap="round" stroke-linejoin="round"/>
</svg>
