<svg width="16" height="16" viewBox="0 0 16 16" fill="none" xmlns="http://www.w3.org/2000/svg">
<path d="M4.7998 6.39935V2.66602H11.1998V6.39935" stroke="white" stroke-width="1.3" stroke-linecap="round" stroke-linejoin="round"/>
<path d="M4.79984 11.1994H3.73317C3.45027 11.1994 3.17896 11.087 2.97892 10.887C2.77888 10.687 2.6665 10.4156 2.6665 10.1327V7.46608C2.6665 7.18318 2.77888 6.91187 2.97892 6.71183C3.17896 6.51179 3.45027 6.39941 3.73317 6.39941H12.2665C12.5494 6.39941 12.8207 6.51179 13.0208 6.71183C13.2208 6.91187 13.3332 7.18318 13.3332 7.46608V10.1327C13.3332 10.4156 13.2208 10.687 13.0208 10.887C12.8207 11.087 12.5494 11.1994 12.2665 11.1994H11.1998" stroke="white" stroke-width="1.3" stroke-linecap="round" stroke-linejoin="round"/>
<path d="M11.1998 9.06641H4.7998V13.3331H11.1998V9.06641Z" stroke="white" stroke-width="1.3" stroke-linecap="round" stroke-linejoin="round"/>
</svg>
