<svg width="27" height="27" viewBox="0 0 27 27" fill="none" xmlns="http://www.w3.org/2000/svg">
<path d="M12.6635 11.9322L1.95093 6.06174C1.20407 5.65247 1.27798 4.55653 2.07304 4.25124L12.7857 0.137796C13.0167 0.049096 13.2724 0.0491921 13.5033 0.138065L24.1919 4.25145C24.986 4.55704 25.0599 5.65163 24.3141 6.06123L13.6254 11.9317C13.3259 12.0962 12.9631 12.0964 12.6635 11.9322Z" fill="#BFBFBF"/>
<path d="M0 18.8093V6.65421C0 5.89304 0.816568 5.41093 1.48305 5.77861L12.6322 11.9294C12.9329 12.0952 13.2976 12.0952 13.5983 11.9294L24.6958 5.80702C25.3607 5.4402 26.1757 5.91918 26.1788 6.67857L26.2281 18.8697C26.2296 19.2357 26.031 19.5733 25.7104 19.7498L13.6278 26.4006C13.327 26.5662 12.9623 26.5659 12.6617 26.3997L0.516137 19.6845C0.197676 19.5084 0 19.1732 0 18.8093Z" fill="#BFBFBF"/>
<path opacity="0.39" d="M19.0604 14.8102C16.9452 14.3997 15.5039 12.3417 15.8412 10.2136L16.4374 6.45178C16.7988 4.17167 18.9289 2.67985 21.1952 3.11971C24.2169 3.7062 26.2759 6.64617 25.7941 9.68632L25.6029 10.8923C25.1624 13.6719 22.5656 15.4906 19.8028 14.9543L19.0604 14.8102Z" fill="#8C8C8C"/>
<path opacity="0.4" d="M13.0146 14.0198V21.2251C13.0146 23.5253 15.4967 24.9698 17.4966 23.8335L20.8236 21.9432C20.9947 21.846 21.1004 21.6644 21.1004 21.4676C21.1004 21.0558 20.6626 20.7917 20.2983 20.9838L17.6152 22.3985C16.0324 23.233 14.1299 22.0857 14.1299 20.2964V13.2104C14.1299 12.1896 13.0146 12.9991 13.0146 14.0198Z" fill="white" fill-opacity="0.4"/>
<path d="M5.32812 7.91882V13.6428H7.23101L9.07534 15.7009V10.0091L21.7739 3.2989L17.5192 1.64941L5.32812 7.91882Z" fill="white"/>
</svg>
