<svg width="24" height="24" viewBox="0 0 24 24" fill="none" xmlns="http://www.w3.org/2000/svg">
<path d="M18.2313 14.336C16.5837 15.9757 14.2241 16.4796 12.1525 15.8317L8.38523 19.591C8.11328 19.871 7.57738 20.0389 7.19346 19.9829L5.44979 19.743C4.8739 19.663 4.33801 19.1191 4.25002 18.5432L4.01007 16.7995C3.95408 16.4156 4.13804 15.8797 4.40199 15.6078L8.16127 11.8485C7.52139 9.76889 8.0173 7.40935 9.66498 5.76966C12.0245 3.41011 15.8558 3.41011 18.2233 5.76966C20.5909 8.12921 20.5909 11.9765 18.2313 14.336Z" stroke="#262626" stroke-width="1.5" stroke-miterlimit="10" stroke-linecap="round" stroke-linejoin="round"/>
<path d="M7.91309 16.3838L9.75273 18.2234" stroke="#262626" stroke-width="1.5" stroke-miterlimit="10" stroke-linecap="round" stroke-linejoin="round"/>
<path d="M14.0001 11.193C14.6627 11.193 15.1998 10.6558 15.1998 9.99323C15.1998 9.33061 14.6627 8.79346 14.0001 8.79346C13.3374 8.79346 12.8003 9.33061 12.8003 9.99323C12.8003 10.6558 13.3374 11.193 14.0001 11.193Z" stroke="#262626" stroke-width="1.5" stroke-linecap="round" stroke-linejoin="round"/>
</svg>
