<svg width="20" height="20" viewBox="0 0 20 20" fill="none" xmlns="http://www.w3.org/2000/svg">
<path d="M15.1929 11.9468C13.8199 13.3132 11.8536 13.7332 10.1272 13.1933L6.98785 16.326C6.76123 16.5593 6.31465 16.6993 5.99471 16.6526L4.54166 16.4526C4.06175 16.386 3.61517 15.9327 3.54185 15.4528L3.34189 13.9998C3.29523 13.6798 3.44853 13.2333 3.66849 13.0066L6.80122 9.87391C6.26799 8.14091 6.68125 6.17462 8.05432 4.80821C10.0206 2.84192 13.2133 2.84192 15.1863 4.80821C17.1592 6.7745 17.1592 9.98055 15.1929 11.9468Z" stroke="white" stroke-width="1.5" stroke-miterlimit="10" stroke-linecap="round" stroke-linejoin="round"/>
<path d="M6.59424 13.6533L8.12728 15.1864" stroke="white" stroke-width="1.5" stroke-miterlimit="10" stroke-linecap="round" stroke-linejoin="round"/>
<path d="M11.6668 9.32774C12.219 9.32774 12.6666 8.88011 12.6666 8.32793C12.6666 7.77575 12.219 7.32812 11.6668 7.32812C11.1146 7.32812 10.667 7.77575 10.667 8.32793C10.667 8.88011 11.1146 9.32774 11.6668 9.32774Z" stroke="white" stroke-width="1.5" stroke-linecap="round" stroke-linejoin="round"/>
</svg>
