<svg width="16" height="16" viewBox="0 0 16 16" fill="none" xmlns="http://www.w3.org/2000/svg">
<path d="M12.1546 9.55767C11.0561 10.6508 9.48306 10.9867 8.102 10.5548L5.59048 13.061C5.40918 13.2476 5.05191 13.3596 4.79596 13.3223L3.63352 13.1623C3.24959 13.109 2.89233 12.7464 2.83367 12.3625L2.6737 11.2C2.63638 10.9441 2.75902 10.5868 2.93499 10.4055L5.44117 7.89932C5.01459 6.51292 5.34519 4.93989 6.44365 3.84677C8.01668 2.27373 10.5709 2.27373 12.1492 3.84677C13.7276 5.4198 13.7276 7.98464 12.1546 9.55767Z" stroke="white" stroke-width="1.4" stroke-miterlimit="10" stroke-linecap="round" stroke-linejoin="round"/>
<path d="M5.27539 10.9229L6.50182 12.1493" stroke="white" stroke-width="1.4" stroke-miterlimit="10" stroke-linecap="round" stroke-linejoin="round"/>
<path d="M9.33354 7.462C9.77528 7.462 10.1334 7.10389 10.1334 6.66215C10.1334 6.22041 9.77528 5.8623 9.33354 5.8623C8.89179 5.8623 8.53369 6.22041 8.53369 6.66215C8.53369 7.10389 8.89179 7.462 9.33354 7.462Z" stroke="white" stroke-width="1.4" stroke-linecap="round" stroke-linejoin="round"/>
</svg>
