<svg width="32" height="32" viewBox="0 0 32 32" fill="none" xmlns="http://www.w3.org/2000/svg">
<path d="M24.3086 19.1149C22.1117 21.3011 18.9656 21.973 16.2035 21.1091L11.1805 26.1215C10.8179 26.4948 10.1033 26.7187 9.59144 26.6441L7.26655 26.3241C6.4987 26.2175 5.78417 25.4923 5.66686 24.7244L5.34692 22.3996C5.27227 21.8877 5.51755 21.1731 5.86949 20.8105L10.8819 15.7982C10.0287 13.0254 10.6899 9.87929 12.8868 7.69304C16.0329 4.54698 21.1412 4.54698 24.298 7.69304C27.4547 10.8391 27.4547 15.9688 24.3086 19.1149Z" stroke="white" stroke-width="1.5" stroke-miterlimit="10" stroke-linecap="round" stroke-linejoin="round"/>
<path d="M10.5508 21.8452L13.0036 24.2981" stroke="white" stroke-width="1.5" stroke-miterlimit="10" stroke-linecap="round" stroke-linejoin="round"/>
<path d="M18.6666 14.924C19.5501 14.924 20.2663 14.2078 20.2663 13.3243C20.2663 12.4408 19.5501 11.7246 18.6666 11.7246C17.7831 11.7246 17.0669 12.4408 17.0669 13.3243C17.0669 14.2078 17.7831 14.924 18.6666 14.924Z" stroke="white" stroke-width="1.5" stroke-linecap="round" stroke-linejoin="round"/>
</svg>
