<svg width="12" height="12" viewBox="0 0 12 12" fill="none" xmlns="http://www.w3.org/2000/svg">
<path d="M9.11567 7.16801C8.29183 7.98785 7.11205 8.2398 6.07625 7.91586L4.19261 9.7955C4.05664 9.93548 3.78869 10.0195 3.59673 9.99147L2.7249 9.87149C2.43695 9.8315 2.169 9.55955 2.12501 9.2716L2.00503 8.39977C1.97704 8.20781 2.06902 7.93986 2.201 7.80389L4.08064 5.92425C3.7607 4.88445 4.00865 3.70467 4.83249 2.88483C6.01226 1.70506 7.9279 1.70506 9.11167 2.88483C10.2954 4.0646 10.2954 5.98823 9.11567 7.16801Z" stroke="white" stroke-width="1.2" stroke-miterlimit="10" stroke-linecap="round" stroke-linejoin="round"/>
<path d="M3.95654 8.19238L4.87637 9.11221" stroke="white" stroke-width="1.2" stroke-miterlimit="10" stroke-linecap="round" stroke-linejoin="round"/>
<path d="M7.00028 5.59625C7.33158 5.59625 7.60016 5.32768 7.60016 4.99637C7.60016 4.66506 7.33158 4.39648 7.00028 4.39648C6.66897 4.39648 6.40039 4.66506 6.40039 4.99637C6.40039 5.32768 6.66897 5.59625 7.00028 5.59625Z" stroke="white" stroke-width="1.2" stroke-linecap="round" stroke-linejoin="round"/>
</svg>
