<svg width="20" height="20" viewBox="0 0 20 20" fill="none" xmlns="http://www.w3.org/2000/svg">
<path d="M10.6668 16.6668H5.3335C4.00016 16.6668 3.3335 16.0002 3.3335 14.6668V9.3335C3.3335 8.00016 4.00016 7.3335 5.3335 7.3335H8.66683V14.6668C8.66683 16.0002 9.3335 16.6668 10.6668 16.6668Z" stroke="#8C8C8C" stroke-width="1.5" stroke-miterlimit="10" stroke-linecap="round" stroke-linejoin="round"/>
<path d="M8.73966 4.66699C8.68633 4.86699 8.66634 5.08699 8.66634 5.33366V7.33366H5.33301V6.00033C5.33301 5.26699 5.93301 4.66699 6.66634 4.66699H8.73966Z" stroke="#8C8C8C" stroke-width="1.5" stroke-miterlimit="10" stroke-linecap="round" stroke-linejoin="round"/>
<path d="M11.3335 7.3335V10.6668" stroke="#8C8C8C" stroke-width="1.5" stroke-miterlimit="10" stroke-linecap="round" stroke-linejoin="round"/>
<path d="M14 7.3335V10.6668" stroke="#8C8C8C" stroke-width="1.5" stroke-miterlimit="10" stroke-linecap="round" stroke-linejoin="round"/>
<path d="M13.3335 13.3335H12.0002C11.6335 13.3335 11.3335 13.6335 11.3335 14.0002V16.6668H14.0002V14.0002C14.0002 13.6335 13.7002 13.3335 13.3335 13.3335Z" stroke="#8C8C8C" stroke-width="1.5" stroke-miterlimit="10" stroke-linecap="round" stroke-linejoin="round"/>
<path d="M6 10.667V13.3337" stroke="#8C8C8C" stroke-width="1.5" stroke-miterlimit="10" stroke-linecap="round" stroke-linejoin="round"/>
<path d="M8.6665 14.6668V5.3335C8.6665 4.00016 9.33317 3.3335 10.6665 3.3335H14.6665C15.9998 3.3335 16.6665 4.00016 16.6665 5.3335V14.6668C16.6665 16.0002 15.9998 16.6668 14.6665 16.6668H10.6665C9.33317 16.6668 8.6665 16.0002 8.6665 14.6668Z" stroke="#8C8C8C" stroke-width="1.5" stroke-miterlimit="10" stroke-linecap="round" stroke-linejoin="round"/>
</svg>
