<svg width="32" height="32" viewBox="0 0 32 32" fill="none" xmlns="http://www.w3.org/2000/svg">
<path d="M17.0668 26.6667H8.5335C6.40016 26.6667 5.3335 25.6001 5.3335 23.4667V14.9334C5.3335 12.8001 6.40016 11.7334 8.5335 11.7334H13.8668V23.4667C13.8668 25.6001 14.9335 26.6667 17.0668 26.6667Z" stroke="#8C8C8C" stroke-width="1.5" stroke-miterlimit="10" stroke-linecap="round" stroke-linejoin="round"/>
<path d="M13.9839 7.4668C13.8985 7.7868 13.8665 8.1388 13.8665 8.53346V11.7335H8.5332V9.60013C8.5332 8.4268 9.4932 7.4668 10.6665 7.4668H13.9839Z" stroke="#8C8C8C" stroke-width="1.5" stroke-miterlimit="10" stroke-linecap="round" stroke-linejoin="round"/>
<path d="M18.1333 11.7334V17.0667" stroke="#8C8C8C" stroke-width="1.5" stroke-miterlimit="10" stroke-linecap="round" stroke-linejoin="round"/>
<path d="M22.3999 11.7334V17.0667" stroke="#8C8C8C" stroke-width="1.5" stroke-miterlimit="10" stroke-linecap="round" stroke-linejoin="round"/>
<path d="M21.3333 21.3335H19.2C18.6133 21.3335 18.1333 21.8135 18.1333 22.4002V26.6668H22.4V22.4002C22.4 21.8135 21.92 21.3335 21.3333 21.3335Z" stroke="#8C8C8C" stroke-width="1.5" stroke-miterlimit="10" stroke-linecap="round" stroke-linejoin="round"/>
<path d="M9.6001 17.0669V21.3336" stroke="#8C8C8C" stroke-width="1.5" stroke-miterlimit="10" stroke-linecap="round" stroke-linejoin="round"/>
<path d="M13.8667 23.4668V8.5335C13.8667 6.40016 14.9334 5.3335 17.0667 5.3335H23.4667C25.6 5.3335 26.6667 6.40016 26.6667 8.5335V23.4668C26.6667 25.6002 25.6 26.6668 23.4667 26.6668H17.0667C14.9334 26.6668 13.8667 25.6002 13.8667 23.4668Z" stroke="#8C8C8C" stroke-width="1.5" stroke-miterlimit="10" stroke-linecap="round" stroke-linejoin="round"/>
</svg>
