<svg width="24" height="24" viewBox="0 0 24 24" fill="none" xmlns="http://www.w3.org/2000/svg">
<path d="M12.8 19.9998H6.4C4.8 19.9998 4 19.1998 4 17.5998V11.1998C4 9.5998 4.8 8.7998 6.4 8.7998H10.4V17.5998C10.4 19.1998 11.2 19.9998 12.8 19.9998Z" stroke="#8C8C8C" stroke-width="1.5" stroke-miterlimit="10" stroke-linecap="round" stroke-linejoin="round"/>
<path d="M10.4879 5.6001C10.4239 5.8401 10.3999 6.1041 10.3999 6.4001V8.8001H6.3999V7.2001C6.3999 6.3201 7.1199 5.6001 7.9999 5.6001H10.4879Z" stroke="#8C8C8C" stroke-width="1.5" stroke-miterlimit="10" stroke-linecap="round" stroke-linejoin="round"/>
<path d="M13.6001 8.7998V12.7998" stroke="#8C8C8C" stroke-width="1.5" stroke-miterlimit="10" stroke-linecap="round" stroke-linejoin="round"/>
<path d="M16.7998 8.7998V12.7998" stroke="#8C8C8C" stroke-width="1.5" stroke-miterlimit="10" stroke-linecap="round" stroke-linejoin="round"/>
<path d="M16.0001 16H14.4001C13.9601 16 13.6001 16.36 13.6001 16.8V20H16.8001V16.8C16.8001 16.36 16.4401 16 16.0001 16Z" stroke="#8C8C8C" stroke-width="1.5" stroke-miterlimit="10" stroke-linecap="round" stroke-linejoin="round"/>
<path d="M7.2002 12.7998V15.9998" stroke="#8C8C8C" stroke-width="1.5" stroke-miterlimit="10" stroke-linecap="round" stroke-linejoin="round"/>
<path d="M10.3999 17.6V6.4C10.3999 4.8 11.1999 4 12.7999 4H17.5999C19.1999 4 19.9999 4.8 19.9999 6.4V17.6C19.9999 19.2 19.1999 20 17.5999 20H12.7999C11.1999 20 10.3999 19.2 10.3999 17.6Z" stroke="#8C8C8C" stroke-width="1.5" stroke-miterlimit="10" stroke-linecap="round" stroke-linejoin="round"/>
</svg>
