<svg width="12" height="12" viewBox="0 0 12 12" fill="none" xmlns="http://www.w3.org/2000/svg">
<path d="M6.4 9.9999H3.2C2.4 9.9999 2 9.5999 2 8.7999V5.5999C2 4.7999 2.4 4.3999 3.2 4.3999H5.2V8.7999C5.2 9.5999 5.6 9.9999 6.4 9.9999Z" stroke="#E62129" stroke-width="1.5" stroke-miterlimit="10" stroke-linecap="round" stroke-linejoin="round"/>
<path d="M5.24419 2.7998C5.21219 2.9198 5.2002 3.0518 5.2002 3.1998V4.3998H3.2002V3.5998C3.2002 3.1598 3.5602 2.7998 4.0002 2.7998H5.24419Z" stroke="#E62129" stroke-width="1.5" stroke-miterlimit="10" stroke-linecap="round" stroke-linejoin="round"/>
<path d="M6.80029 4.3999V6.3999" stroke="#E62129" stroke-width="1.5" stroke-miterlimit="10" stroke-linecap="round" stroke-linejoin="round"/>
<path d="M8.40039 4.3999V6.3999" stroke="#E62129" stroke-width="1.5" stroke-miterlimit="10" stroke-linecap="round" stroke-linejoin="round"/>
<path d="M8.00029 8H7.20029C6.98029 8 6.80029 8.18 6.80029 8.4V10H8.40029V8.4C8.40029 8.18 8.22029 8 8.00029 8Z" stroke="#E62129" stroke-width="1.5" stroke-miterlimit="10" stroke-linecap="round" stroke-linejoin="round"/>
<path d="M3.59961 6.3999V7.9999" stroke="#E62129" stroke-width="1.5" stroke-miterlimit="10" stroke-linecap="round" stroke-linejoin="round"/>
<path d="M5.19971 8.8V3.2C5.19971 2.4 5.59971 2 6.39971 2H8.79971C9.59971 2 9.99971 2.4 9.99971 3.2V8.8C9.99971 9.6 9.59971 10 8.79971 10H6.39971C5.59971 10 5.19971 9.6 5.19971 8.8Z" stroke="#E62129" stroke-width="1.5" stroke-miterlimit="10" stroke-linecap="round" stroke-linejoin="round"/>
</svg>
