<svg width="16" height="16" viewBox="0 0 16 16" fill="none" xmlns="http://www.w3.org/2000/svg">
<path d="M8.53366 13.3334H4.26699C3.20033 13.3334 2.66699 12.8 2.66699 11.7334V7.4667C2.66699 6.40003 3.20033 5.8667 4.26699 5.8667H6.93366V11.7334C6.93366 12.8 7.46699 13.3334 8.53366 13.3334Z" stroke="white" stroke-width="1.5" stroke-miterlimit="10" stroke-linecap="round" stroke-linejoin="round"/>
<path d="M6.99193 3.7334C6.94926 3.8934 6.93327 4.0694 6.93327 4.26673V5.86673H4.2666V4.80007C4.2666 4.2134 4.7466 3.7334 5.33327 3.7334H6.99193Z" stroke="white" stroke-width="1.5" stroke-miterlimit="10" stroke-linecap="round" stroke-linejoin="round"/>
<path d="M9.06689 5.8667V8.53337" stroke="white" stroke-width="1.5" stroke-miterlimit="10" stroke-linecap="round" stroke-linejoin="round"/>
<path d="M11.2002 5.8667V8.53337" stroke="white" stroke-width="1.5" stroke-miterlimit="10" stroke-linecap="round" stroke-linejoin="round"/>
<path d="M10.6669 10.6665H9.60023C9.30689 10.6665 9.06689 10.9065 9.06689 11.1998V13.3332H11.2002V11.1998C11.2002 10.9065 10.9602 10.6665 10.6669 10.6665Z" stroke="white" stroke-width="1.5" stroke-miterlimit="10" stroke-linecap="round" stroke-linejoin="round"/>
<path d="M4.7998 8.5332V10.6665" stroke="white" stroke-width="1.5" stroke-miterlimit="10" stroke-linecap="round" stroke-linejoin="round"/>
<path d="M6.93311 11.7332V4.2665C6.93311 3.19984 7.46644 2.6665 8.53311 2.6665H11.7331C12.7998 2.6665 13.3331 3.19984 13.3331 4.2665V11.7332C13.3331 12.7998 12.7998 13.3332 11.7331 13.3332H8.53311C7.46644 13.3332 6.93311 12.7998 6.93311 11.7332Z" stroke="white" stroke-width="1.5" stroke-miterlimit="10" stroke-linecap="round" stroke-linejoin="round"/>
</svg>
