<svg width="12" height="12" viewBox="0 0 12 12" fill="none" xmlns="http://www.w3.org/2000/svg">
<path d="M8.05192 2.33424C8.15788 2.22827 8.28368 2.14421 8.42214 2.08687C8.56059 2.02952 8.70898 2 8.85884 2C9.0087 2 9.15709 2.02952 9.29554 2.08687C9.43399 2.14421 9.55979 2.22827 9.66576 2.33424C9.77173 2.4402 9.85579 2.56601 9.91313 2.70446C9.97048 2.84291 10 2.9913 10 3.14116C10 3.29102 9.97048 3.43941 9.91313 3.57786C9.85579 3.71632 9.77173 3.84212 9.66576 3.94808L4.21904 9.39481L2 10L2.60519 7.78096L8.05192 2.33424Z" stroke="#262626" stroke-width="1.2" stroke-linecap="round" stroke-linejoin="round"/>
<path d="M9.13867 3.98291L7.94888 2.79312" stroke="#262626" stroke-width="1.2" stroke-linecap="round" stroke-linejoin="round"/>
</svg>
