<svg width="20" height="20" viewBox="0 0 20 20" fill="none" xmlns="http://www.w3.org/2000/svg">
<path d="M13.42 3.89056C13.5966 3.71395 13.8063 3.57385 14.0371 3.47827C14.2678 3.38269 14.5151 3.3335 14.7649 3.3335C15.0147 3.3335 15.262 3.38269 15.4927 3.47827C15.7235 3.57385 15.9332 3.71395 16.1098 3.89056C16.2864 4.06717 16.4265 4.27684 16.5221 4.50759C16.6176 4.73834 16.6668 4.98566 16.6668 5.23543C16.6668 5.4852 16.6176 5.73252 16.5221 5.96327C16.4265 6.19402 16.2864 6.40369 16.1098 6.5803L7.03189 15.6582L3.3335 16.6668L4.34215 12.9684L13.42 3.89056Z" stroke="#8C8C8C" stroke-width="1.4" stroke-linecap="round" stroke-linejoin="round"/>
<path d="M15.231 6.63818L13.248 4.6552" stroke="#8C8C8C" stroke-width="1.4" stroke-linecap="round" stroke-linejoin="round"/>
</svg>
