<svg width="12" height="12" viewBox="0 0 12 12" fill="none" xmlns="http://www.w3.org/2000/svg">
<path d="M8.90098 5.6001H3.30098C2.85915 5.6001 2.50098 5.95827 2.50098 6.4001V9.2001C2.50098 9.64193 2.85915 10.0001 3.30098 10.0001H8.90098C9.3428 10.0001 9.70098 9.64193 9.70098 9.2001V6.4001C9.70098 5.95827 9.3428 5.6001 8.90098 5.6001Z" stroke="#262626" stroke-width="1.5" stroke-linecap="round" stroke-linejoin="round"/>
<path d="M4.10059 5.60049V4.00049C4.10059 3.47006 4.3113 2.96135 4.68637 2.58627C5.06145 2.2112 5.57015 2.00049 6.10059 2.00049C6.63102 2.00049 7.13973 2.2112 7.5148 2.58627C7.88987 2.96135 8.10059 3.47006 8.10059 4.00049V5.60049" stroke="#262626" stroke-width="1.5" stroke-linecap="round" stroke-linejoin="round"/>
</svg>
