<svg width="12" height="12" viewBox="0 0 12 12" fill="none" xmlns="http://www.w3.org/2000/svg">
<path d="M8.90098 5.59961H3.30098C2.85915 5.59961 2.50098 5.95778 2.50098 6.39961V9.19961C2.50098 9.64144 2.85915 9.99961 3.30098 9.99961H8.90098C9.3428 9.99961 9.70098 9.64144 9.70098 9.19961V6.39961C9.70098 5.95778 9.3428 5.59961 8.90098 5.59961Z" stroke="#0076BE" stroke-width="1.5" stroke-linecap="round" stroke-linejoin="round"/>
<path d="M4.10059 5.6V4C4.10059 3.46957 4.3113 2.96086 4.68637 2.58579C5.06145 2.21071 5.57015 2 6.10059 2C6.63102 2 7.13973 2.21071 7.5148 2.58579C7.88987 2.96086 8.10059 3.46957 8.10059 4V5.6" stroke="#0076BE" stroke-width="1.5" stroke-linecap="round" stroke-linejoin="round"/>
</svg>
