<svg width="32" height="32" viewBox="0 0 32 32" fill="none" xmlns="http://www.w3.org/2000/svg">
<path d="M23.7327 14.9331H8.79935C7.62114 14.9331 6.66602 15.8882 6.66602 17.0664V24.5331C6.66602 25.7113 7.62114 26.6664 8.79935 26.6664H23.7327C24.9109 26.6664 25.866 25.7113 25.866 24.5331V17.0664C25.866 15.8882 24.9109 14.9331 23.7327 14.9331Z" stroke="#C2D43D" stroke-width="1.5" stroke-linecap="round" stroke-linejoin="round"/>
<path d="M10.9331 14.9335V10.6668C10.9331 9.25234 11.495 7.89579 12.4952 6.89559C13.4954 5.8954 14.852 5.3335 16.2664 5.3335C17.6809 5.3335 19.0375 5.8954 20.0377 6.89559C21.0379 7.89579 21.5998 9.25234 21.5998 10.6668V14.9335" stroke="#C2D43D" stroke-width="1.5" stroke-linecap="round" stroke-linejoin="round"/>
</svg>
