<svg width="20" height="20" viewBox="0 0 20 20" fill="none" xmlns="http://www.w3.org/2000/svg">
<path d="M14.8327 9.33301H5.49935C4.76297 9.33301 4.16602 9.92996 4.16602 10.6663V15.333C4.16602 16.0694 4.76297 16.6663 5.49935 16.6663H14.8327C15.5691 16.6663 16.166 16.0694 16.166 15.333V10.6663C16.166 9.92996 15.5691 9.33301 14.8327 9.33301Z" stroke="#C2D43D" stroke-width="1.5" stroke-linecap="round" stroke-linejoin="round"/>
<path d="M6.83301 9.3335V6.66683C6.83301 5.78277 7.1842 4.93493 7.80932 4.30981C8.43444 3.68469 9.28229 3.3335 10.1663 3.3335C11.0504 3.3335 11.8982 3.68469 12.5234 4.30981C13.1485 4.93493 13.4997 5.78277 13.4997 6.66683V9.3335" stroke="#C2D43D" stroke-width="1.5" stroke-linecap="round" stroke-linejoin="round"/>
</svg>
