<svg width="16" height="16" viewBox="0 0 16 16" fill="none" xmlns="http://www.w3.org/2000/svg">
<path d="M11.8663 7.46606H4.39967C3.81057 7.46606 3.33301 7.94363 3.33301 8.53273V12.2661C3.33301 12.8552 3.81057 13.3327 4.39967 13.3327H11.8663C12.4554 13.3327 12.933 12.8552 12.933 12.2661V8.53273C12.933 7.94363 12.4554 7.46606 11.8663 7.46606Z" stroke="#8C8C8C" stroke-width="1.5" stroke-linecap="round" stroke-linejoin="round"/>
<path d="M5.4668 7.4665V5.33317C5.4668 4.62593 5.74775 3.94765 6.24785 3.44755C6.74794 2.94746 7.42622 2.6665 8.13346 2.6665C8.84071 2.6665 9.51898 2.94746 10.0191 3.44755C10.5192 3.94765 10.8001 4.62593 10.8001 5.33317V7.4665" stroke="#8C8C8C" stroke-width="1.5" stroke-linecap="round" stroke-linejoin="round"/>
</svg>
