<svg width="32" height="32" viewBox="0 0 32 32" fill="none" xmlns="http://www.w3.org/2000/svg">
<path d="M23.7327 14.9326H8.79935C7.62114 14.9326 6.66602 15.8877 6.66602 17.066V24.5326C6.66602 25.7108 7.62114 26.666 8.79935 26.666H23.7327C24.9109 26.666 25.866 25.7108 25.866 24.5326V17.066C25.866 15.8877 24.9109 14.9326 23.7327 14.9326Z" stroke="#8C8C8C" stroke-width="1.5" stroke-linecap="round" stroke-linejoin="round"/>
<path d="M10.9331 14.933V10.6663C10.9331 9.25185 11.495 7.8953 12.4952 6.89511C13.4954 5.89491 14.852 5.33301 16.2664 5.33301C17.6809 5.33301 19.0375 5.89491 20.0377 6.89511C21.0379 7.8953 21.5998 9.25185 21.5998 10.6663V14.933" stroke="#8C8C8C" stroke-width="1.5" stroke-linecap="round" stroke-linejoin="round"/>
</svg>
