<svg width="20" height="20" viewBox="0 0 20 20" fill="none" xmlns="http://www.w3.org/2000/svg">
<path d="M14.8327 9.33276H5.49935C4.76297 9.33276 4.16602 9.92972 4.16602 10.6661V15.3328C4.16602 16.0691 4.76297 16.6661 5.49935 16.6661H14.8327C15.5691 16.6661 16.166 16.0691 16.166 15.3328V10.6661C16.166 9.92972 15.5691 9.33276 14.8327 9.33276Z" stroke="#8C8C8C" stroke-width="1.5" stroke-linecap="round" stroke-linejoin="round"/>
<path d="M6.83301 9.33301V6.66634C6.83301 5.78229 7.1842 4.93444 7.80932 4.30932C8.43444 3.6842 9.28229 3.33301 10.1663 3.33301C11.0504 3.33301 11.8982 3.6842 12.5234 4.30932C13.1485 4.93444 13.4997 5.78229 13.4997 6.66634V9.33301" stroke="#8C8C8C" stroke-width="1.5" stroke-linecap="round" stroke-linejoin="round"/>
</svg>
