<svg width="24" height="24" viewBox="0 0 24 24" fill="none" xmlns="http://www.w3.org/2000/svg">
<path d="M17.8 11.1997H6.6C5.71634 11.1997 5 11.9161 5 12.7997V18.3997C5 19.2834 5.71634 19.9997 6.6 19.9997H17.8C18.6837 19.9997 19.4 19.2834 19.4 18.3997V12.7997C19.4 11.9161 18.6837 11.1997 17.8 11.1997Z" stroke="white" stroke-width="1.5" stroke-linecap="round" stroke-linejoin="round"/>
<path d="M8.2002 11.2V8C8.2002 6.93913 8.62162 5.92172 9.37177 5.17157C10.1219 4.42143 11.1393 4 12.2002 4C13.2611 4 14.2785 4.42143 15.0286 5.17157C15.7788 5.92172 16.2002 6.93913 16.2002 8V11.2" stroke="white" stroke-width="1.5" stroke-linecap="round" stroke-linejoin="round"/>
</svg>
