<svg width="16" height="16" viewBox="0 0 16 16" fill="none" xmlns="http://www.w3.org/2000/svg">
<path d="M11.8663 7.46631H4.39967C3.81057 7.46631 3.33301 7.94387 3.33301 8.53298V12.2663C3.33301 12.8554 3.81057 13.333 4.39967 13.333H11.8663C12.4554 13.333 12.933 12.8554 12.933 12.2663V8.53298C12.933 7.94387 12.4554 7.46631 11.8663 7.46631Z" stroke="white" stroke-width="1.5" stroke-linecap="round" stroke-linejoin="round"/>
<path d="M5.4668 7.46699V5.33366C5.4668 4.62641 5.74775 3.94814 6.24785 3.44804C6.74794 2.94794 7.42622 2.66699 8.13346 2.66699C8.84071 2.66699 9.51898 2.94794 10.0191 3.44804C10.5192 3.94814 10.8001 4.62641 10.8001 5.33366V7.46699" stroke="white" stroke-width="1.5" stroke-linecap="round" stroke-linejoin="round"/>
</svg>
