<svg width="20" height="20" viewBox="0 0 20 20" fill="none" xmlns="http://www.w3.org/2000/svg">
<path d="M8.08447 9.30355C8.01475 9.29681 7.93109 9.29681 7.8544 9.30355C6.19511 9.2497 4.87744 7.93723 4.87744 6.32189C4.87744 4.67289 6.25786 3.3335 7.97292 3.3335C9.68101 3.3335 11.0684 4.67289 11.0684 6.32189C11.0614 7.93723 9.74376 9.2497 8.08447 9.30355Z" stroke="#262626" stroke-width="1.5" stroke-linecap="round" stroke-linejoin="round"/>
<path d="M13.1385 4.6792C14.491 4.6792 15.5786 5.7359 15.5786 7.03491C15.5786 8.307 14.5328 9.34351 13.2291 9.39062C13.1733 9.38389 13.1106 9.38389 13.0479 9.39062" stroke="#262626" stroke-width="1.5" stroke-linecap="round" stroke-linejoin="round"/>
<path d="M4.59888 11.7871C2.9117 12.8774 2.9117 14.6543 4.59888 15.7379C6.51612 16.9764 9.66041 16.9764 11.5777 15.7379C13.2648 14.6476 13.2648 12.8707 11.5777 11.7871C9.66738 10.5554 6.5231 10.5554 4.59888 11.7871Z" stroke="#262626" stroke-width="1.5" stroke-linecap="round" stroke-linejoin="round"/>
<path d="M14.4844 15.4485C14.9863 15.3476 15.4604 15.1524 15.8508 14.863C16.9384 14.0755 16.9384 12.7765 15.8508 11.989C15.4674 11.7063 15.0003 11.5178 14.5053 11.4102" stroke="#262626" stroke-width="1.5" stroke-linecap="round" stroke-linejoin="round"/>
</svg>
