<svg width="12" height="12" viewBox="0 0 12 12" fill="none" xmlns="http://www.w3.org/2000/svg">
<path d="M4.85049 5.58203C4.80866 5.57799 4.75846 5.57799 4.71245 5.58203C3.71687 5.54972 2.92627 4.76224 2.92627 3.79303C2.92627 2.80363 3.75452 2 4.78356 2C5.80841 2 6.64084 2.80363 6.64084 3.79303C6.63666 4.76224 5.84606 5.54972 4.85049 5.58203Z" stroke="#0076BE" stroke-width="1.5" stroke-linecap="round" stroke-linejoin="round"/>
<path d="M7.88348 2.80762C8.695 2.80762 9.34756 3.44164 9.34756 4.22104C9.34756 4.9843 8.7201 5.6062 7.93786 5.63447C7.9044 5.63043 7.86675 5.63043 7.8291 5.63447" stroke="#0076BE" stroke-width="1.5" stroke-linecap="round" stroke-linejoin="round"/>
<path d="M2.75923 7.07184C1.74692 7.72606 1.74692 8.79219 2.75923 9.44236C3.90958 10.1854 5.79615 10.1854 6.94649 9.44236C7.9588 8.78815 7.9588 7.72202 6.94649 7.07184C5.80033 6.33282 3.91376 6.33282 2.75923 7.07184Z" stroke="#0076BE" stroke-width="1.5" stroke-linecap="round" stroke-linejoin="round"/>
<path d="M8.69043 9.26872C8.99161 9.20815 9.27606 9.09103 9.51031 8.91738C10.1629 8.44489 10.1629 7.66549 9.51031 7.193C9.28024 7.02339 8.99998 6.91032 8.70298 6.8457" stroke="#0076BE" stroke-width="1.5" stroke-linecap="round" stroke-linejoin="round"/>
</svg>
