<svg width="16" height="16" viewBox="0 0 16 16" fill="none" xmlns="http://www.w3.org/2000/svg">
<path d="M6.46748 7.44303C6.4117 7.43765 6.34477 7.43765 6.28342 7.44303C4.95599 7.39996 3.90186 6.34998 3.90186 5.0577C3.90186 3.7385 5.00619 2.66699 6.37824 2.66699C7.74471 2.66699 8.85462 3.7385 8.85462 5.0577C8.84905 6.34998 7.79491 7.39996 6.46748 7.44303Z" stroke="#C2D43D" stroke-width="1.5" stroke-linecap="round" stroke-linejoin="round"/>
<path d="M10.511 3.74316C11.593 3.74316 12.4631 4.58853 12.4631 5.62773C12.4631 6.6454 11.6265 7.47461 10.5835 7.5123C10.5389 7.50692 10.4887 7.50692 10.4385 7.5123" stroke="#C2D43D" stroke-width="1.5" stroke-linecap="round" stroke-linejoin="round"/>
<path d="M3.6793 9.42945C2.32956 10.3017 2.32956 11.7232 3.6793 12.5901C5.21309 13.5809 7.72852 13.5809 9.26232 12.5901C10.6121 11.7179 10.6121 10.2964 9.26232 9.42945C7.7341 8.44409 5.21867 8.44409 3.6793 9.42945Z" stroke="#C2D43D" stroke-width="1.5" stroke-linecap="round" stroke-linejoin="round"/>
<path d="M11.5874 12.3586C11.989 12.2779 12.3682 12.1217 12.6806 11.8902C13.5507 11.2602 13.5507 10.221 12.6806 9.591C12.3738 9.36485 12.0001 9.21408 11.6041 9.12793" stroke="#C2D43D" stroke-width="1.5" stroke-linecap="round" stroke-linejoin="round"/>
</svg>
