<svg width="32" height="32" viewBox="0 0 32 32" fill="none" xmlns="http://www.w3.org/2000/svg">
<path d="M12.9354 14.8856C12.8239 14.8748 12.69 14.8748 12.5673 14.8856C9.91247 14.7994 7.8042 12.6995 7.8042 10.1149C7.8042 7.47652 10.0129 5.3335 12.757 5.3335C15.4899 5.3335 17.7097 7.47652 17.7097 10.1149C17.6986 12.6995 15.5903 14.7994 12.9354 14.8856Z" stroke="#8C8C8C" stroke-width="1.5" stroke-linecap="round" stroke-linejoin="round"/>
<path d="M21.022 7.48682C23.186 7.48682 24.9262 9.17755 24.9262 11.256C24.9262 13.2913 23.2529 14.9497 21.167 15.0251C21.0777 15.0143 20.9773 15.0143 20.877 15.0251" stroke="#8C8C8C" stroke-width="1.5" stroke-linecap="round" stroke-linejoin="round"/>
<path d="M7.35811 18.8589C4.65863 20.6035 4.65863 23.4465 7.35811 25.1803C10.4257 27.1618 15.4566 27.1618 18.5241 25.1803C21.2236 23.4357 21.2236 20.5927 18.5241 18.8589C15.4677 16.8882 10.4369 16.8882 7.35811 18.8589Z" stroke="#8C8C8C" stroke-width="1.5" stroke-linecap="round" stroke-linejoin="round"/>
<path d="M23.1753 24.7172C23.9784 24.5557 24.737 24.2434 25.3616 23.7803C27.1018 22.5204 27.1018 20.442 25.3616 19.182C24.7481 18.7297 24.0008 18.4282 23.2088 18.2559" stroke="#8C8C8C" stroke-width="1.5" stroke-linecap="round" stroke-linejoin="round"/>
</svg>
