<svg width="24" height="24" viewBox="0 0 24 24" fill="none" xmlns="http://www.w3.org/2000/svg">
<path d="M9.70146 11.1641C9.6178 11.156 9.51741 11.156 9.42538 11.1641C7.43423 11.0994 5.85303 9.52448 5.85303 7.58607C5.85303 5.60727 7.50953 4 9.5676 4C11.6173 4 13.2822 5.60727 13.2822 7.58607C13.2738 9.52448 11.6926 11.0994 9.70146 11.1641Z" stroke="#8C8C8C" stroke-width="1.5" stroke-linecap="round" stroke-linejoin="round"/>
<path d="M15.7665 5.61523C17.3895 5.61523 18.6946 6.88328 18.6946 8.44209C18.6946 9.96859 17.4397 11.2124 15.8752 11.2689C15.8083 11.2609 15.733 11.2609 15.6577 11.2689" stroke="#8C8C8C" stroke-width="1.5" stroke-linecap="round" stroke-linejoin="round"/>
<path d="M5.51846 14.1442C3.49385 15.4526 3.49385 17.5849 5.51846 18.8852C7.81915 20.3713 11.5923 20.3713 13.893 18.8852C15.9176 17.5768 15.9176 15.4445 13.893 14.1442C11.6007 12.6661 7.82752 12.6661 5.51846 14.1442Z" stroke="#8C8C8C" stroke-width="1.5" stroke-linecap="round" stroke-linejoin="round"/>
<path d="M17.3813 18.5379C17.9837 18.4168 18.5526 18.1826 19.0211 17.8353C20.3262 16.8903 20.3262 15.3315 19.0211 14.3865C18.561 14.0473 18.0004 13.8211 17.4064 13.6919" stroke="#8C8C8C" stroke-width="1.5" stroke-linecap="round" stroke-linejoin="round"/>
</svg>
