<svg width="16" height="16" viewBox="0 0 16 16" fill="none" xmlns="http://www.w3.org/2000/svg">
<path fill-rule="evenodd" clip-rule="evenodd" d="M3.33345 8.95248V8.83569C3.35058 8.49015 3.46133 8.15534 3.65426 7.8658C3.97541 7.518 4.19525 7.09178 4.29072 6.63187C4.29072 6.27642 4.29072 5.91588 4.32177 5.56043C4.48218 3.84917 6.17422 2.66602 7.84557 2.66602H7.88697C9.55832 2.66602 11.2504 3.84917 11.4159 5.56043C11.447 5.91588 11.4159 6.27642 11.4418 6.63187C11.5386 7.09284 11.7582 7.52039 12.0783 7.87088C12.2727 8.15786 12.3836 8.49143 12.3991 8.83569V8.9474C12.4106 9.41164 12.2508 9.86432 11.9489 10.222C11.5501 10.6401 11.0088 10.9003 10.4276 10.9532C8.7234 11.136 7.00396 11.136 5.29974 10.9532C4.71922 10.898 4.17875 10.6382 3.77845 10.222C3.48127 9.86405 3.32354 9.41406 3.33345 8.95248Z" stroke="#C2D43D" stroke-width="1.3" stroke-linecap="round" stroke-linejoin="round"/>
<path d="M6.56299 12.7207C6.82927 13.0549 7.2203 13.2712 7.64954 13.3217C8.07879 13.3723 8.51085 13.2528 8.8501 12.9898C8.95444 12.9121 9.04832 12.8216 9.12952 12.7207" stroke="#C2D43D" stroke-width="1.3" stroke-linecap="round" stroke-linejoin="round"/>
<circle cx="11.9997" cy="4.00065" r="2.66667" fill="#E62129"/>
</svg>
