<svg width="20" height="20" viewBox="0 0 20 20" fill="none" xmlns="http://www.w3.org/2000/svg">
<path fill-rule="evenodd" clip-rule="evenodd" d="M4.16705 11.1911V11.0451C4.18847 10.6132 4.3269 10.1947 4.56807 9.83274C4.96951 9.39798 5.24431 8.86521 5.36365 8.29033C5.36365 7.84601 5.36365 7.39534 5.40245 6.95103C5.60296 4.81195 7.71802 3.33301 9.80721 3.33301H9.85895C11.9481 3.33301 14.0632 4.81195 14.2702 6.95103C14.309 7.39534 14.2702 7.84601 14.3025 8.29033C14.4235 8.86654 14.698 9.40097 15.0981 9.83909C15.3411 10.1978 15.4797 10.6148 15.4991 11.0451V11.1847C15.5135 11.765 15.3137 12.3309 14.9364 12.7779C14.4378 13.3007 13.7612 13.6259 13.0348 13.692C10.9045 13.9205 8.75519 13.9205 6.62492 13.692C5.89927 13.623 5.22368 13.2983 4.72331 12.7779C4.35184 12.3305 4.15466 11.7681 4.16705 11.1911Z" stroke="#C2D43D" stroke-width="1.4" stroke-linecap="round" stroke-linejoin="round"/>
<path d="M8.20361 15.9004C8.53646 16.3182 9.02525 16.5886 9.56181 16.6517C10.0984 16.7148 10.6384 16.5655 11.0625 16.2368C11.1929 16.1396 11.3103 16.0265 11.4118 15.9004" stroke="#C2D43D" stroke-width="1.4" stroke-linecap="round" stroke-linejoin="round"/>
<circle cx="14.9998" cy="5.00033" r="3.33333" fill="#E62129"/>
</svg>
