<svg width="32" height="32" viewBox="0 0 32 32" fill="none" xmlns="http://www.w3.org/2000/svg">
<path fill-rule="evenodd" clip-rule="evenodd" d="M6.66738 17.9059V17.6724C6.70165 16.9813 6.92314 16.3117 7.30902 15.7326C7.95131 15.037 8.39099 14.1845 8.58193 13.2647C8.58193 12.5538 8.58193 11.8327 8.64403 11.1218C8.96484 7.69932 12.3489 5.33301 15.6916 5.33301H15.7744C19.1171 5.33301 22.5012 7.69932 22.8324 11.1218C22.8945 11.8327 22.8324 12.5538 22.8841 13.2647C23.0776 14.1867 23.5169 15.0417 24.157 15.7427C24.5458 16.3167 24.7676 16.9838 24.7987 17.6724V17.8958C24.8218 18.8243 24.502 19.7296 23.8983 20.4449C23.1006 21.2812 22.0181 21.8016 20.8557 21.9073C17.4473 22.273 14.0084 22.273 10.6 21.9073C9.43892 21.797 8.35798 21.2774 7.55739 20.4449C6.96304 19.7291 6.64756 18.8291 6.66738 17.9059Z" stroke="white" stroke-width="1.5" stroke-linecap="round" stroke-linejoin="round"/>
<path d="M13.1255 25.4414C13.658 26.1099 14.4401 26.5425 15.2986 26.6435C16.1571 26.7445 17.0212 26.5056 17.6997 25.9797C17.9084 25.8241 18.0962 25.6433 18.2585 25.4414" stroke="white" stroke-width="1.5" stroke-linecap="round" stroke-linejoin="round"/>
<circle cx="23.9998" cy="8.00033" r="5.33333" fill="#E62129"/>
</svg>
