<svg width="83" height="40" viewBox="0 0 83 40" fill="none" xmlns="http://www.w3.org/2000/svg">
<rect width="83" height="39.0588" rx="19.5294" fill="#8C8C8C"/>
<circle cx="63.9176" cy="19.1617" r="14.2809" fill="white"/>
<path d="M20.1605 24.3773C19.2365 24.3773 18.3872 24.1626 17.6125 23.7333C16.8472 23.304 16.2359 22.7066 15.7785 21.9413C15.3305 21.1666 15.1065 20.2986 15.1065 19.3373C15.1065 18.376 15.3305 17.5126 15.7785 16.7473C16.2359 15.982 16.8472 15.3846 17.6125 14.9553C18.3872 14.526 19.2365 14.3113 20.1605 14.3113C21.0845 14.3113 21.9292 14.526 22.6945 14.9553C23.4692 15.3846 24.0759 15.982 24.5145 16.7473C24.9625 17.5126 25.1865 18.376 25.1865 19.3373C25.1865 20.2986 24.9625 21.1666 24.5145 21.9413C24.0665 22.7066 23.4599 23.304 22.6945 23.7333C21.9292 24.1626 21.0845 24.3773 20.1605 24.3773ZM20.1605 22.1933C20.9445 22.1933 21.5699 21.932 22.0365 21.4093C22.5125 20.8866 22.7505 20.196 22.7505 19.3373C22.7505 18.4693 22.5125 17.7786 22.0365 17.2653C21.5699 16.7426 20.9445 16.4813 20.1605 16.4813C19.3672 16.4813 18.7325 16.738 18.2565 17.2513C17.7899 17.7646 17.5565 18.46 17.5565 19.3373C17.5565 20.2053 17.7899 20.9006 18.2565 21.4233C18.7325 21.9366 19.3672 22.1933 20.1605 22.1933ZM35.3104 24.2793H32.9164L28.9124 18.2173V24.2793H26.5184V14.4513H28.9124L32.9164 20.5413V14.4513H35.3104V24.2793Z" fill="white"/>
</svg>
