<svg width="83" height="40" viewBox="0 0 83 40" fill="none" xmlns="http://www.w3.org/2000/svg">
<rect y="0.135742" width="83" height="39.0588" rx="19.5294" fill="#0076BE"/>
<circle cx="63.9166" cy="19.2965" r="14.2809" fill="white"/>
<path d="M20.1605 24.513C19.2365 24.513 18.3872 24.2984 17.6125 23.869C16.8472 23.4397 16.2359 22.8424 15.7785 22.077C15.3305 21.3024 15.1065 20.4344 15.1065 19.473C15.1065 18.5117 15.3305 17.6484 15.7785 16.883C16.2359 16.1177 16.8472 15.5204 17.6125 15.091C18.3872 14.6617 19.2365 14.447 20.1605 14.447C21.0845 14.447 21.9292 14.6617 22.6945 15.091C23.4692 15.5204 24.0759 16.1177 24.5145 16.883C24.9625 17.6484 25.1865 18.5117 25.1865 19.473C25.1865 20.4344 24.9625 21.3024 24.5145 22.077C24.0665 22.8424 23.4599 23.4397 22.6945 23.869C21.9292 24.2984 21.0845 24.513 20.1605 24.513ZM20.1605 22.329C20.9445 22.329 21.5699 22.0677 22.0365 21.545C22.5125 21.0224 22.7505 20.3317 22.7505 19.473C22.7505 18.605 22.5125 17.9144 22.0365 17.401C21.5699 16.8784 20.9445 16.617 20.1605 16.617C19.3672 16.617 18.7325 16.8737 18.2565 17.387C17.7899 17.9004 17.5565 18.5957 17.5565 19.473C17.5565 20.341 17.7899 21.0364 18.2565 21.559C18.7325 22.0724 19.3672 22.329 20.1605 22.329ZM35.3104 24.415H32.9164L28.9124 18.353V24.415H26.5184V14.587H28.9124L32.9164 20.677V14.587H35.3104V24.415Z" fill="white"/>
</svg>
