<svg width="83" height="40" viewBox="0 0 83 40" fill="none" xmlns="http://www.w3.org/2000/svg">
<rect x="0.8" y="1.26973" width="81.4" height="37.4588" rx="18.7294" stroke="#D9D9D9" stroke-width="1.6"/>
<circle cx="20.7936" cy="19.6364" r="14.2809" fill="#D9D9D9"/>
<path d="M47.9144 24.8529C46.9904 24.8529 46.1411 24.6382 45.3664 24.2089C44.6011 23.7795 43.9898 23.1822 43.5324 22.4169C43.0844 21.6422 42.8604 20.7742 42.8604 19.8129C42.8604 18.8515 43.0844 17.9882 43.5324 17.2229C43.9898 16.4575 44.6011 15.8602 45.3664 15.4309C46.1411 15.0015 46.9904 14.7869 47.9144 14.7869C48.8384 14.7869 49.6831 15.0015 50.4484 15.4309C51.2231 15.8602 51.8298 16.4575 52.2684 17.2229C52.7164 17.9882 52.9404 18.8515 52.9404 19.8129C52.9404 20.7742 52.7164 21.6422 52.2684 22.4169C51.8204 23.1822 51.2138 23.7795 50.4484 24.2089C49.6831 24.6382 48.8384 24.8529 47.9144 24.8529ZM47.9144 22.6689C48.6984 22.6689 49.3238 22.4075 49.7904 21.8849C50.2664 21.3622 50.5044 20.6715 50.5044 19.8129C50.5044 18.9449 50.2664 18.2542 49.7904 17.7409C49.3238 17.2182 48.6984 16.9569 47.9144 16.9569C47.1211 16.9569 46.4864 17.2135 46.0104 17.7269C45.5438 18.2402 45.3104 18.9355 45.3104 19.8129C45.3104 20.6809 45.5438 21.3762 46.0104 21.8989C46.4864 22.4122 47.1211 22.6689 47.9144 22.6689ZM60.6703 14.9269V16.8449H56.6663V18.9169H59.6623V20.7789H56.6663V24.7549H54.2723V14.9269H60.6703ZM68.3265 14.9269V16.8449H64.3225V18.9169H67.3185V20.7789H64.3225V24.7549H61.9285V14.9269H68.3265Z" fill="#8C8C8C"/>
</svg>
