<svg width="83" height="40" viewBox="0 0 83 40" fill="none" xmlns="http://www.w3.org/2000/svg">
<rect x="0.813725" y="1.61841" width="81.3726" height="37.4314" rx="18.7157" stroke="white" stroke-width="1.62745"/>
<circle cx="20.7936" cy="19.9664" r="14.2809" fill="white"/>
<path d="M47.1 25.183C46.176 25.183 45.3267 24.9683 44.552 24.539C43.7867 24.1096 43.1753 23.5123 42.718 22.747C42.27 21.9723 42.046 21.1043 42.046 20.143C42.046 19.1816 42.27 18.3183 42.718 17.553C43.1753 16.7876 43.7867 16.1903 44.552 15.761C45.3267 15.3316 46.176 15.117 47.1 15.117C48.024 15.117 48.8687 15.3316 49.634 15.761C50.4087 16.1903 51.0153 16.7876 51.454 17.553C51.902 18.3183 52.126 19.1816 52.126 20.143C52.126 21.1043 51.902 21.9723 51.454 22.747C51.006 23.5123 50.3993 24.1096 49.634 24.539C48.8687 24.9683 48.024 25.183 47.1 25.183ZM47.1 22.999C47.884 22.999 48.5093 22.7376 48.976 22.215C49.452 21.6923 49.69 21.0016 49.69 20.143C49.69 19.275 49.452 18.5843 48.976 18.071C48.5093 17.5483 47.884 17.287 47.1 17.287C46.3067 17.287 45.672 17.5436 45.196 18.057C44.7293 18.5703 44.496 19.2656 44.496 20.143C44.496 21.011 44.7293 21.7063 45.196 22.229C45.672 22.7423 46.3067 22.999 47.1 22.999ZM59.8558 15.257V17.175H55.8518V19.247H58.8478V21.109H55.8518V25.085H53.4578V15.257H59.8558ZM67.5121 15.257V17.175H63.5081V19.247H66.5041V21.109H63.5081V25.085H61.1141V15.257H67.5121Z" fill="white"/>
<path d="M11.9468 15.2714C12.9037 15.2714 13.7288 15.4716 14.4221 15.872C15.1154 16.2723 15.6476 16.8435 16.0186 17.5857C16.3995 18.3278 16.5899 19.2164 16.5899 20.2514C16.5899 21.2865 16.3995 22.1751 16.0186 22.9172C15.6476 23.6593 15.1154 24.2305 14.4221 24.6309C13.7288 25.0313 12.9037 25.2314 11.9468 25.2314C10.9898 25.2314 10.1598 25.0313 9.45675 24.6309C8.76346 24.2305 8.2264 23.6593 7.84558 22.9172C7.47452 22.1751 7.28899 21.2865 7.28899 20.2514C7.28899 19.2164 7.47452 18.3278 7.84558 17.5857C8.2264 16.8435 8.76346 16.2723 9.45675 15.872C10.1598 15.4716 10.9898 15.2714 11.9468 15.2714ZM11.9468 16.9265C11.3999 16.9265 10.9361 17.0535 10.5553 17.3074C10.1745 17.5613 9.88152 17.9372 9.67646 18.4352C9.48117 18.9234 9.38352 19.5288 9.38352 20.2514C9.38352 20.9643 9.48117 21.5697 9.67646 22.0677C9.88152 22.5657 10.1745 22.9416 10.5553 23.1955C10.9361 23.4494 11.3999 23.5763 11.9468 23.5763C12.4838 23.5763 12.9428 23.4494 13.3236 23.1955C13.7044 22.9416 13.9925 22.5657 14.1878 22.0677C14.3928 21.5697 14.4953 20.9643 14.4953 20.2514C14.4953 19.5288 14.3928 18.9234 14.1878 18.4352C13.9925 17.9372 13.7044 17.5613 13.3236 17.3074C12.9428 17.0535 12.4838 16.9265 11.9468 16.9265ZM26.9338 15.4179V25.085H24.6195L21.2361 19.4019L20.4012 17.82H20.3865L20.4451 19.4898V25.085H18.6289V15.4179H20.9285L24.312 21.0863L25.1468 22.6828H25.1761L25.1175 21.0131V15.4179H26.9338Z" fill="white"/>
</svg>
