<svg width="83" height="40" viewBox="0 0 83 40" fill="none" xmlns="http://www.w3.org/2000/svg">
<rect y="0.46875" width="83" height="39.0588" rx="19.5294" fill="#B6C92C"/>
<circle cx="63.9166" cy="19.6354" r="14.2809" fill="white"/>
<path d="M20.1605 24.8519C19.2365 24.8519 18.3872 24.6372 17.6125 24.2079C16.8472 23.7786 16.2359 23.1812 15.7785 22.4159C15.3305 21.6412 15.1065 20.7732 15.1065 19.8119C15.1065 18.8506 15.3305 17.9872 15.7785 17.2219C16.2359 16.4566 16.8472 15.8592 17.6125 15.4299C18.3872 15.0006 19.2365 14.7859 20.1605 14.7859C21.0845 14.7859 21.9292 15.0006 22.6945 15.4299C23.4692 15.8592 24.0759 16.4566 24.5145 17.2219C24.9625 17.9872 25.1865 18.8506 25.1865 19.8119C25.1865 20.7732 24.9625 21.6412 24.5145 22.4159C24.0665 23.1812 23.4599 23.7786 22.6945 24.2079C21.9292 24.6372 21.0845 24.8519 20.1605 24.8519ZM20.1605 22.6679C20.9445 22.6679 21.5699 22.4066 22.0365 21.8839C22.5125 21.3612 22.7505 20.6706 22.7505 19.8119C22.7505 18.9439 22.5125 18.2532 22.0365 17.7399C21.5699 17.2172 20.9445 16.9559 20.1605 16.9559C19.3672 16.9559 18.7325 17.2126 18.2565 17.7259C17.7899 18.2392 17.5565 18.9346 17.5565 19.8119C17.5565 20.6799 17.7899 21.3752 18.2565 21.8979C18.7325 22.4112 19.3672 22.6679 20.1605 22.6679ZM35.3104 24.7539H32.9164L28.9124 18.6919V24.7539H26.5184V14.9259H28.9124L32.9164 21.0159V14.9259H35.3104V24.7539Z" fill="#262626"/>
</svg>
