<svg width="12" height="12" viewBox="0 0 12 12" fill="none" xmlns="http://www.w3.org/2000/svg">
<path d="M10.0051 9.82379C7.64579 11.6404 4.35493 11.6259 2.01172 9.78849L3.72913 8.98343C3.81092 8.94498 3.88942 8.89989 3.96384 8.84861C3.98642 8.83308 4.00901 8.81684 4.03054 8.7999C4.21746 8.65689 4.37131 8.47522 4.4816 8.26731C4.56498 8.10757 4.62037 7.93471 4.64537 7.75626C4.6626 7.64046 4.67133 7.52356 4.67148 7.40649C4.67148 7.20461 4.66054 7.00273 4.65842 6.80049C4.65701 6.68873 4.65584 6.57684 4.6549 6.46484L4.72548 6.50014L4.90901 6.59508L4.99407 6.60955L5.97807 6.77684L7.07643 6.9639L7.1096 8.09331L7.12054 8.46249L7.12584 8.64179V8.65273L7.5529 8.82637L10.0051 9.82379Z" fill="#F2A196"/>
<path d="M7.12163 8.56909C7.00032 8.58997 6.87552 8.57063 6.76622 8.51404L4.66128 6.79239C4.65881 6.71262 4.65669 6.79627 4.65563 6.71651C4.65422 6.60474 4.65304 6.49286 4.6521 6.38086L4.72269 6.41615L4.90622 6.51109L4.99128 6.52557L5.97528 6.69286L7.07363 6.87992L7.10681 8.00933L7.11775 8.37851L7.12304 8.5578V8.56945L7.12163 8.56909Z" fill="#E88870"/>
<path d="M10.0051 9.82369C7.64579 11.6403 4.35493 11.6258 2.01172 9.78839L3.72913 8.98333C3.81092 8.94489 3.88942 8.89979 3.96384 8.84851C3.98642 8.83298 4.00901 8.81675 4.03054 8.7998C4.86172 9.39133 5.99607 9.76439 6.97725 9.32286C7.2109 9.21698 7.42548 9.04616 7.55254 8.82663L10.0051 9.82369Z" fill="#845161"/>
<path d="M9.37352 2.75541C9.37035 2.77623 9.36646 2.7967 9.36187 2.81717C9.33739 2.9221 9.29805 3.023 9.24505 3.11682L9.24223 3.12176C9.22211 3.15705 9.20058 3.19235 9.17729 3.22764C9.11548 3.31825 9.04806 3.40489 8.9754 3.48705L8.93199 3.53541C8.9027 3.56823 8.87305 3.60035 8.8434 3.63211C8.86577 3.62732 8.88875 3.62601 8.91152 3.62823C8.91998 3.62892 8.92836 3.63034 8.93658 3.63247C9.04917 3.65576 9.14552 3.76058 9.17552 3.87953C9.17729 3.88729 9.17905 3.89541 9.18046 3.90317C9.20835 4.06129 9.14517 4.22082 9.06717 4.362C8.93058 4.61188 8.73364 4.77811 8.56035 4.99517C8.43046 5.15682 8.35846 5.34811 8.21693 5.5027L8.20635 5.51435L8.19787 5.52282C7.82376 5.90823 7.23893 5.99964 6.75082 6.16623C6.57435 6.22694 4.6607 6.77047 4.6607 6.88905C4.6607 6.86329 4.47329 6.67729 4.23717 6.45105C3.39011 5.6467 3.11164 4.404 3.61564 3.33811C4.1574 2.19105 5.38776 1.37258 6.55952 0.979408C6.92587 0.856584 7.34164 0.773996 7.68893 0.944114C8.03623 1.11423 8.20917 1.64188 7.92117 1.89953C8.10231 1.76248 8.32761 1.69701 8.55399 1.71564C8.76308 1.72874 8.96028 1.81743 9.10882 1.96517C9.19181 2.04836 9.25859 2.14626 9.30576 2.25388C9.32517 2.29854 9.34133 2.34454 9.35411 2.39153C9.38589 2.51014 9.3925 2.63409 9.37352 2.75541Z" fill="#F2D4CF"/>
<path d="M9.37346 2.75533C9.37028 2.77616 9.3664 2.79663 9.36181 2.8171C9.33733 2.92203 9.29799 3.02293 9.24499 3.11675L9.24216 3.12169C9.22205 3.15698 9.20052 3.19228 9.17722 3.22757C9.11542 3.31818 9.04799 3.40482 8.97534 3.48698L8.93193 3.53533C8.90263 3.56816 8.87299 3.60028 8.84334 3.63204C8.86571 3.62724 8.88869 3.62593 8.91146 3.62816C8.91992 3.62885 8.9283 3.63027 8.93652 3.63239C9.04911 3.65569 9.14546 3.76051 9.17546 3.87945C9.17722 3.88722 9.17899 3.89533 9.1804 3.9031C9.20828 4.06122 9.14511 4.22075 9.06711 4.36192C8.93052 4.6118 8.73358 4.77804 8.56028 4.9951C8.4304 5.15675 8.3584 5.34804 8.21687 5.50263L8.20628 5.51428L8.19781 5.52275C8.0559 5.33179 7.96547 5.10755 7.93522 4.87157C7.87487 4.3831 7.91158 3.85086 7.89499 3.35639C7.88934 3.1838 7.87911 2.97804 7.93452 2.81428C7.94967 2.77374 7.96995 2.7353 7.99487 2.69992C8.05982 2.59515 8.13387 2.49629 8.21616 2.40451C8.30949 2.30516 8.42732 2.23212 8.55781 2.19275C8.62827 2.17272 8.70048 2.15949 8.77346 2.15322C8.85149 2.14557 8.93014 2.14711 9.00781 2.1578C9.11142 2.17259 9.21157 2.2057 9.30358 2.25557C9.32299 2.30023 9.33915 2.34623 9.35193 2.39322C9.38417 2.51112 9.3915 2.63444 9.37346 2.75533Z" fill="#DAAEA8"/>
<ellipse cx="4.30776" cy="5.47695" rx="0.6" ry="0.6" fill="#F2A196"/>
<ellipse cx="4.49811" cy="5.47663" rx="0.537176" ry="0.537177" fill="#E88870"/>
<path d="M4.5061 4.91145L4.6614 6.92321L7.00634 8.29333C7.34242 8.41886 7.7189 8.26894 7.87669 7.94674C8.2141 7.25568 8.75552 6.16474 8.68422 5.75851C8.57834 5.15851 8.29599 4.94674 8.29599 4.94674L8.41352 4.24298C8.45763 3.97792 8.51446 3.70121 8.44881 3.43474C8.37363 3.12945 8.14281 2.99886 7.95293 2.77051C7.45316 3.41427 6.63152 3.77815 5.91399 4.14698C5.54375 4.33898 4.5061 4.91145 4.5061 4.91145Z" fill="#F2A196"/>
<path d="M7.1365 4.73926C7.13368 4.75126 7.60803 6.01408 7.60803 6.01408L6.97485 6.04514" stroke="#00214E" stroke-width="0.2" stroke-linecap="round"/>
<path d="M5.63721 4.49429C5.96395 4.42683 6.30002 4.41739 6.63003 4.46641" stroke="#00214E" stroke-width="0.2" stroke-linecap="round"/>
<path d="M7.72119 4.49768C7.92295 4.45106 8.13081 4.43665 8.33707 4.45497" stroke="#00214E" stroke-width="0.2" stroke-linecap="round"/>
<path d="M6.32623 6.39775C6.33599 6.38232 6.35173 6.37165 6.36968 6.3683C6.38763 6.36495 6.40616 6.36923 6.42082 6.3801C6.49423 6.43163 6.62835 6.54105 6.81894 6.57881C7.0787 6.63069 7.30388 6.52657 7.35788 6.59363C7.38823 6.6314 7.35117 6.67763 7.28023 6.73481C7.13014 6.8472 6.941 6.89417 6.75576 6.86505C6.50588 6.8181 6.31812 6.52869 6.31812 6.42599C6.31841 6.41604 6.3212 6.40633 6.32623 6.39775Z" fill="white"/>
<path d="M6.23288 4.89941C6.44817 4.90118 6.44817 5.23012 6.23288 5.23188H6.22299C6.0077 5.23012 6.0077 4.90118 6.22299 4.89941H6.23288Z" fill="#00214E"/>
<path d="M8.00681 4.87695C8.20658 4.87695 8.20658 5.18401 8.00681 5.18542H7.99799C7.79787 5.18542 7.79787 4.87836 7.99799 4.87695H8.00681Z" fill="#00214E"/>
</svg>
