<svg width="16" height="16" viewBox="0 0 16 16" fill="none" xmlns="http://www.w3.org/2000/svg">
<path d="M13.3403 13.0977C10.1945 15.5199 5.80665 15.5005 2.68237 13.0507L4.97226 11.9773C5.08131 11.926 5.18597 11.8659 5.2852 11.7975C5.31531 11.7768 5.34543 11.7551 5.37414 11.7326C5.62336 11.5419 5.82849 11.2996 5.97555 11.0224C6.08672 10.8094 6.16058 10.579 6.1939 10.341C6.21688 10.1866 6.22852 10.0308 6.22873 9.87467C6.22873 9.60549 6.21414 9.33632 6.21131 9.06667C6.20943 8.91765 6.20786 8.76847 6.20661 8.61914L6.30073 8.6662L6.54543 8.79279L6.65884 8.81208L7.97084 9.03514L9.43531 9.28455L9.47955 10.7904L9.49414 11.2827L9.5012 11.5217V11.5363L10.0706 11.7678L13.3403 13.0977Z" fill="#F2A196"/>
<path d="M9.49559 11.4245C9.33385 11.4523 9.16744 11.4265 9.0217 11.3511L6.21512 9.05554C6.21182 8.94919 6.209 9.06072 6.20759 8.95437C6.2057 8.80535 6.20414 8.65617 6.20288 8.50684L6.297 8.55389L6.5417 8.68048L6.65512 8.69978L7.96712 8.92284L9.43159 9.17225L9.47582 10.6781L9.49041 11.1704L9.49747 11.4094V11.425L9.49559 11.4245Z" fill="#E88870"/>
<path d="M13.3403 13.0976C10.1945 15.5198 5.80665 15.5004 2.68237 13.0505L4.97226 11.9771C5.08131 11.9259 5.18597 11.8657 5.2852 11.7974C5.31531 11.7767 5.34543 11.755 5.37414 11.7324C6.48237 12.5211 7.99484 13.0185 9.30308 12.4298C9.61461 12.2887 9.90073 12.0609 10.0701 11.7682L13.3403 13.0976Z" fill="#845161"/>
<path d="M12.4979 3.67257C12.4936 3.70034 12.4885 3.72763 12.4823 3.75493C12.4497 3.89484 12.3972 4.02937 12.3266 4.15446L12.3228 4.16105C12.296 4.2081 12.2673 4.25516 12.2362 4.30222C12.1538 4.42303 12.0639 4.53855 11.967 4.6481L11.9092 4.71257C11.8701 4.75634 11.8306 4.79916 11.791 4.84152C11.8209 4.83512 11.8515 4.83337 11.8819 4.83634C11.8931 4.83726 11.9043 4.83915 11.9153 4.84199C12.0654 4.87305 12.1939 5.01281 12.2339 5.1714C12.2362 5.18175 12.2386 5.19257 12.2405 5.20293C12.2776 5.41375 12.1934 5.62646 12.0894 5.81469C11.9073 6.14787 11.6447 6.36952 11.4136 6.65893C11.2405 6.87446 11.1445 7.12952 10.9557 7.33563L10.9416 7.35116L10.9303 7.36246C10.4315 7.87634 9.65175 7.99822 9.00093 8.22034C8.76563 8.30128 6.2141 9.02599 6.2141 9.1841C6.2141 9.14975 5.96422 8.90175 5.6494 8.6001C4.51998 7.52763 4.14869 5.87069 4.82069 4.44952C5.54304 2.9201 7.18351 1.82881 8.74587 1.30458C9.23434 1.14081 9.78869 1.03069 10.2517 1.25752C10.7148 1.48434 10.9454 2.18787 10.5614 2.5314C10.8029 2.34867 11.1033 2.26138 11.4052 2.28622C11.6839 2.30369 11.9469 2.42194 12.1449 2.61893C12.2556 2.72984 12.3446 2.86037 12.4075 3.00387C12.4334 3.06341 12.4549 3.12475 12.472 3.1874C12.5144 3.34555 12.5232 3.51081 12.4979 3.67257Z" fill="#F2D4CF"/>
<path d="M12.4979 3.67248C12.4937 3.70024 12.4885 3.72754 12.4824 3.75483C12.4498 3.89474 12.3973 4.02927 12.3267 4.15436L12.3229 4.16095C12.2961 4.20801 12.2674 4.25506 12.2363 4.30212C12.1539 4.42293 12.064 4.53845 11.9671 4.64801L11.9092 4.71248C11.8702 4.75624 11.8307 4.79906 11.7911 4.84142C11.8209 4.83502 11.8516 4.83328 11.8819 4.83624C11.8932 4.83717 11.9044 4.83906 11.9154 4.84189C12.0655 4.87295 12.1939 5.01271 12.2339 5.1713C12.2363 5.18165 12.2387 5.19248 12.2405 5.20283C12.2777 5.41365 12.1935 5.62636 12.0895 5.81459C11.9074 6.14777 11.6448 6.36942 11.4137 6.65883C11.2405 6.87436 11.1445 7.12942 10.9558 7.33554L10.9417 7.35106L10.9304 7.36236C10.7412 7.10775 10.6206 6.80877 10.5803 6.49412C10.4998 5.84283 10.5488 5.13318 10.5267 4.47389C10.5191 4.24377 10.5055 3.96942 10.5794 3.75106C10.5996 3.69701 10.6266 3.64577 10.6598 3.59859C10.7464 3.45889 10.8452 3.32709 10.9549 3.20471C11.0793 3.07224 11.2364 2.97486 11.4104 2.92236C11.5044 2.89566 11.6006 2.87801 11.6979 2.86965C11.802 2.85945 11.9069 2.86151 12.0104 2.87577C12.1486 2.89549 12.2821 2.93963 12.4048 3.00612C12.4307 3.06567 12.4522 3.127 12.4692 3.18965C12.5122 3.34686 12.522 3.51129 12.4979 3.67248Z" fill="#DAAEA8"/>
<ellipse cx="5.7436" cy="7.30098" rx="0.8" ry="0.8" fill="#F2A196"/>
<ellipse cx="5.99773" cy="7.3012" rx="0.716235" ry="0.716236" fill="#E88870"/>
<path d="M6.00806 6.54795L6.21512 9.2303L9.3417 11.0571C9.78981 11.2245 10.2918 11.0246 10.5022 10.595C10.9521 9.67359 11.6739 8.21901 11.5789 7.67736C11.4377 6.87736 11.0612 6.59501 11.0612 6.59501L11.2179 5.65665C11.2768 5.30324 11.3525 4.9343 11.265 4.57901C11.1648 4.17195 10.857 3.99783 10.6038 3.69336C9.93747 4.55171 8.84194 5.03689 7.88523 5.52865C7.39159 5.78465 6.00806 6.54795 6.00806 6.54795Z" fill="#F2A196"/>
<path d="M9.51533 6.31738C9.51157 6.33338 10.144 8.01715 10.144 8.01715L9.2998 8.05856" stroke="#00214E" stroke-width="0.3" stroke-linecap="round"/>
<path d="M7.51611 5.99141C7.95177 5.90146 8.39986 5.88887 8.83988 5.95423" stroke="#00214E" stroke-width="0.3" stroke-linecap="round"/>
<path d="M10.2952 5.99593C10.5642 5.93377 10.8413 5.91455 11.1163 5.93898" stroke="#00214E" stroke-width="0.3" stroke-linecap="round"/>
<path d="M8.4349 8.52903C8.4479 8.50846 8.46889 8.49423 8.49282 8.48977C8.51675 8.4853 8.54146 8.491 8.56101 8.5055C8.6589 8.57421 8.83772 8.72009 9.09184 8.77044C9.43819 8.83962 9.73843 8.7008 9.81043 8.79021C9.8509 8.84056 9.80148 8.90221 9.7069 8.97844C9.50677 9.1283 9.25458 9.19092 9.0076 9.15209C8.67443 9.0895 8.42407 8.70362 8.42407 8.56668C8.42446 8.55342 8.42819 8.54048 8.4349 8.52903Z" fill="white"/>
<path d="M8.3105 6.53125C8.59756 6.5336 8.59756 6.97219 8.3105 6.97454H8.29733C8.01027 6.97219 8.01027 6.5336 8.29733 6.53125H8.3105Z" fill="#00214E"/>
<path d="M10.6757 6.50098C10.9421 6.50098 10.9421 6.91039 10.6757 6.91227H10.664C10.3972 6.91227 10.3972 6.50286 10.664 6.50098H10.6757Z" fill="#00214E"/>
</svg>
