<svg width="20" height="20" viewBox="0 0 20 20" fill="none" xmlns="http://www.w3.org/2000/svg">
<path d="M16.6754 16.3726C12.7431 19.4004 7.25838 19.3762 3.35303 16.3138L6.21538 14.9721C6.3517 14.908 6.48253 14.8328 6.60656 14.7474C6.6442 14.7215 6.68185 14.6944 6.71773 14.6662C7.02926 14.4278 7.28568 14.125 7.4695 13.7785C7.60847 13.5123 7.70078 13.2242 7.74244 12.9268C7.77117 12.7338 7.78572 12.5389 7.78597 12.3438C7.78597 12.0074 7.76773 11.6709 7.7642 11.3338C7.76185 11.1476 7.75989 10.9611 7.75832 10.7744L7.87597 10.8332L8.18185 10.9915L8.32362 11.0156L9.96362 11.2944L11.7942 11.6062L11.8495 13.4885L11.8677 14.1038L11.8766 14.4026V14.4209L12.5883 14.7103L16.6754 16.3726Z" fill="#F2A196"/>
<path d="M11.8693 14.2818C11.6671 14.3166 11.4591 14.2844 11.2769 14.1901L7.76871 11.3206C7.76459 11.1877 7.76107 11.3271 7.7593 11.1942C7.75695 11.0079 7.75499 10.8214 7.75342 10.6348L7.87107 10.6936L8.17695 10.8518L8.31871 10.8759L9.95871 11.1548L11.7893 11.4665L11.8446 13.3489L11.8628 13.9642L11.8717 14.263V14.2824L11.8693 14.2818Z" fill="#E88870"/>
<path d="M16.6754 16.3725C12.7431 19.4002 7.25838 19.376 3.35303 16.3137L6.21538 14.9719C6.3517 14.9078 6.48253 14.8327 6.60656 14.7472C6.6442 14.7213 6.68185 14.6943 6.71773 14.666C8.10303 15.6519 9.99362 16.2737 11.6289 15.5378C12.0183 15.3613 12.376 15.0766 12.5877 14.7107L16.6754 16.3725Z" fill="#845161"/>
<path d="M15.6225 4.5917C15.6172 4.6264 15.6107 4.66052 15.603 4.69464C15.5622 4.86952 15.4967 5.03769 15.4083 5.19405L15.4036 5.20228C15.3701 5.26111 15.3342 5.31993 15.2954 5.37875C15.1924 5.52976 15.08 5.67417 14.9589 5.81111L14.8866 5.8917C14.8377 5.9464 14.7883 5.99993 14.7389 6.05287C14.7762 6.04488 14.8145 6.0427 14.8525 6.0464C14.8666 6.04756 14.8805 6.04992 14.8942 6.05346C15.0819 6.09228 15.2425 6.26699 15.2925 6.46522C15.2954 6.47817 15.2983 6.4917 15.3007 6.50464C15.3472 6.76817 15.2419 7.03405 15.1119 7.26934C14.8842 7.68581 14.556 7.96287 14.2672 8.32464C14.0507 8.59405 13.9307 8.91287 13.6948 9.17052L13.6772 9.18993L13.663 9.20405C13.0395 9.8464 12.0648 9.99875 11.2513 10.2764C10.9572 10.3776 7.76775 11.2835 7.76775 11.4811C7.76775 11.4382 7.4554 11.1282 7.06187 10.7511C5.6501 9.41052 5.18598 7.33934 6.02598 5.56287C6.92893 3.65111 8.97951 2.28699 10.9325 1.6317C11.543 1.42699 12.236 1.28934 12.8148 1.57287C13.3936 1.8564 13.6819 2.73581 13.2019 3.16522C13.5038 2.93681 13.8793 2.8277 14.2566 2.85875C14.6051 2.88059 14.9337 3.0284 15.1813 3.27464C15.3196 3.41327 15.4309 3.57645 15.5095 3.75581C15.5419 3.83024 15.5688 3.90691 15.5901 3.98522C15.6431 4.18291 15.6541 4.38949 15.6225 4.5917Z" fill="#F2D4CF"/>
<path d="M15.6224 4.59157C15.6171 4.62628 15.6107 4.6604 15.603 4.69451C15.5622 4.8694 15.4966 5.03757 15.4083 5.19393L15.4036 5.20216C15.3701 5.26098 15.3342 5.31981 15.2954 5.37863C15.1924 5.52964 15.08 5.67404 14.9589 5.81098L14.8865 5.89157C14.8377 5.94628 14.7883 5.99981 14.7389 6.05275C14.7762 6.04475 14.8145 6.04257 14.8524 6.04628C14.8665 6.04743 14.8805 6.0498 14.8942 6.05334C15.0818 6.09216 15.2424 6.26687 15.2924 6.4651C15.2954 6.47804 15.2983 6.49157 15.3007 6.50451C15.3471 6.76804 15.2418 7.03393 15.1118 7.26922C14.8842 7.68569 14.556 7.96275 14.2671 8.32451C14.0507 8.59392 13.9307 8.91275 13.6948 9.1704L13.6771 9.18981L13.663 9.20393C13.4265 8.88567 13.2758 8.51194 13.2254 8.11863C13.1248 7.30451 13.186 6.41745 13.1583 5.59334C13.1489 5.30569 13.1318 4.96275 13.2242 4.68981C13.2494 4.62224 13.2832 4.55819 13.3248 4.49922C13.433 4.32459 13.5565 4.15984 13.6936 4.00687C13.8491 3.84128 14.0455 3.71955 14.263 3.65393C14.3804 3.62055 14.5008 3.59849 14.6224 3.58804C14.7525 3.57529 14.8836 3.57786 15.013 3.59569C15.1857 3.62034 15.3526 3.67551 15.506 3.75863C15.5383 3.83306 15.5652 3.90973 15.5865 3.98804C15.6403 4.18455 15.6525 4.39009 15.6224 4.59157Z" fill="#DAAEA8"/>
<ellipse cx="7.17944" cy="9.12695" rx="1" ry="1" fill="#F2A196"/>
<ellipse cx="7.4971" cy="9.12674" rx="0.895294" ry="0.895294" fill="#E88870"/>
<path d="M7.51001 8.18542L7.76883 11.5384L11.6771 13.8219C12.2372 14.0311 12.8647 13.7812 13.1277 13.2442C13.69 12.0925 14.5924 10.2742 14.4735 9.59719C14.2971 8.59719 13.8265 8.24425 13.8265 8.24425L14.0224 7.07131C14.0959 6.62954 14.1906 6.16836 14.0812 5.72425C13.9559 5.21542 13.5712 4.99778 13.2547 4.61719C12.4218 5.69013 11.0524 6.2966 9.85648 6.91131C9.23942 7.23131 7.51001 8.18542 7.51001 8.18542Z" fill="#F2A196"/>
<path d="M11.8942 7.89746C11.8895 7.91746 12.68 10.0222 12.68 10.0222L11.6248 10.0739" stroke="#00214E" stroke-width="0.4" stroke-linecap="round"/>
<path d="M9.39526 7.48951C9.93984 7.37707 10.4999 7.36134 11.05 7.44304" stroke="#00214E" stroke-width="0.4" stroke-linecap="round"/>
<path d="M12.8689 7.49613C13.2052 7.41843 13.5516 7.39441 13.8954 7.42495" stroke="#00214E" stroke-width="0.4" stroke-linecap="round"/>
<path d="M10.5436 10.6623C10.5598 10.6365 10.5861 10.6188 10.616 10.6132C10.6459 10.6076 10.6768 10.6147 10.7012 10.6329C10.8236 10.7187 11.0471 10.9011 11.3647 10.964C11.7977 11.0505 12.173 10.877 12.263 10.9887C12.3136 11.0517 12.2518 11.1287 12.1336 11.224C11.8834 11.4114 11.5682 11.4896 11.2594 11.4411C10.843 11.3629 10.53 10.8805 10.53 10.7093C10.5305 10.6928 10.5352 10.6766 10.5436 10.6623Z" fill="white"/>
<path d="M10.3881 8.16406C10.747 8.167 10.747 8.71524 10.3881 8.71818H10.3717C10.0128 8.71524 10.0128 8.167 10.3717 8.16406H10.3881Z" fill="#00214E"/>
<path d="M13.3447 8.12695C13.6776 8.12695 13.6776 8.63872 13.3447 8.64107H13.33C12.9965 8.64107 12.9965 8.12931 13.33 8.12695H13.3447Z" fill="#00214E"/>
</svg>
