<svg width="24" height="24" viewBox="0 0 24 24" fill="none" xmlns="http://www.w3.org/2000/svg">
<path d="M20.0103 19.6476C15.2916 23.2808 8.70986 23.2518 4.02344 19.577L7.45826 17.9669C7.62184 17.89 7.77884 17.7998 7.92767 17.6972C7.97285 17.6662 8.01803 17.6337 8.06108 17.5998C8.43491 17.3138 8.74262 16.9504 8.9632 16.5346C9.12996 16.2151 9.24074 15.8694 9.29073 15.5125C9.3252 15.2809 9.34266 15.0471 9.34297 14.813C9.34297 14.4092 9.32108 14.0055 9.31685 13.601C9.31403 13.3775 9.31167 13.1537 9.30979 12.9297L9.45097 13.0003L9.81803 13.1902L9.98814 13.2191L11.9561 13.5537L14.1529 13.9278L14.2192 16.1866L14.2411 16.925L14.2517 17.2836V17.3055L15.1058 17.6527L20.0103 19.6476Z" fill="#F2A196"/>
<path d="M14.2433 17.1382C14.0006 17.1799 13.751 17.1413 13.5324 17.0281L9.32255 13.5848C9.31761 13.4252 9.31338 13.5925 9.31126 13.433C9.30843 13.2095 9.30608 12.9857 9.3042 12.7617L9.44538 12.8323L9.81243 13.0222L9.98255 13.0511L11.9506 13.3857L14.1473 13.7598L14.2136 16.0187L14.2355 16.757L14.2461 17.1156V17.1389L14.2433 17.1382Z" fill="#E88870"/>
<path d="M20.0103 19.6474C15.2916 23.2806 8.70986 23.2516 4.02344 19.5768L7.45826 17.9667C7.62184 17.8898 7.77884 17.7996 7.92767 17.697C7.97285 17.666 8.01803 17.6335 8.06108 17.5996C9.72344 18.7827 11.9921 19.5288 13.9545 18.6457C14.4218 18.434 14.851 18.0923 15.1051 17.6533L20.0103 19.6474Z" fill="#845161"/>
<path d="M18.7468 5.50984C18.7404 5.55149 18.7327 5.59243 18.7235 5.63337C18.6745 5.84323 18.5959 6.04503 18.4899 6.23266L18.4842 6.24255C18.444 6.31313 18.4009 6.38372 18.3543 6.45431C18.2307 6.63552 18.0959 6.8088 17.9506 6.97313L17.8637 7.06984C17.8052 7.13549 17.7459 7.19972 17.6866 7.26325C17.7313 7.25366 17.7773 7.25104 17.8228 7.25549C17.8397 7.25687 17.8565 7.25971 17.8729 7.26396C18.0981 7.31055 18.2908 7.52019 18.3508 7.75807C18.3543 7.7736 18.3579 7.78984 18.3607 7.80537C18.4164 8.1216 18.2901 8.44066 18.1341 8.72302C17.8609 9.22278 17.467 9.55525 17.1204 9.98937C16.8607 10.3127 16.7167 10.6953 16.4336 11.0044L16.4124 11.0277L16.3955 11.0447C15.6473 11.8155 14.4776 11.9983 13.5014 12.3315C13.1484 12.4529 9.32115 13.54 9.32115 13.7771C9.32115 13.7256 8.94633 13.3536 8.47409 12.9011C6.77998 11.2924 6.22303 8.80702 7.23103 6.67525C8.31456 4.38113 10.7753 2.74419 13.1188 1.95784C13.8515 1.71219 14.683 1.54702 15.3776 1.88725C16.0722 2.22749 16.4181 3.28278 15.8421 3.79807C16.2044 3.52398 16.655 3.39304 17.1077 3.43031C17.5259 3.45651 17.9203 3.63388 18.2174 3.92937C18.3834 4.09573 18.5169 4.29154 18.6113 4.50678C18.6501 4.5961 18.6824 4.6881 18.708 4.78207C18.7715 5.0193 18.7848 5.2672 18.7468 5.50984Z" fill="#F2D4CF"/>
<path d="M18.7469 5.50969C18.7406 5.55134 18.7328 5.59228 18.7236 5.63322C18.6747 5.84309 18.596 6.04489 18.49 6.23252L18.4843 6.2424C18.4441 6.31299 18.401 6.38357 18.3544 6.45416C18.2308 6.63537 18.096 6.80866 17.9507 6.97299L17.8639 7.06969C17.8053 7.13534 17.746 7.19957 17.6867 7.2631C17.7314 7.25351 17.7774 7.25089 17.8229 7.25534C17.8398 7.25673 17.8566 7.25956 17.873 7.26381C18.0982 7.3104 18.2909 7.52004 18.3509 7.75793C18.3544 7.77346 18.358 7.78969 18.3608 7.80522C18.4166 8.12146 18.2902 8.44052 18.1342 8.72287C17.861 9.22263 17.4672 9.5551 17.1206 9.98922C16.8608 10.3125 16.7168 10.6951 16.4337 11.0043L16.4126 11.0276L16.3956 11.0445C16.1118 10.6626 15.9309 10.2141 15.8704 9.74216C15.7497 8.76522 15.8232 7.70075 15.79 6.71181C15.7787 6.36663 15.7582 5.9551 15.869 5.62757C15.8993 5.54649 15.9399 5.46963 15.9897 5.39887C16.1196 5.18932 16.2677 4.99161 16.4323 4.80804C16.619 4.60934 16.8546 4.46327 17.1156 4.38452C17.2565 4.34447 17.401 4.318 17.5469 4.30546C17.703 4.29015 17.8603 4.29323 18.0156 4.31463C18.2228 4.34421 18.4231 4.41042 18.6072 4.51016C18.646 4.59948 18.6783 4.69148 18.7039 4.78546C18.7683 5.02126 18.783 5.26791 18.7469 5.50969Z" fill="#DAAEA8"/>
<ellipse cx="8.61528" cy="10.952" rx="1.2" ry="1.2" fill="#F2A196"/>
<ellipse cx="8.99647" cy="10.9523" rx="1.07435" ry="1.07435" fill="#E88870"/>
<path d="M9.01196 9.8229L9.32255 13.8464L14.0124 16.5867C14.6846 16.8377 15.4376 16.5379 15.7531 15.8935C16.428 14.5114 17.5108 12.3295 17.3682 11.517C17.1564 10.317 16.5917 9.89349 16.5917 9.89349L16.8268 8.48596C16.915 7.95584 17.0287 7.40243 16.8974 6.86949C16.747 6.2589 16.2854 5.99772 15.9056 5.54102C14.9061 6.82855 13.2628 7.55631 11.8277 8.29396C11.0873 8.67796 9.01196 9.8229 9.01196 9.8229Z" fill="#F2A196"/>
<path d="M14.273 9.47656C14.2674 9.50056 15.2161 12.0262 15.2161 12.0262L13.9497 12.0883" stroke="#00214E" stroke-width="0.5" stroke-linecap="round"/>
<path d="M11.2744 8.9876C11.9279 8.85268 12.6 8.8338 13.2601 8.93184" stroke="#00214E" stroke-width="0.5" stroke-linecap="round"/>
<path d="M15.4426 8.99535C15.8461 8.90212 16.2619 8.87329 16.6744 8.90994" stroke="#00214E" stroke-width="0.5" stroke-linecap="round"/>
<path d="M12.6522 12.7945C12.6717 12.7637 12.7032 12.7423 12.7391 12.7356C12.775 12.7289 12.8121 12.7375 12.8414 12.7592C12.9882 12.8623 13.2565 13.0811 13.6376 13.1566C14.1572 13.2604 14.6075 13.0522 14.7155 13.1863C14.7762 13.2618 14.7021 13.3543 14.5602 13.4686C14.26 13.6934 13.8817 13.7874 13.5113 13.7291C13.0115 13.6352 12.636 13.0564 12.636 12.851C12.6366 12.8311 12.6422 12.8117 12.6522 12.7945Z" fill="white"/>
<path d="M12.466 9.79785C12.8966 9.80138 12.8966 10.4593 12.466 10.4628H12.4462C12.0156 10.4593 12.0156 9.80138 12.4462 9.79785H12.466Z" fill="#00214E"/>
<path d="M16.0136 9.75195C16.4132 9.75195 16.4132 10.3661 16.0136 10.3689H15.996C15.5957 10.3689 15.5957 9.75478 15.996 9.75195H16.0136Z" fill="#00214E"/>
</svg>
