<svg width="32" height="32" viewBox="0 0 32 32" fill="none" xmlns="http://www.w3.org/2000/svg">
<path d="M26.6805 26.1964C20.3889 31.0408 11.6133 31.002 5.36475 26.1023L9.94451 23.9555C10.1626 23.853 10.3719 23.7327 10.5704 23.596C10.6306 23.5546 10.6909 23.5113 10.7483 23.4661C11.2467 23.0847 11.657 22.6003 11.9511 22.0458C12.1734 21.6199 12.3212 21.1589 12.3878 20.683C12.4338 20.3742 12.457 20.0625 12.4575 19.7503C12.4575 19.212 12.4283 18.6736 12.4226 18.1343C12.4189 17.8363 12.4157 17.5379 12.4132 17.2393L12.6015 17.3334L13.0909 17.5866L13.3177 17.6251L15.9417 18.0713L18.8706 18.5701L18.9591 21.5818L18.9883 22.5663L19.0024 23.0444V23.0736L20.1412 23.5367L26.6805 26.1964Z" fill="#F2A196"/>
<path d="M18.9912 22.8499C18.6677 22.9056 18.3349 22.854 18.0434 22.7031L12.4302 18.1121C12.4236 17.8994 12.418 18.1224 12.4152 17.9097C12.4114 17.6117 12.4083 17.3133 12.4058 17.0146L12.594 17.1088L13.0834 17.3619L13.3102 17.4005L15.9342 17.8466L18.8632 18.3455L18.9516 21.3572L18.9808 22.3417L18.9949 22.8198V22.8509L18.9912 22.8499Z" fill="#E88870"/>
<path d="M26.6805 26.1962C20.3889 31.0405 11.6133 31.0018 5.36475 26.1021L9.94451 23.9552C10.1626 23.8527 10.3719 23.7325 10.5704 23.5957C10.6306 23.5543 10.6909 23.511 10.7483 23.4658C12.9647 25.0432 15.9897 26.0381 18.6062 24.8606C19.2292 24.5783 19.8015 24.1228 20.1403 23.5373L26.6805 26.1962Z" fill="#845161"/>
<path d="M24.9957 7.34613C24.9873 7.40166 24.9769 7.45624 24.9647 7.51083C24.8994 7.79065 24.7945 8.05972 24.6531 8.30989L24.6456 8.32307C24.592 8.41718 24.5346 8.5113 24.4724 8.60542C24.3076 8.84704 24.1278 9.07808 23.9341 9.29718L23.8183 9.42613C23.7402 9.51366 23.6611 9.5993 23.5821 9.68401C23.6417 9.67122 23.703 9.66773 23.7637 9.67366C23.7863 9.6755 23.8086 9.67928 23.8306 9.68495C24.1308 9.74707 24.3877 10.0266 24.4677 10.3438C24.4724 10.3645 24.4771 10.3861 24.4809 10.4068C24.5553 10.8285 24.3868 11.2539 24.1788 11.6304C23.8146 12.2967 23.2894 12.74 22.8273 13.3188C22.4809 13.7499 22.2889 14.26 21.9115 14.6722L21.8833 14.7033L21.8607 14.7259C20.863 15.7537 19.3035 15.9974 18.0019 16.4417C17.5313 16.6035 12.4282 18.0529 12.4282 18.3692C12.4282 18.3005 11.9284 17.8045 11.2988 17.2012C9.03997 15.0562 8.29738 11.7424 9.64138 8.90001C11.0861 5.84119 14.367 3.6586 17.4917 2.61013C18.4687 2.2826 19.5774 2.06236 20.5035 2.51601C21.4296 2.96966 21.8908 4.37671 21.1228 5.06377C21.6058 4.69831 22.2066 4.52373 22.8103 4.57342C23.3679 4.60835 23.8938 4.84485 24.2899 5.23883C24.5112 5.46065 24.6892 5.72173 24.815 6.00871C24.8668 6.1278 24.9099 6.25047 24.944 6.37577C25.0287 6.69207 25.0464 7.02261 24.9957 7.34613Z" fill="#F2D4CF"/>
<path d="M24.9959 7.34593C24.9874 7.40146 24.9771 7.45605 24.9648 7.51064C24.8995 7.79046 24.7946 8.05952 24.6533 8.30969L24.6458 8.32287C24.5921 8.41699 24.5347 8.51111 24.4726 8.60522C24.3078 8.84684 24.128 9.07788 23.9342 9.29699L23.8185 9.42593C23.7404 9.51346 23.6613 9.59911 23.5822 9.68381C23.6419 9.67102 23.7032 9.66753 23.7639 9.67346C23.7864 9.67531 23.8088 9.67909 23.8307 9.68475C24.1309 9.74687 24.3879 10.0264 24.4679 10.3436C24.4726 10.3643 24.4773 10.3859 24.4811 10.4066C24.5554 10.8283 24.3869 11.2537 24.1789 11.6302C23.8147 12.2965 23.2895 12.7398 22.8274 13.3186C22.4811 13.7497 22.2891 14.2598 21.9117 14.672L21.8834 14.7031L21.8608 14.7257C21.4824 14.2165 21.2413 13.6185 21.1606 12.9892C20.9997 11.6866 21.0975 10.2673 21.0533 8.94875C21.0382 8.48852 21.0109 7.93981 21.1587 7.50311C21.1991 7.395 21.2532 7.29252 21.3197 7.19817C21.4929 6.91876 21.6903 6.65516 21.9098 6.4104C22.1586 6.14546 22.4728 5.9507 22.8208 5.84569C23.0087 5.7923 23.2013 5.757 23.3959 5.74028C23.604 5.71988 23.8137 5.72399 24.0208 5.75252C24.2971 5.79196 24.5642 5.88024 24.8095 6.01322C24.8613 6.13231 24.9044 6.25498 24.9385 6.38028C25.0245 6.69469 25.044 7.02355 24.9959 7.34593Z" fill="#DAAEA8"/>
<ellipse cx="11.487" cy="14.6029" rx="1.6" ry="1.6" fill="#F2A196"/>
<ellipse cx="11.9952" cy="14.6024" rx="1.43247" ry="1.43247" fill="#E88870"/>
<path d="M12.0161 13.0969L12.4302 18.4616L18.6834 22.1152C19.5796 22.45 20.5836 22.0502 21.0043 21.191C21.9041 19.3482 23.3479 16.439 23.1578 15.3557C22.8754 13.7557 22.1225 13.191 22.1225 13.191L22.4359 11.3143C22.5535 10.6075 22.7051 9.86958 22.53 9.15899C22.3295 8.34487 21.714 7.99664 21.2076 7.3877C19.8749 9.1044 17.6839 10.0748 15.7705 11.0583C14.7832 11.5703 12.0161 13.0969 12.0161 13.0969Z" fill="#F2A196"/>
<path d="M19.0307 12.6357C19.0231 12.6677 20.2881 16.0353 20.2881 16.0353L18.5996 16.1181" stroke="#00214E" stroke-width="0.5" stroke-linecap="round"/>
<path d="M15.0325 11.9838C15.9038 11.8039 16.8 11.7787 17.68 11.9094" stroke="#00214E" stroke-width="0.5" stroke-linecap="round"/>
<path d="M20.5901 11.9938C21.1281 11.8695 21.6824 11.8311 22.2324 11.8799" stroke="#00214E" stroke-width="0.5" stroke-linecap="round"/>
<path d="M16.8695 17.059C16.8956 17.0179 16.9375 16.9894 16.9854 16.9805C17.0333 16.9716 17.0827 16.983 17.1218 17.012C17.3175 17.1494 17.6752 17.4412 18.1834 17.5419C18.8761 17.6802 19.4766 17.4026 19.6206 17.5814C19.7015 17.6821 19.6027 17.8054 19.4135 17.9579C19.0133 18.2576 18.5089 18.3828 18.015 18.3052C17.3486 18.18 16.8479 17.4082 16.8479 17.1343C16.8487 17.1078 16.8561 17.0819 16.8695 17.059Z" fill="white"/>
<path d="M16.6212 13.0625C17.1954 13.0672 17.1954 13.9444 16.6212 13.9491H16.5949C16.0208 13.9444 16.0208 13.0672 16.5949 13.0625H16.6212Z" fill="#00214E"/>
<path d="M21.3515 13.0029C21.8842 13.0029 21.8842 13.8218 21.3515 13.8255H21.328C20.7943 13.8255 20.7943 13.0067 21.328 13.0029H21.3515Z" fill="#00214E"/>
</svg>
