<svg width="12" height="12" viewBox="0 0 12 12" fill="none" xmlns="http://www.w3.org/2000/svg">
<path d="M10.0051 9.53543C7.64579 11.3521 4.35493 11.3375 2.01172 9.50013L3.72913 8.69508C3.81092 8.65663 3.88942 8.61153 3.96384 8.56025C3.98642 8.54472 4.00901 8.52849 4.03054 8.51155C4.21746 8.36853 4.37131 8.18687 4.4816 7.97896C4.56506 7.81899 4.62045 7.64589 4.64537 7.46719C4.6626 7.3514 4.67133 7.2345 4.67148 7.11743C4.67148 6.91555 4.66054 6.71366 4.65842 6.51143C4.65701 6.39943 4.65584 6.28755 4.6549 6.17578L4.72548 6.21108L4.90901 6.30602L4.99407 6.32049L5.97807 6.48778L7.07643 6.67484L7.1096 7.80425L7.12054 8.17343L7.12584 8.35272V8.36437L7.5529 8.53802L10.0051 9.53543Z" fill="#F2D4CF"/>
<path d="M7.12586 8.28199C7.00456 8.30286 6.87975 8.28352 6.77045 8.22693L4.66445 6.50528C4.66198 6.42551 4.65986 6.50916 4.6588 6.4294C4.65739 6.3174 4.65621 6.20551 4.65527 6.09375L4.72586 6.12904L4.90939 6.22399L4.99445 6.23846L5.97774 6.40787L7.0761 6.59493L7.10927 7.72434L7.12021 8.09351L7.12551 8.27281V8.28446L7.12586 8.28199Z" fill="#DAAEA8"/>
<path d="M9.49651 1.09375L9.48698 1.09763L9.37898 3.14893C9.32178 4.23843 8.6276 5.19176 7.60828 5.58069L4.66122 6.59963C4.66122 6.57387 4.47381 6.38787 4.23769 6.16163C3.61737 5.57168 3.258 4.75866 3.23922 3.90281C3.20604 2.40951 4.36863 1.13999 5.86298 1.09446C5.89122 1.09446 5.91945 1.09446 5.94804 1.09446L9.49651 1.09375Z" fill="url(#paint0_linear_176_1197)"/>
<path d="M9.48637 1.09766L9.46767 2.94177C9.45594 4.12236 8.71559 5.17276 7.60767 5.58071V3.15848C7.60767 3.15848 8.48261 1.10754 9.48637 1.09766Z" fill="url(#paint1_linear_176_1197)"/>
<ellipse cx="4.30776" cy="5.18789" rx="0.6" ry="0.6" fill="#F2D4CF"/>
<ellipse cx="4.49811" cy="5.18757" rx="0.537176" ry="0.537177" fill="#DAAEA8"/>
<path d="M4.5061 4.62185L4.66069 6.63361L7.00563 8.00373C7.34228 8.1293 7.71924 7.97869 7.87669 7.65573C8.2141 6.96467 8.75552 5.87337 8.68422 5.46749C8.57834 4.86749 8.29599 4.65573 8.29599 4.65573L8.41352 3.95196C8.45763 3.6869 8.51446 3.4102 8.44881 3.14373C8.37363 2.83808 8.14281 2.70785 7.95293 2.47949C7.45316 3.12326 6.63152 3.48714 5.91399 3.85596C5.54375 4.05079 4.5061 4.62185 4.5061 4.62185Z" fill="#F2D4CF"/>
<path d="M5.63721 4.20523C5.96395 4.13776 6.30002 4.12833 6.63003 4.17735" stroke="#00214E" stroke-width="0.2" stroke-linecap="round"/>
<path d="M7.72119 4.20982C7.92289 4.16282 8.13082 4.14841 8.33707 4.16712" stroke="#00214E" stroke-width="0.2" stroke-linecap="round"/>
<path d="M6.90836 5.56738C6.85568 5.59435 6.83052 5.65569 6.8491 5.71188C6.86769 5.76807 6.92446 5.80232 6.98283 5.79256" stroke="#00214E" stroke-width="0.2" stroke-linecap="round"/>
<ellipse cx="6.1332" cy="4.70928" rx="0.115412" ry="0.280235" transform="rotate(-85.77 6.1332 4.70928)" fill="#00214E"/>
<ellipse cx="7.97154" cy="4.68351" rx="0.280235" ry="0.115412" transform="rotate(-7.27 7.97154 4.68351)" fill="#00214E"/>
<path d="M7.54577 5.20215C7.54577 5.20215 7.55601 5.40156 7.60259 5.49509C7.62271 5.53533 7.65412 5.56921 7.67318 5.60944C7.75154 5.76227 7.62518 5.79438 7.50342 5.79438" stroke="#00214E" stroke-width="0.2" stroke-linecap="round"/>
<path d="M10.0051 9.53503C7.64579 11.3517 4.35493 11.3371 2.01172 9.49974L3.72913 8.69468C3.81092 8.65623 3.88942 8.61114 3.96384 8.55986C3.98642 8.54433 4.00901 8.52809 4.03054 8.51115C4.21746 8.36813 4.37131 8.18647 4.4816 7.97856C4.56506 7.8186 4.62045 7.6455 4.64537 7.4668C4.67029 7.49095 4.69644 7.5138 4.72372 7.53527C4.94013 7.69529 5.17499 7.82872 5.42325 7.93268C5.54378 7.98296 5.66703 8.02644 5.79242 8.06291C6.17021 8.17308 6.56466 8.21479 6.95713 8.18609C7.01148 8.18186 7.06619 8.17656 7.12054 8.17268L7.12584 8.35197V8.36362L7.5529 8.53727L10.0051 9.53503Z" fill="#00214E"/>
<path d="M6.32574 6.19869C6.33543 6.18317 6.35118 6.17243 6.36916 6.16908C6.38714 6.16572 6.4057 6.17006 6.42033 6.18104C6.49374 6.23257 6.62786 6.34199 6.81845 6.37975C7.07822 6.43163 7.30339 6.32751 7.35739 6.39457C7.38774 6.43234 7.35069 6.47822 7.27974 6.53575C7.12956 6.64796 6.9405 6.6949 6.75527 6.66599C6.50539 6.61904 6.31763 6.32963 6.31763 6.22693C6.31792 6.21698 6.32071 6.20727 6.32574 6.19869Z" fill="white"/>
<defs>
<linearGradient id="paint0_linear_176_1197" x1="7.12079" y1="7.32132" x2="11.9457" y2="2.13326" gradientUnits="userSpaceOnUse">
<stop stop-color="#315676"/>
<stop offset="1" stop-color="#E1B9E0"/>
</linearGradient>
<linearGradient id="paint1_linear_176_1197" x1="5.93353" y1="1.70655" x2="11.4347" y2="6.89187" gradientUnits="userSpaceOnUse">
<stop stop-color="#315676"/>
<stop offset="1" stop-color="#E1B9E0"/>
</linearGradient>
</defs>
</svg>
