<svg width="16" height="16" viewBox="0 0 16 16" fill="none" xmlns="http://www.w3.org/2000/svg">
<path d="M13.3403 12.7149C10.1945 15.1371 5.80665 15.1177 2.68237 12.6678L4.97226 11.5944C5.08131 11.5431 5.18597 11.483 5.2852 11.4146C5.31531 11.3939 5.34543 11.3723 5.37414 11.3497C5.62336 11.159 5.82849 10.9168 5.97555 10.6396C6.08683 10.4263 6.16068 10.1955 6.1939 9.95723C6.21688 9.80284 6.22852 9.64697 6.22873 9.49088C6.22873 9.2217 6.21414 8.95253 6.21131 8.68288C6.20943 8.53355 6.20786 8.38437 6.20661 8.23535L6.30073 8.28241L6.54543 8.409L6.65884 8.42829L7.97084 8.65135L9.43531 8.90076L9.47955 10.4066L9.49414 10.8989L9.5012 11.1379V11.1535L10.0706 11.385L13.3403 12.7149Z" fill="#F2D4CF"/>
<path d="M9.50115 11.0436C9.33941 11.0715 9.17301 11.0457 9.02727 10.9702L6.21927 8.67468C6.21597 8.56833 6.21315 8.67986 6.21174 8.57351C6.20985 8.42417 6.20829 8.275 6.20703 8.12598L6.30115 8.17304L6.54585 8.29962L6.65927 8.31892L7.97033 8.5448L9.4348 8.79421L9.47903 10.3001L9.49362 10.7923L9.50068 11.0314V11.0469L9.50115 11.0436Z" fill="#DAAEA8"/>
<path d="M12.6621 1.45898L12.6494 1.46416L12.5054 4.19922C12.4291 5.65189 11.5035 6.923 10.1445 7.44157L6.21504 8.80016C6.21504 8.76581 5.96516 8.51781 5.65033 8.21616C4.82325 7.42955 4.34408 6.34553 4.31904 5.2044C4.2748 3.21334 5.82492 1.52063 7.81739 1.45993C7.85504 1.45993 7.89269 1.45993 7.9308 1.45993L12.6621 1.45898Z" fill="url(#paint0_linear_176_1180)"/>
<path d="M12.6485 1.46387L12.6236 3.92269C12.6079 5.4968 11.6208 6.89734 10.1436 7.44128V4.21163C10.1436 4.21163 11.3101 1.47704 12.6485 1.46387Z" fill="url(#paint1_linear_176_1180)"/>
<ellipse cx="5.7436" cy="6.91816" rx="0.8" ry="0.8" fill="#F2D4CF"/>
<ellipse cx="5.99773" cy="6.91741" rx="0.716235" ry="0.716236" fill="#DAAEA8"/>
<path d="M6.00806 6.16311L6.21417 8.84546L9.34076 10.6723C9.78962 10.8397 10.2922 10.6389 10.5022 10.2083C10.9521 9.28688 11.6739 7.83182 11.5789 7.29064C11.4377 6.49064 11.0612 6.20829 11.0612 6.20829L11.2179 5.26993C11.2768 4.91652 11.3525 4.54758 11.265 4.19229C11.1648 3.78476 10.857 3.61111 10.6038 3.30664C9.93747 4.16499 8.84194 4.65017 7.88523 5.14193C7.39159 5.4017 6.00806 6.16311 6.00806 6.16311Z" fill="#F2D4CF"/>
<path d="M7.51611 5.6086C7.95177 5.51865 8.39986 5.50606 8.83988 5.57142" stroke="#00214E" stroke-width="0.3" stroke-linecap="round"/>
<path d="M10.2952 5.61342C10.5641 5.55076 10.8413 5.53154 11.1163 5.55648" stroke="#00214E" stroke-width="0.3" stroke-linecap="round"/>
<path d="M9.21139 7.42383C9.14115 7.45978 9.10761 7.54158 9.13238 7.61649C9.15716 7.69141 9.23286 7.73708 9.31068 7.72406" stroke="#00214E" stroke-width="0.3" stroke-linecap="round"/>
<ellipse cx="8.17744" cy="6.27937" rx="0.153882" ry="0.373647" transform="rotate(-85.77 8.17744 6.27937)" fill="#00214E"/>
<ellipse cx="10.6289" cy="6.24599" rx="0.373647" ry="0.153882" transform="rotate(-7.27 10.6289 6.24599)" fill="#00214E"/>
<path d="M10.0611 6.9375C10.0611 6.9375 10.0748 7.20338 10.1369 7.32809C10.1637 7.38174 10.2056 7.42691 10.231 7.48056C10.3355 7.68432 10.167 7.72715 10.0046 7.72715" stroke="#00214E" stroke-width="0.3" stroke-linecap="round"/>
<path d="M13.3403 12.7147C10.1945 15.1369 5.80665 15.1175 2.68237 12.6676L4.97226 11.5942C5.08131 11.5429 5.18597 11.4828 5.2852 11.4144C5.31531 11.3937 5.34543 11.3721 5.37414 11.3495C5.62336 11.1588 5.82849 10.9166 5.97555 10.6394C6.08683 10.4261 6.16068 10.1953 6.1939 9.95703C6.22714 9.98923 6.26201 10.0197 6.29837 10.0483C6.58692 10.2617 6.90006 10.4396 7.23108 10.5782C7.39178 10.6452 7.55612 10.7032 7.72331 10.7519C8.22703 10.8987 8.75296 10.9544 9.27626 10.9161C9.34873 10.9104 9.42167 10.9034 9.49414 10.8982L9.5012 11.1373V11.1528L10.0706 11.3843L13.3403 12.7147Z" fill="#00214E"/>
<path d="M8.43441 8.26655C8.44732 8.24586 8.46832 8.23154 8.49229 8.22706C8.51627 8.22259 8.54102 8.22838 8.56053 8.24302C8.65841 8.31173 8.83723 8.45761 9.09135 8.50796C9.4377 8.57714 9.73794 8.43831 9.80994 8.52773C9.85041 8.57808 9.801 8.63925 9.70641 8.71596C9.50617 8.86557 9.25408 8.92817 9.00711 8.88961C8.67394 8.82702 8.42358 8.44114 8.42358 8.3042C8.42398 8.29094 8.4277 8.27799 8.43441 8.26655Z" fill="white"/>
<defs>
<linearGradient id="paint0_linear_176_1180" x1="9.49447" y1="9.76241" x2="15.9277" y2="2.845" gradientUnits="userSpaceOnUse">
<stop stop-color="#315676"/>
<stop offset="1" stop-color="#E1B9E0"/>
</linearGradient>
<linearGradient id="paint1_linear_176_1180" x1="7.91137" y1="2.27572" x2="15.2463" y2="9.18949" gradientUnits="userSpaceOnUse">
<stop stop-color="#315676"/>
<stop offset="1" stop-color="#E1B9E0"/>
</linearGradient>
</defs>
</svg>
