<svg width="20" height="20" viewBox="0 0 20 20" fill="none" xmlns="http://www.w3.org/2000/svg">
<path d="M16.6754 15.8924C12.7431 18.9201 7.25838 18.8959 3.35303 15.8336L6.21538 14.4918C6.3517 14.4277 6.48253 14.3526 6.60656 14.2671C6.6442 14.2412 6.68185 14.2141 6.71773 14.1859C7.02926 13.9475 7.28568 13.6448 7.4695 13.2983C7.60859 13.0317 7.70091 12.7432 7.74244 12.4453C7.77117 12.2523 7.78572 12.0575 7.78597 11.8624C7.78597 11.5259 7.76773 11.1894 7.7642 10.8524C7.76185 10.6657 7.75989 10.4792 7.75832 10.293L7.87597 10.3518L8.18185 10.51L8.32362 10.5341L9.96362 10.813L11.7942 11.1247L11.8495 13.0071L11.8677 13.6224L11.8766 13.9212V13.9406L12.5883 14.23L16.6754 15.8924Z" fill="#F2D4CF"/>
<path d="M11.8764 13.8043C11.6743 13.8391 11.4663 13.8068 11.2841 13.7125L7.77408 10.8431C7.76997 10.7102 7.76644 10.8496 7.76467 10.7166C7.76232 10.53 7.76036 10.3435 7.75879 10.1572L7.87644 10.2161L8.18232 10.3743L8.32408 10.3984L9.96291 10.6808L11.7935 10.9925L11.8488 12.8749L11.867 13.4902L11.8758 13.789V13.8084L11.8764 13.8043Z" fill="#DAAEA8"/>
<path d="M15.8277 1.82324L15.8118 1.82971L15.6318 5.24854C15.5365 7.06437 14.3795 8.65326 12.6806 9.30148L7.76886 10.9997C7.76886 10.9568 7.45651 10.6468 7.06298 10.2697C6.02912 9.28645 5.43016 7.93143 5.39886 6.50501C5.34357 4.01618 7.28121 1.9003 9.7718 1.82442C9.81886 1.82442 9.86592 1.82442 9.91357 1.82442L15.8277 1.82324Z" fill="url(#paint0_linear_176_1163)"/>
<path d="M15.8106 1.83008L15.7794 4.90361C15.7599 6.87125 14.526 8.62192 12.6794 9.30184V5.26478C12.6794 5.26478 14.1377 1.84655 15.8106 1.83008Z" fill="url(#paint1_linear_176_1163)"/>
<ellipse cx="7.17944" cy="8.64648" rx="1" ry="1" fill="#F2D4CF"/>
<ellipse cx="7.4971" cy="8.64725" rx="0.895294" ry="0.895294" fill="#DAAEA8"/>
<path d="M7.51001 7.7034L7.76766 11.0563L11.6759 13.3399C12.237 13.5492 12.8652 13.2981 13.1277 12.7599C13.69 11.6081 14.5924 9.78928 14.4735 9.11281C14.2971 8.11281 13.8265 7.75987 13.8265 7.75987L14.0224 6.58693C14.0959 6.14517 14.1906 5.68399 14.0812 5.23987C13.9559 4.73046 13.5712 4.5134 13.2547 4.13281C12.4218 5.20575 11.0524 5.81222 9.85648 6.42693C9.23942 6.75164 7.51001 7.7034 7.51001 7.7034Z" fill="#F2D4CF"/>
<path d="M9.39526 7.01002C9.93984 6.89757 10.4999 6.88184 11.05 6.96355" stroke="#00214E" stroke-width="0.4" stroke-linecap="round"/>
<path d="M12.8689 7.01605C13.2051 6.93772 13.5516 6.91369 13.8954 6.94487" stroke="#00214E" stroke-width="0.4" stroke-linecap="round"/>
<path d="M11.5142 9.2793C11.4264 9.32424 11.3844 9.42648 11.4154 9.52013C11.4464 9.61378 11.541 9.67086 11.6383 9.65459" stroke="#00214E" stroke-width="0.4" stroke-linecap="round"/>
<ellipse cx="10.2219" cy="7.84848" rx="0.192353" ry="0.467059" transform="rotate(-85.77 10.2219 7.84848)" fill="#00214E"/>
<ellipse cx="13.286" cy="7.80651" rx="0.467059" ry="0.192353" transform="rotate(-7.27 13.286 7.80651)" fill="#00214E"/>
<path d="M12.5764 8.6709C12.5764 8.6709 12.5935 9.00325 12.6712 9.15913C12.7047 9.22619 12.757 9.28266 12.7888 9.34972C12.9194 9.60443 12.7088 9.65796 12.5059 9.65796" stroke="#00214E" stroke-width="0.4" stroke-linecap="round"/>
<path d="M16.6754 15.8924C12.7431 18.9201 7.25838 18.8959 3.35303 15.8335L6.21538 14.4918C6.3517 14.4277 6.48253 14.3525 6.60656 14.2671C6.6442 14.2412 6.68185 14.2141 6.71773 14.1859C7.02926 13.9475 7.28568 13.6448 7.4695 13.2983C7.60859 13.0316 7.70091 12.7431 7.74244 12.4453C7.78398 12.4856 7.82757 12.5237 7.87303 12.5594C8.23371 12.8261 8.62514 13.0485 9.03891 13.2218C9.23979 13.3056 9.44521 13.378 9.6542 13.4388C10.2839 13.6224 10.9413 13.692 11.5954 13.6441C11.686 13.6371 11.7771 13.6283 11.8677 13.6218L11.8766 13.9206V13.94L12.5883 14.2294L16.6754 15.8924Z" fill="#00214E"/>
<path d="M10.5428 10.3325C10.559 10.3066 10.5852 10.2887 10.6152 10.2831C10.6452 10.2775 10.6761 10.2847 10.7005 10.303C10.8228 10.3889 11.0464 10.5713 11.364 10.6342C11.7969 10.7207 12.1722 10.5472 12.2622 10.6589C12.3128 10.7219 12.2511 10.7983 12.1328 10.8942C11.8825 11.0812 11.5674 11.1595 11.2587 11.1113C10.8422 11.033 10.5293 10.5507 10.5293 10.3795C10.5298 10.3629 10.5344 10.3468 10.5428 10.3325Z" fill="white"/>
<defs>
<linearGradient id="paint0_linear_176_1163" x1="11.8681" y1="12.2025" x2="19.9097" y2="3.55576" gradientUnits="userSpaceOnUse">
<stop stop-color="#315676"/>
<stop offset="1" stop-color="#E1B9E0"/>
</linearGradient>
<linearGradient id="paint1_linear_176_1163" x1="9.88922" y1="2.8449" x2="19.0579" y2="11.4871" gradientUnits="userSpaceOnUse">
<stop stop-color="#315676"/>
<stop offset="1" stop-color="#E1B9E0"/>
</linearGradient>
</defs>
</svg>
