<svg width="24" height="24" viewBox="0 0 24 24" fill="none" xmlns="http://www.w3.org/2000/svg">
<path d="M20.0103 19.0718C15.2916 22.7051 8.70986 22.676 4.02344 19.0012L7.45826 17.3911C7.62184 17.3142 7.77884 17.224 7.92767 17.1215C7.97285 17.0904 8.01803 17.058 8.06108 17.0241C8.43491 16.738 8.74262 16.3747 8.9632 15.9589C9.13012 15.639 9.2409 15.2928 9.29073 14.9354C9.3252 14.7038 9.34266 14.47 9.34297 14.2358C9.34297 13.8321 9.32108 13.4283 9.31685 13.0238C9.31403 12.7998 9.31167 12.5761 9.30979 12.3525L9.45097 12.4231L9.81803 12.613L9.98814 12.642L11.9561 12.9765L14.1529 13.3507L14.2192 15.6095L14.2411 16.3478L14.2517 16.7064V16.7297L15.1058 17.077L20.0103 19.0718Z" fill="#F2D4CF"/>
<path d="M14.2517 16.5659C14.0091 16.6077 13.7595 16.569 13.5409 16.4558L9.3289 13.0125C9.32396 12.853 9.31972 13.0203 9.31761 12.8607C9.31478 12.6367 9.31243 12.413 9.31055 12.1895L9.45172 12.26L9.81878 12.4499L9.9889 12.4789L11.9555 12.8177L14.1522 13.1918L14.2185 15.4506L14.2404 16.189L14.251 16.5476V16.5709L14.2517 16.5659Z" fill="#DAAEA8"/>
<path d="M18.9933 2.18848L18.9742 2.19624L18.7582 6.29883C18.6438 8.47783 17.2554 10.3845 15.2168 11.1624L9.32268 13.2002C9.32268 13.1487 8.94786 12.7767 8.47562 12.3242C7.23499 11.1443 6.51624 9.5183 6.47868 7.80659C6.41233 4.82001 8.7375 2.28095 11.7262 2.18989C11.7827 2.18989 11.8392 2.18989 11.8963 2.18989L18.9933 2.18848Z" fill="url(#paint0_linear_176_1146)"/>
<path d="M18.9727 2.19629L18.9353 5.88452C18.9119 8.24569 17.4312 10.3465 15.2153 11.1624V6.31794C15.2153 6.31794 16.9652 2.21605 18.9727 2.19629Z" fill="url(#paint1_linear_176_1146)"/>
<ellipse cx="8.61528" cy="10.3768" rx="1.2" ry="1.2" fill="#F2D4CF"/>
<ellipse cx="8.99647" cy="10.3771" rx="1.07435" ry="1.07435" fill="#DAAEA8"/>
<path d="M9.01196 9.24467L9.32114 13.2682L14.011 16.0084C14.6843 16.2596 15.4382 15.9584 15.7531 15.3124C16.428 13.9303 17.5108 11.7477 17.3682 10.936C17.1564 9.73596 16.5917 9.31243 16.5917 9.31243L16.8268 7.9049C16.915 7.37478 17.0287 6.82137 16.8974 6.28843C16.747 5.67714 16.2854 5.41667 15.9056 4.95996C14.9061 6.24749 13.2628 6.97526 11.8277 7.7129C11.0873 8.10255 9.01196 9.24467 9.01196 9.24467Z" fill="#F2D4CF"/>
<path d="M11.2744 8.41241C11.9279 8.27748 12.6 8.2586 13.2601 8.35664" stroke="#00214E" stroke-width="0.5" stroke-linecap="round"/>
<path d="M15.4426 8.41965C15.846 8.32565 16.2619 8.29681 16.6744 8.33424" stroke="#00214E" stroke-width="0.5" stroke-linecap="round"/>
<path d="M13.817 11.1367C13.7116 11.1906 13.6613 11.3133 13.6985 11.4257C13.7356 11.5381 13.8492 11.6066 13.9659 11.5871" stroke="#00214E" stroke-width="0.5" stroke-linecap="round"/>
<ellipse cx="12.2662" cy="9.41857" rx="0.230824" ry="0.560471" transform="rotate(-85.77 12.2662 9.41857)" fill="#00214E"/>
<ellipse cx="15.9433" cy="9.36898" rx="0.560471" ry="0.230824" transform="rotate(-7.27 15.9433 9.36898)" fill="#00214E"/>
<path d="M15.0918 10.4053C15.0918 10.4053 15.1123 10.8041 15.2054 10.9912C15.2457 11.0716 15.3085 11.1394 15.3466 11.2199C15.5033 11.5255 15.2506 11.5897 15.0071 11.5897" stroke="#00214E" stroke-width="0.5" stroke-linecap="round"/>
<path d="M20.0103 19.072C15.2916 22.7053 8.70986 22.6762 4.02344 19.0014L7.45826 17.3913C7.62184 17.3144 7.77884 17.2242 7.92767 17.1217C7.97285 17.0906 8.01803 17.0581 8.06108 17.0243C8.43491 16.7382 8.74262 16.3749 8.9632 15.9591C9.13012 15.6391 9.2409 15.2929 9.29073 14.9355C9.34058 14.9839 9.39289 15.0296 9.44744 15.0725C9.88025 15.3925 10.35 15.6594 10.8465 15.8673C11.0876 15.9679 11.3341 16.0548 11.5848 16.1278C12.3404 16.3481 13.1293 16.4315 13.9143 16.3741C14.023 16.3657 14.1324 16.3551 14.2411 16.3473L14.2517 16.7059V16.7292L15.1058 17.0765L20.0103 19.072Z" fill="#00214E"/>
<path d="M12.6515 12.3993C12.6709 12.3683 12.7024 12.3468 12.7383 12.3401C12.7743 12.3334 12.8114 12.3421 12.8407 12.364C12.9875 12.4671 13.2557 12.6859 13.6369 12.7615C14.1564 12.8652 14.6068 12.657 14.7148 12.7911C14.7755 12.8666 14.7014 12.9584 14.5595 13.0735C14.2591 13.2979 13.881 13.3918 13.5105 13.3339C13.0108 13.24 12.6353 12.6612 12.6353 12.4558C12.6358 12.4359 12.6414 12.4165 12.6515 12.3993Z" fill="white"/>
<defs>
<linearGradient id="paint0_linear_176_1146" x1="14.2418" y1="14.6436" x2="23.8917" y2="4.2675" gradientUnits="userSpaceOnUse">
<stop stop-color="#315676"/>
<stop offset="1" stop-color="#E1B9E0"/>
</linearGradient>
<linearGradient id="paint1_linear_176_1146" x1="11.8671" y1="3.41408" x2="22.8694" y2="13.7847" gradientUnits="userSpaceOnUse">
<stop stop-color="#315676"/>
<stop offset="1" stop-color="#E1B9E0"/>
</linearGradient>
</defs>
</svg>
