<svg width="32" height="32" viewBox="0 0 32 32" fill="none" xmlns="http://www.w3.org/2000/svg">
<path d="M26.6805 25.4288C20.3889 30.2731 11.6133 30.2344 5.36475 25.3347L9.94451 23.1878C10.1626 23.0853 10.3719 22.9651 10.5704 22.8283C10.6306 22.7869 10.6909 22.7436 10.7483 22.6984C11.2467 22.3171 11.657 21.8326 11.9511 21.2782C12.1737 20.8516 12.3214 20.39 12.3878 19.9135C12.4338 19.6047 12.457 19.293 12.4575 18.9808C12.4575 18.4424 12.4283 17.9041 12.4226 17.3648C12.4189 17.0661 12.4157 16.7678 12.4132 16.4697L12.6015 16.5638L13.0909 16.817L13.3177 16.8556L15.9417 17.3017L18.8706 17.8006L18.9591 20.8123L18.9883 21.7968L19.0024 22.2749V22.306L20.1412 22.769L26.6805 25.4288Z" fill="#F2D4CF"/>
<path d="M19.0023 22.0882C18.6788 22.1439 18.346 22.0923 18.0545 21.9414L12.4385 17.3503C12.4319 17.1376 12.4263 17.3607 12.4235 17.148C12.4197 16.8493 12.4166 16.551 12.4141 16.2529L12.6023 16.347L13.0917 16.6002L13.3185 16.6388L15.9407 17.0906L18.8696 17.5894L18.9581 20.6012L18.9872 21.5856L19.0014 22.0638V22.0948L19.0023 22.0882Z" fill="#DAAEA8"/>
<path d="M25.3242 2.91797L25.2988 2.92832L25.0108 8.39844C24.8582 11.3038 23.0071 13.846 20.2889 14.8831L12.4301 17.6003C12.4301 17.5316 11.9303 17.0356 11.3007 16.4323C9.64649 14.8591 8.68816 12.6911 8.63808 10.4088C8.54961 6.42667 11.6498 3.04126 15.6348 2.91985C15.7101 2.91985 15.7854 2.91985 15.8616 2.91985L25.3242 2.91797Z" fill="url(#paint0_linear_176_1129)"/>
<path d="M25.297 2.92871L25.2471 7.84636C25.2158 10.9946 23.2416 13.7957 20.2871 14.8835V8.42424C20.2871 8.42424 22.6203 2.95506 25.297 2.92871Z" fill="url(#paint1_linear_176_1129)"/>
<ellipse cx="11.487" cy="13.8354" rx="1.6" ry="1.6" fill="#F2D4CF"/>
<ellipse cx="11.9952" cy="13.8358" rx="1.43247" ry="1.43247" fill="#DAAEA8"/>
<path d="M12.0161 12.3262L12.4283 17.6909L18.6815 21.3446C19.5792 21.6794 20.5845 21.2778 21.0043 20.4166C21.9041 18.5738 23.3479 15.6636 23.1578 14.5813C22.8754 12.9813 22.1225 12.4166 22.1225 12.4166L22.4359 10.5399C22.5535 9.83305 22.7051 9.09516 22.53 8.38458C22.3295 7.56952 21.714 7.22222 21.2076 6.61328C19.8749 8.32999 17.6839 9.30034 15.7705 10.2839C14.7832 10.8034 12.0161 12.3262 12.0161 12.3262Z" fill="#F2D4CF"/>
<path d="M15.0325 11.2162C15.9038 11.0363 16.8 11.0111 17.68 11.1419" stroke="#00214E" stroke-width="0.5" stroke-linecap="round"/>
<path d="M20.5901 11.2268C21.128 11.1015 21.6824 11.0631 22.2324 11.113" stroke="#00214E" stroke-width="0.5" stroke-linecap="round"/>
<path d="M18.4225 14.8486C18.2821 14.9205 18.215 15.0841 18.2645 15.234C18.3141 15.3838 18.4655 15.4751 18.6211 15.4491" stroke="#00214E" stroke-width="0.5" stroke-linecap="round"/>
<ellipse cx="16.3549" cy="12.5587" rx="0.307765" ry="0.747294" transform="rotate(-85.77 16.3549 12.5587)" fill="#00214E"/>
<ellipse cx="21.2578" cy="12.491" rx="0.747294" ry="0.307765" transform="rotate(-7.27 21.2578 12.491)" fill="#00214E"/>
<path d="M20.1225 13.874C20.1225 13.874 20.1498 14.4058 20.274 14.6552C20.3276 14.7625 20.4114 14.8528 20.4622 14.9601C20.6712 15.3677 20.3342 15.4533 20.0095 15.4533" stroke="#00214E" stroke-width="0.5" stroke-linecap="round"/>
<path d="M26.6805 25.4294C20.3889 30.2737 11.6133 30.235 5.36475 25.3352L9.94451 23.1884C10.1626 23.0859 10.3719 22.9656 10.5704 22.8289C10.6306 22.7875 10.6909 22.7442 10.7483 22.699C11.2467 22.3176 11.657 21.8332 11.9511 21.2788C12.1737 20.8522 12.3214 20.3906 12.3878 19.9141C12.4543 19.9785 12.524 20.0394 12.5967 20.0967C13.1738 20.5234 13.8001 20.8792 14.4622 21.1564C14.7836 21.2905 15.1122 21.4064 15.4466 21.5037C16.4541 21.7975 17.5059 21.9087 18.5525 21.8322C18.6975 21.8209 18.8433 21.8068 18.9883 21.7964L19.0024 22.2745V22.3056L20.1412 22.7687L26.6805 25.4294Z" fill="#00214E"/>
<path d="M16.8688 16.5321C16.8946 16.4907 16.9366 16.4621 16.9846 16.4531C17.0325 16.4442 17.082 16.4558 17.1211 16.4851C17.3168 16.6225 17.6745 16.9142 18.1827 17.0149C18.8754 17.1533 19.4759 16.8757 19.6199 17.0545C19.7008 17.1552 19.602 17.2775 19.4128 17.4309C19.0123 17.7302 18.5082 17.8554 18.0142 17.7782C17.3479 17.6531 16.8472 16.8813 16.8472 16.6074C16.848 16.5809 16.8554 16.555 16.8688 16.5321Z" fill="white"/>
<defs>
<linearGradient id="paint0_linear_176_1129" x1="18.9889" y1="19.5248" x2="31.8554" y2="5.69" gradientUnits="userSpaceOnUse">
<stop stop-color="#315676"/>
<stop offset="1" stop-color="#E1B9E0"/>
</linearGradient>
<linearGradient id="paint1_linear_176_1129" x1="15.8227" y1="4.55243" x2="30.4926" y2="18.3799" gradientUnits="userSpaceOnUse">
<stop stop-color="#315676"/>
<stop offset="1" stop-color="#E1B9E0"/>
</linearGradient>
</defs>
</svg>
