<svg width="12" height="12" viewBox="0 0 12 12" fill="none" xmlns="http://www.w3.org/2000/svg">
<path d="M10.1646 4.44552C10.1646 4.71411 9.85862 4.94917 9.8085 5.20328C9.75662 5.46481 9.94968 5.79905 9.84873 6.03976C9.74779 6.28046 9.37438 6.38493 9.22862 6.60234C9.08285 6.81976 9.13085 7.20446 8.94626 7.39046C8.76168 7.57646 8.37768 7.52705 8.1585 7.67281C7.93932 7.81858 7.84085 8.19164 7.59556 8.29293C7.35026 8.39423 7.02097 8.20117 6.75909 8.25305C6.50532 8.30317 6.26991 8.60917 6.00132 8.60917C5.73273 8.60917 5.49768 8.30317 5.24356 8.25305C4.98203 8.20117 4.64779 8.39423 4.40709 8.29293C4.16638 8.19164 4.06226 7.81858 3.8445 7.67281C3.62673 7.52705 3.24238 7.5754 3.05638 7.39046C2.87038 7.20552 2.91979 6.82187 2.77403 6.60234C2.62826 6.38281 2.25273 6.28364 2.15144 6.03976C2.05015 5.79587 2.24321 5.46481 2.19168 5.20328C2.14121 4.94917 1.83521 4.71411 1.83521 4.44552C1.83521 4.17693 2.14121 3.94152 2.19168 3.68776C2.24321 3.42623 2.0505 3.09199 2.15144 2.85129C2.25238 2.61058 2.62579 2.50717 2.77156 2.28834C2.91732 2.06952 2.86897 1.68834 3.05391 1.50058C3.23885 1.31281 3.6225 1.36399 3.84203 1.21823C4.06156 1.07246 4.15968 0.699756 4.40462 0.598109C4.64956 0.496462 4.97956 0.690227 5.24109 0.638344C5.49521 0.588227 5.73026 0.282227 5.99885 0.282227C6.26744 0.282227 6.50391 0.586815 6.75768 0.636579C7.01956 0.688462 7.35344 0.495403 7.59415 0.596344C7.83485 0.697285 7.93932 1.07105 8.15709 1.21681C8.37485 1.36258 8.75709 1.31423 8.94485 1.49917C9.13262 1.68411 9.08179 2.06776 9.22721 2.28729C9.37262 2.50681 9.74568 2.60493 9.84732 2.84987C9.94897 3.09481 9.75521 3.42481 9.80709 3.68634C9.85862 3.94152 10.1646 4.17693 10.1646 4.44552Z" fill="url(#paint0_linear_176_1278)"/>
<ellipse cx="4.2001" cy="6.03359" rx="0.6" ry="0.6" fill="#845161"/>
<circle cx="4.40675" cy="5.9983" r="0.564706" fill="#69303A"/>
<path d="M9.90308 10.3814C7.54374 12.198 4.25288 12.1835 1.90967 10.3461L3.62708 9.54105C3.70887 9.5026 3.78737 9.45751 3.86179 9.40623C3.88437 9.3907 3.90696 9.37446 3.92849 9.35752C4.11541 9.2145 4.26926 9.03284 4.37955 8.82493C4.52073 8.55846 4.56731 8.26411 4.56943 7.96411C4.56943 7.9027 4.56943 7.84093 4.56731 7.77952C4.56414 7.63834 4.55779 7.49717 4.55637 7.35811C4.55496 7.24611 4.55379 7.13423 4.55284 7.02246L4.62343 7.05776L4.80696 7.1527L4.89202 7.16717L5.87602 7.33446L6.97437 7.52152L7.00755 8.65093L7.02026 9.08187L7.02379 9.1994V9.21105L7.45084 9.3847L9.90308 10.3814Z" fill="#845161"/>
<path d="M7.02074 9.08839L6.96639 9.09403C6.43534 9.14079 5.91055 8.95201 5.53098 8.57768L4.56463 7.42956C4.56145 7.32721 4.55757 7.42956 4.55651 7.32686C4.5551 7.21486 4.55392 7.10298 4.55298 6.99121L4.62357 7.02651L4.8071 7.12145L4.89215 7.13592L5.87616 7.30321L6.97451 7.49027L7.00768 8.61968L7.02074 9.08839Z" fill="#69303A"/>
<path d="M4.3803 4.81244C4.35242 4.84774 4.32771 4.91832 4.30124 5.02809C4.24018 5.28679 4.50771 6.98515 4.55889 7.48527L5.8443 8.43291C6.2711 8.75272 6.81685 8.86887 7.33689 8.75056C7.54407 8.7015 7.67536 8.66974 7.76889 8.5035C7.9496 8.18585 8.39324 7.09915 8.42218 6.33256C8.4303 6.11515 8.42501 5.78303 8.29089 5.59774C8.2256 5.50774 8.19207 5.50597 8.21571 5.37856C8.24007 5.24585 8.27501 5.11491 8.3043 4.98291C8.38513 4.61832 8.44971 4.20644 8.33289 3.84362C8.27077 3.6495 8.16101 3.52103 8.00501 3.39609C7.83842 3.26268 7.7696 3.26938 7.66971 3.46668C7.6023 3.60079 7.53454 3.71374 7.39795 3.78997C7.19995 3.89974 7.06513 3.82844 6.86854 3.81326C6.6963 3.80021 6.71465 3.93326 6.67689 4.05856C6.63798 4.19203 6.55341 4.30758 6.43795 4.38503C6.22368 4.5242 5.94799 4.52586 5.73207 4.38927C5.70279 4.36825 5.66751 4.35724 5.63148 4.35785C5.5136 4.36421 5.5083 4.50574 5.48148 4.60738C5.42465 4.81915 5.17724 4.93632 4.95736 4.91903C4.59877 4.89256 4.47101 4.69279 4.3803 4.81244Z" fill="#845161"/>
<path d="M7.28377 5.84889L7.18749 5.87599L7.18804 5.87781L7.28377 5.84889ZM7.4433 6.13901L7.36133 6.19633L7.36268 6.19817L7.4433 6.13901ZM7.50647 6.24489L7.59788 6.20426L7.59683 6.20204L7.50647 6.24489ZM7.09424 6.58712C7.03901 6.58712 6.99424 6.6319 6.99424 6.68712C6.99424 6.74235 7.03901 6.78712 7.09424 6.78712V6.58712ZM7.21318 5.44336L7.11343 5.45038C7.12357 5.5944 7.14839 5.73701 7.18751 5.87598L7.28377 5.84889L7.38003 5.82179C7.3446 5.69593 7.32212 5.56677 7.31293 5.43634L7.21318 5.44336ZM7.28377 5.84889L7.18804 5.87781C7.22873 6.01249 7.2924 6.09773 7.36135 6.19631L7.4433 6.13901L7.52525 6.0817C7.45301 5.9784 7.40939 5.91893 7.37949 5.81997L7.28377 5.84889ZM7.4433 6.13901L7.36268 6.19817C7.38329 6.22626 7.40119 6.25625 7.41612 6.28774L7.50647 6.24489L7.59683 6.20204C7.57646 6.15908 7.55204 6.11817 7.52392 6.07984L7.4433 6.13901ZM7.50647 6.24489L7.41509 6.2855C7.44931 6.3625 7.44203 6.43924 7.41003 6.49455C7.37898 6.54823 7.32193 6.58712 7.24 6.58712V6.68712V6.78712C7.39384 6.78712 7.51662 6.70972 7.58315 6.5947C7.64874 6.4813 7.65681 6.33693 7.59785 6.20427L7.50647 6.24489ZM7.24 6.68712V6.58712H7.09424V6.68712V6.78712H7.24V6.68712Z" fill="#00214E"/>
<path d="M6.26295 6.96647C6.22609 6.92534 6.16287 6.92187 6.12174 6.95873C6.08061 6.99559 6.07715 7.05881 6.114 7.09994L6.26295 6.96647ZM6.18848 7.0332L6.114 7.09994C6.29977 7.30724 6.55424 7.44038 6.83047 7.47479L6.84283 7.37556L6.85519 7.27632C6.62686 7.24788 6.41651 7.13783 6.26295 6.96647L6.18848 7.0332Z" fill="#00214E"/>
<path d="M5.52954 5.051C5.85628 4.9836 6.19232 4.97405 6.52236 5.02277" stroke="#00214E" stroke-width="0.2" stroke-linecap="round"/>
<path d="M7.61377 5.05527C7.81549 5.00839 8.02341 4.99409 8.22965 5.01292" stroke="#00214E" stroke-width="0.2" stroke-linecap="round"/>
<path d="M9.90308 10.3813C7.54374 12.1979 4.25288 12.1834 1.90967 10.346L3.62708 9.54095C3.70887 9.5025 3.78737 9.45741 3.86179 9.40613C3.88437 9.3906 3.90696 9.37436 3.92849 9.35742C4.75861 9.9486 5.89402 10.3217 6.87626 9.88013C7.1099 9.77425 7.32449 9.60342 7.45155 9.38389L9.90308 10.3813Z" fill="#F2D4CF"/>
<path d="M6.66925 6.52749C6.71842 6.50233 6.73787 6.44208 6.71271 6.39291C6.68755 6.34375 6.62729 6.3243 6.57813 6.34946L6.66925 6.52749ZM6.62369 6.43848L6.57813 6.34946C6.48155 6.39889 6.43543 6.51136 6.46949 6.61438L6.56444 6.58298L6.65938 6.55158C6.65628 6.54221 6.66047 6.53199 6.66925 6.52749L6.62369 6.43848ZM6.56444 6.58298L6.46949 6.61438C6.50356 6.71739 6.60765 6.78018 6.71466 6.76228L6.69816 6.66365L6.68167 6.56502C6.67194 6.56665 6.66248 6.56094 6.65938 6.55158L6.56444 6.58298Z" fill="#00214E"/>
<path d="M6.07663 5.32129C6.29192 5.32305 6.29192 5.65199 6.07663 5.65376H6.06674C5.85145 5.65199 5.85145 5.32305 6.06674 5.32129H6.07663Z" fill="#00214E"/>
<path d="M7.85041 5.32129C8.05017 5.32129 8.05017 5.62835 7.85041 5.62976H7.84123C7.64146 5.62976 7.64146 5.3227 7.84123 5.32129H7.85041Z" fill="#00214E"/>
<defs>
<linearGradient id="paint0_linear_176_1278" x1="7.96744" y1="11.3614" x2="17.3482" y2="2.63747" gradientUnits="userSpaceOnUse">
<stop stop-color="#315676"/>
<stop offset="1" stop-color="#E1B9E0"/>
</linearGradient>
</defs>
</svg>
