<svg width="16" height="16" viewBox="0 0 16 16" fill="none" xmlns="http://www.w3.org/2000/svg">
<path d="M13.5529 5.92801C13.5529 6.28613 13.1449 6.59954 13.0781 6.93836C13.0089 7.28707 13.2663 7.73272 13.1317 8.05366C12.9971 8.3746 12.4993 8.51389 12.3049 8.80378C12.1106 9.09366 12.1746 9.6066 11.9284 9.8546C11.6823 10.1026 11.1703 10.0367 10.8781 10.2311C10.5858 10.4254 10.4546 10.9228 10.1275 11.0579C9.80043 11.193 9.36137 10.9355 9.0122 11.0047C8.67384 11.0715 8.35996 11.4795 8.00185 11.4795C7.64373 11.4795 7.33032 11.0715 6.99149 11.0047C6.64279 10.9355 6.19714 11.193 5.8762 11.0579C5.55526 10.9228 5.41643 10.4254 5.12608 10.2311C4.83573 10.0367 4.32326 10.1012 4.07526 9.8546C3.82726 9.60801 3.89314 9.09648 3.69879 8.80378C3.50443 8.51107 3.00373 8.37883 2.86867 8.05366C2.73361 7.72848 2.99102 7.28707 2.92232 6.93836C2.85502 6.59954 2.44702 6.28613 2.44702 5.92801C2.44702 5.56989 2.85502 5.25601 2.92232 4.91766C2.99102 4.56895 2.73408 4.12331 2.86867 3.80236C3.00326 3.48142 3.50114 3.34354 3.69549 3.05178C3.88985 2.76001 3.82537 2.25178 4.07196 2.00142C4.31855 1.75107 4.83008 1.81931 5.12279 1.62495C5.41549 1.4306 5.54632 0.933659 5.8729 0.79813C6.19949 0.6626 6.63949 0.920953 6.9882 0.851777C7.32702 0.784953 7.64043 0.376953 7.99855 0.376953C8.35667 0.376953 8.67196 0.783071 9.01032 0.849424C9.35949 0.9186 9.80467 0.661188 10.1256 0.795777C10.4466 0.930365 10.5858 1.42872 10.8762 1.62307C11.1666 1.81742 11.6762 1.75295 11.9266 1.99954C12.1769 2.24613 12.1091 2.75766 12.303 3.05036C12.4969 3.34307 12.9943 3.47389 13.1298 3.80048C13.2654 4.12707 13.007 4.56707 13.0762 4.91578C13.1449 5.25601 13.5529 5.56989 13.5529 5.92801Z" fill="url(#paint0_linear_176_1262)"/>
<ellipse cx="5.60005" cy="8.04609" rx="0.8" ry="0.8" fill="#845161"/>
<circle cx="5.87574" cy="7.99903" r="0.752941" fill="#69303A"/>
<path d="M13.2043 13.8428C10.0585 16.265 5.67067 16.2457 2.54639 13.7958L4.83627 12.7224C4.94532 12.6711 5.04999 12.611 5.14921 12.5426C5.17933 12.5219 5.20945 12.5003 5.23815 12.4777C5.48737 12.287 5.69251 12.0448 5.83956 11.7676C6.0278 11.4123 6.08992 11.0198 6.09274 10.6198C6.09274 10.5379 6.09274 10.4556 6.08992 10.3737C6.08568 10.1854 6.07721 9.9972 6.07533 9.81179C6.07345 9.66245 6.07188 9.51328 6.07062 9.36426L6.16474 9.41132L6.40945 9.5379L6.52286 9.5572L7.83486 9.78026L9.29933 10.0297L9.34356 11.5356L9.3605 12.1101L9.36521 12.2668V12.2824L9.93462 12.5139L13.2043 13.8428Z" fill="#845161"/>
<path d="M9.36091 12.1185L9.28844 12.126C8.58038 12.1884 7.88066 11.9367 7.37456 11.4376L6.08609 9.90674C6.08185 9.77027 6.07667 9.90674 6.07526 9.7698C6.07338 9.62046 6.07181 9.47129 6.07056 9.32227L6.16467 9.36932L6.40938 9.49591L6.52279 9.51521L7.83479 9.73827L9.29926 9.98768L9.3435 11.4936L9.36091 12.1185Z" fill="#69303A"/>
<path d="M5.84057 6.41724C5.80339 6.4643 5.77045 6.55842 5.73515 6.70477C5.65374 7.04971 6.01045 9.31418 6.07868 9.98101L7.79257 11.2445C8.36163 11.6709 9.0893 11.8258 9.78268 11.6681C10.0589 11.6027 10.234 11.5603 10.3587 11.3387C10.5996 10.9151 11.1912 9.46618 11.2297 8.44406C11.2406 8.15418 11.2335 7.71136 11.0547 7.4643C10.9676 7.3443 10.9229 7.34195 10.9544 7.17206C10.9869 6.99512 11.0335 6.82053 11.0726 6.64453C11.1803 6.15842 11.2664 5.60924 11.1107 5.12547C11.0279 4.86665 10.8815 4.69536 10.6735 4.52877C10.4514 4.35089 10.3596 4.35983 10.2264 4.62289C10.1366 4.80171 10.0462 4.9523 9.86409 5.05395C9.60009 5.2003 9.42033 5.10524 9.15821 5.085C8.92857 5.06759 8.95304 5.245 8.90268 5.41206C8.8508 5.59002 8.73804 5.7441 8.58409 5.84736C8.29841 6.03292 7.93081 6.03513 7.64292 5.853C7.60388 5.82499 7.55685 5.8103 7.5088 5.81112C7.35162 5.81959 7.34457 6.0083 7.3088 6.14383C7.23304 6.42618 6.90315 6.58242 6.60998 6.55936C6.13186 6.52406 5.96151 6.25771 5.84057 6.41724Z" fill="#845161"/>
<path d="M9.71145 7.79949L9.56703 7.84015L9.56786 7.84288L9.71145 7.79949ZM9.92415 8.18632L9.80119 8.2723L9.80322 8.27506L9.92415 8.18632ZM10.0084 8.32749L10.1455 8.26656L10.1439 8.26322L10.0084 8.32749ZM9.45874 8.76714C9.3759 8.76714 9.30874 8.8343 9.30874 8.91714C9.30874 8.99998 9.3759 9.06714 9.45874 9.06714V8.76714ZM9.61733 7.25879L9.4677 7.26932C9.4813 7.46248 9.51459 7.65375 9.56706 7.84014L9.71145 7.79949L9.85583 7.75885C9.8089 7.59212 9.77912 7.42104 9.76696 7.24826L9.61733 7.25879ZM9.71145 7.79949L9.56786 7.84288C9.62301 8.02543 9.70958 8.14122 9.80123 8.27228L9.92415 8.18632L10.0471 8.10036C9.95049 7.96224 9.894 7.88509 9.85504 7.75611L9.71145 7.79949ZM9.92415 8.18632L9.80322 8.27506C9.83008 8.31167 9.8534 8.35075 9.87286 8.39177L10.0084 8.32749L10.1439 8.26322C10.1163 8.20499 10.0832 8.14953 10.0451 8.09757L9.92415 8.18632ZM10.0084 8.32749L9.87132 8.38842C9.91488 8.48644 9.90523 8.58312 9.86537 8.65203C9.82692 8.7185 9.75633 8.76714 9.65309 8.76714V8.91714V9.06714C9.86421 9.06714 10.0334 8.96073 10.1251 8.80225C10.2153 8.64622 10.2261 8.44808 10.1455 8.26657L10.0084 8.32749ZM9.65309 8.91714V8.76714H9.45874V8.91714V9.06714H9.65309V8.91714Z" fill="#00214E"/>
<path d="M8.36293 9.27782C8.30764 9.21613 8.21281 9.21093 8.15111 9.26622C8.08942 9.32151 8.08423 9.41634 8.13951 9.47804L8.36293 9.27782ZM8.25122 9.37793L8.13951 9.47804C8.38989 9.75743 8.73286 9.93687 9.10515 9.98325L9.12369 9.8344L9.14223 9.68555C8.84178 9.64812 8.56499 9.50331 8.36293 9.27782L8.25122 9.37793Z" fill="#00214E"/>
<path d="M7.3728 6.73565C7.80846 6.64578 8.25651 6.63304 8.69657 6.698" stroke="#00214E" stroke-width="0.3" stroke-linecap="round"/>
<path d="M10.1516 6.74102C10.4206 6.67851 10.6978 6.65944 10.9728 6.68454" stroke="#00214E" stroke-width="0.3" stroke-linecap="round"/>
<path d="M13.2043 13.8427C10.0585 16.2649 5.67067 16.2455 2.54639 13.7957L4.83627 12.7222C4.94532 12.671 5.04999 12.6109 5.14921 12.5425C5.17933 12.5218 5.20945 12.5001 5.23815 12.4775C6.34497 13.2658 7.85886 13.7632 9.1685 13.1745C9.48003 13.0333 9.76615 12.8055 9.93556 12.5128L13.2043 13.8427Z" fill="#F2D4CF"/>
<path d="M8.89985 8.71946C8.9736 8.68172 9.00278 8.59134 8.96503 8.51759C8.92729 8.44385 8.83691 8.41467 8.76316 8.45241L8.89985 8.71946ZM8.83151 8.58594L8.76316 8.45241C8.62707 8.52207 8.56208 8.68055 8.61009 8.8257L8.7525 8.7786L8.89491 8.7315C8.89337 8.72682 8.89546 8.72171 8.89985 8.71946L8.83151 8.58594ZM8.7525 8.7786L8.61009 8.8257C8.65809 8.97086 8.80475 9.05934 8.95555 9.03412L8.9308 8.88617L8.90606 8.73823C8.90119 8.73904 8.89646 8.73619 8.89491 8.7315L8.7525 8.7786Z" fill="#00214E"/>
<path d="M8.10201 7.0957C8.38906 7.09806 8.38906 7.53664 8.10201 7.539H8.08883C7.80177 7.53664 7.80177 7.09806 8.08883 7.0957H8.10201Z" fill="#00214E"/>
<path d="M10.4674 7.0957C10.7337 7.0957 10.7337 7.50511 10.4674 7.507H10.4551C10.1888 7.507 10.1888 7.09759 10.4551 7.0957H10.4674Z" fill="#00214E"/>
<defs>
<linearGradient id="paint0_linear_176_1262" x1="10.6233" y1="15.1492" x2="23.131" y2="3.51728" gradientUnits="userSpaceOnUse">
<stop stop-color="#315676"/>
<stop offset="1" stop-color="#E1B9E0"/>
</linearGradient>
</defs>
</svg>
