<svg width="20" height="20" viewBox="0 0 20 20" fill="none" xmlns="http://www.w3.org/2000/svg">
<path d="M16.9412 7.40953C16.9412 7.85717 16.4312 8.24894 16.3477 8.67247C16.2612 9.10835 16.583 9.66541 16.4147 10.0666C16.2465 10.4678 15.6241 10.6419 15.3812 11.0042C15.1383 11.3666 15.2183 12.0078 14.9106 12.3178C14.603 12.6278 13.963 12.5454 13.5977 12.7883C13.2324 13.0313 13.0683 13.6531 12.6594 13.8219C12.2506 13.9907 11.7018 13.6689 11.2653 13.7554C10.8424 13.8389 10.45 14.3489 10.0024 14.3489C9.55472 14.3489 9.16296 13.8389 8.73943 13.7554C8.30354 13.6689 7.74649 13.9907 7.34531 13.8219C6.94413 13.6531 6.7706 13.0313 6.40766 12.7883C6.04472 12.5454 5.40413 12.626 5.09413 12.3178C4.78413 12.0095 4.86649 11.3701 4.62354 11.0042C4.3806 10.6384 3.75472 10.4731 3.5859 10.0666C3.41707 9.66011 3.73884 9.10835 3.65296 8.67247C3.56884 8.24894 3.05884 7.85717 3.05884 7.40953C3.05884 6.96188 3.56884 6.56953 3.65296 6.14658C3.73884 5.7107 3.41766 5.15364 3.5859 4.75247C3.75413 4.35129 4.37649 4.17894 4.61943 3.81423C4.86237 3.44953 4.78178 2.81423 5.09001 2.50129C5.39825 2.18835 6.03766 2.27364 6.40354 2.0307C6.76943 1.78776 6.93296 1.16659 7.34119 0.997174C7.74943 0.827762 8.29943 1.1507 8.73531 1.06423C9.15884 0.980703 9.5506 0.470703 9.99825 0.470703C10.4459 0.470703 10.84 0.97835 11.263 1.06129C11.6994 1.14776 12.2559 0.825997 12.6571 0.994232C13.0583 1.16247 13.2324 1.78541 13.5953 2.02835C13.9583 2.27129 14.5953 2.1907 14.9083 2.49894C15.2212 2.80717 15.1365 3.44659 15.3788 3.81247C15.6212 4.17835 16.243 4.34188 16.4124 4.75011C16.5818 5.15835 16.2588 5.70835 16.3453 6.14423C16.4312 6.56953 16.9412 6.96188 16.9412 7.40953Z" fill="url(#paint0_linear_176_1246)"/>
<ellipse cx="7" cy="10.0566" rx="1" ry="1" fill="#845161"/>
<circle cx="7.34474" cy="9.99782" r="0.941176" fill="#69303A"/>
<path d="M16.5052 17.3023C12.573 20.3301 7.08821 20.3058 3.18286 17.2435L6.04521 15.9017C6.18153 15.8377 6.31236 15.7625 6.43639 15.677C6.47404 15.6512 6.51168 15.6241 6.54757 15.5959C6.85909 15.3575 7.11551 15.0547 7.29933 14.7082C7.53463 14.2641 7.61227 13.7735 7.6158 13.2735C7.6158 13.1712 7.6158 13.0682 7.61227 12.9659C7.60698 12.7306 7.59639 12.4953 7.59404 12.2635C7.59168 12.0768 7.58972 11.8904 7.58816 11.7041L7.7058 11.7629L8.01168 11.9212L8.15345 11.9453L9.79345 12.2241L11.624 12.5359L11.6793 14.4182L11.7005 15.1365L11.7064 15.3323V15.3517L12.4182 15.6412L16.5052 17.3023Z" fill="#845161"/>
<path d="M11.7011 15.1476L11.6105 15.157C10.7254 15.235 9.85076 14.9203 9.21813 14.2965L7.60755 12.3829C7.60225 12.2123 7.59578 12.3829 7.59402 12.2118C7.59166 12.0251 7.5897 11.8386 7.58813 11.6523L7.70578 11.7112L8.01166 11.8694L8.15343 11.8935L9.79343 12.1723L11.624 12.4841L11.6793 14.3665L11.7011 15.1476Z" fill="#69303A"/>
<path d="M7.30058 8.02106C7.25411 8.07988 7.21294 8.19753 7.16882 8.38047C7.06705 8.81165 7.51294 11.6422 7.59823 12.4758L9.74058 14.0552C10.4519 14.5882 11.3615 14.7818 12.2282 14.5846C12.5735 14.5028 12.7923 14.4499 12.9482 14.1728C13.2494 13.6434 13.9888 11.8322 14.0371 10.5546C14.0506 10.1922 14.0418 9.63871 13.8182 9.32989C13.7094 9.17988 13.6535 9.17694 13.6929 8.96459C13.7335 8.74341 13.7918 8.52518 13.8406 8.30518C13.9753 7.69753 14.0829 7.01106 13.8882 6.40636C13.7847 6.08283 13.6018 5.86871 13.3418 5.66047C13.0641 5.43812 12.9494 5.4493 12.7829 5.77812C12.6706 6.00165 12.5576 6.18988 12.33 6.31694C12 6.49988 11.7753 6.38106 11.4476 6.35577C11.1606 6.334 11.1912 6.55577 11.1282 6.76459C11.0634 6.98704 10.9224 7.17963 10.73 7.30871C10.3729 7.54067 9.91339 7.54342 9.55353 7.31577C9.50472 7.28075 9.44594 7.26239 9.38588 7.26341C9.18941 7.274 9.18058 7.50989 9.13588 7.6793C9.04117 8.03224 8.62882 8.22753 8.26235 8.19871C7.6647 8.15459 7.45176 7.82165 7.30058 8.02106Z" fill="#845161"/>
<path d="M12.1394 9.74912L11.9468 9.80333L11.9479 9.80697L12.1394 9.74912ZM12.4053 10.2327L12.2413 10.3473L12.244 10.351L12.4053 10.2327ZM12.5105 10.4091L12.6934 10.3279L12.6913 10.3234L12.5105 10.4091ZM11.8235 10.9462C11.713 10.9462 11.6235 11.0357 11.6235 11.1462C11.6235 11.2566 11.713 11.3462 11.8235 11.3462V10.9462ZM12.0217 9.07324L11.8222 9.08729C11.8393 9.32958 11.881 9.56951 11.9469 9.80332L12.1394 9.74912L12.3319 9.69493C12.2735 9.48734 12.2364 9.27432 12.2212 9.0592L12.0217 9.07324ZM12.1394 9.74912L11.9479 9.80697C12.0175 10.0374 12.127 10.1837 12.2414 10.3473L12.4053 10.2327L12.5692 10.118C12.4482 9.9451 12.3789 9.85027 12.3308 9.69128L12.1394 9.74912ZM12.4053 10.2327L12.244 10.351C12.2771 10.3961 12.3059 10.4443 12.3298 10.4948L12.5105 10.4091L12.6913 10.3234C12.6564 10.2499 12.6146 10.1799 12.5665 10.1143L12.4053 10.2327ZM12.5105 10.4091L12.3278 10.4904C12.3807 10.6094 12.3687 10.726 12.321 10.8085C12.2751 10.8878 12.191 10.9462 12.0664 10.9462V11.1462V11.3462C12.3348 11.3462 12.5504 11.2108 12.6672 11.0088C12.7821 10.8102 12.7957 10.5583 12.6933 10.3279L12.5105 10.4091ZM12.0664 11.1462V10.9462H11.8235V11.1462V11.3462H12.0664V11.1462Z" fill="#00214E"/>
<path d="M10.4632 11.5882C10.3894 11.5059 10.263 11.499 10.1807 11.5727C10.0985 11.6465 10.0915 11.7729 10.1653 11.8552L10.4632 11.5882ZM10.3142 11.7217L10.1653 11.8552C10.4802 12.2066 10.9117 12.4324 11.3801 12.4907L11.4048 12.2923L11.4295 12.0938C11.0569 12.0474 10.7137 11.8678 10.4632 11.5882L10.3142 11.7217Z" fill="#00214E"/>
<path d="M9.21582 8.41931C9.76039 8.30698 10.3204 8.29105 10.8705 8.37226" stroke="#00214E" stroke-width="0.4" stroke-linecap="round"/>
<path d="M12.6895 8.42578C13.0257 8.34765 13.3722 8.32382 13.7159 8.35519" stroke="#00214E" stroke-width="0.4" stroke-linecap="round"/>
<path d="M16.5052 17.3022C12.573 20.3299 7.08821 20.3057 3.18286 17.2434L6.04521 15.9016C6.18153 15.8375 6.31236 15.7624 6.43639 15.6769C6.47404 15.651 6.51168 15.6239 6.54757 15.5957C7.9311 16.581 9.82345 17.2028 11.4605 16.4669C11.8499 16.2904 12.2076 16.0057 12.4193 15.6398L16.5052 17.3022Z" fill="#F2D4CF"/>
<path d="M11.1304 10.9095C11.2288 10.8592 11.2677 10.7386 11.2174 10.6403C11.167 10.542 11.0465 10.5031 10.9482 10.5534L11.1304 10.9095ZM11.0393 10.7314L10.9482 10.5534C10.7726 10.6433 10.6887 10.8478 10.7507 11.0351L10.9406 10.9723L11.1304 10.9095L11.1304 10.9095L11.0393 10.7314ZM10.9406 10.9723L10.7507 11.0351C10.8126 11.2224 11.0019 11.3365 11.1964 11.304L11.1634 11.1067L11.1304 10.9095L11.1304 10.9095L10.9406 10.9723Z" fill="#00214E"/>
<path d="M10.1276 8.86914C10.4865 8.87208 10.4865 9.42032 10.1276 9.42326H10.1112C9.75234 9.42032 9.75234 8.87208 10.1112 8.86914H10.1276Z" fill="#00214E"/>
<path d="M13.0841 8.86914C13.417 8.86914 13.417 9.3809 13.0841 9.38326H13.0688C12.7359 9.38326 12.7359 8.87149 13.0688 8.86914H13.0841Z" fill="#00214E"/>
<defs>
<linearGradient id="paint0_linear_176_1246" x1="13.2792" y1="18.936" x2="28.9138" y2="4.39611" gradientUnits="userSpaceOnUse">
<stop stop-color="#315676"/>
<stop offset="1" stop-color="#E1B9E0"/>
</linearGradient>
</defs>
</svg>
