<svg width="24" height="24" viewBox="0 0 24 24" fill="none" xmlns="http://www.w3.org/2000/svg">
<path d="M20.3295 8.89104C20.3295 9.42822 19.7175 9.89833 19.6172 10.4066C19.5135 10.9296 19.8996 11.5981 19.6977 12.0795C19.4958 12.5609 18.749 12.7699 18.4575 13.2047C18.1659 13.6395 18.2619 14.4089 17.8928 14.7809C17.5236 15.1529 16.7556 15.0541 16.3172 15.3456C15.8789 15.6372 15.6819 16.3833 15.1914 16.5859C14.7008 16.7885 14.0422 16.4023 13.5184 16.5061C13.0109 16.6063 12.5401 17.2183 12.0029 17.2183C11.4657 17.2183 10.9956 16.6063 10.4874 16.5061C9.9643 16.4023 9.29583 16.7885 8.81442 16.5859C8.33301 16.3833 8.12477 15.6372 7.68924 15.3456C7.25371 15.0541 6.48501 15.1508 6.11301 14.7809C5.74101 14.411 5.83983 13.6437 5.5483 13.2047C5.25677 12.7656 4.50571 12.5673 4.30312 12.0795C4.10054 11.5917 4.48665 10.9296 4.3836 10.4066C4.28265 9.89833 3.67065 9.42822 3.67065 8.89104C3.67065 8.35386 4.28265 7.88304 4.3836 7.37551C4.48665 6.85245 4.10124 6.18398 4.30312 5.70257C4.50501 5.22116 5.25183 5.01434 5.54336 4.57669C5.83489 4.13904 5.73818 3.37669 6.10807 3.00116C6.47795 2.62563 7.24524 2.72798 7.6843 2.43645C8.12336 2.14492 8.3196 1.39951 8.80948 1.19622C9.29936 0.992924 9.95936 1.38045 10.4824 1.27669C10.9907 1.17645 11.4608 0.564453 11.9979 0.564453C12.5351 0.564453 13.0081 1.17363 13.5156 1.27316C14.0394 1.37692 14.7071 0.990806 15.1885 1.19269C15.6699 1.39457 15.8789 2.1421 16.3144 2.43363C16.7499 2.72516 17.5144 2.62845 17.8899 2.99834C18.2655 3.36822 18.1638 4.13551 18.4547 4.57457C18.7455 5.01363 19.4916 5.20986 19.6949 5.69975C19.8982 6.18963 19.5107 6.84963 19.6144 7.37269C19.7175 7.88304 20.3295 8.35386 20.3295 8.89104Z" fill="url(#paint0_linear_176_1230)"/>
<ellipse cx="8.39995" cy="12.0672" rx="1.2" ry="1.2" fill="#845161"/>
<circle cx="8.81374" cy="11.9966" r="1.12941" fill="#69303A"/>
<path d="M19.8064 20.7628C15.0877 24.3961 8.506 24.367 3.81958 20.6922L7.2544 19.0821C7.41798 19.0052 7.57498 18.915 7.72382 18.8125C7.76899 18.7814 7.81417 18.7489 7.85723 18.715C8.23105 18.429 8.53876 18.0657 8.75934 17.6499C9.0417 17.1169 9.13487 16.5282 9.13911 15.9282C9.13911 15.8054 9.13911 15.6819 9.13487 15.559C9.12852 15.2767 9.11581 14.9943 9.11299 14.7162C9.11017 14.4922 9.10781 14.2685 9.10593 14.0449L9.24711 14.1155L9.61417 14.3054L9.78429 14.3343L11.7523 14.6689L13.949 15.043L14.0153 17.3019L14.0408 18.1637L14.0478 18.3988V18.4221L14.9019 18.7694L19.8064 20.7628Z" fill="#845161"/>
<path d="M14.0415 18.1768L13.9328 18.1881C12.8707 18.2816 11.8211 17.904 11.062 17.1554L9.12925 14.8591C9.1229 14.6544 9.11513 14.8591 9.11302 14.6537C9.11019 14.4297 9.10784 14.206 9.10596 13.9824L9.24713 14.053L9.61419 14.2429L9.78431 14.2718L11.7523 14.6064L13.949 14.9805L14.0154 17.2394L14.0415 18.1768Z" fill="#69303A"/>
<path d="M8.7606 9.62488C8.70484 9.69547 8.65543 9.83665 8.60249 10.0562C8.48037 10.5736 9.01543 13.9703 9.11778 14.9705L11.6886 16.8658C12.5422 17.5054 13.6337 17.7377 14.6738 17.5011C15.0881 17.403 15.3507 17.3395 15.5378 17.007C15.8992 16.3717 16.7865 14.1983 16.8444 12.6651C16.8606 12.2303 16.85 11.5661 16.5818 11.1955C16.4512 11.0155 16.3841 11.0119 16.4314 10.7571C16.4801 10.4917 16.55 10.2298 16.6086 9.96582C16.7703 9.23665 16.8994 8.41288 16.6658 7.68724C16.5415 7.299 16.322 7.04206 16.01 6.79218C15.6768 6.52535 15.5392 6.53877 15.3394 6.93335C15.2046 7.20159 15.0691 7.42747 14.7959 7.57994C14.3999 7.79947 14.1302 7.65688 13.7371 7.62653C13.3926 7.60041 13.4293 7.86653 13.3538 8.11712C13.276 8.38406 13.1068 8.61517 12.8759 8.77006C12.4474 9.04841 11.896 9.05172 11.4641 8.77853C11.4056 8.73651 11.335 8.71448 11.263 8.71571C11.0272 8.72841 11.0166 9.01147 10.963 9.21477C10.8493 9.63829 10.3545 9.87265 9.91472 9.83806C9.19754 9.78512 8.94202 9.38559 8.7606 9.62488Z" fill="#845161"/>
<path d="M14.5673 11.6988L14.3266 11.7665L14.328 11.7711L14.5673 11.6988ZM14.8863 12.279L14.6814 12.4223L14.6848 12.4269L14.8863 12.279ZM15.0127 12.4908L15.2412 12.3892L15.2386 12.3836L15.0127 12.4908ZM14.1882 13.1252C14.0502 13.1252 13.9382 13.2372 13.9382 13.3752C13.9382 13.5133 14.0502 13.6252 14.1882 13.6252V13.1252ZM14.4261 10.8877L14.1767 10.9053C14.1972 11.1967 14.2475 11.4853 14.3266 11.7665L14.5673 11.6988L14.8079 11.631C14.738 11.3826 14.6936 11.1276 14.6755 10.8701L14.4261 10.8877ZM14.5673 11.6988L14.328 11.7711C14.4121 12.0494 14.5444 12.2263 14.6815 12.4223L14.8863 12.279L15.0912 12.1357C14.9459 11.928 14.8637 11.8154 14.8066 11.6265L14.5673 11.6988ZM14.8863 12.279L14.6848 12.4269C14.7242 12.4805 14.7583 12.5378 14.7868 12.5979L15.0127 12.4908L15.2386 12.3836C15.1965 12.2949 15.146 12.2103 15.0879 12.1311L14.8863 12.279ZM15.0127 12.4908L14.7842 12.5923C14.8465 12.7324 14.8321 12.8689 14.7765 12.965C14.7233 13.0571 14.6256 13.1252 14.4798 13.1252V13.3752V13.6252C14.8054 13.6252 15.0674 13.4608 15.2093 13.2154C15.3489 12.9741 15.3653 12.6684 15.2412 12.3892L15.0127 12.4908ZM14.4798 13.3752V13.1252H14.1882V13.3752V13.6252H14.4798V13.3752Z" fill="#00214E"/>
<path d="M12.5631 13.8986C12.471 13.7958 12.3129 13.7871 12.2101 13.8792C12.1073 13.9714 12.0986 14.1294 12.1908 14.2323L12.5631 13.8986ZM12.377 14.0654L12.1908 14.2323C12.5704 14.6559 13.0903 14.9279 13.6548 14.9982L13.6857 14.7501L13.7166 14.5021C13.2719 14.4467 12.8622 14.2323 12.5631 13.8986L12.377 14.0654Z" fill="#00214E"/>
<path d="M11.0591 10.103C11.7126 9.96818 12.3846 9.94907 13.0447 10.0465" stroke="#00214E" stroke-width="0.5" stroke-linecap="round"/>
<path d="M15.2273 10.1105C15.6307 10.0168 16.0466 9.98819 16.4591 10.0258" stroke="#00214E" stroke-width="0.5" stroke-linecap="round"/>
<path d="M19.8064 20.7626C15.0877 24.3959 8.506 24.3668 3.81958 20.692L7.2544 19.0819C7.41798 19.005 7.57498 18.9148 7.72382 18.8123C7.76899 18.7812 7.81417 18.7487 7.85723 18.7148C9.51746 19.8972 11.7883 20.6433 13.7528 19.7603C14.22 19.5485 14.6492 19.2068 14.9033 18.7678L19.8064 20.7626Z" fill="#F2D4CF"/>
<path d="M13.3613 13.1005C13.4842 13.0376 13.5328 12.8869 13.4699 12.764C13.407 12.6411 13.2564 12.5925 13.1335 12.6554L13.3613 13.1005ZM13.2474 12.8779L13.1335 12.6554C12.9184 12.7655 12.8156 13.016 12.8915 13.2454L13.1289 13.1669L13.3662 13.0884C13.3678 13.0931 13.3657 13.0982 13.3613 13.1005L13.2474 12.8779ZM13.1289 13.1669L12.8915 13.2454C12.9674 13.4749 13.1992 13.6147 13.4376 13.5749L13.3963 13.3283L13.3551 13.0817C13.3599 13.0809 13.3647 13.0837 13.3662 13.0884L13.1289 13.1669Z" fill="#00214E"/>
<path d="M12.1533 10.6426C12.5838 10.6461 12.5838 11.304 12.1533 11.3075H12.1335C11.7029 11.304 11.7029 10.6461 12.1335 10.6426H12.1533Z" fill="#00214E"/>
<path d="M15.7011 10.6426C16.1006 10.6426 16.1006 11.2567 15.7011 11.2595H15.6827C15.2832 11.2595 15.2832 10.6454 15.6827 10.6426H15.7011Z" fill="#00214E"/>
<defs>
<linearGradient id="paint0_linear_176_1230" x1="15.9351" y1="22.7228" x2="34.6966" y2="5.27494" gradientUnits="userSpaceOnUse">
<stop stop-color="#315676"/>
<stop offset="1" stop-color="#E1B9E0"/>
</linearGradient>
</defs>
</svg>
