<svg width="32" height="32" viewBox="0 0 32 32" fill="none" xmlns="http://www.w3.org/2000/svg">
<path d="M27.1058 11.855C27.1058 12.5713 26.2898 13.1981 26.1562 13.8758C26.0178 14.5732 26.5326 15.4645 26.2635 16.1063C25.9943 16.7482 24.9985 17.0268 24.6098 17.6066C24.2211 18.1863 24.3491 19.2122 23.8569 19.7082C23.3646 20.2042 22.3406 20.0725 21.7562 20.4612C21.1717 20.8499 20.9091 21.8447 20.255 22.1148C19.6009 22.3849 18.7227 21.8701 18.0244 22.0085C17.3477 22.1421 16.7199 22.9581 16.0037 22.9581C15.2875 22.9581 14.6606 22.1421 13.983 22.0085C13.2856 21.8701 12.3943 22.3849 11.7524 22.1148C11.1105 21.8447 10.8329 20.8499 10.2522 20.4612C9.67146 20.0725 8.64651 20.2014 8.15051 19.7082C7.65451 19.215 7.78628 18.192 7.39757 17.6066C7.00887 17.0212 6.00745 16.7567 5.73734 16.1063C5.46722 15.456 5.98204 14.5732 5.84463 13.8758C5.71004 13.1981 4.89404 12.5713 4.89404 11.855C4.89404 11.1388 5.71004 10.511 5.84463 9.83434C5.98204 9.13693 5.46816 8.24564 5.73734 7.60375C6.00651 6.96187 7.00228 6.68611 7.39098 6.10258C7.77969 5.51905 7.65075 4.50258 8.14393 4.00187C8.6371 3.50117 9.66016 3.63764 10.2456 3.24893C10.831 2.86022 11.0926 1.86634 11.7458 1.59528C12.399 1.32422 13.279 1.84093 13.9764 1.70258C14.654 1.56893 15.2809 0.75293 15.9971 0.75293C16.7133 0.75293 17.3439 1.56516 18.0206 1.69787C18.719 1.83622 19.6093 1.3214 20.2512 1.59058C20.8931 1.85975 21.1717 2.85646 21.7524 3.24516C22.3331 3.63387 23.3524 3.50493 23.8531 3.99811C24.3538 4.49128 24.2183 5.51434 24.606 6.09975C24.9938 6.68517 25.9886 6.94681 26.2597 7.59999C26.5308 8.25317 26.014 9.13316 26.1524 9.83058C26.2898 10.511 27.1058 11.1388 27.1058 11.855Z" fill="url(#paint0_linear_176_1214)"/>
<ellipse cx="11.2001" cy="16.0902" rx="1.6" ry="1.6" fill="#845161"/>
<circle cx="11.7515" cy="15.9961" r="1.50588" fill="#69303A"/>
<path d="M26.4085 27.6837C20.117 32.5281 11.3413 32.4893 5.09277 27.5896L9.67254 25.4428C9.89064 25.3403 10.1 25.22 10.2984 25.0833C10.3587 25.0419 10.4189 24.9986 10.4763 24.9534C10.9747 24.572 11.385 24.0876 11.6791 23.5332C12.0556 22.8226 12.1798 22.0376 12.1855 21.2376C12.1855 21.0739 12.1855 20.9092 12.1798 20.7454C12.1714 20.3689 12.1544 19.9924 12.1507 19.6216C12.1469 19.323 12.1438 19.0246 12.1412 18.7266L12.3295 18.8207L12.8189 19.0739L13.0457 19.1124L15.6697 19.5586L18.5987 20.0574L18.6871 23.0692L18.721 24.2183L18.7304 24.5317V24.5628L19.8692 25.0259L26.4085 27.6837Z" fill="#845161"/>
<path d="M18.7218 24.236L18.5769 24.2511C17.1608 24.3758 15.7613 23.8723 14.7491 22.8741L12.1722 19.8125C12.1637 19.5396 12.1533 19.8125 12.1505 19.5386C12.1468 19.2399 12.1436 18.9416 12.1411 18.6436L12.3293 18.7377L12.8188 18.9908L13.0456 19.0294L15.6696 19.4756L18.5985 19.9744L18.687 22.9861L18.7218 24.236Z" fill="#69303A"/>
<path d="M11.6809 12.8335C11.6065 12.9276 11.5407 13.1159 11.4701 13.4086C11.3072 14.0984 12.0207 18.6274 12.1571 19.961L15.5849 22.4881C16.723 23.3409 18.1784 23.6506 19.5651 23.3352C20.1176 23.2043 20.4677 23.1196 20.7171 22.6763C21.199 21.8293 22.3821 18.9314 22.4592 16.8872C22.4809 16.3074 22.4668 15.4217 22.1091 14.9276C21.935 14.6876 21.8456 14.6829 21.9087 14.3432C21.9736 13.9893 22.0668 13.6401 22.1449 13.2881C22.3604 12.3159 22.5327 11.2175 22.2211 10.25C22.0555 9.73233 21.7628 9.38974 21.3468 9.05656C20.9025 8.7008 20.719 8.71868 20.4527 9.2448C20.2729 9.60244 20.0922 9.90362 19.7279 10.1069C19.1999 10.3996 18.8404 10.2095 18.3162 10.169C17.8569 10.1342 17.9058 10.489 17.8051 10.8231C17.7014 11.1791 17.4758 11.4872 17.1679 11.6937C16.5966 12.0649 15.8614 12.0693 15.2856 11.705C15.2075 11.649 15.1134 11.6196 15.0174 11.6213C14.703 11.6382 14.6889 12.0156 14.6174 12.2867C14.4658 12.8514 13.8061 13.1639 13.2197 13.1177C12.2635 13.0472 11.9228 12.5144 11.6809 12.8335Z" fill="#845161"/>
<path d="M19.4231 15.598L19.1824 15.6658L19.1838 15.6703L19.4231 15.598ZM19.8485 16.3717L19.6436 16.515L19.647 16.5196L19.8485 16.3717ZM20.017 16.654L20.2455 16.5524L20.2429 16.5469L20.017 16.654ZM18.9177 17.5833C18.7797 17.5833 18.6677 17.6952 18.6677 17.8333C18.6677 17.9714 18.7797 18.0833 18.9177 18.0833V17.5833ZM19.2349 14.5166L18.9855 14.5342C19.0125 14.9171 19.0785 15.2962 19.1825 15.6658L19.4231 15.598L19.6638 15.5303C19.569 15.1935 19.5089 14.848 19.4843 14.499L19.2349 14.5166ZM19.4231 15.598L19.1838 15.6703C19.2914 16.0265 19.4596 16.2516 19.6437 16.5149L19.8485 16.3717L20.0534 16.2284C19.8611 15.9533 19.7431 15.7926 19.6625 15.5257L19.4231 15.598ZM19.8485 16.3717L19.647 16.5196C19.7026 16.5953 19.7509 16.6762 19.7911 16.7611L20.017 16.654L20.2429 16.5469C20.189 16.4333 20.1245 16.3251 20.0501 16.2238L19.8485 16.3717ZM20.017 16.654L19.7886 16.7555C19.8819 16.9655 19.8624 17.1758 19.7743 17.3281C19.6885 17.4764 19.5309 17.5833 19.3064 17.5833V17.8333V18.0833C19.7107 18.0833 20.0326 17.8801 20.2071 17.5785C20.3792 17.2809 20.4006 16.9016 20.2455 16.5525L20.017 16.654ZM19.3064 17.8333V17.5833H18.9177V17.8333V18.0833H19.3064V17.8333Z" fill="#00214E"/>
<path d="M16.6889 18.588C16.5967 18.4852 16.4387 18.4766 16.3358 18.5687C16.233 18.6608 16.2244 18.8189 16.3165 18.9217L16.6889 18.588ZM16.5027 18.7549L16.3165 18.9217C16.8092 19.4715 17.4841 19.8246 18.2167 19.9159L18.2476 19.6678L18.2785 19.4197C17.6656 19.3434 17.101 19.048 16.6889 18.588L16.5027 18.7549Z" fill="#00214E"/>
<path d="M14.7454 13.4713C15.6167 13.2916 16.5128 13.2661 17.3929 13.396" stroke="#00214E" stroke-width="0.5" stroke-linecap="round"/>
<path d="M20.303 13.4811C20.8409 13.356 21.3954 13.3179 21.9453 13.3681" stroke="#00214E" stroke-width="0.5" stroke-linecap="round"/>
<path d="M26.4085 27.6835C20.117 32.5278 11.3413 32.4891 5.09277 27.5894L9.67254 25.4425C9.89064 25.34 10.1 25.2198 10.2984 25.083C10.3587 25.0416 10.4189 24.9983 10.4763 24.9531C12.6899 26.5296 15.7177 27.5244 18.337 26.347C18.9601 26.0647 19.5323 25.6091 19.8711 25.0237L26.4085 27.6835Z" fill="#F2D4CF"/>
<path d="M17.7769 17.3934C17.8998 17.3305 17.9485 17.1799 17.8856 17.057C17.8226 16.9341 17.672 16.8854 17.5491 16.9484L17.7769 17.3934ZM17.663 17.1709L17.5491 16.9484C17.2989 17.0764 17.1794 17.3678 17.2676 17.6347L17.505 17.5562L17.7424 17.4777C17.7315 17.445 17.7462 17.4092 17.7769 17.3934L17.663 17.1709ZM17.505 17.5562L17.2676 17.6347C17.3559 17.9016 17.6256 18.0643 17.9028 18.0179L17.8616 17.7714L17.8204 17.5248C17.7863 17.5305 17.7532 17.5105 17.7424 17.4777L17.505 17.5562Z" fill="#00214E"/>
<path d="M16.2043 14.1904C16.7784 14.1951 16.7784 15.0723 16.2043 15.077H16.1779C15.6038 15.0723 15.6038 14.1951 16.1779 14.1904H16.2043Z" fill="#00214E"/>
<path d="M20.9345 14.1904C21.4672 14.1904 21.4672 15.0093 20.9345 15.013H20.91C20.3773 15.013 20.3773 14.1942 20.91 14.1904H20.9345Z" fill="#00214E"/>
<defs>
<linearGradient id="paint0_linear_176_1214" x1="21.2467" y1="30.2975" x2="46.2619" y2="7.03358" gradientUnits="userSpaceOnUse">
<stop stop-color="#315676"/>
<stop offset="1" stop-color="#E1B9E0"/>
</linearGradient>
</defs>
</svg>
