<svg width="12" height="12" viewBox="0 0 12 12" fill="none" xmlns="http://www.w3.org/2000/svg">
<path d="M3.73613 5.42545C3.68071 5.31533 3.62707 5.2038 3.57554 5.09192C3.4746 4.87309 3.38001 4.64898 3.33766 4.4118C3.20036 3.64662 3.59601 2.81227 4.16389 2.32168C4.97213 1.62392 6.11707 1.36027 7.00754 0.741211C6.95818 1.04551 6.79553 1.31988 6.55224 1.50921C6.96907 1.18803 8.21107 1.71709 8.5993 1.91545C9.24303 2.23955 9.79007 2.72744 10.1854 3.33003C9.7663 3.15965 9.31006 3.10127 8.86154 3.16062C9.21024 3.49839 9.57307 3.85874 9.70507 4.32533C9.0793 3.87427 8.08013 4.09133 7.69895 4.76368C7.45436 5.19427 7.45789 5.71874 7.31071 6.19203C7.15542 6.69321 6.73648 7.01156 6.24377 7.14498C5.87248 7.24662 5.14189 7.29251 4.80554 7.07439C4.70354 7.00839 4.62907 6.90745 4.5606 6.80792C4.25313 6.36736 3.9776 5.90536 3.73613 5.42545Z" fill="#00214E"/>
<ellipse cx="4.12563" cy="5.56582" rx="0.6" ry="0.6" fill="#845161"/>
<ellipse cx="4.33228" cy="5.53053" rx="0.564706" ry="0.564706" fill="#69303A"/>
<path d="M9.82862 9.9146C7.46927 11.7312 4.17841 11.7167 1.83521 9.87931L3.55262 9.07425C3.63441 9.0358 3.71291 8.99071 3.78732 8.93943C3.80991 8.9239 3.8325 8.90766 3.85403 8.89072C4.04094 8.74771 4.1948 8.56604 4.30509 8.35813C4.44626 8.09166 4.49285 7.79731 4.49497 7.49731C4.49497 7.39813 4.49285 7.29861 4.49003 7.19908C4.48721 7.09955 4.48297 6.99402 4.48191 6.89131C4.4805 6.77955 4.47932 6.66766 4.47838 6.55566L4.54897 6.59096L4.7325 6.6859L4.81756 6.70037L5.80156 6.86766L6.89991 7.05472L6.93309 8.18413L6.94685 8.65319L6.94932 8.73261V8.74425L7.37638 8.9179L9.82862 9.9146Z" fill="#845161"/>
<path d="M6.94628 8.65089L6.89193 8.65653C6.36077 8.7031 5.83597 8.51406 5.45652 8.13948L4.49016 6.96277C4.48699 6.86042 4.4831 6.99206 4.48205 6.88936C4.48063 6.77759 4.47946 6.66571 4.47852 6.55371L4.5491 6.58901L4.73263 6.68395L4.81769 6.69842L5.80169 6.86571L6.90004 7.05277L6.93322 8.18218L6.94628 8.65089Z" fill="#69303A"/>
<path d="M4.43105 4.44596C4.32099 4.5433 4.25021 4.67745 4.232 4.82325C4.15823 5.51255 4.41341 6.32608 4.48435 7.01643L5.76976 7.96443C6.1969 8.2835 6.74262 8.39887 7.26235 8.27996C7.46952 8.2309 7.60082 8.19914 7.69435 8.0329C7.87505 7.71525 8.3187 6.62855 8.34764 5.86196C8.35576 5.6442 8.35047 5.31243 8.21635 5.12714C8.15105 5.03714 8.11752 5.03502 8.14117 4.90796C8.16552 4.77525 8.20047 4.64396 8.22976 4.51231C8.27231 4.32189 8.28423 4.1259 8.26505 3.93172C8.24564 3.75525 8.24635 3.59855 8.22764 3.4189C8.21847 3.33172 8.17964 2.9502 8.17964 2.9502C7.95552 3.28761 7.55105 3.46478 7.17694 3.58125C6.668 3.73937 6.13823 3.81667 5.62223 3.94937C5.28023 4.03867 4.72717 4.16572 4.43105 4.44596Z" fill="#845161"/>
<path d="M5.95618 4.97852C6.17147 4.98028 6.17147 5.30957 5.95618 5.31134H5.94665C5.731 5.30957 5.731 4.98028 5.94665 4.97852H5.95618Z" fill="#00214E"/>
<path d="M7.81587 4.87793C8.01599 4.87793 8.01599 5.18499 7.81587 5.18675H7.80705C7.60729 5.18499 7.60729 4.87934 7.80705 4.87793H7.81587Z" fill="#00214E"/>
<path d="M6.18853 6.49776C6.1517 6.45661 6.08848 6.45311 6.04732 6.48994C6.00617 6.52677 6.00267 6.58999 6.0395 6.63114L6.18853 6.49776ZM6.11401 6.56445L6.0395 6.63114C6.22518 6.83861 6.47981 6.97169 6.75615 7.0057L6.76837 6.90645L6.78058 6.8072C6.55229 6.7791 6.34193 6.66916 6.18853 6.49776L6.11401 6.56445Z" fill="#00214E"/>
<path d="M5.43477 4.48557C5.38069 4.49678 5.34595 4.54971 5.35716 4.60379C5.36838 4.65787 5.42131 4.69262 5.47538 4.6814L5.43477 4.48557ZM5.45508 4.58349L5.47538 4.6814C5.79056 4.61604 6.11481 4.60682 6.43319 4.65416L6.4479 4.55525L6.46261 4.45634C6.12095 4.40553 5.773 4.41543 5.43477 4.48557L5.45508 4.58349Z" fill="#00214E"/>
<path d="M7.51655 4.48813C7.46274 4.50057 7.4292 4.55427 7.44163 4.60808C7.45406 4.66189 7.50776 4.69543 7.56158 4.683L7.51655 4.48813ZM7.53906 4.58557L7.56158 4.683C7.75306 4.63876 7.95034 4.62508 8.1461 4.64247L8.15494 4.54286L8.16379 4.44325C7.94703 4.42399 7.72858 4.43914 7.51655 4.48813L7.53906 4.58557Z" fill="#00214E"/>
<path d="M9.82862 9.91451C7.46927 11.7311 4.17841 11.7166 1.83521 9.87921L3.55262 9.07415C3.63441 9.03571 3.71291 8.99061 3.78732 8.93933C3.80991 8.9238 3.8325 8.90757 3.85403 8.89062C4.6852 9.48215 5.81956 9.85521 6.80073 9.41368C7.03438 9.3078 7.24897 9.13698 7.37603 8.91745L9.82862 9.91451Z" fill="#E9E9E9"/>
<path d="M6.59479 6.05972C6.64395 6.03456 6.66341 5.9743 6.63825 5.92514C6.61308 5.87598 6.55283 5.85652 6.50367 5.88169L6.59479 6.05972ZM6.54923 5.9707L6.50367 5.88169C6.40708 5.93112 6.36096 6.04359 6.39503 6.1466L6.48997 6.1152L6.58492 6.0838C6.58182 6.07444 6.58601 6.06421 6.59479 6.05972L6.54923 5.9707ZM6.48997 6.1152L6.39503 6.1466C6.4291 6.24961 6.53318 6.31241 6.6402 6.29451L6.6237 6.19588L6.6072 6.09725C6.59747 6.09888 6.58801 6.09317 6.58492 6.0838L6.48997 6.1152Z" fill="#00214E"/>
<path d="M7.18978 4.92008C7.17585 4.86664 7.12123 4.83461 7.06779 4.84855C7.01435 4.86248 6.98232 4.9171 6.99625 4.97054L7.18978 4.92008ZM7.33761 5.95367L7.24034 5.97775L7.24227 5.98385L7.33761 5.95367ZM7.34819 6.04967L7.44722 6.06515L7.44782 6.05834L7.34819 6.04967ZM7.09302 4.94531L6.99625 4.97054C7.08422 5.30793 7.15575 5.63535 7.24054 5.9777L7.33761 5.95367L7.43467 5.92963C7.35216 5.59645 7.27758 5.25681 7.18978 4.92008L7.09302 4.94531ZM7.33761 5.95367L7.24227 5.98385C7.24811 6.00229 7.25025 6.02171 7.24857 6.04099L7.34819 6.04967L7.44782 6.05834C7.45178 6.01285 7.44672 5.96702 7.43294 5.92349L7.33761 5.95367ZM7.34819 6.04967L7.24939 6.03422C7.24821 6.04177 7.24335 6.05427 7.21517 6.07055C7.18607 6.08737 7.14542 6.09994 7.10041 6.1097L7.12161 6.20743L7.1428 6.30516C7.19379 6.2941 7.25884 6.27631 7.31525 6.24372C7.37256 6.21059 7.433 6.15462 7.44699 6.06511L7.34819 6.04967Z" fill="#00214E"/>
</svg>
