<svg width="16" height="16" viewBox="0 0 16 16" fill="none" xmlns="http://www.w3.org/2000/svg">
<path d="M4.98158 7.23393C4.9077 7.0871 4.83617 6.9384 4.76747 6.78922C4.63288 6.49746 4.50676 6.19863 4.45029 5.8824C4.26723 4.86216 4.79476 3.74969 5.55194 3.09558C6.62958 2.16522 8.15617 1.81369 9.34347 0.988281C9.27766 1.39402 9.06079 1.75984 8.73641 2.01228C9.29217 1.58405 10.9482 2.28946 11.4658 2.55393C12.3241 2.98607 13.0535 3.63658 13.5806 4.44005C13.0218 4.21287 12.4135 4.13503 11.8155 4.21416C12.2804 4.66452 12.7642 5.14499 12.9402 5.76711C12.1058 5.16569 10.7736 5.4551 10.2653 6.35158C9.93923 6.92569 9.94394 7.62499 9.7477 8.25605C9.54064 8.92428 8.98205 9.34875 8.32511 9.52663C7.83005 9.66216 6.85594 9.72334 6.40747 9.43252C6.27147 9.34452 6.17217 9.20993 6.08088 9.07722C5.67092 8.48982 5.30355 7.87381 4.98158 7.23393Z" fill="#00214E"/>
<ellipse cx="5.50068" cy="7.42109" rx="0.8" ry="0.8" fill="#845161"/>
<ellipse cx="5.77638" cy="7.37404" rx="0.752941" ry="0.752941" fill="#69303A"/>
<path d="M13.1049 13.2198C9.95911 15.642 5.5713 15.6226 2.44702 13.1727L4.7369 12.0993C4.84596 12.0481 4.95062 11.9879 5.04984 11.9196C5.07996 11.8989 5.11008 11.8772 5.13879 11.8546C5.388 11.6639 5.59314 11.4217 5.7402 11.1445C5.92843 10.7892 5.99055 10.3967 5.99337 9.99674C5.99337 9.8645 5.99055 9.7318 5.98679 9.59909C5.98302 9.46639 5.97737 9.32568 5.97596 9.18874C5.97408 9.03972 5.97251 8.89054 5.97126 8.74121L6.06537 8.78827L6.31008 8.91486L6.42349 8.93415L7.73549 9.15721L9.19996 9.40662L9.2442 10.9125L9.26255 11.5379L9.26584 11.6438V11.6593L9.83526 11.8909L13.1049 13.2198Z" fill="#845161"/>
<path d="M9.26154 11.5345L9.18907 11.542C8.48087 11.6041 7.78112 11.3521 7.27519 10.8526L5.98672 9.28369C5.98249 9.14722 5.97731 9.32275 5.9759 9.18581C5.97401 9.03679 5.97245 8.88761 5.97119 8.73828L6.06531 8.78534L6.31001 8.91193L6.42343 8.93122L7.73543 9.15428L9.1999 9.40369L9.24413 10.9096L9.26154 11.5345Z" fill="#69303A"/>
<path d="M5.90832 5.92892C5.76156 6.05871 5.66719 6.23758 5.6429 6.43198C5.54455 7.35104 5.88479 8.43575 5.97938 9.35622L7.69326 10.6202C8.26278 11.0456 8.99041 11.1995 9.68338 11.0409C9.95961 10.9755 10.1347 10.9332 10.2594 10.7115C10.5003 10.288 11.0918 8.83904 11.1304 7.81692C11.1413 7.52657 11.1342 7.08422 10.9554 6.83716C10.8683 6.71716 10.8236 6.71434 10.8551 6.54492C10.8876 6.36798 10.9342 6.19292 10.9733 6.01739C11.03 5.7635 11.0459 5.50218 11.0203 5.24328C10.9944 5.00798 10.9954 4.79904 10.9704 4.55951C10.9582 4.44328 10.9064 3.93457 10.9064 3.93457C10.6076 4.38445 10.0683 4.62069 9.56949 4.77598C8.8909 4.98681 8.18455 5.08986 7.49655 5.26681C7.04055 5.38586 6.30314 5.55528 5.90832 5.92892Z" fill="#845161"/>
<path d="M7.94173 6.6377C8.22879 6.64005 8.22879 7.07911 7.94173 7.08146H7.92903C7.6415 7.07911 7.6415 6.64005 7.92903 6.6377H7.94173Z" fill="#00214E"/>
<path d="M10.4212 6.50391C10.6881 6.50391 10.6881 6.91332 10.4212 6.91567H10.4095C10.1431 6.91332 10.1431 6.50579 10.4095 6.50391H10.4212Z" fill="#00214E"/>
<path d="M8.26387 8.65289C8.20862 8.59116 8.11379 8.58591 8.05206 8.64116C7.99033 8.69641 7.98508 8.79124 8.04033 8.85297L8.26387 8.65289ZM8.1521 8.75293L8.04033 8.85297C8.2906 9.13259 8.63379 9.31196 9.00625 9.35781L9.02457 9.20893L9.04289 9.06005C8.7425 9.02308 8.46572 8.87842 8.26387 8.65289L8.1521 8.75293Z" fill="#00214E"/>
<path d="M7.24298 5.96411C7.16186 5.98094 7.10974 6.06033 7.12656 6.14145C7.14338 6.22257 7.22278 6.27469 7.3039 6.25786L7.24298 5.96411ZM7.27344 6.11099L7.3039 6.25786C7.72222 6.17112 8.15257 6.15888 8.57514 6.22171L8.5972 6.07334L8.61926 5.92497C8.16177 5.85695 7.69586 5.8702 7.24298 5.96411L7.27344 6.11099Z" fill="#00214E"/>
<path d="M10.0185 5.96794C9.93776 5.98659 9.88745 6.06714 9.9061 6.14786C9.92475 6.22857 10.0053 6.27889 10.086 6.26024L10.0185 5.96794ZM10.0522 6.11409L10.086 6.26024C10.3396 6.20164 10.6009 6.18353 10.8601 6.20656L10.8734 6.05715L10.8867 5.90774C10.5959 5.8819 10.3029 5.90222 10.0185 5.96794L10.0522 6.11409Z" fill="#00214E"/>
<path d="M13.1049 13.2197C9.95911 15.6418 5.5713 15.6225 2.44702 13.1726L4.7369 12.0992C4.84596 12.0479 4.95062 11.9878 5.04984 11.9194C5.07996 11.8987 5.11008 11.8771 5.13879 11.8545C6.24702 12.6432 7.75949 13.1406 9.06773 12.5519C9.37926 12.4107 9.66537 12.183 9.83479 11.8903L13.1049 13.2197Z" fill="#E9E9E9"/>
<path d="M8.80049 8.09446C8.87423 8.05672 8.90341 7.96634 8.86567 7.89259C8.82792 7.81885 8.73754 7.78967 8.6638 7.82741L8.80049 8.09446ZM8.73214 7.96094L8.6638 7.82741C8.5277 7.89707 8.46272 8.05555 8.51072 8.2007L8.65313 8.1536L8.79555 8.1065C8.794 8.10182 8.7961 8.09671 8.80049 8.09446L8.73214 7.96094ZM8.65313 8.1536L8.51072 8.2007C8.55873 8.34586 8.70539 8.43434 8.85618 8.40912L8.83144 8.26117L8.80669 8.11323C8.80183 8.11404 8.7971 8.11119 8.79555 8.1065L8.65313 8.1536Z" fill="#00214E"/>
<path d="M9.60267 6.55688C9.58177 6.47672 9.49984 6.42868 9.41967 6.44958C9.33951 6.47048 9.29147 6.55241 9.31237 6.63257L9.60267 6.55688ZM9.78364 7.9392L9.63774 7.97533L9.64063 7.98447L9.78364 7.9392ZM9.79775 8.0672L9.9463 8.09042L9.94719 8.08021L9.79775 8.0672ZM9.45752 6.59473L9.31237 6.63257C9.42968 7.08247 9.5248 7.51802 9.63804 7.97526L9.78364 7.9392L9.92924 7.90314C9.81941 7.45967 9.71972 7.0058 9.60267 6.55688L9.45752 6.59473ZM9.78364 7.9392L9.64063 7.98447C9.64776 8.00697 9.65037 8.03066 9.64832 8.05418L9.79775 8.0672L9.94719 8.08021C9.95266 8.01737 9.94568 7.95407 9.92664 7.89393L9.78364 7.9392ZM9.79775 8.0672L9.64956 8.04402C9.64905 8.04727 9.6472 8.06031 9.61205 8.08062C9.57553 8.10173 9.52337 8.11805 9.46384 8.13096L9.49564 8.27755L9.52743 8.42414C9.59591 8.40929 9.68468 8.38514 9.76216 8.34036C9.84101 8.29479 9.92623 8.21653 9.94595 8.09037L9.79775 8.0672Z" fill="#00214E"/>
</svg>
