<svg width="20" height="20" viewBox="0 0 20 20" fill="none" xmlns="http://www.w3.org/2000/svg">
<path d="M6.22704 9.04241C6.13469 8.85888 6.04528 8.673 5.95939 8.48653C5.79116 8.12182 5.63351 7.74829 5.56292 7.353C5.3341 6.0777 5.99351 4.68712 6.93998 3.86947C8.28704 2.70653 10.1953 2.26712 11.6794 1.23535C11.5971 1.74252 11.326 2.1998 10.9206 2.51535C11.6153 1.98006 13.6853 2.86182 14.3323 3.19241C15.4052 3.73259 16.3169 4.54573 16.9759 5.55006C16.2773 5.26609 15.5169 5.16878 14.7694 5.2677C15.3506 5.83065 15.9553 6.43123 16.1753 7.20888C15.1323 6.45712 13.467 6.81888 12.8317 7.93947C12.4241 8.65712 12.43 9.53123 12.1847 10.3201C11.9259 11.1554 11.2276 11.6859 10.4065 11.9083C9.78763 12.0777 8.56998 12.1542 8.00939 11.7906C7.83939 11.6806 7.71528 11.5124 7.60116 11.3465C7.08871 10.6123 6.6295 9.84226 6.22704 9.04241Z" fill="#00214E"/>
<ellipse cx="6.87598" cy="9.27539" rx="1" ry="1" fill="#845161"/>
<ellipse cx="7.22047" cy="9.21657" rx="0.941177" ry="0.941177" fill="#69303A"/>
<path d="M16.3812 16.525C12.449 19.5527 6.96419 19.5285 3.05884 16.4662L5.92119 15.1244C6.05751 15.0603 6.18834 14.9852 6.31237 14.8997C6.35001 14.8738 6.38766 14.8468 6.42354 14.8185C6.73507 14.5802 6.99149 14.2774 7.17531 13.9309C7.4106 13.4868 7.48825 12.9962 7.49178 12.4962C7.49178 12.3309 7.48825 12.165 7.48354 11.9991C7.47884 11.8332 7.47178 11.6573 7.47001 11.4862C7.46766 11.2999 7.4657 11.1134 7.46413 10.9268L7.58178 10.9856L7.88766 11.1438L8.02943 11.1679L9.66943 11.4468L11.5 11.7585L11.5553 13.6409L11.5782 14.4226L11.5824 14.555V14.5744L12.2941 14.8638L16.3812 16.525Z" fill="#845161"/>
<path d="M11.5771 14.4181L11.4865 14.4276C10.6012 14.5052 9.72653 14.1901 9.09411 13.5658L7.48352 11.6046C7.47823 11.434 7.47176 11.6534 7.46999 11.4823C7.46764 11.296 7.46568 11.1095 7.46411 10.9229L7.58176 10.9817L7.88764 11.1399L8.02941 11.164L9.66941 11.4429L11.5 11.7546L11.5553 13.637L11.5771 14.4181Z" fill="#69303A"/>
<path d="M7.38533 7.41091C7.20189 7.57314 7.08392 7.79673 7.05357 8.03973C6.93063 9.18856 7.35592 10.5444 7.47416 11.695L9.61651 13.275C10.3284 13.8068 11.2379 13.9991 12.1042 13.8009C12.4495 13.7191 12.6683 13.6662 12.8242 13.3891C13.1253 12.8597 13.8647 11.0486 13.913 9.77091C13.9265 9.40797 13.9177 8.85503 13.6942 8.5462C13.5853 8.3962 13.5295 8.39267 13.5689 8.18091C13.6095 7.95973 13.6677 7.74091 13.7165 7.5215C13.7874 7.20413 13.8073 6.87748 13.7753 6.55385C13.743 6.25973 13.7442 5.99856 13.713 5.69915C13.6977 5.55385 13.633 4.91797 13.633 4.91797C13.2595 5.48032 12.5853 5.77562 11.9618 5.96973C11.1136 6.23326 10.2306 6.36209 9.37063 6.58326C8.80063 6.73209 7.87886 6.94385 7.38533 7.41091Z" fill="#845161"/>
<path d="M9.92704 8.29688C10.2859 8.29982 10.2859 8.84864 9.92704 8.85158H9.91116C9.55175 8.84864 9.55175 8.29982 9.91116 8.29688H9.92704Z" fill="#00214E"/>
<path d="M13.0264 8.12891C13.3599 8.12891 13.3599 8.64067 13.0264 8.64361H13.0117C12.6787 8.64067 12.6787 8.13126 13.0117 8.12891H13.0264Z" fill="#00214E"/>
<path d="M10.339 10.808C10.2653 10.7257 10.1389 10.7187 10.0566 10.7924C9.97425 10.866 9.96725 10.9925 10.0409 11.0748L10.339 10.808ZM10.1899 10.9414L10.0409 11.0748C10.3558 11.4266 10.7875 11.6522 11.2561 11.7099L11.2805 11.5114L11.305 11.3129C10.9325 11.2671 10.5893 11.0877 10.339 10.808L10.1899 10.9414Z" fill="#00214E"/>
<path d="M9.05119 7.44266C8.94303 7.46509 8.87353 7.57095 8.89596 7.6791C8.91839 7.78726 9.02425 7.85676 9.13241 7.83433L9.05119 7.44266ZM9.0918 7.63849L9.13241 7.83433C9.65387 7.72619 10.1903 7.71093 10.7171 7.78926L10.7465 7.59143L10.7759 7.39361C10.2026 7.30836 9.61873 7.32496 9.05119 7.44266L9.0918 7.63849Z" fill="#00214E"/>
<path d="M12.5202 7.44775C12.4125 7.47261 12.3455 7.58002 12.3703 7.68764C12.3952 7.79526 12.5026 7.86234 12.6102 7.83748L12.5202 7.44775ZM12.5652 7.64261L12.6102 7.83748C12.9259 7.76453 13.2512 7.74197 13.574 7.77065L13.5917 7.57144L13.6094 7.37222C13.2446 7.33981 12.877 7.3653 12.5202 7.44775L12.5652 7.64261Z" fill="#00214E"/>
<path d="M16.3812 16.5248C12.449 19.5526 6.96419 19.5283 3.05884 16.466L5.92119 15.1242C6.05751 15.0602 6.18834 14.985 6.31237 14.8995C6.35001 14.8737 6.38766 14.8466 6.42354 14.8184C7.80884 15.8042 9.69943 16.426 11.3347 15.6901C11.7241 15.5137 12.0818 15.2289 12.2935 14.8631L16.3812 16.5248Z" fill="#E9E9E9"/>
<path d="M11.0292 10.1737C11.1521 10.1108 11.2008 9.96017 11.1378 9.83726C11.0749 9.71436 10.9243 9.66572 10.8014 9.72863L11.0292 10.1737ZM10.9153 9.95117L10.8014 9.72863C10.6038 9.82975 10.5095 10.0598 10.5792 10.2705L10.8165 10.192L11.0539 10.1135C11.0616 10.1369 11.0512 10.1625 11.0292 10.1737L10.9153 9.95117ZM10.8165 10.192L10.5792 10.2705C10.6489 10.4812 10.8618 10.6097 11.0807 10.573L11.0394 10.3265L10.9982 10.0799C11.0225 10.0758 11.0462 10.0901 11.0539 10.1135L10.8165 10.192Z" fill="#00214E"/>
<path d="M12.0153 8.1927C11.9874 8.08582 11.8782 8.02177 11.7713 8.04963C11.6644 8.0775 11.6004 8.18674 11.6282 8.29362L12.0153 8.1927ZM12.2294 9.92375L12.0349 9.97193L12.0388 9.98411L12.2294 9.92375ZM12.2471 10.0838L12.4451 10.1147L12.4463 10.1011L12.2471 10.0838ZM11.8218 8.24316L11.6282 8.29362C11.7749 8.85604 11.8936 9.39971 12.0353 9.97183L12.2294 9.92375L12.4236 9.87567C12.2864 9.32192 12.1616 8.75382 12.0153 8.1927L11.8218 8.24316ZM12.2294 9.92375L12.0388 9.98411C12.0472 10.0107 12.0502 10.0386 12.0478 10.0664L12.2471 10.0838L12.4463 10.1011C12.4533 10.0209 12.4444 9.94013 12.4201 9.86339L12.2294 9.92375ZM12.2471 10.0838L12.0495 10.0529C12.0491 10.0551 12.0486 10.0572 12.0449 10.0618C12.0401 10.0677 12.0295 10.0777 12.0087 10.0897C11.9647 10.1151 11.9011 10.1352 11.827 10.1512L11.8694 10.3467L11.9118 10.5421C11.9978 10.5235 12.1103 10.493 12.2088 10.436C12.3092 10.378 12.4192 10.2775 12.4447 10.1146L12.2471 10.0838Z" fill="#00214E"/>
</svg>
