<svg width="24" height="24" viewBox="0 0 24 24" fill="none" xmlns="http://www.w3.org/2000/svg">
<path d="M7.4725 10.8509C7.36167 10.6307 7.25438 10.4076 7.15132 10.1838C6.94944 9.74619 6.76026 9.29795 6.67556 8.8236C6.40097 7.29325 7.19226 5.62454 8.32803 4.64336C9.9445 3.24783 12.2344 2.72054 14.0153 1.48242C13.9166 2.09103 13.5913 2.63976 13.1047 3.01842C13.9384 2.37607 16.4224 3.43419 17.1988 3.83089C18.4863 4.4791 19.5804 5.45487 20.3711 6.66007C19.5328 6.3193 18.6204 6.20254 17.7233 6.32125C18.4207 6.99678 19.1464 7.71748 19.4104 8.65066C18.1588 7.74854 16.1605 8.18266 15.3981 9.52736C14.909 10.3885 14.916 11.4375 14.6217 12.3841C14.3111 13.3864 13.4732 14.0231 12.4878 14.29C11.7452 14.4932 10.284 14.585 9.61132 14.1488C9.40732 14.0168 9.25838 13.8149 9.12144 13.6158C8.5065 12.7347 7.95545 11.8107 7.4725 10.8509Z" fill="#00214E"/>
<ellipse cx="8.25103" cy="11.1307" rx="1.2" ry="1.2" fill="#845161"/>
<ellipse cx="8.66481" cy="11.0601" rx="1.12941" ry="1.12941" fill="#69303A"/>
<path d="M19.6575 19.8292C14.9388 23.4625 8.35707 23.4334 3.67065 19.7586L7.10548 18.1485C7.26906 18.0716 7.42605 17.9814 7.57489 17.8789C7.62007 17.8478 7.66524 17.8153 7.7083 17.7814C8.08213 17.4954 8.38984 17.1321 8.61042 16.7163C8.89277 16.1833 8.98595 15.5946 8.99018 14.9946C8.99018 14.7963 8.98595 14.5972 8.9803 14.3982C8.97465 14.1991 8.96618 13.988 8.96407 13.7826C8.96124 13.5591 8.95889 13.3353 8.95701 13.1113L9.09818 13.1819L9.46524 13.3718L9.63536 13.4007L11.6034 13.7353L13.8001 14.1094L13.8664 16.3683L13.8939 17.3064L13.8989 17.4652V17.4885L14.753 17.8358L19.6575 19.8292Z" fill="#845161"/>
<path d="M13.8926 17.3018L13.7839 17.3131C12.7215 17.4062 11.6719 17.0281 10.913 16.279L8.98033 13.9255C8.97397 13.7208 8.96621 13.9841 8.96409 13.7787C8.96127 13.5552 8.95891 13.3314 8.95703 13.1074L9.09821 13.178L9.46527 13.3679L9.63538 13.3968L11.6034 13.7314L13.8001 14.1055L13.8664 16.3644L13.8926 17.3018Z" fill="#69303A"/>
<path d="M8.86235 8.8929C8.64221 9.08758 8.50066 9.35588 8.46424 9.64749C8.31671 11.0261 8.82706 12.6531 8.96894 14.0338L11.5398 15.9298C12.394 16.568 13.4855 16.7987 14.5249 16.5609C14.9393 16.4628 15.2019 16.3993 15.3889 16.0668C15.7504 15.4315 16.6376 13.2581 16.6955 11.7249C16.7118 11.2894 16.7012 10.6258 16.4329 10.2552C16.3024 10.0752 16.2353 10.071 16.2826 9.8169C16.3313 9.55149 16.4012 9.2889 16.4598 9.0256C16.5449 8.64476 16.5687 8.25278 16.5304 7.86443C16.4915 7.51148 16.4929 7.19807 16.4555 6.83878C16.4372 6.66443 16.3595 5.90137 16.3595 5.90137C15.9113 6.57619 15.1024 6.93054 14.3541 7.16348C13.3362 7.47972 12.2767 7.63431 11.2447 7.89972C10.5607 8.07831 9.45459 8.33243 8.86235 8.8929Z" fill="#845161"/>
<path d="M11.9124 9.95605C12.3429 9.95958 12.3429 10.6182 11.9124 10.6217H11.8933C11.462 10.6182 11.462 9.95958 11.8933 9.95605H11.9124Z" fill="#00214E"/>
<path d="M15.6317 9.75488C16.032 9.75488 16.032 10.369 15.6317 10.3725H15.6141C15.2146 10.369 15.2146 9.75771 15.6141 9.75488H15.6317Z" fill="#00214E"/>
<path d="M12.4143 12.9622C12.3222 12.8593 12.1642 12.8505 12.0613 12.9426C11.9584 13.0347 11.9497 13.1928 12.0417 13.2956L12.4143 12.9622ZM12.228 13.1289L12.0417 13.2956C12.4212 13.7196 12.9415 13.9915 13.5062 14.061L13.5367 13.8129L13.5673 13.5648C13.1227 13.5101 12.713 13.296 12.4143 12.9622L12.228 13.1289Z" fill="#00214E"/>
<path d="M10.8594 8.92218C10.7242 8.95022 10.6373 9.08254 10.6654 9.21774C10.6934 9.35293 10.8257 9.4398 10.9609 9.41176L10.8594 8.92218ZM10.9102 9.16697L10.9609 9.41176C11.5855 9.28224 12.2281 9.26396 12.859 9.35778L12.8958 9.1105L12.9326 8.86322C12.2434 8.76075 11.5416 8.78071 10.8594 8.92218L10.9102 9.16697Z" fill="#00214E"/>
<path d="M15.0221 8.92755C14.8876 8.95864 14.8037 9.09289 14.8348 9.22742C14.8659 9.36194 15.0001 9.4458 15.1347 9.41472L15.0221 8.92755ZM15.0784 9.17113L15.1347 9.41472C15.5125 9.32742 15.9017 9.30042 16.288 9.33474L16.3101 9.08572L16.3323 8.8367C15.8935 8.79772 15.4513 8.82838 15.0221 8.92755L15.0784 9.17113Z" fill="#00214E"/>
<path d="M19.6575 19.83C14.9388 23.4633 8.35707 23.4342 3.67065 19.7594L7.10548 18.1493C7.26906 18.0724 7.42605 17.9822 7.57489 17.8796C7.62007 17.8486 7.66524 17.8161 7.7083 17.7822C9.37065 18.9653 11.6394 19.7114 13.6017 18.8283C14.069 18.6166 14.4982 18.2749 14.7523 17.8359L19.6575 19.83Z" fill="#E9E9E9"/>
<path d="M13.2124 12.1639C13.3353 12.101 13.3839 11.9504 13.321 11.8275C13.2581 11.7046 13.1075 11.656 12.9846 11.7189L13.2124 12.1639ZM13.0985 11.9414L12.9846 11.7189C12.7694 11.829 12.6667 12.0795 12.7426 12.3089L12.9799 12.2304L13.2173 12.1519C13.2189 12.1566 13.2168 12.1617 13.2124 12.1639L13.0985 11.9414ZM12.9799 12.2304L12.7426 12.3089C12.8185 12.5383 13.0503 12.6782 13.2886 12.6383L13.2474 12.3918L13.2062 12.1452C13.211 12.1444 13.2158 12.1472 13.2173 12.1519L12.9799 12.2304Z" fill="#00214E"/>
<path d="M14.4279 9.82853C14.3931 9.69492 14.2566 9.61485 14.123 9.64969C13.9894 9.68452 13.9093 9.82107 13.9441 9.95468L14.4279 9.82853ZM14.6752 11.9083L14.4325 11.9684L14.4345 11.9761L14.4369 11.9838L14.6752 11.9083ZM14.6964 12.1003L14.9434 12.1389L14.9447 12.1305L14.9454 12.122L14.6964 12.1003ZM14.186 9.8916L13.9441 9.95468C14.1201 10.6296 14.2624 11.2814 14.4325 11.9684L14.6752 11.9083L14.9179 11.8482C14.7534 11.1842 14.6035 10.5018 14.4279 9.82853L14.186 9.8916ZM14.6752 11.9083L14.4369 11.9838C14.4466 12.0144 14.4501 12.0466 14.4473 12.0786L14.6964 12.1003L14.9454 12.122C14.9539 12.0245 14.9431 11.9262 14.9136 11.8329L14.6752 11.9083ZM14.6964 12.1003L14.4494 12.0617C14.4493 12.0625 14.4495 12.0634 14.4461 12.0676C14.4412 12.0735 14.4295 12.0848 14.4053 12.0988C14.354 12.1285 14.2788 12.1523 14.1902 12.1715L14.2432 12.4158L14.2962 12.6602C14.3997 12.6377 14.5359 12.6008 14.6555 12.5317C14.7774 12.4612 14.9122 12.3384 14.9434 12.1389L14.6964 12.1003Z" fill="#00214E"/>
</svg>
