<svg width="32" height="32" viewBox="0 0 32 32" fill="none" xmlns="http://www.w3.org/2000/svg">
<path d="M9.96341 14.4679C9.81565 14.1742 9.67259 13.8768 9.53518 13.5784C9.266 12.9949 9.01376 12.3973 8.90082 11.7648C8.5347 9.72433 9.58976 7.49939 11.1041 6.19115C13.2594 4.33044 16.3126 3.62739 18.6872 1.97656C18.5556 2.78804 18.1218 3.51967 17.4731 4.02456C18.5846 3.16809 21.8966 4.57892 22.9319 5.10786C24.6485 5.97214 26.1073 7.27316 27.1615 8.88009C26.0439 8.42574 24.8272 8.27005 23.6312 8.42833C24.5611 9.32903 25.5286 10.29 25.8806 11.5342C24.2119 10.3314 21.5474 10.9102 20.5309 12.7032C19.8787 13.8514 19.8881 15.25 19.4956 16.5121C19.0815 17.8486 17.9644 18.6975 16.6505 19.0533C15.6604 19.3243 13.7121 19.4467 12.8152 18.865C12.5432 18.689 12.3446 18.4199 12.162 18.1544C11.3421 16.9796 10.6073 15.7476 9.96341 14.4679Z" fill="#00214E"/>
<ellipse cx="11.0014" cy="14.8412" rx="1.6" ry="1.6" fill="#845161"/>
<ellipse cx="11.553" cy="14.7471" rx="1.50588" ry="1.50588" fill="#69303A"/>
<path d="M26.2098 26.4396C19.9182 31.284 11.1426 31.2452 4.89404 26.3455L9.47381 24.1987C9.69191 24.0961 9.90124 23.9759 10.0997 23.8391C10.1599 23.7977 10.2202 23.7544 10.2776 23.7092C10.776 23.3279 11.1863 22.8434 11.4804 22.289C11.8569 21.5784 11.9811 20.7935 11.9867 19.9935C11.9867 19.729 11.9811 19.4636 11.9736 19.1982C11.966 18.9328 11.9547 18.6514 11.9519 18.3775C11.9482 18.0794 11.945 17.7811 11.9425 17.4824L12.1307 17.5765L12.6202 17.8297L12.847 17.8683L15.471 18.3144L18.3999 18.8132L18.4884 21.825L18.5251 23.0758L18.5317 23.2876V23.3187L19.6705 23.7817L26.2098 26.4396Z" fill="#845161"/>
<path d="M18.5233 23.069L18.3784 23.0841C16.962 23.2083 15.5625 22.7042 14.5506 21.7053L11.9737 18.5674C11.9652 18.2944 11.9549 18.6455 11.952 18.3716C11.9483 18.0736 11.9451 17.7752 11.9426 17.4766L12.1309 17.5707L12.6203 17.8239L12.8471 17.8624L15.4711 18.3086L18.4 18.8074L18.4885 21.8191L18.5233 23.069Z" fill="#69303A"/>
<path d="M11.8164 11.8569C11.5229 12.1164 11.3341 12.4742 11.2856 12.863C11.0889 14.7011 11.7693 16.8705 11.9585 18.7115L15.3863 21.2395C16.5253 22.0903 17.9806 22.398 19.3665 22.0809C19.919 21.95 20.2691 21.8653 20.5185 21.422C21.0004 20.575 22.1834 17.6771 22.2606 15.6329C22.2823 15.0522 22.2682 14.1675 21.9105 13.6733C21.7364 13.4333 21.647 13.4277 21.71 13.0889C21.775 12.735 21.8682 12.3849 21.9463 12.0338C22.0597 11.526 22.0915 11.0034 22.0404 10.4856C21.9886 10.015 21.9905 9.59711 21.9406 9.11805C21.9162 8.88558 21.8126 7.86816 21.8126 7.86816C21.215 8.76793 20.1364 9.2404 19.1387 9.55099C17.7816 9.97263 16.3689 10.1788 14.9929 10.5326C14.0809 10.7708 12.606 11.1096 11.8164 11.8569Z" fill="#845161"/>
<path d="M15.8832 13.2754C16.4573 13.2801 16.4573 14.1582 15.8832 14.1629H15.8578C15.2827 14.1582 15.2827 13.2801 15.8578 13.2754H15.8832Z" fill="#00214E"/>
<path d="M20.8422 13.0068C21.3759 13.0068 21.3759 13.8257 20.8422 13.8304H20.8187C20.286 13.8257 20.286 13.0106 20.8187 13.0068H20.8422Z" fill="#00214E"/>
<path d="M16.4902 17.3391C16.3982 17.2363 16.2401 17.2275 16.1372 17.3196C16.0343 17.4117 16.0256 17.5697 16.1177 17.6726L16.4902 17.3391ZM16.304 17.5059L16.1177 17.6726C16.6101 18.2228 17.2855 18.5758 18.0184 18.666L18.0489 18.4179L18.0794 18.1697C17.4666 18.0943 16.902 17.7992 16.4902 17.3391L16.304 17.5059Z" fill="#00214E"/>
<path d="M14.4961 11.9772C14.3609 12.0052 14.274 12.1375 14.3021 12.2727C14.3301 12.4079 14.4624 12.4948 14.5976 12.4668L14.4961 11.9772ZM14.5469 12.222L14.5976 12.4668C15.44 12.2921 16.3067 12.2674 17.1576 12.394L17.1944 12.1467L17.2312 11.8994C16.322 11.7642 15.3961 11.7905 14.4961 11.9772L14.5469 12.222Z" fill="#00214E"/>
<path d="M20.0482 11.9846C19.9137 12.0157 19.8298 12.1499 19.8609 12.2845C19.892 12.419 20.0262 12.5028 20.1608 12.4718L20.0482 11.9846ZM20.1045 12.2282L20.1608 12.4718C20.6731 12.3534 21.2009 12.3168 21.7247 12.3633L21.7468 12.1143L21.769 11.8653C21.1927 11.8141 20.6119 11.8543 20.0482 11.9846L20.1045 12.2282Z" fill="#00214E"/>
<path d="M26.2098 26.4393C19.9182 31.2837 11.1426 31.2449 4.89404 26.3452L9.47381 24.1984C9.69191 24.0959 9.90124 23.9756 10.0997 23.8389C10.1599 23.7975 10.2202 23.7542 10.2776 23.709C12.494 25.2864 15.519 26.2812 18.1355 25.1038C18.7585 24.8215 19.3307 24.3659 19.6696 23.7805L26.2098 26.4393Z" fill="#E9E9E9"/>
<path d="M17.5784 16.1444C17.7013 16.0815 17.75 15.9309 17.6871 15.808C17.6242 15.6851 17.4735 15.6364 17.3506 15.6993L17.5784 16.1444ZM17.4645 15.9219L17.3506 15.6993C17.1004 15.8274 16.9809 16.1188 17.0692 16.3857L17.3065 16.3072L17.5439 16.2287C17.533 16.1959 17.5477 16.1601 17.5784 16.1444L17.4645 15.9219ZM17.3065 16.3072L17.0692 16.3857C17.1574 16.6526 17.4271 16.8153 17.7044 16.7689L17.6631 16.5223L17.6219 16.2758C17.5878 16.2815 17.5547 16.2615 17.5439 16.2287L17.3065 16.3072Z" fill="#00214E"/>
<path d="M19.1567 13.1254C19.1219 12.9918 18.9853 12.9117 18.8517 12.9466C18.7181 12.9814 18.638 13.1179 18.6729 13.2516L19.1567 13.1254ZM19.567 15.8774L19.3244 15.9375L19.3263 15.9453L19.3287 15.9529L19.567 15.8774ZM19.5953 16.1334L19.8423 16.172L19.8436 16.1636L19.8443 16.1551L19.5953 16.1334ZM18.9148 13.1885L18.6729 13.2516C18.9074 14.1512 19.0985 15.0253 19.3244 15.9375L19.567 15.8774L19.8097 15.8173C19.5895 14.9281 19.3908 14.0234 19.1567 13.1254L18.9148 13.1885ZM19.567 15.8774L19.3287 15.9529C19.3449 16.0042 19.3509 16.0581 19.3462 16.1117L19.5953 16.1334L19.8443 16.1551C19.8547 16.036 19.8415 15.916 19.8054 15.802L19.567 15.8774ZM19.5953 16.1334L19.3483 16.0948C19.344 16.1218 19.3265 16.1587 19.2489 16.2036C19.169 16.2497 19.0586 16.2837 18.938 16.3098L18.991 16.5541L19.044 16.7984C19.1795 16.7691 19.3509 16.7221 19.4991 16.6365C19.6495 16.5495 19.806 16.4039 19.8423 16.172L19.5953 16.1334Z" fill="#00214E"/>
</svg>
