<svg width="12" height="12" viewBox="0 0 12 12" fill="none" xmlns="http://www.w3.org/2000/svg">
<path d="M10.0051 9.49468C7.64579 11.3113 4.35493 11.2968 2.01172 9.45939L3.72913 8.65433C3.81092 8.61588 3.88942 8.57079 3.96384 8.51951C3.98642 8.50398 4.00901 8.48774 4.03054 8.4708C4.21746 8.32779 4.37131 8.14612 4.4816 7.93821C4.56498 7.77847 4.62037 7.60561 4.64537 7.42715C4.6626 7.31136 4.67133 7.19446 4.67148 7.07739C4.67148 6.87551 4.66054 6.67362 4.65842 6.47139C4.65701 6.35939 4.65584 6.24751 4.6549 6.13574L4.72548 6.17104L4.90901 6.26598L4.99407 6.28045L5.97807 6.44774L7.07643 6.6348L7.1096 7.76421L7.12054 8.13339L7.12584 8.31268V8.32433L7.5529 8.49798L10.0051 9.49468Z" fill="#DE8276"/>
<path d="M7.11878 8.25464C6.99748 8.27551 6.87267 8.25618 6.76337 8.19958L4.65737 6.47794C4.6549 6.39817 4.65278 6.48182 4.65172 6.40205C4.65031 6.29005 4.64913 6.17817 4.64819 6.06641L4.71878 6.1017L4.90231 6.19664L4.98737 6.21111L5.97137 6.37841L7.06972 6.56547L7.1029 7.69488L7.11384 8.06405L7.11913 8.24335V8.25499L7.11878 8.25464Z" fill="#A76962"/>
<path d="M8.20589 5.18571C8.15102 5.24311 8.09087 5.29522 8.02625 5.34136C7.65919 5.60713 7.16931 5.6943 6.75072 5.8376C6.57425 5.89795 4.6606 6.44183 4.6606 6.56007C4.6606 6.5343 4.47319 6.3483 4.23707 6.12242C3.42268 5.34243 3.15118 4.15231 3.54672 3.0963C3.93178 2.08442 5.15931 1.38701 6.18742 1.22571C6.67695 1.14912 7.25789 1.10642 7.71001 1.34112C7.94119 1.46148 8.13354 1.63689 8.31001 1.83136C8.36507 1.89277 8.41848 1.95548 8.47025 2.01948C8.49248 2.0463 8.51437 2.07312 8.53589 2.1003C9.33954 3.10971 9.05472 4.29383 8.20589 5.18571Z" fill="url(#paint0_linear_176_1438)"/>
<path d="M8.20583 5.18541C8.15095 5.24281 8.09081 5.29492 8.02618 5.34106C8.01111 5.3148 7.99756 5.2877 7.9856 5.25988C7.89242 5.04812 7.84442 4.81835 7.80912 4.5893C7.75416 4.25595 7.71658 3.91996 7.69654 3.58271C7.66442 3.0413 7.43324 2.77271 7.89312 2.35059C8.05863 2.19892 8.25571 2.08585 8.47018 2.01953C8.49242 2.04635 8.5143 2.07318 8.53583 2.10035C9.33948 3.10941 9.05465 4.29353 8.20583 5.18541Z" fill="url(#paint1_linear_176_1438)"/>
<ellipse cx="4.30776" cy="5.14883" rx="0.6" ry="0.6" fill="#E18477"/>
<ellipse cx="4.49811" cy="5.1485" rx="0.537176" ry="0.537176" fill="#A76962"/>
<path d="M4.54311 4.5801C4.57241 4.96339 4.57135 5.43139 4.58159 5.56834C4.60817 5.91163 4.63453 6.25481 4.66064 6.59786L7.00559 7.96763C7.34214 8.09343 7.71919 7.94294 7.87664 7.61998C8.21406 6.92892 8.75547 5.83763 8.68417 5.43175C8.57829 4.83175 8.29594 4.61998 8.29594 4.61998L8.41347 3.91622C8.53241 3.20081 8.28712 2.52351 7.45135 2.44516C7.27488 2.42892 7.07829 2.46245 6.97347 2.60328C6.69111 2.98304 6.85382 3.45034 6.42994 3.80328C5.91535 4.22786 4.76723 4.41316 4.49829 4.07045C4.49829 4.07045 4.523 4.31292 4.54311 4.5801Z" fill="#DE8276"/>
<path d="M6.37723 6.01044C6.34039 5.9693 6.27717 5.96581 6.23602 6.00265C6.19488 6.03949 6.19139 6.10271 6.22824 6.14386L6.37723 6.01044ZM6.30273 6.07715L6.22824 6.14386C6.41395 6.35126 6.66854 6.48432 6.94485 6.5184L6.95709 6.41915L6.96933 6.3199C6.74103 6.29174 6.53068 6.1818 6.37723 6.01044L6.30273 6.07715Z" fill="#00214E"/>
<path d="M7.60803 5.68533L7.61287 5.78522L7.74988 5.77857L7.70164 5.65017L7.60803 5.68533ZM6.97001 5.61616C6.91485 5.61883 6.8723 5.66572 6.87497 5.72088C6.87765 5.77605 6.92453 5.8186 6.9797 5.81592L6.97001 5.61616ZM7.1365 4.41016L7.03901 4.38787C7.03609 4.40066 7.03643 4.41101 7.03657 4.41438C7.03676 4.41906 7.03724 4.4228 7.03754 4.42494C7.03816 4.42924 7.03894 4.43269 7.03933 4.43436C7.04017 4.43799 7.04112 4.44125 7.04172 4.44329C7.04303 4.44773 7.04472 4.45294 7.04649 4.45822C7.05012 4.46907 7.05533 4.48399 7.06173 4.502C7.0746 4.5382 7.09304 4.58892 7.11511 4.64906C7.15927 4.76943 7.21837 4.92864 7.2775 5.0873C7.33665 5.246 7.39587 5.40429 7.44031 5.52291C7.46253 5.58222 7.48106 5.63161 7.49403 5.66618C7.50051 5.68346 7.50561 5.69704 7.50908 5.7063C7.51082 5.71092 7.51215 5.71447 7.51305 5.71687C7.5135 5.71806 7.51384 5.71897 7.51407 5.71958C7.51419 5.71988 7.51427 5.72011 7.51433 5.72026C7.51436 5.72034 7.51438 5.7204 7.51439 5.72044C7.5144 5.72046 7.51441 5.72047 7.51441 5.72048C7.51441 5.72049 7.51442 5.7205 7.60803 5.68533C7.70164 5.65017 7.70164 5.65016 7.70164 5.65015C7.70163 5.65014 7.70163 5.65013 7.70162 5.65011C7.70161 5.65007 7.70159 5.65002 7.70156 5.64994C7.7015 5.64979 7.70141 5.64956 7.7013 5.64926C7.70107 5.64865 7.70073 5.64775 7.70029 5.64655C7.69939 5.64417 7.69806 5.64062 7.69632 5.636C7.69285 5.62675 7.68776 5.61319 7.68128 5.59592C7.66832 5.56138 7.64981 5.51201 7.6276 5.45274C7.58319 5.33419 7.524 5.17601 7.46491 5.01745C7.40581 4.85887 7.34685 4.70005 7.30287 4.58017C7.28086 4.52018 7.2627 4.47022 7.25017 4.43499C7.24387 4.41729 7.23918 4.40381 7.23617 4.3948C7.23462 4.39016 7.2338 4.38757 7.23349 4.38651C7.23328 4.3858 7.23362 4.38689 7.2341 4.38892C7.2343 4.3898 7.23495 4.3926 7.2355 4.39641C7.23577 4.3983 7.23623 4.40183 7.23641 4.40633C7.23654 4.40953 7.23689 4.41975 7.23399 4.43244L7.1365 4.41016ZM7.60803 5.68533L7.60319 5.58545L6.97001 5.61616L6.97485 5.71604L6.9797 5.81592L7.61287 5.78522L7.60803 5.68533Z" fill="#00214E"/>
<path d="M5.61695 4.06746C5.56287 4.07865 5.52809 4.13156 5.53928 4.18564C5.55047 4.23973 5.60338 4.2745 5.65746 4.26332L5.61695 4.06746ZM5.63721 4.16539L5.65746 4.26332C5.9727 4.19812 6.29694 4.1889 6.61538 4.23607L6.63003 4.13715L6.64469 4.03823C6.30305 3.98762 5.95516 3.99751 5.61695 4.06746L5.63721 4.16539Z" fill="#00214E"/>
<path d="M7.6985 4.07239C7.64471 4.08493 7.61127 4.13869 7.6238 4.19248C7.63633 4.24627 7.6901 4.27971 7.74388 4.26718L7.6985 4.07239ZM7.72119 4.16978L7.74388 4.26718C7.9352 4.2226 8.13241 4.20892 8.32804 4.22667L8.33707 4.12708L8.34611 4.02749C8.12922 4.00781 7.91059 4.02297 7.6985 4.07239L7.72119 4.16978Z" fill="#00214E"/>
<path d="M10.0051 9.49526C7.64579 11.3119 4.35493 11.2974 2.01172 9.45997L3.72913 8.65491C3.81092 8.61646 3.88942 8.57137 3.96384 8.52009C3.98642 8.50456 4.00901 8.48832 4.03054 8.47138C4.21746 8.32837 4.37131 8.1467 4.4816 7.93879C4.56498 7.77905 4.62037 7.60619 4.64537 7.42773C4.67029 7.45189 4.69644 7.47474 4.72372 7.4962C4.94013 7.65623 5.17499 7.78966 5.42325 7.89362C5.54378 7.94389 5.66703 7.98737 5.79242 8.02385C6.17021 8.13401 6.56466 8.17573 6.95713 8.14703C7.01148 8.14279 7.06619 8.1375 7.12054 8.13362L7.12584 8.31291V8.32456L7.5529 8.49821L10.0051 9.49526Z" fill="#00214E"/>
<path d="M6.11815 4.5625C6.33345 4.5625 6.33345 4.89356 6.11815 4.89532H6.10827C5.89262 4.89532 5.89262 4.56426 6.10827 4.5625H6.1178H6.11815Z" fill="#00214E"/>
<path d="M7.88752 4.51367C8.08728 4.51544 8.08728 4.82073 7.88752 4.8225H7.87834C7.67857 4.8225 7.67857 4.51544 7.87834 4.51367H7.88752Z" fill="#00214E"/>
<defs>
<linearGradient id="paint0_linear_176_1438" x1="3.36531" y1="6.56144" x2="9.01166" y2="6.56144" gradientUnits="userSpaceOnUse">
<stop stop-color="#16243F"/>
<stop offset="1" stop-color="#6878B1"/>
</linearGradient>
<linearGradient id="paint1_linear_176_1438" x1="6.69065" y1="4.20302" x2="9.05808" y2="4.87467" gradientUnits="userSpaceOnUse">
<stop stop-color="#16243F"/>
<stop offset="1" stop-color="#6878B1"/>
</linearGradient>
</defs>
</svg>
