<svg width="16" height="16" viewBox="0 0 16 16" fill="none" xmlns="http://www.w3.org/2000/svg">
<path d="M13.3403 12.6593C10.1945 15.0814 5.80665 15.0621 2.68237 12.6122L4.97226 11.5388C5.08131 11.4875 5.18597 11.4274 5.2852 11.359C5.31531 11.3383 5.34543 11.3167 5.37414 11.2941C5.62336 11.1034 5.82849 10.8612 5.97555 10.584C6.08672 10.371 6.16058 10.1405 6.1939 9.90255C6.21688 9.74815 6.22852 9.59229 6.22873 9.43619C6.22873 9.16702 6.21414 8.89784 6.21131 8.62819C6.20943 8.47886 6.20786 8.32968 6.20661 8.18066L6.30073 8.22772L6.54543 8.35431L6.65884 8.37361L7.97084 8.59666L9.43531 8.84608L9.47955 10.352L9.49414 10.8442L9.5012 11.0833V11.0988L10.0706 11.3303L13.3403 12.6593Z" fill="#DE8276"/>
<path d="M9.49187 11.0055C9.33013 11.0334 9.16373 11.0076 9.01799 10.9321L6.20999 8.6366C6.2067 8.53024 6.20387 8.64177 6.20246 8.53542C6.20058 8.38609 6.19901 8.23691 6.19775 8.08789L6.29187 8.13495L6.53658 8.26154L6.64999 8.28083L7.96199 8.50389L9.42646 8.7533L9.4707 10.2592L9.48528 10.7514L9.49234 10.9905V11.006L9.49187 11.0055Z" fill="#A76962"/>
<path d="M10.9413 6.91363C10.8681 6.99016 10.7879 7.05964 10.7017 7.12116C10.2123 7.47552 9.55916 7.59175 9.00104 7.78281C8.76574 7.86328 6.21422 8.58846 6.21422 8.7461C6.21422 8.71175 5.96433 8.46375 5.64951 8.16257C4.56366 7.12259 4.20165 5.53577 4.72904 4.12775C5.24245 2.77857 6.87916 1.84869 8.24998 1.63363C8.90269 1.53151 9.67727 1.47457 10.2801 1.78751C10.5883 1.94799 10.8448 2.18187 11.0801 2.44116C11.1535 2.52304 11.2247 2.60665 11.2937 2.69199C11.3234 2.72775 11.3526 2.76351 11.3813 2.79975C12.4528 4.14563 12.073 5.72446 10.9413 6.91363Z" fill="url(#paint0_linear_176_1422)"/>
<path d="M10.9413 6.91356C10.8681 6.99008 10.7879 7.05956 10.7017 7.12109C10.6816 7.08608 10.6636 7.04994 10.6476 7.01285C10.5234 6.7305 10.4594 6.42415 10.4123 6.11874C10.339 5.67427 10.2889 5.22629 10.2622 4.77662C10.2194 4.05474 9.91115 3.69662 10.5243 3.13379C10.745 2.93156 11.0078 2.7808 11.2937 2.69238C11.3234 2.72815 11.3526 2.76391 11.3813 2.80015C12.4528 4.14556 12.073 5.72438 10.9413 6.91356Z" fill="url(#paint1_linear_176_1422)"/>
<ellipse cx="5.7436" cy="6.86445" rx="0.8" ry="0.8" fill="#E18477"/>
<ellipse cx="5.99773" cy="6.8637" rx="0.716235" ry="0.716235" fill="#A76962"/>
<path d="M6.05732 6.1055C6.09638 6.61656 6.09497 7.24056 6.10862 7.42314C6.14407 7.88087 6.17921 8.33844 6.21403 8.79585L9.34062 10.6222C9.78936 10.7899 10.2921 10.5893 10.502 10.1587C10.9519 9.23726 11.6738 7.7822 11.5787 7.24103C11.4376 6.44103 11.0611 6.15867 11.0611 6.15867L11.2178 5.22032C11.3764 4.26644 11.0493 3.36338 9.93497 3.25891C9.69968 3.23726 9.43756 3.28197 9.29779 3.46973C8.92132 3.97609 9.13826 4.59914 8.57309 5.06973C7.88697 5.63585 6.35615 5.88291 5.99756 5.42597C5.99756 5.42597 6.0305 5.74926 6.05732 6.1055Z" fill="#DE8276"/>
<path d="M8.51555 8.0015C8.46029 7.93978 8.36546 7.93455 8.30374 7.98982C8.24203 8.04508 8.2368 8.13991 8.29206 8.20163L8.51555 8.0015ZM8.40381 8.10156L8.29206 8.20163C8.54237 8.48116 8.88551 8.6605 9.25792 8.70643L9.27628 8.55756L9.29464 8.40869C8.99425 8.37164 8.71746 8.22698 8.51555 8.0015L8.40381 8.10156Z" fill="#00214E"/>
<path d="M10.144 7.58012L10.1513 7.72994L10.3568 7.71998L10.2845 7.52737L10.144 7.58012ZM9.29254 7.47123C9.20979 7.47525 9.14597 7.54558 9.14998 7.62832C9.15399 7.71107 9.22432 7.7749 9.30707 7.77088L9.29254 7.47123ZM9.51533 5.87988L9.36911 5.84646C9.36472 5.86563 9.36524 5.88115 9.36544 5.88619C9.36572 5.89318 9.36644 5.89879 9.3669 5.90197C9.36782 5.90838 9.36897 5.91351 9.36954 5.91594C9.37078 5.92125 9.37214 5.92596 9.37298 5.92879C9.37481 5.935 9.37714 5.94215 9.37951 5.94925C9.3844 5.96388 9.39139 5.98389 9.39994 6.00793C9.41713 6.05627 9.44174 6.12396 9.47116 6.20416C9.53006 6.3647 9.60888 6.577 9.68772 6.78856C9.76658 7.00017 9.84556 7.21124 9.90481 7.3694C9.93444 7.44848 9.95914 7.51434 9.97643 7.56043C9.98508 7.58348 9.99187 7.60158 9.99651 7.61393C9.99883 7.6201 10.0006 7.62483 10.0018 7.62802C10.0024 7.62962 10.0029 7.63083 10.0032 7.63164C10.0033 7.63204 10.0034 7.63235 10.0035 7.63255C10.0035 7.63266 10.0036 7.63273 10.0036 7.63279C10.0036 7.63281 10.0036 7.63283 10.0036 7.63284C10.0036 7.63286 10.0036 7.63286 10.144 7.58012C10.2845 7.52737 10.2845 7.52737 10.2845 7.52735C10.2844 7.52734 10.2844 7.52732 10.2844 7.5273C10.2844 7.52725 10.2844 7.52717 10.2843 7.52707C10.2843 7.52686 10.2842 7.52656 10.284 7.52616C10.2837 7.52535 10.2832 7.52414 10.2827 7.52255C10.2815 7.51937 10.2797 7.51465 10.2774 7.50848C10.2727 7.49615 10.266 7.47807 10.2573 7.45504C10.24 7.40899 10.2153 7.34318 10.1857 7.26415C10.1265 7.10608 10.0476 6.89518 9.96883 6.68379C9.89003 6.47235 9.81143 6.26062 9.7528 6.10083C9.72346 6.02085 9.69927 5.9543 9.6826 5.90741C9.67421 5.88383 9.668 5.86598 9.66403 5.85413C9.66198 5.84799 9.66097 5.84476 9.66063 5.84362C9.66039 5.84279 9.66095 5.8446 9.6617 5.84778C9.66202 5.84916 9.663 5.85343 9.66383 5.85917C9.66424 5.86203 9.66492 5.86735 9.6652 5.87411C9.66539 5.87892 9.66592 5.89426 9.66156 5.91331L9.51533 5.87988ZM10.144 7.58012L10.1368 7.43029L9.29254 7.47123L9.2998 7.62106L9.30707 7.77088L10.1513 7.72994L10.144 7.58012Z" fill="#00214E"/>
<path d="M7.48573 5.40631C7.40461 5.42309 7.35244 5.50246 7.36922 5.58358C7.386 5.66471 7.46537 5.71687 7.54649 5.70009L7.48573 5.40631ZM7.51611 5.5532L7.54649 5.70009C7.96489 5.61356 8.39525 5.60132 8.81789 5.66393L8.83988 5.51555L8.86186 5.36717C8.40441 5.2994 7.9386 5.31265 7.48573 5.40631L7.51611 5.5532Z" fill="#00214E"/>
<path d="M10.2611 5.41363C10.1804 5.43243 10.1303 5.51307 10.1491 5.59375C10.1679 5.67443 10.2485 5.7246 10.3292 5.7058L10.2611 5.41363ZM10.2952 5.55971L10.3292 5.7058C10.5826 5.64677 10.8437 5.62866 11.1028 5.65216L11.1163 5.50277L11.1299 5.35338C10.8389 5.32699 10.5456 5.34733 10.2611 5.41363L10.2952 5.55971Z" fill="#00214E"/>
<path d="M13.3403 12.6591C10.1945 15.0812 5.80665 15.0619 2.68237 12.612L4.97226 11.5386C5.08131 11.4873 5.18597 11.4272 5.2852 11.3588C5.31531 11.3381 5.34543 11.3165 5.37414 11.2939C5.62336 11.1032 5.82849 10.861 5.97555 10.5838C6.08672 10.3708 6.16058 10.1403 6.1939 9.90234C6.22714 9.93455 6.26201 9.96502 6.29837 9.99364C6.58692 10.207 6.90006 10.3849 7.23108 10.5235C7.39178 10.5906 7.55612 10.6485 7.72331 10.6972C8.22703 10.844 8.75296 10.8997 9.27626 10.8614C9.34873 10.8558 9.42167 10.8487 9.49414 10.8435L9.5012 11.0826V11.0981L10.0706 11.3296L13.3403 12.6591Z" fill="#00214E"/>
<path d="M8.15753 6.08301C8.44459 6.08301 8.44459 6.52442 8.15753 6.52677H8.14436C7.85683 6.52677 7.85683 6.08536 8.14436 6.08301H8.15706H8.15753Z" fill="#00214E"/>
<path d="M10.5167 6.01758C10.783 6.01993 10.783 6.42699 10.5167 6.42934H10.5045C10.2381 6.42934 10.2381 6.01993 10.5045 6.01758H10.5167Z" fill="#00214E"/>
<defs>
<linearGradient id="paint0_linear_176_1422" x1="4.48716" y1="8.74794" x2="12.0156" y2="8.74794" gradientUnits="userSpaceOnUse">
<stop stop-color="#16243F"/>
<stop offset="1" stop-color="#6878B1"/>
</linearGradient>
<linearGradient id="paint1_linear_176_1422" x1="8.92103" y1="5.60369" x2="12.0776" y2="6.49924" gradientUnits="userSpaceOnUse">
<stop stop-color="#16243F"/>
<stop offset="1" stop-color="#6878B1"/>
</linearGradient>
</defs>
</svg>
