<svg width="20" height="20" viewBox="0 0 20 20" fill="none" xmlns="http://www.w3.org/2000/svg">
<path d="M16.6754 15.8248C12.7431 18.8525 7.25838 18.8283 3.35303 15.766L6.21538 14.4242C6.3517 14.3601 6.48253 14.285 6.60656 14.1995C6.6442 14.1736 6.68185 14.1466 6.71773 14.1183C7.02926 13.88 7.28568 13.5772 7.4695 13.2307C7.60847 12.9644 7.70078 12.6763 7.74244 12.3789C7.77117 12.1859 7.78572 11.9911 7.78597 11.796C7.78597 11.4595 7.76773 11.123 7.7642 10.786C7.76185 10.5993 7.75989 10.4128 7.75832 10.2266L7.87597 10.2854L8.18185 10.4436L8.32362 10.4677L9.96362 10.7466L11.7942 11.0583L11.8495 12.9407L11.8677 13.556L11.8766 13.8548V13.8742L12.5883 14.1636L16.6754 15.8248Z" fill="#DE8276"/>
<path d="M11.8647 13.7574C11.6625 13.7922 11.4545 13.76 11.2724 13.6656L7.76236 10.7962C7.75825 10.6633 7.75472 10.8027 7.75295 10.6698C7.7506 10.4831 7.74864 10.2966 7.74707 10.1104L7.86472 10.1692L8.1706 10.3274L8.31236 10.3515L9.95236 10.6304L11.783 10.9421L11.8382 12.8245L11.8565 13.4398L11.8653 13.7386V13.758L11.8647 13.7574Z" fill="#A76962"/>
<path d="M13.6764 8.64253C13.5849 8.73818 13.4847 8.82504 13.377 8.90194C12.7652 9.34488 11.9488 9.49018 11.2511 9.729C10.957 9.82959 7.76759 10.7361 7.76759 10.9331C7.76759 10.8902 7.45523 10.5802 7.0617 10.2037C5.70439 8.90373 5.25188 6.9202 5.91112 5.16018C6.55288 3.47371 8.59876 2.31135 10.3123 2.04253C11.1282 1.91488 12.0964 1.84371 12.8499 2.23488C13.2352 2.43547 13.5558 2.72782 13.8499 3.05194C13.9417 3.15429 14.0307 3.2588 14.117 3.36547C14.1541 3.41018 14.1905 3.45488 14.2264 3.50018C15.5658 5.18253 15.0911 7.15606 13.6764 8.64253Z" fill="url(#paint0_linear_176_1406)"/>
<path d="M13.6765 8.64268C13.585 8.73834 13.4848 8.82519 13.3771 8.90209C13.3519 8.85833 13.3293 8.81315 13.3094 8.7668C13.1541 8.41386 13.0741 8.03092 13.0153 7.64915C12.9237 7.09357 12.861 6.5336 12.8276 5.9715C12.7741 5.06915 12.3888 4.62151 13.1553 3.91798C13.4311 3.66519 13.7596 3.47674 14.1171 3.36621C14.1541 3.41092 14.1906 3.45562 14.2265 3.50092C15.5659 5.18268 15.0912 7.15621 13.6765 8.64268Z" fill="url(#paint1_linear_176_1406)"/>
<ellipse cx="7.17944" cy="8.58105" rx="1" ry="1" fill="#E18477"/>
<ellipse cx="7.4971" cy="8.58084" rx="0.895294" ry="0.895294" fill="#A76962"/>
<path d="M7.57178 7.63285C7.6206 8.27167 7.61884 9.05167 7.63589 9.27991C7.68021 9.85206 7.72413 10.424 7.76766 10.9958L11.6759 13.2787C12.2368 13.4884 12.8652 13.2376 13.1277 12.6993C13.69 11.5476 14.5924 9.72873 14.4735 9.05226C14.2971 8.05226 13.8265 7.69932 13.8265 7.69932L14.0224 6.52638C14.2206 5.33403 13.8118 4.2052 12.4188 4.07461C12.1247 4.04755 11.7971 4.10344 11.6224 4.33814C11.1518 4.97108 11.423 5.74991 10.7165 6.33814C9.85884 7.04579 7.94531 7.35461 7.49707 6.78344C7.49707 6.78344 7.53825 7.18755 7.57178 7.63285Z" fill="#DE8276"/>
<path d="M10.6536 9.99451C10.5799 9.91222 10.4535 9.90525 10.3712 9.97893C10.2889 10.0526 10.282 10.1791 10.3556 10.2613L10.6536 9.99451ZM10.5046 10.1279L10.3556 10.2613C10.6705 10.613 11.1022 10.8386 11.5707 10.8964L11.5952 10.6979L11.6197 10.4994C11.2472 10.4535 10.904 10.2741 10.6536 9.99451L10.5046 10.1279Z" fill="#00214E"/>
<path d="M12.68 9.47588L12.6897 9.67564L12.9637 9.66236L12.8673 9.40555L12.68 9.47588ZM11.6151 9.32729C11.5047 9.33264 11.4196 9.42642 11.425 9.53674C11.4303 9.64707 11.5241 9.73217 11.6344 9.72682L11.6151 9.32729ZM11.8942 7.35059L11.6992 7.30602C11.6934 7.33158 11.694 7.35226 11.6943 7.35898C11.6947 7.36829 11.6956 7.37575 11.6962 7.37998C11.6975 7.3885 11.699 7.3953 11.6998 7.3985C11.7014 7.40548 11.7032 7.41165 11.7042 7.41527C11.7066 7.42324 11.7096 7.43235 11.7125 7.44126C11.7187 7.45966 11.7275 7.48476 11.7381 7.51483C11.7597 7.57532 11.7904 7.65998 11.8272 7.76024C11.9009 7.96094 11.9994 8.22635 12.0979 8.4908C12.1965 8.75532 12.2952 9.01917 12.3693 9.21686C12.4063 9.31572 12.4372 9.39804 12.4588 9.45566C12.4696 9.48447 12.4781 9.5071 12.4839 9.52253C12.4868 9.53025 12.4891 9.53617 12.4905 9.54015C12.4913 9.54215 12.4919 9.54366 12.4922 9.54467C12.4924 9.54518 12.4926 9.54556 12.4927 9.54582C12.4927 9.54595 12.4928 9.54604 12.4928 9.54611C12.4928 9.54614 12.4928 9.54617 12.4928 9.54618C12.4928 9.5462 12.4928 9.54621 12.68 9.47588C12.8673 9.40555 12.8673 9.40554 12.8673 9.40553C12.8673 9.40551 12.8673 9.40549 12.8672 9.40546C12.8672 9.40539 12.8672 9.4053 12.8671 9.40517C12.867 9.40492 12.8669 9.40454 12.8667 9.40403C12.8663 9.40302 12.8658 9.40152 12.865 9.39953C12.8635 9.39555 12.8613 9.38965 12.8584 9.38194C12.8526 9.36653 12.8441 9.34393 12.8333 9.31514C12.8117 9.25758 12.7809 9.17531 12.7439 9.07653C12.6699 8.87895 12.5712 8.61534 12.4728 8.35111C12.3742 8.08681 12.276 7.82218 12.2027 7.62246C12.1661 7.5225 12.1358 7.43936 12.115 7.3808C12.1045 7.35135 12.0968 7.32913 12.0919 7.31443C12.0893 7.3068 12.0881 7.30292 12.0878 7.30171C12.0875 7.30075 12.0883 7.30329 12.0893 7.30762C12.0897 7.3095 12.091 7.31523 12.0922 7.32292C12.0927 7.32674 12.0936 7.33384 12.094 7.34287C12.0942 7.3493 12.0949 7.36975 12.0891 7.39515L11.8942 7.35059ZM12.68 9.47588L12.6704 9.27611L11.6151 9.32729L11.6248 9.52706L11.6344 9.72682L12.6897 9.67564L12.68 9.47588Z" fill="#00214E"/>
<path d="M9.35476 6.74711C9.24659 6.76948 9.17704 6.87531 9.19941 6.98347C9.22178 7.09164 9.3276 7.16119 9.43577 7.13882L9.35476 6.74711ZM9.39526 6.94297L9.43577 7.13882C9.95733 7.03095 10.4938 7.01569 11.0207 7.09375L11.05 6.89591L11.0793 6.69807C10.506 6.61313 9.92227 6.62974 9.35476 6.74711L9.39526 6.94297Z" fill="#00214E"/>
<path d="M12.8235 6.75584C12.7159 6.7809 12.649 6.88843 12.6741 6.996C12.6992 7.10358 12.8067 7.17047 12.9143 7.1454L12.8235 6.75584ZM12.8689 6.95062L12.9143 7.1454C13.2297 7.07191 13.5548 7.04937 13.8773 7.07862L13.8954 6.87944L13.9134 6.68026C13.5484 6.64715 13.1805 6.67266 12.8235 6.75584L12.8689 6.95062Z" fill="#00214E"/>
<path d="M16.6754 15.8248C12.7431 18.8525 7.25838 18.8283 3.35303 15.766L6.21538 14.4242C6.3517 14.3601 6.48253 14.285 6.60656 14.1995C6.6442 14.1736 6.68185 14.1466 6.71773 14.1183C7.02926 13.88 7.28568 13.5772 7.4695 13.2307C7.60847 12.9644 7.70078 12.6763 7.74244 12.3789C7.78398 12.4192 7.82757 12.4573 7.87303 12.493C8.23371 12.7597 8.62514 12.9821 9.03891 13.1554C9.23979 13.2392 9.44521 13.3116 9.6542 13.3724C10.2839 13.556 10.9413 13.6256 11.5954 13.5777C11.686 13.5707 11.7771 13.5618 11.8677 13.5554L11.8766 13.8542V13.8736L12.5883 14.163L16.6754 15.8248Z" fill="#00214E"/>
<path d="M10.1972 7.60352C10.556 7.60352 10.556 8.15528 10.1972 8.15822H10.1807C9.82128 8.15822 9.82128 7.60646 10.1807 7.60352H10.1966H10.1972Z" fill="#00214E"/>
<path d="M13.1459 7.52148C13.4788 7.52443 13.4788 8.03325 13.1459 8.03619H13.1306C12.7976 8.03619 12.7976 7.52443 13.1306 7.52148H13.1459Z" fill="#00214E"/>
<defs>
<linearGradient id="paint0_linear_176_1406" x1="5.60876" y1="10.9354" x2="15.0194" y2="10.9354" gradientUnits="userSpaceOnUse">
<stop stop-color="#16243F"/>
<stop offset="1" stop-color="#6878B1"/>
</linearGradient>
<linearGradient id="paint1_linear_176_1406" x1="11.1512" y1="7.00535" x2="15.0969" y2="8.12478" gradientUnits="userSpaceOnUse">
<stop stop-color="#16243F"/>
<stop offset="1" stop-color="#6878B1"/>
</linearGradient>
</defs>
</svg>
