<svg width="24" height="24" viewBox="0 0 24 24" fill="none" xmlns="http://www.w3.org/2000/svg">
<path d="M20.0103 18.9894C15.2916 22.6226 8.70986 22.5936 4.02344 18.9188L7.45826 17.3087C7.62184 17.2318 7.77884 17.1416 7.92767 17.039C7.97285 17.008 8.01803 16.9755 8.06108 16.9416C8.43491 16.6556 8.74262 16.2922 8.9632 15.8764C9.12996 15.5569 9.24074 15.2112 9.29073 14.8543C9.3252 14.6227 9.34266 14.3889 9.34297 14.1548C9.34297 13.751 9.32108 13.3472 9.31685 12.9428C9.31403 12.7188 9.31167 12.495 9.30979 12.2715L9.45097 12.3421L9.81803 12.532L9.98814 12.5609L11.9561 12.8955L14.1529 13.2696L14.2192 15.5284L14.2411 16.2668L14.2517 16.6254V16.6487L15.1058 16.996L20.0103 18.9894Z" fill="#DE8276"/>
<path d="M14.2376 16.5083C13.995 16.55 13.7453 16.5114 13.5267 16.3982L9.31474 12.9549C9.3098 12.7954 9.30556 12.9627 9.30345 12.8031C9.30062 12.5791 9.29827 12.3554 9.29639 12.1318L9.43756 12.2024L9.80462 12.3923L9.97474 12.4212L11.9427 12.7558L14.1394 13.13L14.2058 15.3888L14.2277 16.1271L14.2383 16.4857V16.509L14.2376 16.5083Z" fill="#A76962"/>
<path d="M16.4118 10.3704C16.302 10.4852 16.1817 10.5895 16.0525 10.6817C15.3184 11.2133 14.3386 11.3876 13.5014 11.6742C13.1485 11.7949 9.3212 12.8827 9.3212 13.1192C9.3212 13.0676 8.94638 12.6956 8.47414 12.2439C6.84536 10.6839 6.30236 8.30365 7.09344 6.19163C7.86355 4.16786 10.3186 2.77304 12.3748 2.45045C13.3539 2.29727 14.5158 2.21186 15.42 2.68127C15.8824 2.92198 16.2671 3.2728 16.62 3.66174C16.7301 3.78457 16.837 3.90998 16.9405 4.03798C16.985 4.09163 17.0287 4.14527 17.0718 4.19963C18.6791 6.21845 18.1094 8.58668 16.4118 10.3704Z" fill="url(#paint0_linear_176_1390)"/>
<path d="M16.4117 10.3708C16.3019 10.4856 16.1816 10.5898 16.0524 10.6821C16.0222 10.6296 15.9951 10.5754 15.9712 10.5198C15.7848 10.0962 15.6888 9.63671 15.6182 9.17859C15.5083 8.51189 15.4332 7.83993 15.3931 7.16542C15.3288 6.08259 14.8665 5.54542 15.7862 4.70118C16.1173 4.39783 16.5114 4.17169 16.9404 4.03906C16.9848 4.09271 17.0286 4.14636 17.0717 4.20071C18.679 6.21883 18.1093 8.58706 16.4117 10.3708Z" fill="url(#paint1_linear_176_1390)"/>
<ellipse cx="8.61528" cy="10.2967" rx="1.2" ry="1.2" fill="#E18477"/>
<ellipse cx="8.99647" cy="10.296" rx="1.07435" ry="1.07435" fill="#A76962"/>
<path d="M9.08623 9.15825C9.14482 9.92483 9.1427 10.8608 9.16317 11.1347C9.21635 11.8213 9.26905 12.5077 9.32129 13.1938L14.0112 15.9333C14.6843 16.1849 15.4384 15.8839 15.7533 15.238C16.4281 13.8559 17.5109 11.6733 17.3683 10.8615C17.1566 9.66154 16.5919 9.23801 16.5919 9.23801L16.8269 7.83048C17.0648 6.39966 16.5742 5.04507 14.9027 4.88836C14.5498 4.85589 14.1566 4.92295 13.9469 5.2046C13.3822 5.96413 13.7076 6.89872 12.8599 7.6046C11.8307 8.45378 9.53446 8.82436 8.99658 8.13895C8.99658 8.13895 9.04599 8.62389 9.08623 9.15825Z" fill="#DE8276"/>
<path d="M12.792 11.9865C12.6998 11.8837 12.5418 11.875 12.4389 11.9671C12.3361 12.0592 12.3274 12.2172 12.4195 12.3201L12.792 11.9865ZM12.6057 12.1533L12.4195 12.3201C12.799 12.7439 13.3192 13.0158 13.8838 13.0854L13.9144 12.8373L13.945 12.5892C13.5004 12.5344 13.0908 12.3203 12.792 11.9865L12.6057 12.1533Z" fill="#00214E"/>
<path d="M15.2161 11.3707L15.2282 11.6204L15.5707 11.6038L15.4501 11.2828L15.2161 11.3707ZM13.9376 11.1824C13.7997 11.1891 13.6933 11.3063 13.7 11.4442C13.7067 11.5821 13.8239 11.6885 13.9618 11.6818L13.9376 11.1824ZM14.273 8.82031L14.0293 8.76461C14.022 8.79655 14.0228 8.8224 14.0232 8.83078C14.0236 8.84242 14.0248 8.85173 14.0256 8.85701C14.0271 8.86764 14.029 8.87611 14.03 8.88008C14.032 8.88875 14.0342 8.89636 14.0355 8.90078C14.0384 8.9105 14.042 8.92156 14.0456 8.9323C14.053 8.95446 14.0635 8.98466 14.0764 9.02076C14.1022 9.09339 14.1391 9.19502 14.1833 9.31534C14.2716 9.55621 14.3899 9.87472 14.5082 10.1921C14.6265 10.5095 14.7449 10.8261 14.8338 11.0634C14.8782 11.182 14.9153 11.2808 14.9412 11.3499C14.9542 11.3845 14.9644 11.4116 14.9714 11.4302C14.9748 11.4394 14.9775 11.4465 14.9793 11.4513C14.9802 11.4537 14.9809 11.4555 14.9813 11.4567C14.9816 11.4573 14.9817 11.4578 14.9819 11.4581C14.9819 11.4583 14.982 11.4584 14.982 11.4585C14.982 11.4585 14.982 11.4585 14.982 11.4585C14.982 11.4586 14.982 11.4586 15.2161 11.3707C15.4501 11.2828 15.4501 11.2827 15.4501 11.2827C15.4501 11.2827 15.4501 11.2827 15.4501 11.2826C15.45 11.2826 15.45 11.2825 15.4499 11.2823C15.4498 11.282 15.4496 11.2815 15.4494 11.2809C15.449 11.2797 15.4483 11.2779 15.4474 11.2755C15.4456 11.2708 15.4429 11.2637 15.4395 11.2544C15.4325 11.2359 15.4223 11.2088 15.4094 11.1743C15.3835 11.1052 15.3464 11.0065 15.302 10.8879C15.2132 10.6508 15.0948 10.3345 14.9767 10.0174C14.8585 9.70029 14.7406 9.38275 14.6527 9.14312C14.6087 9.02318 14.5724 8.92344 14.5475 8.85322C14.5349 8.8179 14.5256 8.7913 14.5198 8.77376C14.5167 8.76463 14.5153 8.76011 14.5149 8.75883C14.5146 8.75774 14.5156 8.761 14.5169 8.76648C14.5174 8.76887 14.5191 8.77605 14.5205 8.78568C14.5212 8.79047 14.5223 8.79936 14.5228 8.81065C14.5231 8.81869 14.524 8.84426 14.5167 8.87602L14.273 8.82031ZM15.2161 11.3707L15.204 11.121L13.9376 11.1824L13.9497 11.4321L13.9618 11.6818L15.2282 11.6204L15.2161 11.3707Z" fill="#00214E"/>
<path d="M11.2238 8.08596C11.0886 8.11392 11.0016 8.2462 11.0296 8.38141C11.0576 8.51662 11.1898 8.60356 11.325 8.5756L11.2238 8.08596ZM11.2744 8.33078L11.325 8.5756C11.9498 8.44639 12.5924 8.42811 13.2234 8.52161L13.2601 8.27431L13.2967 8.02701C12.6076 7.92492 11.9059 7.94487 11.2238 8.08596L11.2744 8.33078Z" fill="#00214E"/>
<path d="M15.3859 8.09609C15.2514 8.12742 15.1678 8.26183 15.1991 8.3963C15.2305 8.53077 15.3649 8.61438 15.4994 8.58305L15.3859 8.09609ZM15.4426 8.33957L15.4994 8.58305C15.8768 8.4951 16.2659 8.46812 16.6518 8.50313L16.6744 8.25416L16.697 8.00518C16.2579 7.96535 15.8153 7.99604 15.3859 8.09609L15.4426 8.33957Z" fill="#00214E"/>
<path d="M20.0103 18.9896C15.2916 22.6228 8.70986 22.5938 4.02344 18.919L7.45826 17.3088C7.62184 17.2319 7.77884 17.1418 7.92767 17.0392C7.97285 17.0081 8.01803 16.9757 8.06108 16.9418C8.43491 16.6558 8.74262 16.2924 8.9632 15.8766C9.12996 15.5571 9.24074 15.2114 9.29073 14.8545C9.34058 14.9028 9.39289 14.9485 9.44744 14.9914C9.88025 15.3115 10.35 15.5783 10.8465 15.7863C11.0876 15.8868 11.3341 15.9738 11.5848 16.0467C12.3404 16.267 13.1293 16.3505 13.9143 16.2931C14.023 16.2846 14.1324 16.274 14.2411 16.2663L14.2517 16.6248V16.6481L15.1058 16.9954L20.0103 18.9896Z" fill="#00214E"/>
<path d="M12.2365 9.12402C12.6671 9.12402 12.6671 9.78614 12.2365 9.78967H12.2168C11.7855 9.78967 11.7855 9.12755 12.2168 9.12402H12.2358H12.2365Z" fill="#00214E"/>
<path d="M15.775 9.02539C16.1746 9.02892 16.1746 9.63951 15.775 9.64304H15.7567C15.3571 9.64304 15.3571 9.02892 15.7567 9.02539H15.775Z" fill="#00214E"/>
<defs>
<linearGradient id="paint0_linear_176_1390" x1="6.73061" y1="13.1219" x2="18.0233" y2="13.1219" gradientUnits="userSpaceOnUse">
<stop stop-color="#16243F"/>
<stop offset="1" stop-color="#6878B1"/>
</linearGradient>
<linearGradient id="paint1_linear_176_1390" x1="13.3813" y1="8.40603" x2="18.1162" y2="9.74935" gradientUnits="userSpaceOnUse">
<stop stop-color="#16243F"/>
<stop offset="1" stop-color="#6878B1"/>
</linearGradient>
</defs>
</svg>
