<svg width="32" height="32" viewBox="0 0 32 32" fill="none" xmlns="http://www.w3.org/2000/svg">
<path d="M26.6805 25.3195C20.3889 30.1638 11.6133 30.1251 5.36475 25.2254L9.94451 23.0785C10.1626 22.976 10.3719 22.8558 10.5704 22.719C10.6306 22.6776 10.6909 22.6343 10.7483 22.5891C11.2467 22.2078 11.657 21.7233 11.9511 21.1689C12.1734 20.7429 12.3212 20.282 12.3878 19.8061C12.4338 19.4973 12.457 19.1855 12.4575 18.8734C12.4575 18.335 12.4283 17.7967 12.4226 17.2574C12.4189 16.9587 12.4157 16.6603 12.4132 16.3623L12.6015 16.4564L13.0909 16.7096L13.3177 16.7482L15.9417 17.1943L18.8706 17.6931L18.9591 20.7049L18.9883 21.6894L19.0024 22.1675V22.1985L20.1412 22.6616L26.6805 25.3195Z" fill="#DE8276"/>
<path d="M18.9835 22.0111C18.66 22.0667 18.3272 22.0152 18.0357 21.8643L12.4197 17.2732C12.4131 17.0605 12.4075 17.2835 12.4047 17.0708C12.4009 16.7722 12.3978 16.4738 12.3953 16.1758L12.5835 16.2699L13.0729 16.5231L13.2997 16.5617L15.9237 17.0078L18.8527 17.5066L18.9411 20.5184L18.9703 21.5028L18.9844 21.981V22.012L18.9835 22.0111Z" fill="#A76962"/>
<path d="M21.8823 13.8273C21.736 13.9803 21.5756 14.1193 21.4032 14.2423C20.4244 14.951 19.1181 15.1835 18.0018 15.5656C17.5312 15.7266 12.4282 17.1769 12.4282 17.4922C12.4282 17.4235 11.9284 16.9275 11.2988 16.3251C9.12707 14.2452 8.40306 11.0715 9.45783 8.2555C10.4847 5.55715 13.7581 3.69738 16.4997 3.26726C17.8051 3.06303 19.3543 2.94915 20.56 3.57503C21.1764 3.89597 21.6894 4.36374 22.16 4.88232C22.3068 5.04609 22.4492 5.2133 22.5872 5.38397C22.6465 5.4555 22.7049 5.52703 22.7623 5.5995C24.9054 8.29127 24.1458 11.4489 21.8823 13.8273Z" fill="url(#paint0_linear_176_1374)"/>
<path d="M21.8823 13.8271C21.736 13.9802 21.5756 14.1191 21.4032 14.2422C21.363 14.1722 21.3269 14.0999 21.295 14.0257C21.0465 13.461 20.9185 12.8483 20.8244 12.2375C20.6778 11.3485 20.5776 10.4526 20.5242 9.55324C20.4385 8.10947 19.8221 7.39324 21.0484 6.26759C21.4897 5.86313 22.0153 5.56161 22.5872 5.38477C22.6465 5.4563 22.7049 5.52782 22.7623 5.6003C24.9054 8.29112 24.1458 11.4488 21.8823 13.8271Z" fill="url(#paint1_linear_176_1374)"/>
<ellipse cx="11.487" cy="13.7289" rx="1.6" ry="1.6" fill="#E18477"/>
<ellipse cx="11.9952" cy="13.7284" rx="1.43247" ry="1.43247" fill="#A76962"/>
<path d="M12.1149 12.211C12.193 13.2331 12.1902 14.4811 12.2175 14.8463C12.2884 15.7617 12.3587 16.6769 12.4283 17.5917L18.6815 21.2444C19.579 21.5799 20.5844 21.1786 21.0043 20.3173C21.9041 18.4745 23.3478 15.5644 23.1577 14.4821C22.8754 12.8821 22.1224 12.3173 22.1224 12.3173L22.4358 10.4406C22.753 8.53288 22.0989 6.72676 19.8702 6.51782C19.3996 6.47453 18.8754 6.56394 18.5958 6.93947C17.8429 7.95217 18.2768 9.19829 17.1464 10.1395C15.7742 11.2717 12.7125 11.7658 11.9954 10.8519C11.9954 10.8519 12.0612 11.4985 12.1149 12.211Z" fill="#DE8276"/>
<path d="M16.9939 16.0373C16.9018 15.9345 16.7437 15.9258 16.6408 16.0179C16.538 16.11 16.5293 16.268 16.6214 16.3709L16.9939 16.0373ZM16.8076 16.2041L16.6214 16.3709C17.1139 16.9209 17.7891 17.2738 18.522 17.3642L18.5526 17.1161L18.5832 16.868C17.9704 16.7924 17.4057 16.4973 16.9939 16.0373L16.8076 16.2041Z" fill="#00214E"/>
<path d="M20.2881 15.1612L20.3002 15.4109L20.6427 15.3943L20.5221 15.0733L20.2881 15.1612ZM18.5875 14.9934C18.4496 15.0001 18.3432 15.1173 18.3499 15.2552C18.3566 15.3931 18.4738 15.4995 18.6117 15.4928L18.5875 14.9934ZM19.0307 11.7607L18.787 11.705C18.7796 11.737 18.7805 11.7629 18.7808 11.7713C18.7813 11.783 18.7825 11.7924 18.7833 11.7978C18.7848 11.8086 18.7868 11.8173 18.7878 11.8215C18.7899 11.8307 18.7923 11.839 18.7939 11.8444C18.7973 11.8559 18.8018 11.8696 18.8064 11.8836C18.8161 11.9124 18.8299 11.9521 18.847 12.0001C18.8813 12.0965 18.9304 12.2317 18.9893 12.3921C19.107 12.713 19.2646 13.1375 19.4223 13.5606C19.58 13.9838 19.7379 14.4059 19.8564 14.7222C19.9157 14.8804 19.9651 15.0121 19.9997 15.1043C20.017 15.1504 20.0306 15.1866 20.0398 15.2113C20.0445 15.2236 20.048 15.2331 20.0504 15.2394C20.0516 15.2426 20.0525 15.245 20.0531 15.2467C20.0534 15.2475 20.0537 15.2481 20.0538 15.2485C20.0539 15.2487 20.0539 15.2489 20.054 15.249C20.054 15.249 20.054 15.2491 20.054 15.2491C20.054 15.2491 20.054 15.2491 20.2881 15.1612C20.5221 15.0733 20.5221 15.0733 20.5221 15.0733C20.5221 15.0732 20.5221 15.0732 20.5221 15.0732C20.522 15.073 20.522 15.0729 20.5219 15.0727C20.5217 15.0723 20.5215 15.0717 20.5212 15.0709C20.5206 15.0693 20.5197 15.0668 20.5185 15.0637C20.5161 15.0573 20.5126 15.0478 20.5079 15.0355C20.4987 15.0109 20.4851 14.9747 20.4678 14.9286C20.4332 14.8365 20.3839 14.7049 20.3247 14.5468C20.2062 14.2307 20.0484 13.8088 19.8908 13.386C19.7332 12.9631 19.576 12.5396 19.4587 12.2199C19.4 12.0599 19.3515 11.9266 19.3181 11.8325C19.3013 11.7853 19.2887 11.7493 19.2806 11.7251C19.2765 11.7127 19.2742 11.7055 19.2733 11.7024C19.2727 11.7004 19.2735 11.7029 19.2747 11.7079C19.2752 11.71 19.2768 11.717 19.2782 11.7265C19.2788 11.7312 19.28 11.74 19.2804 11.7512C19.2808 11.7592 19.2816 11.7847 19.2744 11.8164L19.0307 11.7607ZM20.2881 15.1612L20.276 14.9115L18.5875 14.9934L18.5996 15.2431L18.6117 15.4928L20.3002 15.4109L20.2881 15.1612Z" fill="#00214E"/>
<path d="M14.9818 10.8626C14.8466 10.8905 14.7597 11.0228 14.7877 11.158C14.8156 11.2932 14.9479 11.3802 15.0831 11.3522L14.9818 10.8626ZM15.0325 11.1074L15.0831 11.3522C15.9256 11.1779 16.7923 11.1533 17.6434 11.2794L17.68 11.0321L17.7166 10.7848C16.8075 10.6501 15.8818 10.6764 14.9818 10.8626L15.0325 11.1074Z" fill="#00214E"/>
<path d="M20.5334 10.8759C20.3989 10.9073 20.3153 11.0417 20.3466 11.1762C20.3779 11.3106 20.5124 11.3942 20.6468 11.3629L20.5334 10.8759ZM20.5901 11.1194L20.6468 11.3629C21.1587 11.2436 21.6864 11.207 22.2099 11.2545L22.2324 11.0055L22.255 10.7566C21.6784 10.7043 21.0972 10.7446 20.5334 10.8759L20.5901 11.1194Z" fill="#00214E"/>
<path d="M26.6805 25.3191C20.3889 30.1634 11.6133 30.1247 5.36475 25.225L9.94451 23.0781C10.1626 22.9756 10.3719 22.8554 10.5704 22.7186C10.6306 22.6772 10.6909 22.6339 10.7483 22.5887C11.2467 22.2073 11.657 21.7229 11.9511 21.1685C12.1734 20.7425 12.3212 20.2815 12.3878 19.8057C12.4543 19.8701 12.524 19.931 12.5967 19.9883C13.1738 20.415 13.8001 20.7708 14.4622 21.048C14.7836 21.1821 15.1122 21.298 15.4466 21.3953C16.4541 21.6891 17.5059 21.8003 18.5525 21.7238C18.6975 21.7125 18.8433 21.6984 18.9883 21.688L19.0024 22.1661V22.1972L20.1412 22.6603L26.6805 25.3191Z" fill="#00214E"/>
<path d="M16.3153 12.165C16.8894 12.165 16.8894 13.0479 16.3153 13.0526H16.289C15.7139 13.0526 15.7139 12.1697 16.289 12.165H16.3144H16.3153Z" fill="#00214E"/>
<path d="M21.0334 12.0342C21.5661 12.0389 21.5661 12.853 21.0334 12.8577H21.0089C20.4762 12.8577 20.4762 12.0389 21.0089 12.0342H21.0334Z" fill="#00214E"/>
<defs>
<linearGradient id="paint0_linear_176_1374" x1="8.97407" y1="17.4959" x2="24.031" y2="17.4959" gradientUnits="userSpaceOnUse">
<stop stop-color="#16243F"/>
<stop offset="1" stop-color="#6878B1"/>
</linearGradient>
<linearGradient id="paint1_linear_176_1374" x1="17.8418" y1="11.2074" x2="24.155" y2="12.9985" gradientUnits="userSpaceOnUse">
<stop stop-color="#16243F"/>
<stop offset="1" stop-color="#6878B1"/>
</linearGradient>
</defs>
</svg>
