<svg width="200" height="200" viewBox="0 0 200 200" fill="none" xmlns="http://www.w3.org/2000/svg">
<mask id="mask0_2158_158020" style="mask-type:alpha" maskUnits="userSpaceOnUse" x="0" y="0" width="200" height="200">
<rect width="200" height="200" fill="#D9D9D9"/>
</mask>
<g mask="url(#mask0_2158_158020)">
<path d="M149.205 171.745H145.21L143.309 155.234H149.205V171.745Z" fill="#9E616A"/>
<path d="M151.565 179.41H148.426L147.866 176.392L146.431 179.41H138.106C137.707 179.41 137.318 179.281 136.997 179.04C136.675 178.799 136.438 178.46 136.319 178.071C136.2 177.683 136.207 177.267 136.337 176.883C136.467 176.498 136.714 176.167 137.043 175.936L143.691 171.259V168.207L150.684 168.632L151.565 179.41Z" fill="#2F2E41"/>
<path d="M175.151 166.223L171.622 168.797L159.82 156.674L165.029 152.876L175.151 166.223Z" fill="#9E616A"/>
<path d="M181.636 170.936L179.159 172.825L176.977 170.763L177.584 174.026L171.013 179.038C170.698 179.278 170.317 179.409 169.924 179.411C169.532 179.413 169.149 179.286 168.832 179.049C168.514 178.812 168.279 178.477 168.16 178.094C168.042 177.71 168.046 177.297 168.172 176.916L170.724 169.197L168.966 166.772L174.73 162.9L181.636 170.936Z" fill="#2F2E41"/>
<path d="M154.333 85.0664C154.333 85.0664 162.566 92.1982 158.767 112.529L154.13 132.45L169.255 157.608L164.432 163.49L144.769 136.26L137.644 119.503L135.645 89.6783L154.333 85.0664Z" fill="#2F2E41"/>
<path d="M141.445 124.573L140.949 132.194L142.467 164.67L149.608 163.435L150.973 140.313L141.445 124.573Z" fill="#2F2E41"/>
<path d="M50.1451 175.873L54.1405 175.873L56.041 160.542L50.1445 160.542L50.1451 175.873Z" fill="#FFB6B6"/>
<path d="M48.9648 174.587L50.0458 174.587L54.2658 172.924L56.5276 174.587H56.5279C57.8061 174.587 59.032 175.079 59.9358 175.955C60.8396 176.831 61.3474 178.019 61.3475 179.258V179.41L48.9651 179.41L48.9648 174.587Z" fill="#2F2E41"/>
<path d="M64.8867 173.256L68.9068 174.103L74.3211 160.024L68.3878 158.772L64.8867 173.256Z" fill="#FFB6B6"/>
<path d="M64.2267 171.672L65.2941 171.915L69.8442 171.155L71.6951 173.372L71.6954 173.372C72.9577 173.66 74.0549 174.441 74.7459 175.544C75.4369 176.647 75.665 177.982 75.3801 179.254L75.3451 179.41L63.1172 176.627L64.2267 171.672Z" fill="#2F2E41"/>
<path d="M44.9136 83.8867C43.0853 89.3888 43.2786 95.3611 45.3531 101.771L46.2399 137.86C46.2399 137.86 44.9186 161.527 49.1821 169.855H55.3654L58.4268 135.699L58.8113 112.773L72.0676 132.115L63.6243 169.297L71.2344 169.976L84.9357 129.625L68.0311 90.4771L44.9136 83.8867Z" fill="#2F2E41"/>
<path d="M116.138 68.2442C120.887 63.9947 127.95 61.8579 133.874 64.2408C127.797 67.5917 123.109 72.9694 120.64 79.4225C119.697 81.9146 118.909 84.784 116.589 86.1182C115.146 86.9484 113.35 86.989 111.731 86.5882C110.113 86.1874 108.629 85.384 107.166 84.5886L106.75 84.5792C108.619 78.5086 111.39 72.4938 116.138 68.2442Z" fill="#E6E6E6"/>
<path d="M133.741 64.7051C128.501 65.3671 123.607 67.6264 119.754 71.162C118.911 71.9087 118.194 72.7807 117.629 73.7458C117.109 74.7034 116.861 75.7795 116.911 76.8623C116.936 77.8729 117.082 78.9037 116.856 79.9027C116.733 80.4124 116.5 80.8908 116.174 81.3066C115.848 81.7224 115.436 82.0661 114.965 82.3153C113.807 82.9659 112.479 83.171 111.173 83.3275C109.723 83.5012 108.214 83.6592 106.959 84.4542C106.807 84.5505 106.663 84.3142 106.815 84.2181C108.998 82.8349 111.762 83.3382 114.11 82.4151C115.205 81.9843 116.175 81.2282 116.518 80.0851C116.818 79.0854 116.668 78.0223 116.633 76.9994C116.569 75.9437 116.77 74.8887 117.219 73.9265C117.732 72.9364 118.414 72.0388 119.236 71.2723C121.056 69.5178 123.148 68.054 125.434 66.9347C128.036 65.643 130.845 64.7959 133.739 64.43C133.918 64.4075 133.919 64.6827 133.741 64.7051Z" fill="white"/>
<path d="M120.919 69.6768C120.469 68.985 120.258 68.1406 120.324 67.2943C120.39 66.448 120.729 65.655 121.28 65.0569C121.392 64.9362 121.568 65.1208 121.456 65.2416C120.942 65.7976 120.627 66.5363 120.567 67.3245C120.507 68.1127 120.706 68.8984 121.129 69.5399C121.22 69.6794 121.01 69.8155 120.919 69.6768Z" fill="white"/>
<path d="M116.938 76.3347C118.652 76.7226 120.417 76.271 121.881 75.0699C122.026 74.9507 122.164 75.2446 122.019 75.3636C120.493 76.6099 118.655 77.0751 116.872 76.6664C116.703 76.6273 116.769 76.2958 116.938 76.3347Z" fill="white"/>
<path d="M128.211 65.6834C128.339 66.0436 128.538 66.3589 128.789 66.601C129.041 66.8431 129.337 67.0044 129.651 67.0704C129.813 67.1036 129.75 67.4069 129.589 67.3739C129.242 67.299 128.915 67.1203 128.637 66.8536C128.359 66.5869 128.138 66.2402 127.993 65.8439C127.977 65.8079 127.972 65.7657 127.981 65.7259C127.989 65.686 128.009 65.6515 128.037 65.6293C128.066 65.6082 128.1 65.6021 128.133 65.6122C128.166 65.6223 128.194 65.6479 128.211 65.6834Z" fill="white"/>
<path d="M140.36 84.9517C140.249 84.9362 140.138 84.9207 140.025 84.9069C138.53 84.7058 137.022 84.6281 135.515 84.6747C135.398 84.6764 135.28 84.6799 135.164 84.685C131.534 84.8363 127.963 85.6692 124.633 87.1415C123.309 87.7286 122.03 88.417 120.809 89.2007C119.122 90.2831 117.378 91.5926 115.492 92.0341C115.296 92.0824 115.097 92.1183 114.896 92.1417L107.105 85.305C107.095 85.2805 107.083 85.2577 107.073 85.2331L106.75 84.9745C106.81 84.9296 106.874 84.8844 106.934 84.8395C106.969 84.8133 107.005 84.7887 107.04 84.7625C107.064 84.7455 107.088 84.7286 107.108 84.7119C107.116 84.7063 107.124 84.7007 107.13 84.6968C107.151 84.6801 107.172 84.6668 107.191 84.6519C107.544 84.3981 107.9 84.1463 108.259 83.8966C108.26 83.8949 108.26 83.8949 108.264 83.8946C110.977 81.9656 113.907 80.3697 116.991 79.1402C117.084 79.1048 117.178 79.0675 117.274 79.0352C118.663 78.5118 120.092 78.1043 121.546 77.8168C122.343 77.662 123.147 77.5481 123.956 77.4757C126.045 77.2927 128.149 77.4438 130.192 77.9234C134.264 78.8803 137.988 81.1462 140.194 84.6801C140.251 84.7705 140.305 84.8595 140.36 84.9517Z" fill="#E6E6E6"/>
<path d="M140.132 84.9935C135.579 82.4641 130.325 81.3989 125.117 81.949C123.993 82.0481 122.893 82.3192 121.856 82.7526C120.86 83.2067 120.006 83.9127 119.385 84.7973C118.788 85.6108 118.274 86.5104 117.485 87.1681C117.076 87.499 116.6 87.7417 116.088 87.8804C115.576 88.0191 115.04 88.0506 114.514 87.9729C113.2 87.8126 112.024 87.2011 110.894 86.5641C109.64 85.8568 108.349 85.1028 106.87 85C106.691 84.9875 106.721 84.7169 106.9 84.7293C109.474 84.9083 111.354 86.9155 113.776 87.5537C114.907 87.8515 116.136 87.8187 117.106 87.1152C117.954 86.5 118.484 85.5728 119.081 84.7441C119.675 83.8724 120.479 83.1558 121.421 82.657C122.432 82.1735 123.52 81.8614 124.639 81.734C127.151 81.4081 129.701 81.4698 132.194 81.9168C135.043 82.4115 137.784 83.378 140.298 84.7746C140.454 84.8611 140.287 85.0794 140.132 84.9935Z" fill="white"/>
<path d="M126.801 81.3867C126.826 80.5514 127.179 79.7514 127.797 79.1294C128.415 78.5075 129.257 78.1042 130.174 77.9916C130.359 77.9694 130.406 78.2288 130.221 78.251C129.367 78.3545 128.582 78.7302 128.008 79.3104C127.434 79.8906 127.108 80.637 127.09 81.4149C127.086 81.584 126.797 81.5547 126.801 81.3867Z" fill="white"/>
<path d="M119.396 84.5188C120.68 85.7222 122.436 86.4594 124.315 86.5833C124.501 86.5955 124.469 86.8469 124.284 86.8347C122.329 86.7025 120.503 85.9322 119.17 84.6774C119.043 84.5577 119.27 84.3998 119.396 84.5188Z" fill="white"/>
<path d="M134.909 82.865C134.802 83.2126 134.809 83.5752 134.929 83.9203C135.049 84.2653 135.278 84.582 135.596 84.8419C135.759 84.9748 135.471 85.1521 135.309 85.0201C134.959 84.7317 134.707 84.3817 134.573 84.0007C134.44 83.6197 134.429 83.2193 134.543 82.8344C134.549 82.7975 134.574 82.7639 134.612 82.7405C134.65 82.7171 134.697 82.7056 134.746 82.7084C134.794 82.7127 134.838 82.7315 134.869 82.7608C134.9 82.7901 134.914 82.8276 134.909 82.865Z" fill="white"/>
<path d="M2.80047 175.412C2.43847 176.802 1.4873 177.959 0.338899 178.802C0.15166 178.94 -0.0405695 179.068 -0.235298 179.188C-0.295215 179.224 -0.355134 179.262 -0.417547 179.296C-0.484953 179.336 -0.552359 179.375 -0.619765 179.41H-6.01974C-6.11711 179.209 -6.21197 179.004 -6.30684 178.802C-8.62112 173.826 -10.2464 168.456 -9.96924 162.987C-9.8593 160.865 -9.42374 158.775 -8.67854 156.792C-7.1956 152.84 -4.48937 149.419 -0.767059 147.697C-0.674687 147.654 -0.577323 147.61 -0.482455 147.569C-0.512414 147.679 -0.542372 147.786 -0.57233 147.896C-0.971671 149.368 -1.25387 150.871 -1.41616 152.39C-1.43114 152.507 -1.44362 152.625 -1.4536 152.745C-1.80827 156.408 -1.49334 160.106 -0.524896 163.651C-0.522399 163.659 -0.519915 163.669 -0.517406 163.676C-0.305192 164.461 -0.0588707 165.233 0.221562 165.993C0.441256 166.594 0.678428 167.186 0.938066 167.769C2.02156 170.214 3.47452 172.82 2.80047 175.412Z" fill="#E6E6E6"/>
<path d="M-0.00826364 147.814C-0.0651828 147.886 -0.122117 147.954 -0.179022 148.026C-1.36949 149.507 -2.3804 151.107 -3.19302 152.798C-3.23639 152.882 -3.27705 152.966 -3.31228 153.053C-4.42574 155.414 -5.14082 157.924 -5.43185 160.492C-5.435 160.51 -5.4368 160.528 -5.43726 160.545C-5.50503 161.146 -5.54568 161.751 -5.56195 162.357C-5.62222 163.492 -5.49141 164.629 -5.17436 165.725C-4.88526 166.621 -4.37867 167.441 -3.69446 168.122C-3.6267 168.191 -3.55893 168.259 -3.48575 168.326C-3.43154 168.379 -3.37192 168.432 -3.315 168.483C-2.76749 168.974 -2.16848 169.43 -1.6535 169.956C-1.41746 170.193 -1.2043 170.448 -1.01655 170.72C-0.716902 171.175 -0.523343 171.685 -0.448598 172.215C-0.373853 172.746 -0.419618 173.285 -0.582879 173.798C-0.951498 175.085 -1.79444 176.172 -2.65636 177.207C-3.08732 177.726 -3.53183 178.25 -3.91671 178.805C-4.05764 179.003 -4.18775 179.204 -4.307 179.41H-4.64851C-4.53468 179.204 -4.41 179.003 -4.27447 178.805C-3.28516 177.342 -1.87845 176.085 -1.14934 174.475C-0.656043 173.388 -0.506967 172.157 -1.13037 171.091C-1.31307 170.781 -1.53415 170.492 -1.789 170.231C-2.28501 169.704 -2.8786 169.254 -3.41797 168.778C-3.5535 168.659 -3.68631 168.537 -3.8137 168.41C-4.48909 167.765 -5.01025 166.993 -5.34239 166.145C-5.71852 165.068 -5.89634 163.938 -5.86821 162.805C-5.86821 162.082 -5.82755 161.355 -5.75166 160.632C-5.74353 160.54 -5.73269 160.446 -5.72184 160.352C-5.16755 155.805 -3.3267 151.481 -0.390419 147.827C-0.336211 147.756 -0.279293 147.687 -0.222374 147.619C-0.105839 147.476 0.108282 147.675 -0.00826364 147.814Z" fill="white"/>
<path d="M18.8946 157.987C18.8055 158.055 18.7138 158.123 18.6246 158.193C17.4154 159.103 16.2833 160.108 15.2396 161.199C15.1581 161.282 15.0765 161.367 14.9976 161.452L14.995 161.454C12.5203 164.097 10.5635 167.166 9.22334 170.508L9.2157 170.53C9.21315 170.538 9.2106 170.543 9.20806 170.55C8.67685 171.888 8.24859 173.263 7.92687 174.664C7.61613 176.031 7.36142 177.497 6.87492 178.815C6.80106 179.018 6.71955 179.218 6.63295 179.411H-4.69141C-4.6532 179.213 -4.61245 179.013 -4.57169 178.815C-3.99563 175.912 -3.09529 173.081 -1.88706 170.373C-1.84631 170.282 -1.80556 170.192 -1.75971 170.102C-1.13597 168.764 -0.402536 167.478 0.433335 166.257L0.433517 166.256L0.434065 166.255L0.434901 166.254L0.435884 166.254C0.894869 165.588 1.38794 164.945 1.9132 164.328C3.27542 162.734 4.88454 161.361 6.68135 160.26C6.69153 160.252 6.70427 160.247 6.71446 160.24C10.2906 158.058 14.5289 157.018 18.5813 157.917H18.5839C18.6883 157.94 18.7902 157.962 18.8946 157.987Z" fill="#E6E6E6"/>
<path d="M18.7819 157.878C18.6959 157.9 18.61 157.926 18.5266 157.951C16.7554 158.458 15.0459 159.161 13.4292 160.046C13.3484 160.089 13.2675 160.135 13.1866 160.181C10.9525 161.431 8.92448 163.019 7.17441 164.891C7.17304 164.892 7.17216 164.894 7.17189 164.896C7.15167 164.916 7.12893 164.939 7.11123 164.959C6.70688 165.395 6.31769 165.848 5.94872 166.315C5.22698 167.184 4.64542 168.161 4.22517 169.21C3.90404 170.085 3.79069 171.023 3.89411 171.949C3.90169 172.043 3.91432 172.134 3.92696 172.228C3.93707 172.301 3.94718 172.375 3.95981 172.451C4.12661 173.467 4.41471 174.485 4.33384 175.522C4.28463 176.053 4.12385 176.567 3.86207 177.031C3.60029 177.496 3.24343 177.899 2.81499 178.215C2.52374 178.441 2.21244 178.639 1.88498 178.808C1.4168 179.05 0.928986 179.252 0.426786 179.411H-0.566406C-0.432465 179.373 -0.30105 179.335 -0.167108 179.297C0.308194 179.162 0.774903 178.999 1.23043 178.808C1.49067 178.699 1.74388 178.573 1.9886 178.433C3.00453 177.848 3.85116 176.951 4.02805 175.752C4.18221 174.703 3.884 173.654 3.70709 172.628C3.67677 172.451 3.64897 172.276 3.63381 172.101C3.51314 171.213 3.58643 170.309 3.84862 169.451C4.21224 168.382 4.75587 167.382 5.45592 166.497C5.88896 165.92 6.35121 165.366 6.84083 164.837C6.90148 164.769 6.96466 164.701 7.03037 164.632C8.81723 162.748 10.8804 161.147 13.1487 159.887H13.1513C14.8378 158.945 16.6271 158.202 18.4836 157.672H18.4862C18.5696 157.647 18.6555 157.622 18.7389 157.599C18.9133 157.553 18.9537 157.829 18.7819 157.878Z" fill="white"/>
<path d="M6.8667 164.626C6.30421 164.011 5.97112 163.208 5.92692 162.361C5.88271 161.515 6.13028 160.68 6.6254 160.005C6.72604 159.869 6.93495 160.024 6.83418 160.161C6.372 160.788 6.14147 161.566 6.18419 162.354C6.2269 163.143 6.54005 163.889 7.06711 164.459C7.18151 164.583 6.98045 164.749 6.8667 164.626Z" fill="white"/>
<path d="M3.71219 172.009C5.51575 172.084 7.27756 171.372 8.64632 170.014C8.78184 169.88 8.95573 170.129 8.82037 170.264C7.39373 171.674 5.55899 172.411 3.68231 172.328C3.50344 172.32 3.53429 172.001 3.71219 172.009Z" fill="white"/>
<path d="M13.272 159.998C13.4781 160.262 13.7641 160.481 14.1041 160.636C14.4441 160.791 14.8275 160.877 15.22 160.886C15.4212 160.89 15.3863 161.136 15.1863 161.131C14.7528 161.12 14.3295 161.024 13.9534 160.854C13.5772 160.683 13.2597 160.442 13.0286 160.153C13.0039 160.127 12.9926 160.094 12.997 160.062C13.0014 160.03 13.0212 160 13.0524 159.979C13.0847 159.959 13.1259 159.949 13.1671 159.953C13.2082 159.956 13.2459 159.973 13.272 159.998Z" fill="white"/>
<path d="M105.547 60.4978C105.286 60.851 104.953 61.141 104.572 61.3475C104.19 61.5539 103.769 61.6717 103.339 61.6926C102.908 61.7135 102.478 61.637 102.079 61.4684C101.681 61.2998 101.323 61.0433 101.031 60.7169L91.4219 65.0184L92.3578 59.4973L101.339 56.259C101.904 55.7904 102.617 55.5515 103.342 55.5875C104.067 55.6236 104.753 55.9321 105.272 56.4546C105.791 56.9771 106.105 57.6773 106.156 58.4224C106.207 59.1676 105.99 59.906 105.547 60.4978Z" fill="#FFB8B8"/>
<path d="M99.0846 62.1943L76.942 72.0935L76.8945 72.0764L51.6576 63.0504C49.7778 62.0643 48.3446 60.3944 47.6516 58.3824C46.9585 56.3705 47.058 54.1687 47.9296 52.228C48.4128 51.1557 49.1167 50.1983 49.9951 49.4187C50.8735 48.6392 51.9065 48.0552 53.026 47.7052C54.1454 47.3552 55.3261 47.2472 56.4902 47.3881C57.6543 47.5291 58.7754 47.9159 59.7798 48.5232L78.5608 59.878L96.7725 57.509L99.0846 62.1943Z" fill="#E6E6E6"/>
<path d="M208.171 179.705C208.171 179.744 208.163 179.782 208.148 179.818C208.133 179.854 208.111 179.886 208.083 179.914C208.055 179.941 208.022 179.963 207.985 179.978C207.949 179.992 207.909 180 207.87 180H-9.69905C-9.77887 180 -9.85541 179.969 -9.91185 179.913C-9.96829 179.858 -10 179.783 -10 179.705C-10 179.627 -9.96829 179.552 -9.91185 179.497C-9.85541 179.441 -9.77887 179.41 -9.69905 179.41H207.87C207.909 179.41 207.949 179.418 207.985 179.432C208.022 179.447 208.055 179.469 208.083 179.496C208.111 179.524 208.133 179.556 208.148 179.592C208.163 179.628 208.171 179.666 208.171 179.705Z" fill="#CCCCCC"/>
<path d="M69.3757 91.5528L46.6719 87.9824C46.0764 87.7949 45.5293 87.4829 45.068 87.0679C44.6068 86.6529 44.2423 86.1447 43.9997 85.5781C43.7571 85.0116 43.642 84.4001 43.6625 83.7857C43.6829 83.1714 43.8383 82.5686 44.118 82.0188L45.1476 79.9941L44.7477 58.7217C44.6995 55.9546 45.3933 53.2239 46.7594 50.8042C48.1255 48.3845 50.1157 46.3612 52.5297 44.9379L54.7437 43.6363L55.8626 40.8428L66.18 41.0902L66.2101 44.754L69.905 50.5467L69.9049 50.5707L69.673 82.0994L68.6547 85.3531L70.1945 89.1376L69.3757 91.5528Z" fill="#E62129"/>
<path d="M61.9383 37.3046C67.1488 37.3046 71.3727 33.2126 71.3727 28.165C71.3727 23.1173 67.1488 19.0254 61.9383 19.0254C56.7278 19.0254 52.5039 23.1173 52.5039 28.165C52.5039 33.2126 56.7278 37.3046 61.9383 37.3046Z" fill="#FFB8B8"/>
<path d="M52.0764 30.227C51.8004 29.0611 51.9271 27.4205 52.083 26.2465C52.4918 23.1688 54.1958 20.2429 56.7846 18.5097C57.2754 18.1358 57.8587 17.9033 58.4716 17.8373C59.084 17.8116 59.7479 18.1405 59.9359 18.7257C60.0902 18.3394 60.3217 17.989 60.6163 17.696C60.9108 17.403 61.2621 17.1737 61.6484 17.0222C62.4245 16.724 63.2592 16.6112 64.0863 16.6928C65.6895 16.8253 67.2269 17.3908 68.5356 18.3291C69.8442 19.2674 70.8752 20.5436 71.5191 22.0222C71.7661 22.611 72.4563 20.4362 72.7693 20.9925C73.057 21.5708 73.5589 22.0131 74.1676 22.2249C74.781 22.3966 75.0302 24.9316 75.2716 24.3405C75.4589 24.7774 75.5329 25.2547 75.4868 25.728C75.4407 26.2013 75.2759 26.6551 75.0078 27.0473C74.7397 27.4396 74.377 27.7573 73.9535 27.9711C73.53 28.1848 73.0594 28.2876 72.5857 28.2698C71.9614 28.2464 71.3643 28.0161 70.7474 27.9169C68.5413 27.5623 66.2012 29.1669 65.7295 31.3575C65.5607 30.724 65.291 30.122 64.9308 29.5748C64.7479 29.3026 64.5029 29.0782 64.2161 28.9202C63.9294 28.7621 63.6091 28.675 63.282 28.6662C62.6544 28.6897 62.1027 29.1013 61.6954 29.581C61.2882 30.0606 60.9823 30.6202 60.5721 31.0973C59.3683 32.4971 57.7402 35.7616 56.0247 35.5235C54.6708 35.3356 52.4531 31.819 52.0764 30.227Z" fill="#2F2E41"/>
<path d="M117.932 71.1298C117.997 70.7137 117.91 70.2885 117.687 69.9294C117.464 69.5704 117.12 69.3008 116.714 69.1684L91.789 60.9826C91.55 60.9038 91.297 60.8752 91.0461 60.8985L84.7986 61.4811L81.2139 61.8164L74.5987 62.4328C74.1993 62.4705 73.8238 62.6378 73.5312 62.9085C73.2386 63.1792 73.0454 63.538 72.9819 63.9287L69.6231 84.6166C69.5596 85.0202 69.6375 85.433 69.844 85.787C70.0505 86.1409 70.3732 86.4149 70.7589 86.5636L95.9446 96.1498C96.0628 96.195 96.1856 96.2275 96.3109 96.2467C96.4933 96.2759 96.6792 96.2773 96.862 96.2509L113.136 93.8725C113.52 93.8177 113.876 93.6423 114.151 93.3724C114.425 93.1025 114.605 92.7525 114.662 92.3742L117.932 71.1298Z" fill="white"/>
<path d="M71.5145 85.2602L96.4937 95.0738C96.5301 95.0884 96.5697 95.0931 96.6085 95.0875L112.747 92.6528C112.795 92.6462 112.84 92.6238 112.874 92.5891C112.908 92.5544 112.93 92.5093 112.937 92.4607L116.182 70.711C116.19 70.6579 116.179 70.6038 116.151 70.5581C116.124 70.5123 116.082 70.4776 116.032 70.4601L115.866 70.4028L91.309 62.0816C91.2978 62.0775 91.2862 62.0747 91.2744 62.0731C91.2554 62.0695 91.236 62.0685 91.2167 62.07L76.1035 63.5257L74.9042 63.6402C74.855 63.6455 74.8088 63.6671 74.7728 63.7016C74.7368 63.7361 74.7128 63.7817 74.7046 63.8314L71.3739 85.0103C71.3658 85.062 71.3753 85.115 71.4009 85.1605C71.4264 85.206 71.4665 85.2412 71.5145 85.2602Z" fill="#0076BE"/>
<path d="M76.0898 63.5242L91.3301 62.07C91.3495 62.0685 91.3691 62.0695 91.3883 62.0731C91.4002 62.0747 91.4118 62.0775 91.4231 62.0816L116.186 70.3948L109.654 71.092L107.21 71.3517L100.254 72.0928C100.233 72.0938 100.213 72.0936 100.193 72.092C100.18 72.0883 100.168 72.0845 100.153 72.0805L76.0898 63.5242Z" fill="#2F2E41"/>
<path d="M70.7598 86.5651L95.9451 96.1507C96.0635 96.1957 96.1868 96.2275 96.3124 96.2455C96.4948 96.2753 96.6808 96.2776 96.8639 96.2523L113.136 93.8742C113.52 93.8191 113.876 93.6435 114.151 93.3735C114.426 93.1034 114.605 92.7533 114.663 92.3748L117.932 71.1299C117.981 70.8167 117.944 70.4965 117.826 70.2017C117.81 70.1625 117.793 70.1233 117.774 70.0864C117.644 69.8172 117.447 69.5853 117.2 69.4127C117.052 69.3077 116.889 69.2255 116.715 69.1688L116.686 69.1585L91.7914 60.9825C91.6897 60.9506 91.5858 60.9257 91.4805 60.9081C91.3367 60.888 91.1908 60.8852 91.0463 60.8998L84.7999 61.4804L81.2155 61.8175L74.5992 62.4335C74.3286 62.4584 74.0672 62.5436 73.8347 62.6826C73.8168 62.6912 73.7996 62.7013 73.7835 62.7129C73.7719 62.7203 73.761 62.7285 73.7506 62.7374C73.5476 62.874 73.3749 63.0499 73.2431 63.2545C73.1113 63.459 73.0232 63.6879 72.984 63.9271L69.6231 84.6165C69.5596 85.0204 69.6376 85.4335 69.8442 85.7877C70.0509 86.142 70.3739 86.4162 70.7598 86.5651ZM73.4299 63.9992C73.4707 63.7512 73.5822 63.5198 73.7515 63.3321C73.8027 63.2716 73.86 63.2165 73.9226 63.1675C74.0934 63.0313 74.2955 62.9384 74.5111 62.8969C74.5537 62.8882 74.5967 62.8822 74.6401 62.8789L85.7801 61.8412L91.0898 61.3429C91.1258 61.3388 91.1589 61.3394 91.1921 61.3375C91.2725 61.3359 91.3529 61.3418 91.4321 61.3551C91.505 61.3644 91.5767 61.3813 91.6461 61.4054L116.57 69.5916C116.59 69.5985 116.607 69.6051 116.627 69.612C116.853 69.6951 117.052 69.838 117.202 70.025C117.321 70.1681 117.407 70.3343 117.456 70.5127C117.505 70.6911 117.515 70.8777 117.486 71.0603L114.214 92.3074C114.171 92.5908 114.037 92.853 113.831 93.0555C113.625 93.2579 113.359 93.3898 113.072 93.4317L96.7974 95.8095C96.5645 95.8424 96.3271 95.8157 96.1078 95.732L70.9223 86.1488C70.6336 86.0367 70.3922 85.8311 70.2376 85.5658C70.083 85.3005 70.0244 84.9913 70.0715 84.6889L73.4299 63.9992Z" fill="#3F3D56"/>
<path d="M73.7425 62.8061C73.7558 62.7689 73.7791 62.736 73.81 62.7109C73.8203 62.7028 73.8311 62.6956 73.8425 62.6891C73.853 62.6851 73.8637 62.6787 73.8743 62.6747C73.9245 62.6549 73.9804 62.654 74.0313 62.6721L74.5525 62.8522L100.013 71.6498L105.971 71.0331L109.306 70.6886L116.363 69.9567L116.994 69.8919L117.117 69.8786C117.17 69.8738 117.223 69.8874 117.267 69.9168C117.31 69.9462 117.342 69.9897 117.357 70.0398C117.36 70.0513 117.362 70.0631 117.363 70.0751C117.369 70.1225 117.358 70.1704 117.333 70.2114C117.308 70.2524 117.27 70.2844 117.225 70.3024C117.205 70.3105 117.184 70.3161 117.163 70.3189L116.304 70.407L109.354 71.1267L106.924 71.3774L100.01 72.093C99.9896 72.094 99.9693 72.0938 99.9491 72.0923C99.9368 72.0887 99.9245 72.085 99.9097 72.0812L73.9674 63.1195L73.8794 63.089C73.8592 63.0825 73.8404 63.0723 73.8241 63.059C73.7848 63.0308 73.7558 62.9911 73.7411 62.9456C73.7264 62.9002 73.7269 62.8513 73.7425 62.8061Z" fill="#3F3D56"/>
<path d="M96.3272 96.2664C96.2683 96.257 96.2155 96.2248 96.1803 96.1768C96.1451 96.1288 96.1304 96.0689 96.1392 96.0101L99.8143 71.6959C99.8233 71.6367 99.8554 71.5835 99.9037 71.548C99.952 71.5125 100.012 71.4975 100.072 71.5064L100.074 71.5067C100.133 71.5161 100.185 71.5484 100.221 71.5964C100.256 71.6444 100.271 71.7043 100.262 71.7631L96.5867 96.0773C96.5777 96.1365 96.5456 96.1896 96.4973 96.2252C96.449 96.2607 96.3886 96.2756 96.3293 96.2667L96.3272 96.2664Z" fill="#3F3D56"/>
<path d="M105.767 94.8308L103.215 95.0905L106.2 70.7381C106.2 70.7381 109.609 70.143 109.7 70.3817C109.757 70.5241 105.792 94.6746 105.767 94.8308Z" fill="#3F3D56"/>
<path d="M73.7963 62.6592L73.7305 73.9272L93.2537 81.528L100.265 71.9057L73.7963 62.6592Z" fill="#004B7A"/>
<path d="M117.367 69.7348C117.204 69.5291 116.984 69.3759 116.736 69.294L91.8763 60.9728C91.8065 60.9492 91.7348 60.9316 91.662 60.9203C91.5827 60.9066 91.5023 60.9006 91.4219 60.9022L91.4622 60.6491L91.7111 60.468L97.6144 56.1729L117.329 62.2446L117.363 69.1121L117.367 69.7348Z" fill="#004B7A"/>
<path d="M74.7286 80.3505C74.7561 80.3534 74.7833 80.3597 74.8096 80.3692L82.3187 83.0853C82.4127 83.1193 82.4906 83.193 82.5353 83.2902C82.5799 83.3875 82.5877 83.5002 82.5568 83.6038C82.526 83.7073 82.459 83.7931 82.3708 83.8423C82.2825 83.8915 82.18 83.9 82.086 83.8661L74.577 81.15C74.4898 81.1184 74.4162 81.0526 74.3703 80.9651C74.3244 80.8776 74.3094 80.7745 74.3282 80.6756C74.3469 80.5767 74.3981 80.4888 74.472 80.4288C74.5459 80.3689 74.6372 80.341 74.7286 80.3505Z" fill="white"/>
<path d="M105.573 126.932C107.202 126.932 108.522 125.612 108.522 123.983C108.522 122.355 107.202 121.035 105.573 121.035C103.945 121.035 102.625 122.355 102.625 123.983C102.625 125.612 103.945 126.932 105.573 126.932Z" fill="#F2F2F2"/>
<path d="M28.3272 138.135C29.9554 138.135 31.2754 136.683 31.2754 134.892C31.2754 133.1 29.9554 131.648 28.3272 131.648C26.6989 131.648 25.3789 133.1 25.3789 134.892C25.3789 136.683 26.6989 138.135 28.3272 138.135Z" fill="#F2F2F2"/>
<path d="M91.4209 37.3047C93.0492 37.3047 94.3692 35.9847 94.3692 34.3565C94.3692 32.7282 93.0492 31.4082 91.4209 31.4082C89.7926 31.4082 88.4727 32.7282 88.4727 34.3565C88.4727 35.9847 89.7926 37.3047 91.4209 37.3047Z" fill="#F2F2F2"/>
<path d="M96.6671 84.8369C96.2659 84.9981 95.8313 85.076 95.3941 85.065C94.9568 85.0541 94.5274 84.9547 94.1362 84.7738C93.745 84.5928 93.4014 84.3348 93.1298 84.0178C92.8581 83.7008 92.6648 83.3326 92.5637 82.9391L81.9844 81.9509L85.4746 77.9902L94.9858 79.5359C95.712 79.4226 96.4579 79.5596 97.0822 79.9208C97.7065 80.2821 98.1658 80.8425 98.373 81.496C98.5803 82.1494 98.5211 82.8504 98.2067 83.4661C97.8922 84.0819 97.3445 84.5696 96.6671 84.8369Z" fill="#FFB8B8"/>
<path d="M89.9724 83.297L65.707 81.0678L65.6737 81.0296L47.9642 60.7966C46.7988 59.0162 46.3599 56.8589 46.7376 54.7665C47.1153 52.674 48.2809 50.8047 49.9958 49.5412C50.9447 48.8438 52.0309 48.3548 53.183 48.1062C54.3351 47.8577 55.5269 47.8552 56.68 48.099C57.8331 48.3428 58.9213 48.8274 59.8731 49.5208C60.8248 50.2142 61.6185 51.1007 62.2019 52.122L73.1095 71.2194L90.2396 78.0821L89.9724 83.297Z" fill="#CA161C"/>
<path d="M150.868 44.6587C150.268 40.2114 149.515 35.4367 146.412 32.2263C145.427 31.2076 144.248 30.4011 142.947 29.8553C141.645 29.3094 140.248 29.0356 138.839 29.0504C137.43 29.0651 136.038 29.3681 134.748 29.941C133.458 30.514 132.296 31.345 131.332 32.384C129.073 34.8198 128.076 38.2401 127.984 41.5775C127.893 44.9149 128.628 48.2152 129.444 51.4505C133.762 51.5376 138.047 50.6851 142.01 48.9507C143.001 48.516 143.976 48.0246 145.023 47.7553C146.07 47.486 146.816 48.1637 147.79 48.6362L148.325 47.6017C148.762 48.4248 150.117 48.1808 150.609 47.3894C151.1 46.598 150.993 45.5845 150.868 44.6587Z" fill="#2F2E41"/>
<path d="M133.936 69.1118L116.133 69.4893C115.86 69.0207 115.455 68.641 114.968 68.3963C114.481 68.1517 113.933 68.0527 113.39 68.1114C112.847 68.1701 112.333 68.384 111.911 68.727C111.489 69.07 111.176 69.5273 111.011 70.0434C110.846 70.5594 110.835 71.1119 110.981 71.6336C111.127 72.1553 111.423 72.6238 111.832 72.982C112.241 73.3401 112.747 73.5726 113.287 73.651C113.827 73.7295 114.379 73.6506 114.875 73.4239C117.236 73.5569 135.708 76.1567 136.81 74.4813C137.929 72.7807 143.899 66.7793 143.899 66.7793L139.31 60.3008L133.936 69.1118Z" fill="#9E616A"/>
<path d="M138.001 48.5083C142.56 48.5083 146.256 44.8123 146.256 40.2532C146.256 35.694 142.56 31.998 138.001 31.998C133.442 31.998 129.746 35.694 129.746 40.2532C129.746 44.8123 133.442 48.5083 138.001 48.5083Z" fill="#9E616A"/>
<path d="M151.472 56.544C150.497 54.6094 150.023 52.2195 147.944 51.5924C146.541 51.1689 140.863 51.8035 139.584 52.5184C137.456 53.7076 139.385 55.9359 138.129 58.0212C136.764 60.2881 133.056 64.8375 131.691 67.1044C130.753 68.6628 133.913 73.2371 133.406 74.9829C132.898 76.7287 132.874 78.6881 133.738 80.2885C134.511 81.721 133.392 82.9881 134.17 84.4182C134.979 85.9055 135.972 91.4664 135.219 92.9827L134.715 94.4901C139.717 94.7831 143.922 88.826 148.893 88.1985C150.128 88.0426 151.41 87.839 152.427 87.1246C153.926 86.0722 154.518 84.1626 154.888 82.3728C156.67 73.6242 155.468 64.5329 151.472 56.544Z" fill="#C2D43D"/>
<path d="M158.616 77.2987C157.929 75.3854 156.684 67.02 156.684 67.02L148.896 66.7871L152.704 76.3648L142.313 91.1992C142.313 91.1992 142.332 91.2317 142.367 91.2899C141.821 91.2005 141.261 91.2814 140.76 91.5219C140.26 91.7625 139.842 92.1515 139.562 92.6381C139.282 93.1247 139.152 93.6862 139.19 94.2491C139.228 94.812 139.432 95.3502 139.775 95.7931C140.117 96.236 140.583 96.5631 141.111 96.7315C141.639 96.9 142.205 96.9019 142.734 96.7371C143.263 96.5723 143.731 96.2485 144.077 95.8079C144.423 95.3674 144.63 94.8306 144.672 94.268C144.71 94.2904 144.755 94.2984 144.798 94.2908C144.842 94.2832 144.881 94.2604 144.91 94.2263C146.066 92.7466 159.304 79.2121 158.616 77.2987Z" fill="#9E616A"/>
<path d="M159.758 71.5856C159.014 68.5755 158.265 65.5491 157.011 62.699C155.756 59.8489 153.961 57.1568 151.436 55.2313C150.628 54.6157 149.726 54.0724 148.714 53.881C147.702 53.6896 146.561 53.9038 145.85 54.6205C144.713 55.7674 145.055 57.6083 145.472 59.1394C146.702 63.6541 147.932 68.1687 149.162 72.6833C152.715 72.3223 156.267 71.9613 159.819 71.6003L159.758 71.5856Z" fill="#B6C92C"/>
<path d="M148.398 41.4723C148.091 39.4679 147.77 37.4467 147.048 35.5593C146.326 33.672 145.162 31.9042 143.493 30.835C140.85 29.1423 137.428 29.4688 134.465 30.4425C132.173 31.1955 129.936 32.34 128.32 34.1801C126.704 36.0201 125.796 38.6457 126.397 41.0516C129.558 40.31 132.719 39.5685 135.88 38.8269L135.534 39.0697C136.572 39.5836 137.478 40.3255 138.184 41.2391C138.89 42.1528 139.377 43.2141 139.609 44.3426C139.835 45.4848 139.802 46.6626 139.514 47.7908C139.225 48.9191 138.687 49.9695 137.94 50.8661C140.096 50.1067 142.251 49.3474 144.407 48.588C145.738 48.1193 147.162 47.5793 147.951 46.3771C148.866 44.9832 148.653 43.1357 148.398 41.4723Z" fill="#2F2E41"/>
</g>
</svg>
