<svg width="294" height="49" viewBox="0 0 294 49" fill="none" xmlns="http://www.w3.org/2000/svg">
<mask id="path-1-inside-1_2202_4858" fill="white">
<path d="M0 0H294V49H0V0Z"/>
</mask>
<path d="M0 0H294V49H0V0Z" fill="white"/>
<path d="M294 0H293V49H294H295V0H294ZM0 49H1V0H0H-1V49H0Z" fill="#D9D9D9" mask="url(#path-1-inside-1_2202_4858)"/>
<path d="M65.5 13.5H105.5" stroke="#0076BE" stroke-width="4"/>
<path d="M110.5 13.5H164.5" stroke="#E62129" stroke-width="4"/>
<path d="M169.5 13.5H228.5" stroke="#98A725" stroke-width="4"/>
<path d="M69.2362 29.584C68.6842 29.584 68.1882 29.488 67.7482 29.296C67.3162 29.096 66.9762 28.824 66.7282 28.48C66.4802 28.128 66.3522 27.724 66.3442 27.268H67.5082C67.5482 27.66 67.7082 27.992 67.9882 28.264C68.2762 28.528 68.6922 28.66 69.2362 28.66C69.7562 28.66 70.1642 28.532 70.4602 28.276C70.7642 28.012 70.9162 27.676 70.9162 27.268C70.9162 26.948 70.8282 26.688 70.6522 26.488C70.4762 26.288 70.2562 26.136 69.9922 26.032C69.7282 25.928 69.3722 25.816 68.9242 25.696C68.3722 25.552 67.9282 25.408 67.5922 25.264C67.2642 25.12 66.9802 24.896 66.7402 24.592C66.5082 24.28 66.3922 23.864 66.3922 23.344C66.3922 22.888 66.5082 22.484 66.7402 22.132C66.9722 21.78 67.2962 21.508 67.7122 21.316C68.1362 21.124 68.6202 21.028 69.1642 21.028C69.9482 21.028 70.5882 21.224 71.0842 21.616C71.5882 22.008 71.8722 22.528 71.9362 23.176H70.7362C70.6962 22.856 70.5282 22.576 70.2322 22.336C69.9362 22.088 69.5442 21.964 69.0562 21.964C68.6002 21.964 68.2282 22.084 67.9402 22.324C67.6522 22.556 67.5082 22.884 67.5082 23.308C67.5082 23.612 67.5922 23.86 67.7602 24.052C67.9362 24.244 68.1482 24.392 68.3962 24.496C68.6522 24.592 69.0082 24.704 69.4642 24.832C70.0162 24.984 70.4602 25.136 70.7962 25.288C71.1322 25.432 71.4202 25.66 71.6602 25.972C71.9002 26.276 72.0202 26.692 72.0202 27.22C72.0202 27.628 71.9122 28.012 71.6962 28.372C71.4802 28.732 71.1602 29.024 70.7362 29.248C70.3122 29.472 69.8122 29.584 69.2362 29.584ZM74.1911 21.856C73.9831 21.856 73.8071 21.784 73.6631 21.64C73.5191 21.496 73.4471 21.32 73.4471 21.112C73.4471 20.904 73.5191 20.728 73.6631 20.584C73.8071 20.44 73.9831 20.368 74.1911 20.368C74.3911 20.368 74.5591 20.44 74.6951 20.584C74.8391 20.728 74.9111 20.904 74.9111 21.112C74.9111 21.32 74.8391 21.496 74.6951 21.64C74.5591 21.784 74.3911 21.856 74.1911 21.856ZM74.7191 22.924V29.5H73.6271V22.924H74.7191ZM78.9083 29.608C78.4043 29.608 77.9523 29.524 77.5523 29.356C77.1523 29.18 76.8363 28.94 76.6043 28.636C76.3723 28.324 76.2443 27.968 76.2203 27.568H77.3483C77.3803 27.896 77.5323 28.164 77.8043 28.372C78.0843 28.58 78.4483 28.684 78.8963 28.684C79.3123 28.684 79.6403 28.592 79.8803 28.408C80.1203 28.224 80.2403 27.992 80.2403 27.712C80.2403 27.424 80.1123 27.212 79.8563 27.076C79.6003 26.932 79.2043 26.792 78.6683 26.656C78.1803 26.528 77.7803 26.4 77.4683 26.272C77.1643 26.136 76.9003 25.94 76.6763 25.684C76.4603 25.42 76.3523 25.076 76.3523 24.652C76.3523 24.316 76.4523 24.008 76.6523 23.728C76.8523 23.448 77.1363 23.228 77.5043 23.068C77.8723 22.9 78.2923 22.816 78.7643 22.816C79.4923 22.816 80.0803 23 80.5283 23.368C80.9763 23.736 81.2163 24.24 81.2483 24.88H80.1563C80.1323 24.536 79.9923 24.26 79.7363 24.052C79.4883 23.844 79.1523 23.74 78.7283 23.74C78.3363 23.74 78.0243 23.824 77.7923 23.992C77.5603 24.16 77.4443 24.38 77.4443 24.652C77.4443 24.868 77.5123 25.048 77.6483 25.192C77.7923 25.328 77.9683 25.44 78.1763 25.528C78.3923 25.608 78.6883 25.7 79.0643 25.804C79.5363 25.932 79.9203 26.06 80.2163 26.188C80.5123 26.308 80.7643 26.492 80.9723 26.74C81.1883 26.988 81.3003 27.312 81.3083 27.712C81.3083 28.072 81.2083 28.396 81.0083 28.684C80.8083 28.972 80.5243 29.2 80.1563 29.368C79.7963 29.528 79.3803 29.608 78.9083 29.608ZM84.1818 23.824V27.7C84.1818 28.02 84.2498 28.248 84.3858 28.384C84.5218 28.512 84.7578 28.576 85.0938 28.576H85.8978V29.5H84.9138C84.3058 29.5 83.8498 29.36 83.5458 29.08C83.2418 28.8 83.0898 28.34 83.0898 27.7V23.824H82.2378V22.924H83.0898V21.268H84.1818V22.924H85.8978V23.824H84.1818ZM93.2209 25.96C93.2209 26.168 93.2089 26.388 93.1849 26.62H87.9289C87.9689 27.268 88.1889 27.776 88.5889 28.144C88.9969 28.504 89.4889 28.684 90.0649 28.684C90.5369 28.684 90.9289 28.576 91.2409 28.36C91.5609 28.136 91.7849 27.84 91.9129 27.472H93.0889C92.9129 28.104 92.5609 28.62 92.0329 29.02C91.5049 29.412 90.8489 29.608 90.0649 29.608C89.4409 29.608 88.8809 29.468 88.3849 29.188C87.8969 28.908 87.5129 28.512 87.2329 28C86.9529 27.48 86.8129 26.88 86.8129 26.2C86.8129 25.52 86.9489 24.924 87.2209 24.412C87.4929 23.9 87.8729 23.508 88.3609 23.236C88.8569 22.956 89.4249 22.816 90.0649 22.816C90.6889 22.816 91.2409 22.952 91.7209 23.224C92.2009 23.496 92.5689 23.872 92.8249 24.352C93.0889 24.824 93.2209 25.36 93.2209 25.96ZM92.0929 25.732C92.0929 25.316 92.0009 24.96 91.8169 24.664C91.6329 24.36 91.3809 24.132 91.0609 23.98C90.7489 23.82 90.4009 23.74 90.0169 23.74C89.4649 23.74 88.9929 23.916 88.6009 24.268C88.2169 24.62 87.9969 25.108 87.9409 25.732H92.0929ZM102.57 22.804C103.082 22.804 103.538 22.912 103.938 23.128C104.338 23.336 104.654 23.652 104.886 24.076C105.118 24.5 105.234 25.016 105.234 25.624V29.5H104.154V25.78C104.154 25.124 103.99 24.624 103.662 24.28C103.342 23.928 102.906 23.752 102.354 23.752C101.786 23.752 101.334 23.936 100.998 24.304C100.662 24.664 100.494 25.188 100.494 25.876V29.5H99.4143V25.78C99.4143 25.124 99.2503 24.624 98.9223 24.28C98.6023 23.928 98.1663 23.752 97.6143 23.752C97.0463 23.752 96.5943 23.936 96.2583 24.304C95.9223 24.664 95.7543 25.188 95.7543 25.876V29.5H94.6623V22.924H95.7543V23.872C95.9703 23.528 96.2583 23.264 96.6183 23.08C96.9863 22.896 97.3903 22.804 97.8303 22.804C98.3823 22.804 98.8703 22.928 99.2943 23.176C99.7183 23.424 100.034 23.788 100.242 24.268C100.426 23.804 100.73 23.444 101.154 23.188C101.578 22.932 102.05 22.804 102.57 22.804Z" fill="#0076BE"/>
<path d="M111.317 21.136V29.5H110.225V21.136H111.317ZM116.382 22.804C117.182 22.804 117.83 23.048 118.326 23.536C118.822 24.016 119.07 24.712 119.07 25.624V29.5H117.99V25.78C117.99 25.124 117.826 24.624 117.498 24.28C117.17 23.928 116.722 23.752 116.154 23.752C115.578 23.752 115.118 23.932 114.774 24.292C114.438 24.652 114.27 25.176 114.27 25.864V29.5H113.178V22.924H114.27V23.86C114.486 23.524 114.778 23.264 115.146 23.08C115.522 22.896 115.934 22.804 116.382 22.804ZM123.53 23.824H122.15V29.5H121.058V23.824H120.206V22.924H121.058V22.456C121.058 21.72 121.246 21.184 121.622 20.848C122.006 20.504 122.618 20.332 123.458 20.332V21.244C122.978 21.244 122.638 21.34 122.438 21.532C122.246 21.716 122.15 22.024 122.15 22.456V22.924H123.53V23.824ZM127.671 29.608C127.055 29.608 126.495 29.468 125.991 29.188C125.495 28.908 125.103 28.512 124.815 28C124.535 27.48 124.395 26.88 124.395 26.2C124.395 25.528 124.539 24.936 124.827 24.424C125.123 23.904 125.523 23.508 126.027 23.236C126.531 22.956 127.095 22.816 127.719 22.816C128.343 22.816 128.907 22.956 129.411 23.236C129.915 23.508 130.311 23.9 130.599 24.412C130.895 24.924 131.043 25.52 131.043 26.2C131.043 26.88 130.891 27.48 130.587 28C130.291 28.512 129.887 28.908 129.375 29.188C128.863 29.468 128.295 29.608 127.671 29.608ZM127.671 28.648C128.063 28.648 128.431 28.556 128.775 28.372C129.119 28.188 129.395 27.912 129.603 27.544C129.819 27.176 129.927 26.728 129.927 26.2C129.927 25.672 129.823 25.224 129.615 24.856C129.407 24.488 129.135 24.216 128.799 24.04C128.463 23.856 128.099 23.764 127.707 23.764C127.307 23.764 126.939 23.856 126.603 24.04C126.275 24.216 126.011 24.488 125.811 24.856C125.611 25.224 125.511 25.672 125.511 26.2C125.511 26.736 125.607 27.188 125.799 27.556C125.999 27.924 126.263 28.2 126.591 28.384C126.919 28.56 127.279 28.648 127.671 28.648ZM133.571 23.992C133.763 23.616 134.035 23.324 134.387 23.116C134.747 22.908 135.183 22.804 135.695 22.804V23.932H135.407C134.183 23.932 133.571 24.596 133.571 25.924V29.5H132.479V22.924H133.571V23.992ZM144.863 22.804C145.375 22.804 145.831 22.912 146.231 23.128C146.631 23.336 146.947 23.652 147.179 24.076C147.411 24.5 147.527 25.016 147.527 25.624V29.5H146.447V25.78C146.447 25.124 146.283 24.624 145.955 24.28C145.635 23.928 145.199 23.752 144.647 23.752C144.079 23.752 143.627 23.936 143.291 24.304C142.955 24.664 142.787 25.188 142.787 25.876V29.5H141.707V25.78C141.707 25.124 141.543 24.624 141.215 24.28C140.895 23.928 140.459 23.752 139.907 23.752C139.339 23.752 138.887 23.936 138.551 24.304C138.215 24.664 138.047 25.188 138.047 25.876V29.5H136.955V22.924H138.047V23.872C138.263 23.528 138.551 23.264 138.911 23.08C139.279 22.896 139.683 22.804 140.123 22.804C140.675 22.804 141.163 22.928 141.587 23.176C142.011 23.424 142.327 23.788 142.535 24.268C142.719 23.804 143.023 23.444 143.447 23.188C143.871 22.932 144.343 22.804 144.863 22.804ZM148.911 26.188C148.911 25.516 149.047 24.928 149.319 24.424C149.591 23.912 149.963 23.516 150.435 23.236C150.915 22.956 151.447 22.816 152.031 22.816C152.607 22.816 153.107 22.94 153.531 23.188C153.955 23.436 154.271 23.748 154.479 24.124V22.924H155.583V29.5H154.479V28.276C154.263 28.66 153.939 28.98 153.507 29.236C153.083 29.484 152.587 29.608 152.019 29.608C151.435 29.608 150.907 29.464 150.435 29.176C149.963 28.888 149.591 28.484 149.319 27.964C149.047 27.444 148.911 26.852 148.911 26.188ZM154.479 26.2C154.479 25.704 154.379 25.272 154.179 24.904C153.979 24.536 153.707 24.256 153.363 24.064C153.027 23.864 152.655 23.764 152.247 23.764C151.839 23.764 151.467 23.86 151.131 24.052C150.795 24.244 150.527 24.524 150.327 24.892C150.127 25.26 150.027 25.692 150.027 26.188C150.027 26.692 150.127 27.132 150.327 27.508C150.527 27.876 150.795 28.16 151.131 28.36C151.467 28.552 151.839 28.648 152.247 28.648C152.655 28.648 153.027 28.552 153.363 28.36C153.707 28.16 153.979 27.876 154.179 27.508C154.379 27.132 154.479 26.696 154.479 26.2ZM159.756 29.608C159.252 29.608 158.8 29.524 158.4 29.356C158 29.18 157.684 28.94 157.452 28.636C157.22 28.324 157.092 27.968 157.068 27.568H158.196C158.228 27.896 158.38 28.164 158.652 28.372C158.932 28.58 159.296 28.684 159.744 28.684C160.16 28.684 160.488 28.592 160.728 28.408C160.968 28.224 161.088 27.992 161.088 27.712C161.088 27.424 160.96 27.212 160.704 27.076C160.448 26.932 160.052 26.792 159.516 26.656C159.028 26.528 158.628 26.4 158.316 26.272C158.012 26.136 157.748 25.94 157.524 25.684C157.308 25.42 157.2 25.076 157.2 24.652C157.2 24.316 157.3 24.008 157.5 23.728C157.7 23.448 157.984 23.228 158.352 23.068C158.72 22.9 159.14 22.816 159.612 22.816C160.34 22.816 160.928 23 161.376 23.368C161.824 23.736 162.064 24.24 162.096 24.88H161.004C160.98 24.536 160.84 24.26 160.584 24.052C160.336 23.844 160 23.74 159.576 23.74C159.184 23.74 158.872 23.824 158.64 23.992C158.408 24.16 158.292 24.38 158.292 24.652C158.292 24.868 158.36 25.048 158.496 25.192C158.64 25.328 158.816 25.44 159.024 25.528C159.24 25.608 159.536 25.7 159.912 25.804C160.384 25.932 160.768 26.06 161.064 26.188C161.36 26.308 161.612 26.492 161.82 26.74C162.036 26.988 162.148 27.312 162.156 27.712C162.156 28.072 162.056 28.396 161.856 28.684C161.656 28.972 161.372 29.2 161.004 29.368C160.644 29.528 160.228 29.608 159.756 29.608ZM164.261 21.856C164.053 21.856 163.877 21.784 163.733 21.64C163.589 21.496 163.517 21.32 163.517 21.112C163.517 20.904 163.589 20.728 163.733 20.584C163.877 20.44 164.053 20.368 164.261 20.368C164.461 20.368 164.629 20.44 164.765 20.584C164.909 20.728 164.981 20.904 164.981 21.112C164.981 21.32 164.909 21.496 164.765 21.64C164.629 21.784 164.461 21.856 164.261 21.856ZM164.789 22.924V29.5H163.697V22.924H164.789Z" fill="#E62129"/>
<path d="M174.794 27.64H171.146L170.474 29.5H169.322L172.346 21.184H173.606L176.618 29.5H175.466L174.794 27.64ZM174.482 26.752L172.97 22.528L171.458 26.752H174.482ZM181.608 29.5L179.028 26.596V29.5H177.936V20.62H179.028V25.84L181.56 22.924H183.084L179.988 26.2L183.096 29.5H181.608ZM183.704 26.188C183.704 25.516 183.84 24.928 184.112 24.424C184.384 23.912 184.756 23.516 185.228 23.236C185.708 22.956 186.24 22.816 186.824 22.816C187.4 22.816 187.9 22.94 188.324 23.188C188.748 23.436 189.064 23.748 189.272 24.124V22.924H190.376V29.5H189.272V28.276C189.056 28.66 188.732 28.98 188.3 29.236C187.876 29.484 187.38 29.608 186.812 29.608C186.228 29.608 185.7 29.464 185.228 29.176C184.756 28.888 184.384 28.484 184.112 27.964C183.84 27.444 183.704 26.852 183.704 26.188ZM189.272 26.2C189.272 25.704 189.172 25.272 188.972 24.904C188.772 24.536 188.5 24.256 188.156 24.064C187.82 23.864 187.448 23.764 187.04 23.764C186.632 23.764 186.26 23.86 185.924 24.052C185.588 24.244 185.32 24.524 185.12 24.892C184.92 25.26 184.82 25.692 184.82 26.188C184.82 26.692 184.92 27.132 185.12 27.508C185.32 27.876 185.588 28.16 185.924 28.36C186.26 28.552 186.632 28.648 187.04 28.648C187.448 28.648 187.82 28.552 188.156 28.36C188.5 28.16 188.772 27.876 188.972 27.508C189.172 27.132 189.272 26.696 189.272 26.2ZM191.813 26.188C191.813 25.516 191.949 24.928 192.221 24.424C192.493 23.912 192.865 23.516 193.337 23.236C193.817 22.956 194.353 22.816 194.945 22.816C195.457 22.816 195.933 22.936 196.373 23.176C196.813 23.408 197.149 23.716 197.381 24.1V20.62H198.485V29.5H197.381V28.264C197.165 28.656 196.845 28.98 196.421 29.236C195.997 29.484 195.501 29.608 194.933 29.608C194.349 29.608 193.817 29.464 193.337 29.176C192.865 28.888 192.493 28.484 192.221 27.964C191.949 27.444 191.813 26.852 191.813 26.188ZM197.381 26.2C197.381 25.704 197.281 25.272 197.081 24.904C196.881 24.536 196.609 24.256 196.265 24.064C195.929 23.864 195.557 23.764 195.149 23.764C194.741 23.764 194.369 23.86 194.033 24.052C193.697 24.244 193.429 24.524 193.229 24.892C193.029 25.26 192.929 25.692 192.929 26.188C192.929 26.692 193.029 27.132 193.229 27.508C193.429 27.876 193.697 28.16 194.033 28.36C194.369 28.552 194.741 28.648 195.149 28.648C195.557 28.648 195.929 28.552 196.265 28.36C196.609 28.16 196.881 27.876 197.081 27.508C197.281 27.132 197.381 26.696 197.381 26.2ZM206.33 25.96C206.33 26.168 206.318 26.388 206.294 26.62H201.038C201.078 27.268 201.298 27.776 201.698 28.144C202.106 28.504 202.598 28.684 203.174 28.684C203.646 28.684 204.038 28.576 204.35 28.36C204.67 28.136 204.894 27.84 205.022 27.472H206.198C206.022 28.104 205.67 28.62 205.142 29.02C204.614 29.412 203.958 29.608 203.174 29.608C202.55 29.608 201.99 29.468 201.494 29.188C201.006 28.908 200.622 28.512 200.342 28C200.062 27.48 199.922 26.88 199.922 26.2C199.922 25.52 200.058 24.924 200.33 24.412C200.602 23.9 200.982 23.508 201.47 23.236C201.966 22.956 202.534 22.816 203.174 22.816C203.798 22.816 204.35 22.952 204.83 23.224C205.31 23.496 205.678 23.872 205.934 24.352C206.198 24.824 206.33 25.36 206.33 25.96ZM205.202 25.732C205.202 25.316 205.11 24.96 204.926 24.664C204.742 24.36 204.49 24.132 204.17 23.98C203.858 23.82 203.51 23.74 203.126 23.74C202.574 23.74 202.102 23.916 201.71 24.268C201.326 24.62 201.106 25.108 201.05 25.732H205.202ZM215.68 22.804C216.192 22.804 216.648 22.912 217.048 23.128C217.448 23.336 217.764 23.652 217.996 24.076C218.228 24.5 218.344 25.016 218.344 25.624V29.5H217.264V25.78C217.264 25.124 217.1 24.624 216.772 24.28C216.452 23.928 216.016 23.752 215.464 23.752C214.896 23.752 214.444 23.936 214.108 24.304C213.772 24.664 213.604 25.188 213.604 25.876V29.5H212.524V25.78C212.524 25.124 212.36 24.624 212.032 24.28C211.712 23.928 211.276 23.752 210.724 23.752C210.156 23.752 209.704 23.936 209.368 24.304C209.032 24.664 208.864 25.188 208.864 25.876V29.5H207.772V22.924H208.864V23.872C209.08 23.528 209.368 23.264 209.728 23.08C210.096 22.896 210.5 22.804 210.94 22.804C211.492 22.804 211.98 22.928 212.404 23.176C212.828 23.424 213.144 23.788 213.352 24.268C213.536 23.804 213.84 23.444 214.264 23.188C214.688 22.932 215.16 22.804 215.68 22.804ZM220.699 21.856C220.491 21.856 220.315 21.784 220.171 21.64C220.027 21.496 219.955 21.32 219.955 21.112C219.955 20.904 220.027 20.728 220.171 20.584C220.315 20.44 220.491 20.368 220.699 20.368C220.899 20.368 221.067 20.44 221.203 20.584C221.347 20.728 221.419 20.904 221.419 21.112C221.419 21.32 221.347 21.496 221.203 21.64C221.067 21.784 220.899 21.856 220.699 21.856ZM221.227 22.924V29.5H220.135V22.924H221.227ZM226.76 29.5L224.18 26.596V29.5H223.088V20.62H224.18V25.84L226.712 22.924H228.236L225.14 26.2L228.248 29.5H226.76Z" fill="#98A725"/>
</svg>
