<svg width="163" height="10" viewBox="0 0 163 10" fill="none" xmlns="http://www.w3.org/2000/svg">
<path d="M3.23616 9.584C2.68416 9.584 2.18816 9.488 1.74816 9.296C1.31616 9.096 0.976156 8.824 0.728156 8.48C0.480156 8.128 0.352156 7.724 0.344156 7.268H1.50816C1.54816 7.66 1.70816 7.992 1.98816 8.264C2.27616 8.528 2.69216 8.66 3.23616 8.66C3.75616 8.66 4.16416 8.532 4.46016 8.276C4.76416 8.012 4.91616 7.676 4.91616 7.268C4.91616 6.948 4.82816 6.688 4.65216 6.488C4.47616 6.288 4.25616 6.136 3.99216 6.032C3.72816 5.928 3.37216 5.816 2.92416 5.696C2.37216 5.552 1.92816 5.408 1.59216 5.264C1.26416 5.12 0.980156 4.896 0.740156 4.592C0.508156 4.28 0.392156 3.864 0.392156 3.344C0.392156 2.888 0.508156 2.484 0.740156 2.132C0.972156 1.78 1.29616 1.508 1.71216 1.316C2.13616 1.124 2.62016 1.028 3.16416 1.028C3.94816 1.028 4.58816 1.224 5.08416 1.616C5.58816 2.008 5.87216 2.528 5.93616 3.176H4.73616C4.69616 2.856 4.52816 2.576 4.23216 2.336C3.93616 2.088 3.54416 1.964 3.05616 1.964C2.60016 1.964 2.22816 2.084 1.94016 2.324C1.65216 2.556 1.50816 2.884 1.50816 3.308C1.50816 3.612 1.59216 3.86 1.76016 4.052C1.93616 4.244 2.14816 4.392 2.39616 4.496C2.65216 4.592 3.00816 4.704 3.46416 4.832C4.01616 4.984 4.46016 5.136 4.79616 5.288C5.13216 5.432 5.42016 5.66 5.66016 5.972C5.90016 6.276 6.02016 6.692 6.02016 7.22C6.02016 7.628 5.91216 8.012 5.69616 8.372C5.48016 8.732 5.16016 9.024 4.73616 9.248C4.31216 9.472 3.81216 9.584 3.23616 9.584ZM8.19113 1.856C7.98313 1.856 7.80713 1.784 7.66313 1.64C7.51913 1.496 7.44713 1.32 7.44713 1.112C7.44713 0.904 7.51913 0.728 7.66313 0.584C7.80713 0.44 7.98313 0.368 8.19113 0.368C8.39113 0.368 8.55913 0.44 8.69513 0.584C8.83913 0.728 8.91113 0.904 8.91113 1.112C8.91113 1.32 8.83913 1.496 8.69513 1.64C8.55913 1.784 8.39113 1.856 8.19113 1.856ZM8.71913 2.924V9.5H7.62713V2.924H8.71913ZM12.9083 9.608C12.4043 9.608 11.9523 9.524 11.5523 9.356C11.1523 9.18 10.8363 8.94 10.6043 8.636C10.3723 8.324 10.2443 7.968 10.2203 7.568H11.3483C11.3803 7.896 11.5323 8.164 11.8043 8.372C12.0843 8.58 12.4483 8.684 12.8963 8.684C13.3123 8.684 13.6403 8.592 13.8803 8.408C14.1203 8.224 14.2403 7.992 14.2403 7.712C14.2403 7.424 14.1123 7.212 13.8563 7.076C13.6003 6.932 13.2043 6.792 12.6683 6.656C12.1803 6.528 11.7803 6.4 11.4683 6.272C11.1643 6.136 10.9003 5.94 10.6763 5.684C10.4603 5.42 10.3523 5.076 10.3523 4.652C10.3523 4.316 10.4523 4.008 10.6523 3.728C10.8523 3.448 11.1363 3.228 11.5043 3.068C11.8723 2.9 12.2923 2.816 12.7643 2.816C13.4923 2.816 14.0803 3 14.5283 3.368C14.9763 3.736 15.2163 4.24 15.2483 4.88H14.1563C14.1323 4.536 13.9923 4.26 13.7363 4.052C13.4883 3.844 13.1523 3.74 12.7283 3.74C12.3363 3.74 12.0243 3.824 11.7923 3.992C11.5603 4.16 11.4443 4.38 11.4443 4.652C11.4443 4.868 11.5123 5.048 11.6483 5.192C11.7923 5.328 11.9683 5.44 12.1763 5.528C12.3923 5.608 12.6883 5.7 13.0643 5.804C13.5363 5.932 13.9203 6.06 14.2163 6.188C14.5123 6.308 14.7643 6.492 14.9723 6.74C15.1883 6.988 15.3003 7.312 15.3083 7.712C15.3083 8.072 15.2083 8.396 15.0083 8.684C14.8083 8.972 14.5243 9.2 14.1563 9.368C13.7963 9.528 13.3803 9.608 12.9083 9.608ZM18.1818 3.824V7.7C18.1818 8.02 18.2498 8.248 18.3858 8.384C18.5218 8.512 18.7578 8.576 19.0938 8.576H19.8978V9.5H18.9138C18.3058 9.5 17.8498 9.36 17.5458 9.08C17.2418 8.8 17.0898 8.34 17.0898 7.7V3.824H16.2378V2.924H17.0898V1.268H18.1818V2.924H19.8978V3.824H18.1818ZM27.2209 5.96C27.2209 6.168 27.2089 6.388 27.1849 6.62H21.9289C21.9689 7.268 22.1889 7.776 22.5889 8.144C22.9969 8.504 23.4889 8.684 24.0649 8.684C24.5369 8.684 24.9289 8.576 25.2409 8.36C25.5609 8.136 25.7849 7.84 25.9129 7.472H27.0889C26.9129 8.104 26.5609 8.62 26.0329 9.02C25.5049 9.412 24.8489 9.608 24.0649 9.608C23.4409 9.608 22.8809 9.468 22.3849 9.188C21.8969 8.908 21.5129 8.512 21.2329 8C20.9529 7.48 20.8129 6.88 20.8129 6.2C20.8129 5.52 20.9489 4.924 21.2209 4.412C21.4929 3.9 21.8729 3.508 22.3609 3.236C22.8569 2.956 23.4249 2.816 24.0649 2.816C24.6889 2.816 25.2409 2.952 25.7209 3.224C26.2009 3.496 26.5689 3.872 26.8249 4.352C27.0889 4.824 27.2209 5.36 27.2209 5.96ZM26.0929 5.732C26.0929 5.316 26.0009 4.96 25.8169 4.664C25.6329 4.36 25.3809 4.132 25.0609 3.98C24.7489 3.82 24.4009 3.74 24.0169 3.74C23.4649 3.74 22.9929 3.916 22.6009 4.268C22.2169 4.62 21.9969 5.108 21.9409 5.732H26.0929ZM36.5703 2.804C37.0823 2.804 37.5383 2.912 37.9383 3.128C38.3383 3.336 38.6543 3.652 38.8863 4.076C39.1183 4.5 39.2343 5.016 39.2343 5.624V9.5H38.1543V5.78C38.1543 5.124 37.9903 4.624 37.6623 4.28C37.3423 3.928 36.9063 3.752 36.3543 3.752C35.7863 3.752 35.3343 3.936 34.9983 4.304C34.6623 4.664 34.4943 5.188 34.4943 5.876V9.5H33.4143V5.78C33.4143 5.124 33.2503 4.624 32.9223 4.28C32.6023 3.928 32.1663 3.752 31.6143 3.752C31.0463 3.752 30.5943 3.936 30.2583 4.304C29.9223 4.664 29.7543 5.188 29.7543 5.876V9.5H28.6623V2.924H29.7543V3.872C29.9703 3.528 30.2583 3.264 30.6183 3.08C30.9863 2.896 31.3903 2.804 31.8303 2.804C32.3823 2.804 32.8703 2.928 33.2943 3.176C33.7183 3.424 34.0343 3.788 34.2423 4.268C34.4263 3.804 34.7303 3.444 35.1543 3.188C35.5783 2.932 36.0503 2.804 36.5703 2.804Z" fill="#0076BE"/>
<path d="M45.3168 1.136V9.5H44.2248V1.136H45.3168ZM50.3819 2.804C51.1819 2.804 51.8299 3.048 52.3259 3.536C52.8219 4.016 53.0699 4.712 53.0699 5.624V9.5H51.9899V5.78C51.9899 5.124 51.8259 4.624 51.4979 4.28C51.1699 3.928 50.7219 3.752 50.1539 3.752C49.5779 3.752 49.1179 3.932 48.7739 4.292C48.4379 4.652 48.2699 5.176 48.2699 5.864V9.5H47.1779V2.924H48.2699V3.86C48.4859 3.524 48.7779 3.264 49.1459 3.08C49.5219 2.896 49.9339 2.804 50.3819 2.804ZM57.5297 3.824H56.1497V9.5H55.0577V3.824H54.2057V2.924H55.0577V2.456C55.0577 1.72 55.2457 1.184 55.6217 0.848C56.0057 0.503999 56.6177 0.331999 57.4577 0.331999V1.244C56.9777 1.244 56.6377 1.34 56.4377 1.532C56.2457 1.716 56.1497 2.024 56.1497 2.456V2.924H57.5297V3.824ZM61.6709 9.608C61.0549 9.608 60.4949 9.468 59.9909 9.188C59.4949 8.908 59.1029 8.512 58.8149 8C58.5349 7.48 58.3949 6.88 58.3949 6.2C58.3949 5.528 58.5389 4.936 58.8269 4.424C59.1229 3.904 59.5229 3.508 60.0269 3.236C60.5309 2.956 61.0949 2.816 61.7189 2.816C62.3429 2.816 62.9069 2.956 63.4109 3.236C63.9149 3.508 64.3109 3.9 64.5989 4.412C64.8949 4.924 65.0429 5.52 65.0429 6.2C65.0429 6.88 64.8909 7.48 64.5869 8C64.2909 8.512 63.8869 8.908 63.3749 9.188C62.8629 9.468 62.2949 9.608 61.6709 9.608ZM61.6709 8.648C62.0629 8.648 62.4309 8.556 62.7749 8.372C63.1189 8.188 63.3949 7.912 63.6029 7.544C63.8189 7.176 63.9269 6.728 63.9269 6.2C63.9269 5.672 63.8229 5.224 63.6149 4.856C63.4069 4.488 63.1349 4.216 62.7989 4.04C62.4629 3.856 62.0989 3.764 61.7069 3.764C61.3069 3.764 60.9389 3.856 60.6029 4.04C60.2749 4.216 60.0109 4.488 59.8109 4.856C59.6109 5.224 59.5109 5.672 59.5109 6.2C59.5109 6.736 59.6069 7.188 59.7989 7.556C59.9989 7.924 60.2629 8.2 60.5909 8.384C60.9189 8.56 61.2789 8.648 61.6709 8.648ZM67.5707 3.992C67.7627 3.616 68.0347 3.324 68.3867 3.116C68.7467 2.908 69.1827 2.804 69.6947 2.804V3.932H69.4067C68.1827 3.932 67.5707 4.596 67.5707 5.924V9.5H66.4787V2.924H67.5707V3.992ZM78.8633 2.804C79.3753 2.804 79.8313 2.912 80.2313 3.128C80.6313 3.336 80.9473 3.652 81.1793 4.076C81.4113 4.5 81.5273 5.016 81.5273 5.624V9.5H80.4473V5.78C80.4473 5.124 80.2833 4.624 79.9553 4.28C79.6353 3.928 79.1993 3.752 78.6473 3.752C78.0793 3.752 77.6273 3.936 77.2913 4.304C76.9553 4.664 76.7873 5.188 76.7873 5.876V9.5H75.7073V5.78C75.7073 5.124 75.5433 4.624 75.2153 4.28C74.8953 3.928 74.4593 3.752 73.9073 3.752C73.3393 3.752 72.8873 3.936 72.5513 4.304C72.2153 4.664 72.0473 5.188 72.0473 5.876V9.5H70.9553V2.924H72.0473V3.872C72.2633 3.528 72.5513 3.264 72.9113 3.08C73.2793 2.896 73.6833 2.804 74.1233 2.804C74.6753 2.804 75.1633 2.928 75.5873 3.176C76.0113 3.424 76.3273 3.788 76.5353 4.268C76.7193 3.804 77.0233 3.444 77.4473 3.188C77.8713 2.932 78.3433 2.804 78.8633 2.804ZM82.9105 6.188C82.9105 5.516 83.0465 4.928 83.3185 4.424C83.5905 3.912 83.9625 3.516 84.4345 3.236C84.9145 2.956 85.4465 2.816 86.0305 2.816C86.6065 2.816 87.1065 2.94 87.5305 3.188C87.9545 3.436 88.2705 3.748 88.4785 4.124V2.924H89.5825V9.5H88.4785V8.276C88.2625 8.66 87.9385 8.98 87.5065 9.236C87.0825 9.484 86.5865 9.608 86.0185 9.608C85.4345 9.608 84.9065 9.464 84.4345 9.176C83.9625 8.888 83.5905 8.484 83.3185 7.964C83.0465 7.444 82.9105 6.852 82.9105 6.188ZM88.4785 6.2C88.4785 5.704 88.3785 5.272 88.1785 4.904C87.9785 4.536 87.7065 4.256 87.3625 4.064C87.0265 3.864 86.6545 3.764 86.2465 3.764C85.8385 3.764 85.4665 3.86 85.1305 4.052C84.7945 4.244 84.5265 4.524 84.3265 4.892C84.1265 5.26 84.0265 5.692 84.0265 6.188C84.0265 6.692 84.1265 7.132 84.3265 7.508C84.5265 7.876 84.7945 8.16 85.1305 8.36C85.4665 8.552 85.8385 8.648 86.2465 8.648C86.6545 8.648 87.0265 8.552 87.3625 8.36C87.7065 8.16 87.9785 7.876 88.1785 7.508C88.3785 7.132 88.4785 6.696 88.4785 6.2ZM93.7559 9.608C93.2519 9.608 92.7999 9.524 92.3999 9.356C91.9999 9.18 91.6839 8.94 91.4519 8.636C91.2199 8.324 91.0919 7.968 91.0679 7.568H92.1959C92.2279 7.896 92.3799 8.164 92.6519 8.372C92.9319 8.58 93.2959 8.684 93.7439 8.684C94.1599 8.684 94.4879 8.592 94.7279 8.408C94.9679 8.224 95.0879 7.992 95.0879 7.712C95.0879 7.424 94.9599 7.212 94.7039 7.076C94.4479 6.932 94.0519 6.792 93.5159 6.656C93.0279 6.528 92.6279 6.4 92.3159 6.272C92.0119 6.136 91.7479 5.94 91.5239 5.684C91.3079 5.42 91.1999 5.076 91.1999 4.652C91.1999 4.316 91.2999 4.008 91.4999 3.728C91.6999 3.448 91.9839 3.228 92.3519 3.068C92.7199 2.9 93.1399 2.816 93.6119 2.816C94.3399 2.816 94.9279 3 95.3759 3.368C95.8239 3.736 96.0639 4.24 96.0959 4.88H95.0039C94.9799 4.536 94.8399 4.26 94.5839 4.052C94.3359 3.844 93.9999 3.74 93.5759 3.74C93.1839 3.74 92.8719 3.824 92.6399 3.992C92.4079 4.16 92.2919 4.38 92.2919 4.652C92.2919 4.868 92.3599 5.048 92.4959 5.192C92.6399 5.328 92.8159 5.44 93.0239 5.528C93.2399 5.608 93.5359 5.7 93.9119 5.804C94.3839 5.932 94.7679 6.06 95.0639 6.188C95.3599 6.308 95.6119 6.492 95.8199 6.74C96.0359 6.988 96.1479 7.312 96.1559 7.712C96.1559 8.072 96.0559 8.396 95.8559 8.684C95.6559 8.972 95.3719 9.2 95.0039 9.368C94.6439 9.528 94.2279 9.608 93.7559 9.608ZM98.2614 1.856C98.0534 1.856 97.8774 1.784 97.7334 1.64C97.5894 1.496 97.5174 1.32 97.5174 1.112C97.5174 0.904 97.5894 0.728 97.7334 0.584C97.8774 0.44 98.0534 0.368 98.2614 0.368C98.4614 0.368 98.6294 0.44 98.7654 0.584C98.9094 0.728 98.9814 0.904 98.9814 1.112C98.9814 1.32 98.9094 1.496 98.7654 1.64C98.6294 1.784 98.4614 1.856 98.2614 1.856ZM98.7894 2.924V9.5H97.6974V2.924H98.7894Z" fill="#E62129"/>
<path d="M108.794 7.64H105.146L104.474 9.5H103.322L106.346 1.184H107.606L110.618 9.5H109.466L108.794 7.64ZM108.482 6.752L106.97 2.528L105.458 6.752H108.482ZM115.608 9.5L113.028 6.596V9.5H111.936V0.62H113.028V5.84L115.56 2.924H117.084L113.988 6.2L117.096 9.5H115.608ZM117.704 6.188C117.704 5.516 117.84 4.928 118.112 4.424C118.384 3.912 118.756 3.516 119.228 3.236C119.708 2.956 120.24 2.816 120.824 2.816C121.4 2.816 121.9 2.94 122.324 3.188C122.748 3.436 123.064 3.748 123.272 4.124V2.924H124.376V9.5H123.272V8.276C123.056 8.66 122.732 8.98 122.3 9.236C121.876 9.484 121.38 9.608 120.812 9.608C120.228 9.608 119.7 9.464 119.228 9.176C118.756 8.888 118.384 8.484 118.112 7.964C117.84 7.444 117.704 6.852 117.704 6.188ZM123.272 6.2C123.272 5.704 123.172 5.272 122.972 4.904C122.772 4.536 122.5 4.256 122.156 4.064C121.82 3.864 121.448 3.764 121.04 3.764C120.632 3.764 120.26 3.86 119.924 4.052C119.588 4.244 119.32 4.524 119.12 4.892C118.92 5.26 118.82 5.692 118.82 6.188C118.82 6.692 118.92 7.132 119.12 7.508C119.32 7.876 119.588 8.16 119.924 8.36C120.26 8.552 120.632 8.648 121.04 8.648C121.448 8.648 121.82 8.552 122.156 8.36C122.5 8.16 122.772 7.876 122.972 7.508C123.172 7.132 123.272 6.696 123.272 6.2ZM125.813 6.188C125.813 5.516 125.949 4.928 126.221 4.424C126.493 3.912 126.865 3.516 127.337 3.236C127.817 2.956 128.353 2.816 128.945 2.816C129.457 2.816 129.933 2.936 130.373 3.176C130.813 3.408 131.149 3.716 131.381 4.1V0.62H132.485V9.5H131.381V8.264C131.165 8.656 130.845 8.98 130.421 9.236C129.997 9.484 129.501 9.608 128.933 9.608C128.349 9.608 127.817 9.464 127.337 9.176C126.865 8.888 126.493 8.484 126.221 7.964C125.949 7.444 125.813 6.852 125.813 6.188ZM131.381 6.2C131.381 5.704 131.281 5.272 131.081 4.904C130.881 4.536 130.609 4.256 130.265 4.064C129.929 3.864 129.557 3.764 129.149 3.764C128.741 3.764 128.369 3.86 128.033 4.052C127.697 4.244 127.429 4.524 127.229 4.892C127.029 5.26 126.929 5.692 126.929 6.188C126.929 6.692 127.029 7.132 127.229 7.508C127.429 7.876 127.697 8.16 128.033 8.36C128.369 8.552 128.741 8.648 129.149 8.648C129.557 8.648 129.929 8.552 130.265 8.36C130.609 8.16 130.881 7.876 131.081 7.508C131.281 7.132 131.381 6.696 131.381 6.2ZM140.33 5.96C140.33 6.168 140.318 6.388 140.294 6.62H135.038C135.078 7.268 135.298 7.776 135.698 8.144C136.106 8.504 136.598 8.684 137.174 8.684C137.646 8.684 138.038 8.576 138.35 8.36C138.67 8.136 138.894 7.84 139.022 7.472H140.198C140.022 8.104 139.67 8.62 139.142 9.02C138.614 9.412 137.958 9.608 137.174 9.608C136.55 9.608 135.99 9.468 135.494 9.188C135.006 8.908 134.622 8.512 134.342 8C134.062 7.48 133.922 6.88 133.922 6.2C133.922 5.52 134.058 4.924 134.33 4.412C134.602 3.9 134.982 3.508 135.47 3.236C135.966 2.956 136.534 2.816 137.174 2.816C137.798 2.816 138.35 2.952 138.83 3.224C139.31 3.496 139.678 3.872 139.934 4.352C140.198 4.824 140.33 5.36 140.33 5.96ZM139.202 5.732C139.202 5.316 139.11 4.96 138.926 4.664C138.742 4.36 138.49 4.132 138.17 3.98C137.858 3.82 137.51 3.74 137.126 3.74C136.574 3.74 136.102 3.916 135.71 4.268C135.326 4.62 135.106 5.108 135.05 5.732H139.202ZM149.68 2.804C150.192 2.804 150.648 2.912 151.048 3.128C151.448 3.336 151.764 3.652 151.996 4.076C152.228 4.5 152.344 5.016 152.344 5.624V9.5H151.264V5.78C151.264 5.124 151.1 4.624 150.772 4.28C150.452 3.928 150.016 3.752 149.464 3.752C148.896 3.752 148.444 3.936 148.108 4.304C147.772 4.664 147.604 5.188 147.604 5.876V9.5H146.524V5.78C146.524 5.124 146.36 4.624 146.032 4.28C145.712 3.928 145.276 3.752 144.724 3.752C144.156 3.752 143.704 3.936 143.368 4.304C143.032 4.664 142.864 5.188 142.864 5.876V9.5H141.772V2.924H142.864V3.872C143.08 3.528 143.368 3.264 143.728 3.08C144.096 2.896 144.5 2.804 144.94 2.804C145.492 2.804 145.98 2.928 146.404 3.176C146.828 3.424 147.144 3.788 147.352 4.268C147.536 3.804 147.84 3.444 148.264 3.188C148.688 2.932 149.16 2.804 149.68 2.804ZM154.699 1.856C154.491 1.856 154.315 1.784 154.171 1.64C154.027 1.496 153.955 1.32 153.955 1.112C153.955 0.904 154.027 0.728 154.171 0.584C154.315 0.44 154.491 0.368 154.699 0.368C154.899 0.368 155.067 0.44 155.203 0.584C155.347 0.728 155.419 0.904 155.419 1.112C155.419 1.32 155.347 1.496 155.203 1.64C155.067 1.784 154.899 1.856 154.699 1.856ZM155.227 2.924V9.5H154.135V2.924H155.227ZM160.76 9.5L158.18 6.596V9.5H157.088V0.62H158.18V5.84L160.712 2.924H162.236L159.14 6.2L162.248 9.5H160.76Z" fill="#98A725"/>
</svg>
