<svg width="32" height="32" viewBox="0 0 32 32" fill="none" xmlns="http://www.w3.org/2000/svg">
<path d="M16.0002 26.6663C21.8912 26.6663 26.6668 21.8907 26.6668 15.9997C26.6668 10.1086 21.8912 5.33301 16.0002 5.33301C10.1091 5.33301 5.3335 10.1086 5.3335 15.9997C5.3335 21.8907 10.1091 26.6663 16.0002 26.6663Z" fill="#E62129" stroke="#E62129" stroke-width="1.5"/>
<path d="M19.7338 12.2666L16.0004 15.9999L19.7338 12.2666ZM16.0004 15.9999L12.2671 19.7333L16.0004 15.9999ZM16.0004 15.9999L19.7338 19.7333L16.0004 15.9999ZM16.0004 15.9999L12.2671 12.2666L16.0004 15.9999Z" fill="#E62129"/>
<path d="M19.7338 12.2666L16.0004 15.9999M16.0004 15.9999L12.2671 19.7333M16.0004 15.9999L19.7338 19.7333M16.0004 15.9999L12.2671 12.2666" stroke="white" stroke-width="1.5" stroke-linecap="round" stroke-linejoin="round"/>
</svg>
