<svg width="16" height="16" viewBox="0 0 16 16" fill="none" xmlns="http://www.w3.org/2000/svg">
<path d="M8.00033 13.3337C10.9458 13.3337 13.3337 10.9458 13.3337 8.00033C13.3337 5.05481 10.9458 2.66699 8.00033 2.66699C5.05481 2.66699 2.66699 5.05481 2.66699 8.00033C2.66699 10.9458 5.05481 13.3337 8.00033 13.3337Z" fill="#E62129" stroke="#E62129" stroke-width="1.5"/>
<path d="M9.86712 6.13379L8.00046 8.00046L9.86712 6.13379ZM8.00046 8.00046L6.13379 9.86712L8.00046 8.00046ZM8.00046 8.00046L9.86712 9.86712L8.00046 8.00046ZM8.00046 8.00046L6.13379 6.13379L8.00046 8.00046Z" fill="#E62129"/>
<path d="M9.86712 6.13379L8.00046 8.00046M8.00046 8.00046L6.13379 9.86712M8.00046 8.00046L9.86712 9.86712M8.00046 8.00046L6.13379 6.13379" stroke="white" stroke-width="1.5" stroke-linecap="round" stroke-linejoin="round"/>
</svg>
