<svg width="12" height="12" viewBox="0 0 12 12" fill="none" xmlns="http://www.w3.org/2000/svg">
<path d="M6 10C8.20914 10 10 8.20914 10 6C10 3.79086 8.20914 2 6 2C3.79086 2 2 3.79086 2 6C2 8.20914 3.79086 10 6 10Z" fill="#8C8C8C" stroke="#8C8C8C" stroke-width="1.5"/>
<path d="M7.40059 4.60059L6.00059 6.00059L7.40059 4.60059ZM6.00059 6.00059L4.60059 7.40059L6.00059 6.00059ZM6.00059 6.00059L7.40059 7.40059L6.00059 6.00059ZM6.00059 6.00059L4.60059 4.60059L6.00059 6.00059Z" fill="#8C8C8C"/>
<path d="M7.40059 4.60059L6.00059 6.00059M6.00059 6.00059L4.60059 7.40059M6.00059 6.00059L7.40059 7.40059M6.00059 6.00059L4.60059 4.60059" stroke="white" stroke-width="1.5" stroke-linecap="round" stroke-linejoin="round"/>
</svg>
