<svg width="20" height="20" viewBox="0 0 20 20" fill="none" xmlns="http://www.w3.org/2000/svg">
<path d="M10.0002 16.6663C13.6821 16.6663 16.6668 13.6816 16.6668 9.99967C16.6668 6.31778 13.6821 3.33301 10.0002 3.33301C6.31826 3.33301 3.3335 6.31778 3.3335 9.99967C3.3335 13.6816 6.31826 16.6663 10.0002 16.6663Z" fill="#E62129" stroke="#E62129" stroke-width="1.5"/>
<path d="M12.3337 7.66602L10.0003 9.99935L12.3337 7.66602ZM10.0003 9.99935L7.66699 12.3327L10.0003 9.99935ZM10.0003 9.99935L12.3337 12.3327L10.0003 9.99935ZM10.0003 9.99935L7.66699 7.66602L10.0003 9.99935Z" fill="#E62129"/>
<path d="M12.3337 7.66602L10.0003 9.99935M10.0003 9.99935L7.66699 12.3327M10.0003 9.99935L12.3337 12.3327M10.0003 9.99935L7.66699 7.66602" stroke="white" stroke-width="1.5" stroke-linecap="round" stroke-linejoin="round"/>
</svg>
