<svg width="20" height="20" viewBox="0 0 20 20" fill="none" xmlns="http://www.w3.org/2000/svg">
<path d="M12.6668 3.3335H7.3335C4.66683 3.3335 3.3335 4.66683 3.3335 7.3335V16.0002C3.3335 16.3668 3.6335 16.6668 4.00016 16.6668H12.6668C15.3335 16.6668 16.6668 15.3335 16.6668 12.6668V7.3335C16.6668 4.66683 15.3335 3.3335 12.6668 3.3335Z" stroke="#262626" stroke-width="1.5" stroke-linecap="round" stroke-linejoin="round"/>
<path d="M10.6064 7.22677L7.14636 10.6868C7.01303 10.8201 6.88637 11.0801 6.8597 11.2668L6.67304 12.5868C6.60637 13.0668 6.9397 13.4001 7.4197 13.3334L8.73969 13.1468C8.92635 13.1201 9.18637 12.9934 9.3197 12.8601L12.7797 9.4001C13.373 8.80677 13.6597 8.11343 12.7797 7.23343C11.8997 6.34677 11.2064 6.62677 10.6064 7.22677Z" stroke="#262626" stroke-width="1.5" stroke-miterlimit="10" stroke-linecap="round" stroke-linejoin="round"/>
<path d="M10.1133 7.72021C10.4066 8.76688 11.2266 9.59355 12.2799 9.88688" stroke="#262626" stroke-width="1.5" stroke-miterlimit="10" stroke-linecap="round" stroke-linejoin="round"/>
</svg>
