<svg width="24" height="24" viewBox="0 0 24 24" fill="none" xmlns="http://www.w3.org/2000/svg">
<path d="M15.2 4H8.8C5.6 4 4 5.6 4 8.8V19.2C4 19.64 4.36 20 4.8 20H15.2C18.4 20 20 18.4 20 15.2V8.8C20 5.6 18.4 4 15.2 4Z" stroke="#C2D43D" stroke-width="1.5" stroke-linecap="round" stroke-linejoin="round"/>
<path d="M12.7277 8.67202L8.57574 12.824C8.41574 12.984 8.26374 13.296 8.23174 13.52L8.00774 15.104C7.92774 15.68 8.32774 16.08 8.90374 16L10.4877 15.776C10.7117 15.744 11.0237 15.592 11.1837 15.432L15.3357 11.28C16.0477 10.568 16.3917 9.73602 15.3357 8.68002C14.2797 7.61602 13.4477 7.95202 12.7277 8.67202Z" stroke="#C2D43D" stroke-width="1.5" stroke-miterlimit="10" stroke-linecap="round" stroke-linejoin="round"/>
<path d="M12.1357 9.26416C12.4877 10.5202 13.4717 11.5122 14.7357 11.8642" stroke="#C2D43D" stroke-width="1.5" stroke-miterlimit="10" stroke-linecap="round" stroke-linejoin="round"/>
</svg>
