<svg width="32" height="32" viewBox="0 0 32 32" fill="none" xmlns="http://www.w3.org/2000/svg">
<path d="M20.2668 5.3335H11.7335C7.46683 5.3335 5.3335 7.46683 5.3335 11.7335V25.6002C5.3335 26.1868 5.8135 26.6668 6.40016 26.6668H20.2668C24.5335 26.6668 26.6668 24.5335 26.6668 20.2668V11.7335C26.6668 7.46683 24.5335 5.3335 20.2668 5.3335Z" stroke="#8C8C8C" stroke-width="1.5" stroke-linecap="round" stroke-linejoin="round"/>
<path d="M16.9705 11.5625L11.4345 17.0985C11.2211 17.3119 11.0185 17.7279 10.9758 18.0265L10.6772 20.1385C10.5705 20.9065 11.1038 21.4399 11.8718 21.3332L13.9838 21.0345C14.2825 20.9919 14.6985 20.7892 14.9118 20.5759L20.4478 15.0399C21.3972 14.0905 21.8558 12.9812 20.4478 11.5732C19.0398 10.1545 17.9305 10.6025 16.9705 11.5625Z" stroke="#8C8C8C" stroke-width="1.5" stroke-miterlimit="10" stroke-linecap="round" stroke-linejoin="round"/>
<path d="M16.1812 12.3521C16.6505 14.0267 17.9625 15.3494 19.6478 15.8187" stroke="#8C8C8C" stroke-width="1.5" stroke-miterlimit="10" stroke-linecap="round" stroke-linejoin="round"/>
</svg>
