<svg width="16" height="16" viewBox="0 0 16 16" fill="none" xmlns="http://www.w3.org/2000/svg">
<path d="M10.1337 2.66699H5.86699C3.73366 2.66699 2.66699 3.73366 2.66699 5.86699V12.8003C2.66699 13.0937 2.90699 13.3337 3.20033 13.3337H10.1337C12.267 13.3337 13.3337 12.267 13.3337 10.1337V5.86699C13.3337 3.73366 12.267 2.66699 10.1337 2.66699Z" stroke="#E62129" stroke-width="1.3" stroke-linecap="round" stroke-linejoin="round"/>
<path d="M8.485 5.78151L5.71699 8.54951C5.61033 8.65618 5.509 8.86418 5.48766 9.01351L5.33833 10.0695C5.285 10.4535 5.55166 10.7202 5.93566 10.6668L6.99165 10.5175C7.14099 10.4962 7.349 10.3948 7.45567 10.2882L10.2237 7.52018C10.6983 7.04551 10.9277 6.49084 10.2237 5.78684C9.51967 5.07751 8.965 5.30151 8.485 5.78151Z" stroke="#E62129" stroke-width="1.3" stroke-miterlimit="10" stroke-linecap="round" stroke-linejoin="round"/>
<path d="M8.09082 6.17627C8.32549 7.0136 8.98149 7.67494 9.82415 7.9096" stroke="#E62129" stroke-width="1.3" stroke-miterlimit="10" stroke-linecap="round" stroke-linejoin="round"/>
</svg>
