<svg width="12" height="12" viewBox="0 0 12 12" fill="none" xmlns="http://www.w3.org/2000/svg">
<path d="M7.6 2.00049H4.4C2.8 2.00049 2 2.80049 2 4.40049V9.60049C2 9.82049 2.18 10.0005 2.4 10.0005H7.6C9.2 10.0005 10 9.20049 10 7.60049V4.40049C10 2.80049 9.2 2.00049 7.6 2.00049Z" stroke="white" stroke-width="1.2" stroke-linecap="round" stroke-linejoin="round"/>
<path d="M6.36362 4.33626L4.28762 6.41226C4.20762 6.49226 4.13163 6.64826 4.11563 6.76026L4.00363 7.55226C3.96363 7.84026 4.16362 8.04026 4.45162 8.00026L5.24362 7.88826C5.35562 7.87226 5.51163 7.79626 5.59163 7.71626L7.66763 5.64026C8.02363 5.28426 8.19563 4.86826 7.66763 4.34026C7.13963 3.80826 6.72362 3.97626 6.36362 4.33626Z" stroke="white" stroke-width="1.2" stroke-miterlimit="10" stroke-linecap="round" stroke-linejoin="round"/>
<path d="M6.06836 4.63232C6.24436 5.26032 6.73636 5.75632 7.36836 5.93232" stroke="white" stroke-width="1.2" stroke-miterlimit="10" stroke-linecap="round" stroke-linejoin="round"/>
</svg>
