<svg width="20" height="20" viewBox="0 0 20 20" fill="none" xmlns="http://www.w3.org/2000/svg">
<path d="M4.16681 5.99951H5.51361H16.288" stroke="#E62129" stroke-width="1.4" stroke-linecap="round" stroke-linejoin="round"/>
<path d="M14.9413 5.99967V15.333C14.9413 15.6866 14.7994 16.0258 14.5468 16.2758C14.2942 16.5259 13.9517 16.6663 13.5945 16.6663H6.86047C6.50328 16.6663 6.16072 16.5259 5.90814 16.2758C5.65557 16.0258 5.51367 15.6866 5.51367 15.333V5.99967M7.53387 5.99967V4.66634C7.53387 4.31272 7.67577 3.97358 7.92834 3.72353C8.18092 3.47348 8.52348 3.33301 8.88068 3.33301H11.5743C11.9315 3.33301 12.274 3.47348 12.5266 3.72353C12.7792 3.97358 12.9211 4.31272 12.9211 4.66634V5.99967" stroke="#E62129" stroke-width="1.4" stroke-linecap="round" stroke-linejoin="round"/>
<path d="M8.88077 9.33276V13.3328" stroke="#E62129" stroke-width="1.4" stroke-linecap="round" stroke-linejoin="round"/>
<path d="M11.574 9.33276V13.3328" stroke="#E62129" stroke-width="1.4" stroke-linecap="round" stroke-linejoin="round"/>
</svg>
