<svg width="21" height="24" viewBox="0 0 21 24" fill="none" xmlns="http://www.w3.org/2000/svg">
<path fill-rule="evenodd" clip-rule="evenodd" d="M1.66754 13.9062V13.6727C1.70181 12.9816 1.9233 12.312 2.30918 11.7329C2.95147 11.0373 3.39115 10.1848 3.58209 9.26502C3.58209 8.55411 3.58209 7.83305 3.64419 7.12214C3.965 3.69962 7.34909 1.33331 10.6918 1.33331H10.7746C14.1173 1.33331 17.5014 3.69962 17.8325 7.12214C17.8946 7.83305 17.8325 8.55411 17.8843 9.26502C18.0778 10.187 18.517 11.0421 19.1572 11.743C19.546 12.317 19.7678 12.9842 19.7988 13.6727V13.8961C19.8219 14.8246 19.5022 15.7299 18.8985 16.4452C18.1008 17.2816 17.0182 17.8019 15.8559 17.9076C12.4475 18.2733 9.00857 18.2733 5.60013 17.9076C4.43908 17.7973 3.35814 17.2777 2.55755 16.4452C1.9632 15.7294 1.64772 14.8294 1.66754 13.9062Z" stroke="#262626" stroke-width="1.5" stroke-linecap="round" stroke-linejoin="round"/>
<path d="M8.12581 21.4412C8.65837 22.1097 9.44044 22.5423 10.2989 22.6433C11.1574 22.7443 12.0215 22.5054 12.7 21.9795C12.9087 21.8239 13.0965 21.6431 13.2589 21.4412" stroke="#262626" stroke-width="1.5" stroke-linecap="round" stroke-linejoin="round"/>
</svg>
