<svg width="59" height="20" viewBox="0 0 59 20" fill="none" xmlns="http://www.w3.org/2000/svg">
<path d="M3.33203 6.7998H4.40947H13.029" stroke="#8C8C8C" stroke-width="1.3" stroke-linecap="round" stroke-linejoin="round"/>
<path d="M11.9522 6.80033V14.267C11.9522 14.5499 11.8387 14.8212 11.6367 15.0212C11.4346 15.2213 11.1606 15.3337 10.8748 15.3337H5.4876C5.20184 15.3337 4.92779 15.2213 4.72573 15.0212C4.52367 14.8212 4.41016 14.5499 4.41016 14.267V6.80033M6.02632 6.80033V5.73366C6.02632 5.45076 6.13983 5.17945 6.34189 4.97941C6.54395 4.77937 6.818 4.66699 7.10376 4.66699H9.25864C9.5444 4.66699 9.81845 4.77937 10.0205 4.97941C10.2226 5.17945 10.3361 5.45076 10.3361 5.73366V6.80033" stroke="#8C8C8C" stroke-width="1.3" stroke-linecap="round" stroke-linejoin="round"/>
<path d="M7.10547 9.4668V12.6668" stroke="#8C8C8C" stroke-width="1.3" stroke-linecap="round" stroke-linejoin="round"/>
<path d="M9.25781 9.4668V12.6668" stroke="#8C8C8C" stroke-width="1.3" stroke-linecap="round" stroke-linejoin="round"/>
<path d="M27.6317 5.636V14H26.5397V10.208H22.2797V14H21.1877V5.636H22.2797V9.308H26.5397V5.636H27.6317ZM29.0883 10.688C29.0883 10.016 29.2243 9.428 29.4963 8.924C29.7683 8.412 30.1403 8.016 30.6123 7.736C31.0923 7.456 31.6243 7.316 32.2083 7.316C32.7843 7.316 33.2843 7.44 33.7083 7.688C34.1323 7.936 34.4483 8.248 34.6563 8.624V7.424H35.7603V14H34.6563V12.776C34.4403 13.16 34.1163 13.48 33.6843 13.736C33.2603 13.984 32.7643 14.108 32.1963 14.108C31.6123 14.108 31.0843 13.964 30.6123 13.676C30.1403 13.388 29.7683 12.984 29.4963 12.464C29.2243 11.944 29.0883 11.352 29.0883 10.688ZM34.6563 10.7C34.6563 10.204 34.5563 9.772 34.3563 9.404C34.1563 9.036 33.8843 8.756 33.5403 8.564C33.2043 8.364 32.8323 8.264 32.4243 8.264C32.0163 8.264 31.6443 8.36 31.3083 8.552C30.9723 8.744 30.7043 9.024 30.5043 9.392C30.3043 9.76 30.2043 10.192 30.2043 10.688C30.2043 11.192 30.3043 11.632 30.5043 12.008C30.7043 12.376 30.9723 12.66 31.3083 12.86C31.6443 13.052 32.0163 13.148 32.4243 13.148C32.8323 13.148 33.2043 13.052 33.5403 12.86C33.8843 12.66 34.1563 12.376 34.3563 12.008C34.5563 11.632 34.6563 11.196 34.6563 10.7ZM38.6976 8.636C38.9136 8.26 39.2336 7.948 39.6576 7.7C40.0896 7.444 40.5896 7.316 41.1576 7.316C41.7416 7.316 42.2696 7.456 42.7416 7.736C43.2216 8.016 43.5976 8.412 43.8696 8.924C44.1416 9.428 44.2776 10.016 44.2776 10.688C44.2776 11.352 44.1416 11.944 43.8696 12.464C43.5976 12.984 43.2216 13.388 42.7416 13.676C42.2696 13.964 41.7416 14.108 41.1576 14.108C40.5976 14.108 40.1016 13.984 39.6696 13.736C39.2456 13.48 38.9216 13.164 38.6976 12.788V17.12H37.6056V7.424H38.6976V8.636ZM43.1616 10.688C43.1616 10.192 43.0616 9.76 42.8616 9.392C42.6616 9.024 42.3896 8.744 42.0456 8.552C41.7096 8.36 41.3376 8.264 40.9296 8.264C40.5296 8.264 40.1576 8.364 39.8136 8.564C39.4776 8.756 39.2056 9.04 38.9976 9.416C38.7976 9.784 38.6976 10.212 38.6976 10.7C38.6976 11.196 38.7976 11.632 38.9976 12.008C39.2056 12.376 39.4776 12.66 39.8136 12.86C40.1576 13.052 40.5296 13.148 40.9296 13.148C41.3376 13.148 41.7096 13.052 42.0456 12.86C42.3896 12.66 42.6616 12.376 42.8616 12.008C43.0616 11.632 43.1616 11.192 43.1616 10.688ZM51.547 7.424V14H50.455V13.028C50.247 13.364 49.955 13.628 49.579 13.82C49.211 14.004 48.803 14.096 48.355 14.096C47.843 14.096 47.383 13.992 46.975 13.784C46.567 13.568 46.243 13.248 46.003 12.824C45.771 12.4 45.655 11.884 45.655 11.276V7.424H46.735V11.132C46.735 11.78 46.899 12.28 47.227 12.632C47.555 12.976 48.003 13.148 48.571 13.148C49.155 13.148 49.615 12.968 49.951 12.608C50.287 12.248 50.455 11.724 50.455 11.036V7.424H51.547ZM55.7188 14.108C55.2148 14.108 54.7628 14.024 54.3628 13.856C53.9628 13.68 53.6468 13.44 53.4148 13.136C53.1828 12.824 53.0548 12.468 53.0308 12.068H54.1588C54.1908 12.396 54.3428 12.664 54.6148 12.872C54.8948 13.08 55.2588 13.184 55.7068 13.184C56.1228 13.184 56.4508 13.092 56.6908 12.908C56.9308 12.724 57.0508 12.492 57.0508 12.212C57.0508 11.924 56.9228 11.712 56.6668 11.576C56.4108 11.432 56.0148 11.292 55.4788 11.156C54.9908 11.028 54.5908 10.9 54.2788 10.772C53.9748 10.636 53.7108 10.44 53.4868 10.184C53.2708 9.92 53.1628 9.576 53.1628 9.152C53.1628 8.816 53.2628 8.508 53.4628 8.228C53.6628 7.948 53.9468 7.728 54.3148 7.568C54.6828 7.4 55.1028 7.316 55.5748 7.316C56.3028 7.316 56.8908 7.5 57.3388 7.868C57.7868 8.236 58.0268 8.74 58.0588 9.38H56.9668C56.9428 9.036 56.8028 8.76 56.5468 8.552C56.2988 8.344 55.9628 8.24 55.5388 8.24C55.1468 8.24 54.8348 8.324 54.6028 8.492C54.3708 8.66 54.2548 8.88 54.2548 9.152C54.2548 9.368 54.3228 9.548 54.4588 9.692C54.6028 9.828 54.7788 9.94 54.9868 10.028C55.2028 10.108 55.4988 10.2 55.8748 10.304C56.3468 10.432 56.7308 10.56 57.0268 10.688C57.3228 10.808 57.5748 10.992 57.7828 11.24C57.9988 11.488 58.1108 11.812 58.1188 12.212C58.1188 12.572 58.0188 12.896 57.8188 13.184C57.6188 13.472 57.3348 13.7 56.9668 13.868C56.6068 14.028 56.1908 14.108 55.7188 14.108Z" fill="#8C8C8C"/>
</svg>
