<svg width="49" height="20" viewBox="0 0 49 20" fill="none" xmlns="http://www.w3.org/2000/svg">
<path d="M7.40773 14.148C10.026 14.148 12.1485 12.0255 12.1485 9.40724C12.1485 6.78901 10.026 4.6665 7.40773 4.6665C4.78949 4.6665 2.66699 6.78901 2.66699 9.40724C2.66699 12.0255 4.78949 14.148 7.40773 14.148Z" stroke="#262626" stroke-width="1.5" stroke-linecap="round" stroke-linejoin="round"/>
<path d="M13.3332 15.3333L10.7555 12.7555" stroke="#262626" stroke-width="1.5" stroke-linecap="round" stroke-linejoin="round"/>
<path d="M28.1622 5.636L25.0062 14H23.7462L20.5902 5.636H21.7542L24.3822 12.848L27.0102 5.636H28.1622ZM29.9235 6.356C29.7155 6.356 29.5395 6.284 29.3955 6.14C29.2515 5.996 29.1795 5.82 29.1795 5.612C29.1795 5.404 29.2515 5.228 29.3955 5.084C29.5395 4.94 29.7155 4.868 29.9235 4.868C30.1235 4.868 30.2915 4.94 30.4275 5.084C30.5715 5.228 30.6435 5.404 30.6435 5.612C30.6435 5.82 30.5715 5.996 30.4275 6.14C30.2915 6.284 30.1235 6.356 29.9235 6.356ZM30.4515 7.424V14H29.3595V7.424H30.4515ZM38.3127 10.46C38.3127 10.668 38.3007 10.888 38.2767 11.12H33.0207C33.0607 11.768 33.2807 12.276 33.6807 12.644C34.0887 13.004 34.5807 13.184 35.1567 13.184C35.6287 13.184 36.0207 13.076 36.3327 12.86C36.6527 12.636 36.8767 12.34 37.0047 11.972H38.1807C38.0047 12.604 37.6527 13.12 37.1247 13.52C36.5967 13.912 35.9407 14.108 35.1567 14.108C34.5327 14.108 33.9727 13.968 33.4767 13.688C32.9887 13.408 32.6047 13.012 32.3247 12.5C32.0447 11.98 31.9047 11.38 31.9047 10.7C31.9047 10.02 32.0407 9.424 32.3127 8.912C32.5847 8.4 32.9647 8.008 33.4527 7.736C33.9487 7.456 34.5167 7.316 35.1567 7.316C35.7807 7.316 36.3327 7.452 36.8127 7.724C37.2927 7.996 37.6607 8.372 37.9167 8.852C38.1807 9.324 38.3127 9.86 38.3127 10.46ZM37.1847 10.232C37.1847 9.816 37.0927 9.46 36.9087 9.164C36.7247 8.86 36.4727 8.632 36.1527 8.48C35.8407 8.32 35.4927 8.24 35.1087 8.24C34.5567 8.24 34.0847 8.416 33.6927 8.768C33.3087 9.12 33.0887 9.608 33.0327 10.232H37.1847ZM48.5141 7.424L46.4621 14H45.3341L43.7501 8.78L42.1661 14H41.0381L38.9741 7.424H40.0901L41.6021 12.944L43.2341 7.424H44.3501L45.9461 12.956L47.4341 7.424H48.5141Z" fill="#262626"/>
</svg>
