<svg width="81" height="30" viewBox="0 0 81 30" fill="none" xmlns="http://www.w3.org/2000/svg">
<g clip-path="url(#clip0_623_42506)">
<path d="M10.1668 10.9995H11.5136H22.288" stroke="#E62129" stroke-width="1.4" stroke-linecap="round" stroke-linejoin="round"/>
<path d="M20.9413 10.9997V20.333C20.9413 20.6866 20.7994 21.0258 20.5468 21.2758C20.2942 21.5259 19.9517 21.6663 19.5945 21.6663H12.8605C12.5033 21.6663 12.1607 21.5259 11.9081 21.2758C11.6556 21.0258 11.5137 20.6866 11.5137 20.333V10.9997M13.5339 10.9997V9.66634C13.5339 9.31272 13.6758 8.97358 13.9283 8.72353C14.1809 8.47348 14.5235 8.33301 14.8807 8.33301H17.5743C17.9315 8.33301 18.274 8.47348 18.5266 8.72353C18.7792 8.97358 18.9211 9.31272 18.9211 9.66634V10.9997" stroke="#E62129" stroke-width="1.4" stroke-linecap="round" stroke-linejoin="round"/>
<path d="M14.8808 14.3328V18.3328" stroke="#E62129" stroke-width="1.4" stroke-linecap="round" stroke-linejoin="round"/>
<path d="M17.574 14.3328V18.3328" stroke="#E62129" stroke-width="1.4" stroke-linecap="round" stroke-linejoin="round"/>
<path d="M38.6536 10.242V20H37.3796V15.576H32.4096V20H31.1356V10.242H32.4096V14.526H37.3796V10.242H38.6536ZM40.353 16.136C40.353 15.352 40.5116 14.666 40.829 14.078C41.1463 13.4807 41.5803 13.0187 42.131 12.692C42.691 12.3653 43.3116 12.202 43.993 12.202C44.665 12.202 45.2483 12.3467 45.743 12.636C46.2376 12.9253 46.6063 13.2893 46.849 13.728V12.328H48.137V20H46.849V18.572C46.597 19.02 46.219 19.3933 45.715 19.692C45.2203 19.9813 44.6416 20.126 43.979 20.126C43.2976 20.126 42.6816 19.958 42.131 19.622C41.5803 19.286 41.1463 18.8147 40.829 18.208C40.5116 17.6013 40.353 16.9107 40.353 16.136ZM46.849 16.15C46.849 15.5713 46.7323 15.0673 46.499 14.638C46.2656 14.2087 45.9483 13.882 45.547 13.658C45.155 13.4247 44.721 13.308 44.245 13.308C43.769 13.308 43.335 13.42 42.943 13.644C42.551 13.868 42.2383 14.1947 42.005 14.624C41.7716 15.0533 41.655 15.5573 41.655 16.136C41.655 16.724 41.7716 17.2373 42.005 17.676C42.2383 18.1053 42.551 18.4367 42.943 18.67C43.335 18.894 43.769 19.006 44.245 19.006C44.721 19.006 45.155 18.894 45.547 18.67C45.9483 18.4367 46.2656 18.1053 46.499 17.676C46.7323 17.2373 46.849 16.7287 46.849 16.15ZM51.5639 13.742C51.8159 13.3033 52.1892 12.9393 52.6839 12.65C53.1879 12.3513 53.7712 12.202 54.4339 12.202C55.1152 12.202 55.7312 12.3653 56.2819 12.692C56.8419 13.0187 57.2806 13.4807 57.5979 14.078C57.9152 14.666 58.0739 15.352 58.0739 16.136C58.0739 16.9107 57.9152 17.6013 57.5979 18.208C57.2806 18.8147 56.8419 19.286 56.2819 19.622C55.7312 19.958 55.1152 20.126 54.4339 20.126C53.7806 20.126 53.2019 19.9813 52.6979 19.692C52.2032 19.3933 51.8252 19.0247 51.5639 18.586V23.64H50.2899V12.328H51.5639V13.742ZM56.7719 16.136C56.7719 15.5573 56.6552 15.0533 56.4219 14.624C56.1886 14.1947 55.8712 13.868 55.4699 13.644C55.0779 13.42 54.6439 13.308 54.1679 13.308C53.7012 13.308 53.2672 13.4247 52.8659 13.658C52.4739 13.882 52.1566 14.2133 51.9139 14.652C51.6806 15.0813 51.5639 15.5807 51.5639 16.15C51.5639 16.7287 51.6806 17.2373 51.9139 17.676C52.1566 18.1053 52.4739 18.4367 52.8659 18.67C53.2672 18.894 53.7012 19.006 54.1679 19.006C54.6439 19.006 55.0779 18.894 55.4699 18.67C55.8712 18.4367 56.1886 18.1053 56.4219 17.676C56.6552 17.2373 56.7719 16.724 56.7719 16.136ZM66.5549 12.328V20H65.2809V18.866C65.0382 19.258 64.6975 19.566 64.2589 19.79C63.8295 20.0047 63.3535 20.112 62.8309 20.112C62.2335 20.112 61.6969 19.9907 61.2209 19.748C60.7449 19.496 60.3669 19.1227 60.0869 18.628C59.8162 18.1333 59.6809 17.5313 59.6809 16.822V12.328H60.9409V16.654C60.9409 17.41 61.1322 17.9933 61.5149 18.404C61.8975 18.8053 62.4202 19.006 63.0829 19.006C63.7642 19.006 64.3009 18.796 64.6929 18.376C65.0849 17.956 65.2809 17.3447 65.2809 16.542V12.328H66.5549ZM71.4219 20.126C70.8339 20.126 70.3066 20.028 69.8399 19.832C69.3733 19.6267 69.0046 19.3467 68.7339 18.992C68.4633 18.628 68.3139 18.2127 68.2859 17.746H69.6019C69.6393 18.1287 69.8166 18.4413 70.1339 18.684C70.4606 18.9267 70.8853 19.048 71.4079 19.048C71.8933 19.048 72.2759 18.9407 72.5559 18.726C72.8359 18.5113 72.9759 18.2407 72.9759 17.914C72.9759 17.578 72.8266 17.3307 72.5279 17.172C72.2293 17.004 71.7673 16.8407 71.1419 16.682C70.5726 16.5327 70.1059 16.3833 69.7419 16.234C69.3873 16.0753 69.0793 15.8467 68.8179 15.548C68.5659 15.24 68.4399 14.8387 68.4399 14.344C68.4399 13.952 68.5566 13.5927 68.7899 13.266C69.0233 12.9393 69.3546 12.6827 69.7839 12.496C70.2133 12.3 70.7033 12.202 71.2539 12.202C72.1033 12.202 72.7893 12.4167 73.3119 12.846C73.8346 13.2753 74.1146 13.8633 74.1519 14.61H72.8779C72.8499 14.2087 72.6866 13.8867 72.3879 13.644C72.0986 13.4013 71.7066 13.28 71.2119 13.28C70.7546 13.28 70.3906 13.378 70.1199 13.574C69.8493 13.77 69.7139 14.0267 69.7139 14.344C69.7139 14.596 69.7933 14.806 69.9519 14.974C70.1199 15.1327 70.3253 15.2633 70.5679 15.366C70.8199 15.4593 71.1653 15.5667 71.6039 15.688C72.1546 15.8373 72.6026 15.9867 72.9479 16.136C73.2933 16.276 73.5873 16.4907 73.8299 16.78C74.0819 17.0693 74.2126 17.4473 74.2219 17.914C74.2219 18.334 74.1053 18.712 73.8719 19.048C73.6386 19.384 73.3073 19.65 72.8779 19.846C72.4579 20.0327 71.9726 20.126 71.4219 20.126Z" fill="#E62129"/>
</g>
<defs>
<clipPath id="clip0_623_42506">
<path d="M0 8C0 3.58172 3.58172 0 8 0H73C77.4183 0 81 3.58172 81 8V22C81 26.4183 77.4183 30 73 30H8C3.58172 30 0 26.4183 0 22V8Z" fill="white"/>
</clipPath>
</defs>
</svg>
