<svg width="16" height="16" viewBox="0 0 16 16" fill="none" xmlns="http://www.w3.org/2000/svg">
<path d="M3.33203 4.7998H4.40947H13.029" stroke="#8C8C8C" stroke-width="1.3" stroke-linecap="round" stroke-linejoin="round"/>
<path d="M11.9522 4.80033V12.267C11.9522 12.5499 11.8387 12.8212 11.6367 13.0212C11.4346 13.2213 11.1606 13.3337 10.8748 13.3337H5.4876C5.20184 13.3337 4.92779 13.2213 4.72573 13.0212C4.52367 12.8212 4.41016 12.5499 4.41016 12.267V4.80033M6.02632 4.80033V3.73366C6.02632 3.45076 6.13983 3.17945 6.34189 2.97941C6.54395 2.77937 6.818 2.66699 7.10376 2.66699H9.25864C9.5444 2.66699 9.81845 2.77937 10.0205 2.97941C10.2226 3.17945 10.3361 3.45076 10.3361 3.73366V4.80033" stroke="#8C8C8C" stroke-width="1.3" stroke-linecap="round" stroke-linejoin="round"/>
<path d="M7.10547 7.46631V10.6663" stroke="#8C8C8C" stroke-width="1.3" stroke-linecap="round" stroke-linejoin="round"/>
<path d="M9.25781 7.46631V10.6663" stroke="#8C8C8C" stroke-width="1.3" stroke-linecap="round" stroke-linejoin="round"/>
</svg>
