<svg width="20" height="20" viewBox="0 0 20 20" fill="none" xmlns="http://www.w3.org/2000/svg">
<path d="M10.0007 16.6663C13.6825 16.6663 16.6673 13.6816 16.6673 9.99967C16.6673 6.31778 13.6825 3.33301 10.0007 3.33301C6.31875 3.33301 3.33398 6.31778 3.33398 9.99967C3.33398 13.6816 6.31875 16.6663 10.0007 16.6663Z" fill="#8C8C8C" stroke="#8C8C8C" stroke-width="1.5"/>
<path d="M12.3346 7.66602L10.0013 9.99935L12.3346 7.66602ZM10.0013 9.99935L7.66797 12.3327L10.0013 9.99935ZM10.0013 9.99935L12.3346 12.3327L10.0013 9.99935ZM10.0013 9.99935L7.66797 7.66602L10.0013 9.99935Z" fill="#8C8C8C"/>
<path d="M12.3346 7.66602L10.0013 9.99935M10.0013 9.99935L7.66797 12.3327M10.0013 9.99935L12.3346 12.3327M10.0013 9.99935L7.66797 7.66602" stroke="white" stroke-width="1.5" stroke-linecap="round" stroke-linejoin="round"/>
</svg>
