<svg width="25" height="26" viewBox="0 0 25 26" fill="none" xmlns="http://www.w3.org/2000/svg">
<path d="M13.6347 17.3834C12.6559 17.3665 11.6761 17.3194 10.6587 17.2573C9.39093 17.1792 7.85022 17.4926 6.63987 17.0069C5.46528 16.5364 4.71705 15.79 3.94528 14.8422C3.5434 14.3519 2.92316 14.1025 2.32175 13.9011C1.72034 13.6996 1.09257 13.5142 0.60881 13.1039C0.125045 12.6935 -0.169543 11.9811 0.107163 11.4098C0.787634 10.0065 3.00128 10.4752 3.00599 8.35753C3.00599 7.63753 2.68505 6.83094 3.11234 6.25117C3.25725 6.07574 3.43419 5.92945 3.63375 5.82012C4.60316 5.22247 5.85305 5.28082 6.81493 4.6907C7.90105 4.0187 7.67516 2.74717 8.64269 1.86059C8.96584 1.57901 9.31502 1.32879 9.68552 1.11329C12.2192 -0.454708 14.8385 -0.307885 17.4342 1.18576C18.8225 1.9867 20.0281 3.42294 20.5956 4.91376C21.2253 6.574 19.9829 8.41964 21.0286 9.86341C21.2658 10.1909 21.5801 10.4564 21.837 10.7688C22.9138 12.0771 21.2563 12.8827 20.5768 13.7712C20.0319 14.4855 20.1156 15.5302 19.5923 16.2606C18.9853 17.1076 17.8041 17.2498 16.7603 17.3147C15.6883 17.3853 14.6615 17.4013 13.6347 17.3834Z" fill="#845161"/>
<path d="M24.3745 22.2512C18.0829 27.0956 9.30724 27.0568 3.05869 22.1571L7.63845 20.0103C7.77863 19.944 7.91529 19.8705 8.04786 19.79L8.15327 19.7241C8.19092 19.7006 8.22763 19.6761 8.26433 19.6507C8.84213 19.2521 9.31566 18.7205 9.64504 18.1006C10.0215 17.39 10.1457 16.6051 10.1514 15.8051C10.1514 15.3655 10.1335 14.926 10.1222 14.4874C10.1222 14.3883 10.1203 14.2895 10.1166 14.191C10.1128 13.8929 10.1097 13.5946 10.1072 13.2959L10.2954 13.39L10.7848 13.6432L13.6356 14.1279L16.5646 14.6267L16.6502 17.535V17.6357L16.6945 19.1293L17.774 19.5688L18.621 19.9114L24.3745 22.2512Z" fill="#F2A196"/>
<path d="M16.6483 16.8752C16.3923 17.0333 16.1504 17.1076 15.9387 17.085C14.5467 16.9354 11.8314 15.8446 10.1222 13.8257C10.1222 13.7266 10.1203 13.6278 10.1166 13.5293C10.1128 13.2312 10.1097 12.9329 10.1071 12.6342L10.2954 12.7283L10.7848 12.9815L13.6356 13.4662L16.5646 13.965L16.6483 16.8752Z" fill="#E88870"/>
<circle cx="7.75424" cy="10.2813" r="1.6" fill="#F2A196"/>
<circle cx="8.31893" cy="10.093" r="1.6" fill="#E88870"/>
<path d="M18.6286 7.85872C19.7335 11.6884 17.3853 16.3171 15.9424 16.3171C13.966 16.3171 9.16598 14.7378 8.06198 10.9091C6.95798 7.08036 8.42527 3.29307 11.3429 2.45072C14.2606 1.60836 17.5227 4.03001 18.6286 7.85872Z" fill="#F2A196"/>
<path d="M12.6841 8.65399C13.2582 8.65399 13.2582 9.53681 12.6841 9.54058H12.6578C12.0836 9.54058 12.0836 8.6587 12.6578 8.65399H12.6841Z" fill="#00214E"/>
<path d="M17.4144 8.2926C17.9472 8.2926 17.9472 9.11143 17.4144 9.11613H17.39C16.8573 9.11143 16.8573 8.29731 17.39 8.2926H17.4144Z" fill="#00214E"/>
<ellipse cx="12.6822" cy="9.10482" rx="1.78824" ry="1.78824" stroke="white" stroke-width="0.5"/>
<circle cx="17.6836" cy="8.82248" r="1.78824" stroke="white" stroke-width="0.5"/>
<path d="M14.9853 2.76785C14.5806 4.52879 13.6968 6.02338 12.0808 7.11138C10.3387 8.31796 8.49774 8.89961 6.49115 9.30055C6.54197 8.06667 6.40644 6.33114 7.04268 5.22996C7.76477 4.00833 8.81946 3.0173 10.0836 2.37255C11.4766 1.65255 13.6328 0.94667 15.1989 1.44643C15.1558 1.89099 15.0844 2.33235 14.9853 2.76785Z" fill="#845161"/>
<path d="M15.15 8.03754C15.1425 8.06954 15.8954 11.0813 15.8954 11.0813H14.7189" stroke="#00214E" stroke-width="0.5" stroke-linecap="round"/>
<path d="M16.2286 7.07843C16.8941 6.73714 17.665 6.66372 18.3829 6.87325" stroke="#00214E" stroke-width="0.5" stroke-linecap="round"/>
<path d="M11.0417 7.42386C11.9583 6.95643 13.0355 6.92193 13.9801 7.32974" stroke="#00214E" stroke-width="0.5" stroke-linecap="round"/>
<path d="M14.4705 9.10481L15.8954 8.9834" stroke="white" stroke-width="0.5" stroke-linecap="round"/>
<path d="M24.3745 22.2511C18.0829 27.0955 9.30724 27.0568 3.05869 22.157L7.63845 20.0102C7.85656 19.9077 8.06589 19.7874 8.26433 19.6507C8.32457 19.6093 8.3848 19.566 8.44221 19.5208C8.94065 19.1394 9.35093 18.655 9.64504 18.1006C9.86739 17.6746 10.0151 17.2136 10.0817 16.7377C10.1482 16.8021 10.218 16.8631 10.2907 16.9203C10.8678 17.3471 11.4941 17.7029 12.1561 17.9801C12.4775 18.1142 12.8062 18.2301 13.1406 18.3274C14.148 18.6211 15.1999 18.7324 16.2464 18.6558C16.3914 18.6446 16.5373 18.6304 16.6822 18.6201L16.6963 19.0982V19.1255L17.8352 19.5886L24.3745 22.2511Z" fill="url(#paint0_linear_2011_12491)"/>
<path d="M12.7039 12.1439C12.7299 12.1027 12.7719 12.0743 12.8197 12.0653C12.8676 12.0564 12.917 12.0678 12.9561 12.0968C13.1519 12.2342 13.5095 12.526 14.0177 12.6276C14.7105 12.7651 15.3109 12.4884 15.4549 12.6662C15.5359 12.7669 15.437 12.8902 15.2479 13.0427C14.8476 13.3424 14.3432 13.4677 13.8493 13.39C13.1829 13.2648 12.6822 12.4931 12.6822 12.2201C12.683 12.1933 12.6904 12.1671 12.7039 12.1439Z" fill="white"/>
<defs>
<linearGradient id="paint0_linear_2011_12491" x1="3.05869" y1="25.858" x2="24.3745" y2="25.858" gradientUnits="userSpaceOnUse">
<stop stop-color="#16243F"/>
<stop offset="1" stop-color="#6878B1"/>
</linearGradient>
</defs>
</svg>
