<svg width="42" height="20" viewBox="0 0 42 20" fill="none" xmlns="http://www.w3.org/2000/svg">
<path d="M10.736 5.1124C10.8773 4.97111 11.045 4.85903 11.2296 4.78257C11.4142 4.7061 11.6121 4.66675 11.8119 4.66675C12.0117 4.66675 12.2096 4.7061 12.3942 4.78257C12.5788 4.85903 12.7465 4.97111 12.8878 5.1124C13.0291 5.25369 13.1412 5.42142 13.2176 5.60602C13.2941 5.79063 13.3335 5.98848 13.3335 6.1883C13.3335 6.38811 13.2941 6.58596 13.2176 6.77057C13.1412 6.95517 13.0291 7.1229 12.8878 7.26419L5.62551 14.5265L2.66679 15.3334L3.47372 12.3747L10.736 5.1124Z" stroke="#E62129" stroke-width="1.3" stroke-linecap="round" stroke-linejoin="round"/>
<path d="M12.1846 7.3103L10.5982 5.72392" stroke="#E62129" stroke-width="1.3" stroke-linecap="round" stroke-linejoin="round"/>
<path d="M22.223 6.524V9.32H25.271V10.22H22.223V13.1H25.631V14H21.131V5.624H25.631V6.524H22.223ZM26.8754 10.688C26.8754 10.016 27.0114 9.428 27.2834 8.924C27.5554 8.412 27.9274 8.016 28.3994 7.736C28.8794 7.456 29.4154 7.316 30.0074 7.316C30.5194 7.316 30.9954 7.436 31.4354 7.676C31.8754 7.908 32.2114 8.216 32.4434 8.6V5.12H33.5474V14H32.4434V12.764C32.2274 13.156 31.9074 13.48 31.4834 13.736C31.0594 13.984 30.5634 14.108 29.9954 14.108C29.4114 14.108 28.8794 13.964 28.3994 13.676C27.9274 13.388 27.5554 12.984 27.2834 12.464C27.0114 11.944 26.8754 11.352 26.8754 10.688ZM32.4434 10.7C32.4434 10.204 32.3434 9.772 32.1434 9.404C31.9434 9.036 31.6714 8.756 31.3274 8.564C30.9914 8.364 30.6194 8.264 30.2114 8.264C29.8034 8.264 29.4314 8.36 29.0954 8.552C28.7594 8.744 28.4914 9.024 28.2914 9.392C28.0914 9.76 27.9914 10.192 27.9914 10.688C27.9914 11.192 28.0914 11.632 28.2914 12.008C28.4914 12.376 28.7594 12.66 29.0954 12.86C29.4314 13.052 29.8034 13.148 30.2114 13.148C30.6194 13.148 30.9914 13.052 31.3274 12.86C31.6714 12.66 31.9434 12.376 32.1434 12.008C32.3434 11.632 32.4434 11.196 32.4434 10.7ZM35.9568 6.356C35.7488 6.356 35.5728 6.284 35.4288 6.14C35.2848 5.996 35.2128 5.82 35.2128 5.612C35.2128 5.404 35.2848 5.228 35.4288 5.084C35.5728 4.94 35.7488 4.868 35.9568 4.868C36.1568 4.868 36.3248 4.94 36.4608 5.084C36.6048 5.228 36.6768 5.404 36.6768 5.612C36.6768 5.82 36.6048 5.996 36.4608 6.14C36.3248 6.284 36.1568 6.356 35.9568 6.356ZM36.4848 7.424V14H35.3928V7.424H36.4848ZM39.6779 8.324V12.2C39.6779 12.52 39.7459 12.748 39.8819 12.884C40.0179 13.012 40.2539 13.076 40.5899 13.076H41.3939V14H40.4099C39.8019 14 39.3459 13.86 39.0419 13.58C38.7379 13.3 38.5859 12.84 38.5859 12.2V8.324H37.7339V7.424H38.5859V5.768H39.6779V7.424H41.3939V8.324H39.6779Z" fill="#E62129"/>
</svg>
