<svg width="119" height="40" viewBox="0 0 119 40" fill="none" xmlns="http://www.w3.org/2000/svg">
<g clip-path="url(#clip0_623_42388)">
<path d="M0 8C0 3.58172 3.58172 0 8 0H111C115.418 0 119 3.58172 119 8V32C119 36.4183 115.418 40 111 40H8C3.58172 40 0 36.4183 0 32V8Z" fill="white"/>
<rect width="119" height="40" fill="#F7B6B8"/>
<path d="M19.1013 14.848V21.904C19.1013 22.896 19.3413 23.632 19.8213 24.112C20.312 24.592 20.9893 24.832 21.8533 24.832C22.7066 24.832 23.3733 24.592 23.8533 24.112C24.344 23.632 24.5893 22.896 24.5893 21.904V14.848H26.0453V21.888C26.0453 22.816 25.8586 23.6 25.4853 24.24C25.112 24.8693 24.6053 25.3387 23.9653 25.648C23.336 25.9573 22.6266 26.112 21.8373 26.112C21.048 26.112 20.3333 25.9573 19.6933 25.648C19.064 25.3387 18.5626 24.8693 18.1893 24.24C17.8266 23.6 17.6453 22.816 17.6453 21.888V14.848H19.1013ZM29.9302 18.656C30.1862 18.1547 30.5489 17.7653 31.0182 17.488C31.4982 17.2107 32.0795 17.072 32.7622 17.072V18.576H32.3782C30.7462 18.576 29.9302 19.4613 29.9302 21.232V26H28.4742V17.232H29.9302V18.656ZM42.2189 17.232V26H40.7629V24.704C40.4856 25.152 40.0963 25.504 39.5949 25.76C39.1043 26.0053 38.5603 26.128 37.9629 26.128C37.2803 26.128 36.6669 25.9893 36.1229 25.712C35.5789 25.424 35.1469 24.9973 34.8269 24.432C34.5176 23.8667 34.3629 23.1787 34.3629 22.368V17.232H35.8029V22.176C35.8029 23.04 36.0216 23.7067 36.4589 24.176C36.8963 24.6347 37.4936 24.864 38.2509 24.864C39.0296 24.864 39.6429 24.624 40.0909 24.144C40.5389 23.664 40.7629 22.9653 40.7629 22.048V17.232H42.2189ZM46.4533 18.432V23.6C46.4533 24.0267 46.544 24.3307 46.7253 24.512C46.9066 24.6827 47.2213 24.768 47.6693 24.768H48.7413V26H47.4293C46.6186 26 46.0106 25.8133 45.6053 25.44C45.2 25.0667 44.9973 24.4533 44.9973 23.6V18.432H43.8613V17.232H44.9973V15.024H46.4533V17.232H48.7413V18.432H46.4533ZM55.4014 26L51.9614 22.128V26H50.5054V14.16H51.9614V21.12L55.3374 17.232H57.3694L53.2414 21.6L57.3854 26H55.4014ZM58.1958 21.584C58.1958 20.688 58.3771 19.904 58.7398 19.232C59.1025 18.5493 59.5985 18.0213 60.2278 17.648C60.8678 17.2747 61.5771 17.088 62.3558 17.088C63.1238 17.088 63.7905 17.2533 64.3558 17.584C64.9211 17.9147 65.3425 18.3307 65.6198 18.832V17.232H67.0918V26H65.6198V24.368C65.3318 24.88 64.8998 25.3067 64.3238 25.648C63.7585 25.9787 63.0971 26.144 62.3398 26.144C61.5611 26.144 60.8571 25.952 60.2278 25.568C59.5985 25.184 59.1025 24.6453 58.7398 23.952C58.3771 23.2587 58.1958 22.4693 58.1958 21.584ZM65.6198 21.6C65.6198 20.9387 65.4865 20.3627 65.2198 19.872C64.9531 19.3813 64.5905 19.008 64.1318 18.752C63.6838 18.4853 63.1878 18.352 62.6438 18.352C62.0998 18.352 61.6038 18.48 61.1558 18.736C60.7078 18.992 60.3505 19.3653 60.0838 19.856C59.8171 20.3467 59.6838 20.9227 59.6838 21.584C59.6838 22.256 59.8171 22.8427 60.0838 23.344C60.3505 23.8347 60.7078 24.2133 61.1558 24.48C61.6038 24.736 62.0998 24.864 62.6438 24.864C63.1878 24.864 63.6838 24.736 64.1318 24.48C64.5905 24.2133 64.9531 23.8347 65.2198 23.344C65.4865 22.8427 65.6198 22.2613 65.6198 21.6ZM73.8243 17.072C74.891 17.072 75.755 17.3973 76.4163 18.048C77.0776 18.688 77.4083 19.616 77.4083 20.832V26H75.9683V21.04C75.9683 20.1653 75.7496 19.4987 75.3123 19.04C74.875 18.5707 74.2776 18.336 73.5203 18.336C72.7523 18.336 72.139 18.576 71.6803 19.056C71.2323 19.536 71.0083 20.2347 71.0083 21.152V26H69.5523V17.232H71.0083V18.48C71.2963 18.032 71.6856 17.6853 72.1763 17.44C72.6776 17.1947 73.227 17.072 73.8243 17.072Z" fill="#E62129"/>
<path d="M100.5 13.25H85.5L91.5 20.345V25.25L94.5 26.75V20.345L100.5 13.25Z" stroke="#E62129" stroke-width="1.5" stroke-linecap="round" stroke-linejoin="round"/>
</g>
<path d="M8 0.5H111C115.142 0.5 118.5 3.85786 118.5 8V32C118.5 36.1421 115.142 39.5 111 39.5H8C3.85786 39.5 0.5 36.1421 0.5 32V8C0.5 3.85786 3.85786 0.5 8 0.5Z" stroke="#E62129"/>
<defs>
<clipPath id="clip0_623_42388">
<path d="M0 8C0 3.58172 3.58172 0 8 0H111C115.418 0 119 3.58172 119 8V32C119 36.4183 115.418 40 111 40H8C3.58172 40 0 36.4183 0 32V8Z" fill="white"/>
</clipPath>
</defs>
</svg>
