<svg width="21" height="21" viewBox="0 0 21 21" fill="none" xmlns="http://www.w3.org/2000/svg">
<path d="M16.8628 9.08859C17.0655 9.37279 17.1668 9.51493 17.1668 9.72526C17.1668 9.93559 17.0655 10.0777 16.8628 10.3619C15.9521 11.639 13.6263 14.3919 10.5002 14.3919C7.37402 14.3919 5.04823 11.639 4.13752 10.3619C3.93484 10.0777 3.8335 9.93559 3.8335 9.72526C3.8335 9.51493 3.93484 9.37279 4.13752 9.08859C5.04823 7.81155 7.37402 5.05859 10.5002 5.05859C13.6263 5.05859 15.9521 7.81155 16.8628 9.08859Z" stroke="#E62129" stroke-width="1.5"/>
<path d="M12.5 9.7251C12.5 8.6205 11.6046 7.7251 10.5 7.7251C9.3954 7.7251 8.5 8.6205 8.5 9.7251C8.5 10.8297 9.3954 11.7251 10.5 11.7251C11.6046 11.7251 12.5 10.8297 12.5 9.7251Z" stroke="#E62129" stroke-width="1.5"/>
</svg>
