<svg width="16" height="12" viewBox="0 0 16 12" fill="none" xmlns="http://www.w3.org/2000/svg">
<path d="M14.3614 5.03C14.564 5.3142 14.6654 5.45633 14.6654 5.66667C14.6654 5.877 14.564 6.01913 14.3614 6.30333C13.4506 7.5804 11.1248 10.3333 7.9987 10.3333C4.87255 10.3333 2.54676 7.5804 1.63606 6.30333C1.43337 6.01913 1.33203 5.877 1.33203 5.66667C1.33203 5.45633 1.43337 5.3142 1.63606 5.03C2.54676 3.75296 4.87255 1 7.9987 1C11.1248 1 13.4506 3.75296 14.3614 5.03Z" stroke="#8C8C8C" stroke-width="1.5"/>
<path d="M10 5.66602C10 4.56142 9.1046 3.66602 8 3.66602C6.8954 3.66602 6 4.56142 6 5.66602C6 6.77062 6.8954 7.66602 8 7.66602C9.1046 7.66602 10 6.77062 10 5.66602Z" stroke="#8C8C8C" stroke-width="1.5"/>
</svg>
