<svg width="16" height="16" viewBox="0 0 16 16" fill="none" xmlns="http://www.w3.org/2000/svg">
<path d="M10.736 3.1124C10.8773 2.97111 11.045 2.85903 11.2296 2.78257C11.4142 2.7061 11.6121 2.66675 11.8119 2.66675C12.0117 2.66675 12.2096 2.7061 12.3942 2.78257C12.5788 2.85903 12.7465 2.97111 12.8878 3.1124C13.0291 3.25369 13.1412 3.42142 13.2176 3.60602C13.2941 3.79063 13.3335 3.98848 13.3335 4.1883C13.3335 4.38811 13.2941 4.58596 13.2176 4.77057C13.1412 4.95517 13.0291 5.1229 12.8878 5.26419L5.62551 12.5265L2.66679 13.3334L3.47372 10.3747L10.736 3.1124Z" stroke="#E62129" stroke-width="1.3" stroke-linecap="round" stroke-linejoin="round"/>
<path d="M12.1846 5.3103L10.5982 3.72392" stroke="#E62129" stroke-width="1.3" stroke-linecap="round" stroke-linejoin="round"/>
</svg>
