<svg width="24" height="24" viewBox="0 0 24 24" fill="none" xmlns="http://www.w3.org/2000/svg">
<path d="M9.70171 11.1641C9.61804 11.156 9.51765 11.156 9.42562 11.1641C7.43448 11.0994 5.85327 9.52448 5.85327 7.58607C5.85327 5.60727 7.50977 4 9.56785 4C11.6176 4 13.2824 5.60727 13.2824 7.58607C13.2741 9.52448 11.6929 11.0994 9.70171 11.1641Z" stroke="#E62129" stroke-width="1.5" stroke-linecap="round" stroke-linejoin="round"/>
<path d="M15.7665 5.61523C17.3895 5.61523 18.6946 6.88328 18.6946 8.44209C18.6946 9.96859 17.4397 11.2124 15.8752 11.2689C15.8083 11.2609 15.733 11.2609 15.6577 11.2689" stroke="#E62129" stroke-width="1.5" stroke-linecap="round" stroke-linejoin="round"/>
<path d="M5.51846 14.1444C3.49385 15.4528 3.49385 17.5851 5.51846 18.8855C7.81915 20.3716 11.5923 20.3716 13.893 18.8855C15.9176 17.577 15.9176 15.4448 13.893 14.1444C11.6007 12.6664 7.82752 12.6664 5.51846 14.1444Z" stroke="#E62129" stroke-width="1.5" stroke-linecap="round" stroke-linejoin="round"/>
<path d="M17.3813 18.5379C17.9837 18.4168 18.5526 18.1826 19.0211 17.8353C20.3262 16.8903 20.3262 15.3315 19.0211 14.3865C18.561 14.0473 18.0004 13.8211 17.4064 13.6919" stroke="#E62129" stroke-width="1.5" stroke-linecap="round" stroke-linejoin="round"/>
</svg>
