<svg width="24" height="24" viewBox="0 0 24 24" fill="none" xmlns="http://www.w3.org/2000/svg">
<path d="M5 7.19922H6.61616H19.5455" stroke="#262626" stroke-width="1.5" stroke-linecap="round" stroke-linejoin="round"/>
<path d="M17.9303 7.2V18.4C17.9303 18.8243 17.76 19.2313 17.457 19.5314C17.1539 19.8314 16.7428 20 16.3142 20H8.23335C7.80472 20 7.39364 19.8314 7.09055 19.5314C6.78746 19.2313 6.61719 18.8243 6.61719 18.4V7.2M9.04143 7.2V5.6C9.04143 5.17565 9.2117 4.76869 9.51479 4.46863C9.81788 4.16857 10.229 4 10.6576 4H13.8899C14.3185 4 14.7296 4.16857 15.0327 4.46863C15.3358 4.76869 15.5061 5.17565 15.5061 5.6V7.2" stroke="#262626" stroke-width="1.5" stroke-linecap="round" stroke-linejoin="round"/>
<path d="M10.6562 11.1992V15.9992" stroke="#262626" stroke-width="1.5" stroke-linecap="round" stroke-linejoin="round"/>
<path d="M13.8906 11.1992V15.9992" stroke="#262626" stroke-width="1.5" stroke-linecap="round" stroke-linejoin="round"/>
</svg>
