<svg width="16" height="16" viewBox="0 0 16 16" fill="none" xmlns="http://www.w3.org/2000/svg">
<path d="M9.55525 2.66602L9.84895 3.20797C10.0476 3.57436 10.1468 3.75756 10.0812 3.83602C10.0155 3.91448 9.79929 3.85111 9.36681 3.72438C8.93443 3.59768 8.47538 3.52951 7.99967 3.52951C5.42234 3.52951 3.33301 5.53072 3.33301 7.99936C3.33301 8.81347 3.56026 9.57681 3.95732 10.2343M6.44412 13.3327L6.15038 12.7907C5.95178 12.4243 5.85249 12.2411 5.91814 12.1626C5.98381 12.0842 6.20006 12.1476 6.63253 12.2743C7.06492 12.401 7.52397 12.4692 7.99967 12.4692C10.577 12.4692 12.6663 10.468 12.6663 7.99936C12.6663 7.1852 12.4391 6.42187 12.042 5.76442" stroke="#262626" stroke-width="1.3" stroke-linecap="round" stroke-linejoin="round"/>
</svg>
