<svg width="20" height="20" viewBox="0 0 20 20" fill="none" xmlns="http://www.w3.org/2000/svg">
<path fill-rule="evenodd" clip-rule="evenodd" d="M7.93986 5.63538C7.93986 6.90555 6.90879 7.9367 5.63692 7.9367C4.36505 7.9367 3.33398 6.90555 3.33398 5.63538C3.33398 4.36441 4.36505 3.33325 5.63692 3.33325C6.90879 3.33325 7.93986 4.36441 7.93986 5.63538Z" stroke="#E62129" stroke-width="1.5" stroke-linecap="round" stroke-linejoin="round"/>
<path d="M11.1289 5.94836H16.6665" stroke="#E62129" stroke-width="1.5" stroke-linecap="round" stroke-linejoin="round"/>
<path fill-rule="evenodd" clip-rule="evenodd" d="M12.0605 14.3615C12.0605 13.0903 13.0916 12.0598 14.3635 12.0598C15.6354 12.0598 16.6664 13.0903 16.6664 14.3615C16.6664 15.6327 15.6354 16.6633 14.3635 16.6633C13.0916 16.6633 12.0605 15.6327 12.0605 14.3615Z" stroke="#E62129" stroke-width="1.5" stroke-linecap="round" stroke-linejoin="round"/>
<path d="M8.87154 14.6752H3.33398" stroke="#E62129" stroke-width="1.5" stroke-linecap="round" stroke-linejoin="round"/>
</svg>
