<svg width="16" height="18" viewBox="0 0 16 18" fill="none" xmlns="http://www.w3.org/2000/svg">
<rect x="1.33203" y="1.5" width="13.3333" height="15" rx="4" fill="#BFBFBF"/>
<path d="M14.6654 8.25V7.5C14.6654 4.67157 14.6654 3.25736 13.7465 2.37868C12.8276 1.5 11.3487 1.5 8.39085 1.5H7.60655C4.64871 1.5 3.16979 1.5 2.25091 2.37868C1.33203 3.25736 1.33203 4.67157 1.33203 7.5V10.5C1.33203 13.3284 1.33203 14.7427 2.25091 15.6213C3.16979 16.5 4.64871 16.5 7.60655 16.5H7.9987" stroke="#8C8C8C" stroke-width="1.5" stroke-linecap="round"/>
<path d="M5.03516 5.20312H10.9611" stroke="#8C8C8C" stroke-width="1.5" stroke-linecap="round"/>
<path d="M5.03516 8.90625H8.73886" stroke="#8C8C8C" stroke-width="1.5" stroke-linecap="round"/>
<path d="M14.6641 15.5129V12.8535C14.6641 11.8112 13.5448 10.666 12.1641 10.666C10.7833 10.666 9.66406 11.8112 9.66406 12.8535V15.4056C9.66406 15.9741 10.2746 16.4993 11.0277 16.4993C11.7808 16.4993 12.3913 15.9741 12.3913 15.4056V13.4111" stroke="#8C8C8C" stroke-width="1.5" stroke-linecap="round"/>
</svg>
