<svg width="20" height="20" viewBox="0 0 20 20" fill="none" xmlns="http://www.w3.org/2000/svg">
<path d="M10.0007 16.6673C13.6825 16.6673 16.6673 13.6825 16.6673 10.0007C16.6673 6.31875 13.6825 3.33398 10.0007 3.33398C6.31875 3.33398 3.33398 6.31875 3.33398 10.0007C3.33398 13.6825 6.31875 16.6673 10.0007 16.6673Z" fill="#8C8C8C" stroke="#8C8C8C" stroke-width="1.5"/>
<path d="M12.3346 7.66797L10.0013 10.0013L12.3346 7.66797ZM10.0013 10.0013L7.66797 12.3346L10.0013 10.0013ZM10.0013 10.0013L12.3346 12.3346L10.0013 10.0013ZM10.0013 10.0013L7.66797 7.66797L10.0013 10.0013Z" fill="#8C8C8C"/>
<path d="M12.3346 7.66797L10.0013 10.0013M10.0013 10.0013L7.66797 12.3346M10.0013 10.0013L12.3346 12.3346M10.0013 10.0013L7.66797 7.66797" stroke="white" stroke-width="1.5" stroke-linecap="round" stroke-linejoin="round"/>
</svg>
