<svg width="24" height="24" viewBox="0 0 24 24" fill="none" xmlns="http://www.w3.org/2000/svg">
<path fill-rule="evenodd" clip-rule="evenodd" d="M1.64361 16.7338L2.39014 17.9325C3.0217 18.9468 4.42132 19.2968 5.51896 18.7148V18.7148C6.04145 18.4299 6.66492 18.3491 7.25187 18.4902C7.83881 18.6312 8.34104 18.9825 8.64779 19.4665C8.84513 19.7742 8.95117 20.1246 8.95518 20.4824V20.4824C8.93738 21.056 9.17123 21.6118 9.60348 22.0232C10.0357 22.4347 10.6295 22.6667 11.2497 22.6665L12.7537 22.6665C13.3612 22.6665 13.9437 22.4425 14.3723 22.044C14.8008 21.6456 15.0401 21.1055 15.0372 20.5433V20.5433C15.0552 19.3827 16.0772 18.4505 17.3316 18.4506C17.7183 18.4543 18.097 18.5525 18.4295 18.7351V18.7351C19.5271 19.3171 20.9267 18.9672 21.5583 17.9529L22.3597 16.7338C22.9905 15.7208 22.6175 14.4265 21.5254 13.8386V13.8386C20.8155 13.4593 20.3781 12.7584 20.3781 11.9998C20.3781 11.2413 20.8155 10.5404 21.5254 10.1611V10.1611C22.6161 9.57719 22.9895 8.28602 22.3597 7.27603V7.27603L21.6022 6.06714C21.3063 5.57306 20.8098 5.20846 20.2226 5.05403C19.6354 4.8996 19.0059 4.96807 18.4734 5.24429V5.24429C17.9499 5.52694 17.3261 5.60438 16.7406 5.4594C16.1551 5.31442 15.6565 4.95903 15.3555 4.47222C15.1582 4.16455 15.0522 3.81411 15.0482 3.45635V3.45635C15.0482 2.28375 14.0209 1.33318 12.7537 1.33318L11.2497 1.33318C9.98673 1.33316 8.96123 2.27756 8.95518 3.44619V3.44619C8.95812 4.01012 8.71732 4.55174 8.28639 4.9505C7.85545 5.34926 7.27014 5.57208 6.66071 5.56937C6.27501 5.55981 5.89786 5.46209 5.56288 5.28492V5.28492C4.46811 4.70122 3.06937 5.04636 2.43405 6.05698V6.05698L1.64361 7.27603C1.33766 7.76198 1.25368 8.34075 1.41028 8.88417C1.56689 9.42759 1.95114 9.89081 2.47797 10.1713V10.1713C3.00479 10.4517 3.38905 10.915 3.54565 11.4584C3.70225 12.0018 3.61828 12.5806 3.31232 13.0665C3.11336 13.3879 2.82534 13.6545 2.47797 13.8386V13.8386C1.39236 14.4261 1.02023 15.7129 1.64361 16.7236V16.7236L1.64361 16.7338Z" stroke="#262626" stroke-width="1.5" stroke-linecap="round" stroke-linejoin="round"/>
<circle cx="12" cy="12" r="3.2" stroke="#262626" stroke-width="1.5" stroke-linecap="round" stroke-linejoin="round"/>
</svg>
