<svg width="16" height="16" viewBox="0 0 16 16" fill="none" xmlns="http://www.w3.org/2000/svg">
<path d="M9.2 2.66699C11.4627 2.66699 12.5941 2.66699 13.297 3.44804C14 4.22909 14 5.48616 14 8.00033C14 10.5145 14 11.7716 13.297 12.5526C12.5941 13.3337 11.4627 13.3337 9.2 13.3337H6.8C4.53726 13.3337 3.40589 13.3337 2.70294 12.5526C2 11.7716 2 10.5145 2 8.00033C2 5.48616 2 4.22909 2.70294 3.44804C3.40589 2.66699 4.53726 2.66699 6.8 2.66699H9.2Z" stroke="#262626" stroke-width="1.3" stroke-linejoin="round"/>
<path d="M3.33301 10.3921C4.34236 9.05098 6.69231 8.97775 7.72516 10.3921M6.62649 7.09804C6.62649 7.70447 6.1349 8.19608 5.52847 8.19608C4.92204 8.19608 4.43043 7.70447 4.43043 7.09804C4.43043 6.49161 4.92204 6 5.52847 6C6.1349 6 6.62649 6.49161 6.62649 7.09804Z" stroke="#262626" stroke-width="1.3" stroke-linecap="round"/>
<path d="M9.33301 6.66699H12.6663" stroke="#262626" stroke-width="1.3" stroke-linecap="round"/>
<path d="M9.33301 9.33301H11.333" stroke="#262626" stroke-width="1.3" stroke-linecap="round"/>
</svg>
