<svg width="20" height="20" viewBox="0 0 20 20" fill="none" xmlns="http://www.w3.org/2000/svg">
<path d="M11.5 3.3335C14.3284 3.3335 15.7427 3.3335 16.6213 4.3098C17.5 5.28611 17.5 6.85746 17.5 10.0002C17.5 13.1428 17.5 14.7142 16.6213 15.6905C15.7427 16.6668 14.3284 16.6668 11.5 16.6668H8.5C5.67157 16.6668 4.25736 16.6668 3.37868 15.6905C2.5 14.7142 2.5 13.1428 2.5 10.0002C2.5 6.85746 2.5 5.28611 3.37868 4.3098C4.25736 3.3335 5.67157 3.3335 8.5 3.3335H11.5Z" stroke="#262626" stroke-width="1.4" stroke-linejoin="round"/>
<path d="M4.16602 12.9901C5.4277 11.3137 8.36515 11.2222 9.65621 12.9901M8.28287 8.87255C8.28287 9.63059 7.66838 10.2451 6.91034 10.2451C6.15231 10.2451 5.53779 9.63059 5.53779 8.87255C5.53779 8.11451 6.15231 7.5 6.91034 7.5C7.66838 7.5 8.28287 8.11451 8.28287 8.87255Z" stroke="#262626" stroke-width="1.4" stroke-linecap="round"/>
<path d="M11.666 8.3335H15.8327" stroke="#262626" stroke-width="1.4" stroke-linecap="round"/>
<path d="M11.666 11.6665H14.166" stroke="#262626" stroke-width="1.4" stroke-linecap="round"/>
</svg>
