<svg width="12" height="12" viewBox="0 0 12 12" fill="none" xmlns="http://www.w3.org/2000/svg">
<path d="M6.9 2C8.59704 2 9.44561 2 9.97278 2.58578C10.5 3.17157 10.5 4.11438 10.5 6C10.5 7.8856 10.5 8.82842 9.97278 9.41421C9.44561 10 8.59704 10 6.9 10H5.1C3.40294 10 2.55442 10 2.02721 9.41421C1.5 8.82842 1.5 7.8856 1.5 6C1.5 4.11438 1.5 3.17157 2.02721 2.58578C2.55442 2 3.40294 2 5.1 2H6.9Z" stroke="#0076BE" stroke-width="1.2" stroke-linejoin="round"/>
<path d="M2.50098 7.79407C3.25799 6.78823 5.02046 6.73331 5.79509 7.79407M4.97109 5.32353C4.97109 5.77835 4.6024 6.14706 4.14757 6.14706C3.69275 6.14706 3.32404 5.77835 3.32404 5.32353C3.32404 4.86871 3.69275 4.5 4.14757 4.5C4.6024 4.5 4.97109 4.86871 4.97109 5.32353Z" stroke="#0076BE" stroke-width="1.2" stroke-linecap="round"/>
<path d="M7.00098 5H9.50098" stroke="#0076BE" stroke-width="1.2" stroke-linecap="round"/>
<path d="M7.00098 7H8.50098" stroke="#0076BE" stroke-width="1.2" stroke-linecap="round"/>
</svg>
