<svg width="24" height="24" viewBox="0 0 24 24" fill="none" xmlns="http://www.w3.org/2000/svg">
<path d="M13.8 4C17.1941 4 18.8912 4 19.9456 5.17157C21 6.34314 21 8.22876 21 12C21 15.7712 21 17.6568 19.9456 18.8284C18.8912 20 17.1941 20 13.8 20H10.2C6.80588 20 5.10884 20 4.05441 18.8284C3 17.6568 3 15.7712 3 12C3 8.22876 3 6.34314 4.05441 5.17157C5.10884 4 6.80588 4 10.2 4H13.8Z" stroke="#C2D43D" stroke-width="1.5" stroke-linejoin="round"/>
<path d="M5 15.5881C6.51402 13.5765 10.039 13.4666 11.5882 15.5881M9.94023 10.6471C9.94023 11.5567 9.20284 12.2941 8.29319 12.2941C7.38355 12.2941 6.64613 11.5567 6.64613 10.6471C6.64613 9.73741 7.38355 9 8.29319 9C9.20284 9 9.94023 9.73741 9.94023 10.6471Z" stroke="#C2D43D" stroke-width="1.5" stroke-linecap="round"/>
<path d="M14 10H19" stroke="#C2D43D" stroke-width="1.5" stroke-linecap="round"/>
<path d="M14 14H17" stroke="#C2D43D" stroke-width="1.5" stroke-linecap="round"/>
</svg>
