<svg width="32" height="32" viewBox="0 0 32 32" fill="none" xmlns="http://www.w3.org/2000/svg">
<path d="M18.4 5.3335C22.9254 5.3335 25.1883 5.3335 26.5941 6.89558C28 8.45768 28 10.9718 28 16.0002C28 21.0284 28 23.5426 26.5941 25.1047C25.1883 26.6668 22.9254 26.6668 18.4 26.6668H13.6C9.07451 26.6668 6.81178 26.6668 5.40588 25.1047C4 23.5426 4 21.0284 4 16.0002C4 10.9718 4 8.45768 5.40588 6.89558C6.81178 5.3335 9.07451 5.3335 13.6 5.3335H18.4Z" stroke="white" stroke-width="1.5" stroke-linejoin="round"/>
<path d="M6.66602 20.7842C8.68471 18.102 13.3846 17.9555 15.4503 20.7842M13.253 14.1961C13.253 15.4089 12.2698 16.3922 11.0569 16.3922C9.84409 16.3922 8.86086 15.4089 8.86086 14.1961C8.86086 12.9832 9.84409 12 11.0569 12C12.2698 12 13.253 12.9832 13.253 14.1961Z" stroke="white" stroke-width="1.5" stroke-linecap="round"/>
<path d="M18.666 13.3335H25.3327" stroke="white" stroke-width="1.5" stroke-linecap="round"/>
<path d="M18.666 18.6665H22.666" stroke="white" stroke-width="1.5" stroke-linecap="round"/>
</svg>
