<svg width="12" height="12" viewBox="0 0 12 12" fill="none" xmlns="http://www.w3.org/2000/svg">
<path d="M9.49781 2.83819C9.48074 2.61073 9.36984 2.39768 9.18752 2.24209C9.0052 2.0865 8.76506 1.99997 8.51563 2H3.48438L3.417 2.002C3.16815 2.0176 2.93507 2.11898 2.76485 2.28563C2.59463 2.45228 2.49997 2.67178 2.5 2.89978V9.10022L2.50219 9.16181C2.51926 9.38927 2.63016 9.60232 2.81248 9.75791C2.9948 9.9135 3.23494 10 3.48438 10H8.51563L8.583 9.9976C8.83177 9.982 9.06479 9.88069 9.235 9.71412C9.40521 9.54755 9.49992 9.32815 9.5 9.10022V2.89978L9.49781 2.83819ZM5.125 3.49963C5.125 3.42008 5.15957 3.34379 5.22111 3.28755C5.28264 3.2313 5.3661 3.1997 5.45313 3.1997H6.54688C6.6339 3.1997 6.71736 3.2313 6.77889 3.28755C6.84043 3.34379 6.875 3.42008 6.875 3.49963C6.875 3.57917 6.84043 3.65546 6.77889 3.7117C6.71736 3.76795 6.6339 3.79955 6.54688 3.79955H5.45313C5.3661 3.79955 5.28264 3.76795 5.22111 3.7117C5.15957 3.65546 5.125 3.57917 5.125 3.49963ZM7.20313 7.1971C7.505 7.1971 7.75 7.42104 7.75 7.69698V7.89653C7.75 8.63474 7.106 8.99785 6 8.99785C4.894 8.99785 4.25 8.63434 4.25 7.89573V7.69698C4.25 7.42104 4.495 7.1971 4.79688 7.1971H7.20313ZM6 4.7977C6.29008 4.7977 6.56828 4.90303 6.7734 5.09052C6.97852 5.27801 7.09375 5.5323 7.09375 5.79745C7.09375 6.0626 6.97852 6.31689 6.7734 6.50438C6.56828 6.69187 6.29008 6.7972 6 6.7972C5.70992 6.7972 5.43172 6.69187 5.2266 6.50438C5.02148 6.31689 4.90625 6.0626 4.90625 5.79745C4.90625 5.5323 5.02148 5.27801 5.2266 5.09052C5.43172 4.90303 5.70992 4.7977 6 4.7977Z" fill="#262626"/>
</svg>
