<svg width="32" height="32" viewBox="0 0 32 32" fill="none" xmlns="http://www.w3.org/2000/svg">
<path d="M25.3273 7.56818C25.2818 6.96163 24.9861 6.39348 24.4999 5.97857C24.0137 5.56367 23.3733 5.33293 22.7082 5.33301H9.2915L9.11184 5.33834C8.44825 5.37995 7.82669 5.65028 7.37277 6.09468C6.91885 6.53908 6.66642 7.12443 6.6665 7.73241V24.2669L6.67234 24.4312C6.71786 25.0377 7.0136 25.6059 7.49979 26.0208C7.98598 26.4357 8.62636 26.6664 9.2915 26.6663H22.7082L22.8878 26.6599C23.5512 26.6183 24.1726 26.3482 24.6265 25.904C25.0804 25.4598 25.333 24.8747 25.3332 24.2669V7.73241L25.3273 7.56818ZM13.6665 9.33201C13.6665 9.11989 13.7587 8.91646 13.9228 8.76646C14.0869 8.61647 14.3094 8.53221 14.5415 8.53221H17.4582C17.6902 8.53221 17.9128 8.61647 18.0769 8.76646C18.241 8.91646 18.3332 9.11989 18.3332 9.33201C18.3332 9.54413 18.241 9.74756 18.0769 9.89755C17.9128 10.0475 17.6902 10.1318 17.4582 10.1318H14.5415C14.3094 10.1318 14.0869 10.0475 13.9228 9.89755C13.7587 9.74756 13.6665 9.54413 13.6665 9.33201ZM19.2082 19.1919C20.0132 19.1919 20.6665 19.7891 20.6665 20.5249V21.0571C20.6665 23.0257 18.9492 23.9939 15.9998 23.9939C13.0505 23.9939 11.3332 23.0246 11.3332 21.0549V20.5249C11.3332 19.7891 11.9865 19.1919 12.7915 19.1919H19.2082ZM15.9998 12.7935C16.7734 12.7935 17.5153 13.0744 18.0622 13.5744C18.6092 14.0744 18.9165 14.7525 18.9165 15.4595C18.9165 16.1666 18.6092 16.8447 18.0622 17.3447C17.5153 17.8447 16.7734 18.1255 15.9998 18.1255C15.2263 18.1255 14.4844 17.8447 13.9374 17.3447C13.3905 16.8447 13.0832 16.1666 13.0832 15.4595C13.0832 14.7525 13.3905 14.0744 13.9374 13.5744C14.4844 13.0744 15.2263 12.7935 15.9998 12.7935Z" fill="#E62129"/>
</svg>
