<svg width="20" height="20" viewBox="0 0 20 20" fill="none" xmlns="http://www.w3.org/2000/svg">
<path d="M15.8295 4.72999C15.8011 4.35089 15.6162 3.9958 15.3124 3.73649C15.0085 3.47717 14.6083 3.33296 14.1925 3.33301H5.80713L5.69484 3.33634C5.28009 3.36235 4.89162 3.5313 4.60792 3.80905C4.32422 4.08681 4.16645 4.45264 4.1665 4.83263V15.1667L4.17015 15.2694C4.1986 15.6485 4.38344 16.0035 4.68731 16.2629C4.99118 16.5222 5.39141 16.6664 5.80713 16.6663H14.1925L14.3048 16.6623C14.7195 16.6363 15.1078 16.4675 15.3915 16.1899C15.6752 15.9123 15.833 15.5466 15.8332 15.1667V4.83263L15.8295 4.72999ZM8.5415 5.83238C8.5415 5.69981 8.59912 5.57266 8.70168 5.47892C8.80424 5.38517 8.94334 5.33251 9.08838 5.33251H10.9113C11.0563 5.33251 11.1954 5.38517 11.298 5.47892C11.4006 5.57266 11.4582 5.69981 11.4582 5.83238C11.4582 5.96496 11.4006 6.0921 11.298 6.18585C11.1954 6.27959 11.0563 6.33226 10.9113 6.33226H9.08838C8.94334 6.33226 8.80424 6.27959 8.70168 6.18585C8.59912 6.0921 8.5415 5.96496 8.5415 5.83238ZM12.005 11.9948C12.5082 11.9948 12.9165 12.3681 12.9165 12.828V13.1606C12.9165 14.3909 11.8432 14.9961 9.99984 14.9961C8.1565 14.9961 7.08317 14.3902 7.08317 13.1592V12.828C7.08317 12.3681 7.4915 11.9948 7.99463 11.9948H12.005ZM9.99984 7.99584C10.4833 7.99584 10.947 8.17139 11.2888 8.48388C11.6307 8.79636 11.8228 9.22018 11.8228 9.66209C11.8228 10.104 11.6307 10.5278 11.2888 10.8403C10.947 11.1528 10.4833 11.3283 9.99984 11.3283C9.51637 11.3283 9.0527 11.1528 8.71084 10.8403C8.36898 10.5278 8.17692 10.104 8.17692 9.66209C8.17692 9.22018 8.36898 8.79636 8.71084 8.48388C9.0527 8.17139 9.51637 7.99584 9.99984 7.99584Z" fill="#E62129"/>
</svg>
