<svg width="16" height="16" viewBox="0 0 16 16" fill="none" xmlns="http://www.w3.org/2000/svg">
<path d="M12.6634 3.7836C12.6407 3.48032 12.4928 3.19625 12.2497 2.9888C12.0066 2.78134 11.6864 2.66598 11.3538 2.66602H4.64551L4.55567 2.66868C4.22388 2.68949 3.9131 2.82465 3.68614 3.04685C3.45918 3.26905 3.33297 3.56172 3.33301 3.86572V12.133L3.33592 12.2151C3.35869 12.5184 3.50656 12.8024 3.74965 13.0099C3.99275 13.2174 4.31293 13.3327 4.64551 13.3327H11.3538L11.4437 13.3295C11.7754 13.3087 12.0861 13.1736 12.313 12.9515C12.54 12.7294 12.6662 12.4369 12.6663 12.133V3.86572L12.6634 3.7836ZM6.83301 4.66552C6.83301 4.55946 6.8791 4.45774 6.96115 4.38274C7.0432 4.30775 7.15448 4.26562 7.27051 4.26562H8.72884C8.84487 4.26562 8.95615 4.30775 9.0382 4.38274C9.12025 4.45774 9.16634 4.55946 9.16634 4.66552C9.16634 4.77158 9.12025 4.87329 9.0382 4.94829C8.95615 5.02328 8.84487 5.06542 8.72884 5.06542H7.27051C7.15448 5.06542 7.0432 5.02328 6.96115 4.94829C6.8791 4.87329 6.83301 4.77158 6.83301 4.66552ZM9.60384 9.59548C10.0063 9.59548 10.333 9.89408 10.333 10.262V10.5281C10.333 11.5123 9.47434 11.9965 7.99967 11.9965C6.52501 11.9965 5.66634 11.5118 5.66634 10.527V10.262C5.66634 9.89408 5.99301 9.59548 6.39551 9.59548H9.60384ZM7.99967 6.39628C8.38645 6.39628 8.75738 6.53672 9.03087 6.78671C9.30436 7.0367 9.45801 7.37575 9.45801 7.72928C9.45801 8.08282 9.30436 8.42187 9.03087 8.67186C8.75738 8.92184 8.38645 9.06228 7.99967 9.06228C7.6129 9.06228 7.24197 8.92184 6.96848 8.67186C6.69499 8.42187 6.54134 8.08282 6.54134 7.72928C6.54134 7.37575 6.69499 7.0367 6.96848 6.78671C7.24197 6.53672 7.6129 6.39628 7.99967 6.39628Z" fill="#E62129"/>
</svg>
