<svg width="24" height="24" viewBox="0 0 24 24" fill="none" xmlns="http://www.w3.org/2000/svg">
<path d="M18.9956 5.67638C18.9615 5.22146 18.7397 4.79536 18.375 4.48417C18.0104 4.17299 17.5301 3.99994 17.0312 4H6.96875L6.834 4.004C6.33631 4.03521 5.87014 4.23795 5.5297 4.57125C5.18926 4.90456 4.99994 5.34356 5 5.79955V18.2004L5.00438 18.3236C5.03852 18.7785 5.26033 19.2046 5.62497 19.5158C5.98961 19.827 6.46989 20.0001 6.96875 20H17.0312L17.166 19.9952C17.6635 19.964 18.1296 19.7614 18.47 19.4282C18.8104 19.0951 18.9998 18.6563 19 18.2004V5.79955L18.9956 5.67638ZM10.25 6.99925C10.25 6.84016 10.3191 6.68759 10.4422 6.57509C10.5653 6.4626 10.7322 6.3994 10.9062 6.3994H13.0938C13.2678 6.3994 13.4347 6.4626 13.5578 6.57509C13.6809 6.68759 13.75 6.84016 13.75 6.99925C13.75 7.15834 13.6809 7.31091 13.5578 7.42341C13.4347 7.5359 13.2678 7.5991 13.0938 7.5991H10.9062C10.7322 7.5991 10.5653 7.5359 10.4422 7.42341C10.3191 7.31091 10.25 7.15834 10.25 6.99925ZM14.4062 14.3942C15.01 14.3942 15.5 14.8421 15.5 15.394V15.7931C15.5 17.2695 14.212 17.9957 12 17.9957C9.788 17.9957 8.5 17.2687 8.5 15.7915V15.394C8.5 14.8421 8.99 14.3942 9.59375 14.3942H14.4062ZM12 9.5954C12.5802 9.5954 13.1366 9.80606 13.5468 10.181C13.957 10.556 14.1875 11.0646 14.1875 11.5949C14.1875 12.1252 13.957 12.6338 13.5468 13.0088C13.1366 13.3837 12.5802 13.5944 12 13.5944C11.4198 13.5944 10.8634 13.3837 10.4532 13.0088C10.043 12.6338 9.8125 12.1252 9.8125 11.5949C9.8125 11.0646 10.043 10.556 10.4532 10.181C10.8634 9.80606 11.4198 9.5954 12 9.5954Z" fill="white"/>
</svg>
