<svg width="12" height="12" viewBox="0 0 12 12" fill="none" xmlns="http://www.w3.org/2000/svg">
<path d="M7.6 6.35941V8.03941C7.6 9.43941 7.04 9.99941 5.64 9.99941H3.96C2.56 9.99941 2 9.43941 2 8.03941V6.35941C2 4.95941 2.56 4.39941 3.96 4.39941H5.64C7.04 4.39941 7.6 4.95941 7.6 6.35941Z" stroke="#262626" stroke-width="1.5" stroke-linecap="round" stroke-linejoin="round"/>
<path d="M9.99941 3.96V5.64C9.99941 7.04 9.43941 7.6 8.03941 7.6H7.59941V6.36C7.59941 4.96 7.03941 4.4 5.63941 4.4H4.39941V3.96C4.39941 2.56 4.95941 2 6.35941 2H8.03941C9.43941 2 9.99941 2.56 9.99941 3.96Z" stroke="#262626" stroke-width="1.5" stroke-linecap="round" stroke-linejoin="round"/>
</svg>
