<svg width="32" height="32" viewBox="0 0 32 32" fill="none" xmlns="http://www.w3.org/2000/svg">
<path d="M20.2668 16.9596V21.4396C20.2668 25.1729 18.7735 26.6662 15.0402 26.6662H10.5602C6.82683 26.6662 5.3335 25.1729 5.3335 21.4396V16.9596C5.3335 13.2262 6.82683 11.7329 10.5602 11.7329H15.0402C18.7735 11.7329 20.2668 13.2262 20.2668 16.9596Z" stroke="#262626" stroke-width="1.5" stroke-linecap="round" stroke-linejoin="round"/>
<path d="M26.6662 10.5602V15.0402C26.6662 18.7735 25.1729 20.2668 21.4396 20.2668H20.2662V16.9602C20.2662 13.2268 18.7729 11.7335 15.0396 11.7335H11.7329V10.5602C11.7329 6.82683 13.2262 5.3335 16.9596 5.3335H21.4396C25.1729 5.3335 26.6662 6.82683 26.6662 10.5602Z" stroke="#262626" stroke-width="1.5" stroke-linecap="round" stroke-linejoin="round"/>
</svg>
