<svg width="20" height="20" viewBox="0 0 20 20" fill="none" xmlns="http://www.w3.org/2000/svg">
<path d="M12.6668 10.5997V13.3997C12.6668 15.733 11.7335 16.6663 9.40016 16.6663H6.60016C4.26683 16.6663 3.3335 15.733 3.3335 13.3997V10.5997C3.3335 8.26634 4.26683 7.33301 6.60016 7.33301H9.40016C11.7335 7.33301 12.6668 8.26634 12.6668 10.5997Z" stroke="#262626" stroke-width="1.5" stroke-linecap="round" stroke-linejoin="round"/>
<path d="M16.6663 6.60016V9.40016C16.6663 11.7335 15.733 12.6668 13.3997 12.6668H12.6663V10.6002C12.6663 8.26683 11.733 7.3335 9.39967 7.3335H7.33301V6.60016C7.33301 4.26683 8.26634 3.3335 10.5997 3.3335H13.3997C15.733 3.3335 16.6663 4.26683 16.6663 6.60016Z" stroke="#262626" stroke-width="1.5" stroke-linecap="round" stroke-linejoin="round"/>
</svg>
