<svg width="16" height="16" viewBox="0 0 16 16" fill="none" xmlns="http://www.w3.org/2000/svg">
<path d="M10.1337 8.47954V10.7195C10.1337 12.5862 9.38699 13.3329 7.52033 13.3329H5.28033C3.41366 13.3329 2.66699 12.5862 2.66699 10.7195V8.47954C2.66699 6.61288 3.41366 5.86621 5.28033 5.86621H7.52033C9.38699 5.86621 10.1337 6.61288 10.1337 8.47954Z" stroke="#E62129" stroke-width="1.5" stroke-linecap="round" stroke-linejoin="round"/>
<path d="M13.3329 5.28033V7.52033C13.3329 9.38699 12.5862 10.1337 10.7195 10.1337H10.1329V8.48032C10.1329 6.61366 9.38621 5.86699 7.51954 5.86699H5.86621V5.28033C5.86621 3.41366 6.61288 2.66699 8.47954 2.66699H10.7195C12.5862 2.66699 13.3329 3.41366 13.3329 5.28033Z" stroke="#E62129" stroke-width="1.5" stroke-linecap="round" stroke-linejoin="round"/>
</svg>
