<svg width="24" height="24" viewBox="0 0 24 24" fill="none" xmlns="http://www.w3.org/2000/svg">
<path d="M15.2 12.7198V16.0798C15.2 18.8798 14.08 19.9998 11.28 19.9998H7.92C5.12 19.9998 4 18.8798 4 16.0798V12.7198C4 9.9198 5.12 8.7998 7.92 8.7998H11.28C14.08 8.7998 15.2 9.9198 15.2 12.7198Z" stroke="white" stroke-width="1.5" stroke-linecap="round" stroke-linejoin="round"/>
<path d="M19.9998 7.92V11.28C19.9998 14.08 18.8798 15.2 16.0798 15.2H15.1998V12.72C15.1998 9.92 14.0798 8.8 11.2798 8.8H8.7998V7.92C8.7998 5.12 9.9198 4 12.7198 4H16.0798C18.8798 4 19.9998 5.12 19.9998 7.92Z" stroke="white" stroke-width="1.5" stroke-linecap="round" stroke-linejoin="round"/>
</svg>
