<svg width="16" height="16" viewBox="0 0 16 16" fill="none" xmlns="http://www.w3.org/2000/svg">
<path d="M3.33301 7.47523V10.1249C3.33301 11.0952 3.33301 11.0952 4.37004 11.7137L7.2219 13.1691C7.64998 13.3877 8.34937 13.3877 8.77745 13.1691L11.6293 11.7137C12.6663 11.0952 12.6663 11.0952 12.6663 10.1249V7.47523C12.6663 6.50492 12.6663 6.50492 11.6293 5.88649L8.77745 4.43103C8.34937 4.21244 7.64998 4.21244 7.2219 4.43103L4.37004 5.88649C3.33301 6.50492 3.33301 6.50492 3.33301 7.47523Z" stroke="#262626" stroke-width="1.5" stroke-linecap="round" stroke-linejoin="round"/>
<path d="M11.3163 5.66854V4.2664C11.3163 3.20013 10.7134 2.66699 9.50751 2.66699H6.49287C5.28701 2.66699 4.68408 3.20013 4.68408 4.2664V5.63122" stroke="#262626" stroke-width="1.5" stroke-linecap="round" stroke-linejoin="round"/>
<path d="M8.37976 7.45908L8.72343 7.93357C8.77769 8.00821 8.89828 8.08285 8.98872 8.10418L9.6037 8.24279C9.98355 8.32809 10.086 8.61599 9.83884 8.88255L9.43488 9.31439C9.37459 9.3837 9.32635 9.50632 9.33238 9.59162L9.36856 10.1514C9.39268 10.498 9.11533 10.6739 8.75357 10.5459L8.1627 10.338C8.07226 10.306 7.92153 10.306 7.83109 10.338L7.24022 10.5459C6.87847 10.6739 6.60112 10.4926 6.62524 10.1514L6.66141 9.59162C6.66744 9.50632 6.61921 9.37837 6.55891 9.31439L6.15495 8.88255C5.90775 8.61599 6.01025 8.32809 6.39009 8.24279L7.00508 8.10418C7.10155 8.08285 7.22213 8.00288 7.27037 7.93357L7.61404 7.45908C7.83109 7.17119 8.16873 7.17119 8.37976 7.45908Z" stroke="#262626" stroke-width="1.5" stroke-linecap="round" stroke-linejoin="round"/>
</svg>
