<svg width="24" height="24" viewBox="0 0 24 24" fill="none" xmlns="http://www.w3.org/2000/svg">
<path d="M5 11.2131V15.1876C5 16.6431 5 16.6431 6.55556 17.5707L10.8333 19.7539C11.4755 20.0818 12.5245 20.0818 13.1667 19.7539L17.4444 17.5707C19 16.6431 19 16.6431 19 15.1876V11.2131C19 9.75763 19 9.75763 17.4444 8.82997L13.1667 6.64679C12.5245 6.31891 11.4755 6.31891 10.8333 6.64679L6.55556 8.82997C5 9.75763 5 9.75763 5 11.2131Z" stroke="#0076BE" stroke-width="1.5" stroke-linecap="round" stroke-linejoin="round"/>
<path d="M16.9742 8.50232V6.39911C16.9742 4.7997 16.0698 4 14.261 4H9.73906C7.93027 4 7.02588 4.7997 7.02588 6.39911V8.44635" stroke="#0076BE" stroke-width="1.5" stroke-linecap="round" stroke-linejoin="round"/>
<path d="M12.5701 11.1891L13.0856 11.9008C13.167 12.0128 13.3479 12.1248 13.4836 12.1568L14.406 12.3647C14.9758 12.4926 15.1296 12.9245 14.7588 13.3243L14.1528 13.9721C14.0624 14.076 13.99 14.26 13.9991 14.3879L14.0533 15.2276C14.0895 15.7474 13.6735 16.0113 13.1308 15.8194L12.2445 15.5075C12.1089 15.4595 11.8828 15.4595 11.7471 15.5075L10.8608 15.8194C10.3182 16.0113 9.90217 15.7394 9.93834 15.2276L9.9926 14.3879C10.0016 14.26 9.9293 14.068 9.83886 13.9721L9.23291 13.3243C8.86211 12.9245 9.01586 12.4926 9.58563 12.3647L10.5081 12.1568C10.6528 12.1248 10.8337 12.0048 10.906 11.9008L11.4215 11.1891C11.7471 10.7573 12.2536 10.7573 12.5701 11.1891Z" stroke="#0076BE" stroke-width="1.5" stroke-linecap="round" stroke-linejoin="round"/>
</svg>
