<svg width="32" height="32" viewBox="0 0 32 32" fill="none" xmlns="http://www.w3.org/2000/svg">
<path d="M6.6665 14.9509V20.2503C6.6665 22.1909 6.6665 22.1909 8.74058 23.4278L14.4443 26.3387C15.3004 26.7759 16.6992 26.7759 17.5554 26.3387L23.2591 23.4278C25.3332 22.1909 25.3332 22.1909 25.3332 20.2503V14.9509C25.3332 13.0103 25.3332 13.0103 23.2591 11.7735L17.5554 8.86255C16.6992 8.42538 15.3004 8.42538 14.4443 8.86255L8.74058 11.7735C6.6665 13.0103 6.6665 13.0103 6.6665 14.9509Z" stroke="#C2D43D" stroke-width="1.5" stroke-linecap="round" stroke-linejoin="round"/>
<path d="M22.6321 11.3366V8.53231C22.6321 6.39977 21.4262 5.3335 19.0145 5.3335H12.9852C10.5735 5.3335 9.36768 6.39977 9.36768 8.53231V11.262" stroke="#C2D43D" stroke-width="1.5" stroke-linecap="round" stroke-linejoin="round"/>
<path d="M16.76 14.9187L17.4473 15.8676C17.5559 16.0169 17.797 16.1662 17.9779 16.2088L19.2079 16.4861C19.9676 16.6567 20.1726 17.2325 19.6782 17.7656L18.8703 18.6293C18.7497 18.7679 18.6532 19.0131 18.6653 19.1837L18.7376 20.3033C18.7858 20.9964 18.2311 21.3483 17.5076 21.0924L16.3259 20.6765C16.145 20.6125 15.8436 20.6125 15.6627 20.6765L14.4809 21.0924C13.7574 21.3483 13.2027 20.9857 13.251 20.3033L13.3233 19.1837C13.3354 19.0131 13.2389 18.7572 13.1183 18.6293L12.3104 17.7656C11.816 17.2325 12.021 16.6567 12.7807 16.4861L14.0106 16.2088C14.2036 16.1662 14.4448 16.0063 14.5412 15.8676L15.2286 14.9187C15.6627 14.3429 16.338 14.3429 16.76 14.9187Z" stroke="#C2D43D" stroke-width="1.5" stroke-linecap="round" stroke-linejoin="round"/>
</svg>
