<svg width="12" height="12" viewBox="0 0 12 12" fill="none" xmlns="http://www.w3.org/2000/svg">
<path d="M2.5 5.6063V7.59356C2.5 8.32129 2.5 8.32129 3.27778 8.78512L5.41667 9.87671C5.73773 10.0406 6.26227 10.0406 6.58333 9.87671L8.72222 8.78512C9.5 8.32129 9.5 8.32129 9.5 7.59356V5.6063C9.5 4.87857 9.5 4.87857 8.72222 4.41474L6.58333 3.32315C6.26227 3.15921 5.73773 3.15921 5.41667 3.32315L3.27778 4.41474C2.5 4.87857 2.5 4.87857 2.5 5.6063Z" stroke="#C2D43D" stroke-width="1.5" stroke-linecap="round" stroke-linejoin="round"/>
<path d="M8.48734 4.25116V3.19955C8.48734 2.39985 8.03515 2 7.13075 2H4.86977C3.96538 2 3.51318 2.39985 3.51318 3.19955V4.22317" stroke="#C2D43D" stroke-width="1.5" stroke-linecap="round" stroke-linejoin="round"/>
<path d="M6.28506 5.59456L6.54281 5.95042C6.58351 6.0064 6.67395 6.06238 6.74178 6.07838L7.20302 6.18234C7.4879 6.24631 7.56478 6.46223 7.37938 6.66216L7.07641 6.98604C7.03119 7.03802 6.99501 7.12999 6.99953 7.19396L7.02666 7.61381C7.04475 7.87371 6.83674 8.00566 6.56542 7.9097L6.12227 7.75375C6.05444 7.72976 5.94139 7.72976 5.87356 7.75375L5.43041 7.9097C5.15909 8.00566 4.95108 7.86971 4.96917 7.61381L4.9963 7.19396C5.00082 7.12999 4.96465 7.03402 4.91943 6.98604L4.61646 6.66216C4.43106 6.46223 4.50793 6.24631 4.79281 6.18234L5.25405 6.07838C5.32641 6.06238 5.41684 6.00241 5.45302 5.95042L5.71077 5.59456C5.87356 5.37864 6.12679 5.37864 6.28506 5.59456Z" stroke="#C2D43D" stroke-width="1.5" stroke-linecap="round" stroke-linejoin="round"/>
</svg>
