<svg width="20" height="20" viewBox="0 0 20 20" fill="none" xmlns="http://www.w3.org/2000/svg">
<path d="M4.1665 9.34416V12.6563C4.1665 13.8691 4.1665 13.8691 5.4628 14.6422L9.02762 16.4615C9.56271 16.7347 10.437 16.7347 10.9721 16.4615L14.5369 14.6422C15.8332 13.8691 15.8332 13.8691 15.8332 12.6563V9.34416C15.8332 8.13128 15.8332 8.13128 14.5369 7.35823L10.9721 5.53891C10.437 5.26568 9.56271 5.26568 9.02762 5.53891L5.4628 7.35823C4.1665 8.13128 4.1665 8.13128 4.1665 9.34416Z" stroke="white" stroke-width="1.5" stroke-linecap="round" stroke-linejoin="round"/>
<path d="M14.1452 7.08543V5.33275C14.1452 3.99991 13.3916 3.3335 11.8843 3.3335H8.11596C6.60864 3.3335 5.85498 3.99991 5.85498 5.33275V7.03878" stroke="white" stroke-width="1.5" stroke-linecap="round" stroke-linejoin="round"/>
<path d="M10.4749 9.3241L10.9045 9.91721C10.9724 10.0105 11.1231 10.1038 11.2361 10.1305L12.0049 10.3037C12.4797 10.4104 12.6078 10.7702 12.2988 11.1034L11.7938 11.6432C11.7185 11.7299 11.6582 11.8831 11.6657 11.9898L11.7109 12.6895C11.7411 13.1227 11.3944 13.3426 10.9422 13.1827L10.2036 12.9228C10.0906 12.8828 9.90216 12.8828 9.78911 12.9228L9.05052 13.1827C8.59833 13.3426 8.25164 13.116 8.28179 12.6895L8.32701 11.9898C8.33454 11.8831 8.27425 11.7232 8.19889 11.6432L7.69393 11.1034C7.38493 10.7702 7.51305 10.4104 7.98786 10.3037L8.75659 10.1305C8.87718 10.1038 9.02791 10.0038 9.08821 9.91721L9.51779 9.3241C9.78911 8.96423 10.2112 8.96423 10.4749 9.3241Z" stroke="white" stroke-width="1.5" stroke-linecap="round" stroke-linejoin="round"/>
</svg>
