<svg width="12" height="12" viewBox="0 0 12 12" fill="none" xmlns="http://www.w3.org/2000/svg">
<path d="M4.22222 3.77778V2V3.77778ZM7.77778 3.77778V2V3.77778ZM3.77778 5.55556H8.22222H3.77778ZM2.88889 10H9.11111C9.34686 10 9.57295 9.90635 9.73965 9.73965C9.90635 9.57295 10 9.34686 10 9.11111V3.77778C10 3.54203 9.90635 3.31594 9.73965 3.14924C9.57295 2.98254 9.34686 2.88889 9.11111 2.88889H2.88889C2.65314 2.88889 2.42705 2.98254 2.26035 3.14924C2.09365 3.31594 2 3.54203 2 3.77778V9.11111C2 9.34686 2.09365 9.57295 2.26035 9.73965C2.42705 9.90635 2.65314 10 2.88889 10Z" stroke="#262626" stroke-width="1.5" stroke-linecap="round" stroke-linejoin="round"/>
</svg>
