<svg width="32" height="32" viewBox="0 0 32 32" fill="none" xmlns="http://www.w3.org/2000/svg">
<path d="M11.2594 10.0742V5.3335V10.0742ZM20.7409 10.0742V5.3335V10.0742ZM10.0742 14.815H21.9261H10.0742ZM7.70387 26.6668H24.2965C24.9251 26.6668 25.528 26.4171 25.9726 25.9726C26.4171 25.528 26.6668 24.9251 26.6668 24.2965V10.0742C26.6668 9.44558 26.4171 8.84266 25.9726 8.39813C25.528 7.9536 24.9251 7.70387 24.2965 7.70387H7.70387C7.07521 7.70387 6.47229 7.9536 6.02776 8.39813C5.58323 8.84266 5.3335 9.44558 5.3335 10.0742V24.2965C5.3335 24.9251 5.58323 25.528 6.02776 25.9726C6.47229 26.4171 7.07521 26.6668 7.70387 26.6668Z" stroke="#262626" stroke-width="1.5" stroke-linecap="round" stroke-linejoin="round"/>
</svg>
