<svg width="20" height="20" viewBox="0 0 20 20" fill="none" xmlns="http://www.w3.org/2000/svg">
<path d="M7.0372 6.29646V3.3335V6.29646ZM12.9631 6.29646V3.3335V6.29646ZM6.29646 9.25942H13.7039H6.29646ZM4.81498 16.6668H15.1853C15.5783 16.6668 15.9551 16.5107 16.2329 16.2329C16.5107 15.9551 16.6668 15.5783 16.6668 15.1853V6.29646C16.6668 5.90355 16.5107 5.52672 16.2329 5.24889C15.9551 4.97106 15.5783 4.81498 15.1853 4.81498H4.81498C4.42206 4.81498 4.04524 4.97106 3.76741 5.24889C3.48958 5.52672 3.3335 5.90355 3.3335 6.29646V15.1853C3.3335 15.5783 3.48958 15.9551 3.76741 16.2329C4.04524 16.5107 4.42206 16.6668 4.81498 16.6668Z" stroke="#262626" stroke-width="1.5" stroke-linecap="round" stroke-linejoin="round"/>
</svg>
