<svg width="16" height="16" viewBox="0 0 16 16" fill="none" xmlns="http://www.w3.org/2000/svg">
<path d="M5.62995 5.03736V2.66699V5.03736ZM10.3707 5.03736V2.66699V5.03736ZM5.03736 7.40773H10.9633H5.03736ZM3.85218 13.3337H12.1485C12.4628 13.3337 12.7643 13.2088 12.9865 12.9865C13.2088 12.7643 13.3337 12.4628 13.3337 12.1485V5.03736C13.3337 4.72303 13.2088 4.42158 12.9865 4.19931C12.7643 3.97704 12.4628 3.85218 12.1485 3.85218H3.85218C3.53785 3.85218 3.23639 3.97704 3.01412 4.19931C2.79186 4.42158 2.66699 4.72303 2.66699 5.03736V12.1485C2.66699 12.4628 2.79186 12.7643 3.01412 12.9865C3.23639 13.2088 3.53785 13.3337 3.85218 13.3337Z" stroke="#C2D43D" stroke-width="1.5" stroke-linecap="round" stroke-linejoin="round"/>
</svg>
