<svg width="24" height="24" viewBox="0 0 24 24" fill="none" xmlns="http://www.w3.org/2000/svg">
<path d="M8.44444 7.55556V4V7.55556ZM15.5556 7.55556V4V7.55556ZM7.55556 11.1111H16.4444H7.55556ZM5.77778 20H18.2222C18.6937 20 19.1459 19.8127 19.4793 19.4793C19.8127 19.1459 20 18.6937 20 18.2222V7.55556C20 7.08406 19.8127 6.63187 19.4793 6.29848C19.1459 5.96508 18.6937 5.77778 18.2222 5.77778H5.77778C5.30628 5.77778 4.8541 5.96508 4.5207 6.29848C4.1873 6.63187 4 7.08406 4 7.55556V18.2222C4 18.6937 4.1873 19.1459 4.5207 19.4793C4.8541 19.8127 5.30628 20 5.77778 20Z" stroke="#8C8C8C" stroke-width="1.5" stroke-linecap="round" stroke-linejoin="round"/>
</svg>
