<svg width="16" height="16" viewBox="0 0 16 16" fill="none" xmlns="http://www.w3.org/2000/svg">
<path fill-rule="evenodd" clip-rule="evenodd" d="M2.82156 10.3667L3.19482 10.966C3.51061 11.4732 4.21042 11.6481 4.75924 11.3571V11.3571C5.02048 11.2147 5.33221 11.1743 5.62569 11.2448C5.91916 11.3153 6.17027 11.491 6.32365 11.733C6.42232 11.8868 6.47534 12.0621 6.47735 12.2409V12.2409C6.46844 12.5277 6.58537 12.8057 6.80149 13.0114C7.01761 13.2171 7.31452 13.3331 7.62458 13.333L8.3766 13.333C8.68036 13.333 8.9716 13.221 9.18588 13.0218C9.40016 12.8225 9.5198 12.5525 9.51834 12.2714V12.2714C9.52735 11.6911 10.0384 11.225 10.6656 11.2251C10.8589 11.2269 11.0482 11.276 11.2145 11.3673V11.3673C11.7633 11.6583 12.4631 11.4833 12.7789 10.9762L13.1796 10.3667C13.495 9.86014 13.3085 9.21298 12.7624 8.91904V8.91904C12.4075 8.72941 12.1888 8.37895 12.1888 7.99968C12.1888 7.62041 12.4075 7.26994 12.7624 7.08031V7.08031C13.3078 6.78835 13.4945 6.14276 13.1796 5.63777V5.63777L12.8009 5.03333C12.6529 4.78629 12.4047 4.60399 12.1111 4.52677C11.8175 4.44956 11.5027 4.48379 11.2365 4.6219V4.6219C10.9747 4.76322 10.6628 4.80194 10.3701 4.72945C10.0773 4.65696 9.82801 4.47927 9.67753 4.23587C9.57886 4.08203 9.52584 3.90681 9.52383 3.72793V3.72793C9.52383 3.14163 9.0102 2.66634 8.3766 2.66634L7.62458 2.66634C6.99312 2.66634 6.48037 3.13854 6.47735 3.72285V3.72285C6.47882 4.00482 6.35842 4.27563 6.14295 4.47501C5.92748 4.67439 5.63482 4.7858 5.33011 4.78444C5.13726 4.77966 4.94868 4.7308 4.78119 4.64222V4.64222C4.23381 4.35036 3.53444 4.52294 3.21678 5.02825V5.02825L2.82156 5.63777C2.66858 5.88075 2.6266 6.17013 2.7049 6.44184C2.7832 6.71355 2.97533 6.94516 3.23874 7.08539V7.08539C3.50215 7.22562 3.69428 7.45723 3.77258 7.72894C3.85088 8.00065 3.80889 8.29003 3.65591 8.53301C3.55643 8.69373 3.41242 8.82699 3.23874 8.91904V8.91904C2.69593 9.21282 2.50987 9.8562 2.82156 10.3616V10.3616L2.82156 10.3667Z" stroke="#262626" stroke-width="1.3" stroke-linecap="round" stroke-linejoin="round"/>
<circle cx="7.9999" cy="7.9999" r="1.6" stroke="#262626" stroke-width="1.3" stroke-linecap="round" stroke-linejoin="round"/>
</svg>
