<svg width="20" height="20" viewBox="0 0 20 20" fill="none" xmlns="http://www.w3.org/2000/svg">
<path fill-rule="evenodd" clip-rule="evenodd" d="M3.5272 12.9586L3.99378 13.7078C4.3885 14.3417 5.26326 14.5604 5.94929 14.1967V14.1967C6.27585 14.0187 6.66551 13.9681 7.03236 14.0563C7.3992 14.1444 7.71309 14.364 7.90481 14.6665C8.02814 14.8588 8.09442 15.0778 8.09693 15.3014V15.3014C8.0858 15.6599 8.23196 16.0073 8.50211 16.2645C8.77226 16.5216 9.1434 16.6667 9.53097 16.6665L10.471 16.6665C10.8507 16.6665 11.2147 16.5265 11.4826 16.2775C11.7504 16.0284 11.9 15.6909 11.8982 15.3395V15.3395C11.9094 14.6141 12.5482 14.0315 13.3322 14.0316C13.5739 14.0339 13.8106 14.0952 14.0184 14.2094V14.2094C14.7044 14.5731 15.5792 14.3544 15.9739 13.7205L16.4748 12.9586C16.869 12.3254 16.6359 11.5165 15.9533 11.149V11.149C15.5096 10.912 15.2363 10.4739 15.2363 9.99984C15.2363 9.52575 15.5096 9.08767 15.9533 8.85063V8.85063C16.635 8.48568 16.8684 7.6787 16.4748 7.04746V7.04746L16.0013 6.2919C15.8164 5.9831 15.5061 5.75523 15.1391 5.65871C14.7721 5.56219 14.3786 5.60498 14.0458 5.77762V5.77762C13.7186 5.95427 13.3288 6.00267 12.9628 5.91206C12.5969 5.82145 12.2853 5.59933 12.0972 5.29508C11.9738 5.10278 11.9075 4.88376 11.905 4.66016V4.66016C11.905 3.92728 11.263 3.33317 10.471 3.33317L9.53097 3.33317C8.74164 3.33317 8.10071 3.92342 8.09693 4.65381V4.65381C8.09876 5.00626 7.94827 5.34477 7.67893 5.594C7.4096 5.84323 7.04378 5.98249 6.66288 5.98079C6.42182 5.97482 6.1861 5.91375 5.97674 5.80301V5.80301C5.29251 5.4382 4.4183 5.65392 4.02122 6.28555V6.28555L3.5272 7.04746C3.33597 7.35118 3.28349 7.71291 3.38137 8.05254C3.47924 8.39218 3.7194 8.6817 4.04867 8.85698V8.85698C4.37793 9.03227 4.61809 9.32178 4.71597 9.66142C4.81385 10.0011 4.76136 10.3628 4.57014 10.6665C4.44579 10.8674 4.26578 11.034 4.04867 11.149V11.149C3.37016 11.5163 3.13758 12.3205 3.5272 12.9522V12.9522L3.5272 12.9586Z" stroke="#262626" stroke-width="1.4" stroke-linecap="round" stroke-linejoin="round"/>
<circle cx="10" cy="10" r="2" stroke="#262626" stroke-width="1.4" stroke-linecap="round" stroke-linejoin="round"/>
</svg>
