<svg width="24" height="24" viewBox="0 0 24 24" fill="none" xmlns="http://www.w3.org/2000/svg">
<path fill-rule="evenodd" clip-rule="evenodd" d="M4.23283 15.5505L4.79273 16.4495C5.2664 17.2103 6.31611 17.4727 7.13935 17.0362V17.0362C7.53121 16.8226 7.99881 16.762 8.43902 16.8677C8.87923 16.9735 9.2559 17.237 9.48596 17.6C9.63397 17.8308 9.7135 18.0936 9.71651 18.3619V18.3619C9.70316 18.7921 9.87855 19.209 10.2027 19.5176C10.5269 19.8261 10.9723 20.0002 11.4374 20L12.5654 20C13.021 20 13.4579 19.832 13.7793 19.5331C14.1007 19.2343 14.2802 18.8292 14.278 18.4076V18.4076C14.2915 17.5371 15.058 16.838 15.9989 16.8381C16.2888 16.8409 16.5729 16.9145 16.8222 17.0514V17.0514C17.6455 17.4879 18.6952 17.2255 19.1689 16.4648L19.7699 15.5505C20.243 14.7907 19.9633 13.82 19.1442 13.379V13.379C18.6117 13.0946 18.2837 12.5689 18.2837 12C18.2837 11.4311 18.6117 10.9054 19.1442 10.621V10.621C19.9622 10.183 20.2423 9.21463 19.7699 8.45715V8.45715L19.2018 7.55048C18.9799 7.17992 18.6075 6.90647 18.1671 6.79065C17.7267 6.67482 17.2545 6.72617 16.8552 6.93334V6.93334C16.4626 7.14532 15.9947 7.2034 15.5556 7.09467C15.1165 6.98593 14.7425 6.71939 14.5168 6.35429C14.3688 6.12353 14.2893 5.86071 14.2862 5.59238V5.59238C14.2862 4.71294 13.5158 4 12.5654 4L11.4374 4C10.4902 3.99999 9.72104 4.70829 9.71651 5.58476V5.58476C9.71871 6.00771 9.53812 6.41393 9.21491 6.713C8.89171 7.01207 8.45273 7.17918 7.99566 7.17714C7.70638 7.16998 7.42352 7.09669 7.17228 6.96381V6.96381C6.3512 6.52603 5.30215 6.78489 4.82566 7.54286V7.54286L4.23283 8.45714C4.00336 8.82161 3.94038 9.25568 4.05784 9.66325C4.17529 10.0708 4.46348 10.4182 4.8586 10.6286V10.6286C5.25371 10.8389 5.54191 11.1863 5.65936 11.5939C5.77681 12.0015 5.71383 12.4355 5.48436 12.8C5.33514 13.0411 5.11913 13.241 4.8586 13.379V13.379C4.04439 13.8197 3.7653 14.7848 4.23283 15.5429V15.5429L4.23283 15.5505Z" stroke="#C2D43D" stroke-width="1.5" stroke-linecap="round" stroke-linejoin="round"/>
<circle cx="12.0001" cy="12.0001" r="2.4" stroke="#C2D43D" stroke-width="1.5" stroke-linecap="round" stroke-linejoin="round"/>
</svg>
