<svg width="32" height="32" viewBox="0 0 32 32" fill="none" xmlns="http://www.w3.org/2000/svg">
<path fill-rule="evenodd" clip-rule="evenodd" d="M5.64361 20.7338L6.39014 21.9325C7.0217 22.9468 8.42132 23.2968 9.51896 22.7148V22.7148C10.0415 22.4299 10.6649 22.3491 11.2519 22.4902C11.8388 22.6312 12.341 22.9825 12.6478 23.4665C12.8451 23.7742 12.9512 24.1246 12.9552 24.4824V24.4824C12.9374 25.056 13.1712 25.6118 13.6035 26.0232C14.0357 26.4347 14.6295 26.6667 15.2497 26.6665L16.7537 26.6665C17.3612 26.6665 17.9437 26.4425 18.3723 26.044C18.8008 25.6456 19.0401 25.1055 19.0372 24.5433V24.5433C19.0552 23.3827 20.0772 22.4505 21.3316 22.4506C21.7183 22.4543 22.097 22.5525 22.4295 22.7351V22.7351C23.5271 23.3171 24.9267 22.9672 25.5583 21.9529L26.3597 20.7338C26.9905 19.7208 26.6175 18.4265 25.5254 17.8386V17.8386C24.8155 17.4593 24.3781 16.7584 24.3781 15.9998C24.3781 15.2413 24.8155 14.5404 25.5254 14.1611V14.1611C26.6161 13.5772 26.9895 12.286 26.3597 11.276V11.276L25.6022 10.0671C25.3063 9.57306 24.8098 9.20846 24.2226 9.05403C23.6354 8.8996 23.0059 8.96807 22.4734 9.24429V9.24429C21.9499 9.52694 21.3261 9.60438 20.7406 9.4594C20.1551 9.31442 19.6565 8.95903 19.3555 8.47222C19.1582 8.16455 19.0522 7.81411 19.0482 7.45635V7.45635C19.0482 6.28375 18.0209 5.33318 16.7537 5.33318L15.2497 5.33318C13.9867 5.33316 12.9612 6.27756 12.9552 7.44619V7.44619C12.9581 8.01012 12.7173 8.55174 12.2864 8.9505C11.8555 9.34926 11.2701 9.57208 10.6607 9.56937C10.275 9.55981 9.89786 9.46209 9.56288 9.28492V9.28492C8.46811 8.70122 7.06937 9.04636 6.43405 10.057V10.057L5.64361 11.276C5.33766 11.762 5.25368 12.3407 5.41028 12.8842C5.56689 13.4276 5.95114 13.8908 6.47797 14.1713V14.1713C7.00479 14.4517 7.38905 14.915 7.54565 15.4584C7.70225 16.0018 7.61828 16.5806 7.31232 17.0665C7.11336 17.3879 6.82534 17.6545 6.47797 17.8386V17.8386C5.39236 18.4261 5.02023 19.7129 5.64361 20.7236V20.7236L5.64361 20.7338Z" stroke="#8C8C8C" stroke-width="1.5" stroke-linecap="round" stroke-linejoin="round"/>
<circle cx="15.9998" cy="15.9998" r="3.2" stroke="#8C8C8C" stroke-width="1.5" stroke-linecap="round" stroke-linejoin="round"/>
</svg>
