<svg width="12" height="12" viewBox="0 0 12 12" fill="none" xmlns="http://www.w3.org/2000/svg">
<path fill-rule="evenodd" clip-rule="evenodd" d="M2.11642 7.77524L2.39636 8.22476C2.6332 8.60513 3.15806 8.73634 3.56967 8.5181V8.5181C3.76561 8.41129 3.99941 8.38099 4.21951 8.43387C4.43962 8.48675 4.62795 8.61848 4.74298 8.8C4.81698 8.91538 4.85675 9.04679 4.85825 9.18095V9.18095C4.85158 9.39605 4.93927 9.60448 5.10136 9.75878C5.26346 9.91307 5.48614 10.0001 5.71868 10L6.28269 10C6.51051 10 6.72895 9.916 6.88965 9.76657C7.05036 9.61715 7.1401 9.41462 7.139 9.20381V9.20381C7.14575 8.76856 7.52901 8.419 7.99943 8.41905C8.14441 8.42044 8.28643 8.45724 8.41112 8.52571V8.52571C8.82273 8.74396 9.34759 8.61275 9.58443 8.23238L9.88496 7.77524C10.1215 7.39535 9.98163 6.90998 9.57208 6.68952V6.68952C9.30586 6.5473 9.14186 6.28445 9.14186 6C9.14186 5.71555 9.30586 5.4527 9.57208 5.31048V5.31048C9.98111 5.09151 10.1211 4.60732 9.88496 4.22857V4.22857L9.60089 3.77524C9.48993 3.58996 9.30374 3.45324 9.08354 3.39532C8.86334 3.33741 8.62727 3.36309 8.42758 3.46667V3.46667C8.23128 3.57266 7.99735 3.6017 7.7778 3.54733C7.55824 3.49297 7.37125 3.3597 7.25839 3.17715C7.18439 3.06177 7.14463 2.93035 7.14312 2.79619V2.79619C7.14312 2.35647 6.75789 2 6.28269 2L5.71868 2C5.24508 2 4.86052 2.35415 4.85825 2.79238V2.79238C4.85936 3.00386 4.76906 3.20696 4.60746 3.3565C4.44586 3.50604 4.22636 3.58959 3.99783 3.58857C3.85319 3.58499 3.71176 3.54835 3.58614 3.48191V3.48191C3.1756 3.26302 2.65107 3.39245 2.41283 3.77143V3.77143L2.11642 4.22857C2.00168 4.4108 1.97019 4.62784 2.02892 4.83162C2.08764 5.03541 2.23174 5.20912 2.4293 5.31429V5.31429C2.62686 5.41946 2.77095 5.59317 2.82968 5.79695C2.88841 6.00073 2.85691 6.21777 2.74218 6.4C2.66757 6.52054 2.55956 6.62048 2.4293 6.68952V6.68952C2.02219 6.90986 1.88265 7.39239 2.11642 7.77143V7.77143L2.11642 7.77524Z" stroke="white" stroke-width="1.2" stroke-linecap="round" stroke-linejoin="round"/>
<circle cx="5.9998" cy="5.9998" r="1.2" stroke="white" stroke-width="1.2" stroke-linecap="round" stroke-linejoin="round"/>
</svg>
