<svg width="16" height="16" viewBox="0 0 16 16" fill="none" xmlns="http://www.w3.org/2000/svg">
<path d="M6.66699 9.43975L7.46699 10.2397L9.60032 8.10645" stroke="#C2D43D" stroke-width="1.5" stroke-linecap="round" stroke-linejoin="round"/>
<path d="M7 4.66699H9C10 4.66699 10 4.16699 10 3.66699C10 2.66699 9.5 2.66699 9 2.66699H7C6.5 2.66699 6 2.66699 6 3.66699C6 4.66699 6.5 4.66699 7 4.66699Z" stroke="#C2D43D" stroke-width="1.5" stroke-miterlimit="10" stroke-linecap="round" stroke-linejoin="round"/>
<path d="M10.0737 4C11.8004 4.09344 12.6663 4.73192 12.6663 7.10419V10.2188C12.6663 12.2951 12.1478 13.3333 9.55523 13.3333H6.44412C3.85153 13.3333 3.33301 12.2951 3.33301 10.2188V7.10419C3.33301 4.73712 4.19893 4.09344 5.9256 4" stroke="#C2D43D" stroke-width="1.5" stroke-miterlimit="10" stroke-linecap="round" stroke-linejoin="round"/>
</svg>
