<svg width="20" height="20" viewBox="0 0 20 20" fill="none" xmlns="http://www.w3.org/2000/svg">
<path d="M8.3335 11.7999L9.3335 12.7999L12.0002 10.1333" stroke="#E62129" stroke-width="1.5" stroke-linecap="round" stroke-linejoin="round"/>
<path d="M8.75 5.8335H11.25C12.5 5.8335 12.5 5.2085 12.5 4.5835C12.5 3.3335 11.875 3.3335 11.25 3.3335H8.75C8.125 3.3335 7.5 3.3335 7.5 4.5835C7.5 5.8335 8.125 5.8335 8.75 5.8335Z" stroke="#E62129" stroke-width="1.5" stroke-miterlimit="10" stroke-linecap="round" stroke-linejoin="round"/>
<path d="M12.5924 5C14.7508 5.1168 15.8332 5.91491 15.8332 8.88024V12.7735C15.8332 15.3689 15.185 16.6667 11.9443 16.6667H8.05539C4.81465 16.6667 4.1665 15.3689 4.1665 12.7735V8.88024C4.1665 5.92139 5.24891 5.1168 7.40724 5" stroke="#E62129" stroke-width="1.5" stroke-miterlimit="10" stroke-linecap="round" stroke-linejoin="round"/>
</svg>
