<svg width="24" height="24" viewBox="0 0 24 24" fill="none" xmlns="http://www.w3.org/2000/svg">
<path d="M10 14.1601L11.2 15.3601L14.4 12.1602" stroke="white" stroke-width="1.5" stroke-linecap="round" stroke-linejoin="round"/>
<path d="M10.5 7H13.5C15 7 15 6.25 15 5.5C15 4 14.25 4 13.5 4H10.5C9.75 4 9 4 9 5.5C9 7 9.75 7 10.5 7Z" stroke="white" stroke-width="1.5" stroke-miterlimit="10" stroke-linecap="round" stroke-linejoin="round"/>
<path d="M15.1111 6C17.7011 6.14016 19 7.09789 19 10.6563V15.3281C19 18.4427 18.2222 20 14.3333 20H9.66667C5.77778 20 5 18.4427 5 15.3281V10.6563C5 7.10567 6.29889 6.14016 8.88889 6" stroke="white" stroke-width="1.5" stroke-miterlimit="10" stroke-linecap="round" stroke-linejoin="round"/>
</svg>
