<svg width="32" height="32" viewBox="0 0 32 32" fill="none" xmlns="http://www.w3.org/2000/svg">
<path d="M13.3335 18.88L14.9335 20.48L19.2002 16.2134" stroke="white" stroke-width="1.5" stroke-linecap="round" stroke-linejoin="round"/>
<path d="M14 9.3335H18C20 9.3335 20 8.3335 20 7.3335C20 5.3335 19 5.3335 18 5.3335H14C13 5.3335 12 5.3335 12 7.3335C12 9.3335 13 9.3335 14 9.3335Z" stroke="white" stroke-width="1.5" stroke-miterlimit="10" stroke-linecap="round" stroke-linejoin="round"/>
<path d="M20.148 8C23.6013 8.18687 25.3332 9.46385 25.3332 14.2084V20.4375C25.3332 24.5903 24.2961 26.6667 19.1109 26.6667H12.8887C7.70354 26.6667 6.6665 24.5903 6.6665 20.4375V14.2084C6.6665 9.47423 8.39836 8.18687 11.8517 8" stroke="white" stroke-width="1.5" stroke-miterlimit="10" stroke-linecap="round" stroke-linejoin="round"/>
</svg>
