<svg width="12" height="12" viewBox="0 0 12 12" fill="none" xmlns="http://www.w3.org/2000/svg">
<path d="M5 7.08006L5.6 7.68005L7.2 6.08008" stroke="white" stroke-width="1.5" stroke-linecap="round" stroke-linejoin="round"/>
<path d="M5.25 3.5H6.75C7.5 3.5 7.5 3.125 7.5 2.75C7.5 2 7.125 2 6.75 2H5.25C4.875 2 4.5 2 4.5 2.75C4.5 3.5 4.875 3.5 5.25 3.5Z" stroke="white" stroke-width="1.5" stroke-miterlimit="10" stroke-linecap="round" stroke-linejoin="round"/>
<path d="M7.55556 3C8.85056 3.07008 9.5 3.54894 9.5 5.32814V7.66407C9.5 9.22136 9.11111 10 7.16667 10H4.83333C2.88889 10 2.5 9.22136 2.5 7.66407V5.32814C2.5 3.55284 3.14944 3.07008 4.44444 3" stroke="white" stroke-width="1.5" stroke-miterlimit="10" stroke-linecap="round" stroke-linejoin="round"/>
</svg>
