<svg width="32" height="32" viewBox="0 0 32 32" fill="none" xmlns="http://www.w3.org/2000/svg">
<path d="M19.3371 13.9998C20.1957 13.9998 20.8926 14.6967 20.8926 15.5553V21.5545C20.8926 22.8513 20.3774 24.095 19.4604 25.012C18.5434 25.9291 17.2997 26.4442 16.0028 26.4442C14.706 26.4442 13.4622 25.9291 12.5452 25.012C11.6282 24.095 11.1131 22.8513 11.1131 21.5545V15.5553C11.1131 14.6967 11.8091 13.9998 12.6686 13.9998H19.3371ZM6.88905 13.9998L10.7842 13.998C10.4639 14.384 10.271 14.8597 10.2322 15.3598L10.2233 15.5553V21.5545C10.2233 22.5616 10.4819 23.5091 10.9344 24.334C10.3254 24.5999 9.65982 24.71 8.99768 24.6542C8.33554 24.5984 7.69772 24.3786 7.14185 24.0145C6.58598 23.6504 6.12957 23.1536 5.81385 22.5689C5.49812 21.9842 5.33304 21.3301 5.3335 20.6656V15.5553C5.3335 15.351 5.37376 15.1486 5.45199 14.9598C5.53022 14.7711 5.64488 14.5995 5.78942 14.4551C5.93396 14.3106 6.10555 14.1961 6.29438 14.1179C6.48321 14.0398 6.6847 13.9997 6.88905 13.9998ZM21.2224 13.998L25.1113 13.9998C25.9699 13.9998 26.6668 14.6967 26.6668 15.5553V20.6664C26.6671 21.3306 26.502 21.9844 26.1864 22.5687C25.8708 23.1531 25.4147 23.6497 24.8592 24.0137C24.3037 24.3777 23.6663 24.5977 23.0045 24.6538C22.3428 24.7098 21.6774 24.6003 21.0686 24.3349L21.1184 24.2442C21.4997 23.5216 21.7317 22.7073 21.7744 21.8442L21.7815 21.5545V15.5553C21.7815 14.9633 21.5717 14.4211 21.2224 13.998ZM16.0002 6.88867C16.4087 6.88867 16.8133 6.96914 17.1907 7.12549C17.5682 7.28184 17.9112 7.511 18.2001 7.7999C18.4889 8.08879 18.7181 8.43175 18.8745 8.80921C19.0308 9.18667 19.1113 9.59123 19.1113 9.99978C19.1113 10.4083 19.0308 10.8129 18.8745 11.1904C18.7181 11.5678 18.4889 11.9108 18.2001 12.1997C17.9112 12.4886 17.5682 12.7177 17.1907 12.8741C16.8133 13.0304 16.4087 13.1109 16.0002 13.1109C15.175 13.1109 14.3837 12.7831 13.8003 12.1997C13.2168 11.6162 12.8891 10.8249 12.8891 9.99978C12.8891 9.17466 13.2168 8.38334 13.8003 7.7999C14.3837 7.21645 15.175 6.88867 16.0002 6.88867ZM23.1139 7.77756C23.4641 7.77756 23.8109 7.84654 24.1344 7.98055C24.458 8.11456 24.7519 8.31099 24.9996 8.55861C25.2472 8.80623 25.4436 9.1002 25.5776 9.42374C25.7116 9.74727 25.7806 10.094 25.7806 10.4442C25.7806 10.7944 25.7116 11.1412 25.5776 11.4647C25.4436 11.7883 25.2472 12.0822 24.9996 12.3298C24.7519 12.5775 24.458 12.7739 24.1344 12.9079C23.8109 13.0419 23.4641 13.1109 23.1139 13.1109C22.4067 13.1109 21.7284 12.8299 21.2283 12.3298C20.7282 11.8297 20.4473 11.1515 20.4473 10.4442C20.4473 9.73698 20.7282 9.05871 21.2283 8.55861C21.7284 8.05851 22.4067 7.77756 23.1139 7.77756ZM8.88639 7.77756C9.23658 7.77756 9.58334 7.84654 9.90688 7.98055C10.2304 8.11456 10.5244 8.31099 10.772 8.55861C11.0196 8.80623 11.2161 9.1002 11.3501 9.42374C11.4841 9.74727 11.5531 10.094 11.5531 10.4442C11.5531 10.7944 11.4841 11.1412 11.3501 11.4647C11.2161 11.7883 11.0196 12.0822 10.772 12.3298C10.5244 12.5775 10.2304 12.7739 9.90688 12.9079C9.58334 13.0419 9.23658 13.1109 8.88639 13.1109C8.17914 13.1109 7.50086 12.8299 7.00077 12.3298C6.50067 11.8297 6.21972 11.1515 6.21972 10.4442C6.21972 9.73698 6.50067 9.05871 7.00077 8.55861C7.50086 8.05851 8.17914 7.77756 8.88639 7.77756Z" fill="#0076BE"/>
</svg>
