<svg width="24" height="24" viewBox="0 0 24 24" fill="none" xmlns="http://www.w3.org/2000/svg">
<path d="M14.5027 10.4545C15.1467 10.4545 15.6693 10.9891 15.6693 11.6477V16.2493C15.6693 17.2441 15.283 18.1981 14.5952 18.9015C13.9074 19.6048 12.9746 20 12.002 20C11.0294 20 10.0966 19.6048 9.4088 18.9015C8.72105 18.1981 8.33467 17.2441 8.33467 16.2493V11.6477C8.33467 10.9891 8.85667 10.4545 9.50133 10.4545H14.5027ZM5.16667 10.4545L8.088 10.4532C7.84777 10.7492 7.70313 11.1142 7.674 11.4977L7.66733 11.6477V16.2493C7.66733 17.0218 7.86133 17.7486 8.20067 18.3814C7.74395 18.5854 7.24475 18.6698 6.74814 18.627C6.25153 18.5842 5.77317 18.4155 5.35627 18.1363C4.93936 17.857 4.59706 17.4759 4.36026 17.0274C4.12347 16.5789 3.99966 16.0772 4 15.5675V11.6477C4 11.491 4.0302 11.3358 4.08887 11.191C4.14754 11.0462 4.23354 10.9146 4.34195 10.8038C4.45035 10.693 4.57904 10.6051 4.72067 10.5452C4.86229 10.4853 5.0134 10.4545 5.16667 10.4545ZM15.9167 10.4532L18.8333 10.4545C19.4773 10.4545 20 10.9891 20 11.6477V15.5682C20.0002 16.0776 19.8764 16.5791 19.6397 17.0273C19.403 17.4756 19.0609 17.8565 18.6443 18.1357C18.2277 18.4149 17.7496 18.5836 17.2533 18.6266C16.7569 18.6697 16.258 18.5856 15.8013 18.382L15.8387 18.3125C16.1247 17.7582 16.2987 17.1336 16.3307 16.4716L16.336 16.2493V11.6477C16.336 11.1936 16.1787 10.7777 15.9167 10.4532ZM12 5C12.3064 5 12.6098 5.06173 12.8929 5.18165C13.176 5.30158 13.4332 5.47736 13.6499 5.69895C13.8666 5.92054 14.0385 6.18361 14.1557 6.47314C14.273 6.76267 14.3333 7.07298 14.3333 7.38636C14.3333 7.69975 14.273 8.01006 14.1557 8.29959C14.0385 8.58911 13.8666 8.85218 13.6499 9.07378C13.4332 9.29537 13.176 9.47115 12.8929 9.59108C12.6098 9.711 12.3064 9.77273 12 9.77273C11.3812 9.77273 10.7877 9.52131 10.3501 9.07378C9.9125 8.62625 9.66667 8.01927 9.66667 7.38636C9.66667 6.75346 9.9125 6.14648 10.3501 5.69895C10.7877 5.25142 11.3812 5 12 5ZM17.3353 5.68182C17.598 5.68182 17.858 5.73473 18.1007 5.83752C18.3434 5.94031 18.5638 6.09098 18.7495 6.28092C18.9353 6.47086 19.0826 6.69635 19.1831 6.94451C19.2836 7.19268 19.3353 7.45866 19.3353 7.72727C19.3353 7.99589 19.2836 8.26187 19.1831 8.51003C19.0826 8.7582 18.9353 8.98369 18.7495 9.17363C18.5638 9.36357 18.3434 9.51423 18.1007 9.61703C17.858 9.71982 17.598 9.77273 17.3353 9.77273C16.8049 9.77273 16.2962 9.55722 15.9211 9.17363C15.546 8.79003 15.3353 8.26976 15.3353 7.72727C15.3353 7.18478 15.546 6.66452 15.9211 6.28092C16.2962 5.89732 16.8049 5.68182 17.3353 5.68182ZM6.66467 5.68182C6.92731 5.68182 7.18738 5.73473 7.43003 5.83752C7.67269 5.94031 7.89316 6.09098 8.07888 6.28092C8.2646 6.47086 8.41192 6.69635 8.51243 6.94451C8.61294 7.19268 8.66467 7.45866 8.66467 7.72727C8.66467 7.99589 8.61294 8.26187 8.51243 8.51003C8.41192 8.7582 8.2646 8.98369 8.07888 9.17363C7.89316 9.36357 7.67269 9.51423 7.43003 9.61703C7.18738 9.71982 6.92731 9.77273 6.66467 9.77273C6.13423 9.77273 5.62553 9.55722 5.25045 9.17363C4.87538 8.79003 4.66467 8.26976 4.66467 7.72727C4.66467 7.18478 4.87538 6.66452 5.25045 6.28092C5.62553 5.89732 6.13423 5.68182 6.66467 5.68182Z" fill="#0076BE"/>
</svg>
