<svg width="20" height="20" viewBox="0 0 20 20" fill="none" xmlns="http://www.w3.org/2000/svg">
<path d="M12.0857 8.75011C12.6224 8.75011 13.0579 9.18566 13.0579 9.72233V13.4718C13.0579 14.2823 12.736 15.0596 12.1628 15.6328C11.5897 16.2059 10.8124 16.5279 10.0018 16.5279C9.1913 16.5279 8.41396 16.2059 7.84083 15.6328C7.2677 15.0596 6.94572 14.2823 6.94572 13.4718V9.72233C6.94572 9.18566 7.38072 8.75011 7.91794 8.75011H12.0857ZM4.30572 8.75011L6.74016 8.749C6.53997 8.99023 6.41944 9.28757 6.39516 9.60011L6.38961 9.72233V13.4718C6.38961 14.1012 6.55127 14.6934 6.83405 15.209C6.45346 15.3752 6.03745 15.444 5.62361 15.4091C5.20977 15.3743 4.81114 15.2368 4.46372 15.0093C4.1163 14.7817 3.83104 14.4712 3.63372 14.1058C3.43639 13.7404 3.33321 13.3315 3.3335 12.9162V9.72233C3.3335 9.59461 3.35866 9.46814 3.40756 9.35015C3.45645 9.23216 3.52811 9.12496 3.61845 9.03467C3.70879 8.94438 3.81603 8.87278 3.93405 8.82396C4.05207 8.77513 4.178 8.75004 4.30572 8.75011ZM13.2641 8.749L15.6946 8.75011C16.2313 8.75011 16.6668 9.18566 16.6668 9.72233V12.9168C16.667 13.3319 16.5638 13.7405 16.3666 14.1057C16.1693 14.4709 15.8843 14.7813 15.5371 15.0088C15.1899 15.2363 14.7915 15.3738 14.3779 15.4089C13.9643 15.4439 13.5485 15.3754 13.1679 15.2096L13.1991 15.1529C13.4374 14.7012 13.5824 14.1923 13.6091 13.6529L13.6135 13.4718V9.72233C13.6135 9.35233 13.4824 9.01344 13.2641 8.749ZM10.0002 4.30566C10.2555 4.30566 10.5084 4.35596 10.7443 4.45368C10.9802 4.55139 11.1945 4.69462 11.3751 4.87518C11.5557 5.05574 11.6989 5.27009 11.7966 5.506C11.8943 5.74191 11.9446 5.99476 11.9446 6.25011C11.9446 6.50546 11.8943 6.7583 11.7966 6.99422C11.6989 7.23013 11.5557 7.44448 11.3751 7.62504C11.1945 7.8056 10.9802 7.94882 10.7443 8.04654C10.5084 8.14426 10.2555 8.19455 10.0002 8.19455C9.48446 8.19455 8.98989 7.98969 8.62523 7.62504C8.26058 7.26038 8.05572 6.76581 8.05572 6.25011C8.05572 5.73441 8.26058 5.23983 8.62523 4.87518C8.98989 4.51052 9.48446 4.30566 10.0002 4.30566ZM14.4463 4.86122C14.6651 4.86122 14.8819 4.90433 15.0841 4.98809C15.2863 5.07184 15.47 5.19461 15.6248 5.34938C15.7796 5.50414 15.9023 5.68787 15.9861 5.89008C16.0698 6.09229 16.1129 6.30902 16.1129 6.52789C16.1129 6.74676 16.0698 6.96348 15.9861 7.16569C15.9023 7.3679 15.7796 7.55163 15.6248 7.7064C15.47 7.86116 15.2863 7.98393 15.0841 8.06769C14.8819 8.15144 14.6651 8.19455 14.4463 8.19455C14.0042 8.19455 13.5803 8.01896 13.2678 7.7064C12.9552 7.39384 12.7796 6.96991 12.7796 6.52789C12.7796 6.08586 12.9552 5.66194 13.2678 5.34938C13.5803 5.03681 14.0042 4.86122 14.4463 4.86122ZM5.55405 4.86122C5.77292 4.86122 5.98965 4.90433 6.19186 4.98809C6.39407 5.07184 6.5778 5.19461 6.73256 5.34938C6.88733 5.50414 7.01009 5.68787 7.09385 5.89008C7.17761 6.09229 7.22072 6.30902 7.22072 6.52789C7.22072 6.74676 7.17761 6.96348 7.09385 7.16569C7.01009 7.3679 6.88733 7.55163 6.73256 7.7064C6.5778 7.86116 6.39407 7.98393 6.19186 8.06769C5.98965 8.15144 5.77292 8.19455 5.55405 8.19455C5.11202 8.19455 4.6881 8.01896 4.37554 7.7064C4.06298 7.39384 3.88739 6.96991 3.88739 6.52789C3.88739 6.08586 4.06298 5.66194 4.37554 5.34938C4.6881 5.03681 5.11202 4.86122 5.55405 4.86122Z" fill="#0076BE"/>
</svg>
