<svg width="12" height="12" viewBox="0 0 12 12" fill="none" xmlns="http://www.w3.org/2000/svg">
<path d="M7.25133 5.25065C7.57333 5.25065 7.83467 5.51198 7.83467 5.83398V8.08365C7.83467 8.56997 7.64148 9.03637 7.2976 9.38025C6.95372 9.72413 6.48732 9.91732 6.001 9.91732C5.51468 9.91732 5.04828 9.72413 4.7044 9.38025C4.36052 9.03637 4.16733 8.56997 4.16733 8.08365V5.83398C4.16733 5.51198 4.42833 5.25065 4.75067 5.25065H7.25133ZM2.58333 5.25065L4.044 5.24998C3.92388 5.39472 3.85157 5.57313 3.837 5.76065L3.83367 5.83398V8.08365C3.83367 8.46132 3.93067 8.81665 4.10033 9.12598C3.87198 9.22571 3.62237 9.26698 3.37407 9.24606C3.12577 9.22514 2.88658 9.14269 2.67813 9.00616C2.46968 8.86963 2.29853 8.68332 2.18013 8.46406C2.06174 8.2448 1.99983 7.9995 2 7.75032V5.83398C2 5.75735 2.0151 5.68147 2.04444 5.61068C2.07377 5.53988 2.11677 5.47556 2.17097 5.42139C2.22518 5.36722 2.28952 5.32425 2.36033 5.29496C2.43114 5.26566 2.5067 5.25061 2.58333 5.25065ZM7.95833 5.24998L9.41667 5.25065C9.73867 5.25065 10 5.51198 10 5.83398V7.75065C10.0001 7.9997 9.93818 8.24486 9.81984 8.46401C9.7015 8.68315 9.53045 8.86937 9.32214 9.00588C9.11383 9.14238 8.8748 9.22487 8.62664 9.2459C8.37847 9.26692 8.12898 9.22583 7.90067 9.12632L7.91933 9.09232C8.06233 8.82132 8.14933 8.51598 8.16533 8.19232L8.168 8.08365V5.83398C8.168 5.61198 8.08933 5.40865 7.95833 5.24998ZM6 2.58398C6.15321 2.58398 6.30492 2.61416 6.44646 2.67279C6.58801 2.73142 6.71662 2.81736 6.82496 2.92569C6.93329 3.03403 7.01923 3.16264 7.07786 3.30419C7.13649 3.44573 7.16667 3.59744 7.16667 3.75065C7.16667 3.90386 7.13649 4.05557 7.07786 4.19711C7.01923 4.33866 6.93329 4.46727 6.82496 4.57561C6.71662 4.68394 6.58801 4.76988 6.44646 4.82851C6.30492 4.88714 6.15321 4.91732 6 4.91732C5.69058 4.91732 5.39383 4.7944 5.17504 4.57561C4.95625 4.35682 4.83333 4.06007 4.83333 3.75065C4.83333 3.44123 4.95625 3.14449 5.17504 2.92569C5.39383 2.7069 5.69058 2.58398 6 2.58398ZM8.66767 2.91732C8.79899 2.91732 8.92902 2.94318 9.05035 2.99344C9.17168 3.04369 9.28191 3.11735 9.37477 3.21021C9.46763 3.30307 9.54129 3.41331 9.59155 3.53463C9.6418 3.65596 9.66767 3.786 9.66767 3.91732C9.66767 4.04864 9.6418 4.17868 9.59155 4.3C9.54129 4.42133 9.46763 4.53157 9.37477 4.62442C9.28191 4.71728 9.17168 4.79094 9.05035 4.8412C8.92902 4.89145 8.79899 4.91732 8.66767 4.91732C8.40245 4.91732 8.1481 4.81196 7.96056 4.62442C7.77302 4.43689 7.66767 4.18253 7.66767 3.91732C7.66767 3.6521 7.77302 3.39775 7.96056 3.21021C8.1481 3.02267 8.40245 2.91732 8.66767 2.91732ZM3.33233 2.91732C3.46366 2.91732 3.59369 2.94318 3.71502 2.99344C3.83634 3.04369 3.94658 3.11735 4.03944 3.21021C4.1323 3.30307 4.20596 3.41331 4.25621 3.53463C4.30647 3.65596 4.33233 3.786 4.33233 3.91732C4.33233 4.04864 4.30647 4.17868 4.25621 4.3C4.20596 4.42133 4.1323 4.53157 4.03944 4.62442C3.94658 4.71728 3.83634 4.79094 3.71502 4.8412C3.59369 4.89145 3.46366 4.91732 3.33233 4.91732C3.06712 4.91732 2.81276 4.81196 2.62523 4.62442C2.43769 4.43689 2.33233 4.18253 2.33233 3.91732C2.33233 3.6521 2.43769 3.39775 2.62523 3.21021C2.81276 3.02267 3.06712 2.91732 3.33233 2.91732Z" fill="#C2D43D"/>
</svg>
