<svg width="16" height="16" viewBox="0 0 16 16" fill="none" xmlns="http://www.w3.org/2000/svg">
<path d="M9.66877 6.99989C10.0981 6.99989 10.4465 7.34834 10.4465 7.77767V10.7772C10.4465 11.4256 10.189 12.0475 9.73046 12.506C9.27195 12.9645 8.65008 13.2221 8.00166 13.2221C7.35323 13.2221 6.73137 12.9645 6.27286 12.506C5.81436 12.0475 5.55677 11.4256 5.55677 10.7772V7.77767C5.55677 7.34834 5.90477 6.99989 6.33455 6.99989H9.66877ZM3.44477 6.99989L5.39233 6.999C5.23217 7.19199 5.13575 7.42986 5.11633 7.67989L5.11188 7.77767V10.7772C5.11188 11.2808 5.24121 11.7546 5.46744 12.167C5.16296 12.3 4.83016 12.355 4.49908 12.3271C4.16801 12.2992 3.84911 12.1893 3.57117 12.0072C3.29324 11.8252 3.06503 11.5768 2.90717 11.2844C2.74931 10.9921 2.66676 10.665 2.66699 10.3328V7.77767C2.66699 7.67549 2.68713 7.57432 2.72624 7.47992C2.76535 7.38553 2.82269 7.29977 2.89496 7.22754C2.96723 7.15531 3.05302 7.09803 3.14744 7.05897C3.24185 7.01991 3.34259 6.99983 3.44477 6.99989ZM10.6114 6.999L12.5559 6.99989C12.9852 6.99989 13.3337 7.34834 13.3337 7.77767V10.3332C13.3338 10.6653 13.2512 10.9922 13.0934 11.2844C12.9357 11.5766 12.7076 11.8249 12.4298 12.0069C12.1521 12.1889 11.8334 12.2989 11.5025 12.3269C11.1716 12.3549 10.839 12.3001 10.5345 12.1674L10.5594 12.1221C10.7501 11.7608 10.8661 11.3537 10.8874 10.9221L10.891 10.7772V7.77767C10.891 7.48167 10.7861 7.21056 10.6114 6.999ZM8.00033 3.44434C8.2046 3.44434 8.40688 3.48457 8.59561 3.56275C8.78434 3.64092 8.95582 3.7555 9.10027 3.89995C9.24472 4.04439 9.3593 4.21588 9.43747 4.40461C9.51564 4.59333 9.55588 4.79561 9.55588 4.99989C9.55588 5.20417 9.51564 5.40645 9.43747 5.59518C9.3593 5.78391 9.24472 5.95539 9.10027 6.09983C8.95582 6.24428 8.78434 6.35886 8.59561 6.43704C8.40688 6.51521 8.2046 6.55545 8.00033 6.55545C7.58777 6.55545 7.1921 6.39156 6.90038 6.09983C6.60866 5.80811 6.44477 5.41245 6.44477 4.99989C6.44477 4.58733 6.60866 4.19167 6.90038 3.89995C7.1921 3.60822 7.58777 3.44434 8.00033 3.44434ZM11.5572 3.88878C11.7323 3.88878 11.9057 3.92327 12.0675 3.99027C12.2292 4.05728 12.3762 4.15549 12.5 4.2793C12.6238 4.40312 12.722 4.5501 12.7891 4.71187C12.8561 4.87364 12.8905 5.04702 12.8905 5.22211C12.8905 5.39721 12.8561 5.57059 12.7891 5.73236C12.722 5.89413 12.6238 6.04111 12.5 6.16492C12.3762 6.28873 12.2292 6.38695 12.0675 6.45395C11.9057 6.52096 11.7323 6.55545 11.5572 6.55545C11.2036 6.55545 10.8645 6.41497 10.6144 6.16492C10.3644 5.91487 10.2239 5.57574 10.2239 5.22211C10.2239 4.86849 10.3644 4.52935 10.6144 4.2793C10.8645 4.02926 11.2036 3.88878 11.5572 3.88878ZM4.44344 3.88878C4.61853 3.88878 4.79191 3.92327 4.95368 3.99027C5.11545 4.05728 5.26243 4.15549 5.38625 4.2793C5.51006 4.40312 5.60827 4.5501 5.67528 4.71187C5.74228 4.87364 5.77677 5.04702 5.77677 5.22211C5.77677 5.39721 5.74228 5.57059 5.67528 5.73236C5.60827 5.89413 5.51006 6.04111 5.38625 6.16492C5.26243 6.28873 5.11545 6.38695 4.95368 6.45395C4.79191 6.52096 4.61853 6.55545 4.44344 6.55545C4.08982 6.55545 3.75068 6.41497 3.50063 6.16492C3.25058 5.91487 3.1101 5.57574 3.1101 5.22211C3.1101 4.86849 3.25058 4.52935 3.50063 4.2793C3.75068 4.02926 4.08982 3.88878 4.44344 3.88878Z" fill="white"/>
</svg>
