<svg width="12" height="12" viewBox="0 0 12 12" fill="none" xmlns="http://www.w3.org/2000/svg">
<path d="M9.66302 9.36347H8.35889C8.34571 9.36405 8.33261 9.36126 8.32082 9.35536C8.30902 9.34947 8.29893 9.34066 8.29149 9.32977C8.28587 9.31882 8.28294 9.30669 8.28294 9.29439C8.28294 9.28208 8.28587 9.26995 8.29149 9.25901L8.73631 7.57409C8.74827 7.5281 8.749 7.47991 8.73844 7.43358C8.72789 7.38725 8.70635 7.34414 8.67565 7.30787C8.64361 7.26939 8.60339 7.23853 8.55792 7.21755C8.51245 7.19656 8.46288 7.18598 8.4128 7.18655H3.5973C3.54723 7.18598 3.49766 7.19656 3.45219 7.21755C3.40672 7.23853 3.3665 7.26939 3.33446 7.30787C3.30376 7.34414 3.28222 7.38725 3.27167 7.43358C3.26111 7.47991 3.26184 7.5281 3.2738 7.57409L3.71862 9.25901C3.72424 9.26995 3.72717 9.28208 3.72717 9.29439C3.72717 9.30669 3.72424 9.31882 3.71862 9.32977C3.71035 9.34229 3.69862 9.35213 3.68486 9.35812C3.6711 9.3641 3.65591 9.36596 3.64111 9.36347H2.33698C2.24761 9.36347 2.1619 9.39897 2.0987 9.46217C2.0355 9.52537 2 9.61108 2 9.70045C2 9.78983 2.0355 9.87554 2.0987 9.93874C2.1619 10.0019 2.24761 10.0374 2.33698 10.0374H9.66302C9.75239 10.0374 9.8381 10.0019 9.9013 9.93874C9.9645 9.87554 10 9.78983 10 9.70045C10 9.61108 9.9645 9.52537 9.9013 9.46217C9.8381 9.39897 9.75239 9.36347 9.66302 9.36347ZM6 8.01553C6.08278 8.01487 6.1639 8.03881 6.23306 8.08431C6.30222 8.12982 6.3563 8.19485 6.38845 8.27114C6.42059 8.34743 6.42935 8.43155 6.41361 8.51283C6.39787 8.59411 6.35834 8.66888 6.30003 8.72765C6.24173 8.78643 6.16728 8.82656 6.08614 8.84296C6.00499 8.85936 5.9208 8.85128 5.84425 8.81976C5.7677 8.78823 5.70224 8.73468 5.65617 8.66589C5.61011 8.5971 5.58551 8.51618 5.58551 8.43339C5.58506 8.37868 5.59546 8.32442 5.61609 8.27374C5.63672 8.22306 5.66718 8.17697 5.70571 8.13812C5.74425 8.09928 5.79009 8.06845 5.8406 8.04741C5.89111 8.02636 5.94528 8.01553 6 8.01553ZM4.07245 6.5227C4.07419 6.5662 4.09271 6.60735 4.12412 6.6375C4.15553 6.66766 4.1974 6.68448 4.24094 6.68445H7.75906C7.80316 6.68446 7.84552 6.66717 7.87702 6.6363C7.90853 6.60542 7.92667 6.56343 7.92755 6.51933C7.92747 6.15872 7.82642 5.80534 7.63583 5.49922C7.44525 5.19309 7.17275 4.94645 6.8492 4.78723C6.83656 4.78023 6.82602 4.76998 6.81868 4.75754C6.81135 4.74509 6.80748 4.73091 6.80748 4.71646C6.80748 4.70202 6.81135 4.68783 6.81868 4.67539C6.82602 4.66294 6.83656 4.65269 6.8492 4.6457C7.10478 4.46386 7.29594 4.20549 7.39509 3.9079C7.49423 3.61032 7.49623 3.28893 7.40078 2.99014C7.30533 2.69135 7.11739 2.43063 6.86409 2.24563C6.61079 2.06063 6.30524 1.96094 5.99158 1.96094C5.67791 1.96094 5.37236 2.06063 5.11906 2.24563C4.86576 2.43063 4.67781 2.69135 4.58237 2.99014C4.48692 3.28893 4.48892 3.61032 4.58806 3.9079C4.68721 4.20549 4.87837 4.46386 5.13395 4.6457C5.14582 4.65476 5.15537 4.66651 5.16182 4.67998C5.16826 4.69346 5.17142 4.70827 5.17102 4.7232C5.16927 4.73744 5.16406 4.75103 5.15583 4.76278C5.14761 4.77453 5.13662 4.78408 5.12384 4.7906C4.80557 4.95386 4.53881 5.20219 4.3532 5.50796C4.16759 5.81374 4.07041 6.165 4.07245 6.5227ZM6 5.20846C6.06614 5.20846 6.12956 5.23473 6.17633 5.2815C6.22309 5.32826 6.24937 5.39169 6.24937 5.45783V5.86895C6.24937 5.93508 6.22309 5.99851 6.17633 6.04528C6.12956 6.09204 6.06614 6.11832 6 6.11832C5.93386 6.11832 5.87043 6.09204 5.82367 6.04528C5.7769 5.99851 5.75063 5.93508 5.75063 5.86895V5.45783C5.75063 5.39169 5.7769 5.32826 5.82367 5.2815C5.87043 5.23473 5.93386 5.20846 6 5.20846ZM5.20809 3.18656C5.21241 3.17445 5.21956 3.16355 5.22893 3.15476C5.23831 3.14597 5.24965 3.13954 5.262 3.13601C5.27287 3.13011 5.28503 3.12702 5.29739 3.12702C5.30975 3.12702 5.32191 3.13011 5.33277 3.13601C5.63373 3.33189 5.98464 3.43716 6.34372 3.43929C6.47165 3.43789 6.59915 3.42435 6.72451 3.39885C6.72973 3.39619 6.73551 3.3948 6.74136 3.3948C6.74722 3.3948 6.753 3.39619 6.75821 3.39885C6.76319 3.40301 6.76725 3.40815 6.77015 3.41395C6.77305 3.41975 6.77472 3.42608 6.77506 3.43255C6.77559 3.55064 6.75036 3.66742 6.70113 3.77476C6.6519 3.88209 6.57985 3.9774 6.49001 4.05404C6.40017 4.13068 6.2947 4.18681 6.18095 4.2185C6.06719 4.2502 5.94789 4.25671 5.83137 4.23758C5.71484 4.21845 5.60388 4.17414 5.50624 4.10773C5.40859 4.04132 5.3266 3.95442 5.26598 3.85308C5.20536 3.75174 5.16757 3.6384 5.15524 3.52096C5.14292 3.40351 5.15635 3.28479 5.19461 3.17308L5.20809 3.18656Z" fill="#262626"/>
</svg>
