<svg width="24" height="24" viewBox="0 0 24 24" fill="none" xmlns="http://www.w3.org/2000/svg">
<path d="M19.326 18.6648H16.7178C16.6914 18.666 16.6652 18.6605 16.6416 18.6488C16.6181 18.6371 16.5979 18.6196 16.583 18.5981C16.5717 18.5764 16.5659 18.5524 16.5659 18.528C16.5659 18.5036 16.5717 18.4796 16.583 18.4579L17.4726 15.12C17.4965 15.0289 17.498 14.9334 17.4769 14.8416C17.4558 14.7498 17.4127 14.6644 17.3513 14.5926C17.2872 14.5163 17.2068 14.4552 17.1158 14.4136C17.0249 14.3721 16.9258 14.3511 16.8256 14.3522H7.19461C7.09446 14.3511 6.99531 14.3721 6.90438 14.4136C6.81344 14.4552 6.733 14.5163 6.66891 14.5926C6.60751 14.6644 6.56444 14.7498 6.54333 14.8416C6.52222 14.9334 6.52368 15.0289 6.5476 15.12L7.43724 18.4579C7.44847 18.4796 7.45433 18.5036 7.45433 18.528C7.45433 18.5524 7.44847 18.5764 7.43724 18.5981C7.42069 18.6229 7.39724 18.6424 7.36972 18.6542C7.34221 18.6661 7.31181 18.6698 7.28222 18.6648H4.67397C4.49522 18.6648 4.32379 18.7352 4.1974 18.8604C4.07101 18.9856 4 19.1554 4 19.3324C4 19.5095 4.07101 19.6793 4.1974 19.8045C4.32379 19.9297 4.49522 20 4.67397 20H19.326C19.5048 20 19.6762 19.9297 19.8026 19.8045C19.929 19.6793 20 19.5095 20 19.3324C20 19.1554 19.929 18.9856 19.8026 18.8604C19.6762 18.7352 19.5048 18.6648 19.326 18.6648ZM12 15.9945C12.1656 15.9932 12.3278 16.0406 12.4661 16.1307C12.6044 16.2209 12.7126 16.3497 12.7769 16.5009C12.8412 16.652 12.8587 16.8187 12.8272 16.9797C12.7957 17.1407 12.7167 17.2888 12.6001 17.4052C12.4835 17.5217 12.3346 17.6012 12.1723 17.6337C12.01 17.6662 11.8416 17.6502 11.6885 17.5877C11.5354 17.5253 11.4045 17.4192 11.3123 17.2829C11.2202 17.1466 11.171 16.9863 11.171 16.8223C11.1701 16.7139 11.1909 16.6064 11.2322 16.506C11.2734 16.4056 11.3344 16.3143 11.4114 16.2374C11.4885 16.1604 11.5802 16.0993 11.6812 16.0576C11.7822 16.016 11.8906 15.9945 12 15.9945ZM8.1449 13.0371C8.14839 13.1233 8.18542 13.2048 8.24824 13.2645C8.31107 13.3243 8.3948 13.3576 8.48189 13.3575H15.5181C15.6063 13.3576 15.691 13.3233 15.754 13.2621C15.8171 13.201 15.8533 13.1178 15.8551 13.0304C15.8549 12.316 15.6528 11.616 15.2717 11.0095C14.8905 10.4031 14.3455 9.91446 13.6984 9.59904C13.6731 9.58519 13.652 9.56487 13.6374 9.54022C13.6227 9.51557 13.615 9.48747 13.615 9.45885C13.615 9.43023 13.6227 9.40213 13.6374 9.37748C13.652 9.35282 13.6731 9.33251 13.6984 9.31866C14.2096 8.95842 14.5919 8.44658 14.7902 7.85705C14.9885 7.26752 14.9925 6.63082 14.8016 6.0389C14.6107 5.44698 14.2348 4.93048 13.7282 4.56399C13.2216 4.19751 12.6105 4 11.9832 4C11.3558 4 10.7447 4.19751 10.2381 4.56399C9.73152 4.93048 9.35563 5.44698 9.16474 6.0389C8.97385 6.63082 8.97783 7.26752 9.17613 7.85705C9.37442 8.44658 9.75675 8.95842 10.2679 9.31866C10.2916 9.33661 10.3107 9.35989 10.3236 9.38659C10.3365 9.41328 10.3428 9.44262 10.342 9.4722C10.3385 9.5004 10.3281 9.52733 10.3117 9.55061C10.2952 9.57389 10.2732 9.59281 10.2477 9.60572C9.61114 9.92916 9.07762 10.4211 8.7064 11.0269C8.33518 11.6326 8.14082 12.3285 8.1449 13.0371ZM12 10.4335C12.1323 10.4335 12.2591 10.4856 12.3527 10.5782C12.4462 10.6709 12.4987 10.7965 12.4987 10.9275V11.742C12.4987 11.873 12.4462 11.9987 12.3527 12.0913C12.2591 12.184 12.1323 12.236 12 12.236C11.8677 12.236 11.7409 12.184 11.6473 12.0913C11.5538 11.9987 11.5013 11.873 11.5013 11.742V10.9275C11.5013 10.7965 11.5538 10.6709 11.6473 10.5782C11.7409 10.4856 11.8677 10.4335 12 10.4335ZM10.4162 6.42802C10.4248 6.40404 10.4391 6.38245 10.4579 6.36503C10.4766 6.34762 10.4993 6.33488 10.524 6.32788C10.5457 6.31619 10.5701 6.31007 10.5948 6.31007C10.6195 6.31007 10.6438 6.31619 10.6655 6.32788C11.2675 6.71594 11.9693 6.92449 12.6874 6.9287C12.9433 6.92593 13.1983 6.8991 13.449 6.84859C13.4595 6.84332 13.471 6.84057 13.4827 6.84057C13.4944 6.84057 13.506 6.84332 13.5164 6.84859C13.5264 6.85683 13.5345 6.86701 13.5403 6.8785C13.5461 6.88998 13.5494 6.90253 13.5501 6.91535C13.5512 7.14929 13.5007 7.38064 13.4023 7.59328C13.3038 7.80592 13.1597 7.99473 12.98 8.14656C12.8003 8.29838 12.5894 8.40957 12.3619 8.47237C12.1344 8.53516 11.8958 8.54806 11.6627 8.51016C11.4297 8.47226 11.2078 8.38447 11.0125 8.25292C10.8172 8.12136 10.6532 7.9492 10.532 7.74844C10.4107 7.54768 10.3351 7.32314 10.3105 7.09048C10.2858 6.85782 10.3127 6.62264 10.3892 6.40131L10.4162 6.42802Z" fill="#0076BE"/>
</svg>
