<svg width="16" height="16" viewBox="0 0 16 16" fill="none" xmlns="http://www.w3.org/2000/svg">
<path d="M12.8843 12.4853H11.1455C11.1279 12.4861 11.1105 12.4823 11.0948 12.4745C11.079 12.4666 11.0656 12.4549 11.0556 12.4403C11.0482 12.4257 11.0442 12.4096 11.0442 12.3932C11.0442 12.3768 11.0482 12.3606 11.0556 12.346L11.6487 10.0994C11.6647 10.0381 11.6657 9.97386 11.6516 9.91209C11.6375 9.85032 11.6088 9.79283 11.5679 9.74447C11.5251 9.69317 11.4715 9.65203 11.4109 9.62405C11.3503 9.59607 11.2842 9.58195 11.2174 9.58272H4.79673C4.72997 9.58195 4.66387 9.59607 4.60324 9.62405C4.54262 9.65203 4.489 9.69317 4.44627 9.74447C4.40533 9.79283 4.37662 9.85032 4.36255 9.91209C4.34847 9.97386 4.34945 10.0381 4.36539 10.0994L4.95848 12.346C4.96597 12.3606 4.96988 12.3768 4.96988 12.3932C4.96988 12.4096 4.96597 12.4257 4.95848 12.4403C4.94745 12.457 4.93182 12.4702 4.91348 12.4781C4.89513 12.4861 4.87487 12.4886 4.85514 12.4853H3.1163C2.99714 12.4853 2.88285 12.5326 2.79859 12.6169C2.71433 12.7011 2.66699 12.8154 2.66699 12.9346C2.66699 13.0538 2.71433 13.168 2.79859 13.2523C2.88285 13.3366 2.99714 13.3839 3.1163 13.3839H12.8843C13.0035 13.3839 13.1178 13.3366 13.2021 13.2523C13.2863 13.168 13.3337 13.0538 13.3337 12.9346C13.3337 12.8154 13.2863 12.7011 13.2021 12.6169C13.1178 12.5326 13.0035 12.4853 12.8843 12.4853ZM8.00032 10.688C8.1107 10.6871 8.21886 10.7191 8.31107 10.7797C8.40329 10.8404 8.47539 10.9271 8.51825 11.0288C8.56111 11.1306 8.57279 11.2427 8.5518 11.3511C8.53081 11.4595 8.47811 11.5592 8.40037 11.6375C8.32264 11.7159 8.22337 11.7694 8.11517 11.7913C8.00698 11.8131 7.89473 11.8024 7.79266 11.7603C7.69059 11.7183 7.60331 11.6469 7.54189 11.5552C7.48047 11.4635 7.44768 11.3556 7.44767 11.2452C7.44708 11.1722 7.46094 11.0999 7.48844 11.0323C7.51595 10.9647 7.55656 10.9033 7.60794 10.8515C7.65932 10.7997 7.72045 10.7586 7.78779 10.7305C7.85514 10.7025 7.92737 10.688 8.00032 10.688ZM5.43026 8.69758C5.43258 8.75559 5.45727 8.81045 5.49916 8.85066C5.54104 8.89086 5.59686 8.91329 5.65492 8.91325H10.3457C10.4045 8.91326 10.461 8.89021 10.503 8.84904C10.545 8.80788 10.5692 8.75189 10.5704 8.69309C10.5703 8.21228 10.4356 7.74111 10.1814 7.33294C9.92733 6.92477 9.56399 6.59592 9.13259 6.38362C9.11574 6.3743 9.10169 6.36063 9.0919 6.34403C9.08212 6.32744 9.07696 6.30853 9.07696 6.28927C9.07696 6.27 9.08212 6.25109 9.0919 6.2345C9.10169 6.21791 9.11574 6.20424 9.13259 6.19491C9.47336 5.95246 9.72825 5.60797 9.86044 5.21119C9.99264 4.81441 9.9953 4.38589 9.86803 3.9875C9.74077 3.58911 9.49018 3.24149 9.15244 2.99483C8.81471 2.74816 8.40731 2.61523 7.98909 2.61523C7.57087 2.61523 7.16348 2.74816 6.82574 2.99483C6.48801 3.24149 6.23741 3.58911 6.11015 3.9875C5.98289 4.38589 5.98555 4.81441 6.11774 5.21119C6.24994 5.60797 6.50482 5.95246 6.84559 6.19491C6.86142 6.207 6.87416 6.22266 6.88275 6.24063C6.89134 6.2586 6.89555 6.27834 6.89502 6.29825C6.89269 6.31724 6.88574 6.33536 6.87477 6.35103C6.8638 6.36669 6.84915 6.37943 6.83211 6.38812C6.40776 6.6058 6.05207 6.9369 5.80459 7.3446C5.55711 7.75231 5.42754 8.22065 5.43026 8.69758ZM8.00032 6.94526C8.08851 6.94526 8.17308 6.98029 8.23543 7.04265C8.29779 7.105 8.33282 7.18957 8.33282 7.27775V7.82591C8.33282 7.9141 8.29779 7.99867 8.23543 8.06102C8.17308 8.12337 8.08851 8.1584 8.00032 8.1584C7.91214 8.1584 7.82757 8.12337 7.76522 8.06102C7.70286 7.99867 7.66783 7.9141 7.66783 7.82591V7.27775C7.66783 7.18957 7.70286 7.105 7.76522 7.04265C7.82757 6.98029 7.91214 6.94526 8.00032 6.94526ZM6.94444 4.24939C6.95021 4.23325 6.95974 4.21872 6.97224 4.207C6.98474 4.19528 6.99986 4.18671 7.01633 4.18199C7.03081 4.17413 7.04703 4.17001 7.06351 4.17001C7.07999 4.17001 7.09621 4.17413 7.11069 4.18199C7.51197 4.44317 7.97984 4.58354 8.45862 4.58637C8.62919 4.58451 8.79919 4.56645 8.96635 4.53246C8.9733 4.52891 8.981 4.52706 8.98881 4.52706C8.99662 4.52706 9.00432 4.52891 9.01128 4.53246C9.01791 4.538 9.02332 4.54485 9.02719 4.55258C9.03105 4.56031 9.03329 4.56876 9.03374 4.57739C9.03445 4.73484 9.0008 4.89055 8.93516 5.03366C8.86952 5.17678 8.77346 5.30385 8.65367 5.40604C8.53389 5.50822 8.39326 5.58306 8.24159 5.62532C8.08991 5.66759 7.93085 5.67627 7.77548 5.65076C7.62011 5.62525 7.47217 5.56617 7.34198 5.47763C7.21178 5.38908 7.10246 5.27321 7.02163 5.13809C6.94081 5.00297 6.89042 4.85185 6.87399 4.69526C6.85755 4.53867 6.87546 4.38038 6.92647 4.23142L6.94444 4.24939Z" fill="#0076BE"/>
</svg>
