<svg width="32" height="32" viewBox="0 0 32 32" fill="none" xmlns="http://www.w3.org/2000/svg">
<path d="M25.7682 24.9715H22.2905C22.2554 24.9731 22.2205 24.9656 22.189 24.9499C22.1576 24.9342 22.1306 24.9107 22.1108 24.8817C22.0958 24.8525 22.088 24.8201 22.088 24.7873C22.088 24.7545 22.0958 24.7222 22.1108 24.693L23.297 20.1998C23.3289 20.0772 23.3308 19.9487 23.3027 19.8252C23.2745 19.7016 23.2171 19.5866 23.1352 19.4899C23.0498 19.3873 22.9425 19.305 22.8213 19.2491C22.7 19.1931 22.5678 19.1649 22.4343 19.1664H9.59297C9.45944 19.1649 9.32725 19.1931 9.206 19.2491C9.08475 19.305 8.9775 19.3873 8.89205 19.4899C8.81018 19.5866 8.75276 19.7016 8.72461 19.8252C8.69646 19.9487 8.69841 20.0772 8.73029 20.1998L9.91648 24.693C9.93146 24.7222 9.93927 24.7545 9.93927 24.7873C9.93927 24.8201 9.93146 24.8525 9.91648 24.8817C9.89442 24.915 9.86315 24.9413 9.82646 24.9573C9.78977 24.9732 9.74925 24.9782 9.70979 24.9715H6.23212C5.99379 24.9715 5.76522 25.0662 5.5967 25.2347C5.42817 25.4033 5.3335 25.6318 5.3335 25.8702C5.3335 26.1085 5.42817 26.3371 5.5967 26.5056C5.76522 26.6741 5.99379 26.7688 6.23212 26.7688H25.7682C26.0065 26.7688 26.2351 26.6741 26.4036 26.5056C26.5722 26.3371 26.6668 26.1085 26.6668 25.8702C26.6668 25.6318 26.5722 25.4033 26.4036 25.2347C26.2351 25.0662 26.0065 24.9715 25.7682 24.9715ZM16.0002 21.377C16.2209 21.3753 16.4372 21.4391 16.6217 21.5604C16.8061 21.6818 16.9503 21.8552 17.036 22.0586C17.1217 22.2621 17.1451 22.4864 17.1031 22.7032C17.0611 22.9199 16.9557 23.1193 16.8003 23.276C16.6448 23.4328 16.4463 23.5398 16.2299 23.5835C16.0135 23.6272 15.789 23.6057 15.5848 23.5216C15.3807 23.4376 15.2061 23.2948 15.0833 23.1113C14.9604 22.9279 14.8949 22.7121 14.8949 22.4913C14.8937 22.3454 14.9214 22.2007 14.9764 22.0656C15.0314 21.9304 15.1126 21.8075 15.2154 21.7039C15.3182 21.6004 15.4404 21.5181 15.5751 21.462C15.7098 21.4059 15.8543 21.377 16.0002 21.377ZM10.86 17.3961C10.8647 17.5122 10.9141 17.6219 10.9978 17.7023C11.0816 17.7827 11.1932 17.8276 11.3093 17.8275H20.691C20.8086 17.8275 20.9215 17.7814 21.0056 17.6991C21.0896 17.6167 21.1379 17.5047 21.1403 17.3871C21.1401 16.4255 20.8706 15.4832 20.3624 14.6669C19.8542 13.8505 19.1275 13.1928 18.2647 12.7682C18.231 12.7496 18.2029 12.7222 18.1833 12.689C18.1638 12.6559 18.1534 12.618 18.1534 12.5795C18.1534 12.541 18.1638 12.5032 18.1833 12.47C18.2029 12.4368 18.231 12.4095 18.2647 12.3908C18.9462 11.9059 19.456 11.2169 19.7204 10.4234C19.9848 9.6298 19.9901 8.77275 19.7356 7.97598C19.4811 7.17921 18.9799 6.48395 18.3044 5.99063C17.6289 5.49731 16.8141 5.23145 15.9777 5.23145C15.1413 5.23145 14.3265 5.49731 13.651 5.99063C12.9755 6.48395 12.4743 7.17921 12.2198 7.97598C11.9653 8.77275 11.9706 9.6298 12.235 10.4234C12.4994 11.2169 13.0092 11.9059 13.6907 12.3908C13.7224 12.415 13.7478 12.4463 13.765 12.4822C13.7822 12.5182 13.7906 12.5577 13.7895 12.5975C13.7849 12.6354 13.771 12.6717 13.749 12.703C13.7271 12.7344 13.6978 12.7598 13.6637 12.7772C12.815 13.2126 12.1037 13.8748 11.6087 14.6902C11.1137 15.5056 10.8546 16.4423 10.86 17.3961ZM16.0002 13.8915C16.1765 13.8915 16.3457 13.9616 16.4704 14.0863C16.5951 14.211 16.6651 14.3801 16.6651 14.5565V15.6528C16.6651 15.8292 16.5951 15.9983 16.4704 16.123C16.3457 16.2477 16.1765 16.3178 16.0002 16.3178C15.8238 16.3178 15.6547 16.2477 15.5299 16.123C15.4052 15.9983 15.3352 15.8292 15.3352 15.6528V14.5565C15.3352 14.3801 15.4052 14.211 15.5299 14.0863C15.6547 13.9616 15.8238 13.8915 16.0002 13.8915ZM13.8884 8.49976C13.8999 8.46748 13.919 8.43842 13.944 8.41498C13.969 8.39154 13.9992 8.37439 14.0322 8.36497C14.0611 8.34924 14.0936 8.341 14.1265 8.341C14.1595 8.341 14.1919 8.34924 14.2209 8.36497C15.0234 8.88732 15.9592 9.16805 16.9168 9.17373C17.2579 9.16999 17.5979 9.13388 17.9322 9.06589C17.9461 9.05879 17.9615 9.05509 17.9771 9.05509C17.9928 9.05509 18.0082 9.05879 18.0221 9.06589C18.0353 9.07698 18.0462 9.09068 18.0539 9.10614C18.0616 9.1216 18.0661 9.13849 18.067 9.15575C18.0684 9.47065 18.0011 9.78207 17.8698 10.0683C17.7386 10.3545 17.5464 10.6087 17.3069 10.8131C17.0673 11.0174 16.786 11.1671 16.4827 11.2516C16.1793 11.3362 15.8612 11.3535 15.5505 11.3025C15.2397 11.2515 14.9439 11.1333 14.6835 10.9562C14.4231 10.7791 14.2044 10.5474 14.0428 10.2772C13.8811 10.0069 13.7804 9.70467 13.7475 9.39149C13.7146 9.07831 13.7504 8.76173 13.8525 8.46381L13.8884 8.49976Z" fill="#E62129"/>
</svg>
