<svg width="20" height="20" viewBox="0 0 20 20" fill="none" xmlns="http://www.w3.org/2000/svg">
<path d="M16.1052 15.6071H13.9316C13.9097 15.6081 13.8878 15.6034 13.8682 15.5936C13.8485 15.5837 13.8317 15.5691 13.8193 15.5509C13.81 15.5327 13.8051 15.5125 13.8051 15.492C13.8051 15.4714 13.81 15.4512 13.8193 15.433L14.5607 12.6248C14.5806 12.5481 14.5818 12.4678 14.5642 12.3906C14.5466 12.3134 14.5108 12.2415 14.4596 12.1811C14.4062 12.1169 14.3391 12.0655 14.2634 12.0305C14.1876 11.9956 14.105 11.9779 14.0215 11.9789H5.99567C5.91221 11.9779 5.82959 11.9956 5.75381 12.0305C5.67803 12.0655 5.611 12.1169 5.55759 12.1811C5.50642 12.2415 5.47053 12.3134 5.45294 12.3906C5.43535 12.4678 5.43657 12.5481 5.4565 12.6248L6.19786 15.433C6.20722 15.4512 6.21211 15.4714 6.21211 15.492C6.21211 15.5125 6.20722 15.5327 6.19786 15.5509C6.18407 15.5718 6.16453 15.5882 6.1416 15.5982C6.11867 15.6081 6.09334 15.6112 6.06868 15.6071H3.89514C3.74618 15.6071 3.60332 15.6663 3.498 15.7716C3.39267 15.8769 3.3335 16.0198 3.3335 16.1687C3.3335 16.3177 3.39267 16.4605 3.498 16.5659C3.60332 16.6712 3.74618 16.7304 3.89514 16.7304H16.1052C16.2541 16.7304 16.397 16.6712 16.5023 16.5659C16.6077 16.4605 16.6668 16.3177 16.6668 16.1687C16.6668 16.0198 16.6077 15.8769 16.5023 15.7716C16.397 15.6663 16.2541 15.6071 16.1052 15.6071ZM10.0002 13.3605C10.1381 13.3594 10.2733 13.3993 10.3886 13.4752C10.5039 13.551 10.594 13.6594 10.6476 13.7865C10.7011 13.9137 10.7157 14.0539 10.6895 14.1894C10.6633 14.3248 10.5974 14.4494 10.5002 14.5474C10.4031 14.6454 10.279 14.7122 10.1437 14.7396C10.0085 14.7669 9.86816 14.7534 9.74058 14.7009C9.61299 14.6484 9.50389 14.5591 9.42712 14.4445C9.35034 14.3298 9.30935 14.1949 9.30935 14.057C9.3086 13.9658 9.32593 13.8753 9.36031 13.7909C9.39469 13.7064 9.44546 13.6296 9.50968 13.5648C9.57391 13.5001 9.65031 13.4487 9.73449 13.4136C9.81868 13.3786 9.90897 13.3605 10.0002 13.3605ZM6.78758 10.8725C6.79048 10.945 6.82135 11.0136 6.8737 11.0638C6.92605 11.1141 6.99583 11.1421 7.0684 11.142H12.9319C13.0054 11.1421 13.076 11.1133 13.1285 11.0618C13.181 11.0103 13.2113 10.9403 13.2127 10.8668C13.2126 10.2658 13.0442 9.67687 12.7266 9.16666C12.4089 8.65645 11.9547 8.24538 11.4155 7.98002C11.3944 7.96836 11.3769 7.95127 11.3646 7.93053C11.3524 7.90979 11.346 7.88615 11.346 7.86207C11.346 7.83799 11.3524 7.81436 11.3646 7.79361C11.3769 7.77287 11.3944 7.75578 11.4155 7.74413C11.8415 7.44106 12.1601 7.01045 12.3253 6.51448C12.4906 6.01851 12.4939 5.48285 12.3348 4.98487C12.1757 4.48688 11.8625 4.05235 11.4403 3.74402C11.0181 3.43569 10.5089 3.26953 9.98612 3.26953C9.46335 3.26953 8.9541 3.43569 8.53193 3.74402C8.10976 4.05235 7.79652 4.48688 7.63744 4.98487C7.47837 5.48285 7.48169 6.01851 7.64693 6.51448C7.81218 7.01045 8.13079 7.44106 8.55675 7.74413C8.57653 7.75923 8.59245 7.77882 8.60319 7.80128C8.61393 7.82373 8.61919 7.84842 8.61853 7.8733C8.61562 7.89703 8.60693 7.91969 8.59322 7.93927C8.57951 7.95886 8.5612 7.97478 8.5399 7.98563C8.00945 8.25774 7.56485 8.67161 7.2555 9.18124C6.94615 9.69087 6.78418 10.2763 6.78758 10.8725ZM10.0002 8.68207C10.1104 8.68207 10.2161 8.72585 10.294 8.8038C10.372 8.88174 10.4158 8.98745 10.4158 9.09768V9.78288C10.4158 9.89311 10.372 9.99882 10.294 10.0768C10.2161 10.1547 10.1104 10.1985 10.0002 10.1985C9.88994 10.1985 9.78422 10.1547 9.70628 10.0768C9.62834 9.99882 9.58455 9.89311 9.58455 9.78288V9.09768C9.58455 8.98745 9.62834 8.88174 9.70628 8.8038C9.78422 8.72585 9.88994 8.68207 10.0002 8.68207ZM8.68031 5.31223C8.68752 5.29205 8.69943 5.27389 8.71505 5.25924C8.73068 5.24459 8.74958 5.23387 8.77017 5.22798C8.78827 5.21815 8.80854 5.213 8.82914 5.213C8.84974 5.213 8.87001 5.21815 8.88812 5.22798C9.38971 5.55445 9.97456 5.72991 10.573 5.73346C10.7862 5.73112 10.9987 5.70855 11.2077 5.66606C11.2164 5.66162 11.226 5.65931 11.2358 5.65931C11.2455 5.65931 11.2552 5.66162 11.2639 5.66606C11.2721 5.67299 11.2789 5.68155 11.2837 5.69122C11.2886 5.70088 11.2914 5.71144 11.2919 5.72222C11.2928 5.91904 11.2508 6.11367 11.1687 6.29256C11.0867 6.47146 10.9666 6.63031 10.8168 6.75804C10.6671 6.88577 10.4913 6.97931 10.3017 7.03214C10.1121 7.08497 9.91332 7.09583 9.71911 7.06394C9.52489 7.03205 9.33997 6.9582 9.17723 6.84752C9.01448 6.73684 8.87783 6.59201 8.7768 6.4231C8.67577 6.2542 8.61278 6.0653 8.59224 5.86956C8.57169 5.67382 8.59408 5.47596 8.65784 5.28976L8.68031 5.31223Z" fill="white"/>
</svg>
