<svg width="16" height="16" viewBox="0 0 16 16" fill="none" xmlns="http://www.w3.org/2000/svg">
<path d="M6.13366 11.7056H5.86699C3.73366 11.7056 2.66699 11.1738 2.66699 8.51513V5.85644C2.66699 3.72949 3.73366 2.66602 5.86699 2.66602H10.1337C12.267 2.66602 13.3337 3.72949 13.3337 5.85644V8.51513C13.3337 10.6421 12.267 11.7056 10.1337 11.7056H9.86699C9.70166 11.7056 9.54166 11.7853 9.44032 11.9183L8.64033 12.9817C8.28832 13.4497 7.71233 13.4497 7.36033 12.9817L6.56033 11.9183C6.47499 11.8013 6.27766 11.7056 6.13366 11.7056Z" fill="#262626"/>
<path d="M5.33301 5.85742H10.6663" stroke="white" stroke-width="1.3" stroke-linecap="round" stroke-linejoin="round"/>
<path d="M5.33301 8.51562H8.53301" stroke="white" stroke-width="1.3" stroke-linecap="round" stroke-linejoin="round"/>
</svg>
