<svg width="24" height="24" viewBox="0 0 24 24" fill="none" xmlns="http://www.w3.org/2000/svg">
<path d="M9.2 17.5593H8.8C5.6 17.5593 4 16.7617 4 12.7737V8.78564C4 5.59521 5.6 4 8.8 4H15.2C18.4 4 20 5.59521 20 8.78564V12.7737C20 15.9641 18.4 17.5593 15.2 17.5593H14.8C14.552 17.5593 14.312 17.679 14.16 17.8784L12.96 19.4736C12.432 20.1755 11.568 20.1755 11.04 19.4736L9.84 17.8784C9.712 17.7029 9.416 17.5593 9.2 17.5593Z" fill="#C2D43D"/>
<path d="M8 8.78516H16" stroke="white" stroke-width="1.5" stroke-linecap="round" stroke-linejoin="round"/>
<path d="M8 12.7734H12.8" stroke="white" stroke-width="1.5" stroke-linecap="round" stroke-linejoin="round"/>
</svg>
