<svg width="32" height="32" viewBox="0 0 32 32" fill="none" xmlns="http://www.w3.org/2000/svg">
<path d="M12.2668 23.4121H11.7335C7.46683 23.4121 5.3335 22.3486 5.3335 17.0312V11.7139C5.3335 7.45996 7.46683 5.33301 11.7335 5.33301H20.2668C24.5335 5.33301 26.6668 7.45996 26.6668 11.7139V17.0312C26.6668 21.2852 24.5335 23.4121 20.2668 23.4121H19.7335C19.4028 23.4121 19.0828 23.5716 18.8802 23.8375L17.2802 25.9644C16.5762 26.9003 15.4242 26.9003 14.7202 25.9644L13.1202 23.8375C12.9495 23.6035 12.5548 23.4121 12.2668 23.4121Z" fill="#E62129"/>
<path d="M10.6665 11.7139H21.3332" stroke="white" stroke-width="1.5" stroke-linecap="round" stroke-linejoin="round"/>
<path d="M10.6665 17.0312H17.0665" stroke="white" stroke-width="1.5" stroke-linecap="round" stroke-linejoin="round"/>
</svg>
