<svg width="12" height="12" viewBox="0 0 12 12" fill="none" xmlns="http://www.w3.org/2000/svg">
<path d="M4.6 8.77966H4.4C2.8 8.77966 2 8.38086 2 6.38684V4.39282C2 2.79761 2.8 2 4.4 2H7.6C9.2 2 10 2.79761 10 4.39282V6.38684C10 7.98205 9.2 8.77966 7.6 8.77966H7.4C7.276 8.77966 7.156 8.83948 7.08 8.93918L6.48 9.73679C6.216 10.0877 5.784 10.0877 5.52 9.73679L4.92 8.93918C4.856 8.85145 4.708 8.77966 4.6 8.77966Z" fill="#8C8C8C"/>
<path d="M4 4.39258H8" stroke="white" stroke-width="1.1" stroke-linecap="round" stroke-linejoin="round"/>
<path d="M4 6.38672H6.4" stroke="white" stroke-width="1.1" stroke-linecap="round" stroke-linejoin="round"/>
</svg>
