<svg width="20" height="20" viewBox="0 0 20 20" fill="none" xmlns="http://www.w3.org/2000/svg">
<path d="M7.66683 14.6324H7.3335C4.66683 14.6324 3.3335 13.9678 3.3335 10.6444V7.32104C3.3335 4.66235 4.66683 3.33301 7.3335 3.33301H12.6668C15.3335 3.33301 16.6668 4.66235 16.6668 7.32104V10.6444C16.6668 13.3031 15.3335 14.6324 12.6668 14.6324H12.3335C12.1268 14.6324 11.9268 14.7321 11.8002 14.8983L10.8002 16.2277C10.3602 16.8126 9.64016 16.8126 9.20016 16.2277L8.20016 14.8983C8.0935 14.7521 7.84683 14.6324 7.66683 14.6324Z" fill="white"/>
<path d="M6.6665 7.32129H13.3332" stroke="#262626" stroke-width="1.4" stroke-linecap="round" stroke-linejoin="round"/>
<path d="M6.6665 10.6445H10.6665" stroke="#262626" stroke-width="1.4" stroke-linecap="round" stroke-linejoin="round"/>
</svg>
