<svg width="12" height="12" viewBox="0 0 12 12" fill="none" xmlns="http://www.w3.org/2000/svg">
<path d="M7.42409 6.10402C8.55738 6.10402 9.4761 5.18531 9.4761 4.05201C9.4761 2.91872 8.55738 2 7.42409 2C6.29079 2 5.37207 2.91872 5.37207 4.05201C5.37207 5.18531 6.29079 6.10402 7.42409 6.10402Z" stroke="#262626" stroke-width="1.2" stroke-miterlimit="10"/>
<path d="M3.732 8.97574C4.41242 8.97574 4.96402 8.42415 4.96402 7.74373C4.96402 7.06331 4.41242 6.51172 3.732 6.51172C3.05158 6.51172 2.5 7.06331 2.5 7.74373C2.5 8.42415 3.05158 8.97574 3.732 8.97574Z" stroke="#262626" stroke-width="1.2" stroke-miterlimit="10"/>
<path d="M7.83651 10.0002C8.40205 10.0002 8.86051 9.5417 8.86051 8.97615C8.86051 8.41061 8.40205 7.95215 7.83651 7.95215C7.27096 7.95215 6.8125 8.41061 6.8125 8.97615C6.8125 9.5417 7.27096 10.0002 7.83651 10.0002Z" stroke="#262626" stroke-width="1.2" stroke-miterlimit="10"/>
</svg>
