<svg width="32" height="32" viewBox="0 0 32 32" fill="none" xmlns="http://www.w3.org/2000/svg">
<path d="M19.7977 16.2771C22.8198 16.2771 25.2698 13.8272 25.2698 10.805C25.2698 7.78293 22.8198 5.33301 19.7977 5.33301C16.7756 5.33301 14.3257 7.78293 14.3257 10.805C14.3257 13.8272 16.7756 16.2771 19.7977 16.2771Z" stroke="#0076BE" stroke-width="1.5" stroke-miterlimit="10"/>
<path d="M9.95184 23.9359C11.7663 23.9359 13.2372 22.465 13.2372 20.6506C13.2372 18.8361 11.7663 17.3652 9.95184 17.3652C8.13739 17.3652 6.6665 18.8361 6.6665 20.6506C6.6665 22.465 8.13739 23.9359 9.95184 23.9359Z" stroke="#0076BE" stroke-width="1.5" stroke-miterlimit="10"/>
<path d="M20.8967 26.6664C22.4048 26.6664 23.6274 25.4439 23.6274 23.9358C23.6274 22.4276 22.4048 21.2051 20.8967 21.2051C19.3886 21.2051 18.166 22.4276 18.166 23.9358C18.166 25.4439 19.3886 26.6664 20.8967 26.6664Z" stroke="#0076BE" stroke-width="1.5" stroke-miterlimit="10"/>
</svg>
