<svg width="20" height="20" viewBox="0 0 20 20" fill="none" xmlns="http://www.w3.org/2000/svg">
<path d="M12.3736 10.173C14.2625 10.173 15.7937 8.64186 15.7937 6.75303C15.7937 4.86421 14.2625 3.33301 12.3736 3.33301C10.4848 3.33301 8.95361 4.86421 8.95361 6.75303C8.95361 8.64186 10.4848 10.173 12.3736 10.173Z" stroke="#C2D43D" stroke-width="1.4" stroke-miterlimit="10"/>
<path d="M6.21984 14.9592C7.35387 14.9592 8.2732 14.0399 8.2732 12.9059C8.2732 11.7719 7.35387 10.8525 6.21984 10.8525C5.08581 10.8525 4.1665 11.7719 4.1665 12.9059C4.1665 14.0399 5.08581 14.9592 6.21984 14.9592Z" stroke="#C2D43D" stroke-width="1.4" stroke-miterlimit="10"/>
<path d="M13.0602 16.6663C14.0028 16.6663 14.7669 15.9022 14.7669 14.9596C14.7669 14.017 14.0028 13.2529 13.0602 13.2529C12.1176 13.2529 11.3535 14.017 11.3535 14.9596C11.3535 15.9022 12.1176 16.6663 13.0602 16.6663Z" stroke="#C2D43D" stroke-width="1.4" stroke-miterlimit="10"/>
</svg>
