<svg width="24" height="24" viewBox="0 0 24 24" fill="none" xmlns="http://www.w3.org/2000/svg">
<path d="M14.8482 12.208C17.1148 12.208 18.9522 10.3706 18.9522 8.10403C18.9522 5.83744 17.1148 4 14.8482 4C12.5816 4 10.7441 5.83744 10.7441 8.10403C10.7441 10.3706 12.5816 12.208 14.8482 12.208Z" stroke="#8C8C8C" stroke-width="1.5" stroke-miterlimit="10"/>
<path d="M7.464 17.9515C8.82484 17.9515 9.92803 16.8483 9.92803 15.4875C9.92803 14.1266 8.82484 13.0234 7.464 13.0234C6.10317 13.0234 5 14.1266 5 15.4875C5 16.8483 6.10317 17.9515 7.464 17.9515Z" stroke="#8C8C8C" stroke-width="1.5" stroke-miterlimit="10"/>
<path d="M15.6725 20.0003C16.8036 20.0003 17.7205 19.0834 17.7205 17.9523C17.7205 16.8212 16.8036 15.9043 15.6725 15.9043C14.5414 15.9043 13.6245 16.8212 13.6245 17.9523C13.6245 19.0834 14.5414 20.0003 15.6725 20.0003Z" stroke="#8C8C8C" stroke-width="1.5" stroke-miterlimit="10"/>
</svg>
