<svg width="16" height="16" viewBox="0 0 16 16" fill="none" xmlns="http://www.w3.org/2000/svg">
<path d="M9.89911 8.13902C11.4102 8.13902 12.6351 6.91407 12.6351 5.40301C12.6351 3.89195 11.4102 2.66699 9.89911 2.66699C8.38805 2.66699 7.16309 3.89195 7.16309 5.40301C7.16309 6.91407 8.38805 8.13902 9.89911 8.13902Z" stroke="#E62129" stroke-width="1.3" stroke-miterlimit="10"/>
<path d="M4.97568 11.968C5.8829 11.968 6.61836 11.2325 6.61836 10.3253C6.61836 9.41807 5.8829 8.68262 4.97568 8.68262C4.06845 8.68262 3.33301 9.41807 3.33301 10.3253C3.33301 11.2325 4.06845 11.968 4.97568 11.968Z" stroke="#E62129" stroke-width="1.3" stroke-miterlimit="10"/>
<path d="M10.4483 13.3332C11.2024 13.3332 11.8137 12.7219 11.8137 11.9679C11.8137 11.2138 11.2024 10.6025 10.4483 10.6025C9.69429 10.6025 9.08301 11.2138 9.08301 11.9679C9.08301 12.7219 9.69429 13.3332 10.4483 13.3332Z" stroke="#E62129" stroke-width="1.3" stroke-miterlimit="10"/>
</svg>
