<svg width="32" height="32" viewBox="0 0 32 32" fill="none" xmlns="http://www.w3.org/2000/svg">
<path d="M18.1335 9.81344V13.8668C15.1575 13.9202 13.9202 15.1575 13.8668 18.1335H9.8135C6.6135 18.1335 5.3335 16.8535 5.3335 13.6535V9.81344C5.3335 6.61344 6.6135 5.3335 9.8135 5.3335H13.6535C16.8535 5.3335 18.1335 6.61344 18.1335 9.81344Z" stroke="#262626" stroke-width="1.5" stroke-linecap="round" stroke-linejoin="round"/>
<path d="M10.6239 9.46165C10.0586 9.07765 9.31192 9.07767 8.74658 9.483" stroke="#262626" stroke-width="1.5" stroke-miterlimit="10" stroke-linecap="round" stroke-linejoin="round"/>
<path d="M14.891 9.46165C14.3257 9.07765 13.579 9.07767 13.0137 9.483" stroke="#262626" stroke-width="1.5" stroke-miterlimit="10" stroke-linecap="round" stroke-linejoin="round"/>
<path d="M11.9037 15.3818H9.42903C9.10903 15.3818 8.85303 15.1257 8.85303 14.8057C8.85303 13.2164 10.1437 11.9258 11.733 11.9258C12.4157 11.9258 13.045 12.1604 13.5357 12.5551" stroke="#262626" stroke-width="1.5" stroke-miterlimit="10" stroke-linecap="round" stroke-linejoin="round"/>
<path d="M26.6667 18.3466V22.1868C26.6667 25.3868 25.3867 26.6667 22.1867 26.6667H18.3467C15.1467 26.6667 13.8667 25.3868 13.8667 22.1868V18.1334C13.92 15.1574 15.1574 13.92 18.1334 13.8667H22.1867C25.3867 13.8667 26.6667 15.1466 26.6667 18.3466Z" stroke="#262626" stroke-width="1.5" stroke-linecap="round" stroke-linejoin="round"/>
<path d="M19.1571 17.7284C18.5918 18.1124 17.8451 18.1124 17.2798 17.707" stroke="#262626" stroke-width="1.5" stroke-miterlimit="10" stroke-linecap="round" stroke-linejoin="round"/>
<path d="M23.4242 17.7284C22.8589 18.1124 22.1122 18.1124 21.5469 17.707" stroke="#262626" stroke-width="1.5" stroke-miterlimit="10" stroke-linecap="round" stroke-linejoin="round"/>
<path d="M17.9627 20.459H22.5707C22.8907 20.459 23.1467 20.7149 23.1467 21.0349C23.1467 22.6242 21.8561 23.915 20.2667 23.915C18.6774 23.915 17.3867 22.6242 17.3867 21.0349C17.3867 20.7149 17.6427 20.459 17.9627 20.459Z" stroke="#262626" stroke-width="1.5" stroke-miterlimit="10" stroke-linecap="round" stroke-linejoin="round"/>
</svg>
