<svg width="16" height="16" viewBox="0 0 16 16" fill="none" xmlns="http://www.w3.org/2000/svg">
<path d="M9.06699 4.90648V6.93317C7.57899 6.95984 6.96033 7.5785 6.93366 9.0665H4.90699C3.30699 9.0665 2.66699 8.42653 2.66699 6.82653V4.90648C2.66699 3.30648 3.30699 2.6665 4.90699 2.6665H6.82699C8.42699 2.6665 9.06699 3.30648 9.06699 4.90648Z" stroke="#0076BE" stroke-width="1.2" stroke-linecap="round" stroke-linejoin="round"/>
<path d="M5.31269 4.73058C5.03002 4.53858 4.65669 4.53859 4.37402 4.74126" stroke="#0076BE" stroke-width="1.2" stroke-miterlimit="10" stroke-linecap="round" stroke-linejoin="round"/>
<path d="M7.4455 4.73058C7.16284 4.53858 6.7895 4.53859 6.50684 4.74126" stroke="#0076BE" stroke-width="1.2" stroke-miterlimit="10" stroke-linecap="round" stroke-linejoin="round"/>
<path d="M5.95258 7.69089H4.71525C4.55525 7.69089 4.42725 7.56286 4.42725 7.40286C4.42725 6.6082 5.07258 5.96289 5.86725 5.96289C6.20858 5.96289 6.52325 6.08021 6.76858 6.27754" stroke="#0076BE" stroke-width="1.2" stroke-miterlimit="10" stroke-linecap="round" stroke-linejoin="round"/>
<path d="M13.3341 9.17308V11.0931C13.3341 12.6931 12.6941 13.3331 11.0941 13.3331H9.17408C7.57408 13.3331 6.93408 12.6931 6.93408 11.0931V9.06644C6.96075 7.57844 7.57942 6.95977 9.06742 6.93311H11.0941C12.6941 6.93311 13.3341 7.57308 13.3341 9.17308Z" stroke="#0076BE" stroke-width="1.2" stroke-linecap="round" stroke-linejoin="round"/>
<path d="M9.5788 8.86419C9.29614 9.05619 8.9228 9.05618 8.64014 8.85352" stroke="#0076BE" stroke-width="1.2" stroke-miterlimit="10" stroke-linecap="round" stroke-linejoin="round"/>
<path d="M11.7126 8.86419C11.4299 9.05619 11.0566 9.05618 10.7739 8.85352" stroke="#0076BE" stroke-width="1.2" stroke-miterlimit="10" stroke-linecap="round" stroke-linejoin="round"/>
<path d="M8.98234 10.2295H11.2863C11.4463 10.2295 11.5743 10.3574 11.5743 10.5174C11.5743 11.3121 10.929 11.9575 10.1343 11.9575C9.33967 11.9575 8.69434 11.3121 8.69434 10.5174C8.69434 10.3574 8.82234 10.2295 8.98234 10.2295Z" stroke="#0076BE" stroke-width="1.2" stroke-miterlimit="10" stroke-linecap="round" stroke-linejoin="round"/>
</svg>
