<svg width="24" height="24" viewBox="0 0 24 24" fill="none" xmlns="http://www.w3.org/2000/svg">
<path d="M13.6 7.35996V10.4C11.368 10.44 10.44 11.368 10.4 13.6H7.36C4.96 13.6 4 12.64 4 10.24V7.35996C4 4.95996 4.96 4 7.36 4H10.24C12.64 4 13.6 4.95996 13.6 7.35996Z" stroke="#C2D43D" stroke-width="1.5" stroke-linecap="round" stroke-linejoin="round"/>
<path d="M7.96806 7.09587C7.54406 6.80787 6.98406 6.80788 6.56006 7.11188" stroke="#C2D43D" stroke-width="1.5" stroke-miterlimit="10" stroke-linecap="round" stroke-linejoin="round"/>
<path d="M11.1683 7.09587C10.7443 6.80787 10.1843 6.80788 9.76025 7.11188" stroke="#C2D43D" stroke-width="1.5" stroke-miterlimit="10" stroke-linecap="round" stroke-linejoin="round"/>
<path d="M8.92765 11.5363H7.07165C6.83165 11.5363 6.63965 11.3443 6.63965 11.1043C6.63965 9.9123 7.60765 8.94434 8.79965 8.94434C9.31165 8.94434 9.78365 9.12031 10.1516 9.41631" stroke="#C2D43D" stroke-width="1.5" stroke-miterlimit="10" stroke-linecap="round" stroke-linejoin="round"/>
<path d="M19.9999 13.7599V16.6399C19.9999 19.0399 19.0399 19.9999 16.6399 19.9999H13.7599C11.3599 19.9999 10.3999 19.0399 10.3999 16.6399V13.5999C10.4399 11.3679 11.3679 10.4399 13.5999 10.3999H16.6399C19.0399 10.3999 19.9999 11.3599 19.9999 13.7599Z" stroke="#C2D43D" stroke-width="1.5" stroke-linecap="round" stroke-linejoin="round"/>
<path d="M14.368 13.2963C13.944 13.5843 13.384 13.5843 12.96 13.2803" stroke="#C2D43D" stroke-width="1.5" stroke-miterlimit="10" stroke-linecap="round" stroke-linejoin="round"/>
<path d="M17.5682 13.2963C17.1442 13.5843 16.5842 13.5843 16.1602 13.2803" stroke="#C2D43D" stroke-width="1.5" stroke-miterlimit="10" stroke-linecap="round" stroke-linejoin="round"/>
<path d="M13.472 15.3442H16.928C17.168 15.3442 17.36 15.5362 17.36 15.7762C17.36 16.9682 16.392 17.9362 15.2 17.9362C14.008 17.9362 13.04 16.9682 13.04 15.7762C13.04 15.5362 13.232 15.3442 13.472 15.3442Z" stroke="#C2D43D" stroke-width="1.5" stroke-miterlimit="10" stroke-linecap="round" stroke-linejoin="round"/>
</svg>
