<svg width="12" height="12" viewBox="0 0 12 12" fill="none" xmlns="http://www.w3.org/2000/svg">
<path d="M6.79902 3.67998V5.2C5.68302 5.22 5.21902 5.684 5.19902 6.8H3.67902C2.47902 6.8 1.99902 6.32002 1.99902 5.12002V3.67998C1.99902 2.47998 2.47902 2 3.67902 2H5.11902C6.31902 2 6.79902 2.47998 6.79902 3.67998Z" stroke="white" stroke-width="0.9" stroke-linecap="round" stroke-linejoin="round"/>
<path d="M3.9833 3.54793C3.7713 3.40393 3.4913 3.40394 3.2793 3.55594" stroke="white" stroke-width="0.9" stroke-miterlimit="10" stroke-linecap="round" stroke-linejoin="round"/>
<path d="M5.58291 3.54793C5.37091 3.40393 5.09091 3.40394 4.87891 3.55594" stroke="white" stroke-width="0.9" stroke-miterlimit="10" stroke-linecap="round" stroke-linejoin="round"/>
<path d="M4.46334 5.76816H3.53534C3.41534 5.76816 3.31934 5.67215 3.31934 5.55215C3.31934 4.95615 3.80334 4.47217 4.39934 4.47217C4.65534 4.47217 4.89134 4.56015 5.07534 4.70815" stroke="white" stroke-width="0.9" stroke-miterlimit="10" stroke-linecap="round" stroke-linejoin="round"/>
<path d="M9.99971 6.87969V8.31973C9.99971 9.51973 9.51971 9.99971 8.31971 9.99971H6.87971C5.67971 9.99971 5.19971 9.51973 5.19971 8.31973V6.79971C5.21971 5.68371 5.68371 5.21971 6.79971 5.19971H8.31971C9.51971 5.19971 9.99971 5.67969 9.99971 6.87969Z" stroke="white" stroke-width="0.9" stroke-linecap="round" stroke-linejoin="round"/>
<path d="M7.18349 6.64814C6.97149 6.79214 6.69149 6.79214 6.47949 6.64014" stroke="white" stroke-width="0.9" stroke-miterlimit="10" stroke-linecap="round" stroke-linejoin="round"/>
<path d="M8.78359 6.64814C8.57159 6.79214 8.29159 6.79214 8.07959 6.64014" stroke="white" stroke-width="0.9" stroke-miterlimit="10" stroke-linecap="round" stroke-linejoin="round"/>
<path d="M6.73553 7.67188H8.46353C8.58353 7.67188 8.67953 7.76784 8.67953 7.88784C8.67953 8.48384 8.19553 8.96787 7.59953 8.96787C7.00353 8.96787 6.51953 8.48384 6.51953 7.88784C6.51953 7.76784 6.61553 7.67188 6.73553 7.67188Z" stroke="white" stroke-width="0.9" stroke-miterlimit="10" stroke-linecap="round" stroke-linejoin="round"/>
</svg>
