<svg width="20" height="20" viewBox="0 0 20 20" fill="none" xmlns="http://www.w3.org/2000/svg">
<path d="M11.334 6.13346V8.66683C9.47398 8.70016 8.70065 9.4735 8.66732 11.3335H6.13398C4.13398 11.3335 3.33398 10.5335 3.33398 8.53353V6.13346C3.33398 4.13346 4.13398 3.3335 6.13398 3.3335H8.53398C10.534 3.3335 11.334 4.13346 11.334 6.13346Z" stroke="white" stroke-width="1.5" stroke-linecap="round" stroke-linejoin="round"/>
<path d="M6.64111 5.91371C6.28777 5.67371 5.82111 5.67373 5.46777 5.92706" stroke="white" stroke-width="1.5" stroke-miterlimit="10" stroke-linecap="round" stroke-linejoin="round"/>
<path d="M9.30712 5.91371C8.95379 5.67371 8.48712 5.67373 8.13379 5.92706" stroke="white" stroke-width="1.5" stroke-miterlimit="10" stroke-linecap="round" stroke-linejoin="round"/>
<path d="M7.44036 9.61361H5.89369C5.69369 9.61361 5.53369 9.45358 5.53369 9.25358C5.53369 8.26025 6.34036 7.45361 7.33369 7.45361C7.76036 7.45361 8.15369 7.60026 8.46036 7.84692" stroke="white" stroke-width="1.5" stroke-miterlimit="10" stroke-linecap="round" stroke-linejoin="round"/>
<path d="M16.6675 11.467V13.867C16.6675 15.867 15.8675 16.667 13.8675 16.667H11.4675C9.46748 16.667 8.66748 15.867 8.66748 13.867V11.3337C8.70081 9.47366 9.47415 8.70033 11.3341 8.66699H13.8675C15.8675 8.66699 16.6675 9.46696 16.6675 11.467Z" stroke="white" stroke-width="1.5" stroke-linecap="round" stroke-linejoin="round"/>
<path d="M11.9736 11.0802C11.6203 11.3202 11.1536 11.3202 10.8003 11.0669" stroke="white" stroke-width="1.5" stroke-miterlimit="10" stroke-linecap="round" stroke-linejoin="round"/>
<path d="M14.6406 11.0802C14.2873 11.3202 13.8206 11.3202 13.4673 11.0669" stroke="white" stroke-width="1.5" stroke-miterlimit="10" stroke-linecap="round" stroke-linejoin="round"/>
<path d="M11.2272 12.7871H14.1072C14.3072 12.7871 14.4672 12.9471 14.4672 13.1471C14.4672 14.1404 13.6605 14.9471 12.6672 14.9471C11.6739 14.9471 10.8672 14.1404 10.8672 13.1471C10.8672 12.9471 11.0272 12.7871 11.2272 12.7871Z" stroke="white" stroke-width="1.5" stroke-miterlimit="10" stroke-linecap="round" stroke-linejoin="round"/>
</svg>
