<svg width="24" height="24" viewBox="0 0 24 24" fill="none" xmlns="http://www.w3.org/2000/svg">
<path d="M19.6352 10.836C19.8784 11.177 20 11.3476 20 11.6C20 11.8524 19.8784 12.023 19.6352 12.364C18.5423 13.8965 15.7514 17.2 12 17.2C8.24862 17.2 5.45768 13.8965 4.36483 12.364C4.12161 12.023 4 11.8524 4 11.6C4 11.3476 4.12161 11.177 4.36483 10.836C5.45768 9.30355 8.24862 6 12 6C15.7514 6 18.5423 9.30355 19.6352 10.836Z" stroke="#0076BE" stroke-width="1.5"/>
<path d="M14.3996 11.6002C14.3996 10.2747 13.3251 9.2002 11.9996 9.2002C10.6741 9.2002 9.59961 10.2747 9.59961 11.6002C9.59961 12.9257 10.6741 14.0002 11.9996 14.0002C13.3251 14.0002 14.3996 12.9257 14.3996 11.6002Z" stroke="#0076BE" stroke-width="1.5"/>
</svg>
