<svg width="20" height="20" viewBox="0 0 20 20" fill="none" xmlns="http://www.w3.org/2000/svg">
<path d="M16.3633 9.03C16.566 9.3142 16.6673 9.45633 16.6673 9.66667C16.6673 9.877 16.566 10.0191 16.3633 10.3033C15.4526 11.5804 13.1268 14.3333 10.0007 14.3333C6.8745 14.3333 4.54872 11.5804 3.63801 10.3033C3.43532 10.0191 3.33398 9.877 3.33398 9.66667C3.33398 9.45633 3.43532 9.3142 3.63801 9.03C4.54872 7.75296 6.8745 5 10.0007 5C13.1268 5 15.4526 7.75296 16.3633 9.03Z" stroke="#C2D43D" stroke-width="1.5"/>
<path d="M12 9.66699C12 8.56239 11.1046 7.66699 10 7.66699C8.8954 7.66699 8 8.56239 8 9.66699C8 10.7716 8.8954 11.667 10 11.667C11.1046 11.667 12 10.7716 12 9.66699Z" stroke="#C2D43D" stroke-width="1.5"/>
</svg>
