<svg width="16" height="16" viewBox="0 0 16 16" fill="none" xmlns="http://www.w3.org/2000/svg">
<path d="M13.0905 7.224C13.2526 7.45136 13.3337 7.56507 13.3337 7.73333C13.3337 7.9016 13.2526 8.01531 13.0905 8.24267C12.3619 9.26432 10.5012 11.4667 8.00033 11.4667C5.49941 11.4667 3.63878 9.26432 2.91021 8.24267C2.74806 8.01531 2.66699 7.9016 2.66699 7.73333C2.66699 7.56507 2.74806 7.45136 2.91021 7.224C3.63878 6.20237 5.49941 4 8.00033 4C10.5012 4 12.3619 6.20237 13.0905 7.224Z" stroke="#8C8C8C" stroke-width="1.5"/>
<path d="M9.60039 7.73379C9.60039 6.85011 8.88407 6.13379 8.00039 6.13379C7.11671 6.13379 6.40039 6.85011 6.40039 7.73379C6.40039 8.61747 7.11671 9.33379 8.00039 9.33379C8.88407 9.33379 9.60039 8.61747 9.60039 7.73379Z" stroke="#8C8C8C" stroke-width="1.5"/>
</svg>
