<svg width="12" height="12" viewBox="0 0 12 12" fill="none" xmlns="http://www.w3.org/2000/svg">
<path d="M9.81662 5.418C9.93822 5.58852 9.99902 5.6738 9.99902 5.8C9.99902 5.9262 9.93822 6.01148 9.81662 6.182C9.27018 6.94824 7.8747 8.6 5.99902 8.6C4.12334 8.6 2.72786 6.94824 2.18144 6.182C2.05983 6.01148 1.99902 5.9262 1.99902 5.8C1.99902 5.6738 2.05983 5.58852 2.18144 5.418C2.72786 4.65178 4.12334 3 5.99902 3C7.8747 3 9.27018 4.65178 9.81662 5.418Z" stroke="#8C8C8C" stroke-width="1.5"/>
<path d="M7.1998 5.80059C7.1998 5.13783 6.66256 4.60059 5.9998 4.60059C5.33704 4.60059 4.7998 5.13783 4.7998 5.80059C4.7998 6.46335 5.33704 7.00059 5.9998 7.00059C6.66256 7.00059 7.1998 6.46335 7.1998 5.80059Z" stroke="#8C8C8C" stroke-width="1.5"/>
</svg>
