<svg width="32" height="32" viewBox="0 0 32 32" fill="none" xmlns="http://www.w3.org/2000/svg">
<path d="M26.1809 14.448C26.5052 14.9027 26.6673 15.1301 26.6673 15.4667C26.6673 15.8032 26.5052 16.0306 26.1809 16.4853C24.7237 18.5286 21.0025 22.9333 16.0007 22.9333C10.9988 22.9333 7.27756 18.5286 5.82043 16.4853C5.49613 16.0306 5.33398 15.8032 5.33398 15.4667C5.33398 15.1301 5.49613 14.9027 5.82043 14.448C7.27756 12.4047 10.9988 8 16.0007 8C21.0025 8 24.7237 12.4047 26.1809 14.448Z" stroke="#E62129" stroke-width="1.5"/>
<path d="M19.1998 15.4671C19.1998 13.6997 17.7672 12.2671 15.9998 12.2671C14.2324 12.2671 12.7998 13.6997 12.7998 15.4671C12.7998 17.2345 14.2324 18.6671 15.9998 18.6671C17.7672 18.6671 19.1998 17.2345 19.1998 15.4671Z" stroke="#E62129" stroke-width="1.5"/>
</svg>
