<svg width="12" height="12" viewBox="0 0 12 12" fill="none" xmlns="http://www.w3.org/2000/svg">
<path d="M6.28267 12H4.35917L5.35916 8.00003H3.29267C3.09296 7.99995 2.89603 7.95315 2.71763 7.86337C2.53923 7.7736 2.3843 7.64332 2.26522 7.483C2.14614 7.32268 2.06621 7.13672 2.03183 6.93999C1.99743 6.74326 2.00954 6.54122 2.06717 6.35L3.98767 0H8.72115L7.22117 4H9.23265C9.46155 4.00015 9.6861 4.0623 9.88245 4.17986C10.0788 4.29742 10.2396 4.46599 10.3478 4.66765C10.4561 4.8693 10.5076 5.09651 10.497 5.32513C10.4864 5.55374 10.4141 5.77522 10.2877 5.966L6.28267 12Z" fill="#C6D731"/>
</svg>
