<svg width="24" height="24" viewBox="0 0 24 24" fill="none" xmlns="http://www.w3.org/2000/svg">
<path d="M12.5653 24H8.71833L10.7183 16.0001H6.58533C6.18591 15.9999 5.79206 15.9063 5.43525 15.7267C5.07846 15.5472 4.76859 15.2866 4.53044 14.966C4.29228 14.6454 4.13243 14.2734 4.06365 13.88C3.99486 13.4865 4.01907 13.0824 4.13433 12.7L7.97534 0H17.4423L14.4423 8H18.4653C18.9231 8.0003 19.3722 8.1246 19.7649 8.35973C20.1576 8.59484 20.4792 8.93197 20.6957 9.33529C20.9121 9.7386 21.0152 10.193 20.994 10.6503C20.9729 11.1075 20.8281 11.5504 20.5754 11.932L12.5653 24Z" fill="#C6D731"/>
</svg>
