<svg width="20" height="20" viewBox="0 0 20 20" fill="none" xmlns="http://www.w3.org/2000/svg">
<path d="M10.4711 20H7.26528L8.93194 13.3334H5.48778C5.15493 13.3333 4.82671 13.2552 4.52938 13.1056C4.23205 12.956 3.97383 12.7389 3.77536 12.4717C3.5769 12.2045 3.44369 11.8945 3.38638 11.5666C3.32905 11.2388 3.34923 10.902 3.44528 10.5833L6.64611 0H14.5353L12.0353 6.66666H15.3878C15.7693 6.66691 16.1435 6.7705 16.4708 6.96644C16.798 7.16236 17.066 7.44331 17.2464 7.77941C17.4268 8.1155 17.5126 8.49419 17.495 8.87521C17.4774 9.25624 17.3568 9.62536 17.1461 9.94334L10.4711 20Z" fill="#BFBFBF"/>
</svg>
