<svg width="16" height="16" viewBox="0 0 16 16" fill="none" xmlns="http://www.w3.org/2000/svg">
<path d="M8.37689 16H5.81222L7.14555 10.6667H4.39022C4.12394 10.6666 3.86137 10.6042 3.6235 10.4845C3.38564 10.3648 3.17906 10.1911 3.02029 9.97734C2.86152 9.76357 2.75495 9.51563 2.7091 9.25332C2.66324 8.99102 2.67938 8.72162 2.75622 8.46667L5.31689 0H11.6282L9.62822 5.33333H12.3102C12.6154 5.33353 12.9148 5.4164 13.1766 5.57315C13.4384 5.72989 13.6528 5.95465 13.7971 6.22353C13.9414 6.4924 14.0101 6.79535 13.996 7.10017C13.9819 7.40499 13.8854 7.70029 13.7169 7.95467L8.37689 16Z" fill="#BFBFBF"/>
</svg>
