<svg width="24" height="24" viewBox="0 0 24 24" fill="none" xmlns="http://www.w3.org/2000/svg">
<path d="M4 7.05884L9.53041 10.2846C11.5693 11.4738 12.4307 11.4738 14.4696 10.2846L20 7.05884" stroke="#E62129" stroke-width="1.5" stroke-linejoin="round"/>
<path d="M4.01262 13.2152C4.06491 15.7398 4.09106 17.002 4.99597 17.9372C5.90086 18.8722 7.16026 18.9047 9.67906 18.9699C11.2314 19.01 12.7685 19.01 14.3209 18.9699C16.8397 18.9047 18.0991 18.8722 19.0041 17.9372C19.9089 17.002 19.9351 15.7398 19.9873 13.2152C20.0042 12.4034 20.0042 11.5966 19.9873 10.7848C19.9351 8.26024 19.9089 6.99796 19.0041 6.0629C18.0991 5.12784 16.8397 5.09527 14.3209 5.03012C12.7685 4.98996 11.2314 4.98996 9.67905 5.03011C7.16026 5.09525 5.90086 5.12782 4.99596 6.06289C4.09106 6.99795 4.06491 8.26023 4.01261 10.7848C3.99579 11.5966 3.9958 12.4034 4.01262 13.2152Z" stroke="#E62129" stroke-width="1.5" stroke-linejoin="round"/>
</svg>
