<svg width="24" height="24" viewBox="0 0 24 24" fill="none" xmlns="http://www.w3.org/2000/svg">
<path d="M20 16.0645V5.72072C20 4.69234 19.216 3.92962 18.264 4.01532H18.216C16.536 4.16958 13.984 5.08655 12.56 6.04638L12.424 6.14064C12.192 6.2949 11.808 6.2949 11.576 6.14064L11.376 6.0121C9.952 5.06084 7.408 4.15244 5.728 4.00675C4.776 3.92105 4 4.69234 4 5.71215V16.0645C4 16.8872 4.624 17.6585 5.392 17.7614L5.624 17.7956C7.36 18.0442 10.04 18.9869 11.576 19.8867L11.608 19.9038C11.824 20.0324 12.168 20.0324 12.376 19.9038C13.912 18.9954 16.6 18.0442 18.344 17.7956L18.608 17.7614C19.376 17.6585 20 16.8872 20 16.0645Z" stroke="#E62129" stroke-width="1.5" stroke-linecap="round" stroke-linejoin="round"/>
<path d="M12 6.42358V19.2784" stroke="#E62129" stroke-width="1.5" stroke-linecap="round" stroke-linejoin="round"/>
<path d="M8.60029 8.99414H6.80029" stroke="#E62129" stroke-width="1.5" stroke-linecap="round" stroke-linejoin="round"/>
<path d="M9.20029 11.5652H6.80029" stroke="#E62129" stroke-width="1.5" stroke-linecap="round" stroke-linejoin="round"/>
</svg>
