<svg width="12" height="12" viewBox="0 0 12 12" fill="none" xmlns="http://www.w3.org/2000/svg">
<path d="M2.5 3.59961H3.30808H9.77273" stroke="#0076BE" stroke-width="1.2" stroke-linecap="round" stroke-linejoin="round"/>
<path d="M8.96516 3.6V9.2C8.96516 9.41217 8.88002 9.61566 8.72848 9.76568C8.57693 9.91571 8.37139 10 8.15708 10H4.11667C3.90236 10 3.69682 9.91571 3.54528 9.76568C3.39373 9.61566 3.30859 9.41217 3.30859 9.2V3.6M4.52071 3.6V2.8C4.52071 2.58783 4.60585 2.38434 4.7574 2.23431C4.90894 2.08429 5.11448 2 5.3288 2H6.94496C7.15927 2 7.36481 2.08429 7.51636 2.23431C7.6679 2.38434 7.75304 2.58783 7.75304 2.8V3.6" stroke="#0076BE" stroke-width="1.2" stroke-linecap="round" stroke-linejoin="round"/>
<path d="M5.32812 5.59961V7.99961" stroke="#0076BE" stroke-width="1.2" stroke-linecap="round" stroke-linejoin="round"/>
<path d="M6.94434 5.59961V7.99961" stroke="#0076BE" stroke-width="1.2" stroke-linecap="round" stroke-linejoin="round"/>
</svg>
