<svg width="20" height="20" viewBox="0 0 20 20" fill="none" xmlns="http://www.w3.org/2000/svg">
<path d="M4.1665 6H5.51331H16.2877" stroke="#E62129" stroke-width="1.4" stroke-linecap="round" stroke-linejoin="round"/>
<path d="M14.9413 6.00016V15.3335C14.9413 15.6871 14.7994 16.0263 14.5468 16.2763C14.2942 16.5264 13.9517 16.6668 13.5945 16.6668H6.86047C6.50328 16.6668 6.16072 16.5264 5.90814 16.2763C5.65557 16.0263 5.51367 15.6871 5.51367 15.3335V6.00016M7.53387 6.00016V4.66683C7.53387 4.31321 7.67577 3.97407 7.92834 3.72402C8.18092 3.47397 8.52348 3.3335 8.88068 3.3335H11.5743C11.9315 3.3335 12.274 3.47397 12.5266 3.72402C12.7792 3.97407 12.9211 4.31321 12.9211 4.66683V6.00016" stroke="#E62129" stroke-width="1.4" stroke-linecap="round" stroke-linejoin="round"/>
<path d="M8.88086 9.33301V13.333" stroke="#E62129" stroke-width="1.4" stroke-linecap="round" stroke-linejoin="round"/>
<path d="M11.5737 9.33301V13.333" stroke="#E62129" stroke-width="1.4" stroke-linecap="round" stroke-linejoin="round"/>
</svg>
