<svg width="32" height="32" viewBox="0 0 32 32" fill="none" xmlns="http://www.w3.org/2000/svg">
<path d="M6.6665 9.59961H8.82139H26.0604" stroke="#E62129" stroke-width="1.5" stroke-linecap="round" stroke-linejoin="round"/>
<path d="M23.906 9.60016V24.5335C23.906 25.0993 23.6789 25.6419 23.2748 26.042C22.8707 26.4421 22.3226 26.6668 21.7511 26.6668H10.9767C10.4051 26.6668 9.85705 26.4421 9.45293 26.042C9.04881 25.6419 8.82178 25.0993 8.82178 24.5335V9.60016M12.0541 9.60016V7.46683C12.0541 6.90103 12.2811 6.35841 12.6853 5.95833C13.0894 5.55826 13.6375 5.3335 14.209 5.3335H18.5187C19.0903 5.3335 19.6384 5.55826 20.0425 5.95833C20.4466 6.35841 20.6736 6.90103 20.6736 7.46683V9.60016" stroke="#E62129" stroke-width="1.5" stroke-linecap="round" stroke-linejoin="round"/>
<path d="M14.209 14.9331V21.3331" stroke="#E62129" stroke-width="1.5" stroke-linecap="round" stroke-linejoin="round"/>
<path d="M18.5181 14.9331V21.3331" stroke="#E62129" stroke-width="1.5" stroke-linecap="round" stroke-linejoin="round"/>
</svg>
