<svg width="16" height="16" viewBox="0 0 16 16" fill="none" xmlns="http://www.w3.org/2000/svg">
<path d="M3.33301 4.7998H4.41045H13.03" stroke="#E62129" stroke-width="1.3" stroke-linecap="round" stroke-linejoin="round"/>
<path d="M11.9532 4.80033V12.267C11.9532 12.5499 11.8397 12.8212 11.6376 13.0212C11.4356 13.2213 11.1615 13.3337 10.8758 13.3337H5.48857C5.20282 13.3337 4.92877 13.2213 4.72671 13.0212C4.52465 12.8212 4.41113 12.5499 4.41113 12.267V4.80033M6.02729 4.80033V3.73366C6.02729 3.45076 6.14081 3.17945 6.34287 2.97941C6.54493 2.77937 6.81898 2.66699 7.10474 2.66699H9.25962C9.54537 2.66699 9.81942 2.77937 10.0215 2.97941C10.2235 3.17945 10.3371 3.45076 10.3371 3.73366V4.80033" stroke="#E62129" stroke-width="1.3" stroke-linecap="round" stroke-linejoin="round"/>
<path d="M7.10449 7.46631V10.6663" stroke="#E62129" stroke-width="1.3" stroke-linecap="round" stroke-linejoin="round"/>
<path d="M9.25879 7.46631V10.6663" stroke="#E62129" stroke-width="1.3" stroke-linecap="round" stroke-linejoin="round"/>
</svg>
