<svg width="24" height="24" viewBox="0 0 24 24" fill="none" xmlns="http://www.w3.org/2000/svg">
<path d="M5 7.19971H6.61616H19.5455" stroke="white" stroke-width="1.5" stroke-linecap="round" stroke-linejoin="round"/>
<path d="M17.9293 7.2V18.4C17.9293 18.8243 17.7591 19.2313 17.456 19.5314C17.1529 19.8314 16.7418 20 16.3132 20H8.23237C7.80374 20 7.39266 19.8314 7.08957 19.5314C6.78648 19.2313 6.61621 18.8243 6.61621 18.4V7.2M9.04045 7.2V5.6C9.04045 5.17565 9.21073 4.76869 9.51382 4.46863C9.81691 4.16857 10.228 4 10.6566 4H13.8889C14.3176 4 14.7286 4.16857 15.0317 4.46863C15.3348 4.76869 15.5051 5.17565 15.5051 5.6V7.2" stroke="white" stroke-width="1.5" stroke-linecap="round" stroke-linejoin="round"/>
<path d="M10.6567 11.1997V15.9997" stroke="white" stroke-width="1.5" stroke-linecap="round" stroke-linejoin="round"/>
<path d="M13.8887 11.1997V15.9997" stroke="white" stroke-width="1.5" stroke-linecap="round" stroke-linejoin="round"/>
</svg>
