<svg width="24" height="24" viewBox="0 0 24 24" fill="none" xmlns="http://www.w3.org/2000/svg">
<path d="M12.8976 4.19318L18.1421 6.44121C19.6532 7.08473 19.6532 8.14868 18.1421 8.7922L12.8976 11.0402C12.3021 11.2976 11.3243 11.2976 10.7287 11.0402L5.48429 8.7922C3.97317 8.14868 3.97317 7.08473 5.48429 6.44121L10.7287 4.19318C11.3243 3.93577 12.3021 3.93577 12.8976 4.19318Z" stroke="#262626" stroke-width="1.5" stroke-linecap="round" stroke-linejoin="round"/>
<path d="M3.99988 11.1261C3.99988 11.8468 4.55988 12.6791 5.24432 12.9709L11.2799 15.5621C11.7421 15.7594 12.2665 15.7594 12.7199 15.5621L18.7554 12.9709C19.4399 12.6791 19.9999 11.8468 19.9999 11.1261" stroke="#262626" stroke-width="1.5" stroke-linecap="round" stroke-linejoin="round"/>
<path d="M3.99988 15.4161C3.99988 16.2141 4.48877 16.9348 5.24432 17.2609L11.2799 19.8521C11.7421 20.0495 12.2665 20.0495 12.7199 19.8521L18.7554 17.2609C19.511 16.9348 19.9999 16.2141 19.9999 15.4161" stroke="#262626" stroke-width="1.5" stroke-linecap="round" stroke-linejoin="round"/>
</svg>
