<svg width="24" height="24" viewBox="0 0 24 24" fill="none" xmlns="http://www.w3.org/2000/svg">
<path d="M14.8482 12.208C17.1148 12.208 18.9522 10.3706 18.9522 8.10403C18.9522 5.83744 17.1148 4 14.8482 4C12.5816 4 10.7441 5.83744 10.7441 8.10403C10.7441 10.3706 12.5816 12.208 14.8482 12.208Z" stroke="#262626" stroke-width="1.5" stroke-miterlimit="10"/>
<path d="M7.464 17.952C8.82484 17.952 9.92803 16.8488 9.92803 15.4879C9.92803 14.1271 8.82484 13.0239 7.464 13.0239C6.10317 13.0239 5 14.1271 5 15.4879C5 16.8488 6.10317 17.952 7.464 17.952Z" stroke="#262626" stroke-width="1.5" stroke-miterlimit="10"/>
<path d="M15.6725 20.0001C16.8036 20.0001 17.7205 19.0831 17.7205 17.9521C17.7205 16.821 16.8036 15.9041 15.6725 15.9041C14.5414 15.9041 13.6245 16.821 13.6245 17.9521C13.6245 19.0831 14.5414 20.0001 15.6725 20.0001Z" stroke="#262626" stroke-width="1.5" stroke-miterlimit="10"/>
</svg>
