<svg width="12" height="12" viewBox="0 0 12 12" fill="none" xmlns="http://www.w3.org/2000/svg">
<path fill-rule="evenodd" clip-rule="evenodd" d="M7.38141 1.65434C8.43953 2.34469 8.64847 3.62939 8.66294 4.80081C8.66905 5.29604 8.66438 5.78912 8.65972 6.28155C8.65065 7.23956 8.6416 8.19511 8.712 9.15928C8.70706 9.09045 7.59141 8.92492 7.464 8.91928C7.19612 8.90769 6.91906 8.93285 6.64512 8.95773C6.51013 8.96998 6.37589 8.98217 6.24388 8.98986C6.01364 9.00426 5.77826 9.01003 5.54159 9.01583C5.08785 9.02696 4.62937 9.0382 4.19329 9.11057C4.10873 9.12464 4.02529 9.13889 3.94252 9.15302C3.50436 9.22781 3.08535 9.29933 2.62165 9.32516C2.58499 9.33152 2.54728 9.32411 2.51576 9.30433C2.48047 9.27539 2.48047 9.22316 2.48047 9.17763C2.48047 8.6321 2.50491 8.08681 2.52933 7.54194C2.56382 6.77228 2.59827 6.00347 2.56376 5.23598C2.53306 4.58304 2.64133 3.93102 2.88141 3.32304C3.08653 2.79875 3.4083 2.32804 3.82235 1.94657C3.93476 1.84498 4.05541 1.7529 4.18306 1.67128C5.13141 1.06139 6.426 1.03104 7.38141 1.65434ZM4.26988 4.30034L4.76717 4.65328L6.36953 3.05128L6.168 2.92387C5.97592 3.24939 5.71233 3.52698 5.39717 3.73563C5.04912 3.97472 4.66979 4.16474 4.26988 4.30034Z" fill="#00214E"/>
<path d="M10.0051 9.4139C7.64579 11.2305 4.35493 11.216 2.01172 9.3786L3.72913 8.57355C3.7817 8.54869 3.83294 8.52112 3.88266 8.49096L3.92219 8.46625C3.93631 8.45743 3.95007 8.44825 3.96384 8.43872C4.18051 8.28924 4.35808 8.08988 4.4816 7.85743C4.62278 7.59096 4.66937 7.2966 4.67148 6.99661C4.67148 6.83178 4.66478 6.66696 4.66054 6.50249C4.66054 6.46555 4.65984 6.42849 4.65842 6.39131C4.65701 6.27955 4.65584 6.16766 4.6549 6.05566H4.65701L4.72478 6.09096L4.90831 6.1859L5.97737 6.36766L7.07572 6.55472L7.10184 7.43708L7.10784 7.64531V7.68308L7.12442 8.24319L7.52925 8.40802L7.8469 8.53649L10.0051 9.4139Z" fill="#F2A196"/>
<path d="M7.10189 7.43672C7.02555 7.48917 6.93431 7.51554 6.84177 7.5119C6.32012 7.45578 5.30153 7.04672 4.6613 6.28966C4.6613 6.25272 4.66059 6.21566 4.65918 6.17849C4.65918 6.13755 4.65918 6.09661 4.65918 6.05566L4.72694 6.09096L4.91047 6.1859L5.97953 6.36766L7.07789 6.55472L7.10189 7.43672Z" fill="#E88870"/>
<ellipse cx="3.66665" cy="4.9252" rx="0.6" ry="0.6" fill="#F2A196"/>
<ellipse cx="3.87856" cy="4.85488" rx="0.6" ry="0.6" fill="#E88870"/>
<path d="M7.85053 4.01706C8.26488 5.45282 7.38429 7.18894 6.84323 7.18894C6.10206 7.18894 4.30206 6.59671 3.88806 5.16094C3.47406 3.72518 4.02606 2.30494 5.12017 1.98941C6.21429 1.67388 7.43582 2.58094 7.85053 4.01706Z" fill="#F2A196"/>
<path d="M5.80127 5.76074C5.97081 5.95017 6.2033 6.07169 6.45562 6.10274" stroke="#00214E" stroke-width="0.2" stroke-linecap="round"/>
<path d="M6.52908 4.16797C6.52908 4.17503 6.69814 4.47009 6.78743 4.78879C6.8287 4.95927 6.8478 5.13436 6.84426 5.30973H6.36743" stroke="#00214E" stroke-width="0.2" stroke-linecap="round"/>
<path d="M6.96704 3.86698C7.21639 3.73995 7.50477 3.71269 7.77351 3.79074" stroke="#00214E" stroke-width="0.2" stroke-linecap="round"/>
<path d="M4.87988 4.0075C5.22375 3.83235 5.62775 3.81942 5.98212 3.97221" stroke="#00214E" stroke-width="0.2" stroke-linecap="round"/>
<path d="M5.49875 4.32031C5.71404 4.32208 5.71404 4.65102 5.49875 4.65278H5.48886C5.27357 4.65278 5.27357 4.32208 5.48886 4.32031H5.49875Z" fill="#00214E"/>
<path d="M7.26778 4.27148C7.4679 4.27148 7.4679 4.57854 7.26778 4.57996H7.25895C7.05919 4.57996 7.05919 4.2729 7.25895 4.27148H7.26778Z" fill="#00214E"/>
<path d="M6.56462 1.61201C6.5482 1.77822 6.52145 1.94325 6.4845 2.10613C6.42136 2.39356 6.31421 2.66952 6.16685 2.92425C5.97478 3.24977 5.71119 3.52736 5.39603 3.73601C5.04797 3.97511 4.66864 4.16513 4.26874 4.30072C3.95674 4.40942 3.63344 4.41895 3.29956 4.48531C3.3105 4.21601 3.29956 3.95342 3.33274 3.64072C3.35744 3.41625 3.40685 3.20201 3.50638 3.02942C3.77643 2.57276 4.17035 2.20197 4.6425 1.96001L4.64674 1.95789C5.16874 1.68931 5.97733 1.42425 6.56462 1.61201Z" fill="#00214E"/>
<circle cx="3.75484" cy="4.92403" r="0.212118" fill="#F2D4CF"/>
<path d="M3.35269 5.43388C3.33963 5.43176 3.32621 5.42929 3.3128 5.42611C3.05804 5.36754 2.88793 5.12693 2.91768 4.86721C2.94742 4.6075 3.16751 4.41158 3.42892 4.41211C3.44396 4.41206 3.45706 4.42235 3.46059 4.43696C3.46411 4.45158 3.45715 4.4667 3.44374 4.47352C3.2879 4.55745 3.18627 4.71572 3.17479 4.89235C3.16331 5.06898 3.24361 5.23907 3.38727 5.34246C3.40608 5.35573 3.41353 5.38004 3.40538 5.40157C3.39724 5.42309 3.37556 5.43638 3.35269 5.43388Z" fill="#F2D4CF"/>
<path d="M3.34131 4.46853C3.41443 4.44065 3.4954 4.44153 3.5679 4.471C3.64485 4.50521 3.70362 4.57053 3.72954 4.65065C3.74957 4.70722 3.75821 4.7672 3.75496 4.82712" stroke="#F2D4CF" stroke-width="2"/>
<path d="M10.0051 9.41421C7.64579 11.2308 4.35493 11.2163 2.01172 9.37891L3.72913 8.57386C3.81092 8.53541 3.88942 8.49032 3.96384 8.43903C3.98642 8.4235 4.00901 8.40727 4.03054 8.39033C4.21746 8.24731 4.37131 8.06565 4.4816 7.85774C4.56498 7.69799 4.62037 7.52514 4.64537 7.34668C4.67029 7.37083 4.69644 7.39369 4.72372 7.41515C4.94011 7.5753 5.17497 7.70885 5.42325 7.81291C5.54378 7.86319 5.66703 7.90667 5.79242 7.94315C6.17021 8.05331 6.56466 8.09503 6.95713 8.06633C7.01148 8.06209 7.06619 8.0568 7.12054 8.05291L7.12584 8.23221V8.24386L7.5529 8.4175L10.0051 9.41421Z" fill="#F2D4CF"/>
<path d="M6.16617 2.92525C5.97409 3.25078 5.71051 3.52836 5.39535 3.73702C5.04729 3.97611 4.66796 4.16613 4.26805 4.30172L3.33205 3.64172L2.88135 3.32407C3.08647 2.79979 3.40824 2.32907 3.82229 1.9476C3.93464 1.84553 4.05529 1.75297 4.18299 1.6709L4.64182 1.96102L6.16617 2.92525Z" fill="url(#paint0_linear_176_647)"/>
<defs>
<linearGradient id="paint0_linear_176_647" x1="5.08447" y1="5.29206" x2="6.50361" y2="2.34739" gradientUnits="userSpaceOnUse">
<stop offset="0.29" stop-color="#00214E"/>
<stop offset="0.51" stop-color="#6878B1"/>
<stop offset="0.79" stop-color="#00214E"/>
</linearGradient>
</defs>
</svg>
