<svg width="16" height="16" viewBox="0 0 16 16" fill="none" xmlns="http://www.w3.org/2000/svg">
<path fill-rule="evenodd" clip-rule="evenodd" d="M9.84196 2.20513C11.2528 3.1256 11.5314 4.83854 11.5507 6.40042C11.5588 7.06074 11.5526 7.71818 11.5464 8.37475C11.5343 9.65209 11.5222 10.9262 11.6161 12.2117C11.6095 12.12 10.122 11.8992 9.95208 11.8917C9.59491 11.8763 9.2255 11.9098 8.86024 11.943C8.68025 11.9593 8.50127 11.9756 8.32526 11.9858C8.01827 12.005 7.70443 12.0127 7.38887 12.0205C6.78388 12.0353 6.17257 12.0503 5.59114 12.1468C5.47839 12.1655 5.36713 12.1845 5.25678 12.2034C4.67256 12.3031 4.11388 12.3985 3.49561 12.4329C3.44674 12.4414 3.39645 12.4315 3.35443 12.4051C3.30737 12.3665 3.30737 12.2969 3.30737 12.2362C3.30737 11.5088 3.33996 10.7818 3.37251 10.0553C3.41851 9.02906 3.46445 8.00397 3.41843 6.98066C3.3775 6.11007 3.52186 5.24071 3.84196 4.43007C4.11545 3.73102 4.54449 3.1034 5.09655 2.59478C5.24643 2.45932 5.40729 2.33655 5.57749 2.22772C6.84196 1.41454 8.56808 1.37407 9.84196 2.20513ZM5.69325 5.73313L6.35631 6.20372L8.49278 4.06772L8.22408 3.89784C7.96798 4.33187 7.61653 4.70199 7.19631 4.98019C6.73224 5.29898 6.22646 5.55234 5.69325 5.73313Z" fill="#00214E"/>
<path d="M13.3403 12.5509C10.1945 14.9731 5.80665 14.9537 2.68237 12.5038L4.97226 11.4304C5.04235 11.3973 5.11067 11.3605 5.17696 11.3203L5.22967 11.2874C5.24849 11.2756 5.26684 11.2634 5.2852 11.2507C5.57409 11.0513 5.81086 10.7855 5.97555 10.4756C6.16378 10.1203 6.2259 9.72783 6.22873 9.32783C6.22873 9.10807 6.21978 8.8883 6.21414 8.66901C6.21414 8.61975 6.2132 8.57034 6.21131 8.52077C6.20943 8.37175 6.20786 8.22258 6.20661 8.07324H6.20943L6.29978 8.1203L6.54449 8.24689L7.9699 8.48924L9.43437 8.73865L9.4692 9.91512L9.4772 10.1928V10.2431L9.49931 10.9899L10.0391 11.2097L10.4626 11.381L13.3403 12.5509Z" fill="#F2A196"/>
<path d="M9.4691 9.91465C9.36732 9.98458 9.24567 10.0197 9.12228 10.0149C8.42675 9.94007 7.06863 9.39465 6.21498 8.38524C6.21498 8.33599 6.21404 8.28658 6.21216 8.23701C6.21216 8.18242 6.21216 8.12783 6.21216 8.07324L6.30251 8.1203L6.54722 8.24689L7.97263 8.48924L9.4371 8.73865L9.4691 9.91465Z" fill="#E88870"/>
<ellipse cx="4.88887" cy="6.56563" rx="0.8" ry="0.8" fill="#F2A196"/>
<ellipse cx="5.17134" cy="6.47187" rx="0.8" ry="0.8" fill="#E88870"/>
<path d="M10.4672 5.35445C11.0197 7.2688 9.84556 9.58363 9.12415 9.58363C8.13591 9.58363 5.73591 8.79398 5.18391 6.87963C4.63191 4.96527 5.36791 3.07163 6.82674 2.65092C8.28556 2.23021 9.91426 3.43963 10.4672 5.35445Z" fill="#F2A196"/>
<path d="M7.73511 7.68066C7.96116 7.93324 8.27115 8.09526 8.60758 8.13666" stroke="#00214E" stroke-width="0.3" stroke-linecap="round"/>
<path d="M8.70552 5.55664C8.70552 5.56605 8.93093 5.95946 9.04999 6.38441C9.10502 6.61171 9.13048 6.84517 9.12576 7.07899H8.48999" stroke="#00214E" stroke-width="0.3" stroke-linecap="round"/>
<path d="M9.28931 5.15597C9.62178 4.9866 10.0063 4.95025 10.3646 5.05432" stroke="#00214E" stroke-width="0.3" stroke-linecap="round"/>
<path d="M6.50635 5.34268C6.96484 5.10915 7.5035 5.0919 7.97599 5.29562" stroke="#00214E" stroke-width="0.3" stroke-linecap="round"/>
<path d="M7.33174 5.75977C7.6188 5.76212 7.6188 6.20071 7.33174 6.20306H7.31857C7.03151 6.20306 7.03151 5.76212 7.31857 5.75977H7.33174Z" fill="#00214E"/>
<path d="M9.69029 5.69434C9.95711 5.69434 9.95711 6.10375 9.69029 6.10563H9.67852C9.41217 6.10563 9.41217 5.69622 9.67852 5.69434H9.69029Z" fill="#00214E"/>
<path d="M8.75283 2.1487C8.73094 2.37031 8.69526 2.59035 8.646 2.80752C8.56181 3.19076 8.41895 3.5587 8.22247 3.89834C7.96637 4.33238 7.61492 4.7025 7.19471 4.9807C6.73063 5.29949 6.22486 5.55285 5.69165 5.73364C5.27565 5.87858 4.84459 5.89129 4.39941 5.97976C4.414 5.6207 4.39941 5.27058 4.44365 4.85364C4.47659 4.55434 4.54247 4.2687 4.67518 4.03858C5.03524 3.4297 5.56047 2.9353 6.19 2.6127L6.19565 2.60987C6.89165 2.25176 7.96977 1.89834 8.75283 2.1487Z" fill="#00214E"/>
<circle cx="5.0067" cy="6.56407" r="0.282824" fill="#F2D4CF"/>
<path d="M4.47 7.24517C4.45259 7.24234 4.43471 7.23905 4.41683 7.23481C4.07714 7.15671 3.85033 6.8359 3.88999 6.48962C3.92964 6.14333 4.2231 5.8821 4.57165 5.88281C4.5917 5.88275 4.60917 5.89646 4.61387 5.91595C4.61857 5.93544 4.60928 5.95561 4.59141 5.9647C4.38363 6.0766 4.24812 6.28763 4.23281 6.52313C4.21751 6.75864 4.32457 6.98543 4.51612 7.12328C4.5412 7.14097 4.55113 7.17339 4.54027 7.20209C4.52941 7.23079 4.50051 7.24851 4.47 7.24517Z" fill="#F2D4CF"/>
<path d="M4.45508 5.95674C4.55257 5.91956 4.66054 5.92074 4.7572 5.96004C4.8598 6.00564 4.93816 6.09273 4.97273 6.19956C4.99943 6.27499 5.01094 6.35496 5.00661 6.43486" stroke="#F2D4CF" stroke-width="2"/>
<path d="M13.3403 12.5507C10.1945 14.9728 5.80665 14.9535 2.68237 12.5036L4.97226 11.4302C5.08131 11.3789 5.18597 11.3188 5.2852 11.2504C5.31531 11.2297 5.34543 11.2081 5.37414 11.1855C5.62336 10.9948 5.82849 10.7526 5.97555 10.4754C6.08672 10.2624 6.16058 10.0319 6.1939 9.79395C6.22714 9.82615 6.26201 9.85662 6.29837 9.88524C6.58689 10.0988 6.90004 10.2768 7.23108 10.4156C7.39178 10.4826 7.55612 10.5406 7.72331 10.5892C8.22703 10.7361 8.75296 10.7917 9.27626 10.7535C9.34873 10.7478 9.42167 10.7408 9.49414 10.7356L9.5012 10.9747V10.9902L10.0706 11.2217L13.3403 12.5507Z" fill="#F2D4CF"/>
<path d="M8.22156 3.90001C7.96546 4.33404 7.61401 4.70416 7.1938 4.98236C6.72972 5.30115 6.22395 5.55451 5.69074 5.7353L4.44274 4.8553L3.8418 4.43177C4.11529 3.73272 4.54432 3.1051 5.09639 2.59648C5.24619 2.46038 5.40706 2.33697 5.57733 2.22754L6.18909 2.61436L8.22156 3.90001Z" fill="url(#paint0_linear_176_625)"/>
<defs>
<linearGradient id="paint0_linear_176_625" x1="6.7793" y1="7.05575" x2="8.67148" y2="3.12952" gradientUnits="userSpaceOnUse">
<stop offset="0.29" stop-color="#00214E"/>
<stop offset="0.51" stop-color="#6878B1"/>
<stop offset="0.79" stop-color="#00214E"/>
</linearGradient>
</defs>
</svg>
