<svg width="20" height="20" viewBox="0 0 20 20" fill="none" xmlns="http://www.w3.org/2000/svg">
<path fill-rule="evenodd" clip-rule="evenodd" d="M12.3023 2.7569C14.0658 3.90749 14.414 6.04867 14.4382 8.00102C14.4483 8.82641 14.4406 9.64821 14.4328 10.4689C14.4177 12.0656 14.4026 13.6582 14.5199 15.2651C14.5117 15.1504 12.6523 14.8745 12.4399 14.8651C11.9935 14.8458 11.5317 14.8878 11.0751 14.9292C10.8501 14.9496 10.6264 14.97 10.4064 14.9828C10.0227 15.0068 9.63035 15.0164 9.2359 15.0261C8.47966 15.0446 7.71553 15.0633 6.98874 15.184C6.84781 15.2074 6.70873 15.2312 6.57079 15.2547C5.84052 15.3794 5.14217 15.4986 4.36933 15.5416C4.30824 15.5522 4.24538 15.5399 4.19286 15.5069C4.13403 15.4587 4.13403 15.3716 4.13403 15.2957C4.13403 14.3865 4.17476 13.4777 4.21546 12.5696C4.27295 11.2868 4.33037 10.0055 4.27286 8.72631C4.22169 7.63808 4.40214 6.55138 4.80227 5.53808C5.14413 4.66426 5.68043 3.87974 6.3705 3.24396C6.55785 3.07464 6.75893 2.92117 6.97168 2.78514C8.55227 1.76867 10.7099 1.71808 12.3023 2.7569ZM7.11639 7.1669L7.94521 7.75514L10.6158 5.08514L10.2799 4.87278C9.95979 5.41533 9.52048 5.87797 8.99521 6.22572C8.41511 6.62421 7.7829 6.94091 7.11639 7.1669Z" fill="#00214E"/>
<path d="M16.6754 15.6889C12.7431 18.7166 7.25838 18.6924 3.35303 15.63L6.21538 14.2883C6.303 14.2468 6.3884 14.2009 6.47126 14.1506L6.53715 14.1094C6.56067 14.0947 6.58362 14.0794 6.60656 14.0636C6.96768 13.8144 7.26364 13.4822 7.4695 13.0947C7.70479 12.6506 7.78244 12.16 7.78597 11.66C7.78597 11.3853 7.77479 11.1106 7.76773 10.8365C7.76773 10.7749 7.76656 10.7132 7.7642 10.6512C7.76185 10.4649 7.75989 10.2785 7.75832 10.0918H7.76185L7.87479 10.1506L8.18067 10.3089L9.96244 10.6118L11.793 10.9236L11.8366 12.3941L11.8466 12.7412V12.8041L11.8742 13.7377L12.5489 14.0124L13.0783 14.2265L16.6754 15.6889Z" fill="#F2A196"/>
<path d="M11.8366 12.3936C11.7093 12.481 11.5573 12.5249 11.403 12.5189C10.5336 12.4253 8.83597 11.7436 7.76891 10.4818C7.76891 10.4202 7.76773 10.3585 7.76538 10.2965C7.76538 10.2283 7.76538 10.16 7.76538 10.0918L7.87832 10.1506L8.1842 10.3089L9.96597 10.6118L11.7966 10.9236L11.8366 12.3936Z" fill="#E88870"/>
<ellipse cx="6.11108" cy="8.20801" rx="1" ry="1" fill="#F2A196"/>
<ellipse cx="6.46411" cy="8.09082" rx="1" ry="1" fill="#E88870"/>
<path d="M13.0841 6.69379C13.7747 9.08674 12.3071 11.9803 11.4053 11.9803C10.17 11.9803 7.17001 10.9932 6.48001 8.60027C5.79001 6.20732 6.71001 3.84027 8.53354 3.31438C10.3571 2.7885 12.393 4.30027 13.0841 6.69379Z" fill="#F2A196"/>
<path d="M9.66895 9.60059C9.95152 9.91631 10.339 10.1188 10.7595 10.1706" stroke="#00214E" stroke-width="0.4" stroke-linecap="round"/>
<path d="M10.8817 6.94531C10.8817 6.95708 11.1635 7.44884 11.3123 7.98002C11.3811 8.26415 11.4129 8.55597 11.407 8.84825H10.6123" stroke="#00214E" stroke-width="0.4" stroke-linecap="round"/>
<path d="M11.6118 6.44496C12.0274 6.23325 12.508 6.18782 12.9559 6.31791" stroke="#00214E" stroke-width="0.4" stroke-linecap="round"/>
<path d="M8.13306 6.67884C8.70617 6.38693 9.3795 6.36537 9.97012 6.62002" stroke="#00214E" stroke-width="0.4" stroke-linecap="round"/>
<path d="M9.16474 7.2002C9.52356 7.20314 9.52356 7.75137 9.16474 7.75431H9.14827C8.78944 7.75431 8.78944 7.20314 9.14827 7.2002H9.16474Z" fill="#00214E"/>
<path d="M12.113 7.11914C12.4466 7.11914 12.4466 7.63091 12.113 7.63326H12.0983C11.7654 7.63326 11.7654 7.12149 12.0983 7.11914H12.113Z" fill="#00214E"/>
<path d="M10.9413 2.68636C10.9139 2.96338 10.8693 3.23842 10.8077 3.50989C10.7025 3.98894 10.5239 4.44887 10.2783 4.87342C9.95821 5.41596 9.5189 5.87861 8.99363 6.22636C8.41353 6.62485 7.78132 6.94155 7.11481 7.16754C6.59481 7.34871 6.05598 7.3646 5.49951 7.47518C5.51775 7.02636 5.49951 6.58871 5.55481 6.06754C5.59598 5.69342 5.67834 5.33636 5.84422 5.04871C6.2943 4.28761 6.95083 3.66962 7.73775 3.26636L7.74481 3.26283C8.61481 2.81518 9.96245 2.37342 10.9413 2.68636Z" fill="#00214E"/>
<circle cx="6.25831" cy="8.20607" r="0.353529" fill="#F2D4CF"/>
<path d="M5.58756 9.05646C5.5658 9.05293 5.54345 9.04881 5.52109 9.04352C5.09649 8.94589 4.81298 8.54488 4.86255 8.11202C4.91212 7.67917 5.27894 7.35263 5.71462 7.35352C5.73968 7.35344 5.76152 7.37058 5.7674 7.39494C5.77328 7.4193 5.76167 7.44451 5.73933 7.45587C5.4796 7.59575 5.31021 7.85953 5.29108 8.15392C5.27195 8.4483 5.40577 8.73178 5.64521 8.90411C5.67656 8.92622 5.68897 8.96673 5.6754 9.00261C5.66182 9.03849 5.62569 9.06063 5.58756 9.05646Z" fill="#F2D4CF"/>
<path d="M5.56885 7.4469C5.69071 7.40043 5.82567 7.4019 5.94649 7.45102C6.07475 7.50803 6.1727 7.61689 6.21591 7.75043C6.24928 7.84472 6.26368 7.94468 6.25826 8.04455" stroke="#F2D4CF" stroke-width="2"/>
<path d="M16.6754 15.689C12.7431 18.7168 7.25838 18.6926 3.35303 15.6302L6.21538 14.2885C6.3517 14.2244 6.48253 14.1492 6.60656 14.0638C6.6442 14.0379 6.68185 14.0108 6.71773 13.9826C7.02926 13.7442 7.28568 13.4414 7.4695 13.0949C7.60847 12.8287 7.70078 12.5406 7.74244 12.2432C7.78398 12.2834 7.82757 12.3215 7.87303 12.3573C8.23368 12.6242 8.62511 12.8468 9.03891 13.0202C9.23979 13.104 9.44521 13.1765 9.6542 13.2373C10.2839 13.4209 10.9413 13.4904 11.5954 13.4426C11.686 13.4355 11.7771 13.4267 11.8677 13.4202L11.8766 13.719V13.7385L12.5883 14.0279L16.6754 15.689Z" fill="#F2D4CF"/>
<path d="M10.277 4.87574C9.95682 5.41829 9.51751 5.88093 8.99225 6.22869C8.41215 6.62717 7.77993 6.94388 7.11342 7.16986L5.55342 6.06986L4.80225 5.54045C5.14411 4.66664 5.6804 3.88211 6.37048 3.24633C6.55774 3.0762 6.75882 2.92194 6.97166 2.78516L7.73636 3.26869L10.277 4.87574Z" fill="url(#paint0_linear_176_603)"/>
<defs>
<linearGradient id="paint0_linear_176_603" x1="8.47412" y1="8.82043" x2="10.8393" y2="3.91264" gradientUnits="userSpaceOnUse">
<stop offset="0.29" stop-color="#00214E"/>
<stop offset="0.51" stop-color="#6878B1"/>
<stop offset="0.79" stop-color="#00214E"/>
</linearGradient>
</defs>
</svg>
