<svg width="24" height="24" viewBox="0 0 24 24" fill="none" xmlns="http://www.w3.org/2000/svg">
<path fill-rule="evenodd" clip-rule="evenodd" d="M14.7628 3.30867C16.8791 4.68938 17.2969 7.25879 17.3259 9.60161C17.3381 10.5921 17.3288 11.5782 17.3194 12.5631C17.3013 14.4791 17.2832 16.3902 17.424 18.3186C17.4141 18.1809 15.1828 17.8498 14.928 17.8386C14.3922 17.8154 13.8381 17.8657 13.2902 17.9155C13.0203 17.94 12.7518 17.9643 12.4878 17.9797C12.0273 18.0085 11.5565 18.0201 11.0832 18.0317C10.1757 18.0539 9.25873 18.0764 8.38658 18.2211C8.21746 18.2493 8.05057 18.2778 7.88505 18.306C7.00872 18.4556 6.1707 18.5987 5.24329 18.6503C5.16998 18.663 5.09455 18.6482 5.03153 18.6087C4.96094 18.5508 4.96094 18.4463 4.96094 18.3553C4.96094 17.2642 5.00981 16.1736 5.05865 15.0839C5.12764 13.5446 5.19655 12.0069 5.12753 10.472C5.06613 9.16608 5.28266 7.86204 5.76282 6.64608C6.17306 5.59751 6.81661 4.65608 7.6447 3.89314C7.86952 3.68996 8.11082 3.5058 8.36611 3.34255C10.2628 2.12279 12.852 2.06208 14.7628 3.30867ZM8.53976 8.60067L9.53435 9.30655L12.7391 6.10255L12.336 5.84773C11.9518 6.49878 11.4247 7.05396 10.7943 7.47126C10.0982 7.94945 9.33957 8.32949 8.53976 8.60067Z" fill="#00214E"/>
<path d="M20.0103 18.8278C15.2916 22.4611 8.70986 22.432 4.02344 18.7572L7.45826 17.1471C7.5634 17.0974 7.66589 17.0422 7.76532 16.9819L7.84438 16.9325C7.87261 16.9149 7.90014 16.8965 7.92767 16.8774C8.36102 16.5785 8.71617 16.1798 8.9632 15.7149C9.24556 15.1819 9.33873 14.5932 9.34297 13.9932C9.34297 13.6636 9.32956 13.3339 9.32108 13.005C9.32108 12.9311 9.31967 12.857 9.31685 12.7826C9.31403 12.5591 9.31167 12.3353 9.30979 12.1113H9.31403L9.44956 12.1819L9.81661 12.3718L11.9547 12.7353L14.1514 13.1094L14.2037 14.8742L14.2157 15.2906V15.3662L14.2488 16.4864L15.0585 16.816L15.6938 17.073L20.0103 18.8278Z" fill="#F2A196"/>
<path d="M14.2038 14.8734C14.0511 14.9783 13.8686 15.0311 13.6835 15.0238C12.6402 14.9116 10.6031 14.0934 9.32259 12.5793C9.32259 12.5054 9.32118 12.4313 9.31836 12.357C9.31836 12.2751 9.31836 12.1932 9.31836 12.1113L9.45389 12.1819L9.82095 12.3718L11.9591 12.7353L14.1558 13.1094L14.2038 14.8734Z" fill="#E88870"/>
<ellipse cx="7.3333" cy="9.85039" rx="1.2" ry="1.2" fill="#F2A196"/>
<ellipse cx="7.75689" cy="9.70879" rx="1.2" ry="1.2" fill="#E88870"/>
<path d="M15.7011 8.03314C16.5298 10.9047 14.7686 14.3769 13.6865 14.3769C12.2041 14.3769 8.60411 13.1924 7.77611 10.3209C6.94811 7.44938 8.05211 4.6089 10.2403 3.97785C12.4286 3.34679 14.8716 5.1609 15.7011 8.03314Z" fill="#F2A196"/>
<path d="M11.6025 11.5215C11.9416 11.9003 12.4066 12.1434 12.9112 12.2055" stroke="#00214E" stroke-width="0.5" stroke-linecap="round"/>
<path d="M13.0582 8.33496C13.0582 8.34908 13.3963 8.9392 13.5749 9.57661C13.6574 9.91757 13.6956 10.2678 13.6885 10.6185H12.7349" stroke="#00214E" stroke-width="0.5" stroke-linecap="round"/>
<path d="M13.9341 7.73493C14.4328 7.48088 15.0095 7.42636 15.547 7.58246" stroke="#00214E" stroke-width="0.5" stroke-linecap="round"/>
<path d="M9.75952 8.01598C10.4473 7.66568 11.2553 7.63981 11.964 7.94539" stroke="#00214E" stroke-width="0.5" stroke-linecap="round"/>
<path d="M10.9977 8.64062C11.4283 8.64415 11.4283 9.30204 10.9977 9.30557H10.978C10.5474 9.30557 10.5474 8.64415 10.978 8.64062H10.9977Z" fill="#00214E"/>
<path d="M14.5356 8.54297C14.9358 8.54297 14.9358 9.15709 14.5356 9.15991H14.5179C14.1184 9.15991 14.1184 8.54579 14.5179 8.54297H14.5356Z" fill="#00214E"/>
<path d="M13.1295 3.22402C13.0967 3.55644 13.0431 3.8865 12.9692 4.21226C12.843 4.78712 12.6287 5.33903 12.334 5.84849C11.9498 6.49955 11.4226 7.05472 10.7923 7.47202C10.0962 7.95021 9.33753 8.33025 8.53772 8.60143C7.91372 8.81885 7.26713 8.83791 6.59937 8.97061C6.62125 8.43202 6.59937 7.90685 6.66572 7.28144C6.71513 6.83249 6.81395 6.40402 7.01301 6.05885C7.55311 5.14552 8.34095 4.40393 9.28525 3.92002L9.29372 3.91579C10.3377 3.37861 11.9549 2.84849 13.1295 3.22402Z" fill="#00214E"/>
<circle cx="7.50993" cy="9.84709" r="0.424235" fill="#F2D4CF"/>
<path d="M6.70513 10.8687C6.67901 10.8645 6.65218 10.8596 6.62536 10.8532C6.11583 10.736 5.77562 10.2548 5.83511 9.73541C5.89459 9.21598 6.33478 8.82413 6.8576 8.8252C6.88767 8.8251 6.91387 8.84567 6.92093 8.8749C6.92798 8.90413 6.91405 8.93439 6.88724 8.94802C6.57556 9.11588 6.3723 9.43241 6.34934 9.78568C6.32638 10.1389 6.48697 10.4791 6.7743 10.6859C6.81192 10.7124 6.82681 10.7611 6.81052 10.8041C6.79423 10.8472 6.75088 10.8737 6.70513 10.8687Z" fill="#F2D4CF"/>
<path d="M6.68262 8.93706C6.82886 8.8813 6.9908 8.88307 7.13579 8.94201C7.2897 9.01042 7.40724 9.14106 7.45909 9.3013C7.49914 9.41444 7.51641 9.53439 7.50991 9.65424" stroke="#F2D4CF" stroke-width="2"/>
<path d="M20.0103 18.8274C15.2916 22.4607 8.70986 22.4316 4.02344 18.7569L7.45826 17.1467C7.62184 17.0698 7.77884 16.9797 7.92767 16.8771C7.97285 16.846 8.01803 16.8136 8.06108 16.7797C8.43491 16.4936 8.74262 16.1303 8.9632 15.7145C9.12996 15.395 9.24074 15.0493 9.29073 14.6924C9.34058 14.7407 9.39289 14.7864 9.44744 14.8293C9.88022 15.1496 10.3499 15.4167 10.8465 15.6249C11.0876 15.7254 11.3341 15.8124 11.5848 15.8853C12.3404 16.1056 13.1293 16.1891 13.9143 16.1317C14.023 16.1232 14.1324 16.1126 14.2411 16.1049L14.2517 16.4634V16.4867L15.1058 16.834L20.0103 18.8274Z" fill="#F2D4CF"/>
<path d="M12.3326 5.85148C11.9484 6.50253 11.4213 7.05771 10.7909 7.47501C10.0948 7.9532 9.33617 8.33324 8.53635 8.60442L6.66435 7.28442L5.76294 6.64913C6.17317 5.60055 6.81673 4.65912 7.64482 3.89619C7.86953 3.69203 8.11083 3.50692 8.36623 3.34277L9.28388 3.92301L12.3326 5.85148Z" fill="url(#paint0_linear_176_581)"/>
<defs>
<linearGradient id="paint0_linear_176_581" x1="10.1692" y1="10.5851" x2="13.0075" y2="4.69575" gradientUnits="userSpaceOnUse">
<stop offset="0.29" stop-color="#00214E"/>
<stop offset="0.51" stop-color="#6878B1"/>
<stop offset="0.79" stop-color="#00214E"/>
</linearGradient>
</defs>
</svg>
