<svg width="32" height="32" viewBox="0 0 32 32" fill="none" xmlns="http://www.w3.org/2000/svg">
<path fill-rule="evenodd" clip-rule="evenodd" d="M19.6837 4.41124C22.5053 6.25218 23.0625 9.67806 23.1011 12.8018C23.1174 14.1225 23.1049 15.4373 23.0925 16.7505C23.0683 19.3052 23.0442 21.8533 23.2319 24.4244C23.2187 24.2409 20.2437 23.7995 19.9039 23.7844C19.1896 23.7535 18.4508 23.8206 17.7203 23.8869C17.3603 23.9196 17.0023 23.9521 16.6503 23.9726C16.0363 24.011 15.4086 24.0264 14.7775 24.0419C13.5675 24.0716 12.3449 24.1015 11.182 24.2945C10.9565 24.3321 10.734 24.37 10.5133 24.4077C9.3449 24.6072 8.22753 24.7979 6.99097 24.8668C6.89323 24.8837 6.79266 24.864 6.70862 24.8112C6.6145 24.7341 6.6145 24.5948 6.6145 24.4734C6.6145 23.0186 6.67967 21.5645 6.74479 20.1115C6.83677 18.0591 6.92865 16.0089 6.83662 13.9623C6.75475 12.2211 7.04347 10.4824 7.68368 8.86112C8.23066 7.46302 9.08873 6.20777 10.1929 5.19053C10.4926 4.91962 10.8143 4.67407 11.1547 4.45641C13.6837 2.83006 17.1359 2.74912 19.6837 4.41124ZM11.3863 11.4672L12.7124 12.4084L16.9853 8.13641L16.4479 7.79665C15.9357 8.66472 15.2328 9.40495 14.3924 9.96135C13.4642 10.5989 12.4527 11.1057 11.3863 11.4672Z" fill="#00214E"/>
<path d="M26.6805 25.1028C20.3889 29.9471 11.6133 29.9084 5.36475 25.0086L9.94451 22.8618C10.0847 22.7955 10.2213 22.722 10.3539 22.6416L10.4593 22.5757C10.497 22.5522 10.5337 22.5277 10.5704 22.5023C11.1482 22.1037 11.6217 21.572 11.9511 20.9522C12.3276 20.2416 12.4518 19.4566 12.4575 18.6566C12.4575 18.2171 12.4396 17.7776 12.4283 17.339C12.4283 17.2405 12.4264 17.1417 12.4226 17.0425C12.4189 16.7445 12.4157 16.4461 12.4132 16.1475H12.4189L12.5996 16.2416L13.089 16.4948L15.9398 16.9795L18.8687 17.4783L18.9384 19.8312L18.9544 20.3865V20.4872L18.9986 21.9809L20.0782 22.4204L20.9252 22.763L26.6805 25.1028Z" fill="#F2A196"/>
<path d="M18.9384 19.8303C18.7349 19.9701 18.4916 20.0405 18.2448 20.0308C16.8537 19.8811 14.1375 18.7903 12.4302 16.7715C12.4302 16.673 12.4283 16.5741 12.4246 16.475C12.4246 16.3658 12.4246 16.2566 12.4246 16.1475L12.6053 16.2416L13.0947 16.4948L15.9455 16.9795L18.8744 17.4783L18.9384 19.8303Z" fill="#E88870"/>
<ellipse cx="9.77798" cy="13.1332" rx="1.6" ry="1.6" fill="#F2A196"/>
<ellipse cx="10.3427" cy="12.9447" rx="1.6" ry="1.6" fill="#E88870"/>
<path d="M20.9347 10.7109C22.0396 14.5396 19.6914 19.1692 18.2485 19.1692C16.2721 19.1692 11.4721 17.5899 10.3681 13.7612C9.26407 9.9325 10.7361 6.14521 13.6537 5.30379C16.5714 4.46238 19.8288 6.88121 20.9347 10.7109Z" fill="#F2A196"/>
<path d="M15.4702 15.3623C15.9223 15.8675 16.5423 16.1915 17.2152 16.2743" stroke="#00214E" stroke-width="0.5" stroke-linecap="round"/>
<path d="M17.4108 11.1133C17.4108 11.1321 17.8616 11.9189 18.0997 12.7688C18.2098 13.2234 18.2607 13.6903 18.2513 14.158H16.9797" stroke="#00214E" stroke-width="0.5" stroke-linecap="round"/>
<path d="M18.5789 10.3119C19.2438 9.9732 20.0128 9.90051 20.7294 10.1086" stroke="#00214E" stroke-width="0.5" stroke-linecap="round"/>
<path d="M13.0127 10.6873C13.9297 10.2203 15.007 10.1858 15.952 10.5932" stroke="#00214E" stroke-width="0.5" stroke-linecap="round"/>
<path d="M14.6635 11.5205C15.2376 11.5252 15.2376 12.4024 14.6635 12.4071H14.6371C14.063 12.4071 14.063 11.5252 14.6371 11.5205H14.6635Z" fill="#00214E"/>
<path d="M19.3808 11.3896C19.9145 11.3896 19.9145 12.2085 19.3808 12.2122H19.3573C18.8246 12.2122 18.8246 11.3934 19.3573 11.3896H19.3808Z" fill="#00214E"/>
<path d="M17.5059 4.29837C17.4621 4.7416 17.3908 5.18167 17.2922 5.61602C17.1239 6.3825 16.8381 7.11838 16.4452 7.79767C15.933 8.66574 15.2301 9.40597 14.3897 9.96237C13.4615 10.6 12.45 11.1067 11.3835 11.4683C10.5515 11.7581 9.68943 11.7835 8.79907 11.9605C8.82825 11.2424 8.79907 10.5421 8.88754 9.70825C8.95343 9.10967 9.08519 8.53837 9.3506 8.07814C10.0707 6.86037 11.1212 5.87159 12.3802 5.22637L12.3915 5.22073C13.7835 4.50449 15.9398 3.79767 17.5059 4.29837Z" fill="#00214E"/>
<circle cx="10.0132" cy="13.1291" r="0.565647" fill="#F2D4CF"/>
<path d="M8.94025 14.4913C8.90543 14.4857 8.86966 14.4791 8.8339 14.4706C8.15453 14.3144 7.70091 13.6728 7.78022 12.9802C7.85953 12.2876 8.44645 11.7652 9.14354 11.7666C9.18364 11.7665 9.21858 11.7939 9.22799 11.8329C9.23739 11.8719 9.21881 11.9122 9.18307 11.9304C8.7675 12.1542 8.49648 12.5762 8.46587 13.0472C8.43526 13.5183 8.64937 13.9718 9.03248 14.2475C9.08264 14.2829 9.1025 14.3478 9.08078 14.4052C9.05906 14.4626 9.00126 14.498 8.94025 14.4913Z" fill="#F2D4CF"/>
<path d="M8.91016 11.9154C9.10514 11.8411 9.32107 11.8434 9.51439 11.922C9.71959 12.0132 9.87632 12.1874 9.94545 12.4011C9.99886 12.5519 10.0219 12.7119 10.0132 12.8717" stroke="#F2D4CF" stroke-width="2"/>
<path d="M26.6805 25.1033C20.3889 29.9476 11.6133 29.9089 5.36475 25.0091L9.94451 22.8623C10.1626 22.7598 10.3719 22.6395 10.5704 22.5028C10.6306 22.4614 10.6909 22.4181 10.7483 22.3729C11.2467 21.9915 11.657 21.5071 11.9511 20.9527C12.1734 20.5267 12.3212 20.0657 12.3878 19.5898C12.4543 19.6543 12.524 19.7152 12.5967 19.7724C13.1738 20.1995 13.8001 20.5556 14.4622 20.8331C14.7836 20.9672 15.1122 21.0832 15.4466 21.1804C16.4541 21.4742 17.5059 21.5854 18.5525 21.5089C18.6975 21.4976 18.8433 21.4835 18.9883 21.4731L19.0024 21.9513V21.9823L20.1412 22.4454L26.6805 25.1033Z" fill="#F2D4CF"/>
<path d="M16.4434 7.801C15.9312 8.66907 15.2283 9.4093 14.3878 9.9657C13.4597 10.6033 12.4481 11.11 11.3817 11.4716L8.88572 9.71158L7.68384 8.86452C8.23082 7.46642 9.08889 6.21118 10.193 5.19394C10.4926 4.92173 10.8144 4.67492 11.1549 4.45605L12.3784 5.2297L16.4434 7.801Z" fill="url(#paint0_linear_176_559)"/>
<defs>
<linearGradient id="paint0_linear_176_559" x1="13.5588" y1="14.1125" x2="17.3432" y2="6.26002" gradientUnits="userSpaceOnUse">
<stop offset="0.29" stop-color="#00214E"/>
<stop offset="0.51" stop-color="#6878B1"/>
<stop offset="0.79" stop-color="#00214E"/>
</linearGradient>
</defs>
</svg>
