<svg width="12" height="12" viewBox="0 0 12 12" fill="none" xmlns="http://www.w3.org/2000/svg">
<path d="M7.31363 8.44507C7.11362 8.66945 6.89235 8.87394 6.65292 9.05566C6.22551 9.37789 5.90892 9.34083 5.41233 9.29777C4.83527 9.24801 4.2628 9.1566 3.68751 9.08883C3.61445 9.08036 3.5361 9.06942 3.48245 9.01825C3.4395 8.97046 3.41067 8.91169 3.39916 8.84848C3.05974 7.61542 2.85501 6.3492 2.78857 5.07201C2.72504 3.85083 3.35327 2.65507 4.5388 2.20683C5.7688 1.74095 7.36975 2.05048 8.09892 3.21554C9.1221 4.85213 8.55704 7.05589 7.31363 8.44507Z" fill="url(#paint0_linear_176_741)"/>
<path d="M10.0051 9.48882C7.64579 11.3055 4.35493 11.2909 2.01172 9.45353L3.72913 8.64847C3.7817 8.62361 3.83294 8.59605 3.88266 8.56588L3.92219 8.54118C3.93631 8.53235 3.95007 8.52318 3.96384 8.51365C4.18051 8.36417 4.35808 8.16481 4.4816 7.93235C4.62278 7.66588 4.66937 7.37153 4.67148 7.07153C4.67148 6.86965 4.66054 6.66777 4.65842 6.46553C4.65701 6.35377 4.65584 6.24188 4.6549 6.12988L4.72548 6.16518L4.90901 6.26012L5.97807 6.44188L7.07643 6.62894L7.1096 7.75835L7.12619 8.31847L7.53101 8.48329L7.84866 8.61176L10.0051 9.48882Z" fill="#00214E"/>
<path d="M7.10897 7.75813C6.75391 7.82118 6.38863 7.79263 6.04768 7.67519C5.28603 7.41931 4.77321 6.80202 4.72485 6.16602L4.90838 6.26096L5.97744 6.44272L7.0758 6.62978L7.10897 7.75813Z" fill="#F2A196"/>
<ellipse cx="3.77261" cy="5.00039" rx="0.6" ry="0.6" fill="#F2A196"/>
<ellipse cx="3.98428" cy="4.93008" rx="0.6" ry="0.6" fill="#E88870"/>
<path d="M7.85053 4.09135C8.26488 5.52712 7.38464 7.26323 6.84323 7.26323C6.10206 7.26323 4.30206 6.671 3.88806 5.23523C3.47406 3.79947 4.02606 2.37959 5.12017 2.0637C6.21429 1.74782 7.43582 2.65594 7.85053 4.09135Z" fill="#F2A196"/>
<path d="M5.81812 5.75195C5.98766 5.94138 6.22015 6.0629 6.47247 6.09395" stroke="#00214E" stroke-width="0.2" stroke-linecap="round"/>
<path d="M8.02704 3.23559C7.87986 2.87842 7.48492 2.70195 7.12174 2.56959C6.92551 2.499 6.72433 2.42842 6.51539 2.42383C6.3221 2.4243 6.13085 2.4633 5.9528 2.53853C5.63974 2.66136 5.31751 2.84489 5.07716 3.081C4.96033 3.19571 4.8541 3.31606 4.73339 3.43077C4.66704 3.4943 4.60316 3.56065 4.54245 3.62948C4.49622 3.68206 4.44045 3.79183 4.38257 3.82712C5.4601 3.17383 6.79774 2.93206 8.02704 3.23559Z" fill="#FF2609"/>
<path d="M6.54592 4.15918C6.54592 4.16624 6.71498 4.4613 6.80428 4.78C6.84554 4.95036 6.86464 5.12534 6.8611 5.30059H6.38428" stroke="#00214E" stroke-width="0.2" stroke-linecap="round"/>
<path d="M6.98389 3.85844C7.23314 3.73106 7.52165 3.70379 7.79036 3.78221" stroke="#00214E" stroke-width="0.2" stroke-linecap="round"/>
<path d="M4.89673 3.99871C5.2406 3.82356 5.6446 3.81063 5.99896 3.96342" stroke="#00214E" stroke-width="0.2" stroke-linecap="round"/>
<path d="M5.51584 4.31152C5.73113 4.31152 5.73113 4.64223 5.51584 4.64399H5.50595C5.29066 4.64399 5.29066 4.31329 5.50595 4.31152H5.51584Z" fill="#00214E"/>
<path d="M7.28462 4.2627C7.48474 4.2627 7.48474 4.56975 7.28462 4.57117H7.2758C7.07604 4.57117 7.07604 4.26411 7.2758 4.2627H7.28462Z" fill="#00214E"/>
<path fill-rule="evenodd" clip-rule="evenodd" d="M6.86991 1.27606C7.98626 1.61064 8.58626 2.57629 8.79803 3.6517C8.9417 4.39649 8.91491 5.16415 8.71967 5.89711C8.51779 6.63476 8.1892 7.33005 7.84191 8.01123C7.83654 8.02175 7.83121 8.03223 7.82589 8.04266C7.6078 8.47075 7.42815 8.82339 6.94579 9.01323C6.09767 9.34782 5.06391 9.15758 4.3725 8.56111C3.15414 7.5097 2.57885 5.34264 2.81779 3.78053C3.0832 2.03982 5.19803 0.77382 6.86991 1.27606ZM5.57532 7.00817C5.93673 7.2037 6.53603 7.38335 6.9412 7.21994C6.96504 7.20904 6.98774 7.1958 7.00897 7.18041C7.06737 7.14041 7.12029 7.09295 7.16638 7.03923C7.4685 6.70394 7.6545 6.28182 7.76638 5.83923C7.84368 5.52394 7.89095 5.20203 7.90756 4.87782C7.93967 4.31629 7.77944 3.78829 7.50132 3.30194C7.25779 2.87558 6.73826 2.45064 6.22014 2.58229C5.9025 2.66382 5.63532 2.87029 5.40838 3.10358C5.28043 3.23518 5.1688 3.37907 5.05739 3.5227C4.89867 3.72732 4.74038 3.93138 4.53591 4.09853C4.44055 4.17959 4.33706 4.25055 4.22708 4.31029C4.21014 4.31876 3.98638 4.42958 3.98391 4.41829C4.00751 4.53904 4.03731 4.65849 4.0732 4.77617C4.30826 5.59217 4.69226 6.43641 5.42567 6.91853C5.47414 6.95029 5.52403 6.98017 5.57532 7.00817Z" fill="url(#paint1_linear_176_741)"/>
<defs>
<linearGradient id="paint0_linear_176_741" x1="2.78398" y1="9.32676" x2="8.62904" y2="9.32676" gradientUnits="userSpaceOnUse">
<stop stop-color="#16243F"/>
<stop offset="1" stop-color="#6878B1"/>
</linearGradient>
<linearGradient id="paint1_linear_176_741" x1="2.76485" y1="9.17716" x2="8.88908" y2="9.17716" gradientUnits="userSpaceOnUse">
<stop stop-color="#16243F"/>
<stop offset="1" stop-color="#6878B1"/>
</linearGradient>
</defs>
</svg>
