<svg width="16" height="16" viewBox="0 0 16 16" fill="none" xmlns="http://www.w3.org/2000/svg">
<path d="M9.75142 11.2598C9.48475 11.5589 9.18972 11.8316 8.87048 12.0739C8.3006 12.5035 7.87848 12.4541 7.21636 12.3967C6.44695 12.3304 5.68366 12.2085 4.9166 12.1181C4.81919 12.1068 4.71472 12.0922 4.64319 12.024C4.58592 11.9603 4.54747 11.8819 4.53213 11.7976C4.07957 10.1536 3.8066 8.46528 3.71801 6.76235C3.6333 5.13412 4.47095 3.53977 6.05166 2.94212C7.69166 2.32094 9.82625 2.73365 10.7985 4.28706C12.1627 6.46918 11.4093 9.40753 9.75142 11.2598Z" fill="url(#paint0_linear_176_723)"/>
<path d="M13.3403 12.6514C10.1945 15.0736 5.80665 15.0542 2.68237 12.6044L4.97226 11.531C5.04235 11.4978 5.11067 11.4611 5.17696 11.4209L5.22967 11.3879C5.24849 11.3761 5.26684 11.3639 5.2852 11.3512C5.57409 11.1519 5.81086 10.8861 5.97555 10.5761C6.16378 10.2209 6.2259 9.82838 6.22873 9.42838C6.22873 9.1592 6.21414 8.89003 6.21131 8.62038C6.20943 8.47136 6.20786 8.32218 6.20661 8.17285L6.30073 8.21991L6.54543 8.3465L7.97084 8.58885L9.43531 8.83826L9.47955 10.3441L9.50167 11.091L10.0414 11.3107L10.465 11.482L13.3403 12.6514Z" fill="#00214E"/>
<path d="M9.47863 10.3435C9.00521 10.4276 8.51818 10.3895 8.06357 10.2329C7.04804 9.89176 6.36428 9.0687 6.2998 8.2207L6.54451 8.34729L7.96992 8.58964L9.43439 8.83906L9.47863 10.3435Z" fill="#F2A196"/>
<ellipse cx="5.03022" cy="6.66621" rx="0.8" ry="0.8" fill="#F2A196"/>
<ellipse cx="5.31245" cy="6.57246" rx="0.8" ry="0.8" fill="#E88870"/>
<path d="M10.4672 5.45416C11.0197 7.36851 9.84603 9.68333 9.12415 9.68333C8.13591 9.68333 5.73591 8.89369 5.18391 6.97933C4.63191 5.06498 5.36791 3.1718 6.82674 2.75063C8.28556 2.32945 9.91426 3.54028 10.4672 5.45416Z" fill="#F2A196"/>
<path d="M7.75757 7.66895C7.98362 7.92152 8.29361 8.08354 8.63004 8.12495" stroke="#00214E" stroke-width="0.3" stroke-linecap="round"/>
<path d="M10.7026 4.3138C10.5063 3.83756 9.97973 3.60227 9.4955 3.4258C9.23385 3.33168 8.96561 3.23756 8.68703 3.23145C8.42931 3.23208 8.1743 3.28407 7.93691 3.38439C7.5195 3.54815 7.08985 3.79286 6.76938 4.10768C6.61361 4.26062 6.47197 4.42109 6.31103 4.57403C6.22256 4.65874 6.13738 4.74721 6.05644 4.83897C5.99479 4.90909 5.92044 5.05545 5.84326 5.1025C7.27997 4.23145 9.0635 3.90909 10.7026 4.3138Z" fill="#FF2609"/>
<path d="M8.72798 5.54492C8.72798 5.55433 8.95339 5.94775 9.07245 6.37269C9.12747 6.59983 9.15294 6.83314 9.14822 7.0668H8.51245" stroke="#00214E" stroke-width="0.3" stroke-linecap="round"/>
<path d="M9.31201 5.14361C9.64435 4.97378 10.029 4.93741 10.3873 5.04196" stroke="#00214E" stroke-width="0.3" stroke-linecap="round"/>
<path d="M6.52905 5.33096C6.98754 5.09743 7.52621 5.08018 7.9987 5.2839" stroke="#00214E" stroke-width="0.3" stroke-linecap="round"/>
<path d="M7.35445 5.74805C7.64151 5.74805 7.64151 6.18899 7.35445 6.19134H7.34127C7.05421 6.19134 7.05421 5.7504 7.34127 5.74805H7.35445Z" fill="#00214E"/>
<path d="M9.71299 5.68262C9.97982 5.68262 9.97982 6.09203 9.71299 6.09391H9.70123C9.43488 6.09391 9.43488 5.6845 9.70123 5.68262H9.71299Z" fill="#00214E"/>
<path fill-rule="evenodd" clip-rule="evenodd" d="M9.15996 1.70076C10.6484 2.14687 11.4484 3.4344 11.7308 4.86829C11.9223 5.86134 11.8866 6.88488 11.6263 7.86217C11.3571 8.8457 10.919 9.77276 10.456 10.681C10.4488 10.695 10.4417 10.709 10.4346 10.7229C10.1438 11.2937 9.90429 11.7639 9.26114 12.017C8.13031 12.4631 6.75196 12.2095 5.83008 11.4142C4.20561 10.0123 3.43855 7.12287 3.75714 5.04005C4.11102 2.71911 6.93078 1.03111 9.15996 1.70076ZM7.43384 9.34358C7.91572 9.60429 8.71478 9.84381 9.25502 9.62593C9.28681 9.6114 9.31707 9.59375 9.34537 9.57323C9.42324 9.5199 9.4938 9.45662 9.55525 9.38499C9.95808 8.93793 10.2061 8.37511 10.3553 7.78499C10.4583 7.3646 10.5213 6.93539 10.5435 6.50311C10.5863 5.7544 10.3727 5.0504 10.0018 4.40193C9.67714 3.83346 8.98443 3.26687 8.29361 3.4424C7.87008 3.55111 7.51384 3.8264 7.21125 4.13746C7.04065 4.31292 6.89182 4.50478 6.74327 4.69628C6.53165 4.9691 6.32059 5.24119 6.04796 5.46405C5.92082 5.57213 5.78283 5.66675 5.63619 5.7464C5.61361 5.7577 5.31525 5.90546 5.31196 5.8904C5.34342 6.0514 5.38316 6.21067 5.43102 6.36758C5.74443 7.45558 6.25643 8.58123 7.23431 9.22405C7.29894 9.2664 7.36545 9.30625 7.43384 9.34358Z" fill="url(#paint1_linear_176_723)"/>
<defs>
<linearGradient id="paint0_linear_176_723" x1="3.71189" y1="12.4354" x2="11.5053" y2="12.4354" gradientUnits="userSpaceOnUse">
<stop stop-color="#16243F"/>
<stop offset="1" stop-color="#6878B1"/>
</linearGradient>
<linearGradient id="paint1_linear_176_723" x1="3.68655" y1="12.2356" x2="11.8522" y2="12.2356" gradientUnits="userSpaceOnUse">
<stop stop-color="#16243F"/>
<stop offset="1" stop-color="#6878B1"/>
</linearGradient>
</defs>
</svg>
