<svg width="20" height="20" viewBox="0 0 20 20" fill="none" xmlns="http://www.w3.org/2000/svg">
<path d="M12.1895 14.0754C11.8561 14.4494 11.4873 14.7902 11.0883 15.0931C10.3759 15.6301 9.84828 15.5684 9.02064 15.4966C8.05887 15.4137 7.10475 15.2613 6.14593 15.1484C6.02417 15.1343 5.89358 15.116 5.80417 15.0307C5.73259 14.9511 5.68453 14.8531 5.66534 14.7478C5.09964 12.6927 4.75843 10.5823 4.6477 8.45368C4.54181 6.41838 5.58887 4.42544 7.56475 3.67838C9.61475 2.90191 12.283 3.41779 13.4983 5.35956C15.2036 8.08721 14.2618 11.7601 12.1895 14.0754Z" fill="url(#paint0_linear_176_705)"/>
<path d="M16.6754 15.815C12.7431 18.8428 7.25838 18.8185 3.35303 15.7562L6.21538 14.4144C6.303 14.373 6.3884 14.3271 6.47126 14.2768L6.53715 14.2356C6.56067 14.2209 6.58362 14.2056 6.60656 14.1897C6.96768 13.9406 7.26364 13.6083 7.4695 13.2209C7.70479 12.7768 7.78244 12.2862 7.78597 11.7862C7.78597 11.4497 7.76773 11.1133 7.7642 10.7762C7.76185 10.5899 7.75989 10.4035 7.75832 10.2168L7.87597 10.2756L8.18185 10.4339L9.96362 10.7368L11.7942 11.0486L11.8495 12.9309L11.8771 13.8644L12.5519 14.1391L13.0813 14.3533L16.6754 15.815Z" fill="#00214E"/>
<path d="M11.8483 12.9289C11.2565 13.034 10.6477 12.9864 10.0795 12.7907C8.81005 12.3642 7.95534 11.3354 7.87476 10.2754L8.18064 10.4336L9.9624 10.7366L11.793 11.0483L11.8483 12.9289Z" fill="#F2A196"/>
<ellipse cx="6.2876" cy="8.33301" rx="1" ry="1" fill="#F2A196"/>
<ellipse cx="6.64062" cy="8.21582" rx="1" ry="1" fill="#E88870"/>
<path d="M13.0841 6.81892C13.7747 9.21186 12.3077 12.1054 11.4053 12.1054C10.17 12.1054 7.17001 11.1183 6.48001 8.72539C5.79001 6.33245 6.71001 3.96598 8.53354 3.43951C10.3571 2.91303 12.393 4.42656 13.0841 6.81892Z" fill="#F2A196"/>
<path d="M9.69702 9.58691C9.97959 9.90263 10.3671 10.1052 10.7876 10.1569" stroke="#00214E" stroke-width="0.4" stroke-linecap="round"/>
<path d="M13.3783 5.392C13.133 4.79671 12.4748 4.50259 11.8695 4.282C11.5424 4.16436 11.2071 4.04671 10.8589 4.03906C10.5368 4.03985 10.218 4.10484 9.92126 4.23024C9.39949 4.43494 8.86243 4.74083 8.46185 5.13436C8.26714 5.32553 8.09008 5.52612 7.88891 5.7173C7.77832 5.82318 7.67185 5.93377 7.57067 6.04847C7.49361 6.13612 7.40067 6.31906 7.3042 6.37789C9.10008 5.28906 11.3295 4.88612 13.3783 5.392Z" fill="#FF2609"/>
<path d="M10.91 6.93066C10.91 6.94243 11.1918 7.43419 11.3406 7.96537C11.4094 8.2493 11.4412 8.54093 11.4353 8.83302H10.6406" stroke="#00214E" stroke-width="0.4" stroke-linecap="round"/>
<path d="M11.6399 6.43073C12.0553 6.21844 12.5362 6.17298 12.984 6.30368" stroke="#00214E" stroke-width="0.4" stroke-linecap="round"/>
<path d="M8.16113 6.66419C8.73424 6.37228 9.40758 6.35072 9.99819 6.60537" stroke="#00214E" stroke-width="0.4" stroke-linecap="round"/>
<path d="M9.19306 7.18555C9.55188 7.18555 9.55188 7.73672 9.19306 7.73966H9.17659C8.81776 7.73966 8.81776 7.18849 9.17659 7.18555H9.19306Z" fill="#00214E"/>
<path d="M12.1411 7.10449C12.4746 7.10449 12.4746 7.61626 12.1411 7.61861H12.1264C11.7935 7.61861 11.7935 7.10685 12.1264 7.10449H12.1411Z" fill="#00214E"/>
<path fill-rule="evenodd" clip-rule="evenodd" d="M11.45 2.12643C13.3106 2.68408 14.3106 4.29349 14.6635 6.08584C14.903 7.32717 14.8583 8.60659 14.533 9.8282C14.1965 11.0576 13.6488 12.2164 13.07 13.3517C13.0611 13.3693 13.0522 13.3867 13.0433 13.4041C12.6798 14.1176 12.3804 14.7053 11.5765 15.0217C10.163 15.5794 8.44001 15.2623 7.28766 14.2682C5.25707 12.5158 4.29825 8.90408 4.69648 6.30055C5.13883 3.39937 8.66354 1.28937 11.45 2.12643ZM9.29236 11.68C9.89472 12.0058 10.8935 12.3053 11.5688 12.0329C11.6086 12.0147 11.6464 11.9927 11.6818 11.967C11.7791 11.9004 11.8673 11.8213 11.9441 11.7317C12.4477 11.1729 12.7577 10.4694 12.9441 9.73173C13.073 9.20623 13.1517 8.66972 13.1794 8.12937C13.233 7.19349 12.9659 6.31349 12.5024 5.5029C12.0965 4.79231 11.2306 4.08408 10.3671 4.30349C9.83766 4.43937 9.39236 4.78349 9.01413 5.17231C8.80087 5.39163 8.61484 5.63146 8.42915 5.87084C8.16462 6.21187 7.9008 6.55198 7.56001 6.83055C7.40109 6.96565 7.2286 7.08393 7.0453 7.18349C7.01707 7.19761 6.64413 7.38232 6.64001 7.36349C6.67934 7.56474 6.72902 7.76383 6.78883 7.95996C7.1806 9.31996 7.8206 10.727 9.04295 11.5306C9.12374 11.5835 9.20687 11.6333 9.29236 11.68Z" fill="url(#paint1_linear_176_705)"/>
<defs>
<linearGradient id="paint0_linear_176_705" x1="4.64005" y1="15.5449" x2="14.3818" y2="15.5449" gradientUnits="userSpaceOnUse">
<stop stop-color="#16243F"/>
<stop offset="1" stop-color="#6878B1"/>
</linearGradient>
<linearGradient id="paint1_linear_176_705" x1="4.60825" y1="15.2949" x2="14.8153" y2="15.2949" gradientUnits="userSpaceOnUse">
<stop stop-color="#16243F"/>
<stop offset="1" stop-color="#6878B1"/>
</linearGradient>
</defs>
</svg>
