<svg width="24" height="24" viewBox="0 0 24 24" fill="none" xmlns="http://www.w3.org/2000/svg">
<path d="M14.6273 16.8901C14.2272 17.3389 13.7847 17.7479 13.3058 18.1113C12.451 18.7558 11.8178 18.6817 10.8247 18.5955C9.67055 18.496 8.52561 18.3132 7.37502 18.1777C7.2289 18.1607 7.0722 18.1388 6.9649 18.0365C6.87901 17.9409 6.82133 17.8234 6.79831 17.697C6.11947 15.2308 5.71002 12.6984 5.57714 10.144C5.45008 7.70167 6.70655 5.31014 9.07761 4.41367C11.5376 3.4819 14.7395 4.10096 16.1978 6.43108C18.2442 9.70426 17.1141 14.1118 14.6273 16.8901Z" fill="url(#paint0_linear_176_687)"/>
<path d="M20.0103 18.9767C15.2916 22.6099 8.70986 22.5809 4.02344 18.9061L7.45826 17.296C7.5634 17.2462 7.66589 17.1911 7.76532 17.1308L7.84438 17.0814C7.87261 17.0637 7.90014 17.0454 7.92767 17.0263C8.36102 16.7274 8.71617 16.3286 8.9632 15.8637C9.24556 15.3308 9.33873 14.7421 9.34297 14.1421C9.34297 13.7383 9.32108 13.3346 9.31685 12.9301C9.31403 12.7066 9.31167 12.4828 9.30979 12.2588L9.45097 12.3294L9.81803 12.5193L11.9561 12.8828L14.1529 13.2569L14.2192 15.5157L14.2524 16.636L15.062 16.9656L15.6973 17.2226L20.0103 18.9767Z" fill="#00214E"/>
<path d="M14.2179 15.5143C13.5078 15.6404 12.7773 15.5833 12.0954 15.3484C10.5721 14.8367 9.54641 13.6021 9.44971 12.3301L9.81677 12.52L11.9549 12.8835L14.1516 13.2576L14.2179 15.5143Z" fill="#F2A196"/>
<ellipse cx="7.54521" cy="9.9998" rx="1.2" ry="1.2" fill="#F2A196"/>
<ellipse cx="7.9688" cy="9.8582" rx="1.2" ry="1.2" fill="#E88870"/>
<path d="M15.7011 8.18172C16.5298 11.0533 14.7693 14.5255 13.6865 14.5255C12.2041 14.5255 8.60411 13.341 7.77611 10.4695C6.94811 7.59796 8.05211 4.75819 10.2403 4.12643C12.4286 3.49467 14.8716 5.3109 15.7011 8.18172Z" fill="#F2A196"/>
<path d="M11.6365 11.5029C11.9756 11.8818 12.4405 12.1248 12.9452 12.1869" stroke="#00214E" stroke-width="0.5" stroke-linecap="round"/>
<path d="M16.0538 6.47021C15.7595 5.75586 14.9696 5.40292 14.2432 5.13821C13.8508 4.99703 13.4484 4.85586 13.0305 4.84668C12.644 4.84763 12.2615 4.92562 11.9054 5.07609C11.2792 5.32174 10.6348 5.6888 10.1541 6.16103C9.92042 6.39044 9.70795 6.63115 9.46654 6.86056C9.33383 6.98762 9.20607 7.12033 9.08466 7.25797C8.99219 7.36315 8.88066 7.58268 8.76489 7.65327C10.92 6.34668 13.5952 5.86315 16.0538 6.47021Z" fill="#FF2609"/>
<path d="M13.0921 8.31641C13.0921 8.33052 13.4302 8.92064 13.6088 9.55805C13.6913 9.89877 13.7295 10.2487 13.7224 10.5992H12.7688" stroke="#00214E" stroke-width="0.5" stroke-linecap="round"/>
<path d="M13.968 7.7159C14.4665 7.46115 15.0436 7.4066 15.581 7.56343" stroke="#00214E" stroke-width="0.5" stroke-linecap="round"/>
<path d="M9.79346 7.99742C10.4812 7.64712 11.2892 7.62125 11.9979 7.92683" stroke="#00214E" stroke-width="0.5" stroke-linecap="round"/>
<path d="M11.0314 8.62207C11.462 8.62207 11.462 9.28348 11.0314 9.28701H11.0117C10.5811 9.28701 10.5811 8.6256 11.0117 8.62207H11.0314Z" fill="#00214E"/>
<path d="M14.5695 8.52441C14.9697 8.52441 14.9697 9.13853 14.5695 9.14136H14.5518C14.1523 9.14136 14.1523 8.52724 14.5518 8.52441H14.5695Z" fill="#00214E"/>
<path fill-rule="evenodd" clip-rule="evenodd" d="M13.7401 2.55113C15.9728 3.22031 17.1728 5.1516 17.5963 7.30243C17.8836 8.79201 17.8301 10.3273 17.4396 11.7933C17.0358 13.2685 16.3786 14.6591 15.6841 16.0215C15.6733 16.0425 15.6627 16.0635 15.652 16.0843C15.2158 16.9405 14.8566 17.6458 13.8918 18.0255C12.1956 18.6947 10.1281 18.3142 8.74524 17.1213C6.30853 15.0184 5.15794 10.6843 5.63583 7.56007C6.16665 4.07866 10.3963 1.54666 13.7401 2.55113ZM11.1509 14.0154C11.8737 14.4064 13.0723 14.7657 13.8826 14.4389C13.9303 14.4171 13.9757 14.3906 14.0182 14.3598C14.135 14.2799 14.2408 14.1849 14.333 14.0775C14.9372 13.4069 15.3092 12.5627 15.533 11.6775C15.6876 11.0469 15.7821 10.4031 15.8154 9.75466C15.8796 8.6316 15.5591 7.5756 15.0029 6.6029C14.5158 5.75019 13.4768 4.90031 12.4405 5.1636C11.8052 5.32666 11.2709 5.7396 10.817 6.20619C10.5611 6.46937 10.3379 6.75717 10.115 7.04443C9.79759 7.45366 9.48101 7.86178 9.07206 8.19607C8.88135 8.35819 8.67436 8.50013 8.45441 8.6196C8.42053 8.63654 7.973 8.85819 7.96806 8.8356C8.01526 9.0771 8.07487 9.31601 8.14665 9.55137C8.61677 11.1834 9.38477 12.8718 10.8516 13.8361C10.9485 13.8996 11.0483 13.9594 11.1509 14.0154Z" fill="url(#paint1_linear_176_687)"/>
<defs>
<linearGradient id="paint0_linear_176_687" x1="5.56796" y1="18.6535" x2="17.2581" y2="18.6535" gradientUnits="userSpaceOnUse">
<stop stop-color="#16243F"/>
<stop offset="1" stop-color="#6878B1"/>
</linearGradient>
<linearGradient id="paint1_linear_176_687" x1="5.52994" y1="18.3533" x2="17.7784" y2="18.3533" gradientUnits="userSpaceOnUse">
<stop stop-color="#16243F"/>
<stop offset="1" stop-color="#6878B1"/>
</linearGradient>
</defs>
</svg>
