<svg width="32" height="32" viewBox="0 0 32 32" fill="none" xmlns="http://www.w3.org/2000/svg">
<path d="M19.5031 22.5195C18.9697 23.1179 18.3797 23.6632 17.7412 24.1478C16.6014 25.0071 15.7572 24.9082 14.433 24.7934C12.8941 24.6607 11.3676 24.4169 9.83344 24.2362C9.63862 24.2137 9.42968 24.1845 9.28662 24.048C9.17209 23.9206 9.09519 23.7639 9.0645 23.5953C8.15938 20.3071 7.61344 16.9306 7.43626 13.5247C7.26685 10.2682 8.94215 7.07953 12.1036 5.88424C15.3836 4.64189 19.6527 5.4673 21.5972 8.57412C24.3257 12.9384 22.8189 18.8151 19.5031 22.5195Z" fill="url(#paint0_linear_176_669)"/>
<path d="M26.6805 25.3029C20.3889 30.1472 11.6133 30.1085 5.36475 25.2088L9.94451 23.0619C10.0847 22.9956 10.2213 22.9221 10.3539 22.8417L10.4593 22.7758C10.497 22.7523 10.5337 22.7278 10.5704 22.7024C11.1482 22.3038 11.6217 21.7722 11.9511 21.1523C12.3276 20.4417 12.4518 19.6568 12.4575 18.8568C12.4575 18.3184 12.4283 17.7801 12.4226 17.2408C12.4189 16.9427 12.4157 16.6444 12.4132 16.3457L12.6015 16.4398L13.0909 16.693L15.9417 17.1777L18.8706 17.6765L18.9591 20.6883L19.0033 22.1819L20.0829 22.6215L20.9299 22.9641L26.6805 25.3029Z" fill="#00214E"/>
<path d="M18.9573 20.6861C18.0104 20.8542 17.0364 20.7781 16.1271 20.4649C14.0961 19.7825 12.7286 18.1364 12.5996 16.4404L13.089 16.6936L15.9398 17.1783L18.8688 17.6771L18.9573 20.6861Z" fill="#F2A196"/>
<ellipse cx="10.0602" cy="13.3324" rx="1.6" ry="1.6" fill="#F2A196"/>
<ellipse cx="10.6249" cy="13.1449" rx="1.6" ry="1.6" fill="#E88870"/>
<path d="M20.9347 10.9093C22.0396 14.738 19.6923 19.3676 18.2485 19.3676C16.2721 19.3676 11.4721 17.7884 10.3681 13.9596C9.26407 10.1309 10.7361 6.34459 13.6537 5.50223C16.5714 4.65988 19.8288 7.08153 20.9347 10.9093Z" fill="#F2A196"/>
<path d="M15.5154 15.3379C15.9675 15.843 16.5875 16.1671 17.2603 16.2499" stroke="#00214E" stroke-width="0.5" stroke-linecap="round"/>
<path d="M21.4051 8.62662C21.0126 7.67415 19.9595 7.20356 18.991 6.85062C18.4677 6.66238 17.9312 6.47415 17.3741 6.46191C16.8586 6.46318 16.3486 6.56716 15.8738 6.7678C15.039 7.09533 14.1797 7.58474 13.5388 8.21438C13.2272 8.52027 12.9439 8.84121 12.6221 9.14709C12.4451 9.3165 12.2748 9.49344 12.1129 9.67697C11.9896 9.81721 11.8409 10.1099 11.6865 10.204C14.5599 8.46191 18.127 7.81721 21.4051 8.62662Z" fill="#FF2609"/>
<path d="M17.456 11.0889C17.456 11.1077 17.9068 11.8945 18.1449 12.7444C18.2549 13.1987 18.3059 13.6653 18.2964 14.1326H17.0249" stroke="#00214E" stroke-width="0.5" stroke-linecap="round"/>
<path d="M18.624 10.2882C19.2887 9.94853 20.0581 9.8758 20.7746 10.0849" stroke="#00214E" stroke-width="0.5" stroke-linecap="round"/>
<path d="M13.0579 10.6629C13.9748 10.1958 15.0522 10.1613 15.9972 10.5688" stroke="#00214E" stroke-width="0.5" stroke-linecap="round"/>
<path d="M14.7087 11.4961C15.2828 11.4961 15.2828 12.378 14.7087 12.3827H14.6823C14.1082 12.3827 14.1082 11.5008 14.6823 11.4961H14.7087Z" fill="#00214E"/>
<path d="M19.426 11.3662C19.9596 11.3662 19.9596 12.185 19.426 12.1888H19.4025C18.8698 12.1888 18.8698 11.37 19.4025 11.3662H19.426Z" fill="#00214E"/>
<path fill-rule="evenodd" clip-rule="evenodd" d="M18.3199 3.40151C21.2969 4.29375 22.8969 6.86881 23.4616 9.73657C23.8447 11.7227 23.7733 13.7698 23.2526 15.7243C22.7143 17.6914 21.838 19.5455 20.9119 21.362C20.8976 21.39 20.8834 21.418 20.8692 21.4458C20.2876 22.5874 19.8086 23.5277 18.5223 24.034C16.2606 24.9262 13.5039 24.4189 11.6602 22.8283C8.41121 20.0246 6.8771 14.2457 7.51427 10.0801C8.22204 5.43822 13.8616 2.06222 18.3199 3.40151ZM14.8677 18.6872C15.8314 19.2086 17.4296 19.6876 18.51 19.2519C18.5736 19.2228 18.6341 19.1875 18.6907 19.1465C18.8465 19.0398 18.9876 18.9132 19.1105 18.77C19.9162 17.8759 20.4122 16.7502 20.7105 15.57C20.9166 14.7292 21.0427 13.8708 21.087 13.0062C21.1726 11.5088 20.7453 10.1008 20.0037 8.80386C19.3543 7.66692 17.9689 6.53375 16.5872 6.8848C15.7402 7.10222 15.0277 7.6528 14.4225 8.27492C14.0813 8.62583 13.7836 9.00956 13.4865 9.39257C13.0633 9.93821 12.6412 10.4824 12.0959 10.9281C11.8416 11.1443 11.5657 11.3335 11.2724 11.4928C11.2272 11.5154 10.6305 11.8109 10.6239 11.7808C10.6868 12.1028 10.7663 12.4213 10.862 12.7352C11.4889 14.9112 12.5129 17.1625 14.4686 18.4481C14.5979 18.5328 14.7309 18.6125 14.8677 18.6872Z" fill="url(#paint1_linear_176_669)"/>
<defs>
<linearGradient id="paint0_linear_176_669" x1="7.42403" y1="24.8707" x2="23.0109" y2="24.8707" gradientUnits="userSpaceOnUse">
<stop stop-color="#16243F"/>
<stop offset="1" stop-color="#6878B1"/>
</linearGradient>
<linearGradient id="paint1_linear_176_669" x1="7.3731" y1="24.4711" x2="23.7044" y2="24.4711" gradientUnits="userSpaceOnUse">
<stop stop-color="#16243F"/>
<stop offset="1" stop-color="#6878B1"/>
</linearGradient>
</defs>
</svg>
