<svg width="12" height="12" viewBox="0 0 12 12" fill="none" xmlns="http://www.w3.org/2000/svg">
<circle cx="5.66694" cy="1.78853" r="1.08247" fill="url(#paint0_linear_176_839)"/>
<path d="M6.60216 7.66259C6.03676 7.65278 5.47286 7.60111 4.9151 7.508C3.80404 7.32235 2.71627 6.96765 1.72945 6.42094C1.67086 6.38812 1.61227 6.35494 1.55298 6.32106C2.42792 5.49059 3.07733 4.48577 3.62616 3.41988C4.02145 2.65082 4.22616 2.14365 5.07992 1.82C6.56439 1.25777 8.5698 1.80447 8.99192 3.47459C9.17016 4.18047 9.17686 4.91847 9.07557 5.63671C8.9778 6.3313 8.72051 7.66894 8.72051 7.66894C8.72051 7.66894 6.87921 7.66753 6.60216 7.66259Z" fill="url(#paint1_linear_176_839)"/>
<path d="M10.4714 9.92207C8.1121 11.7387 4.82124 11.7242 2.47803 9.88677L4.19544 9.08171C4.24801 9.05685 4.29925 9.02929 4.34897 8.99912L4.3885 8.97442C4.40262 8.96559 4.41638 8.95642 4.43015 8.94689C4.64686 8.79731 4.82444 8.59782 4.94791 8.36524C5.08909 8.09877 5.13567 7.80442 5.13779 7.50442C5.13779 7.33959 5.13109 7.17477 5.12685 7.0103C5.12685 6.97312 5.12615 6.93606 5.12473 6.89912C5.12332 6.78712 5.12215 6.67524 5.1212 6.56348H5.12367L5.19109 6.59877L5.37462 6.69371L6.44367 6.87548L7.54203 7.06254L7.56709 7.90959L7.57415 8.15242V8.19018L7.59073 8.7503L7.99556 8.91512L8.3132 9.04359L10.4714 9.92207Z" fill="#F2A196"/>
<path d="M7.56711 7.90959C7.49104 7.96169 7.40017 7.98781 7.30805 7.98406C6.78605 7.92795 5.76781 7.51889 5.12687 6.76183C5.12687 6.72465 5.12617 6.68759 5.12476 6.65065V6.56348L5.19217 6.59877L5.3757 6.69371L6.44476 6.87548L7.54311 7.06254L7.56711 7.90959Z" fill="#E88870"/>
<circle cx="4.23843" cy="5.43301" r="0.6" fill="#F2A196"/>
<ellipse cx="4.45034" cy="5.3627" rx="0.6" ry="0.6" fill="#E88870"/>
<path d="M8.31647 4.52427C8.73117 5.96004 7.85059 7.69615 7.30918 7.69615C6.568 7.69615 4.768 7.10392 4.354 5.66815C3.94 4.23239 4.48918 2.81215 5.58329 2.49627C6.67741 2.18039 7.90212 3.08956 8.31647 4.52427Z" fill="#F2A196"/>
<path d="M6.08712 4.82324C6.30242 4.82501 6.30242 5.15395 6.08712 5.15571H6.07724C5.86195 5.15395 5.86195 4.82501 6.07724 4.82324H6.08677H6.08712Z" fill="#00214E"/>
<path d="M7.86104 4.6875C8.06116 4.68926 8.06116 4.99456 7.86104 4.99632H7.85222C7.65245 4.99632 7.65245 4.68926 7.85222 4.6875H7.86104Z" fill="#00214E"/>
<circle cx="6.08685" cy="4.99188" r="0.670588" stroke="white" stroke-width="0.2"/>
<ellipse cx="7.96209" cy="4.88641" rx="0.670588" ry="0.670588" stroke="white" stroke-width="0.2"/>
<path d="M6.95054 2.61535C6.79842 3.27535 6.46701 3.83582 5.86136 4.24417C5.20772 4.69664 4.51772 4.91476 3.76489 5.06476C3.78395 4.60205 3.73313 3.95123 3.97172 3.53864C4.2425 3.08053 4.63801 2.70889 5.11207 2.46711C5.63477 2.19711 6.44336 1.93241 7.03066 2.11947C7.01433 2.28627 6.98757 2.45189 6.95054 2.61535Z" fill="url(#paint2_linear_176_839)"/>
<path d="M7.01199 4.5918C7.00917 4.6038 7.29152 5.73321 7.29152 5.73321H6.85034" stroke="#00214E" stroke-width="0.2" stroke-linecap="round"/>
<path d="M7.41626 4.23149C7.66551 4.10411 7.95403 4.07684 8.22273 4.15525" stroke="#00214E" stroke-width="0.2" stroke-linecap="round"/>
<path d="M5.47119 4.36004C5.81506 4.18489 6.21906 4.17195 6.57343 4.32474" stroke="#00214E" stroke-width="0.2" stroke-linecap="round"/>
<path d="M6.75732 4.99182L7.29132 4.94629" stroke="white" stroke-width="0.2"/>
<path d="M10.471 9.92167C8.11161 11.7383 4.82075 11.7238 2.47754 9.88637L4.19495 9.08132C4.27674 9.04287 4.35524 8.99777 4.42966 8.94649C4.45225 8.93096 4.47483 8.91473 4.49636 8.89779C4.68344 8.75471 4.83742 8.57292 4.94777 8.36485C5.03096 8.20529 5.08622 8.03269 5.11119 7.85449C5.13611 7.87864 5.16226 7.9015 5.18954 7.92296C5.40595 8.08299 5.64081 8.21642 5.88907 8.32037C6.0096 8.37065 6.13285 8.41413 6.25825 8.45061C6.63603 8.56077 7.03048 8.60249 7.42295 8.57379C7.4773 8.56955 7.53201 8.56426 7.58636 8.56037L7.59166 8.73967V8.75132L8.01872 8.92496L10.471 9.92167Z" fill="#845161"/>
<path d="M6.09468 6.13117C6.10451 6.11572 6.12031 6.10504 6.13831 6.1017C6.15632 6.09835 6.1749 6.10263 6.18962 6.11352C6.26268 6.16505 6.3968 6.27447 6.58739 6.31223C6.84715 6.36411 7.07268 6.25999 7.12633 6.32705C7.15668 6.36482 7.11962 6.41105 7.04868 6.46999C6.89863 6.58218 6.70968 6.62913 6.52456 6.60023C6.27433 6.55329 6.08692 6.26388 6.08692 6.16117C6.0868 6.15066 6.08948 6.14031 6.09468 6.13117Z" fill="white"/>
<defs>
<linearGradient id="paint0_linear_176_839" x1="4.58447" y1="2.87117" x2="6.74977" y2="2.87117" gradientUnits="userSpaceOnUse">
<stop stop-color="#16243F"/>
<stop offset="1" stop-color="#6878B1"/>
</linearGradient>
<linearGradient id="paint1_linear_176_839" x1="6.22254" y1="9.88482" x2="9.44782" y2="4.71594" gradientUnits="userSpaceOnUse">
<stop stop-color="#16243F"/>
<stop offset="1" stop-color="#6878B1"/>
</linearGradient>
<linearGradient id="paint2_linear_176_839" x1="4.87712" y1="6.08912" x2="6.47476" y2="3.90243" gradientUnits="userSpaceOnUse">
<stop stop-color="#16243F"/>
<stop offset="1" stop-color="#6878B1"/>
</linearGradient>
</defs>
</svg>
