<svg width="16" height="16" viewBox="0 0 16 16" fill="none" xmlns="http://www.w3.org/2000/svg">
<circle cx="7.55584" cy="2.3847" r="1.44329" fill="url(#paint0_linear_176_819)"/>
<path d="M8.80279 10.2174C8.04893 10.2044 7.29707 10.1355 6.55338 10.0113C5.07197 9.76379 3.62162 9.29085 2.30585 8.56191C2.22773 8.51814 2.14962 8.47391 2.07056 8.42873C3.23715 7.32144 4.10303 5.98167 4.83479 4.5605C5.36185 3.53508 5.63479 2.85885 6.77315 2.42732C8.75244 1.67767 11.4263 2.40661 11.9891 4.63344C12.2268 5.57461 12.2357 6.55861 12.1007 7.51626C11.9703 8.44238 11.6273 10.2259 11.6273 10.2259C11.6273 10.2259 9.1722 10.224 8.80279 10.2174Z" fill="url(#paint1_linear_176_819)"/>
<path d="M13.9618 13.2291C10.816 15.6513 6.42823 15.6319 3.30396 13.182L5.59384 12.1086C5.66393 12.0755 5.73226 12.0387 5.79854 11.9985L5.85125 11.9656C5.87007 11.9538 5.88843 11.9416 5.90678 11.9289C6.19573 11.7294 6.4325 11.4634 6.59713 11.1533C6.78537 10.798 6.84748 10.4056 6.85031 10.0056C6.85031 9.7858 6.84137 9.56604 6.83572 9.34674C6.83572 9.29717 6.83478 9.24776 6.8329 9.19851C6.83101 9.04917 6.82945 8.9 6.82819 8.75098H6.83148L6.92137 8.79804L7.16607 8.92462L8.59148 9.16698L10.056 9.41639L10.0894 10.5458L10.0988 10.8696V10.9199L10.1209 11.6667L10.6607 11.8865L11.0842 12.0578L13.9618 13.2291Z" fill="#F2A196"/>
<path d="M10.0895 10.5468C9.98805 10.6162 9.8669 10.6511 9.74407 10.6461C9.04807 10.5712 7.69042 10.0258 6.83583 9.01642C6.83583 8.96686 6.83489 8.91744 6.83301 8.86819V8.75195L6.92289 8.79901L7.1676 8.9256L8.59301 9.16795L10.0575 9.41736L10.0895 10.5468Z" fill="#E88870"/>
<circle cx="5.65132" cy="7.24434" r="0.8" fill="#F2A196"/>
<ellipse cx="5.93354" cy="7.14961" rx="0.8" ry="0.8" fill="#E88870"/>
<path d="M11.0885 6.03269C11.6415 7.94704 10.4674 10.2619 9.74549 10.2619C8.75725 10.2619 6.35725 9.47222 5.80525 7.55786C5.25325 5.64351 5.98549 3.74986 7.44431 3.32869C8.90313 2.90751 10.5361 4.11974 11.0885 6.03269Z" fill="#F2A196"/>
<path d="M8.11617 6.43066C8.40322 6.43302 8.40322 6.87161 8.11617 6.87396H8.10299C7.81593 6.87161 7.81593 6.43302 8.10299 6.43066H8.1157H8.11617Z" fill="#00214E"/>
<path d="M10.4813 6.25C10.7481 6.25235 10.7481 6.65941 10.4813 6.66176H10.4695C10.2032 6.66176 10.2032 6.25235 10.4695 6.25H10.4813Z" fill="#00214E"/>
<circle cx="8.1158" cy="6.65584" r="0.894118" stroke="white" stroke-width="0.3"/>
<ellipse cx="10.616" cy="6.51424" rx="0.894118" ry="0.894118" stroke="white" stroke-width="0.3"/>
<path d="M9.2673 3.48713C9.06448 4.36713 8.6226 5.11443 7.81507 5.6589C6.94354 6.26219 6.02354 6.55301 5.01978 6.75301C5.04519 6.13607 4.97742 5.26831 5.29554 4.71819C5.65659 4.10737 6.18393 3.61186 6.81601 3.28948C7.51295 2.92948 8.59107 2.57654 9.37413 2.82595C9.35236 3.04836 9.31668 3.26918 9.2673 3.48713Z" fill="url(#paint2_linear_176_819)"/>
<path d="M9.34907 6.12207C9.34531 6.13807 9.72178 7.64395 9.72178 7.64395H9.13354" stroke="#00214E" stroke-width="0.3" stroke-linecap="round"/>
<path d="M9.88843 5.64166C10.2208 5.47182 10.6055 5.43546 10.9637 5.54001" stroke="#00214E" stroke-width="0.3" stroke-linecap="round"/>
<path d="M7.29517 5.81436C7.75366 5.58083 8.29232 5.56358 8.76481 5.7673" stroke="#00214E" stroke-width="0.3" stroke-linecap="round"/>
<path d="M9.00977 6.65543L9.72177 6.59473" stroke="white" stroke-width="0.3"/>
<path d="M13.9613 13.2289C10.8156 15.6511 6.42775 15.6317 3.30347 13.1818L5.59335 12.1084C5.7024 12.0572 5.80707 11.997 5.90629 11.9287C5.93641 11.908 5.96653 11.8863 5.99523 11.8637C6.24467 11.6729 6.44998 11.4306 6.59711 11.1531C6.70802 10.9404 6.78171 10.7102 6.815 10.4727C6.84823 10.5049 6.8831 10.5353 6.91947 10.564C7.20801 10.7773 7.52116 10.9552 7.85217 11.0938C8.01288 11.1609 8.17721 11.2188 8.34441 11.2675C8.84813 11.4144 9.37405 11.47 9.89735 11.4317C9.96982 11.4261 10.0428 11.419 10.1152 11.4138L10.1223 11.6529V11.6684L10.6917 11.9L13.9613 13.2289Z" fill="#845161"/>
<path d="M8.12608 8.17555C8.13918 8.15494 8.16025 8.14071 8.18426 8.13625C8.20826 8.13179 8.23304 8.1375 8.25267 8.15202C8.35008 8.22072 8.5289 8.3666 8.78302 8.41696C9.12937 8.48613 9.43008 8.34731 9.50161 8.43672C9.54208 8.48708 9.49267 8.54872 9.39808 8.62731C9.19801 8.77689 8.94608 8.83949 8.69926 8.80096C8.36561 8.73837 8.11573 8.35249 8.11573 8.21555C8.11557 8.20153 8.11914 8.18773 8.12608 8.17555Z" fill="white"/>
<defs>
<linearGradient id="paint0_linear_176_819" x1="6.11255" y1="3.82823" x2="8.99961" y2="3.82823" gradientUnits="userSpaceOnUse">
<stop stop-color="#16243F"/>
<stop offset="1" stop-color="#6878B1"/>
</linearGradient>
<linearGradient id="paint1_linear_176_819" x1="8.29664" y1="13.1804" x2="12.597" y2="6.28858" gradientUnits="userSpaceOnUse">
<stop stop-color="#16243F"/>
<stop offset="1" stop-color="#6878B1"/>
</linearGradient>
<linearGradient id="paint2_linear_176_819" x1="6.50274" y1="8.11883" x2="8.63293" y2="5.20324" gradientUnits="userSpaceOnUse">
<stop stop-color="#16243F"/>
<stop offset="1" stop-color="#6878B1"/>
</linearGradient>
</defs>
</svg>
