<svg width="20" height="20" viewBox="0 0 20 20" fill="none" xmlns="http://www.w3.org/2000/svg">
<circle cx="9.44474" cy="2.98088" r="1.80412" fill="url(#paint0_linear_176_799)"/>
<path d="M11.0034 12.7713C10.0611 12.755 9.12127 12.6688 8.19166 12.5137C6.3399 12.2042 4.52696 11.6131 2.88225 10.7019C2.78461 10.6472 2.68696 10.5919 2.58813 10.5354C4.04637 9.15131 5.12872 7.4766 6.04343 5.70013C6.70225 4.41837 7.04343 3.57307 8.46637 3.03366C10.9405 2.0966 14.2828 3.00778 14.9864 5.79131C15.2834 6.96778 15.2946 8.19778 15.1258 9.39484C14.9628 10.5525 14.534 12.7819 14.534 12.7819C14.534 12.7819 11.4652 12.7795 11.0034 12.7713Z" fill="url(#paint1_linear_176_799)"/>
<path d="M17.4522 16.5361C13.52 19.5638 8.03523 19.5396 4.12988 16.4773L6.99224 15.1355C7.07985 15.0941 7.16526 15.0482 7.24812 14.9979L7.314 14.9567C7.33753 14.942 7.36047 14.9267 7.38341 14.9108C7.7446 14.6615 8.04057 14.3291 8.24635 13.9414C8.48165 13.4973 8.55929 13.0067 8.56282 12.5067C8.56282 12.232 8.55165 11.9573 8.54459 11.6832C8.54459 11.6212 8.54341 11.5595 8.54106 11.4979C8.53871 11.3112 8.53675 11.1248 8.53518 10.9385H8.53929L8.65165 10.9973L8.95753 11.1555L10.7393 11.4585L12.5699 11.7702L12.6116 13.182L12.6234 13.5867V13.6497L12.6511 14.5832L13.3258 14.8579L13.8552 15.072L17.4522 16.5361Z" fill="#F2A196"/>
<path d="M12.6118 13.183C12.4851 13.2698 12.3336 13.3133 12.1801 13.3071C11.3101 13.2136 9.61302 12.5318 8.54479 11.27C8.54479 11.2081 8.54361 11.1463 8.54126 11.0847V10.9395L8.65361 10.9983L8.9595 11.1565L10.7413 11.4595L12.5718 11.7712L12.6118 13.183Z" fill="#E88870"/>
<circle cx="7.06421" cy="9.05469" r="1" fill="#F2A196"/>
<ellipse cx="7.41699" cy="8.9375" rx="1" ry="1" fill="#E88870"/>
<path d="M13.8606 7.5411C14.5518 9.93404 13.0841 12.8276 12.1818 12.8276C10.9465 12.8276 7.9465 11.8405 7.2565 9.44757C6.5665 7.05463 7.4818 4.68757 9.30533 4.1611C11.1289 3.63463 13.17 5.14992 13.8606 7.5411Z" fill="#F2A196"/>
<path d="M10.1452 8.03809C10.504 8.04103 10.504 8.58926 10.1452 8.5922H10.1287C9.76991 8.58926 9.76991 8.04103 10.1287 8.03809H10.1446H10.1452Z" fill="#00214E"/>
<path d="M13.1018 7.81152C13.4353 7.81446 13.4353 8.32329 13.1018 8.32623H13.0871C12.7542 8.32623 12.7542 7.81446 13.0871 7.81152H13.1018Z" fill="#00214E"/>
<circle cx="10.1447" cy="8.3198" r="1.11765" stroke="white" stroke-width="0.4"/>
<ellipse cx="13.27" cy="8.14304" rx="1.11765" ry="1.11765" stroke="white" stroke-width="0.4"/>
<path d="M11.5841 4.35891C11.3305 5.45891 10.7782 6.39303 9.76878 7.07362C8.67936 7.82774 7.52936 8.19127 6.27466 8.44127C6.30642 7.67009 6.22172 6.58538 6.61936 5.89774C7.07067 5.13422 7.72985 4.51482 8.51995 4.11186C9.39113 3.66186 10.7388 3.22068 11.7176 3.53244C11.6904 3.81045 11.6458 4.08648 11.5841 4.35891Z" fill="url(#paint2_linear_176_799)"/>
<path d="M11.6864 7.65234C11.6817 7.67234 12.1523 9.5547 12.1523 9.5547H11.417" stroke="#00214E" stroke-width="0.4" stroke-linecap="round"/>
<path d="M12.3606 7.05183C12.776 6.83953 13.2569 6.79408 13.7047 6.92477" stroke="#00214E" stroke-width="0.4" stroke-linecap="round"/>
<path d="M9.1189 7.26771C9.69201 6.97579 10.3653 6.95423 10.956 7.20888" stroke="#00214E" stroke-width="0.4" stroke-linecap="round"/>
<path d="M11.2625 8.32002L12.1525 8.24414" stroke="white" stroke-width="0.4"/>
<path d="M17.4517 16.5361C13.5195 19.5638 8.03474 19.5396 4.12939 16.4773L6.99175 15.1355C7.12806 15.0714 7.25889 14.9963 7.38292 14.9108C7.42057 14.8849 7.45822 14.8579 7.4941 14.8296C7.8059 14.5912 8.06253 14.2882 8.24645 13.9414C8.38509 13.6755 8.4772 13.3878 8.51881 13.0908C8.56035 13.1311 8.60394 13.1692 8.64939 13.2049C9.01007 13.4716 9.40151 13.694 9.81528 13.8673C10.0162 13.9511 10.2216 14.0236 10.4306 14.0843C11.0602 14.268 11.7176 14.3375 12.3717 14.2896C12.4623 14.2826 12.5535 14.2738 12.6441 14.2673L12.6529 14.5661V14.5855L13.3647 14.8749L17.4517 16.5361Z" fill="#845161"/>
<path d="M10.1577 10.2189C10.1741 10.1932 10.2004 10.1754 10.2304 10.1698C10.2604 10.1642 10.2914 10.1714 10.316 10.1895C10.4377 10.2754 10.6613 10.4578 10.9789 10.5207C11.4118 10.6072 11.7877 10.4336 11.8771 10.5454C11.9277 10.6084 11.866 10.6854 11.7477 10.7836C11.4976 10.9706 11.1827 11.0489 10.8742 11.0007C10.4571 10.9225 10.1448 10.4401 10.1448 10.2689C10.1446 10.2514 10.1491 10.2342 10.1577 10.2189Z" fill="white"/>
<defs>
<linearGradient id="paint0_linear_176_799" x1="7.64063" y1="4.78529" x2="11.2494" y2="4.78529" gradientUnits="userSpaceOnUse">
<stop stop-color="#16243F"/>
<stop offset="1" stop-color="#6878B1"/>
</linearGradient>
<linearGradient id="paint1_linear_176_799" x1="10.3707" y1="16.475" x2="15.7462" y2="7.86023" gradientUnits="userSpaceOnUse">
<stop stop-color="#16243F"/>
<stop offset="1" stop-color="#6878B1"/>
</linearGradient>
<linearGradient id="paint2_linear_176_799" x1="8.12836" y1="10.1485" x2="10.7911" y2="6.50404" gradientUnits="userSpaceOnUse">
<stop stop-color="#16243F"/>
<stop offset="1" stop-color="#6878B1"/>
</linearGradient>
</defs>
</svg>
