<svg width="24" height="24" viewBox="0 0 24 24" fill="none" xmlns="http://www.w3.org/2000/svg">
<circle cx="11.3336" cy="3.57705" r="2.16494" fill="url(#paint0_linear_176_779)"/>
<path d="M13.2043 15.3252C12.0735 15.3056 10.9457 15.2022 9.83019 15.016C7.60808 14.6447 5.43255 13.9353 3.4589 12.8419C3.34172 12.7762 3.22455 12.7099 3.10596 12.6421C4.85584 10.9812 6.15466 8.97153 7.25231 6.83977C8.0429 5.30165 8.45231 4.2873 10.1598 3.64C13.1288 2.51553 17.1396 3.60894 17.9838 6.94918C18.3403 8.36094 18.3537 9.83694 18.1511 11.2734C17.9556 12.6626 17.441 15.3379 17.441 15.3379C17.441 15.3379 13.7584 15.3351 13.2043 15.3252Z" fill="url(#paint1_linear_176_779)"/>
<path d="M20.9429 19.8432C16.2242 23.4764 9.64247 23.4474 4.95605 19.7726L8.39088 18.1624C8.49602 18.1127 8.59851 18.0576 8.69794 17.9973L8.777 17.9479C8.80523 17.9302 8.83276 17.9119 8.86029 17.8928C9.29372 17.5936 9.64888 17.1947 9.89582 16.7295C10.1782 16.1966 10.2713 15.6079 10.2756 15.0079C10.2756 14.6782 10.2622 14.3486 10.2537 14.0196C10.2537 13.9453 10.2523 13.8712 10.2495 13.7973C10.2466 13.5733 10.2443 13.3495 10.2424 13.126H10.2473L10.3822 13.1966L10.7492 13.3864L12.8873 13.75L15.0841 14.1241L15.1342 15.8182L15.1483 16.3039V16.3794L15.1815 17.4996L15.9911 17.8293L16.6264 18.0862L20.9429 19.8432Z" fill="#F2A196"/>
<path d="M15.1342 15.8202C14.9821 15.9244 14.8003 15.9766 14.6161 15.9691C13.5721 15.8569 11.5356 15.0388 10.2537 13.5246C10.2537 13.4503 10.2523 13.3762 10.2495 13.3023V13.1279L10.3843 13.1985L10.7514 13.3884L12.8895 13.7519L15.0862 14.126L15.1342 15.8202Z" fill="#E88870"/>
<circle cx="8.47686" cy="10.866" r="1.2" fill="#F2A196"/>
<ellipse cx="8.90044" cy="10.7244" rx="1.2" ry="1.2" fill="#E88870"/>
<path d="M16.6327 9.04854C17.4621 11.9201 15.7009 15.3923 14.6181 15.3923C13.1358 15.3923 9.53575 14.2078 8.70775 11.3363C7.87975 8.46478 8.97811 5.62431 11.1663 4.99254C13.3546 4.36078 15.804 6.17913 16.6327 9.04854Z" fill="#F2A196"/>
<path d="M12.1742 9.64551C12.6048 9.64904 12.6048 10.3069 12.1742 10.3104H12.1545C11.7239 10.3069 11.7239 9.64904 12.1545 9.64551H12.1735H12.1742Z" fill="#00214E"/>
<path d="M15.7221 9.37402C16.1223 9.37755 16.1223 9.98814 15.7221 9.99167H15.7044C15.3049 9.99167 15.3049 9.37755 15.7044 9.37402H15.7221Z" fill="#00214E"/>
<circle cx="12.1737" cy="9.98376" r="1.34118" stroke="white" stroke-width="0.4"/>
<ellipse cx="15.9239" cy="9.77184" rx="1.34118" ry="1.34118" stroke="white" stroke-width="0.4"/>
<path d="M13.9008 5.2307C13.5966 6.5507 12.9338 7.67164 11.7225 8.48834C10.4152 9.39328 9.03519 9.82952 7.52954 10.1295C7.56766 9.20411 7.46601 7.90246 7.94319 7.07729C8.48476 6.16106 9.27577 5.41779 10.2239 4.93423C11.2693 4.39423 12.8865 3.86481 14.0611 4.23893C14.0284 4.57254 13.9749 4.90378 13.9008 5.2307Z" fill="url(#paint2_linear_176_779)"/>
<path d="M14.0237 9.18262C14.0181 9.20662 14.5828 11.4654 14.5828 11.4654H13.7004" stroke="#00214E" stroke-width="0.4" stroke-linecap="round"/>
<path d="M14.8328 8.462C15.3313 8.20724 15.9083 8.1527 16.4457 8.30953" stroke="#00214E" stroke-width="0.4" stroke-linecap="round"/>
<path d="M10.9426 8.72105C11.6304 8.37076 12.4384 8.34489 13.1471 8.65047" stroke="#00214E" stroke-width="0.4" stroke-linecap="round"/>
<path d="M13.5149 9.98364L14.5829 9.89258" stroke="white" stroke-width="0.4"/>
<path d="M20.9421 19.8433C16.2235 23.4766 9.64174 23.4475 4.95532 19.7727L8.39015 18.1626C8.55373 18.0857 8.71072 17.9955 8.85956 17.893C8.90473 17.8619 8.94991 17.8295 8.99297 17.7956C9.36713 17.5094 9.67509 17.1458 9.89579 16.7297C10.0622 16.4106 10.1727 16.0654 10.2226 15.709C10.2725 15.7573 10.3248 15.803 10.3793 15.8459C10.8121 16.166 11.2819 16.4328 11.7784 16.6407C12.0194 16.7413 12.2659 16.8283 12.5167 16.9012C13.2723 17.1215 14.0612 17.205 14.8461 17.1476C14.9549 17.1391 15.0643 17.1285 15.173 17.1207L15.1836 17.4793V17.5026L16.0377 17.8499L20.9421 19.8433Z" fill="#845161"/>
<path d="M12.1891 12.2633C12.2088 12.2324 12.2404 12.2111 12.2764 12.2044C12.3124 12.1977 12.3496 12.2062 12.379 12.228C12.5251 12.3311 12.7934 12.5499 13.1745 12.6254C13.6941 12.7292 14.1451 12.521 14.2524 12.6551C14.3131 12.7306 14.239 12.8231 14.0971 12.941C13.797 13.1653 13.4191 13.2592 13.0489 13.2014C12.5484 13.1076 12.1736 12.5287 12.1736 12.3233C12.1734 12.3023 12.1787 12.2816 12.1891 12.2633Z" fill="white"/>
<defs>
<linearGradient id="paint0_linear_176_779" x1="9.1687" y1="5.74234" x2="13.4993" y2="5.74234" gradientUnits="userSpaceOnUse">
<stop stop-color="#16243F"/>
<stop offset="1" stop-color="#6878B1"/>
</linearGradient>
<linearGradient id="paint1_linear_176_779" x1="12.4451" y1="19.7696" x2="18.8956" y2="9.43189" gradientUnits="userSpaceOnUse">
<stop stop-color="#16243F"/>
<stop offset="1" stop-color="#6878B1"/>
</linearGradient>
<linearGradient id="paint2_linear_176_779" x1="9.75399" y1="12.1782" x2="12.9493" y2="7.80485" gradientUnits="userSpaceOnUse">
<stop stop-color="#16243F"/>
<stop offset="1" stop-color="#6878B1"/>
</linearGradient>
</defs>
</svg>
