<svg width="32" height="32" viewBox="0 0 32 32" fill="none" xmlns="http://www.w3.org/2000/svg">
<circle cx="15.1114" cy="4.7694" r="2.88659" fill="url(#paint0_linear_176_759)"/>
<path d="M17.6056 20.4339C16.0979 20.4077 14.5941 20.27 13.1068 20.0217C10.1439 19.5266 7.24323 18.5807 4.6117 17.1228C4.45547 17.0353 4.29923 16.9468 4.14111 16.8565C6.47429 14.6419 8.20605 11.9624 9.66958 9.12001C10.7237 7.06919 11.2696 5.71672 13.5463 4.85366C17.5049 3.35437 22.8526 4.81225 23.9783 9.2659C24.4536 11.1482 24.4715 13.1163 24.2013 15.0315C23.9406 16.8838 23.2545 20.4508 23.2545 20.4508C23.2545 20.4508 18.3444 20.4471 17.6056 20.4339Z" fill="url(#paint1_linear_176_759)"/>
<path d="M27.9237 26.4582C21.6321 31.3025 12.8565 31.2638 6.60791 26.3641L11.1877 24.2172C11.3279 24.151 11.4645 24.0774 11.5971 23.997L11.7025 23.9311C11.7401 23.9076 11.7769 23.8831 11.8136 23.8577C12.3915 23.4588 12.865 22.9269 13.1943 22.3067C13.5707 21.5961 13.695 20.8111 13.7006 20.0111C13.7006 19.5716 13.6827 19.1321 13.6714 18.6935C13.6714 18.5943 13.6696 18.4955 13.6658 18.397C13.662 18.0983 13.6589 17.8 13.6564 17.502H13.663L13.8427 17.5961L14.3321 17.8492L17.183 18.334L20.1119 18.8328L20.1787 21.0916L20.1976 21.7391V21.8398L20.2418 23.3335L21.3213 23.773L22.1684 24.1156L27.9237 26.4582Z" fill="#F2A196"/>
<path d="M20.1787 21.0936C19.9759 21.2325 19.7335 21.3021 19.4879 21.2921C18.0959 21.1425 15.3806 20.0517 13.6714 18.0328C13.6714 17.9337 13.6695 17.8349 13.6658 17.7364V17.5039L13.8455 17.598L14.3349 17.8512L17.1858 18.3359L20.1147 18.8347L20.1787 21.0936Z" fill="#E88870"/>
<circle cx="11.3026" cy="14.4877" r="1.6" fill="#F2A196"/>
<ellipse cx="11.8673" cy="14.3002" rx="1.6" ry="1.6" fill="#E88870"/>
<path d="M22.1768 12.0654C23.2827 15.8941 20.9345 20.5237 19.4907 20.5237C17.5143 20.5237 12.7143 18.9444 11.6103 15.1157C10.5063 11.287 11.9707 7.49972 14.8884 6.65737C17.806 5.81502 21.0719 8.23949 22.1768 12.0654Z" fill="#F2A196"/>
<path d="M16.2326 12.8604C16.8067 12.8651 16.8067 13.7422 16.2326 13.7469H16.2062C15.6321 13.7422 15.6321 12.8651 16.2062 12.8604H16.2316H16.2326Z" fill="#00214E"/>
<path d="M20.9629 12.499C21.4965 12.5037 21.4965 13.3178 20.9629 13.3226H20.9393C20.4066 13.3226 20.4066 12.5037 20.9393 12.499H20.9629Z" fill="#00214E"/>
<circle cx="16.2316" cy="13.3117" r="1.78824" stroke="white" stroke-width="0.5"/>
<ellipse cx="21.2321" cy="13.0294" rx="1.78824" ry="1.78824" stroke="white" stroke-width="0.5"/>
<path d="M18.5346 6.97426C18.129 8.73426 17.2452 10.2289 15.6301 11.3178C13.8871 12.5244 12.0471 13.106 10.0396 13.506C10.0904 12.2721 9.95484 10.5366 10.5911 9.43638C11.3132 8.21475 12.3679 7.22372 13.632 6.57897C15.0259 5.85897 17.1821 5.15309 18.7483 5.65191C18.7047 6.09672 18.6334 6.53837 18.5346 6.97426Z" fill="url(#paint2_linear_176_759)"/>
<path d="M18.6984 12.2441C18.6909 12.2761 19.4438 15.2879 19.4438 15.2879H18.2673" stroke="#00214E" stroke-width="0.5" stroke-linecap="round"/>
<path d="M19.7769 11.2833C20.4415 10.9436 21.2109 10.8709 21.9274 11.08" stroke="#00214E" stroke-width="0.5" stroke-linecap="round"/>
<path d="M14.5901 11.6277C15.5071 11.1607 16.5844 11.1262 17.5294 11.5336" stroke="#00214E" stroke-width="0.5" stroke-linecap="round"/>
<path d="M18.0198 13.3118L19.4438 13.1904" stroke="white"/>
<path d="M27.9229 26.4578C21.6314 31.3021 12.8557 31.2634 6.60718 26.3637L11.1869 24.2168C11.405 24.1143 11.6144 23.9941 11.8128 23.8573C11.8731 23.8159 11.9333 23.7726 11.9907 23.7274C12.4896 23.3459 12.9002 22.8611 13.1945 22.3063C13.4163 21.8808 13.5637 21.4205 13.6302 20.9453C13.6967 21.0097 13.7664 21.0707 13.8392 21.1279C14.4163 21.5546 15.0426 21.9104 15.7046 22.1877C16.026 22.3217 16.3547 22.4377 16.6891 22.535C17.6965 22.8287 18.7483 22.94 19.7949 22.8634C19.9399 22.8521 20.0858 22.838 20.2307 22.8277L20.2448 23.3058V23.3368L21.3836 23.7999L27.9229 26.4578Z" fill="#845161"/>
<path d="M16.2522 16.3511C16.2784 16.3099 16.3205 16.2814 16.3685 16.2725C16.4165 16.2636 16.4661 16.275 16.5053 16.304C16.7002 16.4414 17.0578 16.7332 17.566 16.8339C18.2587 16.9723 18.8602 16.6946 19.0032 16.8734C19.0842 16.9742 18.9853 17.0974 18.7962 17.2546C18.396 17.5538 17.8922 17.679 17.3985 17.6019C16.7312 17.4767 16.2315 16.705 16.2315 16.4311C16.2311 16.4031 16.2383 16.3755 16.2522 16.3511Z" fill="white"/>
<defs>
<linearGradient id="paint0_linear_176_759" x1="12.2249" y1="7.65646" x2="17.999" y2="7.65646" gradientUnits="userSpaceOnUse">
<stop stop-color="#16243F"/>
<stop offset="1" stop-color="#6878B1"/>
</linearGradient>
<linearGradient id="paint1_linear_176_759" x1="16.5933" y1="26.3599" x2="25.194" y2="12.5762" gradientUnits="userSpaceOnUse">
<stop stop-color="#16243F"/>
<stop offset="1" stop-color="#6878B1"/>
</linearGradient>
<linearGradient id="paint2_linear_176_759" x1="13.0055" y1="16.2377" x2="17.2659" y2="10.4065" gradientUnits="userSpaceOnUse">
<stop stop-color="#16243F"/>
<stop offset="1" stop-color="#6878B1"/>
</linearGradient>
</defs>
</svg>
