<svg width="12" height="12" viewBox="0 0 12 12" fill="none" xmlns="http://www.w3.org/2000/svg">
<path d="M6.61285 8.0188C6.24579 8.01245 5.87838 7.9948 5.49685 7.97151C5.02144 7.94221 4.44367 8.05974 3.98979 7.87762C3.54932 7.70115 3.26873 7.42127 2.97932 7.06586C2.82861 6.88198 2.59603 6.78845 2.3705 6.71292C2.14497 6.63739 1.90956 6.56786 1.72814 6.41398C1.54673 6.2601 1.43626 5.99292 1.54003 5.77868C1.7952 5.25245 2.62532 5.42821 2.62708 4.6341C2.62708 4.3641 2.50673 4.06163 2.66697 3.84421C2.72131 3.77842 2.78766 3.72357 2.8625 3.68257C3.22603 3.45845 3.69473 3.48033 4.05544 3.25904C4.46273 3.00704 4.37803 2.53021 4.74085 2.19774C4.86203 2.09215 4.99297 1.99832 5.13191 1.91751C6.08203 1.32951 7.06426 1.38457 8.03767 1.94468C8.55826 2.24504 9.01038 2.78363 9.2232 3.34268C9.45932 3.96527 8.99344 4.65739 9.38555 5.1988C9.4745 5.32162 9.59238 5.42115 9.68873 5.53833C10.0925 6.02892 9.47097 6.33104 9.21614 6.66421C9.01179 6.9321 9.0432 7.32386 8.84697 7.59774C8.61932 7.91539 8.17638 7.96868 7.78497 7.99304C7.38297 8.01951 6.99791 8.02551 6.61285 8.0188Z" fill="#845161"/>
<path d="M10.6404 9.84456C8.28104 11.6612 4.99018 11.6467 2.64697 9.80927L4.36438 9.00421C4.41695 8.97935 4.4682 8.95179 4.51791 8.92162L4.55744 8.89692C4.57156 8.88809 4.58533 8.87892 4.59909 8.86939C4.81576 8.71991 4.99334 8.52055 5.11686 8.28809C5.25803 8.02162 5.30462 7.72727 5.30674 7.42727C5.30674 7.26245 5.30003 7.09762 5.2958 6.93315C5.2958 6.89598 5.29509 6.85892 5.29368 6.82198C5.29227 6.71021 5.29109 6.59833 5.29015 6.48633L5.36074 6.52162L5.54427 6.61656L6.61333 6.79833L7.71168 6.98539L7.7438 8.07598V8.11374L7.76039 8.67386L8.16521 8.83868L8.48286 8.96715L10.6404 9.84456Z" fill="#F2A196"/>
<path d="M7.74249 7.82863C7.64649 7.88793 7.55579 7.91581 7.47637 7.90734C6.95437 7.85122 5.93614 7.44216 5.2952 6.6851C5.2952 6.64793 5.29449 6.61087 5.29308 6.57393C5.29167 6.46216 5.29049 6.35028 5.28955 6.23828L5.36014 6.27358L5.54367 6.36852L6.61273 6.55028L7.71108 6.73734L7.74249 7.82863Z" fill="#E88870"/>
<circle cx="4.40713" cy="5.35586" r="0.6" fill="#F2A196"/>
<circle cx="4.61953" cy="5.28457" r="0.6" fill="#E88870"/>
<path d="M8.48528 4.44717C8.89963 5.88329 8.01904 7.61905 7.47798 7.61905C6.73681 7.61905 4.93681 7.02682 4.52281 5.59105C4.10881 4.15529 4.65904 2.73505 5.75316 2.41917C6.84728 2.10329 8.07057 3.01141 8.48528 4.44717Z" fill="#F2A196"/>
<path d="M6.25631 4.74512C6.47161 4.74512 6.47161 5.07618 6.25631 5.07759H6.24643C6.03114 5.07759 6.03114 4.74688 6.24643 4.74512H6.25631Z" fill="#00214E"/>
<path d="M8.03034 4.60938C8.2301 4.60938 8.2301 4.91643 8.03034 4.9182H8.02116C7.8214 4.91643 7.8214 4.61114 8.02116 4.60938H8.03034Z" fill="#00214E"/>
<ellipse cx="6.25531" cy="4.91473" rx="0.670588" ry="0.670588" stroke="white" stroke-width="0.2"/>
<circle cx="8.13104" cy="4.80828" r="0.670588" stroke="white" stroke-width="0.2"/>
<path d="M7.11913 2.53804C6.96737 3.19839 6.63596 3.75887 6.02996 4.16687C5.37666 4.61934 4.68631 4.83745 3.93384 4.98781C3.9529 4.5251 3.90207 3.87428 4.14066 3.46134C4.41145 3.00322 4.80695 2.63159 5.28101 2.38981C5.80337 2.11981 6.61196 1.8551 7.19925 2.04251C7.18307 2.20922 7.15631 2.37473 7.11913 2.53804Z" fill="#845161"/>
<path d="M7.18118 4.51367C7.17835 4.52567 7.46071 5.65508 7.46071 5.65508H7.01953" stroke="#00214E" stroke-width="0.2" stroke-linecap="round"/>
<path d="M7.58569 4.15407C7.83525 4.02609 8.12435 3.99856 8.39358 4.07713" stroke="#00214E" stroke-width="0.2" stroke-linecap="round"/>
<path d="M5.64038 4.28397C5.98409 4.10869 6.38804 4.09575 6.74226 4.24867" stroke="#00214E" stroke-width="0.2" stroke-linecap="round"/>
<path d="M6.92578 4.91467L7.46013 4.86914" stroke="white" stroke-width="0.2" stroke-linecap="round"/>
<path d="M10.6404 9.8439C8.28104 11.6605 4.99018 11.646 2.64697 9.8086L4.36438 9.00354C4.44617 8.96509 4.52467 8.92 4.59909 8.86872C4.62168 8.85319 4.64427 8.83696 4.6658 8.82001C4.85271 8.677 5.00656 8.49533 5.11686 8.28743C5.20024 8.12768 5.25563 7.95482 5.28062 7.77637C5.30555 7.80052 5.3317 7.82337 5.35897 7.84484C5.57538 8.00486 5.81024 8.13829 6.0585 8.24225C6.17903 8.29253 6.30228 8.33601 6.42768 8.37248C6.80547 8.48265 7.19991 8.52436 7.59238 8.49566C7.64674 8.49143 7.70144 8.48613 7.7558 8.48225L7.76109 8.66154V8.67178L8.18815 8.84543L10.6404 9.8439Z" fill="url(#paint0_linear_176_939)"/>
<path d="M6.26373 6.054C6.27349 6.03857 6.28923 6.0279 6.30718 6.02455C6.32513 6.0212 6.34366 6.02548 6.35832 6.03635C6.43173 6.08788 6.56585 6.1973 6.75644 6.23541C7.0162 6.28694 7.24138 6.18318 7.29538 6.24988C7.32573 6.28765 7.28867 6.33388 7.21773 6.39106C7.06764 6.50345 6.8785 6.55042 6.69326 6.5213C6.44338 6.47435 6.25562 6.18494 6.25562 6.08259C6.25591 6.07253 6.2587 6.06271 6.26373 6.054Z" fill="white"/>
<defs>
<linearGradient id="paint0_linear_176_939" x1="2.64697" y1="11.1965" x2="10.6404" y2="11.1965" gradientUnits="userSpaceOnUse">
<stop stop-color="#16243F"/>
<stop offset="1" stop-color="#6878B1"/>
</linearGradient>
</defs>
</svg>
