<svg width="16" height="16" viewBox="0 0 16 16" fill="none" xmlns="http://www.w3.org/2000/svg">
<path d="M8.81689 10.6917C8.32748 10.6833 7.83759 10.6597 7.32889 10.6287C6.69501 10.5896 5.92465 10.7463 5.31948 10.5035C4.73218 10.2682 4.35806 9.89503 3.97218 9.42115C3.77124 9.17597 3.46112 9.05126 3.16042 8.95056C2.85971 8.84985 2.54583 8.75715 2.30395 8.55197C2.06206 8.34679 1.91477 7.99056 2.05312 7.70491C2.39336 7.00326 3.50018 7.23762 3.50254 6.17879C3.50254 5.81879 3.34206 5.4155 3.55571 5.12562C3.62817 5.0379 3.71664 4.96476 3.81642 4.91009C4.30112 4.61126 4.92606 4.64044 5.40701 4.34538C5.95007 4.00938 5.83712 3.37362 6.32089 2.93032C6.48246 2.78954 6.65705 2.66442 6.8423 2.55668C8.10912 1.77268 9.41877 1.84609 10.7167 2.59291C11.4108 2.99338 12.0136 3.7115 12.2974 4.45691C12.6122 5.28703 11.991 6.20985 12.5138 6.93174C12.6324 7.0955 12.7896 7.22821 12.9181 7.38444C13.4564 8.03856 12.6277 8.44138 12.2879 8.88562C12.0155 9.24279 12.0574 9.76515 11.7957 10.1303C11.4922 10.5539 10.9016 10.6249 10.3797 10.6574C9.84371 10.6927 9.3303 10.7007 8.81689 10.6917Z" fill="#845161"/>
<path d="M14.1867 13.1251C11.0409 15.5473 6.65309 15.5279 3.52881 13.078L5.81869 12.0046C5.88878 11.9715 5.95711 11.9347 6.0234 11.8945L6.0761 11.8616C6.09493 11.8498 6.11328 11.8376 6.13163 11.8249C6.42053 11.6256 6.65729 11.3598 6.82199 11.0498C7.01022 10.6945 7.07234 10.302 7.07516 9.90205C7.07516 9.68228 7.06622 9.46252 7.06057 9.24323C7.06057 9.19366 7.05963 9.14425 7.05775 9.09499C7.05587 8.94597 7.0543 8.79679 7.05304 8.64746L7.14716 8.69452L7.39187 8.82111L8.81728 9.06346L10.2817 9.31287L10.3246 10.767V10.8173L10.3467 11.5642L10.8865 11.7839L11.31 11.9552L14.1867 13.1251Z" fill="#F2A196"/>
<path d="M10.3236 10.4379C10.1956 10.5169 10.0746 10.5541 9.96874 10.5428C9.27274 10.468 7.9151 9.92256 7.06051 8.91315C7.06051 8.86358 7.05957 8.81417 7.05768 8.76491C7.0558 8.61589 7.05423 8.46672 7.05298 8.31738L7.1471 8.36444L7.3918 8.49103L8.81721 8.73338L10.2817 8.98279L10.3236 10.4379Z" fill="#E88870"/>
<circle cx="5.87666" cy="7.14082" r="0.8" fill="#F2A196"/>
<circle cx="6.15889" cy="7.04609" r="0.8" fill="#E88870"/>
<path d="M11.3137 5.92924C11.8662 7.84406 10.6921 10.1584 9.97064 10.1584C8.98241 10.1584 6.58241 9.36877 6.03041 7.45441C5.47841 5.54006 6.21206 3.64641 7.67088 3.22524C9.1297 2.80406 10.7608 4.01488 11.3137 5.92924Z" fill="#F2A196"/>
<path d="M8.34151 6.32715C8.62857 6.32715 8.62857 6.76856 8.34151 6.77044H8.32833C8.04127 6.77044 8.04127 6.3295 8.32833 6.32715H8.34151Z" fill="#00214E"/>
<path d="M10.7066 6.14648C10.973 6.14648 10.973 6.5559 10.7066 6.55825H10.6944C10.428 6.5559 10.428 6.14884 10.6944 6.14648H10.7066Z" fill="#00214E"/>
<ellipse cx="8.34065" cy="6.55232" rx="0.894118" ry="0.894118" stroke="white" stroke-width="0.3"/>
<circle cx="10.8414" cy="6.4117" r="0.894118" stroke="white" stroke-width="0.3"/>
<path d="M9.49218 3.38438C9.28982 4.26485 8.84794 5.01215 8.03994 5.55615C7.16888 6.15944 6.24841 6.45026 5.24512 6.65073C5.27053 6.03379 5.20276 5.16603 5.52088 4.61544C5.88193 4.00462 6.40927 3.50911 7.04135 3.18673C7.73782 2.82673 8.81594 2.47379 9.599 2.72367C9.57743 2.94595 9.54175 3.16663 9.49218 3.38438Z" fill="#845161"/>
<path d="M9.57442 6.01855C9.57065 6.03455 9.94712 7.54044 9.94712 7.54044H9.35889" stroke="#00214E" stroke-width="0.3" stroke-linecap="round"/>
<path d="M10.1138 5.53909C10.4465 5.36845 10.832 5.33174 11.1909 5.4365" stroke="#00214E" stroke-width="0.3" stroke-linecap="round"/>
<path d="M7.52051 5.71196C7.97878 5.47825 8.51739 5.461 8.98968 5.6649" stroke="#00214E" stroke-width="0.3" stroke-linecap="round"/>
<path d="M9.23462 6.55192L9.94709 6.49121" stroke="white" stroke-width="0.3" stroke-linecap="round"/>
<path d="M14.1867 13.1258C11.0409 15.548 6.65309 15.5287 3.52881 13.0788L5.81869 12.0054C5.92774 11.9541 6.03241 11.894 6.13163 11.8256C6.16175 11.8049 6.19187 11.7833 6.22057 11.7607C6.46979 11.57 6.67493 11.3278 6.82199 11.0506C6.93316 10.8376 7.00701 10.6071 7.04034 10.3691C7.07357 10.4013 7.10844 10.4318 7.14481 10.4604C7.43335 10.6738 7.7465 10.8517 8.07751 10.9903C8.23822 11.0574 8.40256 11.1153 8.56975 11.164C9.07347 11.3108 9.59939 11.3665 10.1227 11.3282C10.1952 11.3226 10.2681 11.3155 10.3406 11.3103L10.3476 11.5494V11.563L10.917 11.7946L14.1867 13.1258Z" fill="url(#paint0_linear_176_919)"/>
<path d="M8.3514 8.072C8.36441 8.05143 8.3854 8.0372 8.40933 8.03274C8.43326 8.02827 8.45796 8.03397 8.47752 8.04847C8.5754 8.11718 8.75422 8.26306 9.00834 8.31388C9.35469 8.38259 9.65493 8.24424 9.72693 8.33318C9.7674 8.38353 9.71799 8.44518 9.6234 8.52141C9.42327 8.67127 9.17108 8.73389 8.92411 8.69506C8.59093 8.63247 8.34058 8.24659 8.34058 8.11012C8.34097 8.09671 8.34469 8.08361 8.3514 8.072Z" fill="white"/>
<defs>
<linearGradient id="paint0_linear_176_919" x1="3.52881" y1="14.9293" x2="14.1867" y2="14.9293" gradientUnits="userSpaceOnUse">
<stop stop-color="#16243F"/>
<stop offset="1" stop-color="#6878B1"/>
</linearGradient>
</defs>
</svg>
