<svg width="20" height="20" viewBox="0 0 20 20" fill="none" xmlns="http://www.w3.org/2000/svg">
<path d="M10.5212 12.8647C9.90941 12.8541 9.29705 12.8247 8.66117 12.7858C7.86882 12.737 6.90588 12.9329 6.14941 12.6294C5.41529 12.3353 4.94764 11.8688 4.46529 11.2764C4.21411 10.97 3.82647 10.8141 3.45058 10.6882C3.0747 10.5623 2.68235 10.4464 2.38 10.19C2.07764 9.93349 1.89352 9.4882 2.06647 9.13114C2.49176 8.25408 3.87529 8.54702 3.87823 7.22349C3.87823 6.77349 3.67764 6.26938 3.9447 5.90702C4.03527 5.79737 4.14586 5.70595 4.27058 5.63761C4.87647 5.26408 5.65764 5.30055 6.25882 4.93173C6.93764 4.51173 6.79647 3.71702 7.40117 3.1629C7.60314 2.98692 7.82137 2.83053 8.05294 2.69585C9.63647 1.71585 11.2735 1.80761 12.8959 2.74114C13.7635 3.24173 14.5171 4.13937 14.8718 5.07114C15.2653 6.10879 14.4888 7.26232 15.1423 8.16467C15.2906 8.36938 15.4871 8.53526 15.6476 8.73055C16.3206 9.5482 15.2847 10.0517 14.86 10.607C14.5194 11.0535 14.5718 11.7064 14.2447 12.1629C13.8653 12.6923 13.1271 12.7811 12.4747 12.8217C11.8047 12.8658 11.1629 12.8758 10.5212 12.8647Z" fill="#845161"/>
<path d="M17.2335 15.9066C13.3012 18.9344 7.81648 18.9101 3.91113 15.8478L6.77349 14.506C6.8611 14.4646 6.94651 14.4187 7.02937 14.3684L7.09525 14.3272C7.11878 14.3125 7.14172 14.2972 7.16466 14.2813C7.52578 14.0322 7.82174 13.6999 8.0276 13.3125C8.2629 12.8684 8.34054 12.3778 8.34407 11.8778C8.34407 11.6031 8.3329 11.3284 8.32584 11.0543C8.32584 10.9923 8.32466 10.9306 8.32231 10.869C8.31996 10.6827 8.318 10.4962 8.31643 10.3096L8.43407 10.3684L8.73996 10.5266L10.5217 10.8296L12.3523 11.1413L12.4058 12.959V13.0219L12.4335 13.9555L13.1082 14.2302L13.6376 14.4443L17.2335 15.9066Z" fill="#F2A196"/>
<path d="M12.4046 12.5471C12.2446 12.6459 12.0935 12.6924 11.9611 12.6782C11.0911 12.5847 9.39405 11.903 8.32582 10.6412C8.32582 10.5792 8.32464 10.5175 8.32229 10.4559C8.31994 10.2696 8.31797 10.0832 8.31641 9.89648L8.43405 9.95531L8.73994 10.1135L10.5217 10.4165L12.3523 10.7282L12.4046 12.5471Z" fill="#E88870"/>
<circle cx="6.8457" cy="8.42578" r="1" fill="#F2A196"/>
<circle cx="7.19873" cy="8.30859" r="1" fill="#E88870"/>
<path d="M13.6421 6.9113C14.3327 9.30483 12.8651 12.1978 11.9633 12.1978C10.728 12.1978 7.72801 11.2107 7.03801 8.81777C6.34801 6.42483 7.26507 4.05777 9.0886 3.5313C10.9121 3.00483 12.951 4.51836 13.6421 6.9113Z" fill="#F2A196"/>
<path d="M9.92695 7.40918C10.2858 7.40918 10.2858 7.96094 9.92695 7.9633H9.91048C9.55165 7.9633 9.55165 7.41212 9.91048 7.40918H9.92695Z" fill="#00214E"/>
<path d="M12.8834 7.18262C13.2163 7.18262 13.2163 7.69438 12.8834 7.69732H12.8681C12.5352 7.69438 12.5352 7.18556 12.8681 7.18262H12.8834Z" fill="#00214E"/>
<ellipse cx="9.92575" cy="7.69089" rx="1.11765" ry="1.11765" stroke="white" stroke-width="0.4"/>
<circle cx="13.0517" cy="7.51413" r="1.11765" stroke="white" stroke-width="0.4"/>
<path d="M11.3652 3.72974C11.1123 4.83033 10.5599 5.76445 9.54993 6.44445C8.4611 7.19857 7.31051 7.5621 6.0564 7.81269C6.08816 7.04151 6.00346 5.9568 6.4011 5.26857C6.85241 4.50505 7.51159 3.88565 8.30169 3.48268C9.17228 3.03268 10.5199 2.59151 11.4987 2.90386C11.4718 3.18171 11.4272 3.45756 11.3652 3.72974Z" fill="#845161"/>
<path d="M11.4681 7.02344C11.4634 7.04344 11.934 8.92579 11.934 8.92579H11.1987" stroke="#00214E" stroke-width="0.4" stroke-linecap="round"/>
<path d="M12.1423 6.42411C12.5583 6.21081 13.0401 6.16492 13.4888 6.29587" stroke="#00214E" stroke-width="0.4" stroke-linecap="round"/>
<path d="M8.90039 6.63995C9.47324 6.34781 10.1465 6.32624 10.7369 6.58112" stroke="#00214E" stroke-width="0.4" stroke-linecap="round"/>
<path d="M11.0435 7.69014L11.934 7.61426" stroke="white" stroke-width="0.4" stroke-linecap="round"/>
<path d="M17.2335 15.9068C13.3012 18.9345 7.81648 18.9103 3.91113 15.848L6.77349 14.5062C6.9098 14.4422 7.04063 14.367 7.16466 14.2815C7.20231 14.2556 7.23996 14.2286 7.27584 14.2003C7.58736 13.962 7.84379 13.6592 8.0276 13.3127C8.16657 13.0465 8.25889 12.7584 8.30055 12.4609C8.34209 12.5012 8.38567 12.5393 8.43113 12.5751C8.79181 12.8418 9.18325 13.0641 9.59702 13.2374C9.7979 13.3212 10.0033 13.3937 10.2123 13.4545C10.842 13.6381 11.4994 13.7076 12.1535 13.6598C12.2441 13.6527 12.3353 13.6439 12.4258 13.6374L12.4347 13.9362V13.9533L13.1464 14.2427L17.2335 15.9068Z" fill="url(#paint0_linear_176_899)"/>
<path d="M9.93931 9.59C9.95557 9.56428 9.98181 9.5465 10.0117 9.54092C10.0416 9.53534 10.0725 9.54247 10.097 9.56059C10.2193 9.64647 10.4428 9.82883 10.7605 9.89235C11.1934 9.97824 11.5687 9.8053 11.6587 9.91647C11.7093 9.97941 11.6475 10.0565 11.5293 10.1518C11.2792 10.3391 10.9639 10.4174 10.6552 10.3688C10.2387 10.2906 9.92578 9.80824 9.92578 9.63765C9.92627 9.62089 9.93092 9.60452 9.93931 9.59Z" fill="white"/>
<defs>
<linearGradient id="paint0_linear_176_899" x1="3.91113" y1="18.1611" x2="17.2335" y2="18.1611" gradientUnits="userSpaceOnUse">
<stop stop-color="#16243F"/>
<stop offset="1" stop-color="#6878B1"/>
</linearGradient>
</defs>
</svg>
