<svg width="24" height="24" viewBox="0 0 24 24" fill="none" xmlns="http://www.w3.org/2000/svg">
<path d="M13.2252 15.0376C12.4911 15.0249 11.7563 14.9896 10.9932 14.943C10.0424 14.8844 8.88686 15.1195 7.97909 14.7552C7.09815 14.4023 6.53698 13.8425 5.95815 13.1317C5.65674 12.764 5.19156 12.5769 4.7405 12.4258C4.28945 12.2748 3.81862 12.1357 3.4558 11.828C3.09298 11.5202 2.87203 10.9858 3.07956 10.5574C3.58992 9.5049 5.25015 9.85643 5.25368 8.26819C5.25368 7.72819 5.01298 7.12325 5.33345 6.68843C5.44213 6.55685 5.57484 6.44713 5.7245 6.36513C6.45156 5.9169 7.38898 5.96066 8.11039 5.51807C8.92498 5.01407 8.75556 4.06043 9.48121 3.39549C9.72357 3.1843 9.98545 2.99664 10.2633 2.83501C12.1636 1.65901 14.128 1.76913 16.0749 2.88937C17.116 3.49007 18.0203 4.56725 18.4459 5.68537C18.9182 6.93054 17.9864 8.31478 18.7706 9.3976C18.9485 9.64325 19.1843 9.84231 19.377 10.0767C20.1845 11.0578 18.9414 11.6621 18.4318 12.3284C18.0231 12.8642 18.0859 13.6477 17.6934 14.1955C17.2382 14.8308 16.3523 14.9374 15.5694 14.9861C14.7654 15.039 13.9953 15.051 13.2252 15.0376Z" fill="#845161"/>
<path d="M21.28 18.6882C16.5613 22.3214 9.97963 22.2924 5.29321 18.6176L8.72804 17.0074C8.83317 16.9577 8.93566 16.9026 9.0351 16.8423L9.11415 16.7929C9.14239 16.7752 9.16992 16.7569 9.19745 16.7378C9.63079 16.4388 9.98594 16.0401 10.233 15.5752C10.5153 15.0423 10.6085 14.4536 10.6127 13.8536C10.6127 13.5239 10.5993 13.1943 10.5909 12.8653C10.5909 12.791 10.5894 12.7169 10.5866 12.643C10.5838 12.4194 10.5814 12.1957 10.5796 11.9717L10.7207 12.0423L11.0878 12.2322L13.2259 12.5957L15.4226 12.9698L15.4869 15.151V15.2265L15.52 16.3467L16.3297 16.6764L16.965 16.9333L21.28 18.6882Z" fill="#F2A196"/>
<path d="M15.4855 14.6563C15.2935 14.7749 15.1121 14.8306 14.9532 14.8137C13.9092 14.7015 11.8728 13.8834 10.5909 12.3692C10.5909 12.2949 10.5895 12.2208 10.5866 12.1469C10.5838 11.9234 10.5815 11.6996 10.5796 11.4756L10.7208 11.5462L11.0878 11.7361L13.2259 12.0996L15.4226 12.4737L15.4855 14.6563Z" fill="#E88870"/>
<circle cx="8.81499" cy="9.71074" r="1.2" fill="#F2A196"/>
<circle cx="9.23857" cy="9.57012" r="1.2" fill="#E88870"/>
<path d="M16.9708 7.89434C17.7995 10.7666 16.0383 14.2381 14.9562 14.2381C13.4739 14.2381 9.87386 13.0536 9.04586 10.1821C8.21786 7.31058 9.31833 4.47011 11.5066 3.83834C13.6948 3.20658 16.1414 5.02281 16.9708 7.89434Z" fill="#F2A196"/>
<path d="M12.5124 8.49023C12.943 8.49023 12.943 9.15235 12.5124 9.15518H12.4926C12.062 9.15518 12.062 8.49376 12.4926 8.49023H12.5124Z" fill="#00214E"/>
<path d="M16.0602 8.21973C16.4597 8.21973 16.4597 8.83384 16.0602 8.83737H16.0418C15.6423 8.83384 15.6423 8.22326 16.0418 8.21973H16.0602Z" fill="#00214E"/>
<ellipse cx="12.5109" cy="8.82848" rx="1.34118" ry="1.34118" stroke="white" stroke-width="0.5"/>
<circle cx="16.2621" cy="8.61657" r="1.34118" stroke="white" stroke-width="0.5"/>
<path d="M14.2383 4.07608C13.9347 5.39679 13.2719 6.51773 12.0599 7.33373C10.7533 8.23867 9.37262 8.67491 7.86768 8.97561C7.90579 8.0502 7.80415 6.74855 8.28132 5.92267C8.82289 5.00645 9.61391 4.26317 10.562 3.77961C11.6067 3.23961 13.2239 2.7102 14.3985 3.08502C14.3661 3.41844 14.3126 3.74946 14.2383 4.07608Z" fill="#845161"/>
<path d="M14.3619 8.02832C14.3562 8.05232 14.9209 10.3111 14.9209 10.3111H14.0386" stroke="#00214E" stroke-width="0.5" stroke-linecap="round"/>
<path d="M15.1707 7.30913C15.6698 7.05316 16.248 6.9981 16.7864 7.15524" stroke="#00214E" stroke-width="0.5" stroke-linecap="round"/>
<path d="M11.2805 7.56794C11.9679 7.21737 12.7758 7.19149 13.4843 7.49735" stroke="#00214E" stroke-width="0.5" stroke-linecap="round"/>
<path d="M13.8521 8.82836L14.9208 8.7373" stroke="white" stroke-width="0.5" stroke-linecap="round"/>
<path d="M21.28 18.6888C16.5613 22.322 9.97963 22.293 5.29321 18.6182L8.72804 17.0081C8.89162 16.9312 9.04861 16.841 9.19745 16.7384C9.24262 16.7074 9.2878 16.6749 9.33086 16.641C9.70469 16.355 10.0124 15.9916 10.233 15.5758C10.3997 15.2563 10.5105 14.9106 10.5605 14.5537C10.6104 14.602 10.6627 14.6477 10.7172 14.6907C11.15 15.0107 11.6198 15.2776 12.1163 15.4855C12.3573 15.586 12.6038 15.673 12.8546 15.7459C13.6102 15.9663 14.3991 16.0497 15.184 15.9923C15.2927 15.9838 15.4022 15.9732 15.5109 15.9655L15.5214 16.3241V16.3445L16.3756 16.6918L21.28 18.6888Z" fill="url(#paint0_linear_176_879)"/>
<path d="M12.5272 11.108C12.5467 11.0771 12.5782 11.0558 12.6141 11.0491C12.65 11.0424 12.6871 11.051 12.7164 11.0727C12.8632 11.1758 13.1315 11.3946 13.5126 11.4708C14.0322 11.5739 14.4825 11.3664 14.5905 11.4998C14.6512 11.5753 14.5771 11.6678 14.4352 11.7821C14.135 12.0069 13.7567 12.1008 13.3863 12.0426C12.8865 11.9487 12.511 11.3699 12.511 11.1652C12.5116 11.1451 12.5172 11.1254 12.5272 11.108Z" fill="white"/>
<defs>
<linearGradient id="paint0_linear_176_879" x1="5.29321" y1="21.3939" x2="21.28" y2="21.3939" gradientUnits="userSpaceOnUse">
<stop stop-color="#16243F"/>
<stop offset="1" stop-color="#6878B1"/>
</linearGradient>
</defs>
</svg>
