<svg width="32" height="32" viewBox="0 0 32 32" fill="none" xmlns="http://www.w3.org/2000/svg">
<path d="M17.6348 20.3835C16.6559 20.3665 15.6762 20.3195 14.6588 20.2574C13.391 20.1792 11.8503 20.4926 10.6399 20.007C9.46534 19.5364 8.71711 18.7901 7.94534 17.8423C7.54346 17.3519 6.92322 17.1025 6.32181 16.9011C5.7204 16.6997 5.09264 16.5143 4.60887 16.1039C4.12511 15.6936 3.83052 14.9811 4.10722 14.4098C4.78769 13.0065 7.00134 13.4752 7.00605 11.3576C7.00605 10.6376 6.68511 9.831 7.1124 9.25124C7.25731 9.0758 7.43426 8.92951 7.63381 8.82018C8.60322 8.22253 9.85311 8.28088 10.815 7.69076C11.9011 7.01876 11.6752 5.74724 12.6428 4.86065C12.9659 4.57907 13.3151 4.32885 13.6856 4.11335C16.2192 2.54535 18.8385 2.69218 21.4343 4.18582C22.8225 4.98676 24.0282 6.423 24.5957 7.91382C25.2253 9.57406 23.983 11.4197 25.0286 12.8635C25.2658 13.191 25.5802 13.4564 25.8371 13.7689C26.9138 15.0771 25.2564 15.8828 24.5769 16.7712C24.0319 17.4856 24.1157 18.5303 23.5924 19.2606C22.9853 20.1077 21.8042 20.2498 20.7604 20.3148C19.6884 20.3854 18.6616 20.4014 17.6348 20.3835Z" fill="#845161"/>
<path d="M28.3744 25.2512C22.0828 30.0956 13.3072 30.0568 7.05859 25.1571L11.6384 23.0103C11.7785 22.944 11.9152 22.8705 12.0478 22.79L12.1532 22.7241C12.1908 22.7006 12.2275 22.6761 12.2642 22.6507C12.842 22.2521 13.3156 21.7205 13.6449 21.1006C14.0214 20.39 14.1457 19.6051 14.1513 18.8051C14.1513 18.3655 14.1334 17.926 14.1221 17.4874C14.1221 17.3883 14.1202 17.2895 14.1165 17.191C14.1127 16.8929 14.1096 16.5946 14.1071 16.2959L14.2953 16.39L14.7847 16.6432L17.6355 17.1279L20.5645 17.6267L20.6501 20.535V20.6357L20.6944 22.1293L21.7739 22.5688L22.6209 22.9114L28.3744 25.2512Z" fill="#F2A196"/>
<path d="M20.6484 19.8747C20.3924 20.0328 20.1505 20.1072 19.9387 20.0846C18.5467 19.935 15.8314 18.8441 14.1222 16.8253C14.1222 16.7262 14.1204 16.6274 14.1166 16.5288C14.1128 16.2308 14.1097 15.9325 14.1072 15.6338L14.2954 15.7279L14.7848 15.9811L17.6356 16.4658L20.5646 16.9646L20.6484 19.8747Z" fill="#E88870"/>
<circle cx="11.7543" cy="13.2816" r="1.6" fill="#F2A196"/>
<circle cx="12.319" cy="13.0932" r="1.6" fill="#E88870"/>
<path d="M22.6286 10.8585C23.7336 14.6881 21.3853 19.3168 19.9425 19.3168C17.966 19.3168 13.166 17.7375 12.062 13.9088C10.958 10.0801 12.4253 6.29282 15.343 5.45047C18.2606 4.60812 21.5227 7.02977 22.6286 10.8585Z" fill="#F2A196"/>
<path d="M16.684 11.6543C17.2581 11.6543 17.2581 12.5371 16.684 12.5409H16.6576C16.0835 12.5409 16.0835 11.659 16.6576 11.6543H16.684Z" fill="#00214E"/>
<path d="M21.4145 11.293C21.9472 11.293 21.9472 12.1118 21.4145 12.1165H21.39C20.8573 12.1118 20.8573 11.2977 21.39 11.293H21.4145Z" fill="#00214E"/>
<ellipse cx="16.6823" cy="12.1046" rx="1.78824" ry="1.78824" stroke="white" stroke-width="0.5"/>
<circle cx="21.6837" cy="11.8224" r="1.78824" stroke="white" stroke-width="0.5"/>
<path d="M18.9853 5.76779C18.5806 7.52873 17.6969 9.02331 16.0809 10.1113C14.3387 11.3179 12.4978 11.8995 10.4912 12.3005C10.542 11.0666 10.4065 9.33108 11.0427 8.2299C11.7648 7.00827 12.8195 6.01724 14.0837 5.37249C15.4766 4.65249 17.6329 3.94661 19.199 4.44637C19.1558 4.89093 19.0845 5.33229 18.9853 5.76779Z" fill="#845161"/>
<path d="M19.1501 11.0371C19.1425 11.0691 19.8955 14.0809 19.8955 14.0809H18.719" stroke="#00214E" stroke-width="0.5" stroke-linecap="round"/>
<path d="M20.2285 10.0782C20.894 9.7369 21.6649 9.66348 22.3829 9.87301" stroke="#00214E" stroke-width="0.5" stroke-linecap="round"/>
<path d="M15.0417 10.4239C15.9583 9.95649 17.0355 9.92199 17.9801 10.3298" stroke="#00214E" stroke-width="0.5" stroke-linecap="round"/>
<path d="M18.4705 12.1048L19.8954 11.9834" stroke="white" stroke-width="0.5" stroke-linecap="round"/>
<path d="M28.3744 25.2507C22.0828 30.0951 13.3072 30.0563 7.05859 25.1566L11.6384 23.0098C11.8565 22.9072 12.0658 22.787 12.2642 22.6502C12.3245 22.6088 12.3847 22.5655 12.4421 22.5204C12.9406 22.139 13.3508 21.6546 13.6449 21.1001C13.8673 20.6741 14.015 20.2132 14.0817 19.7373C14.1481 19.8017 14.2179 19.8627 14.2906 19.9199C14.8677 20.3466 15.494 20.7024 16.156 20.9797C16.4774 21.1137 16.8061 21.2297 17.1405 21.327C18.1479 21.6207 19.1998 21.732 20.2464 21.6554C20.3913 21.6441 20.5372 21.63 20.6821 21.6197L20.6962 22.0978V22.1251L21.8351 22.5881L28.3744 25.2507Z" fill="url(#paint0_linear_176_859)"/>
<path d="M16.7038 15.144C16.7298 15.1029 16.7718 15.0744 16.8196 15.0655C16.8675 15.0565 16.9169 15.0679 16.956 15.0969C17.1518 15.2344 17.5094 15.5261 18.0177 15.6278C18.7104 15.7652 19.3108 15.4885 19.4548 15.6664C19.5358 15.7671 19.437 15.8904 19.2478 16.0428C18.8475 16.3425 18.3431 16.4678 17.8492 16.3901C17.1828 16.2649 16.6821 15.4932 16.6821 15.2202C16.6829 15.1934 16.6904 15.1672 16.7038 15.144Z" fill="white"/>
<defs>
<linearGradient id="paint0_linear_176_859" x1="7.05859" y1="28.8576" x2="28.3744" y2="28.8576" gradientUnits="userSpaceOnUse">
<stop stop-color="#16243F"/>
<stop offset="1" stop-color="#6878B1"/>
</linearGradient>
</defs>
</svg>
