<svg width="12" height="12" viewBox="0 0 12 12" fill="none" xmlns="http://www.w3.org/2000/svg">
<path d="M6.34069 2.40927C6.29234 2.6168 6.01563 2.71915 5.89881 2.88186C5.77775 3.05091 5.76716 3.34421 5.59316 3.45221C5.41916 3.56021 5.15163 3.44021 4.94657 3.47409C4.74893 3.50691 4.53469 3.70986 4.32751 3.6615C4.12034 3.61315 4.01763 3.33644 3.85457 3.21962C3.68587 3.09856 3.39222 3.08762 3.28422 2.91397C3.17622 2.74033 3.29622 2.47244 3.26234 2.26738C3.22987 2.06938 3.02693 1.8555 3.07528 1.64797C3.12363 1.44044 3.40034 1.33809 3.51716 1.17538C3.63822 1.00633 3.64881 0.713032 3.82281 0.605032C3.99681 0.497032 4.26434 0.617032 4.4694 0.583149C4.66704 0.550326 4.88128 0.347738 5.08881 0.396091C5.29634 0.444443 5.39834 0.720796 5.5614 0.83762C5.7301 0.958679 6.02375 0.96962 6.13175 1.14327C6.23975 1.31691 6.11975 1.58515 6.15363 1.79021C6.18646 1.98786 6.39081 2.20209 6.34069 2.40927Z" fill="#DAAEA8"/>
<path d="M6.96957 7.16684C6.88063 7.27272 6.80368 7.38848 6.71298 7.4926C6.23227 8.04531 5.1851 7.68213 4.66592 7.35142C4.28368 7.10966 3.99533 6.74507 3.74827 6.36531C3.44474 5.89695 3.19098 5.38766 3.08086 4.8406C2.57651 2.33507 5.79074 1.24519 7.59321 2.47519C8.2638 2.93401 8.8698 3.96319 8.72263 4.78801C8.64745 5.2066 8.34992 5.58319 8.38168 6.00707C8.41698 6.46378 8.82957 6.89895 8.65698 7.32319C8.58921 7.48907 8.4431 7.60766 8.32486 7.74213C8.16498 7.92389 8.04815 8.15119 8.03439 8.3926C8.02063 8.63401 8.12086 8.88672 8.31992 9.02507C7.82827 8.95942 7.52545 8.37072 7.65251 7.89142C7.69415 7.73401 7.7711 7.58719 7.80463 7.42766C7.83815 7.26813 7.81839 7.08284 7.69663 6.97484C7.54027 6.83613 7.28545 6.88872 7.12133 7.01789C7.06594 7.0624 7.0151 7.11229 6.96957 7.16684Z" fill="#F2D4CF"/>
<path d="M10.0051 10.2766C7.6457 12.0929 4.35502 12.0784 2.01172 10.2413L3.72913 9.4362C3.78169 9.41147 3.83294 9.38402 3.88266 9.35397C3.89607 9.34585 3.90913 9.33773 3.92219 9.32891C3.93525 9.32009 3.95007 9.31126 3.96384 9.30173C4.18048 9.15222 4.35805 8.95287 4.4816 8.72044C4.62278 8.45432 4.66937 8.15997 4.67148 7.85997C4.67148 7.65773 4.66054 7.4562 4.65842 7.25362C4.65701 7.14185 4.65584 7.02997 4.6549 6.91797L4.6616 6.9215L4.72478 6.95432L4.90831 7.04891L5.97737 7.23067L7.07572 7.41809L7.10113 8.28103L7.1089 8.54609L7.12548 9.1062L7.53031 9.27103L7.84795 9.39985L10.0051 10.2766Z" fill="#845161"/>
<path d="M7.10107 8.28024C7.02574 8.33043 6.93631 8.35517 6.84589 8.35083C6.32389 8.29471 5.30566 7.88565 4.66472 7.12859C4.66472 7.09142 4.66401 7.05436 4.6626 7.01742V6.91895L4.72577 6.95177L4.9093 7.04636L5.97836 7.22812L7.07672 7.41553L7.10107 8.28024Z" fill="#69303A"/>
<path d="M10.0051 10.276C7.64579 12.0926 4.35493 12.0781 2.01172 10.2407L3.72913 9.4356C3.7817 9.41074 3.83294 9.38318 3.88266 9.35301C4.71842 9.96748 5.88172 10.3677 6.88478 9.91772C7.16925 9.78995 7.42584 9.56301 7.53031 9.27148L7.84795 9.39995L10.0051 10.276Z" fill="#00214E"/>
<ellipse cx="3.77261" cy="5.7875" rx="0.6" ry="0.6" fill="#845161"/>
<ellipse cx="3.98428" cy="5.71719" rx="0.6" ry="0.6" fill="#69303A"/>
<path d="M7.85053 4.87881C8.26488 6.31493 7.38429 8.04964 6.84323 8.04964C6.10206 8.04964 4.30206 7.45775 3.88806 6.02164C3.47406 4.58552 4.02606 3.16669 5.12017 2.85081C6.21429 2.53493 7.43582 3.44305 7.85053 4.87881Z" fill="#845161"/>
<path d="M6.62142 3.11615C6.53671 3.28344 6.36024 3.42885 6.25542 3.60003C6.11812 3.82415 6.01436 4.06768 5.89789 4.30309C5.81142 4.47956 5.71471 4.65391 5.56859 4.78344C5.42247 4.91297 5.21565 4.98956 5.02824 4.93556C4.89977 4.8985 4.7953 4.80674 4.68059 4.73862C4.56589 4.6705 4.41836 4.62497 4.30047 4.6885C4.12683 4.78168 4.1293 5.03474 4.00506 5.18756C3.71989 5.53803 3.19718 5.0658 3.13436 4.7598C3.04224 4.31262 3.4093 3.93886 3.67612 3.63038C3.89847 3.37274 4.19953 2.97956 4.54895 2.8938C4.55494 2.8938 6.596 2.08203 6.596 2.08203C6.61436 2.35485 6.72447 2.75827 6.65847 3.01944C6.64981 3.05297 6.63738 3.08542 6.62142 3.11615Z" fill="#F2D4CF"/>
<path d="M6.54592 4.94629C6.5438 4.95476 6.74144 5.50676 6.86109 5.83994C6.88095 5.89659 6.87219 5.95935 6.83758 6.00839C6.80296 6.05744 6.74677 6.08672 6.68674 6.087H6.55827" stroke="#00214E" stroke-width="0.2" stroke-linecap="round"/>
<path d="M6.95044 4.58573C7.19979 4.4587 7.48817 4.43144 7.75691 4.50949" stroke="#F2D4CF" stroke-width="0.2" stroke-linecap="round"/>
<path d="M5.00537 4.71659C5.34908 4.5413 5.75303 4.52836 6.10725 4.68129" stroke="#F2D4CF" stroke-width="0.2" stroke-linecap="round"/>
<path d="M5.64669 5.10742C5.86199 5.10742 5.86199 5.43813 5.64669 5.43989H5.63681C5.42152 5.43813 5.42152 5.10883 5.63681 5.10742H5.64669Z" fill="#00214E"/>
<path d="M7.42047 4.99805C7.62024 4.99981 7.62024 5.30511 7.42047 5.30687H7.4113C7.21153 5.30687 7.21153 4.99981 7.4113 4.99805H7.42047Z" fill="#00214E"/>
<path d="M6.29534 5.88477C6.23765 5.89103 6.1929 5.93802 6.18945 5.99594C6.19033 6.02389 6.20366 6.04997 6.2258 6.06705C6.24794 6.08413 6.27655 6.09042 6.30381 6.08418" stroke="#00214E" stroke-width="0.2" stroke-linecap="round"/>
<path d="M5.67242 6.41826C5.68218 6.40283 5.69792 6.39216 5.71587 6.38881C5.73382 6.38546 5.75235 6.38974 5.76701 6.40061C5.84007 6.45214 5.97454 6.56155 6.16513 6.59932C6.42489 6.6512 6.65007 6.54708 6.70407 6.61414C6.73442 6.65191 6.69737 6.69779 6.62642 6.75708C6.47623 6.86925 6.28718 6.9162 6.10195 6.88732C5.85207 6.84038 5.66431 6.55096 5.66431 6.44826C5.6643 6.43772 5.6671 6.42736 5.67242 6.41826Z" fill="white"/>
</svg>
