<svg width="16" height="16" viewBox="0 0 16 16" fill="none" xmlns="http://www.w3.org/2000/svg">
<path d="M8.45409 3.2117C8.38962 3.48841 8.02068 3.62488 7.86492 3.84182C7.7035 4.06723 7.68939 4.45829 7.45739 4.60229C7.22539 4.74629 6.86868 4.58629 6.59527 4.63147C6.33174 4.67523 6.04609 4.94582 5.76986 4.88135C5.49362 4.81688 5.35668 4.44794 5.13927 4.29218C4.91433 4.13076 4.5228 4.11618 4.3788 3.88465C4.2348 3.65312 4.3948 3.29594 4.34962 3.02253C4.30633 2.75853 4.03574 2.47335 4.10021 2.19665C4.16468 1.91994 4.53362 1.78347 4.68939 1.56653C4.8508 1.34112 4.86492 0.950058 5.09692 0.806058C5.32892 0.662058 5.68562 0.822058 5.95903 0.776881C6.22256 0.733117 6.50821 0.462999 6.78492 0.52747C7.06162 0.59194 7.19762 0.960411 7.41503 1.11618C7.63997 1.27759 8.0315 1.29218 8.1755 1.5237C8.3195 1.75523 8.1595 2.11288 8.20468 2.38629C8.24844 2.64982 8.52092 2.93547 8.45409 3.2117Z" fill="#DAAEA8"/>
<path d="M9.29276 9.55611C9.17417 9.69728 9.07158 9.85163 8.95064 9.99046C8.3097 10.7274 6.91346 10.2432 6.22123 9.80222C5.71158 9.47987 5.32711 8.99375 4.9977 8.4874C4.59299 7.86293 4.25464 7.18387 4.10781 6.45446C3.43534 3.11375 7.72099 1.66058 10.1243 3.30058C11.0184 3.91234 11.8264 5.28458 11.6302 6.38434C11.5299 6.94246 11.1332 7.44458 11.1756 8.00975C11.2226 8.61869 11.7728 9.19893 11.5426 9.76458C11.4523 9.98575 11.2575 10.1439 11.0998 10.3232C10.8866 10.5655 10.7309 10.8686 10.7125 11.1905C10.6942 11.5123 10.8278 11.8493 11.0932 12.0338C10.4377 11.9462 10.0339 11.1613 10.2033 10.5222C10.2589 10.3123 10.3615 10.1166 10.4062 9.90387C10.4509 9.69116 10.4245 9.44411 10.2622 9.30011C10.0537 9.11516 9.71393 9.18528 9.49511 9.35752C9.42125 9.41685 9.35347 9.48337 9.29276 9.55611Z" fill="#F2D4CF"/>
<path d="M13.3403 13.7008C10.1944 16.1226 5.80677 16.1032 2.68237 13.6537L4.97226 12.5803C5.04234 12.5473 5.11067 12.5107 5.17696 12.4707C5.19484 12.4598 5.21226 12.449 5.22967 12.4372C5.24708 12.4255 5.26684 12.4137 5.2852 12.401C5.57406 12.2017 5.81081 11.9359 5.97555 11.626C6.16378 11.2711 6.2259 10.8787 6.22873 10.4787C6.22873 10.209 6.21414 9.9403 6.21131 9.67019C6.20943 9.52117 6.20786 9.37199 6.20661 9.22266L6.21555 9.22736L6.29978 9.27113L6.54449 9.39724L7.9699 9.6396L9.43437 9.88948L9.46826 11.0401L9.47861 11.3935L9.50073 12.1403L10.0405 12.3601L10.464 12.5318L13.3403 13.7008Z" fill="#845161"/>
<path d="M9.46833 11.0387C9.3679 11.1056 9.24866 11.1386 9.1281 11.1328C8.4321 11.058 7.07445 10.5126 6.21986 9.50316C6.21986 9.45359 6.21892 9.40418 6.21704 9.35493V9.22363L6.30128 9.2674L6.54598 9.39352L7.97139 9.63587L9.43586 9.88575L9.46833 11.0387Z" fill="#69303A"/>
<path d="M13.3403 13.7016C10.1945 16.1238 5.80665 16.1044 2.68237 13.6545L4.97226 12.5811C5.04235 12.548 5.11067 12.5112 5.17696 12.471C6.29131 13.2903 7.84237 13.824 9.17979 13.224C9.55908 13.0536 9.9012 12.751 10.0405 12.3623L10.464 12.5336L13.3403 13.7016Z" fill="#00214E"/>
<ellipse cx="5.03022" cy="7.71602" rx="0.8" ry="0.8" fill="#845161"/>
<ellipse cx="5.31245" cy="7.62227" rx="0.8" ry="0.8" fill="#69303A"/>
<path d="M10.4672 6.50443C11.0197 8.41925 9.84556 10.7322 9.12415 10.7322C8.13591 10.7322 5.73591 9.94302 5.18391 8.0282C4.63191 6.11337 5.36791 4.22161 6.82674 3.80043C8.28556 3.37925 9.91426 4.59008 10.4672 6.50443Z" fill="#845161"/>
<path d="M8.82864 4.15421C8.71569 4.37727 8.4804 4.57116 8.34064 4.79939C8.15758 5.09821 8.01922 5.42292 7.86393 5.7368C7.74864 5.9721 7.61969 6.20457 7.42487 6.37727C7.23005 6.54998 6.95428 6.6521 6.7044 6.5801C6.53311 6.53068 6.39381 6.40833 6.24087 6.31751C6.08793 6.22668 5.89122 6.16598 5.73405 6.25068C5.50252 6.37492 5.50581 6.71233 5.34017 6.9161C4.95993 7.38339 4.26299 6.75374 4.17922 6.34574C4.0564 5.74951 4.54581 5.25116 4.90158 4.83986C5.19805 4.49633 5.59946 3.9721 6.06534 3.85774C6.07334 3.85774 8.79475 2.77539 8.79475 2.77539C8.81922 3.13916 8.96605 3.67704 8.87805 4.02527C8.8665 4.06998 8.84992 4.11324 8.82864 4.15421Z" fill="#F2D4CF"/>
<path d="M8.72805 6.59375C8.72523 6.60504 8.98876 7.34104 9.14829 7.78528C9.17476 7.86081 9.16308 7.94449 9.11693 8.00989C9.07078 8.07528 8.99586 8.11433 8.91581 8.11469H8.74452" stroke="#00214E" stroke-width="0.3" stroke-linecap="round"/>
<path d="M9.26733 6.113C9.5998 5.94363 9.98431 5.90729 10.3426 6.01136" stroke="#F2D4CF" stroke-width="0.3" stroke-linecap="round"/>
<path d="M6.67383 6.28715C7.1321 6.05344 7.67071 6.03619 8.143 6.2401" stroke="#F2D4CF" stroke-width="0.3" stroke-linecap="round"/>
<path d="M7.52901 6.80859C7.81607 6.80859 7.81607 7.24954 7.52901 7.25189H7.51583C7.22877 7.24954 7.22877 6.81048 7.51583 6.80859H7.52901Z" fill="#00214E"/>
<path d="M9.89413 6.66309C10.1605 6.66544 10.1605 7.0725 9.89413 7.07485H9.88189C9.61554 7.07485 9.61554 6.66544 9.88189 6.66309H9.89413Z" fill="#00214E"/>
<path d="M8.39386 7.84473C8.31694 7.85308 8.25728 7.91573 8.25269 7.99296C8.25386 8.03022 8.27163 8.065 8.30115 8.08778C8.33066 8.11055 8.36882 8.11893 8.40516 8.11061" stroke="#00214E" stroke-width="0.3" stroke-linecap="round"/>
<path d="M7.56331 8.55638C7.57632 8.5358 7.59731 8.52157 7.62124 8.51711C7.64517 8.51265 7.66988 8.51835 7.68943 8.53285C7.78684 8.60155 7.96614 8.74744 8.22025 8.79779C8.56661 8.86696 8.86684 8.72814 8.93884 8.81755C8.97931 8.86791 8.9299 8.92908 8.83531 9.00814C8.63505 9.1577 8.38298 9.22029 8.13602 9.18179C7.80284 9.1192 7.55249 8.73332 7.55249 8.59638C7.55248 8.58232 7.55621 8.56851 7.56331 8.55638Z" fill="white"/>
</svg>
