<svg width="20" height="20" viewBox="0 0 20 20" fill="none" xmlns="http://www.w3.org/2000/svg">
<path d="M10.5677 4.01414C10.4871 4.36003 10.026 4.53061 9.83127 4.80179C9.6295 5.08355 9.61186 5.57238 9.32185 5.75238C9.03185 5.93238 8.58597 5.73238 8.24421 5.78885C7.9148 5.84355 7.55774 6.18179 7.21244 6.1012C6.86715 6.02061 6.69597 5.55944 6.42421 5.36473C6.14303 5.16297 5.65362 5.14473 5.47362 4.85532C5.29362 4.56591 5.49362 4.11944 5.43715 3.77767C5.38303 3.44767 5.0448 3.0912 5.12538 2.74532C5.20597 2.39944 5.66715 2.22885 5.86185 1.95767C6.06362 1.67591 6.08127 1.18708 6.37127 1.00708C6.66127 0.827084 7.10715 1.02708 7.44891 0.970613C7.77833 0.915908 8.13538 0.578261 8.48127 0.658849C8.82715 0.739437 8.99715 1.20003 9.26891 1.39473C9.55009 1.5965 10.0395 1.61473 10.2195 1.90414C10.3995 2.19355 10.1995 2.64061 10.256 2.98238C10.3107 3.31179 10.6513 3.66885 10.5677 4.01414Z" fill="#DAAEA8"/>
<path d="M11.6159 11.9444C11.4677 12.1209 11.3395 12.3138 11.1883 12.4873C10.3871 13.4085 8.64183 12.8032 7.77653 12.252C7.13947 11.8491 6.65888 11.2415 6.24712 10.6085C5.74124 9.82793 5.3183 8.97911 5.13477 8.06734C4.29418 3.89146 9.65124 2.07499 12.6554 4.12499C13.773 4.88969 14.783 6.60499 14.5377 7.97969C14.4124 8.67734 13.9165 9.30499 13.9695 10.0115C14.0283 10.7726 14.7159 11.4979 14.4283 12.205C14.3154 12.4815 14.0718 12.6791 13.8748 12.9032C13.6083 13.2062 13.4136 13.585 13.3906 13.9873C13.3677 14.3897 13.5348 14.8109 13.8665 15.0415C13.0471 14.932 12.5424 13.9509 12.7542 13.152C12.8236 12.8897 12.9518 12.645 13.0077 12.3791C13.0636 12.1132 13.0307 11.8044 12.8277 11.6244C12.5671 11.3932 12.1424 11.4809 11.8689 11.6962C11.7766 11.7703 11.6918 11.8535 11.6159 11.9444Z" fill="#F2D4CF"/>
<path d="M16.6754 17.126C12.743 20.1533 7.25852 20.1291 3.35303 17.0671L6.21538 15.7254C6.30299 15.6841 6.3884 15.6384 6.47126 15.5883C6.49362 15.5748 6.51538 15.5613 6.53715 15.5466C6.55891 15.5319 6.58362 15.5171 6.60656 15.5013C6.96763 15.2521 7.26358 14.9198 7.4695 14.5324C7.70479 14.0889 7.78244 13.5983 7.78597 13.0983C7.78597 12.7613 7.76773 12.4254 7.7642 12.0877C7.76185 11.9015 7.75989 11.715 7.75832 11.5283L7.7695 11.5342L7.87479 11.5889L8.18067 11.7466L9.96244 12.0495L11.793 12.3618L11.8354 13.8001L11.8483 14.2419L11.876 15.1754L12.5507 15.4501L13.0801 15.6648L16.6754 17.126Z" fill="#845161"/>
<path d="M11.8354 13.7981C11.7098 13.8818 11.5608 13.923 11.4101 13.9158C10.5401 13.8222 8.843 13.1405 7.77477 11.8787C7.77477 11.8167 7.77359 11.755 7.77124 11.6934V11.5293L7.87653 11.584L8.18242 11.7416L9.96418 12.0446L11.7948 12.3569L11.8354 13.7981Z" fill="#69303A"/>
<path d="M16.6754 17.1263C12.7431 20.154 7.25838 20.1298 3.35303 17.0674L6.21538 15.7257C6.303 15.6842 6.3884 15.6383 6.47126 15.588C7.8642 16.6121 9.80303 17.2792 11.4748 16.5292C11.9489 16.3163 12.3766 15.938 12.5507 15.4521L13.0801 15.6663L16.6754 17.1263Z" fill="#00214E"/>
<ellipse cx="6.2876" cy="9.64453" rx="1" ry="1" fill="#845161"/>
<ellipse cx="6.64062" cy="9.52734" rx="1" ry="1" fill="#69303A"/>
<path d="M13.0841 8.13005C13.7747 10.5236 12.3071 13.4148 11.4053 13.4148C10.17 13.4148 7.17001 12.4283 6.48001 10.0348C5.79001 7.64123 6.71001 5.27652 8.53354 4.75005C10.3571 4.22358 12.393 5.73711 13.0841 8.13005Z" fill="#845161"/>
<path d="M11.0359 5.19228C10.8947 5.4711 10.6006 5.71346 10.4259 5.99875C10.197 6.37228 10.0241 6.77816 9.82997 7.17052C9.68586 7.46463 9.52468 7.75522 9.28115 7.9711C9.03762 8.18699 8.69291 8.31463 8.38056 8.22463C8.16644 8.16287 7.99233 8.00993 7.80115 7.8964C7.60997 7.78287 7.36409 7.70699 7.16762 7.81287C6.87821 7.96816 6.88233 8.38993 6.67527 8.64463C6.19997 9.22875 5.3288 8.44169 5.22409 7.93169C5.07056 7.1864 5.68233 6.56346 6.12703 6.04934C6.49762 5.61993 6.99938 4.96463 7.58174 4.82169C7.59174 4.82169 10.9935 3.46875 10.9935 3.46875C11.0241 3.92346 11.2076 4.59581 11.0976 5.0311C11.0832 5.08699 11.0625 5.14106 11.0359 5.19228Z" fill="#F2D4CF"/>
<path d="M10.9099 8.24219C10.9064 8.25631 11.2358 9.17631 11.4352 9.7316C11.4683 9.82602 11.4537 9.93061 11.396 10.0124C11.3384 10.0941 11.2447 10.1429 11.1446 10.1434H10.9305" stroke="#00214E" stroke-width="0.4" stroke-linecap="round"/>
<path d="M11.5842 7.64125C11.9998 7.42954 12.4804 7.38411 12.9283 7.5142" stroke="#F2D4CF" stroke-width="0.4" stroke-linecap="round"/>
<path d="M8.34229 7.8587C8.91513 7.56656 9.58839 7.54499 10.1788 7.79987" stroke="#F2D4CF" stroke-width="0.4" stroke-linecap="round"/>
<path d="M9.41108 8.51074C9.7699 8.51074 9.7699 9.06192 9.41108 9.06486H9.39461C9.03578 9.06192 9.03578 8.5131 9.39461 8.51074H9.41108Z" fill="#00214E"/>
<path d="M12.3675 8.3291C12.7005 8.33204 12.7005 8.84087 12.3675 8.84381H12.3522C12.0193 8.84381 12.0193 8.33204 12.3522 8.3291H12.3675Z" fill="#00214E"/>
<path d="M10.4924 9.80566C10.3962 9.81611 10.3217 9.89442 10.3159 9.99096C10.3174 10.0375 10.3396 10.081 10.3765 10.1095C10.4134 10.1379 10.4611 10.1484 10.5065 10.138" stroke="#00214E" stroke-width="0.4" stroke-linecap="round"/>
<path d="M9.4542 10.6955C9.47046 10.6698 9.4967 10.652 9.52661 10.6464C9.55652 10.6408 9.58741 10.6479 9.61185 10.6661C9.73362 10.7519 9.95773 10.9343 10.2754 10.9972C10.7083 11.0837 11.0836 10.9102 11.1736 11.0219C11.2242 11.0849 11.1624 11.1614 11.0442 11.2602C10.7939 11.4471 10.4788 11.5254 10.1701 11.4772C9.75362 11.399 9.44067 10.9166 9.44067 10.7455C9.44066 10.7279 9.44533 10.7106 9.4542 10.6955Z" fill="white"/>
</svg>
