<svg width="24" height="24" viewBox="0 0 24 24" fill="none" xmlns="http://www.w3.org/2000/svg">
<path d="M12.6811 4.81756C12.5844 5.23262 12.031 5.43732 11.7974 5.76273C11.5553 6.10085 11.5341 6.68744 11.1861 6.90344C10.8381 7.11944 10.303 6.87944 9.8929 6.94721C9.49761 7.01285 9.06914 7.41873 8.65478 7.32203C8.24043 7.22532 8.03502 6.67191 7.7089 6.43826C7.37149 6.19615 6.7842 6.17426 6.5682 5.82697C6.3522 5.47968 6.5922 4.94391 6.52443 4.53379C6.45949 4.13779 6.05361 3.71003 6.15031 3.29497C6.24702 2.87991 6.80043 2.6752 7.03408 2.34979C7.2762 2.01168 7.29737 1.42509 7.64537 1.20909C7.99337 0.993087 8.52843 1.23309 8.93855 1.16532C9.33384 1.09968 9.76231 0.694499 10.1774 0.791204C10.5924 0.88791 10.7964 1.44062 11.1225 1.67426C11.46 1.91638 12.0473 1.93826 12.2633 2.28556C12.4793 2.63285 12.2393 3.16932 12.307 3.57944C12.3727 3.97473 12.7814 4.4032 12.6811 4.81756Z" fill="#DAAEA8"/>
<path d="M13.9391 14.3337C13.7613 14.5454 13.6074 14.777 13.426 14.9852C12.4645 16.0906 10.3702 15.3643 9.33184 14.7028C8.56737 14.2193 7.99066 13.4901 7.49654 12.7306C6.88949 11.7939 6.38196 10.7753 6.16172 9.6812C5.15301 4.67014 11.5815 2.49038 15.1864 4.95038C16.5276 5.86802 17.7396 7.92638 17.4453 9.57602C17.2949 10.4132 16.6998 11.1664 16.7634 12.0141C16.834 12.9276 17.6591 13.7979 17.314 14.6464C17.1784 14.9781 16.8862 15.2153 16.6497 15.4843C16.33 15.8478 16.0963 16.3024 16.0688 16.7852C16.0413 17.268 16.2417 17.7734 16.6398 18.0501C15.6565 17.9188 15.0509 16.7414 15.305 15.7828C15.3883 15.468 15.5422 15.1744 15.6093 14.8553C15.6763 14.5363 15.6368 14.1657 15.3933 13.9497C15.0805 13.6723 14.5709 13.7774 14.2427 14.0358C14.1319 14.1248 14.0302 14.2246 13.9391 14.3337Z" fill="#F2D4CF"/>
<path d="M20.0103 20.5521C15.2914 24.1849 8.71003 24.1558 4.02344 20.4816L7.45826 18.8714C7.56339 18.822 7.66588 18.7671 7.76532 18.707C7.79214 18.6907 7.81826 18.6745 7.84438 18.6568C7.8705 18.6392 7.90014 18.6216 7.92767 18.6025C8.36096 18.3035 8.7161 17.9048 8.9632 17.4399C9.24556 16.9077 9.33873 16.319 9.34297 15.719C9.34297 15.3145 9.32108 14.9114 9.31685 14.5063C9.31403 14.2827 9.31167 14.059 9.30979 13.835L9.3232 13.842L9.44956 13.9077L9.81661 14.0968L11.9547 14.4604L14.1514 14.8352L14.2023 16.5611L14.2178 17.0912L14.251 18.2114L15.0606 18.5411L15.6959 18.7987L20.0103 20.5521Z" fill="#845161"/>
<path d="M14.2024 16.5585C14.0517 16.6589 13.8729 16.7084 13.692 16.6997C12.648 16.5875 10.6116 15.7693 9.32967 14.2552C9.32967 14.1809 9.32826 14.1068 9.32544 14.0329V13.8359L9.45179 13.9016L9.81885 14.0908L11.957 14.4543L14.1537 14.8291L14.2024 16.5585Z" fill="#69303A"/>
<path d="M20.0103 20.5519C15.2916 24.1852 8.70986 24.1561 4.02344 20.4813L7.45826 18.8712C7.5634 18.8215 7.66589 18.7664 7.76532 18.706C9.43685 19.935 11.7634 20.7354 13.7696 19.8354C14.3385 19.5799 14.8517 19.126 15.0606 18.543L15.6959 18.7999L20.0103 20.5519Z" fill="#00214E"/>
<ellipse cx="7.54521" cy="11.574" rx="1.2" ry="1.2" fill="#845161"/>
<ellipse cx="7.9688" cy="11.4334" rx="1.2" ry="1.2" fill="#69303A"/>
<path d="M15.7011 9.75665C16.5298 12.6289 14.7686 16.0983 13.6865 16.0983C12.2041 16.0983 8.60411 14.9145 7.77611 12.0423C6.94811 9.17006 8.05211 6.33241 10.2403 5.70065C12.4286 5.06888 14.8716 6.88512 15.7011 9.75665Z" fill="#845161"/>
<path d="M13.2431 6.23132C13.0737 6.56591 12.7207 6.85673 12.5111 7.19909C12.2365 7.64732 12.029 8.13438 11.796 8.6052C11.6231 8.95815 11.4297 9.30685 11.1374 9.56591C10.8452 9.82497 10.4315 9.97815 10.0567 9.87014C9.79978 9.79603 9.59084 9.6125 9.36143 9.47626C9.13202 9.34003 8.83696 9.24897 8.60119 9.37603C8.2539 9.56238 8.25884 10.0685 8.01037 10.3741C7.44002 11.0751 6.39461 10.1306 6.26896 9.51862C6.08472 8.62426 6.81884 7.87673 7.35249 7.25979C7.79719 6.7445 8.39931 5.95814 9.09813 5.78662C9.11013 5.78662 13.1923 4.16309 13.1923 4.16309C13.229 4.70873 13.4492 5.51556 13.3172 6.03791C13.2999 6.10497 13.275 6.16985 13.2431 6.23132Z" fill="#F2D4CF"/>
<path d="M13.0921 9.89062C13.0878 9.90757 13.4831 11.0116 13.7224 11.6779C13.7621 11.7912 13.7446 11.9167 13.6754 12.0148C13.6062 12.1129 13.4938 12.1715 13.3737 12.172H13.1168" stroke="#00214E" stroke-width="0.5" stroke-linecap="round"/>
<path d="M13.9009 9.17048C14.3996 8.91643 14.9763 8.8619 15.5138 9.01801" stroke="#F2D4CF" stroke-width="0.5" stroke-linecap="round"/>
<path d="M10.0107 9.43122C10.6982 9.08065 11.5061 9.05477 12.2145 9.36063" stroke="#F2D4CF" stroke-width="0.5" stroke-linecap="round"/>
<path d="M11.2934 10.2139C11.724 10.2139 11.724 10.8753 11.2934 10.8788H11.2736C10.843 10.8753 10.843 10.2167 11.2736 10.2139H11.2934Z" fill="#00214E"/>
<path d="M14.8412 9.99512C15.2407 9.99865 15.2407 10.6092 14.8412 10.6128H14.8228C14.4233 10.6128 14.4233 9.99865 14.8228 9.99512H14.8412Z" fill="#00214E"/>
<path d="M12.5909 11.7676C12.4755 11.7801 12.386 11.8741 12.3792 11.9899C12.3809 12.0458 12.4076 12.098 12.4518 12.1322C12.4961 12.1663 12.5533 12.1789 12.6079 12.1664" stroke="#00214E" stroke-width="0.5" stroke-linecap="round"/>
<path d="M11.3448 12.8355C11.3644 12.8047 11.3958 12.7833 11.4317 12.7766C11.4676 12.7699 11.5047 12.7785 11.534 12.8002C11.6801 12.9033 11.9491 13.1221 12.3303 13.1977C12.8498 13.3014 13.3001 13.0932 13.4081 13.2273C13.4688 13.3028 13.3947 13.3946 13.2528 13.5132C12.9525 13.7375 12.5744 13.8314 12.2039 13.7737C11.7041 13.6798 11.3286 13.101 11.3286 12.8955C11.3286 12.8745 11.3342 12.8537 11.3448 12.8355Z" fill="white"/>
</svg>
