<svg width="32" height="32" viewBox="0 0 32 32" fill="none" xmlns="http://www.w3.org/2000/svg">
<path d="M16.9082 6.42341C16.7792 6.97682 16.0414 7.24976 15.7298 7.68365C15.407 8.13447 15.3788 8.91659 14.9148 9.20459C14.4508 9.49259 13.7374 9.17259 13.1905 9.26294C12.6635 9.35047 12.0922 9.89165 11.5397 9.7627C10.9872 9.63376 10.7134 8.89588 10.2785 8.58435C9.82865 8.26153 9.0456 8.23235 8.7576 7.76929C8.4696 7.30623 8.7896 6.59188 8.69924 6.04506C8.61265 5.51706 8.07148 4.9467 8.20042 4.39329C8.32936 3.83988 9.06724 3.56694 9.37877 3.13306C9.7016 2.68223 9.72983 1.90012 10.1938 1.61212C10.6578 1.32412 11.3712 1.64412 11.9181 1.55376C12.4451 1.46623 13.0164 0.925998 13.5698 1.05494C14.1232 1.18388 14.3952 1.92082 14.8301 2.23235C15.2799 2.55517 16.063 2.58435 16.351 3.04741C16.639 3.51047 16.319 4.22576 16.4094 4.77259C16.4969 5.29965 17.0418 5.87094 16.9082 6.42341Z" fill="#DAAEA8"/>
<path d="M18.5855 19.1112C18.3483 19.3936 18.1432 19.7023 17.9013 19.9799C16.6194 21.4538 13.8269 20.4854 12.4425 19.6035C11.4232 18.9588 10.6542 17.9865 9.99539 16.9738C9.18598 15.7249 8.50927 14.3668 8.21563 12.9079C6.87069 6.22653 15.442 3.32018 20.2486 6.60018C22.0368 7.82371 23.6528 10.5682 23.2603 12.7677C23.0599 13.8839 22.2665 14.8882 22.3512 16.0185C22.4453 17.2364 23.5455 18.3969 23.0853 19.5282C22.9046 19.9705 22.5149 20.2868 22.1996 20.6454C21.7733 21.1301 21.4617 21.7362 21.425 22.3799C21.3883 23.0237 21.6556 23.6976 22.1865 24.0665C20.8754 23.8915 20.0679 22.3216 20.4067 21.0435C20.5177 20.6237 20.7229 20.2322 20.8123 19.8068C20.9017 19.3814 20.849 18.8872 20.5243 18.5992C20.1074 18.2294 19.4279 18.3696 18.9902 18.7141C18.8425 18.8327 18.7069 18.9658 18.5855 19.1112Z" fill="#F2D4CF"/>
<path d="M26.6805 27.4025C20.3887 32.2462 11.6135 32.2075 5.36475 27.3084L9.94451 25.1616C10.0847 25.0956 10.2213 25.0224 10.3539 24.9423C10.3897 24.9206 10.4245 24.899 10.4593 24.8755C10.4942 24.8519 10.5337 24.8284 10.5704 24.803C11.1481 24.4043 11.6216 23.8727 11.9511 23.2529C12.3276 22.5432 12.4518 21.7583 12.4575 20.9583C12.4575 20.419 12.4283 19.8816 12.4226 19.3413C12.4189 19.0433 12.4157 18.745 12.4132 18.4463L12.4311 18.4557L12.5996 18.5432L13.089 18.7955L15.9398 19.2802L18.8687 19.7799L18.9365 22.0811L18.9572 22.7879L19.0015 24.2816L20.081 24.7211L20.928 25.0646L26.6805 27.4025Z" fill="#845161"/>
<path d="M18.9364 22.0784C18.7355 22.2122 18.4971 22.2782 18.256 22.2666C16.864 22.1169 14.1487 21.0261 12.4395 19.0073C12.4395 18.9082 12.4376 18.8093 12.4338 18.7108V18.4482L12.6023 18.5358L13.0917 18.788L15.9425 19.2727L18.8715 19.7725L18.9364 22.0784Z" fill="#69303A"/>
<path d="M26.6805 27.4022C20.3889 32.2466 11.6133 32.2078 5.36475 27.3081L9.94451 25.1613C10.0847 25.095 10.2213 25.0215 10.3539 24.941C12.5826 26.5796 15.6847 27.6469 18.3596 26.4469C19.1182 26.1062 19.8024 25.501 20.081 24.7236L20.928 25.0662L26.6805 27.4022Z" fill="#00214E"/>
<ellipse cx="10.0602" cy="15.432" rx="1.6" ry="1.6" fill="#845161"/>
<ellipse cx="10.6249" cy="15.2445" rx="1.6" ry="1.6" fill="#69303A"/>
<path d="M20.9347 13.0089C22.0396 16.8385 19.6914 21.4644 18.2485 21.4644C16.2721 21.4644 11.4721 19.886 10.3681 16.0564C9.26407 12.2267 10.7361 8.44322 13.6537 7.60086C16.5714 6.75851 19.8288 9.18016 20.9347 13.0089Z" fill="#845161"/>
<path d="M17.6575 8.30843C17.4316 8.75455 16.961 9.14231 16.6815 9.59878C16.3154 10.1964 16.0387 10.8458 15.7281 11.4736C15.4975 11.9442 15.2396 12.4091 14.85 12.7545C14.4603 13.1 13.9088 13.3042 13.409 13.1602C13.0665 13.0614 12.7879 12.8167 12.482 12.635C12.1761 12.4534 11.7827 12.332 11.4683 12.5014C11.0053 12.7498 11.0119 13.4247 10.6806 13.8322C9.9201 14.7668 8.52622 13.5075 8.35869 12.6915C8.11304 11.499 9.09187 10.5023 9.8034 9.67972C10.3963 8.99266 11.1992 7.94419 12.1309 7.71549C12.1469 7.71549 17.5898 5.55078 17.5898 5.55078C17.6387 6.27831 17.9323 7.35408 17.7563 8.05055C17.7332 8.13996 17.7001 8.22647 17.6575 8.30843Z" fill="#F2D4CF"/>
<path d="M17.4561 13.1875C17.4505 13.2101 17.9775 14.6821 18.2966 15.5706C18.3495 15.7216 18.3262 15.889 18.2339 16.0198C18.1416 16.1506 17.9917 16.2287 17.8316 16.2294H17.489" stroke="#00214E" stroke-width="0.5" stroke-linecap="round"/>
<path d="M18.5347 12.227C19.1996 11.8882 19.9686 11.8155 20.6853 12.0237" stroke="#F2D4CF" stroke-width="0.5" stroke-linecap="round"/>
<path d="M13.3477 12.5753C14.2642 12.1079 15.3414 12.0734 16.286 12.4812" stroke="#F2D4CF" stroke-width="0.5" stroke-linecap="round"/>
<path d="M15.0578 13.6182C15.6319 13.6182 15.6319 14.5 15.0578 14.5048H15.0314C14.4573 14.5 14.4573 13.6219 15.0314 13.6182H15.0578Z" fill="#00214E"/>
<path d="M19.7883 13.3271C20.321 13.3319 20.321 14.146 19.7883 14.1507H19.7638C19.2311 14.1507 19.2311 13.3319 19.7638 13.3271H19.7883Z" fill="#00214E"/>
<path d="M16.7877 15.6904C16.6339 15.7071 16.5146 15.8324 16.5054 15.9869C16.5077 16.0614 16.5433 16.131 16.6023 16.1765C16.6613 16.2221 16.7376 16.2388 16.8103 16.2222" stroke="#00214E" stroke-width="0.5" stroke-linecap="round"/>
<path d="M15.1266 17.1137C15.1526 17.0726 15.1946 17.0441 15.2425 17.0352C15.2903 17.0263 15.3398 17.0377 15.3789 17.0667C15.5737 17.2041 15.9323 17.4958 16.4405 17.5966C17.1332 17.7349 17.7337 17.4573 17.8777 17.6361C17.9586 17.7368 17.8598 17.8591 17.6706 18.0173C17.2701 18.3164 16.766 18.4416 16.272 18.3646C15.6057 18.2394 15.105 17.4676 15.105 17.1937C15.105 17.1656 15.1124 17.138 15.1266 17.1137Z" fill="white"/>
</svg>
