<svg width="12" height="12" viewBox="0 0 12 12" fill="none" xmlns="http://www.w3.org/2000/svg">
<path d="M1.99902 3.5293L4.76423 5.14217C5.78366 5.73677 6.21438 5.73677 7.23382 5.14217L9.99901 3.5293" stroke="#8C8C8C" stroke-width="1.2" stroke-linejoin="round"/>
<path d="M2.00533 6.6076C2.03148 7.86991 2.04456 8.50102 2.49701 8.96858C2.94945 9.43609 3.57915 9.45236 4.83855 9.48493C5.61474 9.50502 6.3833 9.50502 7.1595 9.48493C8.4189 9.45236 9.04857 9.43609 9.50105 8.96858C9.95349 8.50102 9.96657 7.86991 9.99269 6.6076C10.0011 6.20172 10.0011 5.79828 9.99269 5.3924C9.96657 4.13012 9.95349 3.49898 9.50105 3.03145C9.04857 2.56392 8.4189 2.54763 7.1595 2.51506C6.3833 2.49498 5.61474 2.49498 4.83855 2.51505C3.57915 2.54763 2.94945 2.56391 2.497 3.03144C2.04455 3.49897 2.03148 4.13011 2.00533 5.3924C1.99692 5.79828 1.99692 6.20172 2.00533 6.6076Z" stroke="#8C8C8C" stroke-width="1.2" stroke-linejoin="round"/>
</svg>
