<svg width="16" height="16" viewBox="0 0 16 16" fill="none" xmlns="http://www.w3.org/2000/svg">
<path d="M2.66699 4.70605L6.35393 6.85655C7.71317 7.64935 8.28746 7.64935 9.64672 6.85655L13.3336 4.70605" stroke="#E62129" stroke-width="1.3" stroke-linejoin="round"/>
<path d="M2.6754 8.80981C2.71027 10.4929 2.7277 11.3344 3.33097 11.9578C3.93423 12.5811 4.77383 12.6028 6.45303 12.6462C7.48795 12.673 8.51269 12.673 9.54762 12.6462C11.2268 12.6028 12.0664 12.5811 12.6697 11.9578C13.273 11.3344 13.2904 10.4929 13.3252 8.80981C13.3365 8.26864 13.3365 7.73071 13.3252 7.18954C13.2904 5.5065 13.273 4.66498 12.6697 4.04161C12.0664 3.41823 11.2268 3.39652 9.54762 3.35309C8.51269 3.32632 7.48795 3.32632 6.45302 3.35308C4.77383 3.39651 3.93423 3.41822 3.33096 4.0416C2.7277 4.66497 2.71027 5.50649 2.6754 7.18954C2.66419 7.73071 2.66419 8.26864 2.6754 8.80981Z" stroke="#E62129" stroke-width="1.3" stroke-linejoin="round"/>
</svg>
