<svg width="20" height="20" viewBox="0 0 20 20" fill="none" xmlns="http://www.w3.org/2000/svg">
<path d="M3.33398 5.88232L7.94266 8.57044C9.64171 9.56144 10.3596 9.56144 12.0586 8.57044L16.6673 5.88232" stroke="#E62129" stroke-width="1.4" stroke-linejoin="round"/>
<path d="M3.3445 11.0125C3.38808 13.1163 3.40987 14.1682 4.16396 14.9475C4.91804 15.7267 5.96753 15.7538 8.06653 15.8081C9.36018 15.8415 10.6411 15.8415 11.9348 15.8081C14.0338 15.7538 15.0832 15.7267 15.8374 14.9475C16.5914 14.1682 16.6132 13.1163 16.6568 11.0125C16.6708 10.336 16.6708 9.66363 16.6568 8.98717C16.6132 6.88337 16.5914 5.83147 15.8374 5.05225C15.0832 4.27304 14.0338 4.24589 11.9348 4.1916C10.6411 4.15814 9.36018 4.15814 8.06653 4.19159C5.96753 4.24588 4.91804 4.27302 4.16395 5.05224C3.40986 5.83146 3.38808 6.88336 3.34449 8.98717C3.33048 9.66363 3.33048 10.336 3.3445 11.0125Z" stroke="#E62129" stroke-width="1.4" stroke-linejoin="round"/>
</svg>
