<svg width="32" height="32" viewBox="0 0 32 32" fill="none" xmlns="http://www.w3.org/2000/svg">
<path d="M5.33398 9.41162L12.7079 13.7126C15.4263 15.2982 16.5749 15.2982 19.2934 13.7126L26.6673 9.41162" stroke="#8C8C8C" stroke-width="1.5" stroke-linejoin="round"/>
<path d="M5.35081 17.6201C5.42053 20.9863 5.4554 22.6692 6.66194 23.916C7.86847 25.1628 9.54767 25.2061 12.9061 25.293C14.9759 25.3466 17.0254 25.3466 19.0952 25.293C22.4536 25.2061 24.1328 25.1628 25.3394 23.916C26.5459 22.6692 26.5808 20.9863 26.6504 17.6201C26.6729 16.5378 26.6729 15.4619 26.6504 14.3796C26.5808 11.0135 26.5459 9.33045 25.3394 8.0837C24.1328 6.83695 22.4536 6.79353 19.0952 6.70666C17.0254 6.65312 14.9759 6.65312 12.906 6.70665C9.54766 6.7935 7.86847 6.83693 6.66193 8.08369C5.45539 9.33044 5.42053 11.0135 5.3508 14.3796C5.32837 15.4619 5.32838 16.5378 5.35081 17.6201Z" stroke="#8C8C8C" stroke-width="1.5" stroke-linejoin="round"/>
</svg>
