<svg width="20" height="20" viewBox="0 0 20 20" fill="none" xmlns="http://www.w3.org/2000/svg">
<path d="M2.76848 6.29233C2.7973 6.33226 2.82855 6.37098 2.86614 6.40464L2.98137 6.48764L7.58977 9.17612L7.9091 9.35678C8.64261 9.75917 9.29906 10.0149 10.0009 10.015C10.8027 10.0149 11.5449 9.68127 12.4111 9.17612L17.0195 6.48764C17.106 6.43718 17.177 6.3704 17.2323 6.29428C17.2389 6.32897 17.2469 6.36357 17.2529 6.39878C17.3693 7.0889 17.3849 7.94251 17.4062 8.97202L17.4169 10.0003L17.4062 11.0287C17.3849 12.0582 17.3692 12.9117 17.2529 13.6019C17.146 14.2353 16.9468 14.7848 16.5556 15.2669L16.3759 15.4701C15.8588 16.0042 15.2462 16.2593 14.5224 16.389C14.0063 16.4815 13.3967 16.5158 12.6913 16.5384L11.954 16.5589C10.9743 16.5843 10.0015 16.5902 9.02532 16.5775L8.0468 16.5589C7.02054 16.5324 6.1665 16.5123 5.47844 16.389C4.84501 16.2754 4.29673 16.0661 3.82317 15.6576L3.62493 15.4701C3.1126 14.9406 2.87011 14.3258 2.74797 13.6019C2.66068 13.0842 2.63015 12.4747 2.61125 11.7679L2.59465 11.0287C2.58043 10.342 2.58043 9.65872 2.59465 8.97202L2.61125 8.23276C2.63016 7.52613 2.66067 6.91637 2.74797 6.39878C2.75402 6.36293 2.76182 6.32764 2.76848 6.29233ZM11.954 3.44272L12.6913 3.46323C13.3968 3.48585 14.0063 3.52016 14.5224 3.61264C15.2463 3.74242 15.8587 3.99729 16.3759 4.53159L16.5556 4.73374C16.68 4.88696 16.7833 5.04785 16.872 5.21518C16.6918 5.15992 16.4901 5.17617 16.3144 5.27866L11.706 7.96616C10.8736 8.45162 10.4072 8.61451 10.0009 8.6146C9.64535 8.61456 9.24328 8.4905 8.59075 8.13413L8.29485 7.96616L3.68645 5.27866L3.55754 5.22007C3.41533 5.17197 3.2649 5.17336 3.12688 5.21616C3.25561 4.97313 3.4181 4.74535 3.62493 4.53159L3.82317 4.34409C4.29674 3.9355 4.84498 3.72623 5.47844 3.61264C6.1665 3.48929 7.02054 3.46926 8.0468 3.44272L9.02532 3.42319C10.0015 3.41053 10.9743 3.41738 11.954 3.44272Z" fill="#E62129"/>
</svg>
