<svg width="20" height="20" viewBox="0 0 20 20" fill="none" xmlns="http://www.w3.org/2000/svg">
<path d="M2.76848 6.29233C2.79728 6.33221 2.82858 6.37102 2.86613 6.40464L2.98137 6.48764L7.58977 9.17612L7.9091 9.35678C8.64258 9.75915 9.29909 10.0149 10.0009 10.015C10.8027 10.0149 11.545 9.6812 12.4111 9.17612L17.0195 6.48764C17.1061 6.43709 17.177 6.36958 17.2323 6.29331C17.2389 6.3283 17.2469 6.36325 17.2529 6.39878C17.3692 7.08885 17.3849 7.94267 17.4062 8.97202L17.4169 10.0003L17.4062 11.0287C17.3849 12.0581 17.3692 12.9118 17.2529 13.6019C17.146 14.2352 16.9468 14.7849 16.5556 15.2669L16.3759 15.4701C15.8588 16.004 15.2461 16.2593 14.5224 16.389C14.0063 16.4815 13.3967 16.5158 12.6913 16.5384L11.954 16.5589C10.9743 16.5843 10.0015 16.5902 9.02531 16.5775L8.0468 16.5589C7.02057 16.5324 6.16648 16.5123 5.47844 16.389C4.84506 16.2755 4.2967 16.066 3.82316 15.6576L3.62492 15.4701C3.11266 14.9407 2.87012 14.3257 2.74797 13.6019C2.66069 13.0843 2.63015 12.4745 2.61125 11.7679L2.59465 11.0287C2.58043 10.3421 2.58043 9.65861 2.59465 8.97202L2.61125 8.23276C2.63015 7.52629 2.66071 6.91629 2.74797 6.39878C2.75402 6.36294 2.76182 6.32764 2.76848 6.29233ZM11.954 3.44272L12.6913 3.46323C13.3968 3.48585 14.0063 3.52016 14.5224 3.61264C15.2463 3.74242 15.8587 3.99728 16.3759 4.53159L16.5556 4.73374C16.68 4.88695 16.7833 5.04783 16.872 5.21518C16.6918 5.15991 16.4901 5.17616 16.3144 5.27866L11.706 7.96616C10.8738 8.45152 10.4072 8.61451 10.0009 8.6146C9.64536 8.61454 9.24323 8.49047 8.59074 8.13413L8.29484 7.96616L3.68644 5.27866L3.55754 5.22006C3.41566 5.17208 3.26561 5.17269 3.12785 5.21518C3.2565 4.97257 3.41848 4.74499 3.62492 4.53159L3.82316 4.34409C4.2967 3.93553 4.84503 3.72624 5.47844 3.61264C6.16648 3.48929 7.02057 3.46926 8.0468 3.44272L9.02531 3.42319C10.0015 3.41053 10.9743 3.41738 11.954 3.44272Z" fill="#262626"/>
</svg>
