<svg width="32" height="32" viewBox="0 0 32 32" fill="none" xmlns="http://www.w3.org/2000/svg">
<path d="M27.1605 10.3124C27.34 11.3765 27.3654 12.7035 27.3998 14.3641L27.4125 15.1825C27.4182 15.7276 27.4182 16.2721 27.4125 16.8172L27.3998 17.6356C27.3654 19.2964 27.34 20.6241 27.1605 21.6883C26.9869 22.7175 26.6607 23.5633 26.0121 24.2938L25.8773 24.4383C25.134 25.2061 24.2507 25.5818 23.1556 25.7782C22.3611 25.9206 21.4164 25.9745 20.2953 26.0106L19.1136 26.0428C17.5517 26.0833 16.0009 26.0933 14.4447 26.0731L12.8861 26.0428C11.2301 26 9.90362 25.9681 8.84412 25.7782C7.81715 25.5941 6.97665 25.252 6.26306 24.577L6.12244 24.4383C5.38403 23.6753 5.02547 22.786 4.84021 21.6883C4.70557 20.8902 4.65746 19.9438 4.62732 18.8202L4.59998 17.6356C4.57735 16.5431 4.57735 15.4566 4.59998 14.3641L4.62732 13.1805C4.65745 12.0568 4.70558 11.1106 4.84021 10.3124C4.85693 10.2133 4.87618 10.1161 4.89588 10.0204L4.95545 10.0594L12.3295 14.3612L12.8344 14.6473C13.9863 15.2787 14.9691 15.6522 16.0004 15.6522C17.1788 15.652 18.2934 15.1642 19.6703 14.3612L27.0443 10.0594C27.0652 10.0472 27.0846 10.0332 27.1039 10.0194C27.1237 10.1155 27.1437 10.2129 27.1605 10.3124ZM14.4447 5.92661C16.0009 5.90641 17.5517 5.91648 19.1136 5.95688L20.2953 5.99009C21.4164 6.02614 22.3611 6.08009 23.1556 6.22251C24.2508 6.41887 25.134 6.79444 25.8773 7.56235L26.0121 7.70688C26.2767 8.00498 26.4848 8.32374 26.6537 8.66489C26.5292 8.66693 26.4036 8.69735 26.2885 8.7645L18.9154 13.0653C17.5746 13.8473 16.755 14.152 16.0004 14.1522C15.3401 14.1522 14.63 13.9189 13.5648 13.3368L13.0853 13.0653L5.71131 8.7645L5.64295 8.72837C5.54673 8.68465 5.44487 8.66424 5.34412 8.66294C5.54045 8.26629 5.79386 7.90189 6.12244 7.56235L6.26306 7.4227C6.97663 6.74774 7.81719 6.40661 8.84412 6.22251C9.90365 6.03258 11.2301 5.99971 12.8861 5.95688L14.4447 5.92661Z" fill="#E62129"/>
</svg>
