<svg width="12" height="12" viewBox="0 0 12 12" fill="none" xmlns="http://www.w3.org/2000/svg">
<path d="M10.5987 3.56919C10.616 3.64167 10.635 3.71425 10.6476 3.78891C10.7219 4.22974 10.7307 4.76793 10.7433 5.37681L10.7501 5.99985L10.7433 6.6229C10.7307 7.23181 10.7219 7.76992 10.6476 8.21079C10.5775 8.62607 10.4429 9.00824 10.1681 9.34751L10.0411 9.49009C9.67489 9.86846 9.24286 10.0424 8.76672 10.1278C8.5465 10.1672 8.30085 10.1901 8.03527 10.2049L7.1798 10.2342C6.58829 10.2495 6.00061 10.2536 5.41125 10.2459L4.82043 10.2342C4.21397 10.2185 3.67395 10.2067 3.23351 10.1278C2.81717 10.053 2.43406 9.91062 2.09972 9.6229L1.9591 9.49009C1.59783 9.11657 1.43269 8.68524 1.35265 8.21079C1.31552 7.99055 1.29455 7.7457 1.28136 7.48032L1.25695 6.6229C1.24834 6.20684 1.24833 5.79288 1.25695 5.37681L1.28136 4.51938C1.29456 4.25396 1.3155 4.00917 1.35265 3.78891C1.36623 3.70845 1.38345 3.62952 1.40246 3.55161C1.40851 3.71172 1.47636 3.8671 1.59972 3.97739L1.69738 4.04868L4.463 5.66098L4.84972 5.8729C5.23079 6.06415 5.60129 6.18921 6.00011 6.1893C6.53208 6.1893 7.01321 5.96659 7.53722 5.66098L10.3028 4.04868C10.4815 3.94438 10.5859 3.76141 10.5987 3.56919ZM7.1798 1.76548L8.03527 1.79477C8.30081 1.80958 8.54653 1.83248 8.76672 1.87192C9.24273 1.95732 9.67497 2.13148 10.0411 2.50962L10.1681 2.6522C10.2976 2.81204 10.3947 2.98204 10.4698 3.16001C10.2876 2.9284 9.95913 2.8589 9.69738 3.01157L6.93273 4.62485C6.43777 4.91351 6.19302 4.98911 6.00011 4.98911C5.85543 4.98902 5.68123 4.94661 5.39465 4.80356L5.0675 4.62485L2.30285 3.01157L2.19152 2.96177C1.95345 2.88149 1.68764 2.95893 1.53039 3.15805C1.6284 2.92685 1.76533 2.70986 1.9591 2.50962L2.09972 2.37681C2.43408 2.08906 2.81712 1.94667 3.23351 1.87192C3.67396 1.79296 4.21396 1.78116 4.82043 1.76548L5.41125 1.75376C6.00061 1.74611 6.58829 1.75018 7.1798 1.76548Z" fill="#E62129"/>
</svg>
