<svg width="24" height="24" viewBox="0 0 24 24" fill="none" xmlns="http://www.w3.org/2000/svg">
<path d="M20.5552 7.70249C20.6927 8.51733 20.7122 9.52893 20.7379 10.7689L20.7506 11.9994L20.7379 13.2298C20.7122 14.4698 20.6926 15.4814 20.5552 16.2962C20.43 17.0388 20.199 17.6724 19.7496 18.2259L19.5435 18.4584C18.9512 19.0703 18.2482 19.3649 17.4009 19.5169C16.792 19.6261 16.0701 19.6676 15.2261 19.6947L14.3414 19.7191C13.1675 19.7495 12.0012 19.7567 10.8316 19.7416L9.65974 19.7191C8.42381 19.6871 7.41194 19.6624 6.60017 19.5169C5.85863 19.384 5.22804 19.1418 4.68513 18.6732L4.45759 18.4584C3.86982 17.851 3.58903 17.1449 3.44587 16.2962C3.3428 15.6851 3.30542 14.9633 3.28278 14.1175L3.26228 13.2298C3.24526 12.408 3.24525 11.5907 3.26228 10.7689L3.28278 9.8812C3.30543 9.03549 3.34278 8.31364 3.44587 7.70249C3.45253 7.66303 3.46106 7.62416 3.46833 7.58531C3.49601 7.61322 3.52559 7.64066 3.55817 7.66441L3.62263 7.7064L9.1529 10.933L9.53474 11.1488C10.4095 11.6285 11.1807 11.9261 12.0006 11.9261C12.9374 11.926 13.8109 11.538 14.8482 10.933L20.3785 7.7064C20.4372 7.6721 20.4863 7.62764 20.5318 7.5814C20.5393 7.62155 20.5484 7.66169 20.5552 7.70249ZM10.8316 4.25718C12.0012 4.24201 13.1675 4.24928 14.3414 4.27964L15.2261 4.30406C16.0701 4.33116 16.792 4.37263 17.4009 4.48179C18.1423 4.6148 18.7731 4.85703 19.316 5.32554L19.5435 5.54038L19.7496 5.77281C19.8907 5.94659 20.0084 6.12925 20.1099 6.31968C19.9471 6.29539 19.7759 6.32212 19.6226 6.41148L14.0924 9.63706C13.0913 10.2209 12.5135 10.426 12.0006 10.4261C11.5517 10.4261 11.0533 10.2687 10.2652 9.83824L9.90876 9.63706L4.37849 6.41148L4.31013 6.37535C4.17547 6.31417 4.02985 6.29617 3.89118 6.31675C4.03863 6.04054 4.22338 5.7824 4.45759 5.54038L4.68513 5.32554C5.22796 4.85719 5.8588 4.61475 6.60017 4.48179C7.41193 4.33633 8.42387 4.3116 9.65974 4.27964L10.8316 4.25718Z" fill="#262626"/>
</svg>
