<svg width="12" height="12" viewBox="0 0 12 12" fill="none" xmlns="http://www.w3.org/2000/svg">
<path d="M1.40246 3.55454C1.40921 3.71375 1.47794 3.86773 1.6007 3.97739L1.69835 4.04868L4.46398 5.66099L4.8507 5.8729C5.23187 6.0642 5.60213 6.18931 6.00109 6.18931C6.53315 6.18927 7.01406 5.9667 7.5382 5.66099L10.3038 4.04868C10.4852 3.94276 10.5886 3.75584 10.5987 3.5604C10.6169 3.63565 10.6355 3.71132 10.6486 3.78892C10.7229 4.22971 10.7317 4.76799 10.7443 5.37681L10.7511 5.99985L10.7443 6.6229C10.7317 7.2317 10.7229 7.76997 10.6486 8.21079C10.5785 8.62594 10.4437 9.00833 10.1691 9.34751L10.0421 9.49009C9.67591 9.86845 9.24379 10.0424 8.76769 10.1278C8.54742 10.1673 8.30192 10.1901 8.03625 10.2049L7.18078 10.2342C6.58915 10.2495 6.0017 10.2536 5.41222 10.2459L4.8214 10.2342C4.21477 10.2185 3.67503 10.2067 3.23449 10.1278C2.81795 10.0531 2.43517 9.91074 2.1007 9.6229L1.96007 9.49009C1.59866 9.11652 1.43369 8.68534 1.35363 8.21079C1.3165 7.99056 1.29552 7.74569 1.28234 7.48032L1.25793 6.6229C1.24931 6.20688 1.24931 5.79284 1.25793 5.37681L1.28234 4.51938C1.29553 4.25403 1.31648 4.00912 1.35363 3.78892C1.36704 3.70949 1.38377 3.63149 1.40246 3.55454ZM7.18078 1.76548L8.03625 1.79478C8.30195 1.80959 8.5474 1.83243 8.76769 1.87192C9.24378 1.95734 9.67591 2.13134 10.0421 2.50962L10.1691 2.6522C10.2985 2.81204 10.3956 2.98204 10.4708 3.16001C10.2886 2.92826 9.96017 2.85892 9.69835 3.01157L6.93371 4.62485C6.43857 4.91365 6.19403 4.98908 6.00109 4.98911C5.85633 4.98911 5.68244 4.94672 5.39562 4.80356L5.06847 4.62485L2.30382 3.01157L2.1925 2.96177C1.95515 2.88156 1.68988 2.9584 1.53234 3.1561C1.6303 2.92564 1.76688 2.70926 1.96007 2.50962L2.1007 2.37681C2.43509 2.08914 2.81807 1.94663 3.23449 1.87192C3.675 1.79298 4.21484 1.78117 4.8214 1.76548L5.41222 1.75376C6.00169 1.74612 6.58915 1.75018 7.18078 1.76548Z" fill="#8C8C8C"/>
</svg>
