<svg width="32" height="32" viewBox="0 0 32 32" fill="none" xmlns="http://www.w3.org/2000/svg">
<path d="M27.16 10.3119C27.3395 11.376 27.3649 12.703 27.3993 14.3636L27.412 15.182C27.4177 15.7271 27.4177 16.2717 27.412 16.8167L27.3993 17.6351C27.3649 19.2959 27.3395 20.6236 27.16 21.6878C26.9864 22.7171 26.6602 23.5628 26.0116 24.2933L25.8768 24.4378C25.1335 25.2057 24.2503 25.5814 23.1552 25.7777C22.3606 25.92 21.4159 25.9741 20.2948 26.0101L19.1132 26.0423C17.5512 26.0828 16.0004 26.0928 14.4442 26.0726L12.8856 26.0423C11.2297 25.9995 9.9031 25.9676 8.84363 25.7777C7.81672 25.5935 6.97612 25.2516 6.26257 24.5765L6.12195 24.4378C5.3837 23.6748 5.02494 22.7854 4.83972 21.6878C4.70512 20.8897 4.65696 19.9432 4.62683 18.8197L4.59949 17.6351C4.57687 16.5427 4.57686 15.4561 4.59949 14.3636L4.62683 13.18C4.65697 12.0563 4.70508 11.11 4.83972 10.3119C4.85644 10.2128 4.87569 10.1156 4.89539 10.0199L4.95496 10.0589L12.329 14.3607L12.8339 14.6468C13.9858 15.2782 14.9687 15.6516 15.9999 15.6517C17.1783 15.6516 18.2929 15.1638 19.6698 14.3607L27.0438 10.0589C27.0647 10.0468 27.0842 10.0327 27.1034 10.0189C27.1232 10.115 27.1433 10.2124 27.16 10.3119ZM14.4442 5.92612C16.0004 5.90592 17.5512 5.916 19.1132 5.95639L20.2948 5.9896C21.4158 6.02564 22.3606 6.07965 23.1552 6.22202C24.2502 6.41834 25.1335 6.79413 25.8768 7.56186L26.0116 7.70639C26.2766 8.00482 26.4852 8.32377 26.6542 8.66538C26.5295 8.66736 26.4032 8.69678 26.288 8.76401L18.9149 13.0648C17.574 13.8469 16.7546 14.1516 15.9999 14.1517C15.3396 14.1516 14.6294 13.9184 13.5643 13.3363L13.0848 13.0648L5.71082 8.76401L5.64246 8.72788C5.54586 8.68407 5.44377 8.66452 5.34265 8.66342C5.53906 8.2663 5.79307 7.90171 6.12195 7.56186L6.26257 7.42221C6.97607 6.74731 7.81684 6.40614 8.84363 6.22202C9.90312 6.03208 11.2296 5.99922 12.8856 5.95639L14.4442 5.92612Z" fill="#262626"/>
</svg>
