<svg width="16" height="16" viewBox="0 0 16 16" fill="none" xmlns="http://www.w3.org/2000/svg">
<path d="M13.95 5.09483C14.0453 5.66026 14.058 6.35589 14.075 7.17491L14.0838 8.00108L14.075 8.82627C14.058 9.64555 14.0454 10.3418 13.95 10.9073C13.8615 11.4314 13.6949 11.8972 13.3621 12.3077L13.2088 12.4806C12.767 12.9369 12.2444 13.1513 11.6443 13.2589C11.2209 13.3348 10.7231 13.3628 10.156 13.381L9.56716 13.3976C8.78122 13.4179 8.00062 13.4224 7.21755 13.4122L6.43337 13.3976C5.617 13.3765 4.9205 13.36 4.35622 13.2589C3.83132 13.1648 3.36568 12.9887 2.96169 12.6407L2.79177 12.4806C2.35498 12.0292 2.15169 11.5064 2.05056 10.9073C1.97903 10.4833 1.95341 9.98562 1.93825 9.41807L1.92556 8.82627C1.91414 8.2749 1.91414 7.72629 1.92556 7.17491L1.93825 6.58409C1.95341 6.01639 1.97906 5.51895 2.05056 5.09483C2.05298 5.08044 2.05582 5.06616 2.05837 5.05186C2.09502 5.11667 2.14176 5.17639 2.19899 5.22764L2.31423 5.31065L6.00075 7.46104L6.25856 7.60752C6.85343 7.93402 7.40372 8.15139 7.99978 8.15147C8.68094 8.15146 9.30237 7.86723 9.9988 7.46104L13.6863 5.31065C13.798 5.24544 13.8813 5.1522 13.9402 5.04698C13.9431 5.06296 13.9473 5.07874 13.95 5.09483ZM9.56716 2.60459L10.157 2.62022C10.7236 2.63837 11.2212 2.66643 11.6443 2.74229C12.2444 2.84989 12.767 3.06514 13.2088 3.52159L13.3621 3.69346C13.4586 3.81248 13.5394 3.93709 13.6101 4.06553C13.4132 3.98083 13.1807 3.98552 12.9812 4.10167L9.29372 6.25206C8.63106 6.63855 8.2853 6.75107 7.99978 6.75108C7.74998 6.75101 7.45404 6.66532 6.94021 6.38487L6.70681 6.25206L3.01931 4.10167L2.8904 4.04307C2.72317 3.9865 2.54465 3.99876 2.38845 4.06651C2.49412 3.87445 2.62609 3.69285 2.79177 3.52159L2.96169 3.36143C3.36578 3.01317 3.83112 2.83643 4.35622 2.74229C4.92051 2.64117 5.61699 2.62571 6.43337 2.60459L7.21755 2.58897C8.00062 2.57881 8.78122 2.58427 9.56716 2.60459Z" fill="#262626"/>
</svg>
