<svg width="24" height="24" viewBox="0 0 24 24" fill="none" xmlns="http://www.w3.org/2000/svg">
<path d="M20.5552 7.70298C20.6927 8.51788 20.7122 9.52929 20.7379 10.7694L20.7506 11.9999L20.7379 13.2303C20.7122 14.4704 20.6927 15.4818 20.5552 16.2967C20.43 17.0394 20.1992 17.6728 19.7496 18.2264L19.5435 18.4588C18.9511 19.0709 18.2483 19.3654 17.401 19.5174C16.792 19.6266 16.0702 19.6681 15.2261 19.6952L14.3414 19.7196C13.1674 19.75 12.0013 19.7572 10.8316 19.742L9.65974 19.7196C8.42377 19.6876 7.41196 19.6629 6.60017 19.5174C5.85866 19.3845 5.22803 19.1422 4.68513 18.6737L4.45759 18.4588C3.86982 17.8514 3.58903 17.1454 3.44587 16.2967C3.34277 15.6855 3.30641 14.9639 3.28376 14.118L3.26325 13.2303C3.24623 12.4084 3.24623 11.5913 3.26325 10.7694L3.28376 9.88169C3.30641 9.03587 3.34277 8.3142 3.44587 7.70298C3.45258 7.6632 3.461 7.62398 3.46833 7.58482C3.49613 7.61289 3.52543 7.64006 3.55818 7.66392L3.62263 7.70591L9.1529 10.9325L9.53474 11.1483C10.4097 11.6282 11.1806 11.9256 12.0006 11.9256C12.9375 11.9255 13.8108 11.5375 14.8482 10.9325L20.3785 7.70591C20.437 7.67169 20.4864 7.62799 20.5318 7.58189C20.5393 7.62204 20.5484 7.66218 20.5552 7.70298ZM10.8316 4.25767C12.0013 4.24249 13.1674 4.24977 14.3414 4.28013L15.2261 4.30455C16.0702 4.33165 16.792 4.37311 17.401 4.48228C18.1424 4.61529 18.7731 4.8575 19.316 5.32603L19.5435 5.54087L19.7496 5.7733C19.8907 5.94709 20.0084 6.12975 20.1099 6.32017C19.9472 6.29592 19.7759 6.32174 19.6226 6.41099L14.0924 9.63658C13.0913 10.2205 12.5136 10.4255 12.0006 10.4256C11.5516 10.4256 11.0535 10.2684 10.2652 9.83775L9.90876 9.63658L4.37849 6.41099L4.31013 6.37486C4.17542 6.31366 4.0299 6.29662 3.89118 6.31724C4.03863 6.04105 4.22336 5.78291 4.45759 5.54087L4.68513 5.32603C5.22801 4.85756 5.8587 4.61525 6.60017 4.48228C7.41197 4.33679 8.42378 4.3121 9.65974 4.28013L10.8316 4.25767Z" fill="#E62129"/>
</svg>
