<svg width="20" height="20" viewBox="0 0 20 20" fill="none" xmlns="http://www.w3.org/2000/svg">
<path d="M3.3335 5.00016C3.3335 4.55814 3.50909 4.13421 3.82165 3.82165C4.13421 3.50909 4.55814 3.3335 5.00016 3.3335H6.66683C7.10886 3.3335 7.53278 3.50909 7.84534 3.82165C8.1579 4.13421 8.3335 4.55814 8.3335 5.00016V6.66683C8.3335 7.10886 8.1579 7.53278 7.84534 7.84534C7.53278 8.1579 7.10886 8.3335 6.66683 8.3335H5.00016C4.55814 8.3335 4.13421 8.1579 3.82165 7.84534C3.50909 7.53278 3.3335 7.10886 3.3335 6.66683V5.00016ZM11.6668 5.00016C11.6668 4.55814 11.8424 4.13421 12.155 3.82165C12.4675 3.50909 12.8915 3.3335 13.3335 3.3335H15.0002C15.4422 3.3335 15.8661 3.50909 16.1787 3.82165C16.4912 4.13421 16.6668 4.55814 16.6668 5.00016V6.66683C16.6668 7.10886 16.4912 7.53278 16.1787 7.84534C15.8661 8.1579 15.4422 8.3335 15.0002 8.3335H13.3335C12.8915 8.3335 12.4675 8.1579 12.155 7.84534C11.8424 7.53278 11.6668 7.10886 11.6668 6.66683V5.00016ZM3.3335 13.3335C3.3335 12.8915 3.50909 12.4675 3.82165 12.155C4.13421 11.8424 4.55814 11.6668 5.00016 11.6668H6.66683C7.10886 11.6668 7.53278 11.8424 7.84534 12.155C8.1579 12.4675 8.3335 12.8915 8.3335 13.3335V15.0002C8.3335 15.4422 8.1579 15.8661 7.84534 16.1787C7.53278 16.4912 7.10886 16.6668 6.66683 16.6668H5.00016C4.55814 16.6668 4.13421 16.4912 3.82165 16.1787C3.50909 15.8661 3.3335 15.4422 3.3335 15.0002V13.3335ZM11.6668 13.3335C11.6668 12.8915 11.8424 12.4675 12.155 12.155C12.4675 11.8424 12.8915 11.6668 13.3335 11.6668H15.0002C15.4422 11.6668 15.8661 11.8424 16.1787 12.155C16.4912 12.4675 16.6668 12.8915 16.6668 13.3335V15.0002C16.6668 15.4422 16.4912 15.8661 16.1787 16.1787C15.8661 16.4912 15.4422 16.6668 15.0002 16.6668H13.3335C12.8915 16.6668 12.4675 16.4912 12.155 16.1787C11.8424 15.8661 11.6668 15.4422 11.6668 15.0002V13.3335Z" stroke="#262626" stroke-width="1.5" stroke-linecap="round" stroke-linejoin="round"/>
</svg>
