<svg width="16" height="16" viewBox="0 0 16 16" fill="none" xmlns="http://www.w3.org/2000/svg">
<path d="M2.66699 4.00033C2.66699 3.6467 2.80747 3.30756 3.05752 3.05752C3.30756 2.80747 3.6467 2.66699 4.00033 2.66699H5.33366C5.68728 2.66699 6.02642 2.80747 6.27647 3.05752C6.52652 3.30756 6.66699 3.6467 6.66699 4.00033V5.33366C6.66699 5.68728 6.52652 6.02642 6.27647 6.27647C6.02642 6.52652 5.68728 6.66699 5.33366 6.66699H4.00033C3.6467 6.66699 3.30756 6.52652 3.05752 6.27647C2.80747 6.02642 2.66699 5.68728 2.66699 5.33366V4.00033ZM9.33366 4.00033C9.33366 3.6467 9.47413 3.30756 9.72418 3.05752C9.97423 2.80747 10.3134 2.66699 10.667 2.66699H12.0003C12.3539 2.66699 12.6931 2.80747 12.9431 3.05752C13.1932 3.30756 13.3337 3.6467 13.3337 4.00033V5.33366C13.3337 5.68728 13.1932 6.02642 12.9431 6.27647C12.6931 6.52652 12.3539 6.66699 12.0003 6.66699H10.667C10.3134 6.66699 9.97423 6.52652 9.72418 6.27647C9.47413 6.02642 9.33366 5.68728 9.33366 5.33366V4.00033ZM2.66699 10.667C2.66699 10.3134 2.80747 9.97423 3.05752 9.72418C3.30756 9.47413 3.6467 9.33366 4.00033 9.33366H5.33366C5.68728 9.33366 6.02642 9.47413 6.27647 9.72418C6.52652 9.97423 6.66699 10.3134 6.66699 10.667V12.0003C6.66699 12.3539 6.52652 12.6931 6.27647 12.9431C6.02642 13.1932 5.68728 13.3337 5.33366 13.3337H4.00033C3.6467 13.3337 3.30756 13.1932 3.05752 12.9431C2.80747 12.6931 2.66699 12.3539 2.66699 12.0003V10.667ZM9.33366 10.667C9.33366 10.3134 9.47413 9.97423 9.72418 9.72418C9.97423 9.47413 10.3134 9.33366 10.667 9.33366H12.0003C12.3539 9.33366 12.6931 9.47413 12.9431 9.72418C13.1932 9.97423 13.3337 10.3134 13.3337 10.667V12.0003C13.3337 12.3539 13.1932 12.6931 12.9431 12.9431C12.6931 13.1932 12.3539 13.3337 12.0003 13.3337H10.667C10.3134 13.3337 9.97423 13.1932 9.72418 12.9431C9.47413 12.6931 9.33366 12.3539 9.33366 12.0003V10.667Z" stroke="#0076BE" stroke-width="1.5" stroke-linecap="round" stroke-linejoin="round"/>
</svg>
