<svg width="32" height="32" viewBox="0 0 32 32" fill="none" xmlns="http://www.w3.org/2000/svg">
<path d="M5.3335 8.00016C5.3335 7.29292 5.61445 6.61464 6.11454 6.11454C6.61464 5.61445 7.29292 5.3335 8.00016 5.3335H10.6668C11.3741 5.3335 12.0524 5.61445 12.5524 6.11454C13.0525 6.61464 13.3335 7.29292 13.3335 8.00016V10.6668C13.3335 11.3741 13.0525 12.0524 12.5524 12.5524C12.0524 13.0525 11.3741 13.3335 10.6668 13.3335H8.00016C7.29292 13.3335 6.61464 13.0525 6.11454 12.5524C5.61445 12.0524 5.3335 11.3741 5.3335 10.6668V8.00016ZM18.6668 8.00016C18.6668 7.29292 18.9478 6.61464 19.4479 6.11454C19.948 5.61445 20.6263 5.3335 21.3335 5.3335H24.0002C24.7074 5.3335 25.3857 5.61445 25.8858 6.11454C26.3859 6.61464 26.6668 7.29292 26.6668 8.00016V10.6668C26.6668 11.3741 26.3859 12.0524 25.8858 12.5524C25.3857 13.0525 24.7074 13.3335 24.0002 13.3335H21.3335C20.6263 13.3335 19.948 13.0525 19.4479 12.5524C18.9478 12.0524 18.6668 11.3741 18.6668 10.6668V8.00016ZM5.3335 21.3335C5.3335 20.6263 5.61445 19.948 6.11454 19.4479C6.61464 18.9478 7.29292 18.6668 8.00016 18.6668H10.6668C11.3741 18.6668 12.0524 18.9478 12.5524 19.4479C13.0525 19.948 13.3335 20.6263 13.3335 21.3335V24.0002C13.3335 24.7074 13.0525 25.3857 12.5524 25.8858C12.0524 26.3859 11.3741 26.6668 10.6668 26.6668H8.00016C7.29292 26.6668 6.61464 26.3859 6.11454 25.8858C5.61445 25.3857 5.3335 24.7074 5.3335 24.0002V21.3335ZM18.6668 21.3335C18.6668 20.6263 18.9478 19.948 19.4479 19.4479C19.948 18.9478 20.6263 18.6668 21.3335 18.6668H24.0002C24.7074 18.6668 25.3857 18.9478 25.8858 19.4479C26.3859 19.948 26.6668 20.6263 26.6668 21.3335V24.0002C26.6668 24.7074 26.3859 25.3857 25.8858 25.8858C25.3857 26.3859 24.7074 26.6668 24.0002 26.6668H21.3335C20.6263 26.6668 19.948 26.3859 19.4479 25.8858C18.9478 25.3857 18.6668 24.7074 18.6668 24.0002V21.3335Z" stroke="#8C8C8C" stroke-width="1.5" stroke-linecap="round" stroke-linejoin="round"/>
</svg>
