<svg width="12" height="12" viewBox="0 0 12 12" fill="none" xmlns="http://www.w3.org/2000/svg">
<path d="M2 3C2 2.73478 2.10536 2.48043 2.29289 2.29289C2.48043 2.10536 2.73478 2 3 2H4C4.26522 2 4.51957 2.10536 4.70711 2.29289C4.89464 2.48043 5 2.73478 5 3V4C5 4.26522 4.89464 4.51957 4.70711 4.70711C4.51957 4.89464 4.26522 5 4 5H3C2.73478 5 2.48043 4.89464 2.29289 4.70711C2.10536 4.51957 2 4.26522 2 4V3ZM7 3C7 2.73478 7.10536 2.48043 7.29289 2.29289C7.48043 2.10536 7.73478 2 8 2H9C9.26522 2 9.51957 2.10536 9.70711 2.29289C9.89464 2.48043 10 2.73478 10 3V4C10 4.26522 9.89464 4.51957 9.70711 4.70711C9.51957 4.89464 9.26522 5 9 5H8C7.73478 5 7.48043 4.89464 7.29289 4.70711C7.10536 4.51957 7 4.26522 7 4V3ZM2 8C2 7.73478 2.10536 7.48043 2.29289 7.29289C2.48043 7.10536 2.73478 7 3 7H4C4.26522 7 4.51957 7.10536 4.70711 7.29289C4.89464 7.48043 5 7.73478 5 8V9C5 9.26522 4.89464 9.51957 4.70711 9.70711C4.51957 9.89464 4.26522 10 4 10H3C2.73478 10 2.48043 9.89464 2.29289 9.70711C2.10536 9.51957 2 9.26522 2 9V8ZM7 8C7 7.73478 7.10536 7.48043 7.29289 7.29289C7.48043 7.10536 7.73478 7 8 7H9C9.26522 7 9.51957 7.10536 9.70711 7.29289C9.89464 7.48043 10 7.73478 10 8V9C10 9.26522 9.89464 9.51957 9.70711 9.70711C9.51957 9.89464 9.26522 10 9 10H8C7.73478 10 7.48043 9.89464 7.29289 9.70711C7.10536 9.51957 7 9.26522 7 9V8Z" stroke="#E62129" stroke-width="1.5" stroke-linecap="round" stroke-linejoin="round"/>
</svg>
