<svg width="12" height="12" viewBox="0 0 12 12" fill="none" xmlns="http://www.w3.org/2000/svg">
<path d="M7.16668 1.99951L7.38696 2.40597C7.53591 2.68077 7.61037 2.81817 7.56115 2.87701C7.51189 2.93586 7.34971 2.88833 7.02535 2.79329C6.70107 2.69826 6.35678 2.64713 6 2.64713C4.067 2.64713 2.5 4.14804 2.5 5.99952C2.5 6.6101 2.67044 7.18261 2.96824 7.6757M4.83333 9.99951L4.61303 9.59304C4.46408 9.31824 4.38961 9.18082 4.43885 9.12199C4.4881 9.06315 4.65029 9.11068 4.97464 9.20573C5.29893 9.30075 5.64322 9.35188 6 9.35188C7.933 9.35188 9.5 7.85097 9.5 5.99952C9.5 5.3889 9.32957 4.81641 9.03177 4.32332" stroke="white" stroke-width="1.2" stroke-linecap="round" stroke-linejoin="round"/>
</svg>
