<svg width="20" height="20" viewBox="0 0 20 20" fill="none" xmlns="http://www.w3.org/2000/svg">
<path d="M11.9443 3.3335L12.3114 4.01093C12.5597 4.46893 12.6838 4.69793 12.6017 4.796C12.5197 4.89407 12.2494 4.81487 11.7088 4.65645C11.1683 4.49807 10.5945 4.41286 9.99984 4.41286C6.77817 4.41286 4.1665 6.91438 4.1665 10.0002C4.1665 11.0178 4.45057 11.972 4.9469 12.7938M8.05539 16.6668L7.68822 15.9894C7.43997 15.5314 7.31585 15.3023 7.39792 15.2043C7.48 15.1062 7.75031 15.1854 8.29091 15.3439C8.83139 15.5022 9.40521 15.5874 9.99984 15.5874C13.2215 15.5874 15.8332 13.0859 15.8332 10.0002C15.8332 8.98248 15.5491 8.02832 15.0528 7.2065" stroke="#E62129" stroke-width="1.4" stroke-linecap="round" stroke-linejoin="round"/>
</svg>
