<svg width="24" height="24" viewBox="0 0 24 24" fill="none" xmlns="http://www.w3.org/2000/svg">
<path d="M14.3334 4L14.7739 4.81292C15.0718 5.36252 15.2207 5.63732 15.1223 5.755C15.0238 5.87269 14.6994 5.77764 14.0507 5.58755C13.4021 5.39749 12.7136 5.29524 12 5.29524C8.134 5.29524 5 8.29706 5 12C5 13.2212 5.34088 14.3662 5.93647 15.3524M9.66666 20L9.22605 19.1871C8.92816 18.6375 8.77922 18.3626 8.87771 18.2449C8.9762 18.1273 9.30057 18.2223 9.94929 18.4124C10.5979 18.6025 11.2864 18.7047 12 18.7047C15.866 18.7047 19 15.7029 19 12C19 10.7788 18.6591 9.63379 18.0635 8.64761" stroke="#262626" stroke-width="1.5" stroke-linecap="round" stroke-linejoin="round"/>
</svg>
