<svg width="32" height="32" viewBox="0 0 32 32" fill="none" xmlns="http://www.w3.org/2000/svg">
<path d="M19.111 5.3335L19.6984 6.4174C20.0956 7.15018 20.2942 7.51658 20.1629 7.6735C20.0315 7.83042 19.5991 7.70369 18.7341 7.45023C17.8694 7.19682 16.9512 7.06048 15.9998 7.06048C10.8452 7.06048 6.6665 11.0629 6.6665 16.0002C6.6665 17.6284 7.12101 19.1551 7.91514 20.47M12.8887 26.6668L12.3012 25.5829C11.9041 24.8501 11.7055 24.4837 11.8368 24.3268C11.9681 24.1699 12.4006 24.2966 13.2656 24.5501C14.1303 24.8035 15.0484 24.9398 15.9998 24.9398C21.1545 24.9398 25.3332 20.9374 25.3332 16.0002C25.3332 14.3719 24.8787 12.8452 24.0846 11.5303" stroke="#262626" stroke-width="1.5" stroke-linecap="round" stroke-linejoin="round"/>
</svg>
