<svg width="16" height="16" viewBox="0 0 16 16" fill="none" xmlns="http://www.w3.org/2000/svg">
<path d="M9.55525 2.6665L9.84895 3.20845C10.0476 3.57485 10.1468 3.75805 10.0812 3.83651C10.0155 3.91496 9.79929 3.8516 9.36681 3.72487C8.93443 3.59816 8.47538 3.52999 7.99967 3.52999C5.42234 3.52999 3.33301 5.53121 3.33301 7.99985C3.33301 8.81396 3.56026 9.5773 3.95732 10.2348M6.44412 13.3332L6.15038 12.7912C5.95178 12.4248 5.85249 12.2416 5.91814 12.1631C5.98381 12.0847 6.20006 12.1481 6.63253 12.2748C7.06492 12.4015 7.52397 12.4697 7.99967 12.4697C10.577 12.4697 12.6663 10.4684 12.6663 7.99985C12.6663 7.18569 12.4391 6.42236 12.042 5.76491" stroke="#262626" stroke-width="1.3" stroke-linecap="round" stroke-linejoin="round"/>
</svg>
