<svg width="20" height="20" viewBox="0 0 20 20" fill="none" xmlns="http://www.w3.org/2000/svg">
<path d="M8.61905 3.68773L4.35805 6.30818C2.99198 7.14833 2.99198 9.02865 4.35805 9.8688L8.61905 12.4893C9.38348 12.9627 10.6434 12.9627 11.4078 12.4893L15.6476 9.8688C17.0066 9.02865 17.0066 7.15499 15.6476 6.31485L11.4078 3.6944C10.6434 3.21431 9.38348 3.21431 8.61905 3.68773Z" stroke="#C2D43D" stroke-width="1.5" stroke-linecap="round" stroke-linejoin="round"/>
<path d="M5.48999 10.7222L5.48291 13.8494C5.48291 14.6962 6.17656 15.603 7.02593 15.8697L9.28384 16.5765C9.67313 16.6965 10.3172 16.6965 10.7136 16.5765L12.9715 15.8697C13.8209 15.603 14.5145 14.6962 14.5145 13.8494V10.7555" stroke="#C2D43D" stroke-width="1.5" stroke-linecap="round" stroke-linejoin="round"/>
<path d="M16.6523 12.0026V8.00195" stroke="#C2D43D" stroke-width="1.5" stroke-linecap="round" stroke-linejoin="round"/>
</svg>
