<svg width="24" height="24" viewBox="0 0 24 24" fill="none" xmlns="http://www.w3.org/2000/svg">
<path d="M10.3427 4.42508L5.22946 7.56962C3.59018 8.5778 3.59018 10.8342 5.22946 11.8424L10.3427 14.9869C11.26 15.555 12.7719 15.555 13.6892 14.9869L18.7769 11.8424C20.4077 10.8342 20.4077 8.5858 18.7769 7.57762L13.6892 4.43308C12.7719 3.85698 11.26 3.85698 10.3427 4.42508Z" stroke="#C2D43D" stroke-width="1.5" stroke-linecap="round" stroke-linejoin="round"/>
<path d="M6.58808 12.8667L6.57959 16.6193C6.57959 17.6355 7.41197 18.7237 8.43122 19.0438L11.1407 19.8919C11.6079 20.0359 12.3808 20.0359 12.8564 19.8919L15.5659 19.0438C16.5852 18.7237 17.4175 17.6355 17.4175 16.6193V12.9067" stroke="#C2D43D" stroke-width="1.5" stroke-linecap="round" stroke-linejoin="round"/>
<path d="M19.9829 14.4029V9.60205" stroke="#C2D43D" stroke-width="1.5" stroke-linecap="round" stroke-linejoin="round"/>
</svg>
