<svg width="12" height="12" viewBox="0 0 12 12" fill="none" xmlns="http://www.w3.org/2000/svg">
<path d="M5.17133 2.21254L2.61473 3.78481C1.79509 4.2889 1.79509 5.41709 2.61473 5.92118L5.17133 7.49345C5.62999 7.7775 6.38593 7.7775 6.84459 7.49345L9.38845 5.92118C10.2038 5.41709 10.2038 4.2929 9.38845 3.78881L6.84459 2.21654C6.38593 1.92849 5.62999 1.92849 5.17133 2.21254Z" stroke="#8C8C8C" stroke-width="1.5" stroke-linecap="round" stroke-linejoin="round"/>
<path d="M3.2938 6.43311L3.28955 8.30943C3.28955 8.81752 3.70574 9.36161 4.21536 9.52164L5.57011 9.94571C5.80368 10.0177 6.19015 10.0177 6.42797 9.94571L7.78272 9.52164C8.29234 9.36161 8.70853 8.81752 8.70853 8.30943V6.45311" stroke="#8C8C8C" stroke-width="1.5" stroke-linecap="round" stroke-linejoin="round"/>
<path d="M9.99121 7.2012V4.80078" stroke="#8C8C8C" stroke-width="1.5" stroke-linecap="round" stroke-linejoin="round"/>
</svg>
