<svg width="16" height="16" viewBox="0 0 16 16" fill="none" xmlns="http://www.w3.org/2000/svg">
<path d="M6.89544 2.95038L3.48663 5.04674C2.39378 5.71886 2.39378 7.22312 3.48663 7.89523L6.89544 9.9916C7.50698 10.3703 8.5149 10.3703 9.12645 9.9916L12.5183 7.89523C13.6055 7.22312 13.6055 5.72419 12.5183 5.05207L9.12645 2.95571C8.5149 2.57165 7.50698 2.57165 6.89544 2.95038Z" stroke="#8C8C8C" stroke-width="1.5" stroke-linecap="round" stroke-linejoin="round"/>
<path d="M4.39189 8.57764L4.38623 11.0794C4.38623 11.7569 4.94115 12.4823 5.62065 12.6957L7.42697 13.2611C7.73841 13.3571 8.25369 13.3571 8.57079 13.2611L10.3771 12.6957C11.0566 12.4823 11.6115 11.7569 11.6115 11.0794V8.60431" stroke="#8C8C8C" stroke-width="1.5" stroke-linecap="round" stroke-linejoin="round"/>
<path d="M13.3218 9.60192V6.40137" stroke="#8C8C8C" stroke-width="1.5" stroke-linecap="round" stroke-linejoin="round"/>
</svg>
