<svg width="32" height="32" viewBox="0 0 32 32" fill="none" xmlns="http://www.w3.org/2000/svg">
<path d="M13.7904 5.90027L6.97278 10.093C4.78707 11.4372 4.78707 14.4457 6.97278 15.79L13.7904 19.9827C15.0135 20.7402 17.0293 20.7402 18.2524 19.9827L25.036 15.79C27.2104 14.4457 27.2104 11.4479 25.036 10.1037L18.2524 5.91094C17.0293 5.1428 15.0135 5.1428 13.7904 5.90027Z" stroke="white" stroke-width="1.5" stroke-linecap="round" stroke-linejoin="round"/>
<path d="M8.78427 17.1558L8.77295 22.1593C8.77295 23.5142 9.88279 24.9651 11.2418 25.3919L14.8544 26.5227C15.4773 26.7147 16.5079 26.7147 17.1421 26.5227L20.7547 25.3919C22.1137 24.9651 23.2236 23.5142 23.2236 22.1593V17.2091" stroke="white" stroke-width="1.5" stroke-linecap="round" stroke-linejoin="round"/>
<path d="M26.644 19.2038V12.8027" stroke="white" stroke-width="1.5" stroke-linecap="round" stroke-linejoin="round"/>
</svg>
