<svg width="16" height="16" viewBox="0 0 16 16" fill="none" xmlns="http://www.w3.org/2000/svg">
<path fill-rule="evenodd" clip-rule="evenodd" d="M3.33345 8.95346V8.83666C3.35058 8.49112 3.46133 8.15632 3.65426 7.86678C3.97541 7.51897 4.19525 7.09275 4.29072 6.63285C4.29072 6.27739 4.29072 5.91686 4.32177 5.56141C4.48218 3.85015 6.17422 2.66699 7.84557 2.66699H7.88697C9.55832 2.66699 11.2504 3.85015 11.4159 5.56141C11.447 5.91686 11.4159 6.27739 11.4418 6.63285C11.5386 7.09382 11.7582 7.52136 12.0783 7.87186C12.2727 8.15883 12.3836 8.49241 12.3991 8.83666V8.94838C12.4106 9.41262 12.2508 9.8653 11.9489 10.2229C11.5501 10.6411 11.0088 10.9013 10.4276 10.9542C8.7234 11.137 7.00396 11.137 5.29974 10.9542C4.71922 10.899 4.17875 10.6392 3.77845 10.2229C3.48127 9.86502 3.32354 9.41504 3.33345 8.95346Z" stroke="#0076BE" stroke-width="1.3" stroke-linecap="round" stroke-linejoin="round"/>
<path d="M6.56299 12.7207C6.82927 13.0549 7.2203 13.2712 7.64954 13.3217C8.07879 13.3723 8.51085 13.2528 8.8501 12.9898C8.95444 12.9121 9.04832 12.8216 9.12952 12.7207" stroke="#0076BE" stroke-width="1.3" stroke-linecap="round" stroke-linejoin="round"/>
</svg>
