<svg width="20" height="20" viewBox="0 0 20 20" fill="none" xmlns="http://www.w3.org/2000/svg">
<path fill-rule="evenodd" clip-rule="evenodd" d="M4.16705 11.1916V11.0456C4.18847 10.6137 4.3269 10.1952 4.56807 9.83323C4.96951 9.39847 5.24431 8.8657 5.36365 8.29081C5.36365 7.8465 5.36365 7.39583 5.40245 6.95151C5.60296 4.81244 7.71802 3.3335 9.80721 3.3335H9.85895C11.9481 3.3335 14.0632 4.81244 14.2702 6.95151C14.309 7.39583 14.2702 7.8465 14.3025 8.29081C14.4235 8.86703 14.698 9.40146 15.0981 9.83958C15.3411 10.1983 15.4797 10.6153 15.4991 11.0456V11.1852C15.5135 11.7655 15.3137 12.3314 14.9364 12.7784C14.4378 13.3011 13.7612 13.6263 13.0348 13.6925C10.9045 13.921 8.75519 13.921 6.62492 13.6925C5.89927 13.6235 5.22368 13.2988 4.72331 12.7784C4.35184 12.331 4.15466 11.7686 4.16705 11.1916Z" stroke="#0076BE" stroke-width="1.4" stroke-linecap="round" stroke-linejoin="round"/>
<path d="M8.20361 15.9009C8.53646 16.3187 9.02525 16.589 9.56181 16.6522C10.0984 16.7153 10.6384 16.566 11.0625 16.2373C11.1929 16.1401 11.3103 16.027 11.4118 15.9009" stroke="#0076BE" stroke-width="1.4" stroke-linecap="round" stroke-linejoin="round"/>
</svg>
