<svg width="12" height="12" viewBox="0 0 12 12" fill="none" xmlns="http://www.w3.org/2000/svg">
<path fill-rule="evenodd" clip-rule="evenodd" d="M2.50033 6.71485V6.62725C2.51318 6.3681 2.59624 6.117 2.74094 5.89984C2.9818 5.63898 3.14668 5.31932 3.21829 4.97439C3.21829 4.7078 3.21829 4.4374 3.24157 4.17081C3.36188 2.88737 4.63091 2 5.88442 2H5.91547C7.16898 2 8.43802 2.88737 8.5622 4.17081C8.58549 4.4374 8.5622 4.7078 8.58161 4.97439C8.65417 5.32012 8.81889 5.64078 9.05895 5.90365C9.20473 6.11888 9.28793 6.36906 9.29956 6.62725V6.71104C9.30822 7.05922 9.18831 7.39873 8.96193 7.66696C8.66278 7.98059 8.25685 8.17571 7.82096 8.21537C6.5428 8.35248 5.25321 8.35248 3.97505 8.21537C3.53966 8.174 3.1343 7.97916 2.83408 7.66696C2.6112 7.39852 2.4929 7.06103 2.50033 6.71485Z" stroke="white" stroke-width="1.2" stroke-linecap="round" stroke-linejoin="round"/>
<path d="M4.92236 9.54053C5.12207 9.7912 5.41535 9.95342 5.73728 9.99131C6.05921 10.0292 6.38326 9.9396 6.63769 9.74237C6.71595 9.68404 6.78637 9.61622 6.84726 9.54053" stroke="white" stroke-width="1.2" stroke-linecap="round" stroke-linejoin="round"/>
</svg>
