<svg width="32" height="32" viewBox="0 0 32 32" fill="none" xmlns="http://www.w3.org/2000/svg">
<path fill-rule="evenodd" clip-rule="evenodd" d="M6.66738 17.9064V17.6728C6.70165 16.9818 6.92314 16.3122 7.30902 15.7331C7.95131 15.0375 8.39099 14.185 8.58193 13.2652C8.58193 12.5543 8.58193 11.8332 8.64403 11.1223C8.96484 7.69981 12.3489 5.3335 15.6916 5.3335H15.7744C19.1171 5.3335 22.5012 7.69981 22.8324 11.1223C22.8945 11.8332 22.8324 12.5543 22.8841 13.2652C23.0776 14.1872 23.5169 15.0422 24.157 15.7432C24.5458 16.3172 24.7676 16.9843 24.7987 17.6728V17.8963C24.8218 18.8247 24.502 19.7301 23.8983 20.4454C23.1006 21.2817 22.0181 21.8021 20.8557 21.9078C17.4473 22.2734 14.0084 22.2734 10.6 21.9078C9.43892 21.7975 8.35798 21.2779 7.55739 20.4454C6.96304 19.7296 6.64756 18.8296 6.66738 17.9064Z" stroke="white" stroke-width="1.5" stroke-linecap="round" stroke-linejoin="round"/>
<path d="M13.1255 25.4414C13.658 26.1099 14.4401 26.5425 15.2986 26.6435C16.1571 26.7445 17.0212 26.5056 17.6997 25.9797C17.9084 25.8241 18.0962 25.6433 18.2585 25.4414" stroke="white" stroke-width="1.5" stroke-linecap="round" stroke-linejoin="round"/>
</svg>
