<svg width="12" height="12" viewBox="0 0 12 12" fill="none" xmlns="http://www.w3.org/2000/svg">
<path d="M3.93201 7.39294C3.3661 7.7299 1.88232 8.41794 2.78604 9.27894C3.2275 9.6995 3.71917 10.0003 4.33733 10.0003H7.86462C8.48278 10.0003 8.97446 9.6995 9.4159 9.27894C10.3196 8.41794 8.83586 7.7299 8.26994 7.39294C6.9429 6.60274 5.25905 6.60274 3.93201 7.39294Z" stroke="#262626" stroke-width="1.5" stroke-linecap="round" stroke-linejoin="round"/>
<path d="M7.8998 3.8C7.8998 4.79411 7.09392 5.6 6.0998 5.6C5.10569 5.6 4.2998 4.79411 4.2998 3.8C4.2998 2.80589 5.10569 2 6.0998 2C7.09392 2 7.8998 2.80589 7.8998 3.8Z" stroke="#262626" stroke-width="1.5"/>
</svg>
