<svg width="16" height="16" viewBox="0 0 16 16" fill="none" xmlns="http://www.w3.org/2000/svg">
<path d="M5.24105 9.85709C4.4865 10.3064 2.50813 11.2238 3.71309 12.3718C4.30171 12.9325 4.95727 13.3336 5.78147 13.3336H10.4845C11.3087 13.3336 11.9643 12.9325 12.5529 12.3718C13.7579 11.2238 11.7795 10.3064 11.025 9.85709C9.25557 8.80349 7.01044 8.80349 5.24105 9.85709Z" stroke="#C2D43D" stroke-width="1.5" stroke-linecap="round" stroke-linejoin="round"/>
<path d="M10.5324 5.0665C10.5324 6.39199 9.45792 7.4665 8.13242 7.4665C6.80694 7.4665 5.73242 6.39199 5.73242 5.0665C5.73242 3.74102 6.80694 2.6665 8.13242 2.6665C9.45792 2.6665 10.5324 3.74102 10.5324 5.0665Z" stroke="#C2D43D" stroke-width="1.5"/>
</svg>
