<svg width="20" height="20" viewBox="0 0 20 20" fill="none" xmlns="http://www.w3.org/2000/svg">
<path d="M6.55106 12.3212C5.60788 12.8828 3.13492 14.0296 4.64112 15.4646C5.37689 16.1655 6.19634 16.6668 7.2266 16.6668H13.1054C14.1357 16.6668 14.9552 16.1655 15.6909 15.4646C17.1971 14.0296 14.7242 12.8828 13.781 12.3212C11.5692 11.0042 8.76281 11.0042 6.55106 12.3212Z" stroke="#C2D43D" stroke-width="1.5" stroke-linecap="round" stroke-linejoin="round"/>
<path d="M13.166 6.3335C13.166 7.99035 11.8229 9.3335 10.166 9.3335C8.50916 9.3335 7.16602 7.99035 7.16602 6.3335C7.16602 4.67664 8.50916 3.3335 10.166 3.3335C11.8229 3.3335 13.166 4.67664 13.166 6.3335Z" stroke="#C2D43D" stroke-width="1.5"/>
</svg>
