<svg width="24" height="24" viewBox="0 0 24 24" fill="none" xmlns="http://www.w3.org/2000/svg">
<path d="M7.86206 14.7854C6.73024 15.4593 3.76269 16.8354 5.57013 18.5574C6.45305 19.3985 7.43639 20.0001 8.6727 20.0001H15.7273C16.9636 20.0001 17.947 19.3985 18.8298 18.5574C20.6373 16.8354 17.6698 15.4593 16.5379 14.7854C13.8838 13.205 10.5162 13.205 7.86206 14.7854Z" stroke="#8C8C8C" stroke-width="1.5" stroke-linecap="round" stroke-linejoin="round"/>
<path d="M15.7996 7.6C15.7996 9.58822 14.1878 11.2 12.1996 11.2C10.2114 11.2 8.59961 9.58822 8.59961 7.6C8.59961 5.61178 10.2114 4 12.1996 4C14.1878 4 15.7996 5.61178 15.7996 7.6Z" stroke="#8C8C8C" stroke-width="1.5"/>
</svg>
