<svg width="32" height="32" viewBox="0 0 32 32" fill="none" xmlns="http://www.w3.org/2000/svg">
<path d="M10.4821 19.7137C8.97301 20.6123 5.01627 22.447 7.42619 24.743C8.60342 25.8645 9.91454 26.6667 11.5629 26.6667H20.9691C22.6175 26.6667 23.9286 25.8645 25.1058 24.743C27.5157 22.447 23.559 20.6123 22.0499 19.7137C18.5111 17.6065 14.0209 17.6065 10.4821 19.7137Z" stroke="#8C8C8C" stroke-width="1.5" stroke-linecap="round" stroke-linejoin="round"/>
<path d="M21.0658 10.1333C21.0658 12.7842 18.9168 14.9333 16.2658 14.9333C13.6149 14.9333 11.4658 12.7842 11.4658 10.1333C11.4658 7.48229 13.6149 5.33325 16.2658 5.33325C18.9168 5.33325 21.0658 7.48229 21.0658 10.1333Z" stroke="#8C8C8C" stroke-width="1.5"/>
</svg>
