<svg width="32" height="32" viewBox="0 0 32 32" fill="none" xmlns="http://www.w3.org/2000/svg">
<path d="M10.4821 19.7142C8.97301 20.6127 5.01627 22.4475 7.42619 24.7435C8.60342 25.865 9.91454 26.6671 11.5629 26.6671H20.9691C22.6175 26.6671 23.9286 25.865 25.1058 24.7435C27.5157 22.4475 23.559 20.6127 22.0499 19.7142C18.5111 17.607 14.0209 17.607 10.4821 19.7142Z" stroke="#E62129" stroke-width="1.5" stroke-linecap="round" stroke-linejoin="round"/>
<path d="M21.0658 10.1335C21.0658 12.7845 18.9168 14.9335 16.2658 14.9335C13.6149 14.9335 11.4658 12.7845 11.4658 10.1335C11.4658 7.48253 13.6149 5.3335 16.2658 5.3335C18.9168 5.3335 21.0658 7.48253 21.0658 10.1335Z" stroke="#E62129" stroke-width="1.5"/>
</svg>
