<svg width="32" height="32" viewBox="0 0 32 32" fill="none" xmlns="http://www.w3.org/2000/svg">
<path d="M10.4821 19.7139C8.97301 20.6125 5.01627 22.4473 7.42619 24.7433C8.60342 25.8648 9.91454 26.6669 11.5629 26.6669H20.9691C22.6175 26.6669 23.9286 25.8648 25.1058 24.7433C27.5157 22.4473 23.559 20.6125 22.0499 19.7139C18.5111 17.6067 14.0209 17.6067 10.4821 19.7139Z" stroke="#262626" stroke-width="1.5" stroke-linecap="round" stroke-linejoin="round"/>
<path d="M21.0658 10.1333C21.0658 12.7842 18.9168 14.9333 16.2658 14.9333C13.6149 14.9333 11.4658 12.7842 11.4658 10.1333C11.4658 7.48229 13.6149 5.33325 16.2658 5.33325C18.9168 5.33325 21.0658 7.48229 21.0658 10.1333Z" stroke="#262626" stroke-width="1.5"/>
</svg>
