<svg width="16" height="16" viewBox="0 0 16 16" fill="none" xmlns="http://www.w3.org/2000/svg">
<path d="M13.3333 4.73946V5.9936C13.3333 6.81242 12.8 7.33066 11.9573 7.33066H10.1333V3.70816C10.1333 3.13292 10.6186 2.6665 11.2106 2.6665C11.792 2.67169 12.3253 2.89971 12.7093 3.27284C13.0933 3.65116 13.3333 4.1694 13.3333 4.73946Z" stroke="#262626" stroke-width="1.5" stroke-miterlimit="10" stroke-linecap="round" stroke-linejoin="round"/>
<path d="M2.6665 5.2577V12.5131C2.6665 12.9432 3.16784 13.1868 3.51985 12.9276L4.43186 12.2643C4.6452 12.1088 4.94387 12.1296 5.13587 12.3161L6.02122 13.1816C6.22922 13.3837 6.57056 13.3837 6.77856 13.1816L7.67457 12.3109C7.86124 12.1296 8.15991 12.1088 8.36792 12.2643L9.27993 12.9276C9.63194 13.1816 10.1333 12.938 10.1333 12.5131V3.70298C10.1333 3.13292 10.6133 2.6665 11.2 2.6665H5.33321H4.79987C3.19984 2.6665 2.6665 3.59415 2.6665 4.73946V5.2577Z" stroke="#262626" stroke-width="1.5" stroke-miterlimit="10" stroke-linecap="round" stroke-linejoin="round"/>
<path d="M6.3999 8.37256H7.99992" stroke="#262626" stroke-width="1.5" stroke-linecap="round" stroke-linejoin="round"/>
<path d="M6.3999 6.29932H7.99992" stroke="#262626" stroke-width="1.5" stroke-linecap="round" stroke-linejoin="round"/>
<path d="M4.79736 8.36719H4.80202" stroke="#262626" stroke-width="1.5" stroke-linecap="round" stroke-linejoin="round"/>
<path d="M4.79736 6.29443H4.80202" stroke="#262626" stroke-width="1.5" stroke-linecap="round" stroke-linejoin="round"/>
</svg>
