<svg width="24" height="24" viewBox="0 0 24 24" fill="none" xmlns="http://www.w3.org/2000/svg">
<path d="M19.9998 7.10944V8.99065C19.9998 10.2189 19.1998 10.9962 17.9357 10.9962H15.1997V5.56249C15.1997 4.69962 15.9277 4 16.8157 4C17.6877 4.00777 18.4878 4.34981 19.0638 4.90951C19.6398 5.47698 19.9998 6.25434 19.9998 7.10944Z" stroke="#0076BE" stroke-width="1.5" stroke-miterlimit="10" stroke-linecap="round" stroke-linejoin="round"/>
<path d="M4 7.8868V18.7698C4 19.415 4.75201 19.7804 5.28002 19.3917L6.64804 18.3967C6.96804 18.1635 7.41605 18.1946 7.70405 18.4744L9.03207 19.7726C9.34408 20.0758 9.85608 20.0758 10.1681 19.7726L11.5121 18.4667C11.7921 18.1946 12.2401 18.1635 12.5521 18.3967L13.9201 19.3917C14.4481 19.7726 15.2002 19.4073 15.2002 18.7698V5.55472C15.2002 4.69962 15.9202 4 16.8002 4H8.00006H7.20005C4.80001 4 4 5.39147 4 7.10944V7.8868Z" stroke="#0076BE" stroke-width="1.5" stroke-miterlimit="10" stroke-linecap="round" stroke-linejoin="round"/>
<path d="M9.6001 12.5586H12.0001" stroke="#0076BE" stroke-width="1.5" stroke-linecap="round" stroke-linejoin="round"/>
<path d="M9.6001 9.44922H12.0001" stroke="#0076BE" stroke-width="1.5" stroke-linecap="round" stroke-linejoin="round"/>
<path d="M7.19629 12.5508H7.20327" stroke="#0076BE" stroke-width="2" stroke-linecap="round" stroke-linejoin="round"/>
<path d="M7.19629 9.44141H7.20327" stroke="#0076BE" stroke-width="2" stroke-linecap="round" stroke-linejoin="round"/>
</svg>
