<svg width="12" height="12" viewBox="0 0 12 12" fill="none" xmlns="http://www.w3.org/2000/svg">
<path d="M10.0001 3.55472V4.49532C10.0001 5.10944 9.60013 5.49812 8.96812 5.49812H7.6001V2.78125C7.6001 2.34981 7.9641 2 8.40811 2C8.84412 2.00389 9.24412 2.17491 9.53213 2.45475C9.82013 2.73849 10.0001 3.12717 10.0001 3.55472Z" stroke="#0076BE" stroke-width="1.5" stroke-miterlimit="10" stroke-linecap="round" stroke-linejoin="round"/>
<path d="M2 3.9434V9.38491C2 9.70752 2.37601 9.8902 2.64001 9.69586L3.32402 9.19835C3.48402 9.08174 3.70802 9.09729 3.85203 9.23722L4.51604 9.88631C4.67204 10.0379 4.92804 10.0379 5.08404 9.88631L5.75605 9.23333C5.89606 9.09729 6.12006 9.08174 6.27606 9.19835L6.96007 9.69586C7.22407 9.88631 7.60008 9.70363 7.60008 9.38491V2.77736C7.60008 2.34981 7.96008 2 8.40009 2H4.00003H3.60002C2.40001 2 2 2.69574 2 3.55472V3.9434Z" stroke="#0076BE" stroke-width="1.5" stroke-miterlimit="10" stroke-linecap="round" stroke-linejoin="round"/>
<path d="M4.7998 6.2793H5.99982" stroke="#0076BE" stroke-width="1.5" stroke-linecap="round" stroke-linejoin="round"/>
<path d="M4.7998 4.72461H5.99982" stroke="#0076BE" stroke-width="1.5" stroke-linecap="round" stroke-linejoin="round"/>
<path d="M3.59814 6.27539H3.60164" stroke="#0076BE" stroke-width="1.5" stroke-linecap="round" stroke-linejoin="round"/>
<path d="M3.59814 4.7207H3.60164" stroke="#0076BE" stroke-width="1.5" stroke-linecap="round" stroke-linejoin="round"/>
</svg>
