<svg width="32" height="32" viewBox="0 0 32 32" fill="none" xmlns="http://www.w3.org/2000/svg">
<path d="M26.6662 9.47941V11.9877C26.6662 13.6253 25.5995 14.6618 23.9142 14.6618H20.2661V7.41682C20.2661 6.26633 21.2368 5.3335 22.4208 5.3335C23.5835 5.34386 24.6502 5.79991 25.4182 6.54617C26.1862 7.3028 26.6662 8.33929 26.6662 9.47941Z" stroke="white" stroke-width="1.5" stroke-miterlimit="10" stroke-linecap="round" stroke-linejoin="round"/>
<path d="M5.3335 10.5159V25.0266C5.3335 25.8869 6.33618 26.374 7.04019 25.8558L8.86421 24.5291C9.29089 24.2181 9.88823 24.2596 10.2722 24.6327L12.0429 26.3637C12.4589 26.7679 13.1416 26.7679 13.5576 26.3637L15.3496 24.6224C15.723 24.2596 16.3203 24.2181 16.7363 24.5291L18.5603 25.8558C19.2644 26.3637 20.267 25.8765 20.267 25.0266V7.40645C20.267 6.26633 21.2271 5.3335 22.4004 5.3335H10.6669H9.60022C6.40018 5.3335 5.3335 7.18879 5.3335 9.47941V10.5159Z" stroke="white" stroke-width="1.5" stroke-miterlimit="10" stroke-linecap="round" stroke-linejoin="round"/>
<path d="M12.8003 16.7446H16.0003" stroke="white" stroke-width="1.5" stroke-linecap="round" stroke-linejoin="round"/>
<path d="M12.8003 12.5991H16.0003" stroke="white" stroke-width="1.5" stroke-linecap="round" stroke-linejoin="round"/>
<path d="M9.59521 16.7344H9.60452" stroke="white" stroke-width="2" stroke-linecap="round" stroke-linejoin="round"/>
<path d="M9.59521 12.5884H9.60452" stroke="white" stroke-width="2" stroke-linecap="round" stroke-linejoin="round"/>
</svg>
