<svg width="20" height="20" viewBox="0 0 20 20" fill="none" xmlns="http://www.w3.org/2000/svg">
<path d="M16.6666 5.92421V7.49188C16.6666 8.5154 15.9999 9.1632 14.9465 9.1632H12.6665V4.63508C12.6665 3.91603 13.2732 3.33301 14.0132 3.33301C14.7399 3.33949 15.4065 3.62452 15.8865 4.09093C16.3666 4.56383 16.6666 5.21163 16.6666 5.92421Z" stroke="white" stroke-width="1.5" stroke-miterlimit="10" stroke-linecap="round" stroke-linejoin="round"/>
<path d="M3.33301 6.57201V15.6412C3.33301 16.1789 3.95968 16.4833 4.39969 16.1594L5.53971 15.3303C5.80638 15.1359 6.17971 15.1618 6.41972 15.395L7.5264 16.4769C7.7864 16.7295 8.21308 16.7295 8.47308 16.4769L9.5931 15.3886C9.82643 15.1618 10.1998 15.1359 10.4598 15.3303L11.5998 16.1594C12.0398 16.4769 12.6665 16.1724 12.6665 15.6412V4.62861C12.6665 3.91603 13.2665 3.33301 13.9998 3.33301H6.66639H5.99971C3.99968 3.33301 3.33301 4.49257 3.33301 5.92421V6.57201Z" stroke="white" stroke-width="1.5" stroke-miterlimit="10" stroke-linecap="round" stroke-linejoin="round"/>
<path d="M8 10.4658H10" stroke="white" stroke-width="1.5" stroke-linecap="round" stroke-linejoin="round"/>
<path d="M8 7.87402H10" stroke="white" stroke-width="1.5" stroke-linecap="round" stroke-linejoin="round"/>
<path d="M5.99658 10.459H6.0024" stroke="white" stroke-width="2" stroke-linecap="round" stroke-linejoin="round"/>
<path d="M5.99658 7.86816H6.0024" stroke="white" stroke-width="2" stroke-linecap="round" stroke-linejoin="round"/>
</svg>
