<svg width="32" height="32" viewBox="0 0 32 32" fill="none" xmlns="http://www.w3.org/2000/svg">
<path d="M5.33398 26.6558H26.6673" stroke="#0076BE" stroke-width="1.5" stroke-miterlimit="10" stroke-linecap="round" stroke-linejoin="round"/>
<path d="M23.5449 26.6669V21.6592" stroke="#0076BE" stroke-width="1.5" stroke-miterlimit="10" stroke-linecap="round" stroke-linejoin="round"/>
<path d="M23.5635 14.1816C22.3805 14.1816 21.4302 15.282 21.4302 16.6518V19.2005C21.4302 20.5704 22.3805 21.6707 23.5635 21.6707C24.7466 21.6707 25.6969 20.5704 25.6969 19.2005V16.6518C25.6969 15.282 24.7466 14.1816 23.5635 14.1816Z" stroke="#0076BE" stroke-width="1.5" stroke-miterlimit="10" stroke-linecap="round" stroke-linejoin="round"/>
<path d="M6.40039 26.6555V8.72438C6.40039 6.46755 7.37014 5.3335 9.29983 5.3335H15.341C17.2707 5.3335 18.2307 6.46755 18.2307 8.72438V26.6555" stroke="#0076BE" stroke-width="1.5" stroke-miterlimit="10" stroke-linecap="round" stroke-linejoin="round"/>
<path d="M9.9873 11.2173H14.7873" stroke="#0076BE" stroke-width="1.5" stroke-miterlimit="10" stroke-linecap="round" stroke-linejoin="round"/>
<path d="M9.9873 15.4277H14.7873" stroke="#0076BE" stroke-width="1.5" stroke-miterlimit="10" stroke-linecap="round" stroke-linejoin="round"/>
<path d="M12.3638 26.6558V22.4453" stroke="#0076BE" stroke-width="1.5" stroke-miterlimit="10" stroke-linecap="round" stroke-linejoin="round"/>
</svg>
