<svg width="24" height="24" viewBox="0 0 24 24" fill="none" xmlns="http://www.w3.org/2000/svg">
<path d="M4 19.9917H20" stroke="#C2D43D" stroke-width="1.5" stroke-miterlimit="10" stroke-linecap="round" stroke-linejoin="round"/>
<path d="M17.6582 19.9999V16.2441" stroke="#C2D43D" stroke-width="1.5" stroke-miterlimit="10" stroke-linecap="round" stroke-linejoin="round"/>
<path d="M17.6723 10.6357C16.785 10.6357 16.0723 11.461 16.0723 12.4884V14.3999C16.0723 15.4273 16.785 16.2526 17.6723 16.2526C18.5595 16.2526 19.2723 15.4273 19.2723 14.3999V12.4884C19.2723 11.461 18.5595 10.6357 17.6723 10.6357Z" stroke="#C2D43D" stroke-width="1.5" stroke-miterlimit="10" stroke-linecap="round" stroke-linejoin="round"/>
<path d="M4.7998 19.9915V6.54317C4.7998 4.85054 5.52711 4 6.97439 4H11.5053C12.9526 4 13.6725 4.85054 13.6725 6.54317V19.9915" stroke="#C2D43D" stroke-width="1.5" stroke-miterlimit="10" stroke-linecap="round" stroke-linejoin="round"/>
<path d="M7.49023 8.41309H11.0902" stroke="#C2D43D" stroke-width="1.5" stroke-miterlimit="10" stroke-linecap="round" stroke-linejoin="round"/>
<path d="M7.49023 11.5708H11.0902" stroke="#C2D43D" stroke-width="1.5" stroke-miterlimit="10" stroke-linecap="round" stroke-linejoin="round"/>
<path d="M9.27246 19.9919V16.834" stroke="#C2D43D" stroke-width="1.5" stroke-miterlimit="10" stroke-linecap="round" stroke-linejoin="round"/>
</svg>
