<svg width="16" height="16" viewBox="0 0 16 16" fill="none" xmlns="http://www.w3.org/2000/svg">
<path d="M2.66699 13.3276H13.3337" stroke="#C2D43D" stroke-width="1.5" stroke-miterlimit="10" stroke-linecap="round" stroke-linejoin="round"/>
<path d="M11.7725 13.3335V10.8296" stroke="#C2D43D" stroke-width="1.5" stroke-miterlimit="10" stroke-linecap="round" stroke-linejoin="round"/>
<path d="M11.782 7.09082C11.1905 7.09082 10.7153 7.641 10.7153 8.32591V9.60027C10.7153 10.2852 11.1905 10.8354 11.782 10.8354C12.3735 10.8354 12.8487 10.2852 12.8487 9.60027V8.32591C12.8487 7.641 12.3735 7.09082 11.782 7.09082Z" stroke="#C2D43D" stroke-width="1.5" stroke-miterlimit="10" stroke-linecap="round" stroke-linejoin="round"/>
<path d="M3.20068 13.3275V4.36195C3.20068 3.23353 3.68556 2.6665 4.65041 2.6665H7.671C8.63585 2.6665 9.11584 3.23353 9.11584 4.36195V13.3275" stroke="#C2D43D" stroke-width="1.5" stroke-miterlimit="10" stroke-linecap="round" stroke-linejoin="round"/>
<path d="M4.99414 5.6084H7.39415" stroke="#C2D43D" stroke-width="1.5" stroke-miterlimit="10" stroke-linecap="round" stroke-linejoin="round"/>
<path d="M4.99414 7.71387H7.39415" stroke="#C2D43D" stroke-width="1.5" stroke-miterlimit="10" stroke-linecap="round" stroke-linejoin="round"/>
<path d="M6.18164 13.3279V11.2227" stroke="#C2D43D" stroke-width="1.5" stroke-miterlimit="10" stroke-linecap="round" stroke-linejoin="round"/>
</svg>
