<svg width="20" height="20" viewBox="0 0 20 20" fill="none" xmlns="http://www.w3.org/2000/svg">
<path d="M3.33398 16.6602H16.6673" stroke="#C2D43D" stroke-width="1.5" stroke-miterlimit="10" stroke-linecap="round" stroke-linejoin="round"/>
<path d="M14.7158 16.6669V13.5371" stroke="#C2D43D" stroke-width="1.5" stroke-miterlimit="10" stroke-linecap="round" stroke-linejoin="round"/>
<path d="M14.7274 8.86377C13.988 8.86377 13.394 9.5515 13.394 10.4076V12.0006C13.394 12.8567 13.988 13.5444 14.7274 13.5444C15.4668 13.5444 16.0607 12.8567 16.0607 12.0006V10.4076C16.0607 9.5515 15.4668 8.86377 14.7274 8.86377Z" stroke="#C2D43D" stroke-width="1.5" stroke-miterlimit="10" stroke-linecap="round" stroke-linejoin="round"/>
<path d="M4.00049 16.6598V5.4528C4.00049 4.04228 4.60658 3.3335 5.81264 3.3335H9.58839C10.7944 3.3335 11.3944 4.04228 11.3944 5.4528V16.6598" stroke="#C2D43D" stroke-width="1.5" stroke-miterlimit="10" stroke-linecap="round" stroke-linejoin="round"/>
<path d="M6.24219 7.01074H9.24219" stroke="#C2D43D" stroke-width="1.5" stroke-miterlimit="10" stroke-linecap="round" stroke-linejoin="round"/>
<path d="M6.24219 9.64258H9.24219" stroke="#C2D43D" stroke-width="1.5" stroke-miterlimit="10" stroke-linecap="round" stroke-linejoin="round"/>
<path d="M7.72754 16.6599V14.0283" stroke="#C2D43D" stroke-width="1.5" stroke-miterlimit="10" stroke-linecap="round" stroke-linejoin="round"/>
</svg>
