<svg width="12" height="12" viewBox="0 0 12 12" fill="none" xmlns="http://www.w3.org/2000/svg">
<path d="M1.99902 9.99561H9.99902" stroke="white" stroke-width="1.2" stroke-miterlimit="10" stroke-linecap="round" stroke-linejoin="round"/>
<path d="M8.82812 9.99997V8.12207" stroke="white" stroke-width="1.2" stroke-miterlimit="10" stroke-linecap="round" stroke-linejoin="round"/>
<path d="M8.83565 5.31787C8.39201 5.31787 8.03564 5.73051 8.03564 6.24419V7.19996C8.03564 7.71364 8.39201 8.12628 8.83565 8.12628C9.27929 8.12628 9.63565 7.71364 9.63565 7.19996V6.24419C9.63565 5.73051 9.27929 5.31787 8.83565 5.31787Z" stroke="white" stroke-width="1.2" stroke-miterlimit="10" stroke-linecap="round" stroke-linejoin="round"/>
<path d="M2.39941 9.99576V3.27158C2.39941 2.42527 2.76307 2 3.48671 2H5.75215C6.47579 2 6.83578 2.42527 6.83578 3.27158V9.99576" stroke="white" stroke-width="1.2" stroke-miterlimit="10" stroke-linecap="round" stroke-linejoin="round"/>
<path d="M3.74512 4.20654H5.54512" stroke="white" stroke-width="1.2" stroke-miterlimit="10" stroke-linecap="round" stroke-linejoin="round"/>
<path d="M3.74512 5.78516H5.54512" stroke="white" stroke-width="1.2" stroke-miterlimit="10" stroke-linecap="round" stroke-linejoin="round"/>
<path d="M4.63574 9.99593V8.41699" stroke="white" stroke-width="1.2" stroke-miterlimit="10" stroke-linecap="round" stroke-linejoin="round"/>
</svg>
