<svg width="12" height="12" viewBox="0 0 12 12" fill="none" xmlns="http://www.w3.org/2000/svg">
<path d="M10 8.03215V2.86024C10 2.34605 9.608 1.96469 9.132 2.00754H9.108C8.268 2.08467 6.992 2.54315 6.28 3.02307L6.212 3.0702C6.096 3.14733 5.904 3.14733 5.788 3.0702L5.688 3.00593C4.976 2.5303 3.704 2.0761 2.864 2.00325C2.388 1.9604 2 2.34605 2 2.85595V8.03215C2 8.4435 2.312 8.82914 2.696 8.88056L2.812 8.8977C3.68 9.02197 5.02 9.49331 5.788 9.94322L5.804 9.95179C5.912 10.0161 6.084 10.0161 6.188 9.95179C6.956 9.49759 8.3 9.02197 9.172 8.8977L9.304 8.88056C9.688 8.82914 10 8.4435 10 8.03215Z" stroke="#262626" stroke-width="1.5" stroke-linecap="round" stroke-linejoin="round"/>
<path d="M6 3.21191V9.63931" stroke="#262626" stroke-width="1.5" stroke-linecap="round" stroke-linejoin="round"/>
<path d="M4.30039 4.49658H3.40039" stroke="#262626" stroke-width="1.5" stroke-linecap="round" stroke-linejoin="round"/>
<path d="M4.60039 5.78223H3.40039" stroke="#262626" stroke-width="1.5" stroke-linecap="round" stroke-linejoin="round"/>
</svg>
