<svg width="20" height="20" viewBox="0 0 20 20" fill="none" xmlns="http://www.w3.org/2000/svg">
<path d="M16.6668 13.3871V4.76723C16.6668 3.91024 16.0135 3.27464 15.2202 3.34606H15.1802C13.7802 3.47461 11.6535 4.23875 10.4668 5.03861L10.3535 5.11716C10.1602 5.24571 9.84016 5.24571 9.64683 5.11716L9.48016 5.01004C8.2935 4.21733 6.1735 3.46032 4.7735 3.33892C3.98016 3.2675 3.3335 3.91024 3.3335 4.76009V13.3871C3.3335 14.0727 3.8535 14.7154 4.4935 14.8011L4.68683 14.8297C6.1335 15.0368 8.36683 15.8223 9.64683 16.5722L9.6735 16.5865C9.8535 16.6936 10.1402 16.6936 10.3135 16.5865C11.5935 15.8295 13.8335 15.0368 15.2868 14.8297L15.5068 14.8011C16.1468 14.7154 16.6668 14.0727 16.6668 13.3871Z" stroke="#C2D43D" stroke-width="1.5" stroke-linecap="round" stroke-linejoin="round"/>
<path d="M10 5.35254V16.0649" stroke="#C2D43D" stroke-width="1.5" stroke-linecap="round" stroke-linejoin="round"/>
<path d="M7.16699 7.49463H5.66699" stroke="#C2D43D" stroke-width="1.5" stroke-linecap="round" stroke-linejoin="round"/>
<path d="M7.66699 9.6377H5.66699" stroke="#C2D43D" stroke-width="1.5" stroke-linecap="round" stroke-linejoin="round"/>
</svg>
