<svg width="32" height="32" viewBox="0 0 32 32" fill="none" xmlns="http://www.w3.org/2000/svg">
<path d="M26.6668 21.4192V7.62747C26.6668 6.25629 25.6215 5.23933 24.3522 5.3536H24.2882C22.0482 5.55927 18.6455 6.78191 16.7468 8.06167L16.5655 8.18736C16.2562 8.39304 15.7442 8.39304 15.4348 8.18736L15.1682 8.01597C13.2695 6.74763 9.8775 5.53642 7.6375 5.34217C6.36816 5.22791 5.3335 6.25629 5.3335 7.61604V21.4192C5.3335 22.5162 6.1655 23.5445 7.1895 23.6817L7.49883 23.7274C9.8135 24.0587 13.3868 25.3157 15.4348 26.5154L15.4775 26.5383C15.7655 26.7097 16.2242 26.7097 16.5015 26.5383C18.5495 25.3271 22.1335 24.0587 24.4588 23.7274L24.8108 23.6817C25.8348 23.5445 26.6668 22.5162 26.6668 21.4192Z" stroke="#E62129" stroke-width="1.5" stroke-linecap="round" stroke-linejoin="round"/>
<path d="M16 8.56445V25.7042" stroke="#E62129" stroke-width="1.5" stroke-linecap="round" stroke-linejoin="round"/>
<path d="M11.4669 11.9917H9.06689" stroke="#E62129" stroke-width="1.5" stroke-linecap="round" stroke-linejoin="round"/>
<path d="M12.2669 15.4199H9.06689" stroke="#E62129" stroke-width="1.5" stroke-linecap="round" stroke-linejoin="round"/>
</svg>
