<svg width="16" height="16" viewBox="0 0 16 16" fill="none" xmlns="http://www.w3.org/2000/svg">
<path d="M13.3337 10.7099V3.81398C13.3337 3.12839 12.811 2.61991 12.1763 2.67704H12.1443C11.0243 2.77988 9.32299 3.3912 8.37366 4.03108L8.28299 4.09393C8.12833 4.19676 7.87233 4.19676 7.71766 4.09393L7.58433 4.00823C6.63499 3.37406 4.93899 2.76845 3.81899 2.67133C3.18433 2.6142 2.66699 3.12839 2.66699 3.80826V10.7099C2.66699 11.2583 3.08299 11.7725 3.59499 11.8411L3.74966 11.8639C4.90699 12.0296 6.69366 12.6581 7.71766 13.258L7.73899 13.2694C7.88299 13.3551 8.11233 13.3551 8.25099 13.2694C9.27499 12.6638 11.067 12.0296 12.2297 11.8639L12.4057 11.8411C12.9177 11.7725 13.3337 11.2583 13.3337 10.7099Z" stroke="white" stroke-width="1.5" stroke-linecap="round" stroke-linejoin="round"/>
<path d="M8 4.28223V12.8521" stroke="white" stroke-width="1.5" stroke-linecap="round" stroke-linejoin="round"/>
<path d="M5.73369 5.99561H4.53369" stroke="white" stroke-width="1.5" stroke-linecap="round" stroke-linejoin="round"/>
<path d="M6.13369 7.70996H4.53369" stroke="white" stroke-width="1.5" stroke-linecap="round" stroke-linejoin="round"/>
</svg>
