<svg width="24" height="24" viewBox="0 0 24 24" fill="none" xmlns="http://www.w3.org/2000/svg">
<path d="M3 7.87338V9.69231H5.814L3 7.87338ZM5.332 18H9.5V15.306L5.332 18ZM14.5 15.3065V18H18.6675L14.5 15.3065ZM3 14.3077V16.1266L5.815 14.3077H3ZM18.6685 6H14.5V8.694L18.6685 6ZM21 16.1271V14.3077H18.1845L21 16.1271ZM21 9.69231V7.87338L18.1855 9.69231H21ZM9.5 6H5.332L9.5 8.694V6Z" fill="#00247D"/>
<path d="M15.5701 14.3074L20.4261 17.4463C20.6628 17.2205 20.8332 16.9426 20.9211 16.639L17.3136 14.3074H15.5701ZM9.50011 14.3074H8.42961L3.57411 17.4458C3.83461 17.6904 4.16861 17.8653 4.54311 17.9466L9.50011 14.7426V14.3074ZM14.5001 9.69197H15.5706L20.4261 6.5535C20.1609 6.30557 19.8252 6.13195 19.4576 6.05273L14.5001 9.25673V9.69197ZM8.42961 9.69197L3.57411 6.5535C3.3372 6.77926 3.16664 7.05711 3.07861 7.36073L6.68611 9.69197H8.42961Z" fill="#CF1B2B"/>
<path d="M21 13.3846H13.5V18H14.5V15.3065L18.6675 18H19C19.2656 17.9998 19.5285 17.9507 19.7733 17.8557C20.0181 17.7607 20.24 17.6216 20.426 17.4466L15.57 14.3077H17.3135L20.921 16.6394C20.9675 16.4838 21 16.3228 21 16.1538V16.1271L18.1845 14.3077H21V13.3846ZM3 13.3846V14.3077H5.815L3 16.1266V16.1538C3 16.6574 3.2195 17.1129 3.574 17.4462L8.4295 14.3077H9.5V14.7429L4.543 17.9465C4.69 17.9788 4.842 18 5 18H5.332L9.5 15.306V18H10.5V13.3846H3ZM21 7.84615C21.0005 7.36242 20.7942 6.89805 20.426 6.55385L15.5705 9.69231H14.5V9.25708L19.4575 6.05308C19.3077 6.01916 19.1542 6.00135 19 6H18.6685L14.5 8.694V6H13.5V10.6154H21V9.69231H18.1855L21 7.87338V7.84615ZM9.5 6V8.694L5.332 6H5C4.73437 6.00028 4.47147 6.0494 4.22664 6.14449C3.9818 6.23958 3.75994 6.37874 3.574 6.55385L8.4295 9.69231H6.686L3.0785 7.36108C3.02908 7.51883 3.00268 7.68196 3 7.84615V7.87338L5.814 9.69231H3V10.6154H10.5V6H9.5Z" fill="#EEEEEE"/>
<path d="M13.5 10.6154V6H10.5V10.6154H3V13.3846H10.5V18H13.5V13.3846H21V10.6154H13.5Z" fill="#CF1B2B"/>
</svg>
