<svg width="20" height="20" viewBox="0 0 20 20" fill="none" xmlns="http://www.w3.org/2000/svg">
<path d="M2.5 6.56115V8.07692H4.845L2.5 6.56115ZM4.44333 15H7.91667V12.755L4.44333 15ZM12.0833 12.7554V15H15.5562L12.0833 12.7554ZM2.5 11.9231V13.4388L4.84583 11.9231H2.5ZM15.5571 5H12.0833V7.245L15.5571 5ZM17.5 13.4392V11.9231H15.1537L17.5 13.4392ZM17.5 8.07692V6.56115L15.1546 8.07692H17.5ZM7.91667 5H4.44333L7.91667 7.245V5Z" fill="#00247D"/>
<path d="M12.975 11.9228L17.0217 14.5386C17.219 14.3504 17.3609 14.1189 17.4342 13.8659L14.4279 11.9228H12.975ZM7.91668 11.9228H7.0246L2.97835 14.5382C3.19543 14.742 3.47376 14.8878 3.78585 14.9555L7.91668 12.2855V11.9228ZM12.0833 8.07664H12.9754L17.0217 5.46125C16.8007 5.25464 16.5209 5.10996 16.2146 5.04395L12.0833 7.71395V8.07664ZM7.0246 8.07664L2.97835 5.46125C2.78092 5.64938 2.63879 5.88092 2.56543 6.13395L5.57168 8.07664H7.0246Z" fill="#CF1B2B"/>
<path d="M17.5 11.1538H11.25V15H12.0833V12.7554L15.5562 15H15.8333C16.0547 14.9998 16.2737 14.9589 16.4778 14.8798C16.6818 14.8006 16.8667 14.6847 17.0217 14.5388L12.975 11.9231H14.4279L17.4342 13.8662C17.4729 13.7365 17.5 13.6023 17.5 13.4615V13.4392L15.1537 11.9231H17.5V11.1538ZM2.5 11.1538V11.9231H4.84583L2.5 13.4388V13.4615C2.5 13.8812 2.68292 14.2608 2.97833 14.5385L7.02458 11.9231H7.91667V12.2858L3.78583 14.9554C3.90833 14.9823 4.035 15 4.16667 15H4.44333L7.91667 12.755V15H8.75V11.1538H2.5ZM17.5 6.53846C17.5004 6.13535 17.3285 5.74837 17.0217 5.46154L12.9754 8.07692H12.0833V7.71423L16.2146 5.04423C16.0898 5.01597 15.9618 5.00113 15.8333 5H15.5571L12.0833 7.245V5H11.25V8.84615H17.5V8.07692H15.1546L17.5 6.56115V6.53846ZM7.91667 5V7.245L4.44333 5H4.16667C3.94531 5.00023 3.72623 5.04117 3.5222 5.12041C3.31817 5.19965 3.13328 5.31562 2.97833 5.46154L7.02458 8.07692H5.57167L2.56542 6.13423C2.52423 6.26569 2.50223 6.40163 2.5 6.53846V6.56115L4.845 8.07692H2.5V8.84615H8.75V5H7.91667Z" fill="#EEEEEE"/>
<path d="M11.25 8.84615V5H8.75V8.84615H2.5V11.1538H8.75V15H11.25V11.1538H17.5V8.84615H11.25Z" fill="#CF1B2B"/>
</svg>
