<svg width="12" height="12" viewBox="0 0 12 12" fill="none" xmlns="http://www.w3.org/2000/svg">
<path d="M2 6V8.077C2 8.32183 2.09365 8.55662 2.26035 8.72974C2.42705 8.90286 2.65314 9.00011 2.88889 9.00011H9.11111C9.34686 9.00011 9.57295 8.90286 9.73965 8.72974C9.90635 8.55662 10 8.32183 10 8.077V6H2Z" fill="#EEEEEE"/>
<path d="M9.11111 3H2.88889C2.65314 3 2.42705 3.09726 2.26035 3.27037C2.09365 3.44349 2 3.67829 2 3.92311V6.00011H10V3.92311C10 3.67829 9.90635 3.44349 9.73965 3.27037C9.57295 3.09726 9.34686 3 9.11111 3Z" fill="#CE1126"/>
</svg>
