<svg width="16" height="16" viewBox="0 0 16 16" fill="none" xmlns="http://www.w3.org/2000/svg">
<path d="M2.66699 8V10.7693C2.66699 11.0958 2.79186 11.4088 3.01412 11.6397C3.23639 11.8705 3.53785 12.0002 3.85218 12.0002H12.1485C12.4628 12.0002 12.7643 11.8705 12.9865 11.6397C13.2088 11.4088 13.3337 11.0958 13.3337 10.7693V8H2.66699Z" fill="#EEEEEE"/>
<path d="M12.1485 4H3.85218C3.53785 4 3.23639 4.12967 3.01412 4.3605C2.79186 4.59132 2.66699 4.90438 2.66699 5.23082L2.66699 8.00015H13.3337V5.23082C13.3337 4.90438 13.2088 4.59132 12.9865 4.3605C12.7643 4.12967 12.4628 4 12.1485 4Z" fill="#CE1126"/>
</svg>
