<svg width="20" height="20" viewBox="0 0 20 20" fill="none" xmlns="http://www.w3.org/2000/svg">
<path d="M3.3335 10V13.4617C3.3335 13.8697 3.48958 14.261 3.76741 14.5496C4.04524 14.8381 4.42206 15.0002 4.81498 15.0002H15.1853C15.5783 15.0002 15.9551 14.8381 16.2329 14.5496C16.5107 14.261 16.6668 13.8697 16.6668 13.4617V10H3.3335Z" fill="#EEEEEE"/>
<path d="M15.1853 5H4.81498C4.42206 5 4.04524 5.16209 3.76741 5.45062C3.48958 5.73915 3.3335 6.13048 3.3335 6.53852L3.3335 10.0002H16.6668V6.53852C16.6668 6.13048 16.5107 5.73915 16.2329 5.45062C15.9551 5.16209 15.5783 5 15.1853 5Z" fill="#CE1126"/>
</svg>
