<svg width="32" height="32" viewBox="0 0 32 32" fill="none" xmlns="http://www.w3.org/2000/svg">
<path d="M5.3335 16V21.5387C5.3335 22.1915 5.58323 22.8177 6.02776 23.2793C6.47229 23.741 7.07521 24.0003 7.70387 24.0003H24.2965C24.9251 24.0003 25.528 23.741 25.9726 23.2793C26.4171 22.8177 26.6668 22.1915 26.6668 21.5387V16H5.3335Z" fill="#EEEEEE"/>
<path d="M24.2965 8H7.70387C7.07521 8 6.47229 8.25935 6.02776 8.72099C5.58323 9.18264 5.3335 9.80877 5.3335 10.4616L5.3335 16.0003H26.6668V10.4616C26.6668 9.80877 26.4171 9.18264 25.9726 8.72099C25.528 8.25935 24.9251 8 24.2965 8Z" fill="#CE1126"/>
</svg>
