<svg width="24" height="24" viewBox="0 0 24 24" fill="none" xmlns="http://www.w3.org/2000/svg">
<path d="M4 12V16.154C4 16.6437 4.1873 17.1132 4.5207 17.4595C4.8541 17.8057 5.30628 18.0002 5.77778 18.0002H18.2222C18.6937 18.0002 19.1459 17.8057 19.4793 17.4595C19.8127 17.1132 20 16.6437 20 16.154V12H4Z" fill="#EEEEEE"/>
<path d="M18.2222 6H5.77778C5.30628 6 4.8541 6.19451 4.5207 6.54075C4.1873 6.88698 4 7.35657 4 7.84622V12.0002H20V7.84622C20 7.35657 19.8127 6.88698 19.4793 6.54075C19.1459 6.19451 18.6937 6 18.2222 6Z" fill="#CE1126"/>
</svg>
