<svg width="16" height="16" viewBox="0 0 16 16" fill="none" xmlns="http://www.w3.org/2000/svg">
<path d="M2 5.24892V6.46154H3.876L2 5.24892ZM3.55467 12H6.33333V10.204L3.55467 12ZM9.66667 10.2043V12H12.445L9.66667 10.2043ZM2 9.53846V10.7511L3.87667 9.53846H2ZM12.4457 4H9.66667V5.796L12.4457 4ZM14 10.7514V9.53846H12.123L14 10.7514ZM14 6.46154V5.24892L12.1237 6.46154H14ZM6.33333 4H3.55467L6.33333 5.796V4Z" fill="#00247D"/>
<path d="M10.3799 9.53823L13.6172 11.6308C13.7751 11.4803 13.8887 11.2951 13.9472 11.0927L11.5422 9.53823H10.3799ZM6.33325 9.53823H5.61958L2.38258 11.6305C2.55625 11.7936 2.77891 11.9102 3.02858 11.9644L6.33325 9.82839V9.53823ZM9.66658 6.46131H10.3802L13.6172 4.369C13.4405 4.20371 13.2166 4.08797 12.9716 4.03516L9.66658 6.17116V6.46131ZM5.61958 6.46131L2.38258 4.369C2.22464 4.51951 2.11093 4.70474 2.05225 4.90716L4.45725 6.46131H5.61958Z" fill="#CF1B2B"/>
<path d="M14 8.92308H9V12H9.66667V10.2043L12.445 12H12.6667C12.8437 11.9999 13.019 11.9672 13.1822 11.9038C13.3454 11.8405 13.4933 11.7478 13.6173 11.6311L10.38 9.53846H11.5423L13.9473 11.0929C13.9783 10.9892 14 10.8818 14 10.7692V10.7514L12.123 9.53846H14V8.92308ZM2 8.92308V9.53846H3.87667L2 10.7511V10.7692C2 11.1049 2.14633 11.4086 2.38267 11.6308L5.61967 9.53846H6.33333V9.82862L3.02867 11.9643C3.12667 11.9858 3.228 12 3.33333 12H3.55467L6.33333 10.204V12H7V8.92308H2ZM14 5.23077C14.0003 4.90828 13.8628 4.5987 13.6173 4.36923L10.3803 6.46154H9.66667V6.17138L12.9717 4.03538C12.8718 4.01277 12.7695 4.0009 12.6667 4H12.4457L9.66667 5.796V4H9V7.07692H14V6.46154H12.1237L14 5.24892V5.23077ZM6.33333 4V5.796L3.55467 4H3.33333C3.15625 4.00019 2.98098 4.03293 2.81776 4.09633C2.65453 4.15972 2.50663 4.2525 2.38267 4.36923L5.61967 6.46154H4.45733L2.05233 4.90738C2.01939 5.01255 2.00179 5.12131 2 5.23077V5.24892L3.876 6.46154H2V7.07692H7V4H6.33333Z" fill="#EEEEEE"/>
<path d="M9 7.07692V4H7V7.07692H2V8.92308H7V12H9V8.92308H14V7.07692H9Z" fill="#CF1B2B"/>
</svg>
