<svg width="12" height="12" viewBox="0 0 12 12" fill="none" xmlns="http://www.w3.org/2000/svg">
<path d="M1.5 3.93669V4.84615H2.907L1.5 3.93669ZM2.666 9H4.75V7.653L2.666 9ZM7.25 7.65323V9H9.33375L7.25 7.65323ZM1.5 7.15385V8.06331L2.9075 7.15385H1.5ZM9.33425 3H7.25V4.347L9.33425 3ZM10.5 8.06354V7.15385H9.09225L10.5 8.06354ZM10.5 4.84615V3.93669L9.09275 4.84615H10.5ZM4.75 3H2.666L4.75 4.347V3Z" fill="#00247D"/>
<path d="M7.78481 7.15368L10.2128 8.72314C10.3312 8.61023 10.4164 8.47131 10.4603 8.31952L8.65656 7.15368H7.78481ZM4.74981 7.15368H4.21456L1.78681 8.72291C1.91706 8.84521 2.08406 8.93267 2.27131 8.97329L4.74981 7.37129V7.15368ZM7.24981 4.84598H7.78506L10.2128 3.27675C10.0802 3.15278 9.91234 3.06598 9.72856 3.02637L7.24981 4.62837V4.84598ZM4.21456 4.84598L1.78681 3.27675C1.66835 3.38963 1.58308 3.52855 1.53906 3.68037L3.34281 4.84598H4.21456Z" fill="#CF1B2B"/>
<path d="M10.5 6.69231H6.75V9H7.25V7.65323L9.33375 9H9.5C9.6328 8.99989 9.76424 8.97537 9.88665 8.92786C10.0091 8.88035 10.12 8.81082 10.213 8.72331L7.785 7.15385H8.65675L10.4605 8.31969C10.4837 8.24192 10.5 8.16138 10.5 8.07692V8.06354L9.09225 7.15385H10.5V6.69231ZM1.5 6.69231V7.15385H2.9075L1.5 8.06331V8.07692C1.5 8.32869 1.60975 8.55646 1.787 8.72308L4.21475 7.15385H4.75V7.37146L2.2715 8.97323C2.345 8.98938 2.421 9 2.5 9H2.666L4.75 7.653V9H5.25V6.69231H1.5ZM10.5 3.92308C10.5002 3.68121 10.3971 3.44902 10.213 3.27692L7.78525 4.84615H7.25V4.62854L9.72875 3.02654C9.65386 3.00958 9.5771 3.00068 9.5 3H9.33425L7.25 4.347V3H6.75V5.30769H10.5V4.84615H9.09275L10.5 3.93669V3.92308ZM4.75 3V4.347L2.666 3H2.5C2.36719 3.00014 2.23574 3.0247 2.11332 3.07225C1.9909 3.11979 1.87997 3.18937 1.787 3.27692L4.21475 4.84615H3.343L1.53925 3.68054C1.51454 3.75941 1.50134 3.84098 1.5 3.92308V3.93669L2.907 4.84615H1.5V5.30769H5.25V3H4.75Z" fill="#EEEEEE"/>
<path d="M6.75 5.30769V3H5.25V5.30769H1.5V6.69231H5.25V9H6.75V6.69231H10.5V5.30769H6.75Z" fill="#CF1B2B"/>
</svg>
