<svg width="32" height="32" viewBox="0 0 32 32" fill="none" xmlns="http://www.w3.org/2000/svg">
<path d="M4 10.4978V12.9231H7.752L4 10.4978ZM7.10933 24H12.6667V20.408L7.10933 24ZM19.3333 20.4086V24H24.89L19.3333 20.4086ZM4 19.0769V21.5022L7.75333 19.0769H4ZM24.8913 8H19.3333V11.592L24.8913 8ZM28 21.5028V19.0769H24.246L28 21.5028ZM28 12.9231V10.4978L24.2473 12.9231H28ZM12.6667 8H7.10933L12.6667 11.592V8Z" fill="#00247D"/>
<path d="M20.7603 19.0765L27.235 23.2617C27.5506 22.9606 27.7778 22.5902 27.895 22.1854L23.085 19.0765H20.7603ZM12.667 19.0765H11.2396L4.76565 23.2611C5.11298 23.5872 5.55831 23.8205 6.05765 23.9288L12.667 19.6568V19.0765ZM19.3336 12.9226H20.761L27.235 8.738C26.8814 8.40742 26.4337 8.17594 25.9436 8.07031L19.3336 12.3423V12.9226ZM11.2396 12.9226L4.76565 8.738C4.44976 9.03901 4.22236 9.40948 4.10498 9.81431L8.91498 12.9226H11.2396Z" fill="#CF1B2B"/>
<path d="M28 17.8462H18V24H19.3333V20.4086L24.89 24H25.3333C25.6875 23.9997 26.038 23.9343 26.3644 23.8076C26.6909 23.6809 26.9867 23.4955 27.2347 23.2622L20.76 19.0769H23.0847L27.8947 22.1858C27.9567 21.9785 28 21.7637 28 21.5385V21.5028L24.246 19.0769H28V17.8462ZM4 17.8462V19.0769H7.75333L4 21.5022V21.5385C4 22.2098 4.29267 22.8172 4.76533 23.2615L11.2393 19.0769H12.6667V19.6572L6.05733 23.9286C6.25333 23.9717 6.456 24 6.66667 24H7.10933L12.6667 20.408V24H14V17.8462H4ZM28 10.4615C28.0006 9.81657 27.7256 9.1974 27.2347 8.73846L20.7607 12.9231H19.3333V12.3428L25.9433 8.07077C25.7436 8.02555 25.5389 8.0018 25.3333 8H24.8913L19.3333 11.592V8H18V14.1538H28V12.9231H24.2473L28 10.4978V10.4615ZM12.6667 8V11.592L7.10933 8H6.66667C6.3125 8.00037 5.96196 8.06587 5.63551 8.19266C5.30907 8.31945 5.01325 8.50499 4.76533 8.73846L11.2393 12.9231H8.91467L4.10467 9.81477C4.03877 10.0251 4.00357 10.2426 4 10.4615V10.4978L7.752 12.9231H4V14.1538H14V8H12.6667Z" fill="#EEEEEE"/>
<path d="M18 14.1538V8H14V14.1538H4V17.8462H14V24H18V17.8462H28V14.1538H18Z" fill="#CF1B2B"/>
</svg>
