<svg width="20" height="20" viewBox="0 0 20 20" fill="none" xmlns="http://www.w3.org/2000/svg">
<path d="M16.6668 9.25V8.5C16.6668 5.67157 16.6668 4.25736 15.7479 3.37868C14.8291 2.5 13.3502 2.5 10.3923 2.5H9.60801C6.65018 2.5 5.17126 2.5 4.25238 3.37868C3.3335 4.25736 3.3335 5.67157 3.3335 8.5V11.5C3.3335 14.3284 3.3335 15.7427 4.25238 16.6213C5.17126 17.5 6.65017 17.5 9.60801 17.5H10.0002" stroke="white" stroke-width="1.5" stroke-linecap="round"/>
<path d="M7.03711 6.20312H12.963" stroke="white" stroke-width="1.5" stroke-linecap="round"/>
<path d="M7.03711 9.90723H10.7408" stroke="white" stroke-width="1.5" stroke-linecap="round"/>
<path d="M16.6665 16.5138V13.8545C16.6665 12.8122 15.5473 11.667 14.1665 11.667C12.7858 11.667 11.6665 12.8122 11.6665 13.8545V16.4066C11.6665 16.9751 12.277 17.5003 13.0302 17.5003C13.7833 17.5003 14.3938 16.9751 14.3938 16.4066V14.4121" stroke="white" stroke-width="1.5" stroke-linecap="round"/>
</svg>
