<svg width="24" height="24" viewBox="0 0 24 24" fill="none" xmlns="http://www.w3.org/2000/svg">
<path d="M20 11.1V10.2C20 6.80588 20 5.10883 18.8973 4.05441C17.7947 3 16.02 3 12.4706 3H11.5294C7.98002 3 6.20532 3 5.10266 4.05441C4 5.10883 4 6.80588 4 10.2V13.8C4 17.1941 4 18.8912 5.10266 19.9456C6.20532 21 7.98001 21 11.5294 21H12" stroke="#8C8C8C" stroke-width="1.5" stroke-linecap="round"/>
<path d="M8.44434 7.44434H15.5554" stroke="#8C8C8C" stroke-width="1.5" stroke-linecap="round"/>
<path d="M8.44434 11.8887H12.8888" stroke="#8C8C8C" stroke-width="1.5" stroke-linecap="round"/>
<path d="M20 19.8162V16.625C20 15.3743 18.6569 14 17 14C15.3431 14 14 15.3743 14 16.625V19.6875C14 20.3697 14.7326 21 15.6364 21C16.5401 21 17.2727 20.3697 17.2727 19.6875V17.2941" stroke="#8C8C8C" stroke-width="1.5" stroke-linecap="round"/>
</svg>
