<svg width="16" height="16" viewBox="0 0 16 16" fill="none" xmlns="http://www.w3.org/2000/svg">
<path d="M13.3337 7.4V6.8C13.3337 4.53726 13.3337 3.40589 12.5985 2.70294C11.8634 2 10.6803 2 8.31404 2H7.68661C5.32034 2 4.1372 2 3.4021 2.70294C2.66699 3.40589 2.66699 4.53726 2.66699 6.8V9.2C2.66699 11.4627 2.66699 12.5941 3.4021 13.297C4.1372 14 5.32033 14 7.68661 14H8.00033" stroke="white" stroke-width="1.5" stroke-linecap="round"/>
<path d="M5.62988 4.96289H10.3706" stroke="white" stroke-width="1.5" stroke-linecap="round"/>
<path d="M5.62988 7.92578H8.59285" stroke="white" stroke-width="1.5" stroke-linecap="round"/>
<path d="M13.333 13.2115V11.084C13.333 10.2502 12.4376 9.33398 11.333 9.33398C10.2284 9.33398 9.33301 10.2502 9.33301 11.084V13.1257C9.33301 13.5805 9.82141 14.0007 10.4239 14.0007C11.0264 14.0007 11.5148 13.5805 11.5148 13.1257V11.5301" stroke="white" stroke-width="1.5" stroke-linecap="round"/>
</svg>
