<svg width="32" height="32" viewBox="0 0 32 32" fill="none" xmlns="http://www.w3.org/2000/svg">
<path d="M26.6668 14.8V13.6C26.6668 9.07451 26.6668 6.81178 25.1966 5.40588C23.7264 4 21.3602 4 16.6276 4H15.3727C10.6402 4 8.27392 4 6.80371 5.40588C5.3335 6.81178 5.3335 9.07451 5.3335 13.6V18.4C5.3335 22.9254 5.3335 25.1883 6.80371 26.5941C8.27392 28 10.6402 28 15.3727 28H16.0002" stroke="#8C8C8C" stroke-width="1.5" stroke-linecap="round"/>
<path d="M11.2593 9.92578H20.7408" stroke="#8C8C8C" stroke-width="1.5" stroke-linecap="round"/>
<path d="M11.2593 15.8516H17.1852" stroke="#8C8C8C" stroke-width="1.5" stroke-linecap="round"/>
<path d="M26.6665 26.4219V22.167C26.6665 20.4994 24.8757 18.667 22.6665 18.667C20.4573 18.667 18.6665 20.4994 18.6665 22.167V26.2503C18.6665 27.16 19.6433 28.0003 20.8484 28.0003C22.0533 28.0003 23.0301 27.16 23.0301 26.2503V23.0591" stroke="#8C8C8C" stroke-width="1.5" stroke-linecap="round"/>
</svg>
