<svg width="12" height="12" viewBox="0 0 12 12" fill="none" xmlns="http://www.w3.org/2000/svg">
<rect x="2" y="1.5" width="8" height="9" rx="4" fill="#E62129"/>
<path d="M10 5.55V5.1C10 3.40294 10 2.55442 9.44867 2.02721C8.89733 1.5 8.01 1.5 6.23529 1.5H5.76471C3.99001 1.5 3.10266 1.5 2.55133 2.02721C2 2.55442 2 3.40294 2 5.1V6.9C2 8.59704 2 9.4456 2.55133 9.97278C3.10266 10.5 3.99 10.5 5.76471 10.5H6" stroke="white" stroke-width="1.5" stroke-linecap="round"/>
<path d="M4.22266 3.72266H7.77821" stroke="white" stroke-width="1.5" stroke-linecap="round"/>
<path d="M4.22266 5.94434H6.44488" stroke="white" stroke-width="1.5" stroke-linecap="round"/>
<path d="M10 9.90811V8.3125C10 7.68714 9.32845 7 8.5 7C7.67155 7 7 7.68714 7 8.3125V9.84375C7 10.1849 7.3663 10.5 7.8182 10.5C8.27005 10.5 8.63635 10.1849 8.63635 9.84375V8.64706" stroke="white" stroke-width="1.5" stroke-linecap="round"/>
</svg>
