<svg width="20" height="20" viewBox="0 0 20 20" fill="none" xmlns="http://www.w3.org/2000/svg">
<path d="M7.66683 14.6329H7.3335C4.66683 14.6329 3.3335 13.9683 3.3335 10.6449V7.32153C3.3335 4.66284 4.66683 3.3335 7.3335 3.3335H12.6668C15.3335 3.3335 16.6668 4.66284 16.6668 7.32153V10.6449C16.6668 13.3036 15.3335 14.6329 12.6668 14.6329H12.3335C12.1268 14.6329 11.9268 14.7326 11.8002 14.8988L10.8002 16.2281C10.3602 16.8131 9.64016 16.8131 9.20016 16.2281L8.20016 14.8988C8.0935 14.7526 7.84683 14.6329 7.66683 14.6329Z" stroke="#E62129" stroke-width="1.5" stroke-miterlimit="10" stroke-linecap="round" stroke-linejoin="round"/>
<path d="M6.6665 7.32129H13.3332" stroke="#E62129" stroke-width="1.5" stroke-linecap="round" stroke-linejoin="round"/>
<path d="M6.6665 10.645H10.6665" stroke="#E62129" stroke-width="1.5" stroke-linecap="round" stroke-linejoin="round"/>
</svg>
