<svg width="16" height="16" viewBox="0 0 16 16" fill="none" xmlns="http://www.w3.org/2000/svg">
<path d="M6.13366 11.7065H5.86699C3.73366 11.7065 2.66699 11.1748 2.66699 8.51611V5.85742C2.66699 3.73047 3.73366 2.66699 5.86699 2.66699H10.1337C12.267 2.66699 13.3337 3.73047 13.3337 5.85742V8.51611C13.3337 10.6431 12.267 11.7065 10.1337 11.7065H9.86699C9.70166 11.7065 9.54166 11.7863 9.44033 11.9192L8.64033 12.9827C8.28833 13.4506 7.71233 13.4506 7.36033 12.9827L6.56033 11.9192C6.47499 11.8023 6.27766 11.7065 6.13366 11.7065Z" stroke="#E62129" stroke-width="1.5" stroke-miterlimit="10" stroke-linecap="round" stroke-linejoin="round"/>
<path d="M5.33301 5.85693H10.6663" stroke="#E62129" stroke-width="1.5" stroke-linecap="round" stroke-linejoin="round"/>
<path d="M5.33301 8.51611H8.53301" stroke="#E62129" stroke-width="1.5" stroke-linecap="round" stroke-linejoin="round"/>
</svg>
