<svg width="32" height="32" viewBox="0 0 32 32" fill="none" xmlns="http://www.w3.org/2000/svg">
<path d="M12.2668 23.4126H11.7335C7.46683 23.4126 5.3335 22.3491 5.3335 17.0317V11.7144C5.3335 7.46045 7.46683 5.3335 11.7335 5.3335H20.2668C24.5335 5.3335 26.6668 7.46045 26.6668 11.7144V17.0317C26.6668 21.2856 24.5335 23.4126 20.2668 23.4126H19.7335C19.4028 23.4126 19.0828 23.5721 18.8802 23.838L17.2802 25.9649C16.5762 26.9008 15.4242 26.9008 14.7202 25.9649L13.1202 23.838C12.9495 23.604 12.5548 23.4126 12.2668 23.4126Z" stroke="#E62129" stroke-width="1.5" stroke-miterlimit="10" stroke-linecap="round" stroke-linejoin="round"/>
<path d="M10.6665 11.7144H21.3332" stroke="#E62129" stroke-width="1.5" stroke-linecap="round" stroke-linejoin="round"/>
<path d="M10.6665 17.0317H17.0665" stroke="#E62129" stroke-width="1.5" stroke-linecap="round" stroke-linejoin="round"/>
</svg>
