<svg width="24" height="24" viewBox="0 0 24 24" fill="none" xmlns="http://www.w3.org/2000/svg">
<path d="M14.1818 8H16.3636C16.8412 8 17.314 8.09406 17.7552 8.2768C18.1964 8.45955 18.5973 8.7274 18.9349 9.06507C19.2726 9.40273 19.5405 9.8036 19.7232 10.2448C19.9059 10.686 20 11.1588 20 11.6364C20 12.1139 19.9059 12.5868 19.7232 13.0279C19.5405 13.4691 19.2726 13.87 18.9349 14.2077C18.5973 14.5453 18.1964 14.8132 17.7552 14.9959C17.314 15.1787 16.8412 15.2727 16.3636 15.2727H14.1818M9.81818 15.2727H7.63636C7.15883 15.2727 6.68597 15.1787 6.24479 14.9959C5.8036 14.8132 5.40273 14.5453 5.06507 14.2077C4.38312 13.5257 4 12.6008 4 11.6364C4 10.6719 4.38312 9.74702 5.06507 9.06507C5.74702 8.38312 6.67194 8 7.63636 8H9.81818" stroke="#262626" stroke-width="1.5" stroke-linecap="round" stroke-linejoin="round"/>
<path d="M9.09082 11.6362H14.909" stroke="#262626" stroke-width="1.5" stroke-linecap="round" stroke-linejoin="round"/>
</svg>
