<svg width="16" height="16" viewBox="0 0 16 16" fill="none" xmlns="http://www.w3.org/2000/svg">
<path d="M9.45487 5.33301H10.9094C11.2278 5.33301 11.543 5.39571 11.8371 5.51754C12.1313 5.63937 12.3985 5.81794 12.6236 6.04305C12.8487 6.26816 13.0273 6.53541 13.1491 6.82953C13.271 7.12366 13.3337 7.43889 13.3337 7.75725C13.3337 8.07561 13.271 8.39084 13.1491 8.68497C13.0273 8.97909 12.8487 9.24634 12.6236 9.47145C12.3985 9.69656 12.1313 9.87513 11.8371 9.99696C11.543 10.1188 11.2278 10.1815 10.9094 10.1815H9.45487M6.54578 10.1815H5.09123C4.77288 10.1815 4.45764 10.1188 4.16352 9.99696C3.86939 9.87513 3.60215 9.69656 3.37704 9.47145C2.9224 9.01681 2.66699 8.4002 2.66699 7.75725C2.66699 7.1143 2.9224 6.49769 3.37704 6.04305C3.83167 5.58842 4.44829 5.33301 5.09123 5.33301H6.54578" stroke="#262626" stroke-width="1.5" stroke-linecap="round" stroke-linejoin="round"/>
<path d="M6.06152 7.75732H9.94031" stroke="#262626" stroke-width="1.5" stroke-linecap="round" stroke-linejoin="round"/>
</svg>
