<svg width="32" height="32" viewBox="0 0 32 32" fill="none" xmlns="http://www.w3.org/2000/svg">
<path d="M18.9097 10.6665H21.8188C22.4555 10.6665 23.086 10.7919 23.6743 11.0356C24.2625 11.2792 24.797 11.6364 25.2472 12.0866C25.6975 12.5368 26.0546 13.0713 26.2982 13.6596C26.5419 14.2478 26.6673 14.8783 26.6673 15.515C26.6673 16.1517 26.5419 16.7822 26.2982 17.3704C26.0546 17.9587 25.6975 18.4932 25.2472 18.9434C24.797 19.3936 24.2625 19.7507 23.6743 19.9944C23.086 20.2381 22.4555 20.3635 21.8188 20.3635H18.9097M13.0916 20.3635H10.1825C9.54576 20.3635 8.91528 20.2381 8.32703 19.9944C7.73879 19.7507 7.2043 19.3936 6.75407 18.9434C5.84481 18.0341 5.33398 16.8009 5.33398 15.515C5.33398 14.2291 5.84481 12.9959 6.75407 12.0866C7.66334 11.1773 8.89657 10.6665 10.1825 10.6665H13.0916" stroke="#0076BE" stroke-width="1.5" stroke-linecap="round" stroke-linejoin="round"/>
<path d="M12.1216 15.5151H19.8792" stroke="#0076BE" stroke-width="1.5" stroke-linecap="round" stroke-linejoin="round"/>
</svg>
