<svg width="12" height="12" viewBox="0 0 12 12" fill="none" xmlns="http://www.w3.org/2000/svg">
<path d="M7.08993 4H8.18084C8.41961 4 8.65604 4.04703 8.87663 4.1384C9.09722 4.22977 9.29766 4.3637 9.46649 4.53253C9.63532 4.70137 9.76925 4.9018 9.86062 5.12239C9.95199 5.34299 9.99902 5.57941 9.99902 5.81818C9.99902 6.05695 9.95199 6.29338 9.86062 6.51397C9.76925 6.73456 9.63532 6.935 9.46649 7.10383C9.29766 7.27266 9.09722 7.40659 8.87663 7.49796C8.65604 7.58934 8.41961 7.63636 8.18084 7.63636H7.08993M4.90811 7.63636H3.81721C3.57844 7.63636 3.34201 7.58934 3.12142 7.49796C2.90083 7.40659 2.70039 7.27266 2.53156 7.10383C2.19058 6.76286 1.99902 6.30039 1.99902 5.81818C1.99902 5.33597 2.19058 4.87351 2.53156 4.53253C2.87253 4.19156 3.33499 4 3.81721 4H4.90811" stroke="#8C8C8C" stroke-width="1.5" stroke-linecap="round" stroke-linejoin="round"/>
<path d="M4.54492 5.81787H7.45401" stroke="#8C8C8C" stroke-width="1.5" stroke-linecap="round" stroke-linejoin="round"/>
</svg>
