<svg width="20" height="20" viewBox="0 0 20 20" fill="none" xmlns="http://www.w3.org/2000/svg">
<path d="M11.8188 6.6665H13.637C14.035 6.6665 14.429 6.74489 14.7967 6.89717C15.1643 7.04946 15.4984 7.27267 15.7798 7.55406C16.0612 7.83545 16.2844 8.16951 16.4366 8.53716C16.5889 8.90481 16.6673 9.29886 16.6673 9.69681C16.6673 10.0948 16.5889 10.4888 16.4366 10.8565C16.2844 11.2241 16.0612 11.5582 15.7798 11.8396C15.4984 12.1209 15.1643 12.3442 14.7967 12.4964C14.429 12.6487 14.035 12.7271 13.637 12.7271H11.8188M8.18247 12.7271H6.36429C5.96634 12.7271 5.57229 12.6487 5.20464 12.4964C4.83699 12.3442 4.50293 12.1209 4.22154 11.8396C3.65325 11.2713 3.33398 10.5005 3.33398 9.69681C3.33398 8.89312 3.65325 8.12235 4.22154 7.55406C4.78983 6.98577 5.5606 6.6665 6.36429 6.6665H8.18247" stroke="#E62129" stroke-width="1.5" stroke-linecap="round" stroke-linejoin="round"/>
<path d="M7.57617 9.69678H12.4247" stroke="#E62129" stroke-width="1.5" stroke-linecap="round" stroke-linejoin="round"/>
</svg>
