<svg width="20" height="20" viewBox="0 0 20 20" fill="none" xmlns="http://www.w3.org/2000/svg">
<g clip-path="url(#clip0_86_58)">
<path d="M19.982 8.25961V17.9771C19.9195 18.2534 19.8621 18.5089 19.737 18.7642C19.4973 19.2544 18.9915 19.7079 18.4701 19.8747C18.3034 19.9269 18.1156 19.9372 17.9541 19.9999H2.03284C1.0736 19.9216 0.00488281 18.9415 0.00488281 17.951V8.25439H19.9873L19.982 8.25961ZM8.58588 14.7345V15.3809C8.58588 15.5581 8.41384 15.6885 8.25224 15.7094C7.6892 15.7875 6.84466 15.6102 6.32334 15.7302C5.80201 15.8501 5.6404 17.07 6.42239 17.1586C7.20437 17.2472 8.42427 17.2055 8.80484 17.0804C9.48777 16.8615 9.97781 16.215 10.0352 15.5009C10.0977 14.7136 10.1029 13.2382 10.0352 12.4563C9.95696 11.5857 9.24796 10.8975 8.37735 10.8349C7.50674 10.7724 6.70911 10.7724 6.35461 10.8454C5.66125 10.9861 5.62998 12.0861 6.32334 12.2634C6.8238 12.3885 7.69962 12.206 8.25224 12.2842C8.41905 12.3051 8.58588 12.4354 8.58588 12.6126V13.2591H6.42239C6.40674 13.2591 6.20342 13.3425 6.17215 13.3581C5.67689 13.6189 5.67689 14.38 6.17215 14.6406C6.20342 14.6562 6.40674 14.7396 6.42239 14.7396H8.58588V14.7345ZM12.4489 12.5919V16.3192C12.4489 16.4444 12.5636 16.7207 12.6418 16.825C13.1266 17.4557 14.1328 17.1534 14.2058 16.361C14.3413 14.8282 14.1068 13.0819 14.1954 11.5283C14.1224 11.2051 13.8513 10.9027 13.5124 10.8454C13.1735 10.788 12.011 10.7985 11.6096 10.8349C10.8119 10.9079 10.5356 11.9402 11.2029 12.4146C11.8702 12.889 11.5679 12.5919 11.7243 12.5919H12.4437H12.4489Z" fill="white"/>
<path d="M19.9824 7.67086H0V4.72537C0 3.89646 1.04786 2.71826 1.89241 2.71826H3.31562V4.72537C3.31562 5.132 3.80045 5.65854 4.17581 5.77845C4.55116 5.89835 5.95352 5.8775 6.29239 5.75237C6.63125 5.62726 7.06394 5.1685 7.06394 4.84527V2.71826H12.8768V4.65239C12.8768 5.07987 13.2469 5.5647 13.6326 5.73152C14.0184 5.89835 15.0924 5.88271 15.5146 5.84101C16.1038 5.78887 16.6667 5.2102 16.6667 4.61067V2.71826H18.09C18.6946 2.71826 19.6018 3.4794 19.7946 4.05807L19.9824 4.70972V7.67607V7.67086Z" fill="white"/>
<path d="M14.0763 0.0332632C14.3526 -0.00844281 15.2284 -0.0136561 15.4994 0.0332632C15.7706 0.0801825 15.9478 0.25222 16.0208 0.49203L15.9999 4.8451C15.9322 5.01193 15.7914 5.14746 15.6194 5.20481C15.4473 5.26215 14.3578 5.28301 14.0814 5.2413C13.8052 5.1996 13.6018 5.03278 13.5132 4.75648V0.554589C13.5811 0.262646 13.7791 0.0801825 14.0814 0.0332632H14.0763Z" fill="white"/>
<path d="M4.47772 0.0336271C4.74881 -0.0132921 5.66112 -0.00807872 5.93222 0.0440538C6.20331 0.0961863 6.38056 0.26301 6.45876 0.534099L6.4744 4.65257C6.44311 4.90281 6.29715 5.12697 6.05212 5.21038C5.8071 5.29379 4.73317 5.29379 4.47251 5.25209C4.21185 5.21038 4.02417 5.03313 3.95118 4.79333L3.93555 0.560165C3.98246 0.29429 4.20142 0.0857598 4.4673 0.0388406L4.47772 0.0336271Z" fill="white"/>
</g>
<defs>
<clipPath id="clip0_86_58">
<rect width="20" height="20" fill="white"/>
</clipPath>
</defs>
</svg>
