<svg width="24" height="24" viewBox="0 0 24 24" fill="none" xmlns="http://www.w3.org/2000/svg">
<g clip-path="url(#clip0_86_69)">
<path d="M23.9784 9.91153V21.5725C23.9034 21.904 23.8346 22.2106 23.6844 22.5171C23.3967 23.1052 22.7898 23.6494 22.1642 23.8497C21.9641 23.9122 21.7388 23.9247 21.545 23.9998H2.43941C1.28832 23.9059 0.00585938 22.7298 0.00585938 21.5412V9.90527H23.9847L23.9784 9.91153ZM10.3031 17.6814V18.457C10.3031 18.6697 10.0966 18.8262 9.90268 18.8512C9.22704 18.945 8.2136 18.7323 7.58801 18.8763C6.96242 19.0201 6.76848 20.484 7.70686 20.5903C8.64525 20.6967 10.1091 20.6466 10.5658 20.4964C11.3853 20.2338 11.9734 19.458 12.0422 18.601C12.1173 17.6563 12.1235 15.8859 12.0422 14.9475C11.9484 13.9028 11.0976 13.077 10.0528 13.0019C9.00808 12.9269 8.05094 12.9269 7.62554 13.0145C6.7935 13.1834 6.75597 14.5034 7.58801 14.7161C8.18856 14.8662 9.23955 14.6472 9.90268 14.7411C10.1029 14.7661 10.3031 14.9225 10.3031 15.1351V15.9109H7.70686C7.68808 15.9109 7.44411 16.011 7.40658 16.0297C6.81226 16.3426 6.81226 17.256 7.40658 17.5687C7.44411 17.5875 7.68808 17.6875 7.70686 17.6875H10.3031V17.6814ZM14.9387 15.1102V19.5831C14.9387 19.7332 15.0764 20.0649 15.1701 20.19C15.752 20.9469 16.9593 20.584 17.0469 19.6332C17.2095 17.7939 16.9281 15.6982 17.0345 13.834C16.9469 13.4461 16.6215 13.0833 16.2149 13.0145C15.8082 12.9456 14.4132 12.9581 13.9315 13.0019C12.9743 13.0895 12.6428 14.3282 13.4435 14.8975C14.2443 15.4668 13.8814 15.1102 14.0691 15.1102H14.9324H14.9387Z" fill="white"/>
<path d="M23.9788 9.20533H0V5.67074C0 4.67605 1.25743 3.26221 2.27089 3.26221H3.97875V5.67074C3.97875 6.15869 4.56054 6.79054 5.01098 6.93443C5.4614 7.07831 7.14423 7.05329 7.55086 6.90314C7.9575 6.75301 8.47673 6.20249 8.47673 5.81462V3.26221H15.4521V5.58316C15.4521 6.09614 15.8963 6.67793 16.3592 6.87812C16.8221 7.07831 18.1109 7.05955 18.6176 7.00951C19.3245 6.94694 20.0001 6.25253 20.0001 5.5331V3.26221H21.708C22.4336 3.26221 23.5221 4.17557 23.7536 4.86998L23.9788 5.65196V9.21158V9.20533Z" fill="white"/>
<path d="M16.8916 0.0399158C17.2231 -0.0101314 18.2741 -0.0163873 18.5993 0.0399158C18.9247 0.096219 19.1374 0.302664 19.225 0.590436L19.1999 5.81412C19.1186 6.01431 18.9497 6.17695 18.7433 6.24577C18.5368 6.31458 17.2294 6.33961 16.8977 6.28956C16.5662 6.23952 16.3222 6.03933 16.2158 5.70777V0.665507C16.2973 0.315176 16.5349 0.096219 16.8977 0.0399158H16.8916Z" fill="white"/>
<path d="M5.37327 0.0400596C5.69857 -0.0162435 6.79335 -0.00998743 7.11867 0.0525717C7.44397 0.115131 7.65667 0.315319 7.75051 0.640626L7.76928 5.58279C7.73173 5.88307 7.55658 6.15207 7.26255 6.25216C6.96852 6.35226 5.67981 6.35226 5.36701 6.30222C5.05422 6.25216 4.82901 6.03947 4.74142 5.75171L4.72266 0.671905C4.77895 0.352855 5.04171 0.102619 5.36076 0.0463158L5.37327 0.0400596Z" fill="white"/>
</g>
<defs>
<clipPath id="clip0_86_69">
<rect width="24" height="24" fill="white"/>
</clipPath>
</defs>
</svg>
