<svg width="32" height="32" viewBox="0 0 32 32" fill="none" xmlns="http://www.w3.org/2000/svg">
<g clip-path="url(#clip0_86_64)">
<path d="M31.9712 13.2154V28.7634C31.8712 29.2054 31.7794 29.6142 31.5792 30.0228C31.1956 30.807 30.3864 31.5326 29.5522 31.7996C29.2854 31.883 28.985 31.8996 28.7266 31.9998H3.25254C1.71776 31.8746 0.0078125 30.3064 0.0078125 28.7216V13.207H31.9796L31.9712 13.2154ZM13.7374 23.5752V24.6094C13.7374 24.893 13.4621 25.1016 13.2036 25.135C12.3027 25.26 10.9515 24.9764 10.1173 25.1684C9.28322 25.3602 9.02464 27.312 10.2758 27.4538C11.527 27.5956 13.4788 27.5288 14.0877 27.3286C15.1804 26.9784 15.9645 25.944 16.0563 24.8014C16.1563 23.5418 16.1647 21.1812 16.0563 19.93C15.9311 18.5371 14.7967 17.436 13.4038 17.3359C12.0108 17.2358 10.7346 17.2358 10.1674 17.3526C9.058 17.5778 9.00796 19.3378 10.1173 19.6214C10.9181 19.8216 12.3194 19.5297 13.2036 19.6548C13.4705 19.6881 13.7374 19.8967 13.7374 20.1802V21.2146H10.2758C10.2508 21.2146 9.92548 21.348 9.87544 21.373C9.08302 21.7902 9.08302 23.008 9.87544 23.425C9.92548 23.45 10.2508 23.5834 10.2758 23.5834H13.7374V23.5752ZM19.9182 20.147V26.1108C19.9182 26.311 20.1018 26.7532 20.2268 26.92C21.0026 27.9292 22.6124 27.4454 22.7292 26.1776C22.946 23.7252 22.5708 20.931 22.7126 18.4453C22.5958 17.9282 22.162 17.4444 21.6198 17.3526C21.0776 17.2609 19.2176 17.2775 18.5753 17.3359C17.2991 17.4527 16.857 19.1043 17.9247 19.8633C18.9924 20.6224 18.5086 20.147 18.7588 20.147H19.9099H19.9182Z" fill="white"/>
<path d="M31.9718 12.2738H0V7.56099C0 6.23473 1.67658 4.34961 3.02786 4.34961H5.305V7.56099C5.305 8.21159 6.08072 9.05405 6.6813 9.24591C7.28186 9.43775 9.52564 9.40439 10.0678 9.20419C10.61 9.00401 11.3023 8.26999 11.3023 7.75283V4.34961H20.6028V7.44421C20.6028 8.12819 21.195 8.90391 21.8122 9.17083C22.4294 9.43775 24.1478 9.41273 24.8234 9.34601C25.766 9.26259 26.6668 8.33671 26.6668 7.37747V4.34961H28.944C29.9114 4.34961 31.3628 5.56743 31.6714 6.49331L31.9718 7.53595V12.2821V12.2738Z" fill="white"/>
<path d="M22.5221 0.053221C22.9641 -0.0135085 24.3655 -0.0218498 24.7991 0.053221C25.2329 0.128292 25.5165 0.403552 25.6333 0.787248L25.5999 7.75216C25.4915 8.01908 25.2663 8.23594 24.9911 8.3277C24.7157 8.41944 22.9725 8.45282 22.5303 8.38608C22.0883 8.31936 21.7629 8.05244 21.6211 7.61036V0.887342C21.7297 0.420234 22.0465 0.128292 22.5303 0.053221H22.5221Z" fill="white"/>
<path d="M7.16436 0.0534127C7.5981 -0.0216581 9.0578 -0.0133166 9.49156 0.0700955C9.9253 0.153508 10.2089 0.420426 10.334 0.854168L10.359 7.44372C10.309 7.8441 10.0754 8.20276 9.6834 8.33622C9.29136 8.46968 7.57308 8.46968 7.15602 8.40296C6.73896 8.33622 6.43868 8.05262 6.3219 7.66894L6.29688 0.895874C6.37194 0.470474 6.72228 0.136825 7.14768 0.0617543L7.16436 0.0534127Z" fill="white"/>
</g>
<defs>
<clipPath id="clip0_86_64">
<rect width="32" height="32" fill="white"/>
</clipPath>
</defs>
</svg>
