<svg width="16" height="16" viewBox="0 0 16 16" fill="none" xmlns="http://www.w3.org/2000/svg">
<g clip-path="url(#clip0_86_47)">
<path d="M15.9856 6.60769V14.3817C15.9356 14.6027 15.8897 14.8071 15.7896 15.0114C15.5978 15.4035 15.1932 15.7663 14.7761 15.8998C14.6427 15.9415 14.4925 15.9498 14.3633 15.9999H1.62627C0.858878 15.9373 0.00390625 15.1532 0.00390625 14.3608V6.60352H15.9898L15.9856 6.60769ZM6.8687 11.7876V12.3047C6.8687 12.4465 6.73107 12.5508 6.60179 12.5675C6.15136 12.63 5.47573 12.4882 5.05867 12.5842C4.64161 12.6801 4.51232 13.656 5.13791 13.7269C5.7635 13.7978 6.73942 13.7644 7.04387 13.6643C7.59022 13.4892 7.98225 12.972 8.02813 12.4007C8.07817 11.7709 8.08235 10.5906 8.02813 9.96502C7.96557 9.26853 7.39837 8.71801 6.70188 8.66796C6.00539 8.61792 5.36729 8.61792 5.08369 8.67631C4.529 8.78891 4.50398 9.66891 5.05867 9.81071C5.45904 9.9108 6.1597 9.76483 6.60179 9.82739C6.73524 9.84407 6.8687 9.94834 6.8687 10.0901V10.6073H5.13791C5.12539 10.6073 4.96274 10.674 4.93772 10.6865C4.54151 10.8951 4.54151 11.504 4.93772 11.7125C4.96274 11.725 5.12539 11.7917 5.13791 11.7917H6.8687V11.7876ZM9.95911 10.0735V13.0554C9.95911 13.1555 10.0509 13.3766 10.1134 13.46C10.5013 13.9646 11.3062 13.7227 11.3646 13.0888C11.473 11.8626 11.2854 10.4655 11.3563 9.22265C11.2979 8.96408 11.081 8.72218 10.8099 8.67631C10.5388 8.63043 9.60878 8.63877 9.28765 8.66796C8.64955 8.72635 8.4285 9.55213 8.96234 9.93166C9.49618 10.3112 9.25428 10.0735 9.3794 10.0735H9.95494H9.95911Z" fill="white"/>
<path d="M15.9859 6.13688H0V3.78049C0 3.11736 0.83829 2.1748 1.51393 2.1748H2.6525V3.78049C2.6525 4.10579 3.04036 4.52702 3.34065 4.62295C3.64093 4.71887 4.76282 4.70219 5.03391 4.60209C5.305 4.502 5.65115 4.13499 5.65115 3.87641V2.1748H10.3014V3.7221C10.3014 4.06409 10.5975 4.45195 10.9061 4.58541C11.2147 4.71887 12.0739 4.70636 12.4117 4.673C12.883 4.63129 13.3334 4.16835 13.3334 3.68873V2.1748H14.472C14.9557 2.1748 15.6814 2.78371 15.8357 3.24665L15.9859 3.76797V6.14105V6.13688Z" fill="white"/>
<path d="M11.261 0.0266105C11.482 -0.00675425 12.1827 -0.0109249 12.3995 0.0266105C12.6164 0.064146 12.7582 0.201776 12.8166 0.393624L12.7999 3.87608C12.7457 4.00954 12.6331 4.11797 12.4955 4.16385C12.3578 4.20972 11.4862 4.22641 11.2651 4.19304C11.0441 4.15968 10.8814 4.02622 10.8105 3.80518V0.443671C10.8648 0.210117 11.0232 0.064146 11.2651 0.0266105H11.261Z" fill="white"/>
<path d="M3.58218 0.0267064C3.79905 -0.010829 4.5289 -0.00665829 4.74578 0.0350478C4.96265 0.0767538 5.10445 0.210213 5.16701 0.427084L5.17952 3.72186C5.15449 3.92205 5.03772 4.10138 4.8417 4.16811C4.64568 4.23484 3.78654 4.23484 3.57801 4.20148C3.36948 4.16811 3.21934 4.02631 3.16095 3.83447L3.14844 0.447937C3.18597 0.235237 3.36114 0.0684126 3.57384 0.0308772L3.58218 0.0267064Z" fill="white"/>
</g>
<defs>
<clipPath id="clip0_86_47">
<rect width="16" height="16" fill="white"/>
</clipPath>
</defs>
</svg>
