<svg width="12" height="12" viewBox="0 0 12 12" fill="none" xmlns="http://www.w3.org/2000/svg">
<g clip-path="url(#clip0_86_52)">
<path d="M11.9892 4.95576V10.7863C11.9517 10.952 11.9173 11.1053 11.8422 11.2585C11.6984 11.5526 11.3949 11.8247 11.0821 11.9248C10.982 11.9561 10.8694 11.9623 10.7725 11.9999H1.2197C0.644159 11.953 0.00292969 11.3649 0.00292969 10.7706V4.95264H11.9924L11.9892 4.95576ZM5.15153 8.8407V9.22852C5.15153 9.33487 5.0483 9.4131 4.95134 9.42562C4.61352 9.4725 4.1068 9.36615 3.794 9.43815C3.48121 9.51007 3.38424 10.242 3.85343 10.2952C4.32262 10.3483 5.05456 10.3233 5.2829 10.2482C5.69266 10.1169 5.98669 9.729 6.0211 9.30052C6.05863 8.82817 6.06176 7.94295 6.0211 7.47376C5.97418 6.95139 5.54878 6.5385 5.02641 6.50097C4.50404 6.46344 4.02547 6.46344 3.81277 6.50723C3.39675 6.59168 3.37799 7.25168 3.794 7.35803C4.09428 7.4331 4.61977 7.32362 4.95134 7.37054C5.05143 7.38305 5.15153 7.46125 5.15153 7.56757V7.95547H3.85343C3.84404 7.95547 3.72205 8.0055 3.70329 8.01487C3.40613 8.17132 3.40613 8.628 3.70329 8.78437C3.72205 8.79375 3.84404 8.84377 3.85343 8.84377H5.15153V8.8407ZM7.46933 7.55512V9.79155C7.46933 9.86662 7.53818 10.0324 7.58505 10.095C7.87598 10.4734 8.47965 10.292 8.52345 9.8166C8.60475 8.89695 8.46405 7.84912 8.51723 6.91698C8.47343 6.72306 8.31075 6.54163 8.10743 6.50723C7.9041 6.47282 7.20659 6.47907 6.96574 6.50097C6.48716 6.54476 6.32138 7.16409 6.72176 7.44874C7.12214 7.7334 6.94071 7.55512 7.03455 7.55512H7.4662H7.46933Z" fill="white"/>
<path d="M11.9894 4.60242H0V2.83513C0 2.33778 0.628717 1.63086 1.13545 1.63086H1.98937V2.83513C1.98937 3.0791 2.28027 3.39502 2.50549 3.46697C2.7307 3.53891 3.57211 3.5264 3.77543 3.45133C3.97875 3.37626 4.23836 3.101 4.23836 2.90707V1.63086H7.72605V2.79133C7.72605 3.04783 7.94813 3.33872 8.17958 3.43882C8.41103 3.53891 9.05543 3.52953 9.30878 3.50451C9.66225 3.47323 10 3.12602 10 2.76631V1.63086H10.854C11.2168 1.63086 11.7611 2.08754 11.8768 2.43475L11.9894 2.82574V4.60555V4.60242Z" fill="white"/>
<path d="M8.44578 0.0199579C8.61153 -0.00506568 9.13706 -0.00819366 9.29966 0.0199579C9.46233 0.0481095 9.56868 0.151332 9.61248 0.295218L9.59996 2.90706C9.55931 3.00716 9.47486 3.08848 9.37166 3.12289C9.26838 3.15729 8.61468 3.16981 8.44886 3.14478C8.28311 3.11976 8.16109 3.01967 8.10791 2.85389V0.332753C8.14864 0.157588 8.26743 0.0481095 8.44886 0.0199579H8.44578Z" fill="white"/>
<path d="M2.68663 0.0202739C2.84929 -0.00787763 3.39667 -0.00474958 3.55933 0.02653C3.72199 0.0578095 3.82834 0.157904 3.87526 0.320557L3.88464 2.79164C3.86587 2.94178 3.77829 3.07628 3.63127 3.12633C3.48426 3.17637 2.8399 3.17637 2.68351 3.15135C2.52711 3.12633 2.4145 3.01998 2.37071 2.8761L2.36133 0.336197C2.38948 0.176672 2.52085 0.0515536 2.68038 0.023402L2.68663 0.0202739Z" fill="white"/>
</g>
<defs>
<clipPath id="clip0_86_52">
<rect width="12" height="12" fill="white"/>
</clipPath>
</defs>
</svg>
