<svg width="24" height="24" viewBox="0 0 24 24" fill="none" xmlns="http://www.w3.org/2000/svg">
<path d="M12.8977 4.19306L18.1422 6.44109C19.6533 7.08461 19.6533 8.14856 18.1422 8.79208L12.8977 11.0401C12.3022 11.2975 11.3244 11.2975 10.7289 11.0401L5.48441 8.79208C3.9733 8.14856 3.9733 7.08461 5.48441 6.44109L10.7289 4.19306C11.3244 3.93565 12.3022 3.93565 12.8977 4.19306Z" stroke="#262626" stroke-width="1.5" stroke-linecap="round" stroke-linejoin="round"/>
<path d="M4 11.126C4 11.8467 4.56 12.679 5.24444 12.9707L11.28 15.562C11.7422 15.7593 12.2667 15.7593 12.72 15.562L18.7556 12.9707C19.44 12.679 20 11.8467 20 11.126" stroke="#262626" stroke-width="1.5" stroke-linecap="round" stroke-linejoin="round"/>
<path d="M4 15.416C4 16.214 4.48889 16.9347 5.24444 17.2608L11.28 19.852C11.7422 20.0494 12.2667 20.0494 12.72 19.852L18.7556 17.2608C19.5111 16.9347 20 16.214 20 15.416" stroke="#262626" stroke-width="1.5" stroke-linecap="round" stroke-linejoin="round"/>
</svg>
