<svg width="20" height="20" viewBox="0 0 20 20" fill="none" xmlns="http://www.w3.org/2000/svg">
<path d="M10.7482 3.49438L15.1186 5.36773C16.3778 5.904 16.3778 6.79063 15.1186 7.3269L10.7482 9.20026C10.2519 9.41476 9.43709 9.41476 8.94079 9.20026L4.57042 7.3269C3.31116 6.79063 3.31116 5.904 4.57042 5.36773L8.94079 3.49438C9.43709 3.27987 10.2519 3.27987 10.7482 3.49438Z" stroke="#0076BE" stroke-width="1.5" stroke-linecap="round" stroke-linejoin="round"/>
<path d="M3.3335 9.27197C3.3335 9.87259 3.80016 10.5662 4.37053 10.8093L9.40016 12.9686C9.78535 13.1331 10.2224 13.1331 10.6002 12.9686L15.6298 10.8093C16.2002 10.5662 16.6668 9.87259 16.6668 9.27197" stroke="#0076BE" stroke-width="1.5" stroke-linecap="round" stroke-linejoin="round"/>
<path d="M3.3335 12.8467C3.3335 13.5117 3.7409 14.1123 4.37053 14.384L9.40016 16.5433C9.78535 16.7078 10.2224 16.7078 10.6002 16.5433L15.6298 14.384C16.2594 14.1123 16.6668 13.5117 16.6668 12.8467" stroke="#0076BE" stroke-width="1.5" stroke-linecap="round" stroke-linejoin="round"/>
</svg>
