<svg width="16" height="16" viewBox="0 0 16 16" fill="none" xmlns="http://www.w3.org/2000/svg">
<path d="M8.59866 2.79521L12.095 4.2939C13.1024 4.72291 13.1024 5.43221 12.095 5.86122L8.59866 7.35991C8.20162 7.53152 7.54977 7.53152 7.15273 7.35991L3.65643 5.86122C2.64903 5.43221 2.64903 4.72291 3.65643 4.2939L7.15273 2.79521C7.54977 2.6236 8.20162 2.6236 8.59866 2.79521Z" stroke="#0076BE" stroke-width="1.5" stroke-linecap="round" stroke-linejoin="round"/>
<path d="M2.66699 7.41748C2.66699 7.89798 3.04033 8.45283 3.49662 8.64732L7.52032 10.3748C7.82847 10.5064 8.1781 10.5064 8.48033 10.3748L12.504 8.64732C12.9603 8.45283 13.3337 7.89798 13.3337 7.41748" stroke="#0076BE" stroke-width="1.5" stroke-linecap="round" stroke-linejoin="round"/>
<path d="M2.66699 10.2773C2.66699 10.8093 2.99292 11.2898 3.49662 11.5072L7.52032 13.2347C7.82847 13.3662 8.1781 13.3662 8.48033 13.2347L12.504 11.5072C13.0077 11.2898 13.3337 10.8093 13.3337 10.2773" stroke="#0076BE" stroke-width="1.5" stroke-linecap="round" stroke-linejoin="round"/>
</svg>
