<svg width="32" height="32" viewBox="0 0 32 32" fill="none" xmlns="http://www.w3.org/2000/svg">
<path d="M17.1968 5.5909L24.1894 8.58828C26.2042 9.44631 26.2042 10.8649 24.1894 11.7229L17.1968 14.7203C16.4028 15.0635 15.099 15.0635 14.305 14.7203L7.31238 11.7229C5.29757 10.8649 5.29757 9.44631 7.31238 8.58828L14.305 5.5909C15.099 5.24769 16.4028 5.24769 17.1968 5.5909Z" stroke="#E62129" stroke-width="1.5" stroke-linecap="round" stroke-linejoin="round"/>
<path d="M5.3335 14.835C5.3335 15.796 6.08016 16.9057 6.99276 17.2946L15.0402 20.7496C15.6565 21.0128 16.3557 21.0128 16.9602 20.7496L25.0076 17.2946C25.9202 16.9057 26.6668 15.796 26.6668 14.835" stroke="#E62129" stroke-width="1.5" stroke-linecap="round" stroke-linejoin="round"/>
<path d="M5.3335 20.5547C5.3335 21.6186 5.98535 22.5796 6.99276 23.0144L15.0402 26.4694C15.6565 26.7325 16.3557 26.7325 16.9602 26.4694L25.0076 23.0144C26.015 22.5796 26.6668 21.6186 26.6668 20.5547" stroke="#E62129" stroke-width="1.5" stroke-linecap="round" stroke-linejoin="round"/>
</svg>
