<svg width="12" height="12" viewBox="0 0 12 12" fill="none" xmlns="http://www.w3.org/2000/svg">
<path d="M6.44911 2.09653L9.07134 3.22054C9.82689 3.5423 9.82689 4.07428 9.07134 4.39604L6.44911 5.52006C6.15134 5.64876 5.66245 5.64876 5.36467 5.52006L2.74245 4.39604C1.98689 4.07428 1.98689 3.5423 2.74245 3.22054L5.36467 2.09653C5.66245 1.96782 6.15134 1.96782 6.44911 2.09653Z" stroke="#E62129" stroke-width="1.5" stroke-linecap="round" stroke-linejoin="round"/>
<path d="M2 5.56299C2 5.92336 2.28 6.3395 2.62222 6.48537L5.64 7.78099C5.87111 7.87966 6.13333 7.87966 6.36 7.78099L9.37778 6.48537C9.72 6.3395 10 5.92336 10 5.56299" stroke="#E62129" stroke-width="1.5" stroke-linecap="round" stroke-linejoin="round"/>
<path d="M2 7.70801C2 8.10699 2.24444 8.46736 2.62222 8.63039L5.64 9.92601C5.87111 10.0247 6.13333 10.0247 6.36 9.92601L9.37778 8.63039C9.75556 8.46736 10 8.10699 10 7.70801" stroke="#E62129" stroke-width="1.5" stroke-linecap="round" stroke-linejoin="round"/>
</svg>
