<svg width="20" height="20" viewBox="0 0 20 20" fill="none" xmlns="http://www.w3.org/2000/svg">
<path d="M11.1519 4.29628L12.3251 6.66208C12.4851 6.99141 12.9117 7.3073 13.2717 7.36779L15.3981 7.724C16.758 7.95251 17.0779 8.94722 16.098 9.92849L14.4449 11.5953C14.1649 11.8776 14.0116 12.422 14.0983 12.8118L14.5715 14.8752C14.9448 16.5084 14.0849 17.1401 12.6518 16.2866L10.6586 15.097C10.2987 14.8819 9.70541 14.8819 9.33879 15.097L7.34567 16.2866C5.91917 17.1401 5.05259 16.5016 5.42589 14.8752L5.89917 12.8118C5.98582 12.422 5.83251 11.8776 5.55254 11.5953L3.89939 9.92849C2.92616 8.94722 3.23946 7.95251 4.59931 7.724L6.72574 7.36779C7.07904 7.3073 7.50566 6.99141 7.66564 6.66208L8.83884 4.29628C9.47877 3.01257 10.5187 3.01257 11.1519 4.29628Z" stroke="#E62129" stroke-width="1.5" stroke-linecap="round" stroke-linejoin="round"/>
</svg>
