<svg width="12" height="12" viewBox="0 0 12 12" fill="none" xmlns="http://www.w3.org/2000/svg">
<path d="M6.69105 2.57767L7.39498 3.99715C7.49097 4.19475 7.74694 4.38428 7.96291 4.42057L9.23877 4.6343C10.0547 4.77141 10.2467 5.36824 9.65873 5.957L8.66684 6.95708C8.49885 7.12645 8.40686 7.4531 8.45886 7.68699L8.74283 8.925C8.9668 9.90492 8.45086 10.284 7.59095 9.77185L6.39509 9.05807C6.17911 8.92903 5.82315 8.92903 5.60317 9.05807L4.40731 9.77185C3.5514 10.284 3.03146 9.90089 3.25543 8.925L3.5394 7.68699C3.5914 7.4531 3.49941 7.12645 3.33143 6.95708L2.33954 5.957C1.7556 5.36824 1.94358 4.77141 2.75949 4.6343L4.03535 4.42057C4.24732 4.38428 4.5033 4.19475 4.59929 3.99715L5.30321 2.57767C5.68717 1.80744 6.3111 1.80744 6.69105 2.57767Z" stroke="#262626" stroke-width="1.5" stroke-linecap="round" stroke-linejoin="round"/>
</svg>
