<svg width="32" height="32" viewBox="0 0 32 32" fill="none" xmlns="http://www.w3.org/2000/svg">
<path d="M17.843 6.87395L19.7201 10.6592C19.9761 11.1862 20.6587 11.6916 21.2346 11.7884L24.6369 12.3583C26.8127 12.7239 27.3246 14.3155 25.7568 15.8855L23.1117 18.5524C22.6638 19.004 22.4185 19.8751 22.5571 20.4988L23.3144 23.8002C23.9116 26.4133 22.5358 27.4241 20.2427 26.0584L17.0537 24.155C16.4778 23.8109 15.5286 23.8109 14.942 24.155L11.753 26.0584C9.47057 27.4241 8.08405 26.4025 8.68132 23.8002L9.43857 20.4988C9.57722 19.8751 9.33192 19.004 8.88397 18.5524L6.23892 15.8855C4.68176 14.3155 5.18304 12.7239 7.3588 12.3583L10.7611 11.7884C11.3264 11.6916 12.009 11.1862 12.2649 10.6592L14.1421 6.87395C15.1659 4.82001 16.8298 4.82001 17.843 6.87395Z" stroke="#262626" stroke-width="1.5" stroke-linecap="round" stroke-linejoin="round"/>
</svg>
