<svg width="16" height="16" viewBox="0 0 16 16" fill="none" xmlns="http://www.w3.org/2000/svg">
<path d="M8.92173 3.43722L9.86029 5.32986C9.98828 5.59332 10.3296 5.84603 10.6175 5.89442L12.3187 6.1794C13.4066 6.36221 13.6625 7.15798 12.8786 7.94299L11.5561 9.27644C11.3321 9.50227 11.2095 9.93779 11.2788 10.2496L11.6574 11.9003C11.9561 13.2069 11.2681 13.7123 10.1216 13.0295L8.52711 12.0778C8.23914 11.9057 7.76453 11.9057 7.47123 12.0778L5.87673 13.0295C4.73553 13.7123 4.04227 13.2015 4.3409 11.9003L4.71953 10.2496C4.78885 9.93779 4.6662 9.50227 4.44223 9.27644L3.11971 7.94299C2.34113 7.15798 2.59176 6.36221 3.67964 6.1794L5.38079 5.89442C5.66342 5.84603 6.00472 5.59332 6.13271 5.32986L7.07127 3.43722C7.58321 2.41025 8.41512 2.41025 8.92173 3.43722Z" stroke="#E62129" stroke-width="1.5" stroke-linecap="round" stroke-linejoin="round"/>
</svg>
