<svg width="12" height="12" viewBox="0 0 12 12" fill="none" xmlns="http://www.w3.org/2000/svg">
<path d="M6.57116 7.199H2.95916C2.23116 7.199 1.76716 6.41901 2.11916 5.77901L3.05116 4.083L3.92316 2.495C4.28716 1.835 5.23916 1.835 5.60316 2.495L6.47916 4.083L6.89916 4.847L7.41116 5.77901C7.76316 6.41901 7.29916 7.199 6.57116 7.199Z" stroke="#0076BE" stroke-width="1.5" stroke-linecap="round" stroke-linejoin="round"/>
<path d="M9.9998 7.39932C9.9998 8.83532 8.8358 9.99932 7.3998 9.99932C5.9638 9.99932 4.7998 8.83532 4.7998 7.39932C4.7998 7.33132 4.8038 7.26732 4.8078 7.19932H6.5718C7.2998 7.19932 7.7638 6.41932 7.4118 5.77932L6.8998 4.84731C7.0598 4.81531 7.2278 4.79932 7.3998 4.79932C8.8358 4.79932 9.9998 5.96332 9.9998 7.39932Z" stroke="#0076BE" stroke-width="1.5" stroke-linecap="round" stroke-linejoin="round"/>
</svg>
