<svg width="20" height="20" viewBox="0 0 20 20" fill="none" xmlns="http://www.w3.org/2000/svg">
<path d="M10.9542 11.9985H4.93421C3.72088 11.9985 2.94754 10.6985 3.53421 9.63184L5.08754 6.80516L6.54088 4.1585C7.14754 3.0585 8.73421 3.0585 9.34087 4.1585L10.8009 6.80516L11.5009 8.0785L12.3542 9.63184C12.9409 10.6985 12.1675 11.9985 10.9542 11.9985Z" stroke="#E62129" stroke-width="1.5" stroke-linecap="round" stroke-linejoin="round"/>
<path d="M16.6667 12.3319C16.6667 14.7252 14.7267 16.6652 12.3333 16.6652C9.94 16.6652 8 14.7252 8 12.3319C8 12.2185 8.00667 12.1119 8.01333 11.9985H10.9533C12.1667 11.9985 12.94 10.6985 12.3533 9.63188L11.5 8.07853C11.7667 8.0252 12.0467 7.99854 12.3333 7.99854C14.7267 7.99854 16.6667 9.93854 16.6667 12.3319Z" stroke="#E62129" stroke-width="1.5" stroke-linecap="round" stroke-linejoin="round"/>
</svg>
