<svg width="24" height="24" viewBox="0 0 24 24" fill="none" xmlns="http://www.w3.org/2000/svg">
<path d="M13.1443 14.398H5.92027C4.46427 14.398 3.53627 12.838 4.24027 11.558L6.10427 8.166L7.84827 4.99C8.57627 3.67 10.4803 3.67 11.2083 4.99L12.9603 8.166L13.8003 9.694L14.8243 11.558C15.5283 12.838 14.6003 14.398 13.1443 14.398Z" stroke="#E62129" stroke-width="1.5" stroke-linecap="round" stroke-linejoin="round"/>
<path d="M19.9996 14.7981C19.9996 17.6701 17.6716 19.9981 14.7996 19.9981C11.9276 19.9981 9.59961 17.6701 9.59961 14.7981C9.59961 14.6621 9.60761 14.5341 9.61561 14.3981H13.1436C14.5996 14.3981 15.5276 12.8382 14.8236 11.5582L13.7996 9.69414C14.1196 9.63014 14.4556 9.59814 14.7996 9.59814C17.6716 9.59814 19.9996 11.9261 19.9996 14.7981Z" stroke="#E62129" stroke-width="1.5" stroke-linecap="round" stroke-linejoin="round"/>
</svg>
