<svg width="16" height="16" viewBox="0 0 16 16" fill="none" xmlns="http://www.w3.org/2000/svg">
<path d="M8.76317 9.599H3.94717C2.97651 9.599 2.35784 8.559 2.82717 7.70567L4.06984 5.44433L5.23251 3.32699C5.71784 2.44699 6.98717 2.44699 7.4725 3.32699L8.6405 5.44433L9.2005 6.463L9.88317 7.70567C10.3525 8.559 9.73384 9.599 8.76317 9.599Z" stroke="white" stroke-width="1.5" stroke-linecap="round" stroke-linejoin="round"/>
<path d="M13.3337 9.86559C13.3337 11.7803 11.7817 13.3323 9.86706 13.3323C7.95239 13.3323 6.40039 11.7803 6.40039 9.86559C6.40039 9.77493 6.40572 9.68959 6.41106 9.59893H8.76306C9.73372 9.59893 10.3524 8.55893 9.88306 7.7056L9.20039 6.46292C9.41372 6.42026 9.63772 6.39893 9.86706 6.39893C11.7817 6.39893 13.3337 7.95093 13.3337 9.86559Z" stroke="white" stroke-width="1.5" stroke-linecap="round" stroke-linejoin="round"/>
</svg>
