<svg width="32" height="32" viewBox="0 0 32 32" fill="none" xmlns="http://www.w3.org/2000/svg">
<path d="M17.5263 19.1975H7.89434C5.95301 19.1975 4.71568 17.1175 5.65434 15.4109L8.13968 10.8882L10.465 6.6535C11.4357 4.8935 13.9743 4.8935 14.945 6.6535L17.281 10.8882L18.401 12.9255L19.7663 15.4109C20.705 17.1175 19.4677 19.1975 17.5263 19.1975Z" stroke="white" stroke-width="1.5" stroke-linecap="round" stroke-linejoin="round"/>
<path d="M26.6665 19.7307C26.6665 23.56 23.5625 26.664 19.7331 26.664C15.9038 26.664 12.7998 23.56 12.7998 19.7307C12.7998 19.5494 12.8105 19.3787 12.8211 19.1974H17.5251C19.4665 19.1974 20.7038 17.1174 19.7651 15.4107L18.3998 12.9254C18.8265 12.84 19.2745 12.7974 19.7331 12.7974C23.5625 12.7974 26.6665 15.9014 26.6665 19.7307Z" stroke="white" stroke-width="1.5" stroke-linecap="round" stroke-linejoin="round"/>
</svg>
