<svg width="12" height="12" viewBox="0 0 12 12" fill="none" xmlns="http://www.w3.org/2000/svg">
<path d="M7.27052 2.36344L4.60941 3.64083C4.4046 3.73914 4.18577 3.76377 3.9627 3.71379C3.81671 3.68109 3.7437 3.66474 3.68492 3.65803C2.95497 3.57467 2.5 4.15239 2.5 4.81673V5.18132C2.5 5.84566 2.95497 6.42338 3.68492 6.34002C3.7437 6.3333 3.81671 6.31694 3.9627 6.28426C4.18577 6.23426 4.4046 6.2589 4.60941 6.35722L7.27052 7.63462C7.88136 7.92786 8.1868 8.07446 8.52736 7.96018C8.86788 7.8459 8.98476 7.60066 9.21856 7.11022C9.86048 5.7635 9.86048 4.23456 9.21856 2.88781C8.98476 2.39737 8.86788 2.15215 8.52736 2.03786C8.1868 1.92358 7.88136 2.0702 7.27052 2.36344Z" stroke="#8C8C8C" stroke-width="1.2" stroke-linecap="round" stroke-linejoin="round"/>
<path d="M5.88334 9.50777L5.2868 9.99941C3.94216 8.93297 4.10643 8.42441 4.10643 6.39941H4.55996C4.74401 7.54377 5.17815 8.08581 5.77718 8.47821C6.14618 8.71989 6.22226 9.22841 5.88334 9.50777Z" stroke="#8C8C8C" stroke-width="1.2" stroke-linecap="round" stroke-linejoin="round"/>
<path d="M4.2998 6.19932V3.79932" stroke="#8C8C8C" stroke-width="1.2" stroke-linecap="round" stroke-linejoin="round"/>
</svg>
