<svg width="16" height="16" viewBox="0 0 16 16" fill="none" xmlns="http://www.w3.org/2000/svg">
<path d="M9.6937 3.15287L6.14555 4.85607C5.87248 4.98715 5.5807 5.01999 5.28327 4.95335C5.08862 4.90975 4.99128 4.88795 4.9129 4.879C3.93964 4.76786 3.33301 5.53815 3.33301 6.42394V6.91005C3.33301 7.79584 3.93964 8.56614 4.9129 8.45499C4.99128 8.44603 5.08862 8.42422 5.28327 8.38064C5.5807 8.31398 5.87248 8.34683 6.14555 8.47792L9.6937 10.1811C10.5082 10.5721 10.9154 10.7676 11.3695 10.6152C11.8235 10.4628 11.9794 10.1358 12.2911 9.48192C13.147 7.6863 13.147 5.64771 12.2911 3.85204C11.9794 3.19812 11.8235 2.87116 11.3695 2.71878C10.9154 2.56641 10.5082 2.76189 9.6937 3.15287Z" stroke="white" stroke-width="1.3" stroke-linecap="round" stroke-linejoin="round"/>
<path d="M7.84445 12.6777L7.04906 13.3332C5.25621 11.9113 5.47524 11.2332 5.47524 8.5332H6.07995C6.32535 10.059 6.9042 10.7817 7.70291 11.3049C8.19491 11.6272 8.29635 12.3052 7.84445 12.6777Z" stroke="white" stroke-width="1.3" stroke-linecap="round" stroke-linejoin="round"/>
<path d="M5.7334 8.26689V5.06689" stroke="white" stroke-width="1.3" stroke-linecap="round" stroke-linejoin="round"/>
</svg>
