<svg width="20" height="20" viewBox="0 0 20 20" fill="none" xmlns="http://www.w3.org/2000/svg">
<path d="M12.1174 3.94134L7.68218 6.07033C7.34084 6.23418 6.97612 6.27523 6.60434 6.19194C6.36102 6.13743 6.23934 6.11018 6.14137 6.09899C4.92479 5.96006 4.1665 6.92293 4.1665 8.03016V8.6378C4.1665 9.74505 4.92479 10.7079 6.14137 10.569C6.23934 10.5578 6.36102 10.5305 6.60434 10.4761C6.97612 10.3927 7.34084 10.4338 7.68218 10.5977L12.1174 12.7267C13.1354 13.2154 13.6445 13.4597 14.2121 13.2693C14.7796 13.0788 14.9744 12.67 15.3641 11.8526C16.434 9.60812 16.434 7.05988 15.3641 4.81529C14.9744 3.99789 14.7796 3.58919 14.2121 3.39872C13.6445 3.20825 13.1354 3.45261 12.1174 3.94134Z" stroke="white" stroke-width="1.4" stroke-linecap="round" stroke-linejoin="round"/>
<path d="M9.80557 15.8476L8.81133 16.667C6.57027 14.8896 6.84405 14.042 6.84405 10.667H7.59994C7.90669 12.5743 8.63025 13.4777 9.62863 14.1317C10.2436 14.5345 10.3704 15.382 9.80557 15.8476Z" stroke="white" stroke-width="1.4" stroke-linecap="round" stroke-linejoin="round"/>
<path d="M7.16699 10.3335V6.3335" stroke="white" stroke-width="1.4" stroke-linecap="round" stroke-linejoin="round"/>
</svg>
