<svg width="32" height="32" viewBox="0 0 32 32" fill="none" xmlns="http://www.w3.org/2000/svg">
<path d="M19.3879 6.30575L12.2916 9.71214C11.7454 9.97429 11.1619 10.04 10.567 9.90671C10.1777 9.8195 9.98305 9.77589 9.82629 9.75799C7.87976 9.53571 6.6665 11.0763 6.6665 12.8479V13.8201C6.6665 15.5917 7.87976 17.1323 9.82629 16.91C9.98305 16.8921 10.1777 16.8484 10.567 16.7613C11.1619 16.628 11.7454 16.6937 12.2916 16.9559L19.3879 20.3623C21.0168 21.1442 21.8313 21.5352 22.7395 21.2304C23.6475 20.9257 23.9592 20.2717 24.5827 18.9639C26.2944 15.3726 26.2944 11.2954 24.5827 7.70407C23.9592 6.39623 23.6475 5.74231 22.7395 5.43756C21.8313 5.13281 21.0168 5.52379 19.3879 6.30575Z" stroke="white" stroke-width="1.5" stroke-linecap="round" stroke-linejoin="round"/>
<path d="M15.6889 25.3559L14.0981 26.6669C10.5124 23.8231 10.9505 22.4669 10.9505 17.0669H12.1599C12.6507 20.1185 13.8084 21.564 15.4058 22.6104C16.3898 23.2548 16.5927 24.6109 15.6889 25.3559Z" stroke="white" stroke-width="1.5" stroke-linecap="round" stroke-linejoin="round"/>
<path d="M11.4668 16.5333V10.1333" stroke="white" stroke-width="1.5" stroke-linecap="round" stroke-linejoin="round"/>
</svg>
