<svg width="24" height="24" viewBox="0 0 24 24" fill="none" xmlns="http://www.w3.org/2000/svg">
<path d="M14.541 4.72882L9.21882 7.28362C8.80921 7.48023 8.37154 7.5295 7.9254 7.42954C7.63342 7.36414 7.48741 7.33143 7.36984 7.31801C5.90994 7.1513 5 8.30673 5 9.63541V10.3646C5 11.6933 5.90994 12.8487 7.36984 12.682C7.48741 12.6686 7.63342 12.6358 7.9254 12.5705C8.37154 12.4705 8.80921 12.5198 9.21882 12.7164L14.541 15.2712C15.7627 15.8577 16.3736 16.1509 17.0547 15.9223C17.7358 15.6938 17.9695 15.2033 18.4371 14.2224C19.721 11.529 19.721 8.47108 18.4371 5.77757C17.9695 4.79669 17.7358 4.30625 17.0547 4.07768C16.3736 3.84912 15.7627 4.14235 14.541 4.72882Z" stroke="white" stroke-width="1.5" stroke-linecap="round" stroke-linejoin="round"/>
<path d="M11.7667 19.0165L10.5736 19.9998C7.88432 17.8669 8.21286 16.8498 8.21286 12.7998H9.11993C9.48802 15.0885 10.3563 16.1726 11.5544 16.9574C12.2924 17.4408 12.4445 18.4578 11.7667 19.0165Z" stroke="white" stroke-width="1.5" stroke-linecap="round" stroke-linejoin="round"/>
<path d="M8.6001 12.3996V7.59961" stroke="white" stroke-width="1.5" stroke-linecap="round" stroke-linejoin="round"/>
</svg>
