<svg width="24" height="24" viewBox="0 0 24 24" fill="none" xmlns="http://www.w3.org/2000/svg">
<path d="M18.6667 4H5.33333C4.97971 4 4.64057 4.14048 4.39052 4.39052C4.14048 4.64057 4 4.97971 4 5.33333V18.6667C4 19.0203 4.14048 19.3594 4.39052 19.6095C4.64057 19.8595 4.97971 20 5.33333 20H14.3908C14.566 20.0003 14.7394 19.9659 14.9012 19.8988C15.0629 19.8317 15.2098 19.7333 15.3333 19.6092L19.6092 15.3333C19.7333 15.2098 19.8317 15.0629 19.8988 14.9012C19.9659 14.7394 20.0003 14.566 20 14.3908V5.33333C20 4.97971 19.8595 4.64057 19.6095 4.39052C19.3594 4.14048 19.0203 4 18.6667 4ZM9.33333 8.66667H14.6667C14.8435 8.66667 15.013 8.7369 15.1381 8.86193C15.2631 8.98695 15.3333 9.15652 15.3333 9.33333C15.3333 9.51014 15.2631 9.67971 15.1381 9.80474C15.013 9.92976 14.8435 10 14.6667 10H9.33333C9.15652 10 8.98695 9.92976 8.86193 9.80474C8.7369 9.67971 8.66667 9.51014 8.66667 9.33333C8.66667 9.15652 8.7369 8.98695 8.86193 8.86193C8.98695 8.7369 9.15652 8.66667 9.33333 8.66667ZM12 15.3333H9.33333C9.15652 15.3333 8.98695 15.2631 8.86193 15.1381C8.7369 15.013 8.66667 14.8435 8.66667 14.6667C8.66667 14.4899 8.7369 14.3203 8.86193 14.1953C8.98695 14.0702 9.15652 14 9.33333 14H12C12.1768 14 12.3464 14.0702 12.4714 14.1953C12.5964 14.3203 12.6667 14.4899 12.6667 14.6667C12.6667 14.8435 12.5964 15.013 12.4714 15.1381C12.3464 15.2631 12.1768 15.3333 12 15.3333ZM9.33333 12.6667C9.15652 12.6667 8.98695 12.5964 8.86193 12.4714C8.7369 12.3464 8.66667 12.1768 8.66667 12C8.66667 11.8232 8.7369 11.6536 8.86193 11.5286C8.98695 11.4036 9.15652 11.3333 9.33333 11.3333H14.6667C14.8435 11.3333 15.013 11.4036 15.1381 11.5286C15.2631 11.6536 15.3333 11.8232 15.3333 12C15.3333 12.1768 15.2631 12.3464 15.1381 12.4714C15.013 12.5964 14.8435 12.6667 14.6667 12.6667H9.33333ZM14.6667 18.3908V14.6667H18.3917L14.6667 18.3908Z" fill="#262626"/>
</svg>
