<svg width="32" height="32" viewBox="0 0 32 32" fill="none" xmlns="http://www.w3.org/2000/svg">
<path d="M24.889 5.33301H7.11127C6.63978 5.33301 6.18759 5.52031 5.8542 5.85371C5.5208 6.1871 5.3335 6.63929 5.3335 7.11079V24.8886C5.3335 25.3601 5.5208 25.8122 5.8542 26.1456C6.18759 26.479 6.63978 26.6663 7.11127 26.6663H19.1879C19.4214 26.6667 19.6527 26.6209 19.8684 26.5314C20.0841 26.442 20.2799 26.3107 20.4446 26.1452L26.1457 20.4441C26.3112 20.2794 26.4425 20.0836 26.5319 19.8679C26.6214 19.6522 26.6672 19.4209 26.6668 19.1875V7.11079C26.6668 6.63929 26.4795 6.1871 26.1461 5.85371C25.8127 5.52031 25.3605 5.33301 24.889 5.33301ZM12.4446 11.5552H19.5557C19.7915 11.5552 20.0176 11.6489 20.1843 11.8156C20.351 11.9823 20.4446 12.2084 20.4446 12.4441C20.4446 12.6799 20.351 12.906 20.1843 13.0727C20.0176 13.2394 19.7915 13.333 19.5557 13.333H12.4446C12.2089 13.333 11.9828 13.2394 11.8161 13.0727C11.6494 12.906 11.5557 12.6799 11.5557 12.4441C11.5557 12.2084 11.6494 11.9823 11.8161 11.8156C11.9828 11.6489 12.2089 11.5552 12.4446 11.5552ZM16.0002 20.4441H12.4446C12.2089 20.4441 11.9828 20.3505 11.8161 20.1838C11.6494 20.0171 11.5557 19.791 11.5557 19.5552C11.5557 19.3195 11.6494 19.0934 11.8161 18.9267C11.9828 18.76 12.2089 18.6663 12.4446 18.6663H16.0002C16.2359 18.6663 16.462 18.76 16.6287 18.9267C16.7954 19.0934 16.8891 19.3195 16.8891 19.5552C16.8891 19.791 16.7954 20.0171 16.6287 20.1838C16.462 20.3505 16.2359 20.4441 16.0002 20.4441ZM12.4446 16.8886C12.2089 16.8886 11.9828 16.7949 11.8161 16.6282C11.6494 16.4615 11.5557 16.2354 11.5557 15.9997C11.5557 15.7639 11.6494 15.5378 11.8161 15.3711C11.9828 15.2044 12.2089 15.1108 12.4446 15.1108H19.5557C19.7915 15.1108 20.0176 15.2044 20.1843 15.3711C20.351 15.5378 20.4446 15.7639 20.4446 15.9997C20.4446 16.2354 20.351 16.4615 20.1843 16.6282C20.0176 16.7949 19.7915 16.8886 19.5557 16.8886H12.4446ZM19.5557 24.5208V19.5552H24.5224L19.5557 24.5208Z" fill="#0076BE"/>
</svg>
