<svg width="16" height="16" viewBox="0 0 16 16" fill="none" xmlns="http://www.w3.org/2000/svg">
<path d="M12.4448 2.66602H3.55588C3.32013 2.66602 3.09404 2.75967 2.92734 2.92637C2.76064 3.09306 2.66699 3.31916 2.66699 3.5549V12.4438C2.66699 12.6795 2.76064 12.9056 2.92734 13.0723C3.09404 13.239 3.32013 13.3327 3.55588 13.3327H9.59421C9.71096 13.3329 9.82659 13.3099 9.93443 13.2652C10.0423 13.2205 10.1402 13.1549 10.2225 13.0721L13.0731 10.2216C13.1559 10.1392 13.2215 10.0413 13.2662 9.93345C13.3109 9.82561 13.3338 9.70998 13.3337 9.59324V3.5549C13.3337 3.31916 13.24 3.09306 13.0733 2.92637C12.9066 2.75967 12.6805 2.66602 12.4448 2.66602ZM6.22255 5.77713H9.7781C9.89598 5.77713 10.009 5.82395 10.0924 5.9073C10.1757 5.99065 10.2225 6.1037 10.2225 6.22157C10.2225 6.33944 10.1757 6.45249 10.0924 6.53584C10.009 6.61919 9.89598 6.66602 9.7781 6.66602H6.22255C6.10467 6.66602 5.99163 6.61919 5.90828 6.53584C5.82493 6.45249 5.7781 6.33944 5.7781 6.22157C5.7781 6.1037 5.82493 5.99065 5.90828 5.9073C5.99163 5.82395 6.10467 5.77713 6.22255 5.77713ZM8.00032 10.2216H6.22255C6.10467 10.2216 5.99163 10.1747 5.90828 10.0914C5.82493 10.008 5.7781 9.895 5.7781 9.77713C5.7781 9.65925 5.82493 9.54621 5.90828 9.46286C5.99163 9.37951 6.10467 9.33268 6.22255 9.33268H8.00032C8.1182 9.33268 8.23125 9.37951 8.31459 9.46286C8.39794 9.54621 8.44477 9.65925 8.44477 9.77713C8.44477 9.895 8.39794 10.008 8.31459 10.0914C8.23125 10.1747 8.1182 10.2216 8.00032 10.2216ZM6.22255 8.44379C6.10467 8.44379 5.99163 8.39697 5.90828 8.31362C5.82493 8.23027 5.7781 8.11722 5.7781 7.99935C5.7781 7.88147 5.82493 7.76843 5.90828 7.68508C5.99163 7.60173 6.10467 7.5549 6.22255 7.5549H9.7781C9.89598 7.5549 10.009 7.60173 10.0924 7.68508C10.1757 7.76843 10.2225 7.88147 10.2225 7.99935C10.2225 8.11722 10.1757 8.23027 10.0924 8.31362C10.009 8.39697 9.89598 8.44379 9.7781 8.44379H6.22255ZM9.7781 12.2599V9.77713H12.2614L9.7781 12.2599Z" fill="#8C8C8C"/>
</svg>
