<svg width="12" height="12" viewBox="0 0 12 12" fill="none" xmlns="http://www.w3.org/2000/svg">
<path d="M9.33333 2H2.66667C2.48986 2 2.32029 2.07024 2.19526 2.19526C2.07024 2.32029 2 2.48986 2 2.66667V9.33333C2 9.51014 2.07024 9.67971 2.19526 9.80474C2.32029 9.92976 2.48986 10 2.66667 10H7.19542C7.28298 10.0001 7.3697 9.98295 7.45058 9.94941C7.53146 9.91587 7.6049 9.86665 7.66667 9.80458L9.80458 7.66667C9.86665 7.6049 9.91587 7.53146 9.94941 7.45058C9.98295 7.3697 10.0001 7.28298 10 7.19542V2.66667C10 2.48986 9.92976 2.32029 9.80474 2.19526C9.67971 2.07024 9.51014 2 9.33333 2ZM4.66667 4.33333H7.33333C7.42174 4.33333 7.50652 4.36845 7.56904 4.43096C7.63155 4.49348 7.66667 4.57826 7.66667 4.66667C7.66667 4.75507 7.63155 4.83986 7.56904 4.90237C7.50652 4.96488 7.42174 5 7.33333 5H4.66667C4.57826 5 4.49348 4.96488 4.43096 4.90237C4.36845 4.83986 4.33333 4.75507 4.33333 4.66667C4.33333 4.57826 4.36845 4.49348 4.43096 4.43096C4.49348 4.36845 4.57826 4.33333 4.66667 4.33333ZM6 7.66667H4.66667C4.57826 7.66667 4.49348 7.63155 4.43096 7.56904C4.36845 7.50652 4.33333 7.42174 4.33333 7.33333C4.33333 7.24493 4.36845 7.16014 4.43096 7.09763C4.49348 7.03512 4.57826 7 4.66667 7H6C6.0884 7 6.17319 7.03512 6.2357 7.09763C6.29821 7.16014 6.33333 7.24493 6.33333 7.33333C6.33333 7.42174 6.29821 7.50652 6.2357 7.56904C6.17319 7.63155 6.0884 7.66667 6 7.66667ZM4.66667 6.33333C4.57826 6.33333 4.49348 6.29821 4.43096 6.2357C4.36845 6.17319 4.33333 6.0884 4.33333 6C4.33333 5.91159 4.36845 5.82681 4.43096 5.7643C4.49348 5.70179 4.57826 5.66667 4.66667 5.66667H7.33333C7.42174 5.66667 7.50652 5.70179 7.56904 5.7643C7.63155 5.82681 7.66667 5.91159 7.66667 6C7.66667 6.0884 7.63155 6.17319 7.56904 6.2357C7.50652 6.29821 7.42174 6.33333 7.33333 6.33333H4.66667ZM7.33333 9.19542V7.33333H9.19583L7.33333 9.19542Z" fill="#8C8C8C"/>
</svg>
