<svg width="20" height="20" viewBox="0 0 20 20" fill="none" xmlns="http://www.w3.org/2000/svg">
<path d="M15.5557 3.33301H4.44461C4.14992 3.33301 3.86731 3.45007 3.65893 3.65844C3.45056 3.86682 3.3335 4.14943 3.3335 4.44412V15.5552C3.3335 15.8499 3.45056 16.1325 3.65893 16.3409C3.86731 16.5493 4.14992 16.6663 4.44461 16.6663H11.9925C12.1385 16.6666 12.283 16.6379 12.4178 16.582C12.5526 16.5261 12.675 16.4441 12.7779 16.3406L16.3411 12.7775C16.4446 12.6745 16.5266 12.5521 16.5825 12.4173C16.6384 12.2825 16.6671 12.138 16.6668 11.992V4.44412C16.6668 4.14943 16.5498 3.86682 16.3414 3.65844C16.133 3.45007 15.8504 3.33301 15.5557 3.33301ZM7.77794 7.2219H12.2224C12.3697 7.2219 12.511 7.28043 12.6152 7.38461C12.7194 7.4888 12.7779 7.63011 12.7779 7.77745C12.7779 7.92479 12.7194 8.0661 12.6152 8.17029C12.511 8.27448 12.3697 8.33301 12.2224 8.33301H7.77794C7.6306 8.33301 7.48929 8.27448 7.3851 8.17029C7.28092 8.0661 7.22238 7.92479 7.22238 7.77745C7.22238 7.63011 7.28092 7.4888 7.3851 7.38461C7.48929 7.28043 7.6306 7.2219 7.77794 7.2219ZM10.0002 12.7775H7.77794C7.6306 12.7775 7.48929 12.7189 7.3851 12.6147C7.28092 12.5105 7.22238 12.3692 7.22238 12.2219C7.22238 12.0746 7.28092 11.9332 7.3851 11.8291C7.48929 11.7249 7.6306 11.6663 7.77794 11.6663H10.0002C10.1475 11.6663 10.2888 11.7249 10.393 11.8291C10.4972 11.9332 10.5557 12.0746 10.5557 12.2219C10.5557 12.3692 10.4972 12.5105 10.393 12.6147C10.2888 12.7189 10.1475 12.7775 10.0002 12.7775ZM7.77794 10.5552C7.6306 10.5552 7.48929 10.4967 7.3851 10.3925C7.28092 10.2883 7.22238 10.147 7.22238 9.99967C7.22238 9.85233 7.28092 9.71102 7.3851 9.60684C7.48929 9.50265 7.6306 9.44412 7.77794 9.44412H12.2224C12.3697 9.44412 12.511 9.50265 12.6152 9.60684C12.7194 9.71102 12.7779 9.85233 12.7779 9.99967C12.7779 10.147 12.7194 10.2883 12.6152 10.3925C12.511 10.4967 12.3697 10.5552 12.2224 10.5552H7.77794ZM12.2224 15.3254V12.2219H15.3266L12.2224 15.3254Z" fill="white"/>
</svg>
