<svg width="12" height="12" viewBox="0 0 12 12" fill="none" xmlns="http://www.w3.org/2000/svg">
<path d="M4.69309 2.81219L2.10529 5.07664C1.88338 5.27084 2.03217 5.61573 2.33786 5.61573C2.52462 5.61573 2.67602 5.75556 2.67602 5.92809V7.36964C2.67602 8.60982 2.67602 9.22991 3.09314 9.6152C3.51026 10.0005 4.18161 10.0005 5.52431 10.0005H6.47373C7.81645 10.0005 8.48778 10.0005 8.90489 9.6152C9.32205 9.22991 9.32205 8.60982 9.32205 7.36964V5.92809C9.32205 5.75556 9.47342 5.61573 9.66018 5.61573C9.96587 5.61573 10.1147 5.27084 9.89276 5.07664L7.30494 2.81219C6.68653 2.27106 6.37733 2.00049 5.99902 2.00049C5.62071 2.00049 5.31151 2.27106 4.69309 2.81219Z" stroke="#262626" stroke-width="1.5" stroke-linecap="round" stroke-linejoin="round"/>
<path d="M5.99951 7.77783H6.00401" stroke="#262626" stroke-width="2" stroke-linecap="round" stroke-linejoin="round"/>
</svg>
