<svg width="16" height="16" viewBox="0 0 16 16" fill="none" xmlns="http://www.w3.org/2000/svg">
<path d="M6.25908 3.74877L2.80869 6.76804C2.5128 7.02698 2.71119 7.48683 3.11877 7.48683C3.36779 7.48683 3.56965 7.67326 3.56965 7.9033V9.82538C3.56965 11.4789 3.56965 12.3057 4.12581 12.8195C4.68198 13.3332 5.57711 13.3332 7.36738 13.3332H8.63327C10.4236 13.3332 11.3187 13.3332 11.8748 12.8195C12.431 12.3057 12.431 11.4789 12.431 9.82538V7.9033C12.431 7.67326 12.6329 7.48683 12.8819 7.48683C13.2895 7.48683 13.4879 7.02698 13.192 6.76804L9.74154 3.74877C8.91701 3.02726 8.50474 2.6665 8.00033 2.6665C7.49591 2.6665 7.08364 3.02726 6.25908 3.74877Z" stroke="#262626" stroke-width="1.5" stroke-linecap="round" stroke-linejoin="round"/>
<path d="M8.00049 10.3701H8.00649" stroke="#262626" stroke-width="2" stroke-linecap="round" stroke-linejoin="round"/>
</svg>
