<svg width="32" height="32" viewBox="0 0 32 32" fill="none" xmlns="http://www.w3.org/2000/svg">
<path d="M12.5182 7.49755L5.61737 13.5361C5.0256 14.054 5.42237 14.9737 6.23755 14.9737C6.73557 14.9737 7.13931 15.3465 7.13931 15.8066V19.6508C7.13931 22.9579 7.13931 24.6115 8.25163 25.6389C9.36396 26.6663 11.1542 26.6663 14.7348 26.6663H17.2665C20.8471 26.6663 22.6373 26.6663 23.7496 25.6389C24.862 24.6115 24.862 22.9579 24.862 19.6508V15.8066C24.862 15.3465 25.2657 14.9737 25.7637 14.9737C26.5789 14.9737 26.9757 14.054 26.3839 13.5361L19.4831 7.49755C17.834 6.05453 17.0095 5.33301 16.0007 5.33301C14.9918 5.33301 14.1673 6.05453 12.5182 7.49755Z" stroke="#262626" stroke-width="1.5" stroke-linecap="round" stroke-linejoin="round"/>
<path d="M16.0005 20.7407H16.0125" stroke="#262626" stroke-width="2" stroke-linecap="round" stroke-linejoin="round"/>
</svg>
