<svg width="20" height="20" viewBox="0 0 20 20" fill="none" xmlns="http://www.w3.org/2000/svg">
<path d="M7.8241 4.68633L3.5111 8.46042C3.14124 8.78409 3.38923 9.3589 3.89871 9.3589C4.20998 9.3589 4.46231 9.59194 4.46231 9.8795V12.2821C4.46231 14.3491 4.46231 15.3825 5.15751 16.0247C5.85272 16.6668 6.97163 16.6668 9.20947 16.6668H10.7918C13.0297 16.6668 14.1486 16.6668 14.8438 16.0247C15.539 15.3825 15.539 14.3491 15.539 12.2821V9.8795C15.539 9.59194 15.7913 9.3589 16.1026 9.3589C16.6121 9.3589 16.8601 8.78409 16.4902 8.46042L12.1772 4.68633C11.1465 3.78444 10.6312 3.3335 10.0007 3.3335C9.37013 3.3335 8.8548 3.78444 7.8241 4.68633Z" stroke="#0076BE" stroke-width="1.5" stroke-linecap="round" stroke-linejoin="round"/>
<path d="M10.0005 12.9629H10.008" stroke="#0076BE" stroke-width="2" stroke-linecap="round" stroke-linejoin="round"/>
</svg>
