<svg width="20" height="20" viewBox="0 0 20 20" fill="none" xmlns="http://www.w3.org/2000/svg">
<path d="M7.8241 4.68585L3.5111 8.45993C3.14124 8.7836 3.38923 9.35842 3.89871 9.35842C4.20998 9.35842 4.46231 9.59145 4.46231 9.87901V12.2816C4.46231 14.3486 4.46231 15.382 5.15751 16.0242C5.85272 16.6663 6.97163 16.6663 9.20947 16.6663H10.7918C13.0297 16.6663 14.1486 16.6663 14.8438 16.0242C15.539 15.382 15.539 14.3486 15.539 12.2816V9.87901C15.539 9.59145 15.7913 9.35842 16.1026 9.35842C16.6121 9.35842 16.8601 8.7836 16.4902 8.45993L12.1772 4.68585C11.1465 3.78396 10.6312 3.33301 10.0007 3.33301C9.37013 3.33301 8.8548 3.78396 7.8241 4.68585Z" stroke="#8C8C8C" stroke-width="1.5" stroke-linecap="round" stroke-linejoin="round"/>
<path d="M10.0005 12.9629H10.008" stroke="#8C8C8C" stroke-width="2" stroke-linecap="round" stroke-linejoin="round"/>
</svg>
