<svg width="12" height="12" viewBox="0 0 12 12" fill="none" xmlns="http://www.w3.org/2000/svg">
<path d="M4.69309 2.8117L2.10529 5.07615C1.88338 5.27036 2.03217 5.61525 2.33786 5.61525C2.52462 5.61525 2.67602 5.75507 2.67602 5.9276V7.36916C2.67602 8.60933 2.67602 9.22942 3.09314 9.61471C3.51026 10 4.18161 10 5.52431 10H6.47373C7.81645 10 8.48778 10 8.90489 9.61471C9.32205 9.22942 9.32205 8.60933 9.32205 7.36916V5.9276C9.32205 5.75507 9.47342 5.61525 9.66018 5.61525C9.96587 5.61525 10.1147 5.27036 9.89276 5.07615L7.30494 2.8117C6.68653 2.27057 6.37733 2 5.99902 2C5.62071 2 5.31151 2.27057 4.69309 2.8117Z" stroke="white" stroke-width="1.5" stroke-linecap="round" stroke-linejoin="round"/>
<path d="M5.99951 7.77734H6.00401" stroke="white" stroke-width="2" stroke-linecap="round" stroke-linejoin="round"/>
</svg>
