<svg width="32" height="32" viewBox="0 0 32 32" fill="none" xmlns="http://www.w3.org/2000/svg">
<path d="M12.5182 7.49804L5.61737 13.5366C5.0256 14.0544 5.42237 14.9741 6.23755 14.9741C6.73557 14.9741 7.13931 15.347 7.13931 15.8071V19.6512C7.13931 22.9584 7.13931 24.612 8.25163 25.6394C9.36396 26.6668 11.1542 26.6668 14.7348 26.6668H17.2665C20.8471 26.6668 22.6373 26.6668 23.7496 25.6394C24.862 24.612 24.862 22.9584 24.862 19.6512V15.8071C24.862 15.347 25.2657 14.9741 25.7637 14.9741C26.5789 14.9741 26.9757 14.0544 26.3839 13.5366L19.4831 7.49804C17.834 6.05501 17.0095 5.3335 16.0007 5.3335C14.9918 5.3335 14.1673 6.05501 12.5182 7.49804Z" stroke="white" stroke-width="1.5" stroke-linecap="round" stroke-linejoin="round"/>
<path d="M16.0005 20.7407H16.0125" stroke="white" stroke-width="2" stroke-linecap="round" stroke-linejoin="round"/>
</svg>
