<svg width="24" height="24" viewBox="0 0 24 24" fill="none" xmlns="http://www.w3.org/2000/svg">
<path d="M9.38813 5.6234L4.21254 10.1523C3.76871 10.5407 4.06629 11.2305 4.67767 11.2305C5.05119 11.2305 5.35399 11.5101 5.35399 11.8552V14.7383C5.35399 17.2187 5.35399 18.4588 6.18823 19.2294C7.02248 20 8.36517 20 11.0506 20H12.9494C15.6348 20 16.9775 20 17.8117 19.2294C18.646 18.4588 18.646 17.2187 18.646 14.7383V11.8552C18.646 11.5101 18.9488 11.2305 19.3223 11.2305C19.9337 11.2305 20.2313 10.5407 19.7875 10.1523L14.6118 5.6234C13.375 4.54114 12.7566 4 12 4C11.2434 4 10.625 4.54114 9.38813 5.6234Z" stroke="white" stroke-width="1.5" stroke-linecap="round" stroke-linejoin="round"/>
<path d="M12 15.5557H12.009" stroke="white" stroke-width="2" stroke-linecap="round" stroke-linejoin="round"/>
</svg>
