<svg width="16" height="16" viewBox="0 0 16 16" fill="none" xmlns="http://www.w3.org/2000/svg">
<path d="M6.25908 3.74926L2.80869 6.76853C2.5128 7.02747 2.71119 7.48732 3.11877 7.48732C3.36779 7.48732 3.56965 7.67375 3.56965 7.90379V9.82587C3.56965 11.4794 3.56965 12.3062 4.12581 12.8199C4.68198 13.3337 5.57711 13.3337 7.36738 13.3337H8.63327C10.4236 13.3337 11.3187 13.3337 11.8748 12.8199C12.431 12.3062 12.431 11.4794 12.431 9.82587V7.90379C12.431 7.67375 12.6329 7.48732 12.8819 7.48732C13.2895 7.48732 13.4879 7.02747 13.192 6.76853L9.74154 3.74926C8.91701 3.02775 8.50474 2.66699 8.00033 2.66699C7.49591 2.66699 7.08364 3.02775 6.25908 3.74926Z" stroke="white" stroke-width="1.5" stroke-linecap="round" stroke-linejoin="round"/>
<path d="M8.00049 10.3701H8.00649" stroke="white" stroke-width="2" stroke-linecap="round" stroke-linejoin="round"/>
</svg>
