<svg width="20" height="20" viewBox="0 0 20 20" fill="none" xmlns="http://www.w3.org/2000/svg">
<path fill-rule="evenodd" clip-rule="evenodd" d="M7.93937 5.63563C7.93937 6.90579 6.9083 7.93695 5.63643 7.93695C4.36457 7.93695 3.3335 6.90579 3.3335 5.63563C3.3335 4.36465 4.36457 3.3335 5.63643 3.3335C6.9083 3.3335 7.93937 4.36465 7.93937 5.63563Z" stroke="#262626" stroke-width="1.5" stroke-linecap="round" stroke-linejoin="round"/>
<path d="M11.1289 5.94861H16.6665" stroke="#262626" stroke-width="1.5" stroke-linecap="round" stroke-linejoin="round"/>
<path fill-rule="evenodd" clip-rule="evenodd" d="M12.061 14.3618C12.061 13.0906 13.0921 12.0601 14.364 12.0601C15.6358 12.0601 16.6669 13.0906 16.6669 14.3618C16.6669 15.633 15.6358 16.6635 14.364 16.6635C13.0921 16.6635 12.061 15.633 12.061 14.3618Z" stroke="#262626" stroke-width="1.5" stroke-linecap="round" stroke-linejoin="round"/>
<path d="M8.87154 14.6757H3.33398" stroke="#262626" stroke-width="1.5" stroke-linecap="round" stroke-linejoin="round"/>
</svg>
