<svg width="16" height="16" viewBox="0 0 16 16" fill="none" xmlns="http://www.w3.org/2000/svg">
<path fill-rule="evenodd" clip-rule="evenodd" d="M6.35169 4.5087C6.35169 5.52483 5.52684 6.34975 4.50934 6.34975C3.49185 6.34975 2.66699 5.52483 2.66699 4.5087C2.66699 3.49192 3.49185 2.66699 4.50934 2.66699C5.52684 2.66699 6.35169 3.49192 6.35169 4.5087Z" stroke="#262626" stroke-width="1.5" stroke-linecap="round" stroke-linejoin="round"/>
<path d="M8.90332 4.75889H13.3334" stroke="#262626" stroke-width="1.5" stroke-linecap="round" stroke-linejoin="round"/>
<path fill-rule="evenodd" clip-rule="evenodd" d="M9.64893 11.4893C9.64893 10.4724 10.4738 9.64795 11.4913 9.64795C12.5088 9.64795 13.3336 10.4724 13.3336 11.4893C13.3336 12.5063 12.5088 13.3307 11.4913 13.3307C10.4738 13.3307 9.64893 12.5063 9.64893 11.4893Z" stroke="#262626" stroke-width="1.5" stroke-linecap="round" stroke-linejoin="round"/>
<path d="M7.09704 11.7403H2.66699" stroke="#262626" stroke-width="1.5" stroke-linecap="round" stroke-linejoin="round"/>
</svg>
