<svg width="24" height="24" viewBox="0 0 24 24" fill="none" xmlns="http://www.w3.org/2000/svg">
<path fill-rule="evenodd" clip-rule="evenodd" d="M9.52705 6.76256C9.52705 8.28676 8.28977 9.52414 6.76353 9.52414C5.23728 9.52414 4 8.28676 4 6.76256C4 5.23738 5.23728 4 6.76353 4C8.28977 4 9.52705 5.23738 9.52705 6.76256Z" stroke="#262626" stroke-width="1.5" stroke-linecap="round" stroke-linejoin="round"/>
<path d="M13.3545 7.13833H19.9996" stroke="#262626" stroke-width="1.5" stroke-linecap="round" stroke-linejoin="round"/>
<path fill-rule="evenodd" clip-rule="evenodd" d="M14.4731 17.2342C14.4731 15.7088 15.7104 14.4722 17.2367 14.4722C18.7629 14.4722 20.0002 15.7088 20.0002 17.2342C20.0002 18.7597 18.7629 19.9963 17.2367 19.9963C15.7104 19.9963 14.4731 18.7597 14.4731 17.2342Z" stroke="#262626" stroke-width="1.5" stroke-linecap="round" stroke-linejoin="round"/>
<path d="M10.6456 17.6105H4.00049" stroke="#262626" stroke-width="1.5" stroke-linecap="round" stroke-linejoin="round"/>
</svg>
