<svg width="12" height="12" viewBox="0 0 12 12" fill="none" xmlns="http://www.w3.org/2000/svg">
<path fill-rule="evenodd" clip-rule="evenodd" d="M4.76353 3.38128C4.76353 4.14338 4.14488 4.76207 3.38176 4.76207C2.61864 4.76207 2 4.14338 2 3.38128C2 2.61869 2.61864 2 3.38176 2C4.14488 2 4.76353 2.61869 4.76353 3.38128Z" stroke="#E62129" stroke-width="1.5" stroke-linecap="round" stroke-linejoin="round"/>
<path d="M6.67773 3.56916H10.0003" stroke="#E62129" stroke-width="1.5" stroke-linecap="round" stroke-linejoin="round"/>
<path fill-rule="evenodd" clip-rule="evenodd" d="M7.23682 8.61688C7.23682 7.85416 7.85546 7.23584 8.61858 7.23584C9.3817 7.23584 10.0003 7.85416 10.0003 8.61688C10.0003 9.37959 9.3817 9.99791 8.61858 9.99791C7.85546 9.99791 7.23682 9.37959 7.23682 8.61688Z" stroke="#E62129" stroke-width="1.5" stroke-linecap="round" stroke-linejoin="round"/>
<path d="M5.32253 8.805H2" stroke="#E62129" stroke-width="1.5" stroke-linecap="round" stroke-linejoin="round"/>
</svg>
