<svg width="32" height="32" viewBox="0 0 32 32" fill="none" xmlns="http://www.w3.org/2000/svg">
<path fill-rule="evenodd" clip-rule="evenodd" d="M12.7029 9.0169C12.7029 11.0492 11.0532 12.699 9.0182 12.699C6.98321 12.699 5.3335 11.0492 5.3335 9.0169C5.3335 6.98334 6.98321 5.3335 9.0182 5.3335C11.0532 5.3335 12.7029 6.98334 12.7029 9.0169Z" stroke="white" stroke-width="1.5" stroke-linecap="round" stroke-linejoin="round"/>
<path d="M17.8062 9.51777H26.6662" stroke="white" stroke-width="1.5" stroke-linecap="round" stroke-linejoin="round"/>
<path fill-rule="evenodd" clip-rule="evenodd" d="M19.2974 22.9791C19.2974 20.9452 20.9471 19.2964 22.9821 19.2964C25.0171 19.2964 26.6668 20.9452 26.6668 22.9791C26.6668 25.0131 25.0171 26.6619 22.9821 26.6619C20.9471 26.6619 19.2974 25.0131 19.2974 22.9791Z" stroke="white" stroke-width="1.5" stroke-linecap="round" stroke-linejoin="round"/>
<path d="M14.1941 23.4807H5.33398" stroke="white" stroke-width="1.5" stroke-linecap="round" stroke-linejoin="round"/>
</svg>
